%TF.GenerationSoftware,KiCad,Pcbnew,7.0.6-7.0.6~ubuntu22.04.1*%
%TF.CreationDate,2023-07-17T17:36:07+01:00*%
%TF.ProjectId,phasenom,70686173-656e-46f6-9d2e-6b696361645f,rev?*%
%TF.SameCoordinates,Original*%
%TF.FileFunction,Soldermask,Bot*%
%TF.FilePolarity,Negative*%
%FSLAX46Y46*%
G04 Gerber Fmt 4.6, Leading zero omitted, Abs format (unit mm)*
G04 Created by KiCad (PCBNEW 7.0.6-7.0.6~ubuntu22.04.1) date 2023-07-17 17:36:07*
%MOMM*%
%LPD*%
G01*
G04 APERTURE LIST*
G04 Aperture macros list*
%AMRoundRect*
0 Rectangle with rounded corners*
0 $1 Rounding radius*
0 $2 $3 $4 $5 $6 $7 $8 $9 X,Y pos of 4 corners*
0 Add a 4 corners polygon primitive as box body*
4,1,4,$2,$3,$4,$5,$6,$7,$8,$9,$2,$3,0*
0 Add four circle primitives for the rounded corners*
1,1,$1+$1,$2,$3*
1,1,$1+$1,$4,$5*
1,1,$1+$1,$6,$7*
1,1,$1+$1,$8,$9*
0 Add four rect primitives between the rounded corners*
20,1,$1+$1,$2,$3,$4,$5,0*
20,1,$1+$1,$4,$5,$6,$7,0*
20,1,$1+$1,$6,$7,$8,$9,0*
20,1,$1+$1,$8,$9,$2,$3,0*%
G04 Aperture macros list end*
%ADD10RoundRect,0.200000X-0.800000X0.800000X-0.800000X-0.800000X0.800000X-0.800000X0.800000X0.800000X0*%
%ADD11C,2.000000*%
%ADD12RoundRect,0.200000X-0.800000X-0.800000X0.800000X-0.800000X0.800000X0.800000X-0.800000X0.800000X0*%
%ADD13RoundRect,0.200000X1.000000X0.950000X-1.000000X0.950000X-1.000000X-0.950000X1.000000X-0.950000X0*%
%ADD14C,2.300000*%
%ADD15O,2.100000X2.100000*%
%ADD16RoundRect,0.200000X0.850000X0.850000X-0.850000X0.850000X-0.850000X-0.850000X0.850000X-0.850000X0*%
%ADD17C,3.400000*%
%ADD18RoundRect,0.200000X-0.850000X0.850000X-0.850000X-0.850000X0.850000X-0.850000X0.850000X0.850000X0*%
%ADD19RoundRect,0.200000X-0.750000X-0.750000X0.750000X-0.750000X0.750000X0.750000X-0.750000X0.750000X0*%
%ADD20C,1.900000*%
%ADD21RoundRect,0.200000X1.300000X0.750000X-1.300000X0.750000X-1.300000X-0.750000X1.300000X-0.750000X0*%
%ADD22O,3.000000X1.900000*%
%ADD23RoundRect,0.200000X0.800000X-0.800000X0.800000X0.800000X-0.800000X0.800000X-0.800000X-0.800000X0*%
%ADD24C,1.840000*%
%ADD25O,5.400000X3.600000*%
%ADD26C,1.924000*%
G04 APERTURE END LIST*
D10*
%TO.C,C2*%
X162000000Y-140200000D03*
D11*
X162000000Y-142700000D03*
%TD*%
D12*
%TO.C,C6*%
X153510000Y-77800000D03*
D11*
X156010000Y-77800000D03*
%TD*%
D13*
%TO.C,D1*%
X122500000Y-137540000D03*
D14*
X122500000Y-135000000D03*
%TD*%
D15*
%TO.C,J1*%
X153260000Y-54550000D03*
D16*
X153260000Y-57090000D03*
%TD*%
D17*
%TO.C,IN1*%
X156925000Y-114500000D03*
X156925000Y-130730000D03*
X163275000Y-114500000D03*
X163275000Y-130730000D03*
X150575000Y-114500000D03*
X150575000Y-130730000D03*
%TD*%
%TO.C,OUT1*%
X128660000Y-130730000D03*
X128660000Y-114500000D03*
X122310000Y-130730000D03*
X122310000Y-114500000D03*
X135010000Y-130730000D03*
X135010000Y-114500000D03*
%TD*%
D18*
%TO.C,J4*%
X144140000Y-116810000D03*
D15*
X141600000Y-116810000D03*
%TD*%
D19*
%TO.C,Q3*%
X126720000Y-85300000D03*
D20*
X129260000Y-85300000D03*
X131800000Y-85300000D03*
%TD*%
D21*
%TO.C,SW99*%
X148550000Y-137825000D03*
D22*
X143250000Y-137825000D03*
X137950000Y-137825000D03*
X148550000Y-142525000D03*
X143250000Y-142550000D03*
X137950000Y-142525000D03*
X148550000Y-147225000D03*
X143250000Y-147225000D03*
X137950000Y-147225000D03*
%TD*%
D23*
%TO.C,C14*%
X164260000Y-75050000D03*
D11*
X164260000Y-72550000D03*
%TD*%
D24*
%TO.C,RT1*%
X159510000Y-64300000D03*
X156970000Y-66840000D03*
X154430000Y-64300000D03*
%TD*%
D25*
%TO.C,SW2*%
X120010000Y-89600000D03*
X120010000Y-94050000D03*
X120010000Y-98500000D03*
%TD*%
D19*
%TO.C,Q5*%
X126710000Y-63000000D03*
D20*
X129250000Y-63000000D03*
X131790000Y-63000000D03*
%TD*%
D19*
%TO.C,Q4*%
X126710000Y-80550000D03*
D20*
X129250000Y-80550000D03*
X131790000Y-80550000D03*
%TD*%
%TO.C,Q2*%
X131790000Y-100750000D03*
X129250000Y-100750000D03*
D19*
X126710000Y-100750000D03*
%TD*%
D26*
%TO.C,RV1*%
X147760000Y-84445832D03*
X142760000Y-84445832D03*
X137510000Y-84445832D03*
%TD*%
D18*
%TO.C,JOVGI1*%
X146700000Y-111350000D03*
D15*
X144160000Y-111350000D03*
X141620000Y-111350000D03*
X139080000Y-111350000D03*
%TD*%
D18*
%TO.C,JOVGI2*%
X146700000Y-105800000D03*
D15*
X144160000Y-105800000D03*
X141620000Y-105800000D03*
X139080000Y-105800000D03*
%TD*%
M02*
