M48
; DRILL file {KiCad 7.0.6-7.0.6~ubuntu22.04.1} date Mon 17 Jul 2023 17:36:07 BST
; FORMAT={-:-/ absolute / inch / decimal}
; #@! TF.CreationDate,2023-07-17T17:36:07+01:00
; #@! TF.GenerationSoftware,Kicad,Pcbnew,7.0.6-7.0.6~ubuntu22.04.1
; #@! TF.FileFunction,Plated,1,2,PTH
FMAT,2
INCH
; #@! TA.AperFunction,Plated,PTH,ViaDrill
T1C0.0157
; #@! TA.AperFunction,Plated,PTH,ComponentDrill
T2C0.0315
; #@! TA.AperFunction,Plated,PTH,ComponentDrill
T3C0.0394
; #@! TA.AperFunction,Plated,PTH,ComponentDrill
T4C0.0394
; #@! TA.AperFunction,Plated,PTH,ComponentDrill
T5C0.0433
; #@! TA.AperFunction,Plated,PTH,ComponentDrill
T6C0.0551
%
G90
G05
T1
X4.9217Y-3.6535
X4.9315Y-2.6693
X5.0398Y-2.6299
X5.0398Y-2.8957
X5.0398Y-3.5256
X5.1886Y-4.0571
X5.2169Y-4.1555
X5.2201Y-2.6118
X5.2661Y-3.3484
X5.2957Y-3.7224
X5.335Y-3.25
X5.3744Y-3.8307
X5.4138Y-4.0571
X5.5024Y-2.5315
X5.5024Y-3.8602
X5.5516Y-3.6437
X5.6205Y-4.0965
X5.7583Y-3.7913
X5.9453Y-4.1161
X5.9748Y-2.7677
X6.1421Y-2.3346
X6.5358Y-5.3169
T2
X4.9886Y-2.4803
X4.9886Y-3.1713
X4.9886Y-3.9665
X4.989Y-3.3583
X5.0886Y-2.4803
X5.0886Y-3.1713
X5.0886Y-3.9665
X5.089Y-3.3583
X5.1886Y-2.4803
X5.1886Y-3.1713
X5.1886Y-3.9665
X5.189Y-3.3583
X6.0437Y-3.063
X6.0799Y-2.5315
X6.1421Y-3.063
X6.1799Y-2.6315
X6.2799Y-2.5315
X6.378Y-5.5197
X6.378Y-5.6181
X6.4669Y-2.8563
X6.4669Y-2.9547
T3
X5.4756Y-4.1654
X5.4756Y-4.3839
X5.5748Y-4.5988
X5.5756Y-4.1654
X5.5756Y-4.3839
X5.6748Y-4.5988
X5.6756Y-4.1654
X5.6756Y-4.3839
X5.7756Y-4.1654
X5.7756Y-4.3839
X6.0339Y-2.1476
X6.0339Y-2.2476
T4
X4.8228Y-5.315
X4.8228Y-5.415
T5
X5.4138Y-3.3246
X5.6205Y-3.3246
X5.8173Y-3.3246
T6
X4.8154Y-4.5079
X4.8154Y-5.1469
X5.0654Y-4.5079
X5.0654Y-5.1469
X5.3154Y-4.5079
X5.3154Y-5.1469
X5.9281Y-4.5079
X5.9281Y-5.1469
X6.1781Y-4.5079
X6.1781Y-5.1469
X6.4281Y-4.5079
X6.4281Y-5.1469
T3
G00X5.4528Y-5.4262
M15
G01X5.4094Y-5.4262
M16
G05
G00X5.4528Y-5.6112
M15
G01X5.4094Y-5.6112
M16
G05
G00X5.4528Y-5.7963
M15
G01X5.4094Y-5.7963
M16
G05
G00X5.6614Y-5.4262
M15
G01X5.6181Y-5.4262
M16
G05
G00X5.6614Y-5.6122
M15
G01X5.6181Y-5.6122
M16
G05
G00X5.6614Y-5.7963
M15
G01X5.6181Y-5.7963
M16
G05
G00X5.8701Y-5.4262
M15
G01X5.8268Y-5.4262
M16
G05
G00X5.8701Y-5.6112
M15
G01X5.8268Y-5.6112
M16
G05
G00X5.8701Y-5.7963
M15
G01X5.8268Y-5.7963
M16
G05
T6
G00X4.7514Y-3.5276
M15
G01X4.6982Y-3.5276
M16
G05
G00X4.7514Y-3.7028
M15
G01X4.6982Y-3.7028
M16
G05
G00X4.7514Y-3.878
M15
G01X4.6982Y-3.878
M16
G05
T0
M30
