%TF.GenerationSoftware,KiCad,Pcbnew,7.0.6-7.0.6~ubuntu22.04.1*%
%TF.CreationDate,2023-07-17T17:36:07+01:00*%
%TF.ProjectId,phasenom,70686173-656e-46f6-9d2e-6b696361645f,rev?*%
%TF.SameCoordinates,Original*%
%TF.FileFunction,Paste,Top*%
%TF.FilePolarity,Positive*%
%FSLAX46Y46*%
G04 Gerber Fmt 4.6, Leading zero omitted, Abs format (unit mm)*
G04 Created by KiCad (PCBNEW 7.0.6-7.0.6~ubuntu22.04.1) date 2023-07-17 17:36:07*
%MOMM*%
%LPD*%
G01*
G04 APERTURE LIST*
G04 Aperture macros list*
%AMRoundRect*
0 Rectangle with rounded corners*
0 $1 Rounding radius*
0 $2 $3 $4 $5 $6 $7 $8 $9 X,Y pos of 4 corners*
0 Add a 4 corners polygon primitive as box body*
4,1,4,$2,$3,$4,$5,$6,$7,$8,$9,$2,$3,0*
0 Add four circle primitives for the rounded corners*
1,1,$1+$1,$2,$3*
1,1,$1+$1,$4,$5*
1,1,$1+$1,$6,$7*
1,1,$1+$1,$8,$9*
0 Add four rect primitives between the rounded corners*
20,1,$1+$1,$2,$3,$4,$5,0*
20,1,$1+$1,$4,$5,$6,$7,0*
20,1,$1+$1,$6,$7,$8,$9,0*
20,1,$1+$1,$8,$9,$2,$3,0*%
G04 Aperture macros list end*
%ADD10RoundRect,0.250000X-0.337500X-0.475000X0.337500X-0.475000X0.337500X0.475000X-0.337500X0.475000X0*%
%ADD11RoundRect,0.250000X0.475000X-0.337500X0.475000X0.337500X-0.475000X0.337500X-0.475000X-0.337500X0*%
%ADD12RoundRect,0.225000X0.225000X0.375000X-0.225000X0.375000X-0.225000X-0.375000X0.225000X-0.375000X0*%
%ADD13RoundRect,0.150000X-0.150000X0.587500X-0.150000X-0.587500X0.150000X-0.587500X0.150000X0.587500X0*%
%ADD14RoundRect,0.250000X-0.450000X0.262500X-0.450000X-0.262500X0.450000X-0.262500X0.450000X0.262500X0*%
%ADD15RoundRect,0.250000X-0.262500X-0.450000X0.262500X-0.450000X0.262500X0.450000X-0.262500X0.450000X0*%
%ADD16RoundRect,0.250000X-0.450000X0.350000X-0.450000X-0.350000X0.450000X-0.350000X0.450000X0.350000X0*%
%ADD17RoundRect,0.250000X0.350000X0.450000X-0.350000X0.450000X-0.350000X-0.450000X0.350000X-0.450000X0*%
%ADD18RoundRect,0.150000X0.150000X-0.825000X0.150000X0.825000X-0.150000X0.825000X-0.150000X-0.825000X0*%
%ADD19RoundRect,0.250000X-0.070711X0.565685X-0.565685X0.070711X0.070711X-0.565685X0.565685X-0.070711X0*%
%ADD20RoundRect,0.250000X-0.350000X-0.450000X0.350000X-0.450000X0.350000X0.450000X-0.350000X0.450000X0*%
%ADD21RoundRect,0.250000X0.450000X-0.350000X0.450000X0.350000X-0.450000X0.350000X-0.450000X-0.350000X0*%
%ADD22RoundRect,0.250000X0.600000X-0.400000X0.600000X0.400000X-0.600000X0.400000X-0.600000X-0.400000X0*%
%ADD23RoundRect,0.250000X0.337500X0.475000X-0.337500X0.475000X-0.337500X-0.475000X0.337500X-0.475000X0*%
G04 APERTURE END LIST*
D10*
%TO.C,C4*%
X134222500Y-104050000D03*
X136297500Y-104050000D03*
%TD*%
D11*
%TO.C,C10*%
X134260000Y-80837500D03*
X134260000Y-78762500D03*
%TD*%
D12*
%TO.C,D2*%
X155860000Y-54550000D03*
X159160000Y-54550000D03*
%TD*%
D13*
%TO.C,Q1*%
X135460000Y-99862500D03*
X133560000Y-99862500D03*
X134510000Y-101737500D03*
%TD*%
D14*
%TO.C,R1*%
X155500000Y-142637500D03*
X155500000Y-144462500D03*
%TD*%
D15*
%TO.C,R2*%
X126097500Y-138800000D03*
X127922500Y-138800000D03*
%TD*%
D14*
%TO.C,R3*%
X131010000Y-135225000D03*
X131010000Y-137050000D03*
%TD*%
D16*
%TO.C,R28*%
X124010000Y-69300000D03*
X124010000Y-71300000D03*
%TD*%
D17*
%TO.C,R29*%
X156260000Y-56800000D03*
X158260000Y-56800000D03*
%TD*%
%TO.C,R30*%
X154760000Y-70300000D03*
X152760000Y-70300000D03*
%TD*%
D18*
%TO.C,U3*%
X129855000Y-68575000D03*
X131125000Y-68575000D03*
X132395000Y-68575000D03*
X133665000Y-68575000D03*
X133665000Y-73525000D03*
X132395000Y-73525000D03*
X131125000Y-73525000D03*
X129855000Y-73525000D03*
%TD*%
%TO.C,U2*%
X129720000Y-89550000D03*
X130990000Y-89550000D03*
X132260000Y-89550000D03*
X133530000Y-89550000D03*
X133530000Y-94500000D03*
X132260000Y-94500000D03*
X130990000Y-94500000D03*
X129720000Y-94500000D03*
%TD*%
%TO.C,U1*%
X141105000Y-91075000D03*
X142375000Y-91075000D03*
X143645000Y-91075000D03*
X144915000Y-91075000D03*
X144915000Y-96025000D03*
X143645000Y-96025000D03*
X142375000Y-96025000D03*
X141105000Y-96025000D03*
%TD*%
D17*
%TO.C,R27*%
X132010000Y-65800000D03*
X134010000Y-65800000D03*
%TD*%
D19*
%TO.C,R26*%
X137552893Y-67257107D03*
X138967107Y-65842893D03*
%TD*%
D20*
%TO.C,R25*%
X130010000Y-65800000D03*
X128010000Y-65800000D03*
%TD*%
D16*
%TO.C,R24*%
X126010000Y-73800000D03*
X126010000Y-71800000D03*
%TD*%
D20*
%TO.C,R23*%
X132260000Y-76800000D03*
X130260000Y-76800000D03*
%TD*%
D17*
%TO.C,R22*%
X125760000Y-76800000D03*
X127760000Y-76800000D03*
%TD*%
D21*
%TO.C,R21*%
X125760000Y-89050000D03*
X125760000Y-91050000D03*
%TD*%
D16*
%TO.C,R20*%
X124260000Y-85050000D03*
X124260000Y-83050000D03*
%TD*%
D21*
%TO.C,R19*%
X125760000Y-92800000D03*
X125760000Y-94800000D03*
%TD*%
D17*
%TO.C,R18*%
X132510000Y-97050000D03*
X134510000Y-97050000D03*
%TD*%
D21*
%TO.C,R17*%
X139260000Y-93550000D03*
X139260000Y-95550000D03*
%TD*%
D17*
%TO.C,R16*%
X128760000Y-97050000D03*
X130760000Y-97050000D03*
%TD*%
D20*
%TO.C,R15*%
X154760000Y-72550000D03*
X152760000Y-72550000D03*
%TD*%
%TO.C,R14*%
X146260000Y-82550000D03*
X144260000Y-82550000D03*
%TD*%
%TO.C,R13*%
X146510000Y-86550000D03*
X144510000Y-86550000D03*
%TD*%
D21*
%TO.C,R12*%
X148760000Y-92800000D03*
X148760000Y-94800000D03*
%TD*%
D16*
%TO.C,R11*%
X146760000Y-94800000D03*
X146760000Y-92800000D03*
%TD*%
D17*
%TO.C,R10*%
X139260000Y-102800000D03*
X141260000Y-102800000D03*
%TD*%
D16*
%TO.C,R9*%
X139760000Y-100800000D03*
X139760000Y-98800000D03*
%TD*%
D20*
%TO.C,R8*%
X136260000Y-106050000D03*
X134260000Y-106050000D03*
%TD*%
D16*
%TO.C,R7*%
X137260000Y-101550000D03*
X137260000Y-99550000D03*
%TD*%
%TO.C,R6*%
X141760000Y-100800000D03*
X141760000Y-98800000D03*
%TD*%
D20*
%TO.C,R5*%
X145760000Y-98800000D03*
X143760000Y-98800000D03*
%TD*%
D17*
%TO.C,R4*%
X145760000Y-102800000D03*
X143760000Y-102800000D03*
%TD*%
D22*
%TO.C,D3*%
X164010000Y-67800000D03*
X164010000Y-64300000D03*
%TD*%
D11*
%TO.C,C11*%
X128010000Y-70762500D03*
X128010000Y-72837500D03*
%TD*%
%TO.C,C9*%
X127760000Y-92800000D03*
X127760000Y-94875000D03*
%TD*%
D10*
%TO.C,C8*%
X131835000Y-103800000D03*
X129760000Y-103800000D03*
%TD*%
D11*
%TO.C,C7*%
X137260000Y-93550000D03*
X137260000Y-95625000D03*
%TD*%
D10*
%TO.C,C5*%
X144260000Y-88550000D03*
X142185000Y-88550000D03*
%TD*%
D23*
%TO.C,C3*%
X145797500Y-100800000D03*
X143722500Y-100800000D03*
%TD*%
D10*
%TO.C,C1*%
X165585000Y-135000000D03*
X163510000Y-135000000D03*
%TD*%
M02*
