%TF.GenerationSoftware,KiCad,Pcbnew,7.0.5-7.0.5~ubuntu22.04.1*%
%TF.CreationDate,2023-07-07T18:02:21+01:00*%
%TF.ProjectId,BMP,424d502e-6b69-4636-9164-5f7063625858,rev?*%
%TF.SameCoordinates,Original*%
%TF.FileFunction,Copper,L2,Bot*%
%TF.FilePolarity,Positive*%
%FSLAX46Y46*%
G04 Gerber Fmt 4.6, Leading zero omitted, Abs format (unit mm)*
G04 Created by KiCad (PCBNEW 7.0.5-7.0.5~ubuntu22.04.1) date 2023-07-07 18:02:21*
%MOMM*%
%LPD*%
G01*
G04 APERTURE LIST*
%TA.AperFunction,ComponentPad*%
%ADD10R,2.600000X1.500000*%
%TD*%
%TA.AperFunction,ComponentPad*%
%ADD11O,2.600000X1.500000*%
%TD*%
%TA.AperFunction,ComponentPad*%
%ADD12C,3.000000*%
%TD*%
%TA.AperFunction,ComponentPad*%
%ADD13R,1.700000X1.700000*%
%TD*%
%TA.AperFunction,ComponentPad*%
%ADD14O,1.700000X1.700000*%
%TD*%
%TA.AperFunction,ComponentPad*%
%ADD15R,1.600000X1.600000*%
%TD*%
%TA.AperFunction,ComponentPad*%
%ADD16C,1.600000*%
%TD*%
%TA.AperFunction,ComponentPad*%
%ADD17R,2.000000X1.900000*%
%TD*%
%TA.AperFunction,ComponentPad*%
%ADD18C,1.900000*%
%TD*%
%TA.AperFunction,ComponentPad*%
%ADD19C,1.998980*%
%TD*%
%TA.AperFunction,ComponentPad*%
%ADD20R,1.300000X1.300000*%
%TD*%
%TA.AperFunction,ComponentPad*%
%ADD21C,1.300000*%
%TD*%
%TA.AperFunction,ComponentPad*%
%ADD22O,2.720000X3.240000*%
%TD*%
%TA.AperFunction,ComponentPad*%
%ADD23R,1.800000X1.800000*%
%TD*%
%TA.AperFunction,ComponentPad*%
%ADD24C,1.800000*%
%TD*%
%TA.AperFunction,ComponentPad*%
%ADD25O,3.200000X4.400000*%
%TD*%
%TA.AperFunction,ComponentPad*%
%ADD26O,1.600000X1.600000*%
%TD*%
%TA.AperFunction,ViaPad*%
%ADD27C,0.800000*%
%TD*%
%TA.AperFunction,Conductor*%
%ADD28C,0.400000*%
%TD*%
G04 APERTURE END LIST*
D10*
%TO.P,SW1,1,A*%
%TO.N,Net-(SW1A-A)*%
X148550000Y-137825000D03*
D11*
%TO.P,SW1,2,A*%
X143250000Y-137825000D03*
%TO.P,SW1,3,A*%
%TO.N,I*%
X137950000Y-137825000D03*
%TO.P,SW1,4,B*%
%TO.N,Net-(SW1A-B)*%
X148550000Y-142525000D03*
%TO.P,SW1,5,B*%
%TO.N,Net-(SW1B-B)*%
X143250000Y-142550000D03*
%TO.P,SW1,6,B*%
%TO.N,GND*%
X137950000Y-142525000D03*
%TO.P,SW1,7,C*%
%TO.N,I*%
X148550000Y-147225000D03*
%TO.P,SW1,8,C*%
%TO.N,O*%
X143250000Y-147225000D03*
%TO.P,SW1,9,C*%
%TO.N,Net-(SW1C-C)*%
X137950000Y-147225000D03*
%TD*%
D12*
%TO.P,J3,R*%
%TO.N,unconnected-(J3-PadR)*%
X128660000Y-130730000D03*
%TO.P,J3,RN*%
%TO.N,unconnected-(J3-PadRN)*%
X128660000Y-114500000D03*
%TO.P,J3,S*%
%TO.N,GND*%
X122310000Y-130730000D03*
%TO.P,J3,SN*%
%TO.N,unconnected-(J3-PadSN)*%
X122310000Y-114500000D03*
%TO.P,J3,T*%
%TO.N,Net-(SW1B-B)*%
X135010000Y-130730000D03*
%TO.P,J3,TN*%
%TO.N,unconnected-(J3-PadTN)*%
X135010000Y-114500000D03*
%TD*%
D13*
%TO.P,J1,1,P1*%
%TO.N,+9V*%
X134760000Y-55260000D03*
D14*
%TO.P,J1,2,P2*%
%TO.N,GND*%
X134760000Y-57800000D03*
%TD*%
D13*
%TO.P,JOVGI1,1,P1*%
%TO.N,I*%
X146700000Y-111350000D03*
D14*
%TO.P,JOVGI1,2,P2*%
%TO.N,GND*%
X144160000Y-111350000D03*
%TO.P,JOVGI1,3,P3*%
%TO.N,+9V*%
X141620000Y-111350000D03*
%TO.P,JOVGI1,4,P4*%
%TO.N,O*%
X139080000Y-111350000D03*
%TD*%
D13*
%TO.P,JOVGI2,1,P1*%
%TO.N,I*%
X146700000Y-105800000D03*
D14*
%TO.P,JOVGI2,2,P2*%
%TO.N,GND*%
X144160000Y-105800000D03*
%TO.P,JOVGI2,3,P3*%
%TO.N,+9V*%
X141620000Y-105800000D03*
%TO.P,JOVGI2,4,P4*%
%TO.N,O*%
X139080000Y-105800000D03*
%TD*%
D15*
%TO.P,C2,1*%
%TO.N,+9V*%
X162000000Y-140200000D03*
D16*
%TO.P,C2,2*%
%TO.N,GND*%
X162000000Y-142700000D03*
%TD*%
D17*
%TO.P,D1,1,K*%
%TO.N,Net-(D1-K)*%
X122500000Y-137540000D03*
D18*
%TO.P,D1,2,A*%
%TO.N,+9V*%
X122500000Y-135000000D03*
%TD*%
D19*
%TO.P,R1,1*%
%TO.N,I*%
X155500000Y-135000000D03*
%TO.P,R1,2*%
%TO.N,GND*%
X155500000Y-142620000D03*
%TD*%
%TO.P,R2,1*%
%TO.N,Net-(D1-K)*%
X127760000Y-142600000D03*
%TO.P,R2,2*%
%TO.N,Net-(SW1C-C)*%
X127760000Y-134980000D03*
%TD*%
%TO.P,R3,1*%
%TO.N,O*%
X131010000Y-135000000D03*
%TO.P,R3,2*%
%TO.N,GND*%
X131010000Y-142620000D03*
%TD*%
D20*
%TO.P,C1,1*%
%TO.N,GND*%
X161050000Y-135000000D03*
D21*
%TO.P,C1,2*%
%TO.N,+9V*%
X166050000Y-135000000D03*
%TD*%
D13*
%TO.P,J4,1,P1*%
%TO.N,GND*%
X144140000Y-116810000D03*
D14*
%TO.P,J4,2,P2*%
%TO.N,+9V*%
X141600000Y-116810000D03*
%TD*%
D12*
%TO.P,J2,R*%
%TO.N,unconnected-(J2-PadR)*%
X156925000Y-114500000D03*
%TO.P,J2,RN*%
%TO.N,unconnected-(J2-PadRN)*%
X156925000Y-130730000D03*
%TO.P,J2,S*%
%TO.N,GND*%
X163275000Y-114500000D03*
%TO.P,J2,SN*%
%TO.N,unconnected-(J2-PadSN)*%
X163275000Y-130730000D03*
%TO.P,J2,T*%
%TO.N,Net-(SW1A-B)*%
X150575000Y-114500000D03*
%TO.P,J2,TN*%
%TO.N,GND*%
X150575000Y-130730000D03*
%TD*%
D22*
%TO.P,RV2,*%
%TO.N,*%
X138050000Y-77830000D03*
X147650000Y-77830000D03*
D23*
%TO.P,RV2,1,1*%
%TO.N,Net-(R9-Pad2)*%
X140350000Y-85330000D03*
D24*
%TO.P,RV2,2,2*%
%TO.N,Net-(C6-Pad1)*%
X142850000Y-85330000D03*
%TO.P,RV2,3,3*%
%TO.N,Net-(C5-Pad2)*%
X145350000Y-85330000D03*
%TD*%
D25*
%TO.P,SW2,1,A*%
%TO.N,Net-(SW2A-A)*%
X126310000Y-93400000D03*
%TO.P,SW2,2,B*%
%TO.N,A*%
X130760000Y-93400000D03*
%TO.P,SW2,3,C*%
%TO.N,Net-(SW2A-C)*%
X135210000Y-93400000D03*
%TO.P,SW2,4,A*%
%TO.N,Net-(SW2B-A)*%
X126360000Y-98300000D03*
%TO.P,SW2,5,B*%
%TO.N,Net-(SW2B-B)*%
X130810000Y-98300000D03*
%TO.P,SW2,6,C*%
%TO.N,Net-(SW2B-C)*%
X135260000Y-98300000D03*
%TD*%
D15*
%TO.P,C19,1*%
%TO.N,VP*%
X135927621Y-68100000D03*
D16*
%TO.P,C19,2*%
%TO.N,GND*%
X138427621Y-68100000D03*
%TD*%
D22*
%TO.P,RV4,*%
%TO.N,*%
X120260000Y-67300000D03*
X129860000Y-67300000D03*
D23*
%TO.P,RV4,1,1*%
%TO.N,GND*%
X122560000Y-74800000D03*
D24*
%TO.P,RV4,2,2*%
%TO.N,O*%
X125060000Y-74800000D03*
%TO.P,RV4,3,3*%
%TO.N,Net-(C18-Pad1)*%
X127560000Y-74800000D03*
%TD*%
D15*
%TO.P,SW3,1*%
%TO.N,Net-(C15-Pad2)*%
X118470000Y-95120000D03*
D26*
%TO.P,SW3,2*%
%TO.N,Net-(C16-Pad2)*%
X121010000Y-95120000D03*
%TO.P,SW3,3*%
%TO.N,Net-(R22-Pad1)*%
X121010000Y-87500000D03*
%TO.P,SW3,4*%
X118470000Y-87500000D03*
%TD*%
D22*
%TO.P,RV3,*%
%TO.N,*%
X155710000Y-67275000D03*
X165310000Y-67275000D03*
D23*
%TO.P,RV3,1,1*%
%TO.N,Net-(C14-Pad2)*%
X158010000Y-74775000D03*
D24*
%TO.P,RV3,2,2*%
%TO.N,Net-(SW2B-C)*%
X160510000Y-74775000D03*
%TO.P,RV3,3,3*%
%TO.N,Net-(C13-Pad2)*%
X163010000Y-74775000D03*
%TD*%
D27*
%TO.N,GND*%
X129110000Y-79600000D03*
X131010000Y-76900000D03*
X147710000Y-86100000D03*
X146410000Y-89800000D03*
%TO.N,Net-(D4-A)*%
X160660000Y-85000000D03*
X157710000Y-84400000D03*
%TO.N,A*%
X153810000Y-88000000D03*
%TO.N,Net-(SW2A-C)*%
X150410000Y-70600000D03*
X134110000Y-86600000D03*
%TO.N,Net-(SW2B-C)*%
X133210000Y-85300000D03*
%TD*%
D28*
%TO.N,+9V*%
X125600000Y-131900000D02*
X122500000Y-135000000D01*
X141600000Y-118600000D02*
X142900000Y-119900000D01*
X131900000Y-118600000D02*
X125600000Y-124900000D01*
X142470000Y-110040000D02*
X141620000Y-110890000D01*
X141620000Y-111350000D02*
X141620000Y-112552081D01*
X141600000Y-112572081D02*
X141600000Y-118100000D01*
X160000000Y-119900000D02*
X166050000Y-125950000D01*
X141600000Y-118100000D02*
X141600000Y-118600000D01*
X125600000Y-124900000D02*
X125600000Y-131900000D01*
X141600000Y-116810000D02*
X141600000Y-118100000D01*
X142900000Y-119900000D02*
X160000000Y-119900000D01*
X141620000Y-112552081D02*
X141600000Y-112572081D01*
X141620000Y-105800000D02*
X142470000Y-106650000D01*
X166050000Y-125950000D02*
X166050000Y-135000000D01*
X141620000Y-110890000D02*
X141620000Y-111350000D01*
X142470000Y-106650000D02*
X142470000Y-110040000D01*
X141600000Y-118600000D02*
X131900000Y-118600000D01*
%TO.N,O*%
X139080000Y-105800000D02*
X140280000Y-107000000D01*
X123210000Y-76650000D02*
X123210000Y-101400000D01*
X140610000Y-107000000D02*
X141110000Y-107500000D01*
X123210000Y-101400000D02*
X127610000Y-105800000D01*
X140010000Y-110420000D02*
X139080000Y-111350000D01*
X141110000Y-107500000D02*
X141110000Y-109500000D01*
X125060000Y-74800000D02*
X123210000Y-76650000D01*
X141110000Y-109500000D02*
X140210000Y-110400000D01*
X140280000Y-107000000D02*
X140610000Y-107000000D01*
X140010000Y-110400000D02*
X140010000Y-110420000D01*
X127610000Y-105800000D02*
X139080000Y-105800000D01*
X140210000Y-110400000D02*
X140010000Y-110400000D01*
%TO.N,I*%
X146700000Y-105800000D02*
X146510000Y-105800000D01*
X146510000Y-105800000D02*
X144510000Y-107800000D01*
X144510000Y-109160000D02*
X146700000Y-111350000D01*
X144510000Y-107800000D02*
X144510000Y-109160000D01*
%TO.N,Net-(SW1B-B)*%
X143450000Y-142550000D02*
X143250000Y-142550000D01*
X146000000Y-140000000D02*
X143450000Y-142550000D01*
X141500000Y-131400000D02*
X146000000Y-135900000D01*
X146000000Y-135900000D02*
X146000000Y-140000000D01*
X137991320Y-131400000D02*
X141500000Y-131400000D01*
X134950000Y-130480000D02*
X137071320Y-130480000D01*
X137071320Y-130480000D02*
X137991320Y-131400000D01*
%TO.N,Net-(D4-A)*%
X160710000Y-84800000D02*
X160660000Y-84850000D01*
X160660000Y-84850000D02*
X160660000Y-85000000D01*
X160310000Y-84400000D02*
X160710000Y-84800000D01*
X157710000Y-84400000D02*
X160310000Y-84400000D01*
%TO.N,A*%
X134110000Y-88000000D02*
X153810000Y-88000000D01*
X130760000Y-93400000D02*
X130760000Y-91350000D01*
X130760000Y-91350000D02*
X134110000Y-88000000D01*
%TO.N,Net-(SW2A-C)*%
X133378629Y-86600000D02*
X132410000Y-85631371D01*
X132410000Y-76951472D02*
X138761472Y-70600000D01*
X134110000Y-86600000D02*
X133378629Y-86600000D01*
X132410000Y-85631371D02*
X132410000Y-76951472D01*
X138761472Y-70600000D02*
X150410000Y-70600000D01*
%TO.N,Net-(R22-Pad1)*%
X121010000Y-87500000D02*
X118470000Y-87500000D01*
%TO.N,Net-(SW2B-C)*%
X158535000Y-72800000D02*
X160510000Y-74775000D01*
X133210000Y-77000000D02*
X137410000Y-72800000D01*
X133210000Y-85300000D02*
X133210000Y-77000000D01*
X137410000Y-72800000D02*
X158535000Y-72800000D01*
%TD*%
%TA.AperFunction,Conductor*%
%TO.N,GND*%
G36*
X139613309Y-109595502D02*
G01*
X139659802Y-109649158D01*
X139669906Y-109719432D01*
X139640412Y-109784012D01*
X139610454Y-109807749D01*
X139610839Y-109808306D01*
X139604571Y-109812632D01*
X139575113Y-109838729D01*
X139569121Y-109843423D01*
X139536732Y-109865780D01*
X139536725Y-109865786D01*
X139510626Y-109895245D01*
X139505245Y-109900626D01*
X139475786Y-109926725D01*
X139475780Y-109926732D01*
X139453423Y-109959121D01*
X139448730Y-109965112D01*
X139441627Y-109973129D01*
X139381485Y-110010857D01*
X139326575Y-110013860D01*
X139192569Y-109991500D01*
X138967431Y-109991500D01*
X138833428Y-110013861D01*
X138745369Y-110028555D01*
X138745360Y-110028557D01*
X138532428Y-110101656D01*
X138532426Y-110101658D01*
X138334426Y-110208810D01*
X138334424Y-110208811D01*
X138156762Y-110347091D01*
X138004279Y-110512729D01*
X138004275Y-110512734D01*
X137881141Y-110701206D01*
X137790703Y-110907386D01*
X137790702Y-110907387D01*
X137735437Y-111125624D01*
X137735436Y-111125630D01*
X137735436Y-111125632D01*
X137716844Y-111350000D01*
X137734232Y-111559844D01*
X137735437Y-111574375D01*
X137790702Y-111792612D01*
X137790703Y-111792613D01*
X137881141Y-111998793D01*
X138004275Y-112187265D01*
X138004279Y-112187270D01*
X138156762Y-112352908D01*
X138211331Y-112395381D01*
X138334424Y-112491189D01*
X138532426Y-112598342D01*
X138532427Y-112598342D01*
X138532428Y-112598343D01*
X138644227Y-112636723D01*
X138745365Y-112671444D01*
X138967431Y-112708500D01*
X138967435Y-112708500D01*
X139192565Y-112708500D01*
X139192569Y-112708500D01*
X139414635Y-112671444D01*
X139627574Y-112598342D01*
X139825576Y-112491189D01*
X140003240Y-112352906D01*
X140155722Y-112187268D01*
X140244518Y-112051354D01*
X140298520Y-112005268D01*
X140368868Y-111995692D01*
X140433225Y-112025669D01*
X140455480Y-112051353D01*
X140488607Y-112102058D01*
X140544275Y-112187265D01*
X140544279Y-112187270D01*
X140696762Y-112352908D01*
X140743142Y-112389007D01*
X140840910Y-112465104D01*
X140882380Y-112522727D01*
X140889288Y-112556926D01*
X140891385Y-112591588D01*
X140891500Y-112595394D01*
X140891500Y-115578356D01*
X140871498Y-115646477D01*
X140842891Y-115677787D01*
X140676765Y-115807088D01*
X140524279Y-115972729D01*
X140524275Y-115972734D01*
X140401141Y-116161206D01*
X140310703Y-116367386D01*
X140310702Y-116367387D01*
X140255437Y-116585624D01*
X140255436Y-116585630D01*
X140255436Y-116585632D01*
X140236844Y-116810000D01*
X140254232Y-117019844D01*
X140255437Y-117034375D01*
X140310702Y-117252612D01*
X140310703Y-117252613D01*
X140401141Y-117458793D01*
X140524275Y-117647265D01*
X140524280Y-117647270D01*
X140554559Y-117680162D01*
X140585980Y-117743827D01*
X140577994Y-117814373D01*
X140533135Y-117869402D01*
X140465646Y-117891443D01*
X140461858Y-117891500D01*
X131923302Y-117891500D01*
X131919502Y-117891385D01*
X131908953Y-117890747D01*
X131856904Y-117887598D01*
X131795227Y-117898901D01*
X131791465Y-117899474D01*
X131729201Y-117907034D01*
X131719663Y-117910651D01*
X131697706Y-117916772D01*
X131687674Y-117918610D01*
X131687668Y-117918612D01*
X131630492Y-117944345D01*
X131626977Y-117945801D01*
X131568324Y-117968046D01*
X131568319Y-117968048D01*
X131559921Y-117973845D01*
X131540072Y-117985040D01*
X131530777Y-117989223D01*
X131530773Y-117989225D01*
X131481409Y-118027899D01*
X131478346Y-118030153D01*
X131426727Y-118065784D01*
X131426723Y-118065788D01*
X131385134Y-118112731D01*
X131382526Y-118115502D01*
X125115511Y-124382518D01*
X125112740Y-124385126D01*
X125065784Y-124426726D01*
X125030157Y-124478339D01*
X125027904Y-124481401D01*
X124989227Y-124530769D01*
X124989222Y-124530779D01*
X124985035Y-124540080D01*
X124973846Y-124559921D01*
X124968045Y-124568326D01*
X124945807Y-124626961D01*
X124944351Y-124630476D01*
X124918613Y-124687665D01*
X124918609Y-124687678D01*
X124916770Y-124697711D01*
X124910651Y-124719661D01*
X124907034Y-124729199D01*
X124899476Y-124791441D01*
X124898904Y-124795201D01*
X124887598Y-124856906D01*
X124891385Y-124919508D01*
X124891500Y-124923313D01*
X124891500Y-131554339D01*
X124871498Y-131622460D01*
X124854595Y-131643434D01*
X122954387Y-133543641D01*
X122892075Y-133577667D01*
X122844554Y-133578828D01*
X122716239Y-133557416D01*
X122620855Y-133541500D01*
X122379145Y-133541500D01*
X122260004Y-133561381D01*
X122140734Y-133581283D01*
X122140727Y-133581285D01*
X121912121Y-133659765D01*
X121912119Y-133659766D01*
X121699542Y-133774807D01*
X121699541Y-133774808D01*
X121508792Y-133923274D01*
X121345095Y-134101097D01*
X121212889Y-134303454D01*
X121115798Y-134524799D01*
X121115795Y-134524806D01*
X121056463Y-134759103D01*
X121056461Y-134759112D01*
X121036501Y-135000000D01*
X121056461Y-135240887D01*
X121056463Y-135240896D01*
X121115795Y-135475193D01*
X121115798Y-135475200D01*
X121212889Y-135696545D01*
X121212891Y-135696549D01*
X121269908Y-135783820D01*
X121343175Y-135895964D01*
X121345094Y-135898900D01*
X121359427Y-135914470D01*
X121390849Y-135978134D01*
X121382863Y-136048680D01*
X121338004Y-136103710D01*
X121310762Y-136117863D01*
X121253793Y-136139112D01*
X121253792Y-136139112D01*
X121136738Y-136226738D01*
X121049112Y-136343792D01*
X121049110Y-136343797D01*
X120998011Y-136480795D01*
X120998009Y-136480803D01*
X120991500Y-136541350D01*
X120991500Y-138538649D01*
X120998009Y-138599196D01*
X120998011Y-138599204D01*
X121049110Y-138736202D01*
X121049112Y-138736207D01*
X121136738Y-138853261D01*
X121253792Y-138940887D01*
X121253794Y-138940888D01*
X121253796Y-138940889D01*
X121312875Y-138962924D01*
X121390795Y-138991988D01*
X121390803Y-138991990D01*
X121451350Y-138998499D01*
X121451355Y-138998499D01*
X121451362Y-138998500D01*
X121451368Y-138998500D01*
X123548632Y-138998500D01*
X123548638Y-138998500D01*
X123548645Y-138998499D01*
X123548649Y-138998499D01*
X123609196Y-138991990D01*
X123609199Y-138991989D01*
X123609201Y-138991989D01*
X123746204Y-138940889D01*
X123787836Y-138909724D01*
X123863261Y-138853261D01*
X123950887Y-138736207D01*
X123950887Y-138736206D01*
X123950889Y-138736204D01*
X123996904Y-138612834D01*
X124001988Y-138599204D01*
X124001990Y-138599196D01*
X124008499Y-138538649D01*
X124008500Y-138538632D01*
X124008500Y-137881691D01*
X136137685Y-137881691D01*
X136146483Y-137946639D01*
X136168094Y-138106178D01*
X136238099Y-138321626D01*
X136345440Y-138521100D01*
X136345444Y-138521107D01*
X136486687Y-138698219D01*
X136657280Y-138847262D01*
X136827747Y-138949112D01*
X136851750Y-138963453D01*
X137063839Y-139043051D01*
X137063841Y-139043051D01*
X137063843Y-139043052D01*
X137286730Y-139083500D01*
X137286733Y-139083500D01*
X138556516Y-139083500D01*
X138556522Y-139083500D01*
X138715126Y-139069225D01*
X138725623Y-139068281D01*
X138725623Y-139068280D01*
X138902062Y-139019586D01*
X138943990Y-139008015D01*
X138943990Y-139008014D01*
X138943993Y-139008014D01*
X139148093Y-138909725D01*
X139331363Y-138776571D01*
X139487912Y-138612834D01*
X139612709Y-138423774D01*
X139701743Y-138215470D01*
X139752151Y-137994615D01*
X139762315Y-137768309D01*
X139731906Y-137543825D01*
X139661903Y-137328379D01*
X139606934Y-137226229D01*
X139554559Y-137128899D01*
X139554555Y-137128892D01*
X139413312Y-136951780D01*
X139242719Y-136802737D01*
X139048256Y-136686550D01*
X139048252Y-136686548D01*
X139048251Y-136686547D01*
X139048250Y-136686547D01*
X138836161Y-136606949D01*
X138836156Y-136606947D01*
X138613270Y-136566500D01*
X138613267Y-136566500D01*
X137343478Y-136566500D01*
X137311992Y-136569333D01*
X137174376Y-136581718D01*
X137174376Y-136581719D01*
X136956009Y-136641984D01*
X136751913Y-136740271D01*
X136751906Y-136740275D01*
X136568636Y-136873429D01*
X136568635Y-136873430D01*
X136412087Y-137037166D01*
X136287293Y-137226221D01*
X136287289Y-137226229D01*
X136198257Y-137434529D01*
X136198256Y-137434531D01*
X136147849Y-137655382D01*
X136147849Y-137655385D01*
X136137685Y-137881691D01*
X124008500Y-137881691D01*
X124008500Y-136541367D01*
X124008499Y-136541350D01*
X124001990Y-136480803D01*
X124001988Y-136480795D01*
X123950889Y-136343797D01*
X123950887Y-136343792D01*
X123863261Y-136226738D01*
X123746207Y-136139112D01*
X123746204Y-136139111D01*
X123689238Y-136117863D01*
X123632403Y-136075316D01*
X123607593Y-136008795D01*
X123622685Y-135939421D01*
X123640568Y-135914474D01*
X123654906Y-135898900D01*
X123787109Y-135696549D01*
X123884203Y-135475197D01*
X123943539Y-135240884D01*
X123963499Y-135000000D01*
X123961842Y-134980000D01*
X126247347Y-134980000D01*
X126265970Y-135216631D01*
X126321381Y-135447433D01*
X126371459Y-135568332D01*
X126412216Y-135666730D01*
X126489802Y-135793339D01*
X126536239Y-135869116D01*
X126536240Y-135869118D01*
X126690392Y-136049607D01*
X126858833Y-136193469D01*
X126870885Y-136203762D01*
X127073270Y-136327784D01*
X127292565Y-136418618D01*
X127523369Y-136474030D01*
X127760000Y-136492653D01*
X127996631Y-136474030D01*
X128227435Y-136418618D01*
X128446730Y-136327784D01*
X128649115Y-136203762D01*
X128829607Y-136049607D01*
X128983762Y-135869115D01*
X129107784Y-135666730D01*
X129198618Y-135447435D01*
X129254030Y-135216631D01*
X129258601Y-135158539D01*
X129283884Y-135092202D01*
X129341021Y-135050062D01*
X129411871Y-135045501D01*
X129473940Y-135079969D01*
X129507520Y-135142522D01*
X129509823Y-135158541D01*
X129515968Y-135236620D01*
X129515969Y-135236629D01*
X129515970Y-135236631D01*
X129516991Y-135240884D01*
X129571381Y-135467433D01*
X129631463Y-135612484D01*
X129662216Y-135686730D01*
X129727546Y-135793339D01*
X129786239Y-135889116D01*
X129786240Y-135889118D01*
X129940392Y-136069607D01*
X130115164Y-136218876D01*
X130120885Y-136223762D01*
X130323270Y-136347784D01*
X130542565Y-136438618D01*
X130773369Y-136494030D01*
X131010000Y-136512653D01*
X131246631Y-136494030D01*
X131477435Y-136438618D01*
X131696730Y-136347784D01*
X131899115Y-136223762D01*
X132079607Y-136069607D01*
X132233762Y-135889115D01*
X132357784Y-135686730D01*
X132448618Y-135467435D01*
X132504030Y-135236631D01*
X132522653Y-135000000D01*
X132504030Y-134763369D01*
X132448618Y-134532565D01*
X132357784Y-134313270D01*
X132233762Y-134110885D01*
X132225405Y-134101100D01*
X132079607Y-133930392D01*
X131899118Y-133776240D01*
X131899116Y-133776239D01*
X131899115Y-133776238D01*
X131696730Y-133652216D01*
X131648446Y-133632216D01*
X131477433Y-133561381D01*
X131319548Y-133523476D01*
X131246631Y-133505970D01*
X131246632Y-133505970D01*
X131128315Y-133496658D01*
X131010000Y-133487347D01*
X131009999Y-133487347D01*
X130773368Y-133505970D01*
X130542566Y-133561381D01*
X130323271Y-133652215D01*
X130120883Y-133776239D01*
X130120881Y-133776240D01*
X129940392Y-133930392D01*
X129786240Y-134110881D01*
X129786239Y-134110883D01*
X129662215Y-134313271D01*
X129571381Y-134532566D01*
X129520140Y-134746000D01*
X129515970Y-134763369D01*
X129511398Y-134821458D01*
X129486114Y-134887798D01*
X129428975Y-134929938D01*
X129358125Y-134934497D01*
X129296058Y-134900028D01*
X129262478Y-134837475D01*
X129260176Y-134821465D01*
X129254030Y-134743369D01*
X129198618Y-134512565D01*
X129107784Y-134293270D01*
X128983762Y-134090885D01*
X128972964Y-134078242D01*
X128829607Y-133910392D01*
X128649118Y-133756240D01*
X128649116Y-133756239D01*
X128649115Y-133756238D01*
X128446730Y-133632216D01*
X128323771Y-133581285D01*
X128227433Y-133541381D01*
X128069548Y-133503476D01*
X127996631Y-133485970D01*
X127996632Y-133485970D01*
X127760000Y-133467347D01*
X127523368Y-133485970D01*
X127292566Y-133541381D01*
X127073271Y-133632215D01*
X126870883Y-133756239D01*
X126870881Y-133756240D01*
X126690392Y-133910392D01*
X126536240Y-134090881D01*
X126536239Y-134090883D01*
X126412215Y-134293271D01*
X126321381Y-134512566D01*
X126265970Y-134743368D01*
X126247347Y-134980000D01*
X123961842Y-134980000D01*
X123943539Y-134759116D01*
X123920562Y-134668383D01*
X123923228Y-134597438D01*
X123953609Y-134548359D01*
X126084519Y-132417449D01*
X126087231Y-132414896D01*
X126134215Y-132373273D01*
X126169867Y-132321621D01*
X126172063Y-132318636D01*
X126210775Y-132269226D01*
X126214961Y-132259922D01*
X126226161Y-132240066D01*
X126231954Y-132231675D01*
X126254202Y-132173009D01*
X126255634Y-132169552D01*
X126281389Y-132112329D01*
X126283226Y-132102303D01*
X126289351Y-132080330D01*
X126292965Y-132070801D01*
X126300526Y-132008525D01*
X126301091Y-132004812D01*
X126312402Y-131943093D01*
X126308614Y-131880488D01*
X126308500Y-131876685D01*
X126308500Y-130730004D01*
X126646807Y-130730004D01*
X126665556Y-131004116D01*
X126665557Y-131004122D01*
X126665558Y-131004130D01*
X126683238Y-131089210D01*
X126721460Y-131273146D01*
X126721462Y-131273154D01*
X126801628Y-131498719D01*
X126813477Y-131532058D01*
X126939752Y-131775759D01*
X126939892Y-131776028D01*
X127007797Y-131872227D01*
X127098343Y-132000502D01*
X127285889Y-132201314D01*
X127499031Y-132374718D01*
X127733800Y-132517484D01*
X127985823Y-132626953D01*
X128250404Y-132701085D01*
X128345504Y-132714156D01*
X128522604Y-132738499D01*
X128522615Y-132738500D01*
X128797385Y-132738500D01*
X128797395Y-132738499D01*
X128926945Y-132720692D01*
X129069596Y-132701085D01*
X129334177Y-132626953D01*
X129586200Y-132517484D01*
X129820969Y-132374718D01*
X130034111Y-132201314D01*
X130221657Y-132000502D01*
X130380111Y-131776023D01*
X130506523Y-131532058D01*
X130598538Y-131273153D01*
X130654442Y-131004130D01*
X130673193Y-130730004D01*
X132996807Y-130730004D01*
X133015556Y-131004116D01*
X133015557Y-131004122D01*
X133015558Y-131004130D01*
X133033238Y-131089210D01*
X133071460Y-131273146D01*
X133071462Y-131273154D01*
X133151628Y-131498719D01*
X133163477Y-131532058D01*
X133289752Y-131775759D01*
X133289892Y-131776028D01*
X133357797Y-131872227D01*
X133448343Y-132000502D01*
X133635889Y-132201314D01*
X133849031Y-132374718D01*
X134083800Y-132517484D01*
X134335823Y-132626953D01*
X134600404Y-132701085D01*
X134695504Y-132714156D01*
X134872604Y-132738499D01*
X134872615Y-132738500D01*
X135147385Y-132738500D01*
X135147395Y-132738499D01*
X135276945Y-132720692D01*
X135419596Y-132701085D01*
X135684177Y-132626953D01*
X135936200Y-132517484D01*
X136170969Y-132374718D01*
X136384111Y-132201314D01*
X136571657Y-132000502D01*
X136730111Y-131776023D01*
X136856523Y-131532058D01*
X136859187Y-131524561D01*
X136900845Y-131467072D01*
X136966972Y-131441230D01*
X137036572Y-131455241D01*
X137067008Y-131477658D01*
X137365105Y-131775756D01*
X137473853Y-131884504D01*
X137476454Y-131887267D01*
X137518047Y-131934215D01*
X137530909Y-131943093D01*
X137569662Y-131969844D01*
X137572726Y-131972098D01*
X137588756Y-131984656D01*
X137622094Y-132010774D01*
X137622097Y-132010775D01*
X137622098Y-132010776D01*
X137631385Y-132014956D01*
X137651247Y-132026157D01*
X137659645Y-132031954D01*
X137718312Y-132054203D01*
X137721778Y-132055639D01*
X137778990Y-132081388D01*
X137789016Y-132083225D01*
X137810982Y-132089347D01*
X137820519Y-132092965D01*
X137882793Y-132100525D01*
X137886536Y-132101095D01*
X137948227Y-132112401D01*
X138010822Y-132108614D01*
X138014622Y-132108500D01*
X141154340Y-132108500D01*
X141222461Y-132128502D01*
X141243435Y-132145405D01*
X145254595Y-136156564D01*
X145288621Y-136218876D01*
X145291500Y-136245659D01*
X145291500Y-137591390D01*
X145271498Y-137659511D01*
X145217842Y-137706004D01*
X145147568Y-137716108D01*
X145082988Y-137686614D01*
X145044604Y-137626888D01*
X145040640Y-137608304D01*
X145031905Y-137543821D01*
X144996394Y-137434531D01*
X144961903Y-137328379D01*
X144906934Y-137226229D01*
X144854559Y-137128899D01*
X144854555Y-137128892D01*
X144713312Y-136951780D01*
X144542719Y-136802737D01*
X144348256Y-136686550D01*
X144348252Y-136686548D01*
X144348251Y-136686547D01*
X144348250Y-136686547D01*
X144136161Y-136606949D01*
X144136156Y-136606947D01*
X143913270Y-136566500D01*
X143913267Y-136566500D01*
X142643478Y-136566500D01*
X142611992Y-136569333D01*
X142474376Y-136581718D01*
X142474376Y-136581719D01*
X142256009Y-136641984D01*
X142051913Y-136740271D01*
X142051906Y-136740275D01*
X141868636Y-136873429D01*
X141868635Y-136873430D01*
X141712087Y-137037166D01*
X141587293Y-137226221D01*
X141587289Y-137226229D01*
X141498257Y-137434529D01*
X141498256Y-137434531D01*
X141447849Y-137655382D01*
X141447849Y-137655385D01*
X141437685Y-137881691D01*
X141446483Y-137946639D01*
X141468094Y-138106178D01*
X141538099Y-138321626D01*
X141645440Y-138521100D01*
X141645444Y-138521107D01*
X141786687Y-138698219D01*
X141957280Y-138847262D01*
X142127747Y-138949112D01*
X142151750Y-138963453D01*
X142363839Y-139043051D01*
X142363841Y-139043051D01*
X142363843Y-139043052D01*
X142586730Y-139083500D01*
X142586733Y-139083500D01*
X143856516Y-139083500D01*
X143856522Y-139083500D01*
X144015126Y-139069225D01*
X144025623Y-139068281D01*
X144025623Y-139068280D01*
X144202062Y-139019586D01*
X144243990Y-139008015D01*
X144243990Y-139008014D01*
X144243993Y-139008014D01*
X144448093Y-138909725D01*
X144631363Y-138776571D01*
X144787912Y-138612834D01*
X144912709Y-138423774D01*
X145001743Y-138215470D01*
X145042658Y-138036203D01*
X145077318Y-137974241D01*
X145139974Y-137940853D01*
X145210734Y-137946639D01*
X145267133Y-137989763D01*
X145291264Y-138056533D01*
X145291500Y-138064240D01*
X145291500Y-139654339D01*
X145271498Y-139722460D01*
X145254595Y-139743434D01*
X143743435Y-141254595D01*
X143681123Y-141288620D01*
X143654340Y-141291500D01*
X142643478Y-141291500D01*
X142611992Y-141294333D01*
X142474376Y-141306718D01*
X142474376Y-141306719D01*
X142256009Y-141366984D01*
X142051913Y-141465271D01*
X142051906Y-141465275D01*
X141868636Y-141598429D01*
X141868635Y-141598430D01*
X141712087Y-141762166D01*
X141587293Y-141951221D01*
X141587289Y-141951229D01*
X141498257Y-142159529D01*
X141498256Y-142159531D01*
X141447849Y-142380382D01*
X141447849Y-142380385D01*
X141437986Y-142600000D01*
X141437685Y-142606691D01*
X141449596Y-142694617D01*
X141468094Y-142831178D01*
X141538099Y-143046626D01*
X141645440Y-143246100D01*
X141645444Y-143246107D01*
X141786687Y-143423219D01*
X141957280Y-143572262D01*
X142109904Y-143663451D01*
X142151750Y-143688453D01*
X142363839Y-143768051D01*
X142363841Y-143768051D01*
X142363843Y-143768052D01*
X142586730Y-143808500D01*
X142586733Y-143808500D01*
X143856516Y-143808500D01*
X143856522Y-143808500D01*
X144015126Y-143794225D01*
X144025623Y-143793281D01*
X144025623Y-143793280D01*
X144209375Y-143742568D01*
X144243990Y-143733015D01*
X144243990Y-143733014D01*
X144243993Y-143733014D01*
X144448093Y-143634725D01*
X144631363Y-143501571D01*
X144787912Y-143337834D01*
X144912709Y-143148774D01*
X145001743Y-142940470D01*
X145052151Y-142719615D01*
X145058346Y-142581691D01*
X146737685Y-142581691D01*
X146753711Y-142699998D01*
X146768094Y-142806178D01*
X146838099Y-143021626D01*
X146945440Y-143221100D01*
X146945444Y-143221107D01*
X147086687Y-143398219D01*
X147257280Y-143547262D01*
X147450980Y-143662993D01*
X147451750Y-143663453D01*
X147663839Y-143743051D01*
X147663841Y-143743051D01*
X147663843Y-143743052D01*
X147886730Y-143783500D01*
X147886733Y-143783500D01*
X149156516Y-143783500D01*
X149156522Y-143783500D01*
X149315126Y-143769225D01*
X149325623Y-143768281D01*
X149325623Y-143768280D01*
X149502062Y-143719586D01*
X149543990Y-143708015D01*
X149543990Y-143708014D01*
X149543993Y-143708014D01*
X149748093Y-143609725D01*
X149931363Y-143476571D01*
X150087912Y-143312834D01*
X150212709Y-143123774D01*
X150301743Y-142915470D01*
X150352151Y-142694615D01*
X150355502Y-142620000D01*
X153987849Y-142620000D01*
X154006466Y-142856552D01*
X154061859Y-143087280D01*
X154152662Y-143306498D01*
X154152670Y-143306512D01*
X154267267Y-143493520D01*
X154267268Y-143493520D01*
X155015332Y-142745456D01*
X155040157Y-142830003D01*
X155117949Y-142951049D01*
X155226692Y-143045276D01*
X155357577Y-143105049D01*
X155372076Y-143107133D01*
X154626478Y-143852730D01*
X154626478Y-143852731D01*
X154813499Y-143967336D01*
X155032719Y-144058140D01*
X155263447Y-144113533D01*
X155500000Y-144132150D01*
X155736552Y-144113533D01*
X155967280Y-144058140D01*
X156186500Y-143967336D01*
X156373520Y-143852730D01*
X156373520Y-143852729D01*
X155627924Y-143107133D01*
X155642423Y-143105049D01*
X155773308Y-143045276D01*
X155882051Y-142951049D01*
X155959843Y-142830003D01*
X155984667Y-142745458D01*
X156732729Y-143493520D01*
X156732730Y-143493520D01*
X156847336Y-143306500D01*
X156938140Y-143087280D01*
X156993533Y-142856552D01*
X157005854Y-142700000D01*
X160687004Y-142700000D01*
X160706951Y-142928002D01*
X160766186Y-143149068D01*
X160766188Y-143149073D01*
X160862913Y-143356501D01*
X160912899Y-143427888D01*
X161601272Y-142739515D01*
X161614835Y-142825148D01*
X161672359Y-142938045D01*
X161761955Y-143027641D01*
X161874852Y-143085165D01*
X161960482Y-143098727D01*
X161272110Y-143787098D01*
X161272110Y-143787100D01*
X161343498Y-143837086D01*
X161550926Y-143933811D01*
X161550931Y-143933813D01*
X161771999Y-143993048D01*
X161771995Y-143993048D01*
X162000000Y-144012995D01*
X162228002Y-143993048D01*
X162449068Y-143933813D01*
X162449073Y-143933811D01*
X162656497Y-143837088D01*
X162727888Y-143787099D01*
X162727888Y-143787097D01*
X162039518Y-143098727D01*
X162125148Y-143085165D01*
X162238045Y-143027641D01*
X162327641Y-142938045D01*
X162385165Y-142825148D01*
X162398727Y-142739516D01*
X163087098Y-143427888D01*
X163087099Y-143427888D01*
X163137088Y-143356497D01*
X163233811Y-143149073D01*
X163233813Y-143149068D01*
X163293048Y-142928002D01*
X163312995Y-142700000D01*
X163293048Y-142471997D01*
X163233813Y-142250931D01*
X163233811Y-142250926D01*
X163137086Y-142043498D01*
X163087100Y-141972110D01*
X163087097Y-141972110D01*
X162398726Y-142660480D01*
X162385165Y-142574852D01*
X162327641Y-142461955D01*
X162238045Y-142372359D01*
X162125148Y-142314835D01*
X162039514Y-142301272D01*
X162739569Y-141601218D01*
X162744709Y-141575649D01*
X162794108Y-141524657D01*
X162845369Y-141509667D01*
X162845283Y-141508861D01*
X162909196Y-141501990D01*
X162909199Y-141501989D01*
X162909201Y-141501989D01*
X163046204Y-141450889D01*
X163131192Y-141387268D01*
X163163261Y-141363261D01*
X163250887Y-141246207D01*
X163250887Y-141246206D01*
X163250889Y-141246204D01*
X163301989Y-141109201D01*
X163302135Y-141107849D01*
X163308499Y-141048649D01*
X163308500Y-141048632D01*
X163308500Y-139351367D01*
X163308499Y-139351350D01*
X163301990Y-139290803D01*
X163301988Y-139290795D01*
X163250889Y-139153797D01*
X163250887Y-139153792D01*
X163163261Y-139036738D01*
X163046207Y-138949112D01*
X163046202Y-138949110D01*
X162909204Y-138898011D01*
X162909196Y-138898009D01*
X162848649Y-138891500D01*
X162848638Y-138891500D01*
X161151362Y-138891500D01*
X161151350Y-138891500D01*
X161090803Y-138898009D01*
X161090795Y-138898011D01*
X160953797Y-138949110D01*
X160953792Y-138949112D01*
X160836738Y-139036738D01*
X160749112Y-139153792D01*
X160749110Y-139153797D01*
X160698011Y-139290795D01*
X160698009Y-139290803D01*
X160691500Y-139351350D01*
X160691500Y-141048649D01*
X160698009Y-141109196D01*
X160698011Y-141109204D01*
X160749110Y-141246202D01*
X160749112Y-141246207D01*
X160836738Y-141363261D01*
X160953792Y-141450887D01*
X160953794Y-141450888D01*
X160953796Y-141450889D01*
X160992366Y-141465275D01*
X161090795Y-141501988D01*
X161090803Y-141501990D01*
X161154717Y-141508861D01*
X161154604Y-141509906D01*
X161217435Y-141532059D01*
X161261000Y-141588118D01*
X161263316Y-141604106D01*
X161960483Y-142301272D01*
X161874852Y-142314835D01*
X161761955Y-142372359D01*
X161672359Y-142461955D01*
X161614835Y-142574852D01*
X161601272Y-142660482D01*
X160912899Y-141972109D01*
X160862913Y-142043500D01*
X160766188Y-142250926D01*
X160766186Y-142250931D01*
X160706951Y-142471997D01*
X160687004Y-142700000D01*
X157005854Y-142700000D01*
X157012150Y-142620000D01*
X156993533Y-142383447D01*
X156938140Y-142152719D01*
X156847336Y-141933499D01*
X156732731Y-141746478D01*
X156732730Y-141746478D01*
X155984667Y-142494541D01*
X155959843Y-142409997D01*
X155882051Y-142288951D01*
X155773308Y-142194724D01*
X155642423Y-142134951D01*
X155627923Y-142132866D01*
X156373520Y-141387268D01*
X156373520Y-141387267D01*
X156186512Y-141272670D01*
X156186498Y-141272662D01*
X155967280Y-141181859D01*
X155736552Y-141126466D01*
X155500000Y-141107849D01*
X155263447Y-141126466D01*
X155032719Y-141181859D01*
X154813501Y-141272662D01*
X154813487Y-141272670D01*
X154626478Y-141387267D01*
X154626478Y-141387269D01*
X155372075Y-142132866D01*
X155357577Y-142134951D01*
X155226692Y-142194724D01*
X155117949Y-142288951D01*
X155040157Y-142409997D01*
X155015332Y-142494541D01*
X154267269Y-141746478D01*
X154267267Y-141746478D01*
X154152670Y-141933487D01*
X154152662Y-141933501D01*
X154061859Y-142152719D01*
X154006466Y-142383447D01*
X153987849Y-142620000D01*
X150355502Y-142620000D01*
X150362315Y-142468309D01*
X150331906Y-142243825D01*
X150261903Y-142028379D01*
X150240568Y-141988732D01*
X150154559Y-141828899D01*
X150154555Y-141828892D01*
X150013312Y-141651780D01*
X149842719Y-141502737D01*
X149648256Y-141386550D01*
X149648252Y-141386548D01*
X149648251Y-141386547D01*
X149648250Y-141386547D01*
X149506392Y-141333307D01*
X149436156Y-141306947D01*
X149213270Y-141266500D01*
X149213267Y-141266500D01*
X147943478Y-141266500D01*
X147911992Y-141269333D01*
X147774376Y-141281718D01*
X147774376Y-141281719D01*
X147556009Y-141341984D01*
X147351913Y-141440271D01*
X147351906Y-141440275D01*
X147168636Y-141573429D01*
X147168635Y-141573430D01*
X147012087Y-141737166D01*
X146887293Y-141926221D01*
X146887289Y-141926229D01*
X146798257Y-142134529D01*
X146798256Y-142134531D01*
X146747849Y-142355382D01*
X146747849Y-142355385D01*
X146739196Y-142548056D01*
X146737685Y-142581691D01*
X145058346Y-142581691D01*
X145062315Y-142493309D01*
X145031906Y-142268825D01*
X145029295Y-142260790D01*
X144988270Y-142134529D01*
X144982497Y-142116763D01*
X144980470Y-142045796D01*
X145013234Y-141988734D01*
X146484519Y-140517449D01*
X146487231Y-140514896D01*
X146534215Y-140473273D01*
X146569846Y-140421652D01*
X146572084Y-140418609D01*
X146610775Y-140369225D01*
X146614955Y-140359935D01*
X146626159Y-140340069D01*
X146631954Y-140331675D01*
X146654197Y-140273020D01*
X146655649Y-140269519D01*
X146658681Y-140262779D01*
X146681389Y-140212329D01*
X146683227Y-140202293D01*
X146689347Y-140180340D01*
X146692965Y-140170801D01*
X146700526Y-140108523D01*
X146701090Y-140104815D01*
X146712402Y-140043092D01*
X146708614Y-139980481D01*
X146708500Y-139976679D01*
X146708500Y-139056549D01*
X146728502Y-138988428D01*
X146782158Y-138941935D01*
X146852432Y-138931831D01*
X146910009Y-138955681D01*
X147003792Y-139025887D01*
X147003794Y-139025888D01*
X147003796Y-139025889D01*
X147062875Y-139047924D01*
X147140795Y-139076988D01*
X147140803Y-139076990D01*
X147201350Y-139083499D01*
X147201355Y-139083499D01*
X147201362Y-139083500D01*
X147201368Y-139083500D01*
X149898632Y-139083500D01*
X149898638Y-139083500D01*
X149898645Y-139083499D01*
X149898649Y-139083499D01*
X149959196Y-139076990D01*
X149959199Y-139076989D01*
X149959201Y-139076989D01*
X150096204Y-139025889D01*
X150132792Y-138998500D01*
X150213261Y-138938261D01*
X150300887Y-138821207D01*
X150300887Y-138821206D01*
X150300889Y-138821204D01*
X150351989Y-138684201D01*
X150358500Y-138623638D01*
X150358500Y-137026362D01*
X150358499Y-137026350D01*
X150351990Y-136965803D01*
X150351988Y-136965795D01*
X150300889Y-136828797D01*
X150300887Y-136828792D01*
X150213261Y-136711738D01*
X150096207Y-136624112D01*
X150096202Y-136624110D01*
X149959204Y-136573011D01*
X149959196Y-136573009D01*
X149898649Y-136566500D01*
X149898638Y-136566500D01*
X147201362Y-136566500D01*
X147201350Y-136566500D01*
X147140803Y-136573009D01*
X147140795Y-136573011D01*
X147003797Y-136624110D01*
X147003792Y-136624113D01*
X146910009Y-136694318D01*
X146843488Y-136719129D01*
X146774114Y-136704037D01*
X146723912Y-136653835D01*
X146708500Y-136593450D01*
X146708500Y-135923313D01*
X146708615Y-135919508D01*
X146708920Y-135914467D01*
X146712402Y-135856907D01*
X146701090Y-135795182D01*
X146700527Y-135791478D01*
X146692965Y-135729199D01*
X146692964Y-135729196D01*
X146689351Y-135719668D01*
X146683227Y-135697702D01*
X146681389Y-135687673D01*
X146681389Y-135687671D01*
X146655646Y-135630473D01*
X146654189Y-135626956D01*
X146631957Y-135568332D01*
X146631955Y-135568329D01*
X146631954Y-135568325D01*
X146626163Y-135559935D01*
X146614958Y-135540070D01*
X146610775Y-135530774D01*
X146572088Y-135481395D01*
X146569846Y-135478348D01*
X146534215Y-135426727D01*
X146526950Y-135420291D01*
X146512899Y-135407842D01*
X146487249Y-135385119D01*
X146484503Y-135382533D01*
X146101970Y-135000000D01*
X153987347Y-135000000D01*
X154005970Y-135236631D01*
X154061381Y-135467433D01*
X154121463Y-135612484D01*
X154152216Y-135686730D01*
X154217546Y-135793339D01*
X154276239Y-135889116D01*
X154276240Y-135889118D01*
X154430392Y-136069607D01*
X154605164Y-136218876D01*
X154610885Y-136223762D01*
X154813270Y-136347784D01*
X155032565Y-136438618D01*
X155263369Y-136494030D01*
X155500000Y-136512653D01*
X155736631Y-136494030D01*
X155967435Y-136438618D01*
X156186730Y-136347784D01*
X156389115Y-136223762D01*
X156569607Y-136069607D01*
X156723762Y-135889115D01*
X156840512Y-135698597D01*
X159892000Y-135698597D01*
X159898505Y-135759093D01*
X159949555Y-135895964D01*
X159949555Y-135895965D01*
X160037095Y-136012904D01*
X160154034Y-136100444D01*
X160290906Y-136151494D01*
X160351402Y-136157999D01*
X160351415Y-136158000D01*
X160796000Y-136158000D01*
X160796000Y-135311686D01*
X160811955Y-135327641D01*
X160924852Y-135385165D01*
X161018519Y-135400000D01*
X161081481Y-135400000D01*
X161175148Y-135385165D01*
X161288045Y-135327641D01*
X161304000Y-135311686D01*
X161304000Y-136158000D01*
X161748585Y-136158000D01*
X161748597Y-136157999D01*
X161809093Y-136151494D01*
X161945964Y-136100444D01*
X161945965Y-136100444D01*
X162062904Y-136012904D01*
X162150444Y-135895965D01*
X162150444Y-135895964D01*
X162201494Y-135759093D01*
X162207999Y-135698597D01*
X162208000Y-135698585D01*
X162208000Y-135254000D01*
X161361686Y-135254000D01*
X161377641Y-135238045D01*
X161435165Y-135125148D01*
X161454986Y-135000000D01*
X161435165Y-134874852D01*
X161377641Y-134761955D01*
X161361686Y-134746000D01*
X162208000Y-134746000D01*
X162208000Y-134301414D01*
X162207999Y-134301402D01*
X162201494Y-134240906D01*
X162150444Y-134104035D01*
X162150444Y-134104034D01*
X162062904Y-133987095D01*
X161945965Y-133899555D01*
X161809093Y-133848505D01*
X161748597Y-133842000D01*
X161304000Y-133842000D01*
X161304000Y-134688314D01*
X161288045Y-134672359D01*
X161175148Y-134614835D01*
X161081481Y-134600000D01*
X161018519Y-134600000D01*
X160924852Y-134614835D01*
X160811955Y-134672359D01*
X160796000Y-134688314D01*
X160796000Y-133842000D01*
X160351402Y-133842000D01*
X160290906Y-133848505D01*
X160154035Y-133899555D01*
X160154034Y-133899555D01*
X160037095Y-133987095D01*
X159949555Y-134104034D01*
X159949555Y-134104035D01*
X159898505Y-134240906D01*
X159892000Y-134301402D01*
X159892000Y-134746000D01*
X160738314Y-134746000D01*
X160722359Y-134761955D01*
X160664835Y-134874852D01*
X160645014Y-135000000D01*
X160664835Y-135125148D01*
X160722359Y-135238045D01*
X160738314Y-135254000D01*
X159892000Y-135254000D01*
X159892000Y-135698597D01*
X156840512Y-135698597D01*
X156847784Y-135686730D01*
X156938618Y-135467435D01*
X156994030Y-135236631D01*
X157012653Y-135000000D01*
X156994030Y-134763369D01*
X156938618Y-134532565D01*
X156847784Y-134313270D01*
X156723762Y-134110885D01*
X156715405Y-134101100D01*
X156569607Y-133930392D01*
X156389118Y-133776240D01*
X156389116Y-133776239D01*
X156389115Y-133776238D01*
X156186730Y-133652216D01*
X156138446Y-133632216D01*
X155967433Y-133561381D01*
X155809548Y-133523476D01*
X155736631Y-133505970D01*
X155736632Y-133505970D01*
X155500000Y-133487347D01*
X155263368Y-133505970D01*
X155032566Y-133561381D01*
X154813271Y-133652215D01*
X154610883Y-133776239D01*
X154610881Y-133776240D01*
X154430392Y-133930392D01*
X154276240Y-134110881D01*
X154276239Y-134110883D01*
X154152215Y-134313271D01*
X154061381Y-134532566D01*
X154005970Y-134763368D01*
X153987347Y-135000000D01*
X146101970Y-135000000D01*
X142017464Y-130915494D01*
X142014880Y-130912750D01*
X141973273Y-130865785D01*
X141973270Y-130865783D01*
X141973271Y-130865783D01*
X141921655Y-130830154D01*
X141918590Y-130827899D01*
X141900146Y-130813449D01*
X141869226Y-130789225D01*
X141869222Y-130789223D01*
X141859919Y-130785035D01*
X141840069Y-130773840D01*
X141831675Y-130768046D01*
X141808705Y-130759334D01*
X141773043Y-130745809D01*
X141769528Y-130744353D01*
X141737645Y-130730004D01*
X148562308Y-130730004D01*
X148581052Y-131004048D01*
X148581053Y-131004054D01*
X148636942Y-131273011D01*
X148636944Y-131273019D01*
X148728938Y-131531865D01*
X148855314Y-131775756D01*
X148855316Y-131775759D01*
X148985541Y-131960248D01*
X149932912Y-131012876D01*
X149994680Y-131130566D01*
X150107405Y-131257806D01*
X150247305Y-131354371D01*
X150292642Y-131371565D01*
X149345715Y-132318492D01*
X149345715Y-132318494D01*
X149414313Y-132374304D01*
X149414318Y-132374307D01*
X149649030Y-132517038D01*
X149900989Y-132626480D01*
X150165509Y-132700595D01*
X150437635Y-132737999D01*
X150437649Y-132738000D01*
X150712351Y-132738000D01*
X150712364Y-132737999D01*
X150984490Y-132700595D01*
X151249010Y-132626480D01*
X151500969Y-132517038D01*
X151735679Y-132374309D01*
X151804283Y-132318493D01*
X151804283Y-132318492D01*
X150857356Y-131371565D01*
X150902695Y-131354371D01*
X151042595Y-131257806D01*
X151155320Y-131130566D01*
X151217086Y-131012877D01*
X152164458Y-131960247D01*
X152294682Y-131775762D01*
X152294685Y-131775756D01*
X152421061Y-131531865D01*
X152513055Y-131273019D01*
X152513057Y-131273011D01*
X152568946Y-131004054D01*
X152568947Y-131004048D01*
X152587692Y-130730004D01*
X154911807Y-130730004D01*
X154930556Y-131004116D01*
X154930557Y-131004122D01*
X154930558Y-131004130D01*
X154948238Y-131089210D01*
X154986460Y-131273146D01*
X154986462Y-131273154D01*
X155066628Y-131498719D01*
X155078477Y-131532058D01*
X155204752Y-131775759D01*
X155204892Y-131776028D01*
X155272797Y-131872227D01*
X155363343Y-132000502D01*
X155550889Y-132201314D01*
X155764031Y-132374718D01*
X155998800Y-132517484D01*
X156250823Y-132626953D01*
X156515404Y-132701085D01*
X156610504Y-132714156D01*
X156787604Y-132738499D01*
X156787615Y-132738500D01*
X157062385Y-132738500D01*
X157062395Y-132738499D01*
X157191945Y-132720692D01*
X157334596Y-132701085D01*
X157599177Y-132626953D01*
X157851200Y-132517484D01*
X158085969Y-132374718D01*
X158299111Y-132201314D01*
X158486657Y-132000502D01*
X158645111Y-131776023D01*
X158771523Y-131532058D01*
X158863538Y-131273153D01*
X158919442Y-131004130D01*
X158938193Y-130730000D01*
X158936869Y-130710650D01*
X158919443Y-130455883D01*
X158919442Y-130455877D01*
X158919442Y-130455870D01*
X158863538Y-130186847D01*
X158771523Y-129927942D01*
X158645111Y-129683977D01*
X158645105Y-129683969D01*
X158614930Y-129641221D01*
X158486657Y-129459498D01*
X158299111Y-129258686D01*
X158085969Y-129085282D01*
X157851200Y-128942516D01*
X157851201Y-128942516D01*
X157851197Y-128942514D01*
X157599180Y-128833048D01*
X157599178Y-128833047D01*
X157599177Y-128833047D01*
X157466886Y-128795981D01*
X157334593Y-128758914D01*
X157062395Y-128721500D01*
X157062385Y-128721500D01*
X156787615Y-128721500D01*
X156787604Y-128721500D01*
X156515406Y-128758914D01*
X156250819Y-128833048D01*
X155998802Y-128942514D01*
X155764028Y-129085284D01*
X155550886Y-129258688D01*
X155363343Y-129459498D01*
X155204892Y-129683971D01*
X155078477Y-129927941D01*
X154986462Y-130186845D01*
X154986460Y-130186853D01*
X154930557Y-130455877D01*
X154930556Y-130455883D01*
X154911807Y-130729995D01*
X154911807Y-130730004D01*
X152587692Y-130730004D01*
X152587692Y-130729995D01*
X152568947Y-130455951D01*
X152568946Y-130455945D01*
X152513057Y-130186988D01*
X152513055Y-130186980D01*
X152421061Y-129928134D01*
X152294685Y-129684243D01*
X152294681Y-129684237D01*
X152164457Y-129499750D01*
X151217086Y-130447120D01*
X151155320Y-130329434D01*
X151042595Y-130202194D01*
X150902695Y-130105629D01*
X150857355Y-130088433D01*
X151804283Y-129141504D01*
X151735680Y-129085691D01*
X151500969Y-128942961D01*
X151249010Y-128833519D01*
X150984490Y-128759404D01*
X150712364Y-128722000D01*
X150437635Y-128722000D01*
X150165509Y-128759404D01*
X149900989Y-128833519D01*
X149649030Y-128942961D01*
X149414325Y-129085687D01*
X149345715Y-129141505D01*
X149345714Y-129141505D01*
X150292643Y-130088434D01*
X150247305Y-130105629D01*
X150107405Y-130202194D01*
X149994680Y-130329434D01*
X149932913Y-130447121D01*
X148985541Y-129499750D01*
X148855317Y-129684236D01*
X148728938Y-129928134D01*
X148636944Y-130186980D01*
X148636942Y-130186988D01*
X148581053Y-130455945D01*
X148581052Y-130455951D01*
X148562308Y-130729995D01*
X148562308Y-130730004D01*
X141737645Y-130730004D01*
X141712332Y-130718612D01*
X141712330Y-130718611D01*
X141712329Y-130718611D01*
X141702286Y-130716770D01*
X141680336Y-130710650D01*
X141670801Y-130707035D01*
X141670800Y-130707034D01*
X141670798Y-130707034D01*
X141670794Y-130707033D01*
X141618362Y-130700667D01*
X141608537Y-130699473D01*
X141604786Y-130698902D01*
X141563760Y-130691385D01*
X141543094Y-130687598D01*
X141543093Y-130687598D01*
X141480488Y-130691385D01*
X141476685Y-130691500D01*
X138336982Y-130691500D01*
X138268861Y-130671498D01*
X138247887Y-130654596D01*
X137588785Y-129995495D01*
X137586176Y-129992723D01*
X137544593Y-129945785D01*
X137522680Y-129930659D01*
X137492975Y-129910154D01*
X137489910Y-129907899D01*
X137471407Y-129893403D01*
X137440546Y-129869225D01*
X137440542Y-129869223D01*
X137431239Y-129865035D01*
X137411389Y-129853840D01*
X137402995Y-129848046D01*
X137369743Y-129835435D01*
X137344363Y-129825809D01*
X137340848Y-129824353D01*
X137283652Y-129798612D01*
X137283650Y-129798611D01*
X137283649Y-129798611D01*
X137273606Y-129796770D01*
X137251656Y-129790650D01*
X137242121Y-129787035D01*
X137242120Y-129787034D01*
X137242118Y-129787034D01*
X137242114Y-129787033D01*
X137189682Y-129780667D01*
X137179857Y-129779473D01*
X137176106Y-129778902D01*
X137135080Y-129771385D01*
X137114414Y-129767598D01*
X137114413Y-129767598D01*
X137051808Y-129771385D01*
X137048005Y-129771500D01*
X136852084Y-129771500D01*
X136783963Y-129751498D01*
X136740211Y-129703469D01*
X136730114Y-129683983D01*
X136730111Y-129683977D01*
X136571657Y-129459498D01*
X136384111Y-129258686D01*
X136170969Y-129085282D01*
X135936200Y-128942516D01*
X135936201Y-128942516D01*
X135936197Y-128942514D01*
X135684180Y-128833048D01*
X135684178Y-128833047D01*
X135684177Y-128833047D01*
X135551886Y-128795981D01*
X135419593Y-128758914D01*
X135147395Y-128721500D01*
X135147385Y-128721500D01*
X134872615Y-128721500D01*
X134872604Y-128721500D01*
X134600406Y-128758914D01*
X134335819Y-128833048D01*
X134083802Y-128942514D01*
X133849028Y-129085284D01*
X133635886Y-129258688D01*
X133448343Y-129459498D01*
X133289892Y-129683971D01*
X133163477Y-129927941D01*
X133071462Y-130186845D01*
X133071460Y-130186853D01*
X133015557Y-130455877D01*
X133015556Y-130455883D01*
X132996807Y-130729995D01*
X132996807Y-130730004D01*
X130673193Y-130730004D01*
X130673193Y-130730000D01*
X130671869Y-130710650D01*
X130654443Y-130455883D01*
X130654442Y-130455877D01*
X130654442Y-130455870D01*
X130598538Y-130186847D01*
X130506523Y-129927942D01*
X130380111Y-129683977D01*
X130380105Y-129683969D01*
X130349930Y-129641221D01*
X130221657Y-129459498D01*
X130034111Y-129258686D01*
X129820969Y-129085282D01*
X129586200Y-128942516D01*
X129586201Y-128942516D01*
X129586197Y-128942514D01*
X129334180Y-128833048D01*
X129334178Y-128833047D01*
X129334177Y-128833047D01*
X129201886Y-128795981D01*
X129069593Y-128758914D01*
X128797395Y-128721500D01*
X128797385Y-128721500D01*
X128522615Y-128721500D01*
X128522604Y-128721500D01*
X128250406Y-128758914D01*
X127985819Y-128833048D01*
X127733802Y-128942514D01*
X127499028Y-129085284D01*
X127285886Y-129258688D01*
X127098343Y-129459498D01*
X126939892Y-129683971D01*
X126813477Y-129927941D01*
X126721462Y-130186845D01*
X126721460Y-130186853D01*
X126665557Y-130455877D01*
X126665556Y-130455883D01*
X126646807Y-130729995D01*
X126646807Y-130730004D01*
X126308500Y-130730004D01*
X126308500Y-125245660D01*
X126328502Y-125177539D01*
X126345405Y-125156565D01*
X132156566Y-119345405D01*
X132218878Y-119311379D01*
X132245661Y-119308500D01*
X141254340Y-119308500D01*
X141322461Y-119328502D01*
X141343435Y-119345405D01*
X142382533Y-120384503D01*
X142385119Y-120387249D01*
X142426727Y-120434215D01*
X142459666Y-120456951D01*
X142478355Y-120469852D01*
X142481389Y-120472083D01*
X142530775Y-120510775D01*
X142540070Y-120514958D01*
X142559933Y-120526161D01*
X142568325Y-120531954D01*
X142626986Y-120554200D01*
X142630466Y-120555642D01*
X142687671Y-120581389D01*
X142697704Y-120583227D01*
X142719668Y-120589351D01*
X142729196Y-120592964D01*
X142729199Y-120592965D01*
X142791470Y-120600525D01*
X142795193Y-120601092D01*
X142856908Y-120612402D01*
X142919519Y-120608614D01*
X142923319Y-120608500D01*
X159654340Y-120608500D01*
X159722461Y-120628502D01*
X159743435Y-120645405D01*
X165304595Y-126206565D01*
X165338621Y-126268877D01*
X165341500Y-126295660D01*
X165341500Y-129835435D01*
X165321498Y-129903556D01*
X165267842Y-129950049D01*
X165197568Y-129960153D01*
X165132988Y-129930659D01*
X165103626Y-129893403D01*
X165086495Y-129860341D01*
X164995111Y-129683977D01*
X164995105Y-129683969D01*
X164964930Y-129641221D01*
X164836657Y-129459498D01*
X164649111Y-129258686D01*
X164435969Y-129085282D01*
X164201200Y-128942516D01*
X164201201Y-128942516D01*
X164201197Y-128942514D01*
X163949180Y-128833048D01*
X163949178Y-128833047D01*
X163949177Y-128833047D01*
X163816886Y-128795980D01*
X163684593Y-128758914D01*
X163412395Y-128721500D01*
X163412385Y-128721500D01*
X163137615Y-128721500D01*
X163137604Y-128721500D01*
X162865406Y-128758914D01*
X162600819Y-128833048D01*
X162348802Y-128942514D01*
X162114028Y-129085284D01*
X161900886Y-129258688D01*
X161713343Y-129459498D01*
X161554892Y-129683971D01*
X161428477Y-129927941D01*
X161336462Y-130186845D01*
X161336460Y-130186853D01*
X161280557Y-130455877D01*
X161280556Y-130455883D01*
X161261807Y-130729995D01*
X161261807Y-130730004D01*
X161280556Y-131004116D01*
X161280557Y-131004122D01*
X161280558Y-131004130D01*
X161298238Y-131089210D01*
X161336460Y-131273146D01*
X161336462Y-131273154D01*
X161416628Y-131498719D01*
X161428477Y-131532058D01*
X161554752Y-131775759D01*
X161554892Y-131776028D01*
X161622797Y-131872227D01*
X161713343Y-132000502D01*
X161900889Y-132201314D01*
X162114031Y-132374718D01*
X162348800Y-132517484D01*
X162600823Y-132626953D01*
X162865404Y-132701085D01*
X162960504Y-132714156D01*
X163137604Y-132738499D01*
X163137615Y-132738500D01*
X163412385Y-132738500D01*
X163412395Y-132738499D01*
X163541945Y-132720692D01*
X163684596Y-132701085D01*
X163949177Y-132626953D01*
X164201200Y-132517484D01*
X164435969Y-132374718D01*
X164649111Y-132201314D01*
X164836657Y-132000502D01*
X164995111Y-131776023D01*
X165103628Y-131566593D01*
X165152726Y-131515315D01*
X165221755Y-131498719D01*
X165288799Y-131522079D01*
X165332571Y-131577976D01*
X165341500Y-131624564D01*
X165341500Y-134022607D01*
X165321498Y-134090728D01*
X165300386Y-134115721D01*
X165190191Y-134216178D01*
X165060805Y-134387514D01*
X164965103Y-134579708D01*
X164965100Y-134579716D01*
X164906347Y-134786210D01*
X164886537Y-135000000D01*
X164906347Y-135213789D01*
X164965100Y-135420283D01*
X164965103Y-135420291D01*
X165060804Y-135612484D01*
X165148943Y-135729199D01*
X165190191Y-135783821D01*
X165348854Y-135928462D01*
X165348856Y-135928463D01*
X165348857Y-135928464D01*
X165531400Y-136041489D01*
X165622369Y-136076731D01*
X165731598Y-136119047D01*
X165731603Y-136119049D01*
X165942649Y-136158500D01*
X165942651Y-136158500D01*
X166157349Y-136158500D01*
X166157351Y-136158500D01*
X166368397Y-136119049D01*
X166568600Y-136041489D01*
X166751143Y-135928464D01*
X166909810Y-135783820D01*
X167039196Y-135612484D01*
X167134897Y-135420291D01*
X167193653Y-135213786D01*
X167213463Y-135000000D01*
X167193653Y-134786214D01*
X167185941Y-134759111D01*
X167134899Y-134579716D01*
X167134898Y-134579715D01*
X167134897Y-134579709D01*
X167039196Y-134387516D01*
X166909810Y-134216180D01*
X166909808Y-134216178D01*
X166799614Y-134115721D01*
X166762748Y-134055047D01*
X166758500Y-134022607D01*
X166758500Y-125973313D01*
X166758615Y-125969508D01*
X166762402Y-125906907D01*
X166751090Y-125845182D01*
X166750527Y-125841478D01*
X166742965Y-125779199D01*
X166742964Y-125779196D01*
X166739351Y-125769668D01*
X166733227Y-125747702D01*
X166731389Y-125737673D01*
X166731389Y-125737671D01*
X166705646Y-125680473D01*
X166704189Y-125676956D01*
X166681957Y-125618332D01*
X166681955Y-125618329D01*
X166681954Y-125618325D01*
X166676163Y-125609935D01*
X166664958Y-125590070D01*
X166660775Y-125580774D01*
X166622088Y-125531395D01*
X166619846Y-125528348D01*
X166584215Y-125476727D01*
X166537249Y-125435119D01*
X166534503Y-125432533D01*
X160517464Y-119415494D01*
X160514880Y-119412750D01*
X160473273Y-119365785D01*
X160473270Y-119365783D01*
X160473271Y-119365783D01*
X160421655Y-119330154D01*
X160418590Y-119327899D01*
X160397503Y-119311379D01*
X160369226Y-119289225D01*
X160369222Y-119289223D01*
X160359919Y-119285035D01*
X160340069Y-119273840D01*
X160331675Y-119268046D01*
X160308705Y-119259334D01*
X160273043Y-119245809D01*
X160269528Y-119244353D01*
X160212332Y-119218612D01*
X160212330Y-119218611D01*
X160212329Y-119218611D01*
X160202286Y-119216770D01*
X160180336Y-119210650D01*
X160170801Y-119207035D01*
X160170800Y-119207034D01*
X160170798Y-119207034D01*
X160170794Y-119207033D01*
X160118362Y-119200667D01*
X160108537Y-119199473D01*
X160104786Y-119198902D01*
X160063760Y-119191385D01*
X160043094Y-119187598D01*
X160043093Y-119187598D01*
X159980488Y-119191385D01*
X159976685Y-119191500D01*
X143245660Y-119191500D01*
X143177539Y-119171498D01*
X143156565Y-119154595D01*
X142345405Y-118343435D01*
X142311379Y-118281123D01*
X142308500Y-118254340D01*
X142308500Y-118041644D01*
X142328502Y-117973523D01*
X142357109Y-117942213D01*
X142523233Y-117812912D01*
X142523234Y-117812910D01*
X142523240Y-117812906D01*
X142584626Y-117746222D01*
X142645476Y-117709654D01*
X142716441Y-117711787D01*
X142774986Y-117751949D01*
X142795380Y-117787529D01*
X142839553Y-117905961D01*
X142839555Y-117905965D01*
X142927095Y-118022904D01*
X143044034Y-118110444D01*
X143180906Y-118161494D01*
X143241402Y-118167999D01*
X143241415Y-118168000D01*
X143886000Y-118168000D01*
X143886000Y-117243674D01*
X143997685Y-117294680D01*
X144104237Y-117310000D01*
X144175763Y-117310000D01*
X144282315Y-117294680D01*
X144394000Y-117243674D01*
X144394000Y-118168000D01*
X145038585Y-118168000D01*
X145038597Y-118167999D01*
X145099093Y-118161494D01*
X145235964Y-118110444D01*
X145235965Y-118110444D01*
X145352904Y-118022904D01*
X145440444Y-117905965D01*
X145440444Y-117905964D01*
X145491494Y-117769093D01*
X145497999Y-117708597D01*
X145498000Y-117708585D01*
X145498000Y-117064000D01*
X144571116Y-117064000D01*
X144599493Y-117019844D01*
X144640000Y-116881889D01*
X144640000Y-116738111D01*
X144599493Y-116600156D01*
X144571116Y-116556000D01*
X145498000Y-116556000D01*
X145498000Y-115911414D01*
X145497999Y-115911402D01*
X145491494Y-115850906D01*
X145440444Y-115714035D01*
X145440444Y-115714034D01*
X145352904Y-115597095D01*
X145235965Y-115509555D01*
X145099093Y-115458505D01*
X145038597Y-115452000D01*
X144394000Y-115452000D01*
X144394000Y-116376325D01*
X144282315Y-116325320D01*
X144175763Y-116310000D01*
X144104237Y-116310000D01*
X143997685Y-116325320D01*
X143886000Y-116376325D01*
X143886000Y-115452000D01*
X143241402Y-115452000D01*
X143180906Y-115458505D01*
X143044035Y-115509555D01*
X143044034Y-115509555D01*
X142927095Y-115597095D01*
X142839555Y-115714034D01*
X142839553Y-115714039D01*
X142795380Y-115832470D01*
X142752833Y-115889306D01*
X142686313Y-115914116D01*
X142616939Y-115899024D01*
X142584626Y-115873777D01*
X142523240Y-115807094D01*
X142523238Y-115807092D01*
X142523233Y-115807087D01*
X142357109Y-115677787D01*
X142315638Y-115620162D01*
X142308500Y-115578356D01*
X142308500Y-114500004D01*
X148561807Y-114500004D01*
X148580556Y-114774116D01*
X148580557Y-114774122D01*
X148580558Y-114774130D01*
X148598238Y-114859210D01*
X148636460Y-115043146D01*
X148636462Y-115043154D01*
X148728408Y-115301865D01*
X148728477Y-115302058D01*
X148854752Y-115545759D01*
X148854892Y-115546028D01*
X148877712Y-115578356D01*
X149013343Y-115770502D01*
X149200889Y-115971314D01*
X149414031Y-116144718D01*
X149648800Y-116287484D01*
X149900823Y-116396953D01*
X150165404Y-116471085D01*
X150260504Y-116484156D01*
X150437604Y-116508499D01*
X150437615Y-116508500D01*
X150712385Y-116508500D01*
X150712395Y-116508499D01*
X150841945Y-116490692D01*
X150984596Y-116471085D01*
X151249177Y-116396953D01*
X151501200Y-116287484D01*
X151735969Y-116144718D01*
X151949111Y-115971314D01*
X152136657Y-115770502D01*
X152295111Y-115546023D01*
X152421523Y-115302058D01*
X152513538Y-115043153D01*
X152569442Y-114774130D01*
X152588193Y-114500004D01*
X154911807Y-114500004D01*
X154930556Y-114774116D01*
X154930557Y-114774122D01*
X154930558Y-114774130D01*
X154948238Y-114859210D01*
X154986460Y-115043146D01*
X154986462Y-115043154D01*
X155078408Y-115301865D01*
X155078477Y-115302058D01*
X155204752Y-115545759D01*
X155204892Y-115546028D01*
X155227712Y-115578356D01*
X155363343Y-115770502D01*
X155550889Y-115971314D01*
X155764031Y-116144718D01*
X155998800Y-116287484D01*
X156250823Y-116396953D01*
X156515404Y-116471085D01*
X156610504Y-116484156D01*
X156787604Y-116508499D01*
X156787615Y-116508500D01*
X157062385Y-116508500D01*
X157062395Y-116508499D01*
X157191945Y-116490692D01*
X157334596Y-116471085D01*
X157599177Y-116396953D01*
X157851200Y-116287484D01*
X158085969Y-116144718D01*
X158299111Y-115971314D01*
X158486657Y-115770502D01*
X158645111Y-115546023D01*
X158771523Y-115302058D01*
X158863538Y-115043153D01*
X158919442Y-114774130D01*
X158938193Y-114500004D01*
X161262308Y-114500004D01*
X161281052Y-114774048D01*
X161281053Y-114774054D01*
X161336942Y-115043011D01*
X161336944Y-115043019D01*
X161428938Y-115301865D01*
X161555314Y-115545756D01*
X161555316Y-115545759D01*
X161685541Y-115730248D01*
X162632912Y-114782876D01*
X162694680Y-114900566D01*
X162807405Y-115027806D01*
X162947305Y-115124371D01*
X162992642Y-115141565D01*
X162045715Y-116088492D01*
X162045715Y-116088494D01*
X162114313Y-116144304D01*
X162114318Y-116144307D01*
X162349030Y-116287038D01*
X162600989Y-116396480D01*
X162865509Y-116470595D01*
X163137635Y-116507999D01*
X163137649Y-116508000D01*
X163412351Y-116508000D01*
X163412364Y-116507999D01*
X163684490Y-116470595D01*
X163949010Y-116396480D01*
X164200969Y-116287038D01*
X164435679Y-116144309D01*
X164504283Y-116088493D01*
X164504283Y-116088492D01*
X163557356Y-115141565D01*
X163602695Y-115124371D01*
X163742595Y-115027806D01*
X163855320Y-114900566D01*
X163917087Y-114782877D01*
X164864457Y-115730248D01*
X164994682Y-115545762D01*
X164994685Y-115545756D01*
X165121061Y-115301865D01*
X165213055Y-115043019D01*
X165213057Y-115043011D01*
X165268946Y-114774054D01*
X165268947Y-114774048D01*
X165287692Y-114500004D01*
X165287692Y-114499995D01*
X165268947Y-114225951D01*
X165268946Y-114225945D01*
X165213057Y-113956988D01*
X165213055Y-113956980D01*
X165121061Y-113698134D01*
X164994685Y-113454243D01*
X164994681Y-113454237D01*
X164864457Y-113269750D01*
X163917086Y-114217120D01*
X163855320Y-114099434D01*
X163742595Y-113972194D01*
X163602695Y-113875629D01*
X163557355Y-113858433D01*
X164504283Y-112911504D01*
X164435680Y-112855691D01*
X164200969Y-112712961D01*
X163949010Y-112603519D01*
X163684490Y-112529404D01*
X163412364Y-112492000D01*
X163137635Y-112492000D01*
X162865509Y-112529404D01*
X162600989Y-112603519D01*
X162349030Y-112712961D01*
X162114325Y-112855687D01*
X162045715Y-112911505D01*
X162045714Y-112911505D01*
X162992643Y-113858434D01*
X162947305Y-113875629D01*
X162807405Y-113972194D01*
X162694680Y-114099434D01*
X162632913Y-114217122D01*
X161685541Y-113269750D01*
X161555317Y-113454236D01*
X161428938Y-113698134D01*
X161336944Y-113956980D01*
X161336942Y-113956988D01*
X161281053Y-114225945D01*
X161281052Y-114225951D01*
X161262308Y-114499995D01*
X161262308Y-114500004D01*
X158938193Y-114500004D01*
X158938193Y-114500000D01*
X158921089Y-114249954D01*
X158919443Y-114225883D01*
X158919442Y-114225877D01*
X158919442Y-114225870D01*
X158863538Y-113956847D01*
X158771523Y-113697942D01*
X158645111Y-113453977D01*
X158486657Y-113229498D01*
X158299111Y-113028686D01*
X158085969Y-112855282D01*
X157851200Y-112712516D01*
X157851201Y-112712516D01*
X157851197Y-112712514D01*
X157599180Y-112603048D01*
X157599178Y-112603047D01*
X157599177Y-112603047D01*
X157340892Y-112530679D01*
X157334593Y-112528914D01*
X157062395Y-112491500D01*
X157062385Y-112491500D01*
X156787615Y-112491500D01*
X156787604Y-112491500D01*
X156515406Y-112528914D01*
X156250819Y-112603048D01*
X155998802Y-112712514D01*
X155764028Y-112855284D01*
X155550886Y-113028688D01*
X155363343Y-113229498D01*
X155204892Y-113453971D01*
X155078477Y-113697941D01*
X154986462Y-113956845D01*
X154986460Y-113956853D01*
X154930557Y-114225877D01*
X154930556Y-114225883D01*
X154911807Y-114499995D01*
X154911807Y-114500004D01*
X152588193Y-114500004D01*
X152588193Y-114500000D01*
X152571089Y-114249954D01*
X152569443Y-114225883D01*
X152569442Y-114225877D01*
X152569442Y-114225870D01*
X152513538Y-113956847D01*
X152421523Y-113697942D01*
X152295111Y-113453977D01*
X152136657Y-113229498D01*
X151949111Y-113028686D01*
X151735969Y-112855282D01*
X151501200Y-112712516D01*
X151501201Y-112712516D01*
X151501197Y-112712514D01*
X151249180Y-112603048D01*
X151249178Y-112603047D01*
X151249177Y-112603047D01*
X150990892Y-112530679D01*
X150984593Y-112528914D01*
X150712395Y-112491500D01*
X150712385Y-112491500D01*
X150437615Y-112491500D01*
X150437604Y-112491500D01*
X150165406Y-112528914D01*
X149900819Y-112603048D01*
X149648802Y-112712514D01*
X149414028Y-112855284D01*
X149200886Y-113028688D01*
X149013343Y-113229498D01*
X148854892Y-113453971D01*
X148728477Y-113697941D01*
X148636462Y-113956845D01*
X148636460Y-113956853D01*
X148580557Y-114225877D01*
X148580556Y-114225883D01*
X148561807Y-114499995D01*
X148561807Y-114500004D01*
X142308500Y-114500004D01*
X142308500Y-112756297D01*
X142312161Y-112726143D01*
X142312961Y-112722891D01*
X142312965Y-112722882D01*
X142320526Y-112660601D01*
X142321094Y-112656868D01*
X142332401Y-112595174D01*
X142331893Y-112586789D01*
X142347743Y-112517588D01*
X142380268Y-112479753D01*
X142543240Y-112352906D01*
X142695722Y-112187268D01*
X142784816Y-112050898D01*
X142838819Y-112004810D01*
X142909167Y-111995235D01*
X142973524Y-112025212D01*
X142995782Y-112050898D01*
X143084674Y-112186958D01*
X143237097Y-112352534D01*
X143414698Y-112490767D01*
X143414699Y-112490768D01*
X143612628Y-112597882D01*
X143612630Y-112597883D01*
X143825483Y-112670955D01*
X143825492Y-112670957D01*
X143906000Y-112684391D01*
X143906000Y-111783674D01*
X144017685Y-111834680D01*
X144124237Y-111850000D01*
X144195763Y-111850000D01*
X144302315Y-111834680D01*
X144414000Y-111783674D01*
X144414000Y-112684390D01*
X144494507Y-112670957D01*
X144494516Y-112670955D01*
X144707369Y-112597883D01*
X144707371Y-112597882D01*
X144905300Y-112490768D01*
X144905301Y-112490767D01*
X145082905Y-112352532D01*
X145144047Y-112286113D01*
X145204899Y-112249541D01*
X145275863Y-112251674D01*
X145334409Y-112291835D01*
X145354804Y-112327415D01*
X145399111Y-112446204D01*
X145399112Y-112446207D01*
X145486738Y-112563261D01*
X145603792Y-112650887D01*
X145603794Y-112650888D01*
X145603796Y-112650889D01*
X145657600Y-112670957D01*
X145740795Y-112701988D01*
X145740803Y-112701990D01*
X145801350Y-112708499D01*
X145801355Y-112708499D01*
X145801362Y-112708500D01*
X145801368Y-112708500D01*
X147598632Y-112708500D01*
X147598638Y-112708500D01*
X147598645Y-112708499D01*
X147598649Y-112708499D01*
X147659196Y-112701990D01*
X147659199Y-112701989D01*
X147659201Y-112701989D01*
X147667387Y-112698936D01*
X147692454Y-112689586D01*
X147796204Y-112650889D01*
X147866399Y-112598342D01*
X147913261Y-112563261D01*
X148000887Y-112446207D01*
X148000887Y-112446206D01*
X148000889Y-112446204D01*
X148051989Y-112309201D01*
X148058500Y-112248638D01*
X148058500Y-110451362D01*
X148053970Y-110409225D01*
X148051990Y-110390803D01*
X148051988Y-110390795D01*
X148000889Y-110253797D01*
X148000887Y-110253792D01*
X147913261Y-110136738D01*
X147796207Y-110049112D01*
X147796202Y-110049110D01*
X147659204Y-109998011D01*
X147659196Y-109998009D01*
X147598649Y-109991500D01*
X147598638Y-109991500D01*
X146395660Y-109991500D01*
X146327539Y-109971498D01*
X146306565Y-109954595D01*
X146142565Y-109790595D01*
X146108539Y-109728283D01*
X146113604Y-109657468D01*
X146156151Y-109600632D01*
X146222671Y-109575821D01*
X146231660Y-109575500D01*
X147916537Y-109575500D01*
X147984658Y-109595502D01*
X148005632Y-109612405D01*
X149664617Y-111271390D01*
X149676516Y-111286897D01*
X149696839Y-111303950D01*
X149700883Y-111307656D01*
X149703954Y-111310727D01*
X149706028Y-111312801D01*
X149711977Y-111316966D01*
X149716339Y-111320314D01*
X149720975Y-111324203D01*
X149722520Y-111325500D01*
X149722522Y-111325500D01*
X149732462Y-111329118D01*
X149742996Y-111330040D01*
X149742997Y-111330039D01*
X149742998Y-111330040D01*
X149743917Y-111329793D01*
X149776529Y-111325500D01*
X164722520Y-111325500D01*
X168916537Y-111325500D01*
X168984658Y-111345502D01*
X169005632Y-111362405D01*
X170387595Y-112744368D01*
X170421621Y-112806680D01*
X170424500Y-112833463D01*
X170424500Y-131916535D01*
X170404498Y-131984656D01*
X170387595Y-132005630D01*
X168978604Y-133414620D01*
X168963101Y-133426517D01*
X168946058Y-133446826D01*
X168942352Y-133450871D01*
X168937201Y-133456022D01*
X168933030Y-133461980D01*
X168929686Y-133466339D01*
X168924499Y-133472520D01*
X168920882Y-133482458D01*
X168919960Y-133492997D01*
X168920206Y-133493915D01*
X168924500Y-133526530D01*
X168924500Y-140916536D01*
X168904498Y-140984657D01*
X168887595Y-141005631D01*
X158105631Y-151787595D01*
X158043319Y-151821621D01*
X158016536Y-151824500D01*
X134483464Y-151824500D01*
X134415343Y-151804498D01*
X134394368Y-151787595D01*
X133612404Y-151005630D01*
X133578379Y-150943318D01*
X133575500Y-150916535D01*
X133575500Y-148545248D01*
X133578051Y-148525872D01*
X133575740Y-148499445D01*
X133575500Y-148493953D01*
X133575500Y-148486690D01*
X133574239Y-148479541D01*
X133573521Y-148474085D01*
X133572818Y-148466045D01*
X133572817Y-148466044D01*
X133568349Y-148456461D01*
X133561546Y-148448353D01*
X133560724Y-148447879D01*
X133534628Y-148427855D01*
X132585382Y-147478608D01*
X132573488Y-147463107D01*
X132569581Y-147459828D01*
X132553161Y-147446050D01*
X132549121Y-147442347D01*
X132543974Y-147437200D01*
X132543972Y-147437199D01*
X132543970Y-147437197D01*
X132538012Y-147433025D01*
X132533649Y-147429677D01*
X132527479Y-147424499D01*
X132517539Y-147420881D01*
X132507003Y-147419959D01*
X132506341Y-147420137D01*
X132506082Y-147420206D01*
X132473471Y-147424500D01*
X128083463Y-147424500D01*
X128015342Y-147404498D01*
X127994372Y-147387599D01*
X127888464Y-147281691D01*
X136137685Y-147281691D01*
X136152031Y-147387595D01*
X136168094Y-147506178D01*
X136238099Y-147721626D01*
X136345440Y-147921100D01*
X136345444Y-147921107D01*
X136486687Y-148098219D01*
X136657280Y-148247262D01*
X136657282Y-148247263D01*
X136851750Y-148363453D01*
X137063839Y-148443051D01*
X137063841Y-148443051D01*
X137063843Y-148443052D01*
X137286730Y-148483500D01*
X137286733Y-148483500D01*
X138556516Y-148483500D01*
X138556522Y-148483500D01*
X138715126Y-148469225D01*
X138725623Y-148468281D01*
X138725623Y-148468280D01*
X138902062Y-148419586D01*
X138943990Y-148408015D01*
X138943990Y-148408014D01*
X138943993Y-148408014D01*
X139148093Y-148309725D01*
X139331363Y-148176571D01*
X139487912Y-148012834D01*
X139612709Y-147823774D01*
X139701743Y-147615470D01*
X139752151Y-147394615D01*
X139757223Y-147281691D01*
X141437685Y-147281691D01*
X141452031Y-147387595D01*
X141468094Y-147506178D01*
X141538099Y-147721626D01*
X141645440Y-147921100D01*
X141645444Y-147921107D01*
X141786687Y-148098219D01*
X141957280Y-148247262D01*
X141957282Y-148247263D01*
X142151750Y-148363453D01*
X142363839Y-148443051D01*
X142363841Y-148443051D01*
X142363843Y-148443052D01*
X142586730Y-148483500D01*
X142586733Y-148483500D01*
X143856516Y-148483500D01*
X143856522Y-148483500D01*
X144015126Y-148469225D01*
X144025623Y-148468281D01*
X144025623Y-148468280D01*
X144202062Y-148419586D01*
X144243990Y-148408015D01*
X144243990Y-148408014D01*
X144243993Y-148408014D01*
X144448093Y-148309725D01*
X144631363Y-148176571D01*
X144787912Y-148012834D01*
X144912709Y-147823774D01*
X145001743Y-147615470D01*
X145052151Y-147394615D01*
X145057223Y-147281691D01*
X146737685Y-147281691D01*
X146752031Y-147387595D01*
X146768094Y-147506178D01*
X146838099Y-147721626D01*
X146945440Y-147921100D01*
X146945444Y-147921107D01*
X147086687Y-148098219D01*
X147257280Y-148247262D01*
X147257282Y-148247263D01*
X147451750Y-148363453D01*
X147663839Y-148443051D01*
X147663841Y-148443051D01*
X147663843Y-148443052D01*
X147886730Y-148483500D01*
X147886733Y-148483500D01*
X149156516Y-148483500D01*
X149156522Y-148483500D01*
X149315126Y-148469225D01*
X149325623Y-148468281D01*
X149325623Y-148468280D01*
X149502062Y-148419586D01*
X149543990Y-148408015D01*
X149543990Y-148408014D01*
X149543993Y-148408014D01*
X149748093Y-148309725D01*
X149931363Y-148176571D01*
X150087912Y-148012834D01*
X150212709Y-147823774D01*
X150301743Y-147615470D01*
X150352151Y-147394615D01*
X150362315Y-147168309D01*
X150331906Y-146943825D01*
X150261903Y-146728379D01*
X150206934Y-146626229D01*
X150154559Y-146528899D01*
X150154555Y-146528892D01*
X150013312Y-146351780D01*
X149842719Y-146202737D01*
X149648256Y-146086550D01*
X149648252Y-146086548D01*
X149648251Y-146086547D01*
X149648250Y-146086547D01*
X149436161Y-146006949D01*
X149436156Y-146006947D01*
X149213270Y-145966500D01*
X149213267Y-145966500D01*
X147943478Y-145966500D01*
X147911992Y-145969333D01*
X147774376Y-145981718D01*
X147774376Y-145981719D01*
X147556009Y-146041984D01*
X147351913Y-146140271D01*
X147351906Y-146140275D01*
X147168636Y-146273429D01*
X147168635Y-146273430D01*
X147012087Y-146437166D01*
X146887293Y-146626221D01*
X146887289Y-146626229D01*
X146798257Y-146834529D01*
X146798256Y-146834531D01*
X146747849Y-147055382D01*
X146747849Y-147055385D01*
X146737685Y-147281691D01*
X145057223Y-147281691D01*
X145062315Y-147168309D01*
X145031906Y-146943825D01*
X144961903Y-146728379D01*
X144906934Y-146626229D01*
X144854559Y-146528899D01*
X144854555Y-146528892D01*
X144713312Y-146351780D01*
X144542719Y-146202737D01*
X144348256Y-146086550D01*
X144348252Y-146086548D01*
X144348251Y-146086547D01*
X144348250Y-146086547D01*
X144136161Y-146006949D01*
X144136156Y-146006947D01*
X143913270Y-145966500D01*
X143913267Y-145966500D01*
X142643478Y-145966500D01*
X142611992Y-145969333D01*
X142474376Y-145981718D01*
X142474376Y-145981719D01*
X142256009Y-146041984D01*
X142051913Y-146140271D01*
X142051906Y-146140275D01*
X141868636Y-146273429D01*
X141868635Y-146273430D01*
X141712087Y-146437166D01*
X141587293Y-146626221D01*
X141587289Y-146626229D01*
X141498257Y-146834529D01*
X141498256Y-146834531D01*
X141447849Y-147055382D01*
X141447849Y-147055385D01*
X141437685Y-147281691D01*
X139757223Y-147281691D01*
X139762315Y-147168309D01*
X139731906Y-146943825D01*
X139661903Y-146728379D01*
X139606934Y-146626229D01*
X139554559Y-146528899D01*
X139554555Y-146528892D01*
X139413312Y-146351780D01*
X139242719Y-146202737D01*
X139048256Y-146086550D01*
X139048252Y-146086548D01*
X139048251Y-146086547D01*
X139048250Y-146086547D01*
X138836161Y-146006949D01*
X138836156Y-146006947D01*
X138613270Y-145966500D01*
X138613267Y-145966500D01*
X137343478Y-145966500D01*
X137311992Y-145969333D01*
X137174376Y-145981718D01*
X137174376Y-145981719D01*
X136956009Y-146041984D01*
X136751913Y-146140271D01*
X136751906Y-146140275D01*
X136568636Y-146273429D01*
X136568635Y-146273430D01*
X136412087Y-146437166D01*
X136287293Y-146626221D01*
X136287289Y-146626229D01*
X136198257Y-146834529D01*
X136198256Y-146834531D01*
X136147849Y-147055382D01*
X136147849Y-147055385D01*
X136137685Y-147281691D01*
X127888464Y-147281691D01*
X127043974Y-146437200D01*
X127043973Y-146437199D01*
X127036791Y-146430017D01*
X127036790Y-146430017D01*
X127036784Y-146430011D01*
X123206773Y-142600000D01*
X126247347Y-142600000D01*
X126265970Y-142836631D01*
X126321381Y-143067433D01*
X126395390Y-143246107D01*
X126412216Y-143286730D01*
X126528550Y-143476570D01*
X126536239Y-143489116D01*
X126536240Y-143489118D01*
X126690392Y-143669607D01*
X126870881Y-143823759D01*
X126870885Y-143823762D01*
X127073270Y-143947784D01*
X127292565Y-144038618D01*
X127523369Y-144094030D01*
X127760000Y-144112653D01*
X127996631Y-144094030D01*
X128227435Y-144038618D01*
X128446730Y-143947784D01*
X128649115Y-143823762D01*
X128829607Y-143669607D01*
X128983762Y-143489115D01*
X129107784Y-143286730D01*
X129198618Y-143067435D01*
X129254030Y-142836631D01*
X129258852Y-142775350D01*
X129284137Y-142709012D01*
X129341275Y-142666872D01*
X129412125Y-142662313D01*
X129474193Y-142696782D01*
X129507773Y-142759335D01*
X129510076Y-142775353D01*
X129516466Y-142856552D01*
X129571859Y-143087280D01*
X129662662Y-143306498D01*
X129662670Y-143306512D01*
X129777267Y-143493520D01*
X129777268Y-143493520D01*
X130525332Y-142745456D01*
X130550157Y-142830003D01*
X130627949Y-142951049D01*
X130736692Y-143045276D01*
X130867577Y-143105049D01*
X130882076Y-143107133D01*
X130136478Y-143852730D01*
X130136478Y-143852731D01*
X130323499Y-143967336D01*
X130542719Y-144058140D01*
X130773447Y-144113533D01*
X131010000Y-144132150D01*
X131246552Y-144113533D01*
X131477280Y-144058140D01*
X131696500Y-143967336D01*
X131883520Y-143852730D01*
X131883520Y-143852729D01*
X131137924Y-143107133D01*
X131152423Y-143105049D01*
X131283308Y-143045276D01*
X131392051Y-142951049D01*
X131469843Y-142830003D01*
X131494667Y-142745458D01*
X132242729Y-143493520D01*
X132242730Y-143493520D01*
X132357336Y-143306500D01*
X132448140Y-143087280D01*
X132503533Y-142856552D01*
X132509636Y-142779000D01*
X136164918Y-142779000D01*
X136168584Y-142806066D01*
X136238558Y-143021423D01*
X136345859Y-143220826D01*
X136487050Y-143397872D01*
X136657577Y-143546858D01*
X136851955Y-143662993D01*
X136851965Y-143662998D01*
X137063977Y-143742568D01*
X137286775Y-143783000D01*
X137696000Y-143783000D01*
X137696000Y-143025000D01*
X138204000Y-143025000D01*
X138204000Y-143783000D01*
X138556494Y-143783000D01*
X138556496Y-143782999D01*
X138725534Y-143767787D01*
X138725534Y-143767786D01*
X138943813Y-143707545D01*
X139147830Y-143609296D01*
X139147838Y-143609291D01*
X139331033Y-143476192D01*
X139331034Y-143476191D01*
X139487518Y-143312522D01*
X139612265Y-143123539D01*
X139612266Y-143123536D01*
X139701265Y-142915310D01*
X139732377Y-142779000D01*
X138931116Y-142779000D01*
X138959493Y-142734844D01*
X139000000Y-142596889D01*
X139000000Y-142453111D01*
X138959493Y-142315156D01*
X138931116Y-142271000D01*
X139735082Y-142271000D01*
X139731415Y-142243933D01*
X139661441Y-142028576D01*
X139554140Y-141829173D01*
X139412949Y-141652127D01*
X139242422Y-141503141D01*
X139048044Y-141387006D01*
X139048034Y-141387001D01*
X138836022Y-141307431D01*
X138613225Y-141267000D01*
X138204000Y-141267000D01*
X138204000Y-142025000D01*
X137696000Y-142025000D01*
X137696000Y-141267000D01*
X137343503Y-141267000D01*
X137174465Y-141282212D01*
X137174465Y-141282213D01*
X136956186Y-141342454D01*
X136752169Y-141440703D01*
X136752161Y-141440708D01*
X136568966Y-141573807D01*
X136568965Y-141573808D01*
X136412481Y-141737477D01*
X136287734Y-141926460D01*
X136287733Y-141926463D01*
X136198734Y-142134689D01*
X136167622Y-142270999D01*
X136167623Y-142271000D01*
X136968884Y-142271000D01*
X136940507Y-142315156D01*
X136900000Y-142453111D01*
X136900000Y-142596889D01*
X136940507Y-142734844D01*
X136968884Y-142779000D01*
X136164918Y-142779000D01*
X132509636Y-142779000D01*
X132522150Y-142619999D01*
X132503533Y-142383447D01*
X132448140Y-142152719D01*
X132357336Y-141933499D01*
X132242731Y-141746478D01*
X132242730Y-141746478D01*
X131494667Y-142494541D01*
X131469843Y-142409997D01*
X131392051Y-142288951D01*
X131283308Y-142194724D01*
X131152423Y-142134951D01*
X131137923Y-142132866D01*
X131883520Y-141387268D01*
X131883520Y-141387267D01*
X131696512Y-141272670D01*
X131696498Y-141272662D01*
X131477280Y-141181859D01*
X131246552Y-141126466D01*
X131010000Y-141107849D01*
X130773447Y-141126466D01*
X130542719Y-141181859D01*
X130323501Y-141272662D01*
X130323487Y-141272670D01*
X130136478Y-141387267D01*
X130136478Y-141387269D01*
X130882075Y-142132866D01*
X130867577Y-142134951D01*
X130736692Y-142194724D01*
X130627949Y-142288951D01*
X130550157Y-142409997D01*
X130525332Y-142494541D01*
X129777269Y-141746478D01*
X129777267Y-141746478D01*
X129662670Y-141933487D01*
X129662662Y-141933501D01*
X129571859Y-142152719D01*
X129516466Y-142383447D01*
X129511650Y-142444646D01*
X129486364Y-142510987D01*
X129429226Y-142553127D01*
X129358376Y-142557686D01*
X129296308Y-142523217D01*
X129262729Y-142460663D01*
X129260427Y-142444654D01*
X129254030Y-142363369D01*
X129198618Y-142132565D01*
X129107784Y-141913270D01*
X128983762Y-141710885D01*
X128933578Y-141652127D01*
X128829607Y-141530392D01*
X128649118Y-141376240D01*
X128649116Y-141376239D01*
X128649115Y-141376238D01*
X128446730Y-141252216D01*
X128276872Y-141181859D01*
X128227433Y-141161381D01*
X128010101Y-141109204D01*
X127996631Y-141105970D01*
X127996632Y-141105970D01*
X127760000Y-141087347D01*
X127523368Y-141105970D01*
X127292566Y-141161381D01*
X127073271Y-141252215D01*
X126870883Y-141376239D01*
X126870881Y-141376240D01*
X126690392Y-141530392D01*
X126536240Y-141710881D01*
X126536239Y-141710883D01*
X126412215Y-141913271D01*
X126321381Y-142132566D01*
X126265970Y-142363368D01*
X126247347Y-142600000D01*
X123206773Y-142600000D01*
X115112405Y-134505631D01*
X115078379Y-134443319D01*
X115075500Y-134416536D01*
X115075500Y-130730004D01*
X120297308Y-130730004D01*
X120316052Y-131004048D01*
X120316053Y-131004054D01*
X120371942Y-131273011D01*
X120371944Y-131273019D01*
X120463938Y-131531865D01*
X120590314Y-131775756D01*
X120590316Y-131775759D01*
X120720541Y-131960248D01*
X121667912Y-131012876D01*
X121729680Y-131130566D01*
X121842405Y-131257806D01*
X121982305Y-131354371D01*
X122027642Y-131371565D01*
X121080715Y-132318492D01*
X121080715Y-132318494D01*
X121149313Y-132374304D01*
X121149318Y-132374307D01*
X121384030Y-132517038D01*
X121635989Y-132626480D01*
X121900509Y-132700595D01*
X122172635Y-132737999D01*
X122172649Y-132738000D01*
X122447351Y-132738000D01*
X122447364Y-132737999D01*
X122719490Y-132700595D01*
X122984010Y-132626480D01*
X123235969Y-132517038D01*
X123470679Y-132374309D01*
X123539283Y-132318493D01*
X123539283Y-132318492D01*
X122592356Y-131371565D01*
X122637695Y-131354371D01*
X122777595Y-131257806D01*
X122890320Y-131130566D01*
X122952087Y-131012877D01*
X123899457Y-131960247D01*
X124029682Y-131775762D01*
X124029685Y-131775756D01*
X124156061Y-131531865D01*
X124248055Y-131273019D01*
X124248057Y-131273011D01*
X124303946Y-131004054D01*
X124303947Y-131004048D01*
X124322692Y-130730004D01*
X124322692Y-130729995D01*
X124303947Y-130455951D01*
X124303946Y-130455945D01*
X124248057Y-130186988D01*
X124248055Y-130186980D01*
X124156061Y-129928134D01*
X124029685Y-129684243D01*
X124029681Y-129684237D01*
X123899457Y-129499750D01*
X122952086Y-130447121D01*
X122890320Y-130329434D01*
X122777595Y-130202194D01*
X122637695Y-130105629D01*
X122592355Y-130088433D01*
X123539283Y-129141505D01*
X123539283Y-129141504D01*
X123470680Y-129085691D01*
X123235969Y-128942961D01*
X122984010Y-128833519D01*
X122719490Y-128759404D01*
X122447364Y-128722000D01*
X122172635Y-128722000D01*
X121900509Y-128759404D01*
X121635989Y-128833519D01*
X121384030Y-128942961D01*
X121149325Y-129085687D01*
X121080715Y-129141505D01*
X121080714Y-129141506D01*
X122027642Y-130088434D01*
X121982305Y-130105629D01*
X121842405Y-130202194D01*
X121729680Y-130329434D01*
X121667913Y-130447122D01*
X120720541Y-129499750D01*
X120590317Y-129684236D01*
X120463938Y-129928134D01*
X120371944Y-130186980D01*
X120371942Y-130186988D01*
X120316053Y-130455945D01*
X120316052Y-130455951D01*
X120297308Y-130729995D01*
X120297308Y-130730004D01*
X115075500Y-130730004D01*
X115075500Y-120986688D01*
X115075500Y-117019844D01*
X115075499Y-114500004D01*
X120296807Y-114500004D01*
X120315556Y-114774116D01*
X120315557Y-114774122D01*
X120315558Y-114774130D01*
X120333238Y-114859210D01*
X120371460Y-115043146D01*
X120371462Y-115043154D01*
X120463408Y-115301865D01*
X120463477Y-115302058D01*
X120589752Y-115545759D01*
X120589892Y-115546028D01*
X120612712Y-115578356D01*
X120748343Y-115770502D01*
X120935889Y-115971314D01*
X121149031Y-116144718D01*
X121383800Y-116287484D01*
X121635823Y-116396953D01*
X121900404Y-116471085D01*
X121995504Y-116484156D01*
X122172604Y-116508499D01*
X122172615Y-116508500D01*
X122447385Y-116508500D01*
X122447395Y-116508499D01*
X122576945Y-116490692D01*
X122719596Y-116471085D01*
X122984177Y-116396953D01*
X123236200Y-116287484D01*
X123470969Y-116144718D01*
X123684111Y-115971314D01*
X123871657Y-115770502D01*
X124030111Y-115546023D01*
X124156523Y-115302058D01*
X124248538Y-115043153D01*
X124304442Y-114774130D01*
X124323193Y-114500004D01*
X126646807Y-114500004D01*
X126665556Y-114774116D01*
X126665557Y-114774122D01*
X126665558Y-114774130D01*
X126683238Y-114859210D01*
X126721460Y-115043146D01*
X126721462Y-115043154D01*
X126813408Y-115301865D01*
X126813477Y-115302058D01*
X126939752Y-115545759D01*
X126939892Y-115546028D01*
X126962712Y-115578356D01*
X127098343Y-115770502D01*
X127285889Y-115971314D01*
X127499031Y-116144718D01*
X127733800Y-116287484D01*
X127985823Y-116396953D01*
X128250404Y-116471085D01*
X128345504Y-116484156D01*
X128522604Y-116508499D01*
X128522615Y-116508500D01*
X128797385Y-116508500D01*
X128797395Y-116508499D01*
X128926945Y-116490692D01*
X129069596Y-116471085D01*
X129334177Y-116396953D01*
X129586200Y-116287484D01*
X129820969Y-116144718D01*
X130034111Y-115971314D01*
X130221657Y-115770502D01*
X130380111Y-115546023D01*
X130506523Y-115302058D01*
X130598538Y-115043153D01*
X130654442Y-114774130D01*
X130673193Y-114500004D01*
X132996807Y-114500004D01*
X133015556Y-114774116D01*
X133015557Y-114774122D01*
X133015558Y-114774130D01*
X133033238Y-114859210D01*
X133071460Y-115043146D01*
X133071462Y-115043154D01*
X133163408Y-115301865D01*
X133163477Y-115302058D01*
X133289752Y-115545759D01*
X133289892Y-115546028D01*
X133312712Y-115578356D01*
X133448343Y-115770502D01*
X133635889Y-115971314D01*
X133849031Y-116144718D01*
X134083800Y-116287484D01*
X134335823Y-116396953D01*
X134600404Y-116471085D01*
X134695504Y-116484156D01*
X134872604Y-116508499D01*
X134872615Y-116508500D01*
X135147385Y-116508500D01*
X135147395Y-116508499D01*
X135276945Y-116490692D01*
X135419596Y-116471085D01*
X135684177Y-116396953D01*
X135936200Y-116287484D01*
X136170969Y-116144718D01*
X136384111Y-115971314D01*
X136571657Y-115770502D01*
X136730111Y-115546023D01*
X136856523Y-115302058D01*
X136948538Y-115043153D01*
X137004442Y-114774130D01*
X137023193Y-114500000D01*
X137006089Y-114249954D01*
X137004443Y-114225883D01*
X137004442Y-114225877D01*
X137004442Y-114225870D01*
X136948538Y-113956847D01*
X136856523Y-113697942D01*
X136730111Y-113453977D01*
X136571657Y-113229498D01*
X136384111Y-113028686D01*
X136170969Y-112855282D01*
X135936200Y-112712516D01*
X135936201Y-112712516D01*
X135936197Y-112712514D01*
X135684180Y-112603048D01*
X135684178Y-112603047D01*
X135684177Y-112603047D01*
X135425892Y-112530679D01*
X135419593Y-112528914D01*
X135147395Y-112491500D01*
X135147385Y-112491500D01*
X134872615Y-112491500D01*
X134872604Y-112491500D01*
X134600406Y-112528914D01*
X134335819Y-112603048D01*
X134083802Y-112712514D01*
X133849028Y-112855284D01*
X133635886Y-113028688D01*
X133448343Y-113229498D01*
X133289892Y-113453971D01*
X133163477Y-113697941D01*
X133071462Y-113956845D01*
X133071460Y-113956853D01*
X133015557Y-114225877D01*
X133015556Y-114225883D01*
X132996807Y-114499995D01*
X132996807Y-114500004D01*
X130673193Y-114500004D01*
X130673193Y-114500000D01*
X130656089Y-114249954D01*
X130654443Y-114225883D01*
X130654442Y-114225877D01*
X130654442Y-114225870D01*
X130598538Y-113956847D01*
X130506523Y-113697942D01*
X130380111Y-113453977D01*
X130221657Y-113229498D01*
X130034111Y-113028686D01*
X129820969Y-112855282D01*
X129586200Y-112712516D01*
X129586201Y-112712516D01*
X129586197Y-112712514D01*
X129334180Y-112603048D01*
X129334178Y-112603047D01*
X129334177Y-112603047D01*
X129075892Y-112530679D01*
X129069593Y-112528914D01*
X128797395Y-112491500D01*
X128797385Y-112491500D01*
X128522615Y-112491500D01*
X128522604Y-112491500D01*
X128250406Y-112528914D01*
X127985819Y-112603048D01*
X127733802Y-112712514D01*
X127499028Y-112855284D01*
X127285886Y-113028688D01*
X127098343Y-113229498D01*
X126939892Y-113453971D01*
X126813477Y-113697941D01*
X126721462Y-113956845D01*
X126721460Y-113956853D01*
X126665557Y-114225877D01*
X126665556Y-114225883D01*
X126646807Y-114499995D01*
X126646807Y-114500004D01*
X124323193Y-114500004D01*
X124323193Y-114500000D01*
X124306089Y-114249954D01*
X124304443Y-114225883D01*
X124304442Y-114225877D01*
X124304442Y-114225870D01*
X124248538Y-113956847D01*
X124156523Y-113697942D01*
X124030111Y-113453977D01*
X123871657Y-113229498D01*
X123684111Y-113028686D01*
X123470969Y-112855282D01*
X123236200Y-112712516D01*
X123236201Y-112712516D01*
X123236197Y-112712514D01*
X122984180Y-112603048D01*
X122984178Y-112603047D01*
X122984177Y-112603047D01*
X122725892Y-112530679D01*
X122719593Y-112528914D01*
X122447395Y-112491500D01*
X122447385Y-112491500D01*
X122172615Y-112491500D01*
X122172604Y-112491500D01*
X121900406Y-112528914D01*
X121635819Y-112603048D01*
X121383802Y-112712514D01*
X121149028Y-112855284D01*
X120935886Y-113028688D01*
X120748343Y-113229498D01*
X120589892Y-113453971D01*
X120463477Y-113697941D01*
X120371462Y-113956845D01*
X120371460Y-113956853D01*
X120315557Y-114225877D01*
X120315556Y-114225883D01*
X120296807Y-114499995D01*
X120296807Y-114500004D01*
X115075499Y-114500004D01*
X115075499Y-112833459D01*
X115095501Y-112765342D01*
X115112399Y-112744373D01*
X116494368Y-111362405D01*
X116556680Y-111328379D01*
X116583463Y-111325500D01*
X116972520Y-111325500D01*
X135904753Y-111325500D01*
X135924127Y-111328051D01*
X135929204Y-111327606D01*
X135929205Y-111327607D01*
X135931002Y-111327449D01*
X135950555Y-111325740D01*
X135956047Y-111325500D01*
X135963312Y-111325500D01*
X135970455Y-111324240D01*
X135975910Y-111323521D01*
X135983955Y-111322818D01*
X135983957Y-111322815D01*
X135993543Y-111318346D01*
X136001642Y-111311550D01*
X136001642Y-111311548D01*
X136001645Y-111311548D01*
X136002121Y-111310721D01*
X136022140Y-111284631D01*
X137694370Y-109612402D01*
X137756680Y-109578379D01*
X137783463Y-109575500D01*
X139545188Y-109575500D01*
X139613309Y-109595502D01*
G37*
%TD.AperFunction*%
%TA.AperFunction,Conductor*%
G36*
X136616621Y-52095502D02*
G01*
X136663114Y-52149158D01*
X136674500Y-52201500D01*
X136674500Y-62454469D01*
X136672587Y-62476343D01*
X136670876Y-62486048D01*
X136672586Y-62495746D01*
X136673750Y-62509059D01*
X136675249Y-62517559D01*
X136678707Y-62530468D01*
X136680418Y-62540170D01*
X136683935Y-62546262D01*
X136688452Y-62551645D01*
X136696982Y-62556570D01*
X136714972Y-62569167D01*
X136722518Y-62575499D01*
X136722519Y-62575499D01*
X136722520Y-62575500D01*
X136722521Y-62575500D01*
X136729123Y-62577903D01*
X136736047Y-62579124D01*
X136736047Y-62579123D01*
X136736048Y-62579124D01*
X136745746Y-62577413D01*
X136767625Y-62575500D01*
X148704470Y-62575500D01*
X148726350Y-62577414D01*
X148736047Y-62579124D01*
X148736047Y-62579123D01*
X148736048Y-62579124D01*
X148745746Y-62577413D01*
X148759067Y-62576248D01*
X148763310Y-62575500D01*
X148763312Y-62575500D01*
X148763313Y-62575499D01*
X148767576Y-62574748D01*
X148780473Y-62571290D01*
X148790172Y-62569581D01*
X148790173Y-62569579D01*
X148796260Y-62566064D01*
X148801641Y-62561549D01*
X148801645Y-62561548D01*
X148806569Y-62553018D01*
X148819165Y-62535028D01*
X148825500Y-62527480D01*
X148825500Y-62527479D01*
X148827902Y-62520879D01*
X148829122Y-62513955D01*
X148829124Y-62513952D01*
X148827414Y-62504253D01*
X148825500Y-62482374D01*
X148825500Y-52201500D01*
X148845502Y-52133379D01*
X148899158Y-52086886D01*
X148951500Y-52075500D01*
X165416537Y-52075500D01*
X165484658Y-52095502D01*
X165505632Y-52112405D01*
X170387595Y-56994368D01*
X170421621Y-57056680D01*
X170424500Y-57083463D01*
X170424500Y-108166535D01*
X170404498Y-108234656D01*
X170387595Y-108255630D01*
X169005631Y-109637595D01*
X168943319Y-109671620D01*
X168916536Y-109674500D01*
X150583463Y-109674500D01*
X150515342Y-109654498D01*
X150494368Y-109637595D01*
X148585384Y-107728610D01*
X148573489Y-107713107D01*
X148553166Y-107696054D01*
X148549121Y-107692347D01*
X148543974Y-107687200D01*
X148543972Y-107687199D01*
X148543970Y-107687197D01*
X148538012Y-107683025D01*
X148533649Y-107679677D01*
X148527479Y-107674499D01*
X148517539Y-107670881D01*
X148507003Y-107669959D01*
X148506341Y-107670137D01*
X148506082Y-107670206D01*
X148473471Y-107674500D01*
X145941660Y-107674500D01*
X145873539Y-107654498D01*
X145827046Y-107600842D01*
X145816942Y-107530568D01*
X145846436Y-107465988D01*
X145852565Y-107459405D01*
X146116565Y-107195405D01*
X146178877Y-107161379D01*
X146205660Y-107158500D01*
X147598632Y-107158500D01*
X147598638Y-107158500D01*
X147598645Y-107158499D01*
X147598649Y-107158499D01*
X147659196Y-107151990D01*
X147659199Y-107151989D01*
X147659201Y-107151989D01*
X147796204Y-107100889D01*
X147866399Y-107048342D01*
X147913261Y-107013261D01*
X148000887Y-106896207D01*
X148000887Y-106896206D01*
X148000889Y-106896204D01*
X148051989Y-106759201D01*
X148058500Y-106698638D01*
X148058500Y-104901362D01*
X148056141Y-104879419D01*
X148051990Y-104840803D01*
X148051988Y-104840795D01*
X148000889Y-104703797D01*
X148000887Y-104703792D01*
X147913261Y-104586738D01*
X147796207Y-104499112D01*
X147796202Y-104499110D01*
X147659204Y-104448011D01*
X147659196Y-104448009D01*
X147598649Y-104441500D01*
X147598638Y-104441500D01*
X145801362Y-104441500D01*
X145801350Y-104441500D01*
X145740803Y-104448009D01*
X145740795Y-104448011D01*
X145603797Y-104499110D01*
X145603792Y-104499112D01*
X145486738Y-104586738D01*
X145399112Y-104703792D01*
X145399111Y-104703795D01*
X145354804Y-104822584D01*
X145312257Y-104879419D01*
X145245736Y-104904229D01*
X145176362Y-104889137D01*
X145144047Y-104863887D01*
X145082902Y-104797465D01*
X144905301Y-104659232D01*
X144905300Y-104659231D01*
X144707371Y-104552117D01*
X144707369Y-104552116D01*
X144494512Y-104479043D01*
X144494501Y-104479040D01*
X144414000Y-104465606D01*
X144414000Y-105366325D01*
X144302315Y-105315320D01*
X144195763Y-105300000D01*
X144124237Y-105300000D01*
X144017685Y-105315320D01*
X143906000Y-105366325D01*
X143906000Y-104465607D01*
X143905999Y-104465606D01*
X143825498Y-104479040D01*
X143825487Y-104479043D01*
X143612630Y-104552116D01*
X143612628Y-104552117D01*
X143414699Y-104659231D01*
X143414698Y-104659232D01*
X143237097Y-104797465D01*
X143084670Y-104963045D01*
X142995780Y-105099101D01*
X142941776Y-105145189D01*
X142871428Y-105154764D01*
X142807071Y-105124786D01*
X142784816Y-105099101D01*
X142742555Y-105034415D01*
X142695724Y-104962734D01*
X142695720Y-104962729D01*
X142566705Y-104822584D01*
X142543240Y-104797094D01*
X142543239Y-104797093D01*
X142543237Y-104797091D01*
X142423372Y-104703796D01*
X142365576Y-104658811D01*
X142167574Y-104551658D01*
X142167572Y-104551657D01*
X142167571Y-104551656D01*
X141954639Y-104478557D01*
X141954630Y-104478555D01*
X141877029Y-104465606D01*
X141732569Y-104441500D01*
X141507431Y-104441500D01*
X141362971Y-104465606D01*
X141285369Y-104478555D01*
X141285360Y-104478557D01*
X141072428Y-104551656D01*
X141072426Y-104551658D01*
X140874426Y-104658810D01*
X140874424Y-104658811D01*
X140696762Y-104797091D01*
X140544279Y-104962729D01*
X140455483Y-105098643D01*
X140401479Y-105144731D01*
X140331131Y-105154306D01*
X140266774Y-105124329D01*
X140244517Y-105098643D01*
X140155720Y-104962729D01*
X140026705Y-104822584D01*
X140003240Y-104797094D01*
X140003239Y-104797093D01*
X140003237Y-104797091D01*
X139883372Y-104703796D01*
X139825576Y-104658811D01*
X139627574Y-104551658D01*
X139627572Y-104551657D01*
X139627571Y-104551656D01*
X139414639Y-104478557D01*
X139414630Y-104478555D01*
X139337029Y-104465606D01*
X139192569Y-104441500D01*
X138967431Y-104441500D01*
X138822971Y-104465606D01*
X138745369Y-104478555D01*
X138745360Y-104478557D01*
X138532428Y-104551656D01*
X138532426Y-104551658D01*
X138334426Y-104658810D01*
X138334424Y-104658811D01*
X138156762Y-104797091D01*
X138004279Y-104962729D01*
X138004275Y-104962734D01*
X137957445Y-105034415D01*
X137903442Y-105080504D01*
X137851962Y-105091500D01*
X127955660Y-105091500D01*
X127887539Y-105071498D01*
X127866565Y-105054595D01*
X123955405Y-101143434D01*
X123921379Y-101081122D01*
X123918500Y-101054339D01*
X123918500Y-94072032D01*
X124201499Y-94072032D01*
X124216256Y-94287764D01*
X124216257Y-94287770D01*
X124216258Y-94287778D01*
X124225164Y-94330635D01*
X124274943Y-94570189D01*
X124274945Y-94570196D01*
X124371541Y-94841992D01*
X124504247Y-95098103D01*
X124670591Y-95333758D01*
X124867474Y-95544568D01*
X124867483Y-95544575D01*
X124867487Y-95544579D01*
X125091219Y-95726599D01*
X125091228Y-95726606D01*
X125142107Y-95757546D01*
X125189917Y-95810029D01*
X125201763Y-95880031D01*
X125173883Y-95945324D01*
X125144599Y-95970702D01*
X125144746Y-95970910D01*
X125142662Y-95972381D01*
X125142121Y-95972850D01*
X125141230Y-95973391D01*
X125141228Y-95973392D01*
X124917487Y-96155420D01*
X124917471Y-96155435D01*
X124720591Y-96366242D01*
X124554247Y-96601896D01*
X124554247Y-96601897D01*
X124421541Y-96858007D01*
X124324945Y-97129802D01*
X124324943Y-97129810D01*
X124266257Y-97412229D01*
X124266256Y-97412235D01*
X124251500Y-97627967D01*
X124251500Y-98972032D01*
X124266256Y-99187764D01*
X124266257Y-99187770D01*
X124266258Y-99187778D01*
X124298443Y-99342661D01*
X124324943Y-99470189D01*
X124324945Y-99470196D01*
X124421541Y-99741992D01*
X124554247Y-99998103D01*
X124720591Y-100233758D01*
X124917474Y-100444568D01*
X124917483Y-100444575D01*
X124917487Y-100444579D01*
X125141220Y-100626600D01*
X125141222Y-100626601D01*
X125141228Y-100626606D01*
X125387686Y-100776481D01*
X125652256Y-100891400D01*
X125930011Y-100969223D01*
X126215761Y-101008499D01*
X126215775Y-101008500D01*
X126504225Y-101008500D01*
X126504238Y-101008499D01*
X126716000Y-100979392D01*
X126789989Y-100969223D01*
X127067744Y-100891400D01*
X127332314Y-100776481D01*
X127578772Y-100626606D01*
X127802526Y-100444568D01*
X127999409Y-100233758D01*
X128165753Y-99998103D01*
X128298459Y-99741992D01*
X128395055Y-99470196D01*
X128453742Y-99187778D01*
X128459294Y-99106618D01*
X128483896Y-99040024D01*
X128540599Y-98997300D01*
X128611398Y-98992015D01*
X128673816Y-99025845D01*
X128708035Y-99088051D01*
X128710705Y-99106618D01*
X128716256Y-99187765D01*
X128716257Y-99187770D01*
X128716258Y-99187778D01*
X128748443Y-99342661D01*
X128774943Y-99470189D01*
X128774945Y-99470196D01*
X128871541Y-99741992D01*
X129004247Y-99998103D01*
X129170591Y-100233758D01*
X129367474Y-100444568D01*
X129367483Y-100444575D01*
X129367487Y-100444579D01*
X129591220Y-100626600D01*
X129591222Y-100626601D01*
X129591228Y-100626606D01*
X129837686Y-100776481D01*
X130102256Y-100891400D01*
X130380011Y-100969223D01*
X130665761Y-101008499D01*
X130665775Y-101008500D01*
X130954225Y-101008500D01*
X130954238Y-101008499D01*
X131166000Y-100979392D01*
X131239989Y-100969223D01*
X131517744Y-100891400D01*
X131782314Y-100776481D01*
X132028772Y-100626606D01*
X132252526Y-100444568D01*
X132449409Y-100233758D01*
X132615753Y-99998103D01*
X132748459Y-99741992D01*
X132845055Y-99470196D01*
X132903742Y-99187778D01*
X132903743Y-99187764D01*
X132909294Y-99106620D01*
X132933898Y-99040023D01*
X132990601Y-98997300D01*
X133061401Y-98992015D01*
X133123818Y-99025846D01*
X133158037Y-99088052D01*
X133160706Y-99106620D01*
X133166256Y-99187764D01*
X133166257Y-99187770D01*
X133166258Y-99187778D01*
X133198443Y-99342661D01*
X133224943Y-99470189D01*
X133224945Y-99470196D01*
X133321541Y-99741992D01*
X133454247Y-99998103D01*
X133620591Y-100233758D01*
X133817474Y-100444568D01*
X133817483Y-100444575D01*
X133817487Y-100444579D01*
X134041220Y-100626600D01*
X134041222Y-100626601D01*
X134041228Y-100626606D01*
X134287686Y-100776481D01*
X134552256Y-100891400D01*
X134830011Y-100969223D01*
X135115761Y-101008499D01*
X135115775Y-101008500D01*
X135404225Y-101008500D01*
X135404238Y-101008499D01*
X135616000Y-100979392D01*
X135689989Y-100969223D01*
X135967744Y-100891400D01*
X136232314Y-100776481D01*
X136478772Y-100626606D01*
X136702526Y-100444568D01*
X136899409Y-100233758D01*
X137065753Y-99998103D01*
X137198459Y-99741992D01*
X137295055Y-99470196D01*
X137353742Y-99187778D01*
X137353743Y-99187764D01*
X137368500Y-98972032D01*
X137368500Y-97627967D01*
X137353743Y-97412235D01*
X137353742Y-97412229D01*
X137353742Y-97412222D01*
X137295055Y-97129804D01*
X137198459Y-96858008D01*
X137065753Y-96601897D01*
X136899409Y-96366242D01*
X136702526Y-96155432D01*
X136702516Y-96155424D01*
X136702512Y-96155420D01*
X136478779Y-95973399D01*
X136478775Y-95973396D01*
X136478772Y-95973394D01*
X136427890Y-95942452D01*
X136380081Y-95889969D01*
X136368236Y-95819968D01*
X136396116Y-95754674D01*
X136425407Y-95729293D01*
X136425260Y-95729085D01*
X136427352Y-95727608D01*
X136427889Y-95727142D01*
X136428772Y-95726606D01*
X136652526Y-95544568D01*
X136849409Y-95333758D01*
X137015753Y-95098103D01*
X137148459Y-94841992D01*
X137245055Y-94570196D01*
X137303742Y-94287778D01*
X137309008Y-94210795D01*
X137318500Y-94072032D01*
X137318500Y-92727967D01*
X137303743Y-92512235D01*
X137303742Y-92512229D01*
X137303742Y-92512222D01*
X137245055Y-92229804D01*
X137148459Y-91958008D01*
X137015753Y-91701897D01*
X136849409Y-91466242D01*
X136652526Y-91255432D01*
X136652516Y-91255424D01*
X136652512Y-91255420D01*
X136428779Y-91073399D01*
X136428775Y-91073396D01*
X136428772Y-91073394D01*
X136182314Y-90923519D01*
X136182310Y-90923517D01*
X136182308Y-90923516D01*
X136073713Y-90876347D01*
X135917744Y-90808600D01*
X135690354Y-90744888D01*
X135639986Y-90730776D01*
X135639988Y-90730776D01*
X135354238Y-90691500D01*
X135354225Y-90691500D01*
X135065775Y-90691500D01*
X135065761Y-90691500D01*
X134780012Y-90730776D01*
X134607572Y-90779091D01*
X134502256Y-90808600D01*
X134502253Y-90808601D01*
X134502254Y-90808601D01*
X134237691Y-90923516D01*
X134237686Y-90923518D01*
X134237686Y-90923519D01*
X134109456Y-91001498D01*
X133991220Y-91073399D01*
X133767487Y-91255420D01*
X133767471Y-91255435D01*
X133570591Y-91466242D01*
X133404247Y-91701896D01*
X133404247Y-91701897D01*
X133271541Y-91958007D01*
X133174945Y-92229802D01*
X133174943Y-92229810D01*
X133116257Y-92512229D01*
X133116256Y-92512234D01*
X133110705Y-92593381D01*
X133086100Y-92659978D01*
X133029396Y-92702700D01*
X132958597Y-92707984D01*
X132896180Y-92674152D01*
X132861962Y-92611945D01*
X132859293Y-92593382D01*
X132853742Y-92512222D01*
X132795055Y-92229804D01*
X132698459Y-91958008D01*
X132565753Y-91701897D01*
X132399409Y-91466242D01*
X132202526Y-91255432D01*
X132120047Y-91188330D01*
X132079830Y-91129827D01*
X132077626Y-91058865D01*
X132110469Y-91001500D01*
X134366565Y-88745405D01*
X134428878Y-88711379D01*
X134455661Y-88708500D01*
X153198595Y-88708500D01*
X153266716Y-88728502D01*
X153272655Y-88732563D01*
X153353248Y-88791118D01*
X153527712Y-88868794D01*
X153714513Y-88908500D01*
X153905487Y-88908500D01*
X154092288Y-88868794D01*
X154266752Y-88791118D01*
X154421253Y-88678866D01*
X154421255Y-88678864D01*
X154549034Y-88536951D01*
X154549035Y-88536949D01*
X154549040Y-88536944D01*
X154644527Y-88371556D01*
X154703542Y-88189928D01*
X154723504Y-88000000D01*
X154703542Y-87810072D01*
X154644527Y-87628444D01*
X154549040Y-87463056D01*
X154549038Y-87463054D01*
X154549034Y-87463048D01*
X154421255Y-87321135D01*
X154266752Y-87208882D01*
X154092288Y-87131206D01*
X153905487Y-87091500D01*
X153714513Y-87091500D01*
X153527711Y-87131206D01*
X153353247Y-87208882D01*
X153272656Y-87267436D01*
X153205788Y-87291294D01*
X153198595Y-87291500D01*
X134978045Y-87291500D01*
X134909924Y-87271498D01*
X134863431Y-87217842D01*
X134853327Y-87147568D01*
X134868926Y-87102500D01*
X134876644Y-87089132D01*
X134944527Y-86971556D01*
X135003542Y-86789928D01*
X135023504Y-86600000D01*
X135003542Y-86410072D01*
X134960840Y-86278649D01*
X138941500Y-86278649D01*
X138948009Y-86339196D01*
X138948011Y-86339204D01*
X138999110Y-86476202D01*
X138999112Y-86476207D01*
X139086738Y-86593261D01*
X139203792Y-86680887D01*
X139203794Y-86680888D01*
X139203796Y-86680889D01*
X139255243Y-86700078D01*
X139340795Y-86731988D01*
X139340803Y-86731990D01*
X139401350Y-86738499D01*
X139401355Y-86738499D01*
X139401362Y-86738500D01*
X139401368Y-86738500D01*
X141298632Y-86738500D01*
X141298638Y-86738500D01*
X141298645Y-86738499D01*
X141298649Y-86738499D01*
X141359196Y-86731990D01*
X141359199Y-86731989D01*
X141359201Y-86731989D01*
X141496204Y-86680889D01*
X141529849Y-86655703D01*
X141613261Y-86593261D01*
X141700887Y-86476207D01*
X141700888Y-86476205D01*
X141700887Y-86476205D01*
X141700889Y-86476204D01*
X141714828Y-86438832D01*
X141757372Y-86381999D01*
X141823891Y-86357187D01*
X141893266Y-86372278D01*
X141910273Y-86383434D01*
X141981452Y-86438835D01*
X142076983Y-86513190D01*
X142282273Y-86624287D01*
X142503049Y-86700080D01*
X142733288Y-86738500D01*
X142733292Y-86738500D01*
X142966708Y-86738500D01*
X142966712Y-86738500D01*
X143196951Y-86700080D01*
X143417727Y-86624287D01*
X143623017Y-86513190D01*
X143807220Y-86369818D01*
X143965314Y-86198083D01*
X143994517Y-86153383D01*
X144048519Y-86107296D01*
X144118867Y-86097720D01*
X144183225Y-86127696D01*
X144205481Y-86153382D01*
X144227120Y-86186502D01*
X144234687Y-86198084D01*
X144392774Y-86369813D01*
X144392778Y-86369817D01*
X144444498Y-86410072D01*
X144576983Y-86513190D01*
X144782273Y-86624287D01*
X145003049Y-86700080D01*
X145233288Y-86738500D01*
X145233292Y-86738500D01*
X145466708Y-86738500D01*
X145466712Y-86738500D01*
X145696951Y-86700080D01*
X145917727Y-86624287D01*
X146123017Y-86513190D01*
X146307220Y-86369818D01*
X146335403Y-86339204D01*
X146465314Y-86198083D01*
X146472880Y-86186502D01*
X146592984Y-86002669D01*
X146686749Y-85788907D01*
X146744051Y-85562626D01*
X146763327Y-85330000D01*
X146744051Y-85097374D01*
X146712434Y-84972520D01*
X146686750Y-84871096D01*
X146686747Y-84871089D01*
X146659982Y-84810072D01*
X146592984Y-84657331D01*
X146494517Y-84506615D01*
X146465314Y-84461916D01*
X146408315Y-84399999D01*
X156796496Y-84399999D01*
X156816457Y-84589927D01*
X156845975Y-84680770D01*
X156875473Y-84771556D01*
X156875476Y-84771561D01*
X156970958Y-84936941D01*
X156970965Y-84936951D01*
X157098744Y-85078864D01*
X157139818Y-85108706D01*
X157253248Y-85191118D01*
X157427712Y-85268794D01*
X157614513Y-85308500D01*
X157805487Y-85308500D01*
X157992288Y-85268794D01*
X158166752Y-85191118D01*
X158247344Y-85132563D01*
X158314212Y-85108706D01*
X158321405Y-85108500D01*
X159648456Y-85108500D01*
X159716577Y-85128502D01*
X159763070Y-85182158D01*
X159768288Y-85195562D01*
X159825473Y-85371556D01*
X159825476Y-85371561D01*
X159920958Y-85536941D01*
X159920965Y-85536951D01*
X160048744Y-85678864D01*
X160048747Y-85678866D01*
X160203248Y-85791118D01*
X160377712Y-85868794D01*
X160564513Y-85908500D01*
X160755487Y-85908500D01*
X160942288Y-85868794D01*
X161116752Y-85791118D01*
X161271253Y-85678866D01*
X161399040Y-85536944D01*
X161494527Y-85371556D01*
X161553542Y-85189928D01*
X161573504Y-85000000D01*
X161553542Y-84810072D01*
X161494527Y-84628444D01*
X161399040Y-84463056D01*
X161399038Y-84463054D01*
X161399034Y-84463048D01*
X161271255Y-84321135D01*
X161139771Y-84225606D01*
X161124737Y-84212766D01*
X160827465Y-83915495D01*
X160824856Y-83912723D01*
X160783273Y-83865785D01*
X160779308Y-83863048D01*
X160731655Y-83830154D01*
X160728590Y-83827899D01*
X160710146Y-83813449D01*
X160679226Y-83789225D01*
X160679222Y-83789223D01*
X160669919Y-83785035D01*
X160650069Y-83773840D01*
X160641675Y-83768046D01*
X160618705Y-83759334D01*
X160583043Y-83745809D01*
X160579528Y-83744353D01*
X160522332Y-83718612D01*
X160522330Y-83718611D01*
X160522329Y-83718611D01*
X160512286Y-83716770D01*
X160490336Y-83710650D01*
X160480801Y-83707035D01*
X160480800Y-83707034D01*
X160480798Y-83707034D01*
X160480794Y-83707033D01*
X160428362Y-83700667D01*
X160418537Y-83699473D01*
X160414786Y-83698902D01*
X160373760Y-83691385D01*
X160353094Y-83687598D01*
X160353093Y-83687598D01*
X160290488Y-83691385D01*
X160286685Y-83691500D01*
X158321405Y-83691500D01*
X158253284Y-83671498D01*
X158247344Y-83667436D01*
X158166752Y-83608882D01*
X157992288Y-83531206D01*
X157805487Y-83491500D01*
X157614513Y-83491500D01*
X157427711Y-83531206D01*
X157253247Y-83608882D01*
X157098744Y-83721135D01*
X156970965Y-83863048D01*
X156970958Y-83863058D01*
X156875476Y-84028438D01*
X156875473Y-84028445D01*
X156816457Y-84210072D01*
X156796496Y-84399999D01*
X146408315Y-84399999D01*
X146307225Y-84290186D01*
X146307221Y-84290182D01*
X146204295Y-84210072D01*
X146123017Y-84146810D01*
X145917727Y-84035713D01*
X145917724Y-84035712D01*
X145917723Y-84035711D01*
X145696955Y-83959921D01*
X145696948Y-83959919D01*
X145598411Y-83943476D01*
X145466712Y-83921500D01*
X145233288Y-83921500D01*
X145118066Y-83940727D01*
X145003051Y-83959919D01*
X145003044Y-83959921D01*
X144782276Y-84035711D01*
X144782273Y-84035713D01*
X144576985Y-84146809D01*
X144576983Y-84146810D01*
X144392778Y-84290182D01*
X144392774Y-84290186D01*
X144234685Y-84461916D01*
X144205483Y-84506615D01*
X144151480Y-84552704D01*
X144081132Y-84562279D01*
X144016774Y-84532302D01*
X143994517Y-84506615D01*
X143965314Y-84461916D01*
X143807225Y-84290186D01*
X143807221Y-84290182D01*
X143704295Y-84210072D01*
X143623017Y-84146810D01*
X143417727Y-84035713D01*
X143417724Y-84035712D01*
X143417723Y-84035711D01*
X143196955Y-83959921D01*
X143196948Y-83959919D01*
X143098411Y-83943476D01*
X142966712Y-83921500D01*
X142733288Y-83921500D01*
X142618066Y-83940727D01*
X142503051Y-83959919D01*
X142503044Y-83959921D01*
X142282276Y-84035711D01*
X142282273Y-84035713D01*
X142076983Y-84146810D01*
X142029463Y-84183797D01*
X141910274Y-84276566D01*
X141844232Y-84302622D01*
X141774586Y-84288837D01*
X141723450Y-84239587D01*
X141714828Y-84221167D01*
X141700889Y-84183796D01*
X141700887Y-84183792D01*
X141613261Y-84066738D01*
X141496207Y-83979112D01*
X141496202Y-83979110D01*
X141359204Y-83928011D01*
X141359196Y-83928009D01*
X141298649Y-83921500D01*
X141298638Y-83921500D01*
X139401362Y-83921500D01*
X139401350Y-83921500D01*
X139340803Y-83928009D01*
X139340795Y-83928011D01*
X139203797Y-83979110D01*
X139203792Y-83979112D01*
X139086738Y-84066738D01*
X138999112Y-84183792D01*
X138999110Y-84183797D01*
X138948011Y-84320795D01*
X138948009Y-84320803D01*
X138941500Y-84381350D01*
X138941500Y-86278649D01*
X134960840Y-86278649D01*
X134944527Y-86228444D01*
X134849040Y-86063056D01*
X134849038Y-86063054D01*
X134849034Y-86063048D01*
X134721255Y-85921135D01*
X134566752Y-85808882D01*
X134392288Y-85731206D01*
X134205482Y-85691498D01*
X134198925Y-85690810D01*
X134199230Y-85687905D01*
X134143350Y-85671498D01*
X134096857Y-85617842D01*
X134086753Y-85547568D01*
X134091636Y-85526570D01*
X134103542Y-85489928D01*
X134123504Y-85300000D01*
X134103542Y-85110072D01*
X134044527Y-84928444D01*
X133976185Y-84810072D01*
X133949042Y-84763059D01*
X133945158Y-84757713D01*
X133946763Y-84756546D01*
X133920144Y-84701055D01*
X133918500Y-84680770D01*
X133918500Y-78158288D01*
X136181500Y-78158288D01*
X136196466Y-78362779D01*
X136255938Y-78629756D01*
X136255939Y-78629758D01*
X136353645Y-78885221D01*
X136353647Y-78885224D01*
X136487499Y-79123724D01*
X136487511Y-79123742D01*
X136654665Y-79340213D01*
X136654673Y-79340222D01*
X136851572Y-79530057D01*
X136851578Y-79530062D01*
X137074015Y-79689202D01*
X137074025Y-79689209D01*
X137317265Y-79814267D01*
X137317267Y-79814268D01*
X137576124Y-79902577D01*
X137576130Y-79902579D01*
X137845093Y-79952259D01*
X138118424Y-79962248D01*
X138281072Y-79944351D01*
X138390291Y-79932335D01*
X138390293Y-79932334D01*
X138390296Y-79932334D01*
X138654916Y-79863153D01*
X138906643Y-79756181D01*
X139140112Y-79613697D01*
X139350347Y-79438738D01*
X139532867Y-79235033D01*
X139683783Y-79006923D01*
X139799877Y-78759271D01*
X139878676Y-78497355D01*
X139918500Y-78226757D01*
X139918500Y-78158288D01*
X145781500Y-78158288D01*
X145796466Y-78362779D01*
X145855938Y-78629756D01*
X145855939Y-78629758D01*
X145953645Y-78885221D01*
X145953647Y-78885224D01*
X146087499Y-79123724D01*
X146087511Y-79123742D01*
X146254665Y-79340213D01*
X146254673Y-79340222D01*
X146451572Y-79530057D01*
X146451578Y-79530062D01*
X146674015Y-79689202D01*
X146674025Y-79689209D01*
X146917265Y-79814267D01*
X146917267Y-79814268D01*
X147176124Y-79902577D01*
X147176130Y-79902579D01*
X147445093Y-79952259D01*
X147718424Y-79962248D01*
X147881072Y-79944351D01*
X147990291Y-79932335D01*
X147990293Y-79932334D01*
X147990296Y-79932334D01*
X148254916Y-79863153D01*
X148506643Y-79756181D01*
X148740112Y-79613697D01*
X148950347Y-79438738D01*
X149132867Y-79235033D01*
X149283783Y-79006923D01*
X149399877Y-78759271D01*
X149478676Y-78497355D01*
X149518500Y-78226757D01*
X149518500Y-77501712D01*
X149503533Y-77297217D01*
X149444063Y-77030247D01*
X149346355Y-76774781D01*
X149346354Y-76774778D01*
X149346352Y-76774775D01*
X149212500Y-76536275D01*
X149212488Y-76536257D01*
X149045334Y-76319786D01*
X149045326Y-76319777D01*
X148848427Y-76129942D01*
X148848421Y-76129937D01*
X148625984Y-75970797D01*
X148625974Y-75970790D01*
X148382734Y-75845732D01*
X148382732Y-75845731D01*
X148123875Y-75757422D01*
X148123863Y-75757419D01*
X147854902Y-75707740D01*
X147854904Y-75707740D01*
X147620119Y-75699160D01*
X147581576Y-75697752D01*
X147581575Y-75697752D01*
X147581572Y-75697752D01*
X147309708Y-75727664D01*
X147309705Y-75727665D01*
X147045081Y-75796847D01*
X146840383Y-75883835D01*
X146793357Y-75903819D01*
X146559888Y-76046303D01*
X146454663Y-76133872D01*
X146349648Y-76221266D01*
X146167142Y-76424956D01*
X146167131Y-76424969D01*
X146016217Y-76653076D01*
X145900123Y-76900729D01*
X145821323Y-77162648D01*
X145821322Y-77162653D01*
X145781500Y-77433239D01*
X145781500Y-78158288D01*
X139918500Y-78158288D01*
X139918500Y-77501712D01*
X139903533Y-77297217D01*
X139844063Y-77030247D01*
X139746355Y-76774781D01*
X139746354Y-76774778D01*
X139746352Y-76774775D01*
X139612500Y-76536275D01*
X139612488Y-76536257D01*
X139445334Y-76319786D01*
X139445326Y-76319777D01*
X139248427Y-76129942D01*
X139248421Y-76129937D01*
X139025984Y-75970797D01*
X139025974Y-75970790D01*
X138782734Y-75845732D01*
X138782732Y-75845731D01*
X138523875Y-75757422D01*
X138523863Y-75757419D01*
X138254902Y-75707740D01*
X138254904Y-75707740D01*
X138020119Y-75699160D01*
X137981576Y-75697752D01*
X137981575Y-75697752D01*
X137981572Y-75697752D01*
X137709708Y-75727664D01*
X137709705Y-75727665D01*
X137445081Y-75796847D01*
X137240383Y-75883835D01*
X137193357Y-75903819D01*
X136959888Y-76046303D01*
X136854663Y-76133872D01*
X136749648Y-76221266D01*
X136567142Y-76424956D01*
X136567131Y-76424969D01*
X136416217Y-76653076D01*
X136300123Y-76900729D01*
X136221323Y-77162648D01*
X136221322Y-77162653D01*
X136181500Y-77433239D01*
X136181500Y-78158288D01*
X133918500Y-78158288D01*
X133918500Y-77345660D01*
X133938502Y-77277539D01*
X133955405Y-77256565D01*
X137666565Y-73545405D01*
X137728877Y-73511379D01*
X137755660Y-73508500D01*
X156522505Y-73508500D01*
X156590626Y-73528502D01*
X156637119Y-73582158D01*
X156647223Y-73652432D01*
X156640561Y-73678529D01*
X156628857Y-73709909D01*
X156608011Y-73765798D01*
X156608009Y-73765803D01*
X156601500Y-73826350D01*
X156601500Y-75723649D01*
X156608009Y-75784196D01*
X156608011Y-75784204D01*
X156659110Y-75921202D01*
X156659112Y-75921207D01*
X156746738Y-76038261D01*
X156863792Y-76125887D01*
X156863794Y-76125888D01*
X156863796Y-76125889D01*
X156915243Y-76145078D01*
X157000795Y-76176988D01*
X157000803Y-76176990D01*
X157061350Y-76183499D01*
X157061355Y-76183499D01*
X157061362Y-76183500D01*
X157061368Y-76183500D01*
X158958632Y-76183500D01*
X158958638Y-76183500D01*
X158958645Y-76183499D01*
X158958649Y-76183499D01*
X159019196Y-76176990D01*
X159019199Y-76176989D01*
X159019201Y-76176989D01*
X159019904Y-76176727D01*
X159052224Y-76164672D01*
X159156204Y-76125889D01*
X159273261Y-76038261D01*
X159314487Y-75983190D01*
X159360887Y-75921207D01*
X159360888Y-75921205D01*
X159360887Y-75921205D01*
X159360889Y-75921204D01*
X159374828Y-75883832D01*
X159417372Y-75826999D01*
X159483891Y-75802187D01*
X159553266Y-75817278D01*
X159570273Y-75828434D01*
X159592499Y-75845733D01*
X159736983Y-75958190D01*
X159942273Y-76069287D01*
X160163049Y-76145080D01*
X160393288Y-76183500D01*
X160393292Y-76183500D01*
X160626708Y-76183500D01*
X160626712Y-76183500D01*
X160856951Y-76145080D01*
X161077727Y-76069287D01*
X161283017Y-75958190D01*
X161467220Y-75814818D01*
X161472491Y-75809093D01*
X161551147Y-75723649D01*
X161625314Y-75643083D01*
X161654517Y-75598383D01*
X161708519Y-75552296D01*
X161778867Y-75542720D01*
X161843225Y-75572696D01*
X161865481Y-75598382D01*
X161881817Y-75623385D01*
X161894687Y-75643084D01*
X162052774Y-75814813D01*
X162052778Y-75814817D01*
X162092498Y-75845732D01*
X162236983Y-75958190D01*
X162442273Y-76069287D01*
X162663049Y-76145080D01*
X162893288Y-76183500D01*
X162893292Y-76183500D01*
X163126708Y-76183500D01*
X163126712Y-76183500D01*
X163356951Y-76145080D01*
X163577727Y-76069287D01*
X163783017Y-75958190D01*
X163967220Y-75814818D01*
X163972491Y-75809093D01*
X164125314Y-75643083D01*
X164138183Y-75623385D01*
X164252984Y-75447669D01*
X164346749Y-75233907D01*
X164404051Y-75007626D01*
X164423327Y-74775000D01*
X164404051Y-74542374D01*
X164385521Y-74469202D01*
X164346750Y-74316096D01*
X164346747Y-74316089D01*
X164252984Y-74102331D01*
X164125314Y-73906916D01*
X163967225Y-73735186D01*
X163967221Y-73735182D01*
X163862962Y-73654034D01*
X163783017Y-73591810D01*
X163577727Y-73480713D01*
X163577724Y-73480712D01*
X163577723Y-73480711D01*
X163356955Y-73404921D01*
X163356948Y-73404919D01*
X163258411Y-73388476D01*
X163126712Y-73366500D01*
X162893288Y-73366500D01*
X162778066Y-73385727D01*
X162663051Y-73404919D01*
X162663044Y-73404921D01*
X162442276Y-73480711D01*
X162442273Y-73480713D01*
X162254819Y-73582158D01*
X162236985Y-73591809D01*
X162236983Y-73591810D01*
X162052778Y-73735182D01*
X162052774Y-73735186D01*
X161894685Y-73906916D01*
X161865483Y-73951615D01*
X161811480Y-73997704D01*
X161741132Y-74007279D01*
X161676774Y-73977302D01*
X161654517Y-73951615D01*
X161625314Y-73906916D01*
X161467225Y-73735186D01*
X161467221Y-73735182D01*
X161362962Y-73654034D01*
X161283017Y-73591810D01*
X161077727Y-73480713D01*
X161077724Y-73480712D01*
X161077723Y-73480711D01*
X160856955Y-73404921D01*
X160856948Y-73404919D01*
X160758411Y-73388476D01*
X160626712Y-73366500D01*
X160393288Y-73366500D01*
X160208887Y-73397270D01*
X160138404Y-73388753D01*
X160099054Y-73362084D01*
X159052464Y-72315494D01*
X159049880Y-72312750D01*
X159008273Y-72265785D01*
X159008270Y-72265783D01*
X159008271Y-72265783D01*
X158956655Y-72230154D01*
X158953590Y-72227899D01*
X158935146Y-72213449D01*
X158904226Y-72189225D01*
X158904222Y-72189223D01*
X158894919Y-72185035D01*
X158875069Y-72173840D01*
X158866675Y-72168046D01*
X158843705Y-72159334D01*
X158808043Y-72145809D01*
X158804528Y-72144353D01*
X158747332Y-72118612D01*
X158747330Y-72118611D01*
X158747329Y-72118611D01*
X158737286Y-72116770D01*
X158715336Y-72110650D01*
X158705801Y-72107035D01*
X158705800Y-72107034D01*
X158705798Y-72107034D01*
X158705794Y-72107033D01*
X158653362Y-72100667D01*
X158643537Y-72099473D01*
X158639786Y-72098902D01*
X158598760Y-72091385D01*
X158578094Y-72087598D01*
X158578093Y-72087598D01*
X158515488Y-72091385D01*
X158511685Y-72091500D01*
X138576132Y-72091500D01*
X138508011Y-72071498D01*
X138461518Y-72017842D01*
X138451414Y-71947568D01*
X138480908Y-71882988D01*
X138487037Y-71876405D01*
X139018037Y-71345405D01*
X139080349Y-71311379D01*
X139107132Y-71308500D01*
X149798595Y-71308500D01*
X149866716Y-71328502D01*
X149872655Y-71332563D01*
X149953248Y-71391118D01*
X150127712Y-71468794D01*
X150314513Y-71508500D01*
X150505487Y-71508500D01*
X150692288Y-71468794D01*
X150866752Y-71391118D01*
X151021253Y-71278866D01*
X151149040Y-71136944D01*
X151244527Y-70971556D01*
X151303542Y-70789928D01*
X151323504Y-70600000D01*
X151303542Y-70410072D01*
X151244527Y-70228444D01*
X151149040Y-70063056D01*
X151149038Y-70063054D01*
X151149034Y-70063048D01*
X151021255Y-69921135D01*
X150866752Y-69808882D01*
X150692288Y-69731206D01*
X150505487Y-69691500D01*
X150314513Y-69691500D01*
X150127711Y-69731206D01*
X149953247Y-69808882D01*
X149872656Y-69867436D01*
X149805788Y-69891294D01*
X149798595Y-69891500D01*
X138784791Y-69891500D01*
X138780991Y-69891385D01*
X138718380Y-69887598D01*
X138718379Y-69887598D01*
X138718377Y-69887598D01*
X138656690Y-69898902D01*
X138652931Y-69899474D01*
X138644650Y-69900480D01*
X138590674Y-69907034D01*
X138590667Y-69907035D01*
X138581133Y-69910651D01*
X138559183Y-69916770D01*
X138549150Y-69918609D01*
X138549137Y-69918613D01*
X138491948Y-69944351D01*
X138488433Y-69945807D01*
X138429798Y-69968045D01*
X138421393Y-69973846D01*
X138401552Y-69985035D01*
X138392251Y-69989222D01*
X138392241Y-69989227D01*
X138342873Y-70027904D01*
X138339811Y-70030157D01*
X138288198Y-70065784D01*
X138246598Y-70112740D01*
X138243990Y-70115511D01*
X131925511Y-76433990D01*
X131922740Y-76436598D01*
X131875784Y-76478198D01*
X131840157Y-76529811D01*
X131837904Y-76532873D01*
X131799227Y-76582241D01*
X131799222Y-76582251D01*
X131795035Y-76591552D01*
X131783846Y-76611393D01*
X131778045Y-76619798D01*
X131755807Y-76678433D01*
X131754351Y-76681948D01*
X131728613Y-76739137D01*
X131728609Y-76739150D01*
X131726770Y-76749183D01*
X131720651Y-76771133D01*
X131717034Y-76780671D01*
X131709476Y-76842913D01*
X131708904Y-76846673D01*
X131697598Y-76908378D01*
X131701384Y-76970978D01*
X131701499Y-76974782D01*
X131701499Y-85608059D01*
X131701384Y-85611863D01*
X131697597Y-85674465D01*
X131708902Y-85736153D01*
X131709475Y-85739915D01*
X131717033Y-85802165D01*
X131717034Y-85802169D01*
X131720650Y-85811704D01*
X131726771Y-85833660D01*
X131728612Y-85843703D01*
X131754353Y-85900899D01*
X131755809Y-85904414D01*
X131762151Y-85921135D01*
X131778046Y-85963046D01*
X131783840Y-85971440D01*
X131795035Y-85991290D01*
X131799223Y-86000593D01*
X131799225Y-86000597D01*
X131823449Y-86031517D01*
X131837899Y-86049961D01*
X131840154Y-86053026D01*
X131875783Y-86104642D01*
X131875784Y-86104643D01*
X131875785Y-86104644D01*
X131922750Y-86146251D01*
X131925494Y-86148835D01*
X132861162Y-87084503D01*
X132863748Y-87087249D01*
X132905356Y-87134215D01*
X132956977Y-87169846D01*
X132960024Y-87172088D01*
X133009403Y-87210775D01*
X133018699Y-87214958D01*
X133038564Y-87226163D01*
X133046949Y-87231951D01*
X133046951Y-87231952D01*
X133046954Y-87231954D01*
X133079787Y-87244405D01*
X133105596Y-87254194D01*
X133109114Y-87255651D01*
X133166298Y-87281388D01*
X133176325Y-87283225D01*
X133198291Y-87289347D01*
X133207828Y-87292965D01*
X133270102Y-87300525D01*
X133273845Y-87301095D01*
X133335536Y-87312401D01*
X133398131Y-87308614D01*
X133401931Y-87308500D01*
X133495338Y-87308500D01*
X133563459Y-87328502D01*
X133609952Y-87382158D01*
X133620056Y-87452432D01*
X133590562Y-87517012D01*
X133584433Y-87523595D01*
X130414741Y-90693287D01*
X130352429Y-90727313D01*
X130342808Y-90729018D01*
X130330008Y-90730777D01*
X130147637Y-90781875D01*
X130052256Y-90808600D01*
X130052253Y-90808601D01*
X130052254Y-90808601D01*
X129787691Y-90923516D01*
X129787686Y-90923518D01*
X129787686Y-90923519D01*
X129659456Y-91001498D01*
X129541220Y-91073399D01*
X129317487Y-91255420D01*
X129317471Y-91255435D01*
X129120591Y-91466242D01*
X128954247Y-91701896D01*
X128954247Y-91701897D01*
X128821541Y-91958007D01*
X128724945Y-92229802D01*
X128724943Y-92229810D01*
X128666257Y-92512229D01*
X128666256Y-92512235D01*
X128660706Y-92593379D01*
X128636102Y-92659976D01*
X128579399Y-92702699D01*
X128508599Y-92707984D01*
X128446182Y-92674153D01*
X128411963Y-92611946D01*
X128409294Y-92593379D01*
X128403743Y-92512235D01*
X128403742Y-92512229D01*
X128403742Y-92512222D01*
X128345055Y-92229804D01*
X128248459Y-91958008D01*
X128115753Y-91701897D01*
X127949409Y-91466242D01*
X127752526Y-91255432D01*
X127752516Y-91255424D01*
X127752512Y-91255420D01*
X127528779Y-91073399D01*
X127528775Y-91073396D01*
X127528772Y-91073394D01*
X127282314Y-90923519D01*
X127282310Y-90923517D01*
X127282308Y-90923516D01*
X127173713Y-90876347D01*
X127017744Y-90808600D01*
X126790354Y-90744888D01*
X126739986Y-90730776D01*
X126739988Y-90730776D01*
X126454238Y-90691500D01*
X126454225Y-90691500D01*
X126165775Y-90691500D01*
X126165761Y-90691500D01*
X125880012Y-90730776D01*
X125707572Y-90779091D01*
X125602256Y-90808600D01*
X125602253Y-90808601D01*
X125602254Y-90808601D01*
X125337691Y-90923516D01*
X125337686Y-90923518D01*
X125337686Y-90923519D01*
X125209456Y-91001498D01*
X125091220Y-91073399D01*
X124867487Y-91255420D01*
X124867471Y-91255435D01*
X124670591Y-91466242D01*
X124504247Y-91701896D01*
X124504247Y-91701897D01*
X124371541Y-91958007D01*
X124274945Y-92229802D01*
X124274943Y-92229810D01*
X124216257Y-92512229D01*
X124216256Y-92512235D01*
X124201499Y-92727967D01*
X124201499Y-94072032D01*
X123918500Y-94072032D01*
X123918500Y-76995660D01*
X123938502Y-76927539D01*
X123955400Y-76906569D01*
X124649055Y-76212913D01*
X124711366Y-76178890D01*
X124758887Y-76177729D01*
X124765845Y-76178890D01*
X124943286Y-76208500D01*
X124943288Y-76208500D01*
X125176708Y-76208500D01*
X125176712Y-76208500D01*
X125406951Y-76170080D01*
X125627727Y-76094287D01*
X125833017Y-75983190D01*
X126017220Y-75839818D01*
X126045505Y-75809093D01*
X126059745Y-75793623D01*
X126175314Y-75668083D01*
X126204517Y-75623383D01*
X126258519Y-75577296D01*
X126328867Y-75567720D01*
X126393225Y-75597696D01*
X126415481Y-75623382D01*
X126444686Y-75668083D01*
X126444687Y-75668084D01*
X126602774Y-75839813D01*
X126602778Y-75839817D01*
X126659333Y-75883835D01*
X126786983Y-75983190D01*
X126992273Y-76094287D01*
X127213049Y-76170080D01*
X127443288Y-76208500D01*
X127443292Y-76208500D01*
X127676708Y-76208500D01*
X127676712Y-76208500D01*
X127906951Y-76170080D01*
X128127727Y-76094287D01*
X128333017Y-75983190D01*
X128517220Y-75839818D01*
X128540235Y-75814818D01*
X128675314Y-75668083D01*
X128691647Y-75643083D01*
X128802984Y-75472669D01*
X128896749Y-75258907D01*
X128954051Y-75032626D01*
X128973327Y-74800000D01*
X128954051Y-74567374D01*
X128896749Y-74341093D01*
X128802984Y-74127331D01*
X128734628Y-74022704D01*
X128675314Y-73931916D01*
X128517225Y-73760186D01*
X128517221Y-73760182D01*
X128412319Y-73678534D01*
X128333017Y-73616810D01*
X128127727Y-73505713D01*
X128127724Y-73505712D01*
X128127723Y-73505711D01*
X127906955Y-73429921D01*
X127906948Y-73429919D01*
X127789536Y-73410327D01*
X127676712Y-73391500D01*
X127443288Y-73391500D01*
X127330464Y-73410327D01*
X127213051Y-73429919D01*
X127213044Y-73429921D01*
X126992276Y-73505711D01*
X126992273Y-73505713D01*
X126786985Y-73616809D01*
X126786983Y-73616810D01*
X126602778Y-73760182D01*
X126602774Y-73760186D01*
X126444685Y-73931916D01*
X126415483Y-73976615D01*
X126361480Y-74022704D01*
X126291132Y-74032279D01*
X126226774Y-74002302D01*
X126204517Y-73976615D01*
X126175314Y-73931916D01*
X126017225Y-73760186D01*
X126017221Y-73760182D01*
X125912319Y-73678534D01*
X125833017Y-73616810D01*
X125627727Y-73505713D01*
X125627724Y-73505712D01*
X125627723Y-73505711D01*
X125406955Y-73429921D01*
X125406948Y-73429919D01*
X125289536Y-73410327D01*
X125176712Y-73391500D01*
X124943288Y-73391500D01*
X124830464Y-73410327D01*
X124713051Y-73429919D01*
X124713044Y-73429921D01*
X124492276Y-73505711D01*
X124492273Y-73505713D01*
X124286985Y-73616809D01*
X124286983Y-73616810D01*
X124119860Y-73746888D01*
X124053818Y-73772944D01*
X123984172Y-73759159D01*
X123933036Y-73709909D01*
X123924413Y-73691487D01*
X123910445Y-73654036D01*
X123910444Y-73654034D01*
X123822904Y-73537095D01*
X123705965Y-73449555D01*
X123569093Y-73398505D01*
X123508597Y-73392000D01*
X122814000Y-73392000D01*
X122814000Y-74366325D01*
X122702315Y-74315320D01*
X122595763Y-74300000D01*
X122524237Y-74300000D01*
X122417685Y-74315320D01*
X122306000Y-74366325D01*
X122306000Y-73392000D01*
X121611402Y-73392000D01*
X121550906Y-73398505D01*
X121414035Y-73449555D01*
X121414034Y-73449555D01*
X121297095Y-73537095D01*
X121209555Y-73654034D01*
X121209555Y-73654035D01*
X121158505Y-73790906D01*
X121152000Y-73851402D01*
X121152000Y-74546000D01*
X122128884Y-74546000D01*
X122100507Y-74590156D01*
X122060000Y-74728111D01*
X122060000Y-74871889D01*
X122100507Y-75009844D01*
X122128884Y-75054000D01*
X121152000Y-75054000D01*
X121152000Y-75748597D01*
X121158505Y-75809093D01*
X121209555Y-75945964D01*
X121209555Y-75945965D01*
X121297095Y-76062904D01*
X121414034Y-76150444D01*
X121550906Y-76201494D01*
X121611402Y-76207999D01*
X121611415Y-76208000D01*
X122437096Y-76208000D01*
X122505217Y-76228002D01*
X122551710Y-76281658D01*
X122561814Y-76351932D01*
X122551996Y-76385711D01*
X122528612Y-76437668D01*
X122528609Y-76437678D01*
X122526770Y-76447711D01*
X122520651Y-76469661D01*
X122517034Y-76479199D01*
X122509476Y-76541441D01*
X122508904Y-76545201D01*
X122497598Y-76606906D01*
X122501385Y-76669508D01*
X122501500Y-76673313D01*
X122501500Y-87053634D01*
X122481498Y-87121755D01*
X122427842Y-87168248D01*
X122357568Y-87178352D01*
X122292988Y-87148858D01*
X122254604Y-87089132D01*
X122253793Y-87086246D01*
X122253685Y-87085842D01*
X122244284Y-87050757D01*
X122147523Y-86843251D01*
X122016198Y-86655700D01*
X121854300Y-86493802D01*
X121666749Y-86362477D01*
X121666748Y-86362477D01*
X121459246Y-86265717D01*
X121459240Y-86265715D01*
X121365771Y-86240670D01*
X121238087Y-86206457D01*
X121010000Y-86186502D01*
X120781913Y-86206457D01*
X120560759Y-86265715D01*
X120560753Y-86265717D01*
X120353250Y-86362477D01*
X120165703Y-86493799D01*
X120165697Y-86493804D01*
X120003804Y-86655697D01*
X120003799Y-86655703D01*
X119946335Y-86737771D01*
X119890878Y-86782099D01*
X119843122Y-86791500D01*
X119636878Y-86791500D01*
X119568757Y-86771498D01*
X119533665Y-86737771D01*
X119476200Y-86655703D01*
X119476195Y-86655697D01*
X119314302Y-86493804D01*
X119314296Y-86493799D01*
X119126749Y-86362477D01*
X118919246Y-86265717D01*
X118919240Y-86265715D01*
X118825771Y-86240670D01*
X118698087Y-86206457D01*
X118470000Y-86186502D01*
X118241913Y-86206457D01*
X118020759Y-86265715D01*
X118020753Y-86265717D01*
X117813250Y-86362477D01*
X117625703Y-86493799D01*
X117625697Y-86493804D01*
X117463804Y-86655697D01*
X117463799Y-86655703D01*
X117332477Y-86843250D01*
X117235717Y-87050753D01*
X117235715Y-87050759D01*
X117203204Y-87172093D01*
X117176457Y-87271913D01*
X117156502Y-87500000D01*
X117167739Y-87628445D01*
X117176457Y-87728086D01*
X117235715Y-87949240D01*
X117235717Y-87949246D01*
X117332477Y-88156749D01*
X117368713Y-88208500D01*
X117463802Y-88344300D01*
X117625700Y-88506198D01*
X117813251Y-88637523D01*
X118020757Y-88734284D01*
X118241913Y-88793543D01*
X118470000Y-88813498D01*
X118698087Y-88793543D01*
X118919243Y-88734284D01*
X119126749Y-88637523D01*
X119314300Y-88506198D01*
X119476198Y-88344300D01*
X119533664Y-88262229D01*
X119589122Y-88217901D01*
X119636878Y-88208500D01*
X119843122Y-88208500D01*
X119911243Y-88228502D01*
X119946335Y-88262229D01*
X120003802Y-88344300D01*
X120165700Y-88506198D01*
X120353251Y-88637523D01*
X120560757Y-88734284D01*
X120781913Y-88793543D01*
X121010000Y-88813498D01*
X121238087Y-88793543D01*
X121459243Y-88734284D01*
X121666749Y-88637523D01*
X121854300Y-88506198D01*
X122016198Y-88344300D01*
X122147523Y-88156749D01*
X122244284Y-87949243D01*
X122253793Y-87913753D01*
X122290745Y-87853131D01*
X122354605Y-87822110D01*
X122425100Y-87830538D01*
X122479847Y-87875741D01*
X122501464Y-87943366D01*
X122501500Y-87946365D01*
X122501500Y-94673634D01*
X122481498Y-94741755D01*
X122427842Y-94788248D01*
X122357568Y-94798352D01*
X122292988Y-94768858D01*
X122254604Y-94709132D01*
X122253793Y-94706246D01*
X122244284Y-94670757D01*
X122147523Y-94463251D01*
X122016198Y-94275700D01*
X121854300Y-94113802D01*
X121794646Y-94072032D01*
X121666749Y-93982477D01*
X121459246Y-93885717D01*
X121459240Y-93885715D01*
X121365771Y-93860670D01*
X121238087Y-93826457D01*
X121010000Y-93806502D01*
X120781913Y-93826457D01*
X120560759Y-93885715D01*
X120560753Y-93885717D01*
X120353250Y-93982477D01*
X120165703Y-94113799D01*
X120165697Y-94113804D01*
X120003804Y-94275697D01*
X120003795Y-94275708D01*
X120001483Y-94279010D01*
X119946021Y-94323333D01*
X119875401Y-94330635D01*
X119812044Y-94298598D01*
X119776065Y-94237393D01*
X119772999Y-94220198D01*
X119771989Y-94210799D01*
X119770430Y-94206620D01*
X119735811Y-94113804D01*
X119720889Y-94073796D01*
X119720888Y-94073794D01*
X119720887Y-94073792D01*
X119633261Y-93956738D01*
X119516207Y-93869112D01*
X119516202Y-93869110D01*
X119379204Y-93818011D01*
X119379196Y-93818009D01*
X119318649Y-93811500D01*
X119318638Y-93811500D01*
X117621362Y-93811500D01*
X117621350Y-93811500D01*
X117560803Y-93818009D01*
X117560795Y-93818011D01*
X117423797Y-93869110D01*
X117423792Y-93869112D01*
X117306738Y-93956738D01*
X117219112Y-94073792D01*
X117219110Y-94073797D01*
X117168011Y-94210795D01*
X117168009Y-94210803D01*
X117161500Y-94271350D01*
X117161500Y-95968649D01*
X117168009Y-96029196D01*
X117168011Y-96029204D01*
X117219110Y-96166202D01*
X117219112Y-96166207D01*
X117306738Y-96283261D01*
X117423792Y-96370887D01*
X117423794Y-96370888D01*
X117423796Y-96370889D01*
X117482875Y-96392924D01*
X117560795Y-96421988D01*
X117560803Y-96421990D01*
X117621350Y-96428499D01*
X117621355Y-96428499D01*
X117621362Y-96428500D01*
X117621368Y-96428500D01*
X119318632Y-96428500D01*
X119318638Y-96428500D01*
X119318645Y-96428499D01*
X119318649Y-96428499D01*
X119379196Y-96421990D01*
X119379199Y-96421989D01*
X119379201Y-96421989D01*
X119516204Y-96370889D01*
X119538389Y-96354282D01*
X119633261Y-96283261D01*
X119720887Y-96166207D01*
X119720887Y-96166206D01*
X119720889Y-96166204D01*
X119771989Y-96029201D01*
X119772998Y-96019808D01*
X119800163Y-95954215D01*
X119858478Y-95913721D01*
X119929429Y-95911182D01*
X119990490Y-95947405D01*
X120001487Y-95960995D01*
X120003796Y-95964292D01*
X120003802Y-95964300D01*
X120165700Y-96126198D01*
X120353251Y-96257523D01*
X120560757Y-96354284D01*
X120781913Y-96413543D01*
X121010000Y-96433498D01*
X121238087Y-96413543D01*
X121459243Y-96354284D01*
X121666749Y-96257523D01*
X121854300Y-96126198D01*
X122016198Y-95964300D01*
X122147523Y-95776749D01*
X122244284Y-95569243D01*
X122253793Y-95533753D01*
X122290745Y-95473131D01*
X122354605Y-95442110D01*
X122425100Y-95450538D01*
X122479847Y-95495741D01*
X122501464Y-95563366D01*
X122501500Y-95566365D01*
X122501500Y-101376685D01*
X122501385Y-101380490D01*
X122497598Y-101443092D01*
X122508902Y-101504782D01*
X122509475Y-101508544D01*
X122517033Y-101570794D01*
X122517034Y-101570798D01*
X122520650Y-101580333D01*
X122526771Y-101602289D01*
X122528612Y-101612332D01*
X122554353Y-101669528D01*
X122555809Y-101673043D01*
X122569334Y-101708705D01*
X122578046Y-101731675D01*
X122583840Y-101740069D01*
X122595035Y-101759919D01*
X122599223Y-101769222D01*
X122599225Y-101769226D01*
X122623449Y-101800146D01*
X122637899Y-101818590D01*
X122640154Y-101821655D01*
X122675783Y-101873271D01*
X122675784Y-101873272D01*
X122675785Y-101873273D01*
X122722750Y-101914880D01*
X122725494Y-101917464D01*
X127092533Y-106284503D01*
X127095119Y-106287249D01*
X127136727Y-106334215D01*
X127169666Y-106356951D01*
X127188355Y-106369852D01*
X127191389Y-106372083D01*
X127240775Y-106410775D01*
X127250070Y-106414958D01*
X127269933Y-106426161D01*
X127278325Y-106431954D01*
X127336986Y-106454200D01*
X127340466Y-106455642D01*
X127397671Y-106481389D01*
X127407704Y-106483227D01*
X127429668Y-106489351D01*
X127439196Y-106492964D01*
X127439199Y-106492965D01*
X127501470Y-106500525D01*
X127505193Y-106501092D01*
X127566908Y-106512402D01*
X127629519Y-106508614D01*
X127633319Y-106508500D01*
X137851962Y-106508500D01*
X137920083Y-106528502D01*
X137957445Y-106565585D01*
X138004275Y-106637265D01*
X138004279Y-106637270D01*
X138156762Y-106802908D01*
X138211331Y-106845381D01*
X138334424Y-106941189D01*
X138532426Y-107048342D01*
X138532427Y-107048342D01*
X138532428Y-107048343D01*
X138644227Y-107086723D01*
X138745365Y-107121444D01*
X138967431Y-107158500D01*
X138967435Y-107158500D01*
X139192571Y-107158500D01*
X139288513Y-107142489D01*
X139337669Y-107134287D01*
X139408153Y-107142803D01*
X139447503Y-107169473D01*
X139737435Y-107459405D01*
X139771461Y-107521717D01*
X139766396Y-107592532D01*
X139723849Y-107649368D01*
X139657329Y-107674179D01*
X139648340Y-107674500D01*
X137395247Y-107674500D01*
X137375872Y-107671948D01*
X137349445Y-107674260D01*
X137343953Y-107674500D01*
X137336688Y-107674500D01*
X137336686Y-107674500D01*
X137329524Y-107675763D01*
X137324079Y-107676479D01*
X137316046Y-107677181D01*
X137306458Y-107681652D01*
X137298354Y-107688452D01*
X137297876Y-107689281D01*
X137277855Y-107715370D01*
X135355631Y-109637595D01*
X135293319Y-109671620D01*
X135266536Y-109674500D01*
X116583464Y-109674500D01*
X116515343Y-109654498D01*
X116494369Y-109637595D01*
X115112405Y-108255630D01*
X115078379Y-108193318D01*
X115075500Y-108166535D01*
X115075500Y-67628288D01*
X118391500Y-67628288D01*
X118406466Y-67832779D01*
X118406467Y-67832783D01*
X118465937Y-68099753D01*
X118466032Y-68100001D01*
X118563645Y-68355221D01*
X118563647Y-68355224D01*
X118697499Y-68593724D01*
X118697511Y-68593742D01*
X118864665Y-68810213D01*
X118864669Y-68810218D01*
X118864671Y-68810220D01*
X119061574Y-69000059D01*
X119249075Y-69134205D01*
X119284015Y-69159202D01*
X119284025Y-69159209D01*
X119527265Y-69284267D01*
X119527267Y-69284268D01*
X119722545Y-69350887D01*
X119786130Y-69372579D01*
X120055093Y-69422259D01*
X120328424Y-69432248D01*
X120503404Y-69412995D01*
X120600291Y-69402335D01*
X120600293Y-69402334D01*
X120600296Y-69402334D01*
X120864916Y-69333153D01*
X121116643Y-69226181D01*
X121350112Y-69083697D01*
X121560347Y-68908738D01*
X121742867Y-68705033D01*
X121893783Y-68476923D01*
X122009877Y-68229271D01*
X122088676Y-67967355D01*
X122122020Y-67740790D01*
X122128500Y-67696760D01*
X122128500Y-67628288D01*
X127991500Y-67628288D01*
X128006466Y-67832779D01*
X128006467Y-67832783D01*
X128065937Y-68099753D01*
X128066032Y-68100001D01*
X128163645Y-68355221D01*
X128163647Y-68355224D01*
X128297499Y-68593724D01*
X128297511Y-68593742D01*
X128464665Y-68810213D01*
X128464669Y-68810218D01*
X128464671Y-68810220D01*
X128661574Y-69000059D01*
X128849075Y-69134205D01*
X128884015Y-69159202D01*
X128884025Y-69159209D01*
X129127265Y-69284267D01*
X129127267Y-69284268D01*
X129322545Y-69350887D01*
X129386130Y-69372579D01*
X129655093Y-69422259D01*
X129928424Y-69432248D01*
X130103404Y-69412995D01*
X130200291Y-69402335D01*
X130200293Y-69402334D01*
X130200296Y-69402334D01*
X130464916Y-69333153D01*
X130716643Y-69226181D01*
X130950112Y-69083697D01*
X131112389Y-68948649D01*
X134619121Y-68948649D01*
X134625630Y-69009196D01*
X134625632Y-69009204D01*
X134676731Y-69146202D01*
X134676733Y-69146207D01*
X134764359Y-69263261D01*
X134881413Y-69350887D01*
X134881415Y-69350888D01*
X134881417Y-69350889D01*
X134939564Y-69372577D01*
X135018416Y-69401988D01*
X135018424Y-69401990D01*
X135078971Y-69408499D01*
X135078976Y-69408499D01*
X135078983Y-69408500D01*
X135078989Y-69408500D01*
X136776253Y-69408500D01*
X136776259Y-69408500D01*
X136776266Y-69408499D01*
X136776270Y-69408499D01*
X136836817Y-69401990D01*
X136836820Y-69401989D01*
X136836822Y-69401989D01*
X136849504Y-69397259D01*
X136855666Y-69394960D01*
X136973825Y-69350889D01*
X136978246Y-69347580D01*
X137090882Y-69263261D01*
X137178508Y-69146207D01*
X137178508Y-69146206D01*
X137178510Y-69146204D01*
X137229610Y-69009201D01*
X137233281Y-68975062D01*
X137236482Y-68945283D01*
X137237529Y-68945395D01*
X137259677Y-68882567D01*
X137315734Y-68839000D01*
X137331726Y-68836682D01*
X138028893Y-68139516D01*
X138042456Y-68225148D01*
X138099980Y-68338045D01*
X138189576Y-68427641D01*
X138302473Y-68485165D01*
X138388103Y-68498727D01*
X137699731Y-69187098D01*
X137699731Y-69187100D01*
X137771119Y-69237086D01*
X137978547Y-69333811D01*
X137978552Y-69333813D01*
X138199620Y-69393048D01*
X138199616Y-69393048D01*
X138427620Y-69412995D01*
X138655623Y-69393048D01*
X138876689Y-69333813D01*
X138876694Y-69333811D01*
X139084118Y-69237088D01*
X139155509Y-69187099D01*
X139155509Y-69187097D01*
X138467139Y-68498727D01*
X138552769Y-68485165D01*
X138665666Y-68427641D01*
X138755262Y-68338045D01*
X138812786Y-68225148D01*
X138826348Y-68139518D01*
X139514718Y-68827888D01*
X139514720Y-68827888D01*
X139564709Y-68756497D01*
X139661432Y-68549073D01*
X139661434Y-68549068D01*
X139720669Y-68328002D01*
X139740616Y-68100000D01*
X139720669Y-67871997D01*
X139661434Y-67650931D01*
X139661432Y-67650926D01*
X139639218Y-67603288D01*
X153841500Y-67603288D01*
X153856466Y-67807779D01*
X153915938Y-68074756D01*
X153915939Y-68074758D01*
X154013645Y-68330221D01*
X154013647Y-68330224D01*
X154147499Y-68568724D01*
X154147511Y-68568742D01*
X154314665Y-68785213D01*
X154314673Y-68785222D01*
X154511572Y-68975057D01*
X154511578Y-68975062D01*
X154734015Y-69134202D01*
X154734025Y-69134209D01*
X154977265Y-69259267D01*
X154977267Y-69259268D01*
X155195778Y-69333813D01*
X155236130Y-69347579D01*
X155505093Y-69397259D01*
X155778424Y-69407248D01*
X155941072Y-69389351D01*
X156050291Y-69377335D01*
X156050293Y-69377334D01*
X156050296Y-69377334D01*
X156314916Y-69308153D01*
X156566643Y-69201181D01*
X156800112Y-69058697D01*
X157010347Y-68883738D01*
X157192867Y-68680033D01*
X157343783Y-68451923D01*
X157459877Y-68204271D01*
X157538676Y-67942355D01*
X157558482Y-67807779D01*
X157578500Y-67671760D01*
X157578500Y-67603288D01*
X163441500Y-67603288D01*
X163456466Y-67807779D01*
X163515938Y-68074756D01*
X163515939Y-68074758D01*
X163613645Y-68330221D01*
X163613647Y-68330224D01*
X163747499Y-68568724D01*
X163747511Y-68568742D01*
X163914665Y-68785213D01*
X163914673Y-68785222D01*
X164111572Y-68975057D01*
X164111578Y-68975062D01*
X164334015Y-69134202D01*
X164334025Y-69134209D01*
X164577265Y-69259267D01*
X164577267Y-69259268D01*
X164795778Y-69333813D01*
X164836130Y-69347579D01*
X165105093Y-69397259D01*
X165378424Y-69407248D01*
X165541072Y-69389351D01*
X165650291Y-69377335D01*
X165650293Y-69377334D01*
X165650296Y-69377334D01*
X165914916Y-69308153D01*
X166166643Y-69201181D01*
X166400112Y-69058697D01*
X166610347Y-68883738D01*
X166792867Y-68680033D01*
X166943783Y-68451923D01*
X167059877Y-68204271D01*
X167138676Y-67942355D01*
X167158482Y-67807779D01*
X167178500Y-67671760D01*
X167178500Y-66946711D01*
X167171357Y-66849111D01*
X167163533Y-66742217D01*
X167104063Y-66475247D01*
X167015916Y-66244778D01*
X167006354Y-66219778D01*
X167006352Y-66219775D01*
X166872500Y-65981275D01*
X166872488Y-65981257D01*
X166705334Y-65764786D01*
X166705326Y-65764777D01*
X166508427Y-65574942D01*
X166508421Y-65574937D01*
X166285984Y-65415797D01*
X166285974Y-65415790D01*
X166042734Y-65290732D01*
X166042732Y-65290731D01*
X165783875Y-65202422D01*
X165783863Y-65202419D01*
X165514902Y-65152740D01*
X165514904Y-65152740D01*
X165280119Y-65144160D01*
X165241576Y-65142752D01*
X165241575Y-65142752D01*
X165241572Y-65142752D01*
X164969708Y-65172664D01*
X164969705Y-65172665D01*
X164705081Y-65241847D01*
X164453356Y-65348819D01*
X164453357Y-65348819D01*
X164219888Y-65491303D01*
X164089351Y-65599937D01*
X164009648Y-65666266D01*
X163827142Y-65869956D01*
X163827131Y-65869969D01*
X163676217Y-66098076D01*
X163560123Y-66345729D01*
X163481323Y-66607648D01*
X163481322Y-66607653D01*
X163441500Y-66878239D01*
X163441500Y-67603288D01*
X157578500Y-67603288D01*
X157578500Y-66946711D01*
X157571357Y-66849111D01*
X157563533Y-66742217D01*
X157504063Y-66475247D01*
X157415916Y-66244778D01*
X157406354Y-66219778D01*
X157406352Y-66219775D01*
X157272500Y-65981275D01*
X157272488Y-65981257D01*
X157105334Y-65764786D01*
X157105326Y-65764777D01*
X156908427Y-65574942D01*
X156908421Y-65574937D01*
X156685984Y-65415797D01*
X156685974Y-65415790D01*
X156442734Y-65290732D01*
X156442732Y-65290731D01*
X156183875Y-65202422D01*
X156183863Y-65202419D01*
X155914902Y-65152740D01*
X155914904Y-65152740D01*
X155680119Y-65144160D01*
X155641576Y-65142752D01*
X155641575Y-65142752D01*
X155641572Y-65142752D01*
X155369708Y-65172664D01*
X155369705Y-65172665D01*
X155105081Y-65241847D01*
X154853356Y-65348819D01*
X154853357Y-65348819D01*
X154619888Y-65491303D01*
X154489351Y-65599937D01*
X154409648Y-65666266D01*
X154227142Y-65869956D01*
X154227131Y-65869969D01*
X154076217Y-66098076D01*
X153960123Y-66345729D01*
X153881323Y-66607648D01*
X153881322Y-66607653D01*
X153841500Y-66878239D01*
X153841500Y-67603288D01*
X139639218Y-67603288D01*
X139564707Y-67443498D01*
X139514721Y-67372110D01*
X139514719Y-67372110D01*
X138826348Y-68060481D01*
X138812786Y-67974852D01*
X138755262Y-67861955D01*
X138665666Y-67772359D01*
X138552769Y-67714835D01*
X138467138Y-67701272D01*
X139155509Y-67012899D01*
X139155509Y-67012898D01*
X139084122Y-66962913D01*
X138876694Y-66866188D01*
X138876689Y-66866186D01*
X138655621Y-66806951D01*
X138655625Y-66806951D01*
X138427621Y-66787004D01*
X138199618Y-66806951D01*
X137978552Y-66866186D01*
X137978547Y-66866188D01*
X137771121Y-66962913D01*
X137699730Y-67012900D01*
X138388102Y-67701272D01*
X138302473Y-67714835D01*
X138189576Y-67772359D01*
X138099980Y-67861955D01*
X138042456Y-67974852D01*
X138028893Y-68060481D01*
X137328840Y-67360428D01*
X137303270Y-67355289D01*
X137252278Y-67305890D01*
X137237287Y-67254630D01*
X137236482Y-67254717D01*
X137229611Y-67190803D01*
X137229609Y-67190795D01*
X137178510Y-67053797D01*
X137178508Y-67053792D01*
X137090882Y-66936738D01*
X136973828Y-66849112D01*
X136973823Y-66849110D01*
X136836825Y-66798011D01*
X136836817Y-66798009D01*
X136776270Y-66791500D01*
X136776259Y-66791500D01*
X135078983Y-66791500D01*
X135078971Y-66791500D01*
X135018424Y-66798009D01*
X135018416Y-66798011D01*
X134881418Y-66849110D01*
X134881413Y-66849112D01*
X134764359Y-66936738D01*
X134676733Y-67053792D01*
X134676731Y-67053797D01*
X134625632Y-67190795D01*
X134625630Y-67190803D01*
X134619121Y-67251350D01*
X134619121Y-68948649D01*
X131112389Y-68948649D01*
X131160347Y-68908738D01*
X131342867Y-68705033D01*
X131493783Y-68476923D01*
X131609877Y-68229271D01*
X131688676Y-67967355D01*
X131722020Y-67740790D01*
X131728500Y-67696760D01*
X131728500Y-66971711D01*
X131720777Y-66866188D01*
X131713533Y-66767217D01*
X131654063Y-66500247D01*
X131556355Y-66244781D01*
X131556354Y-66244778D01*
X131556352Y-66244775D01*
X131422500Y-66006275D01*
X131422488Y-66006257D01*
X131255334Y-65789786D01*
X131255326Y-65789777D01*
X131058427Y-65599942D01*
X131058421Y-65599937D01*
X130835984Y-65440797D01*
X130835974Y-65440790D01*
X130592734Y-65315732D01*
X130592732Y-65315731D01*
X130333875Y-65227422D01*
X130333863Y-65227419D01*
X130064902Y-65177740D01*
X130064904Y-65177740D01*
X129830119Y-65169160D01*
X129791576Y-65167752D01*
X129791575Y-65167752D01*
X129791572Y-65167752D01*
X129519708Y-65197664D01*
X129519705Y-65197665D01*
X129255081Y-65266847D01*
X129003357Y-65373818D01*
X129003357Y-65373819D01*
X128769888Y-65516303D01*
X128600663Y-65657132D01*
X128559648Y-65691266D01*
X128377142Y-65894956D01*
X128377131Y-65894969D01*
X128226217Y-66123076D01*
X128110123Y-66370729D01*
X128031323Y-66632648D01*
X128031322Y-66632653D01*
X127991500Y-66903239D01*
X127991500Y-67628288D01*
X122128500Y-67628288D01*
X122128500Y-66971711D01*
X122120777Y-66866188D01*
X122113533Y-66767217D01*
X122054063Y-66500247D01*
X121956355Y-66244781D01*
X121956354Y-66244778D01*
X121956352Y-66244775D01*
X121822500Y-66006275D01*
X121822488Y-66006257D01*
X121655334Y-65789786D01*
X121655326Y-65789777D01*
X121458427Y-65599942D01*
X121458421Y-65599937D01*
X121235984Y-65440797D01*
X121235974Y-65440790D01*
X120992734Y-65315732D01*
X120992732Y-65315731D01*
X120733875Y-65227422D01*
X120733863Y-65227419D01*
X120464902Y-65177740D01*
X120464904Y-65177740D01*
X120230119Y-65169160D01*
X120191576Y-65167752D01*
X120191575Y-65167752D01*
X120191572Y-65167752D01*
X119919708Y-65197664D01*
X119919705Y-65197665D01*
X119655081Y-65266847D01*
X119403357Y-65373818D01*
X119403357Y-65373819D01*
X119169888Y-65516303D01*
X119000663Y-65657132D01*
X118959648Y-65691266D01*
X118777142Y-65894956D01*
X118777131Y-65894969D01*
X118626217Y-66123076D01*
X118510123Y-66370729D01*
X118431323Y-66632648D01*
X118431322Y-66632653D01*
X118391500Y-66903239D01*
X118391500Y-67628288D01*
X115075500Y-67628288D01*
X115075500Y-57083463D01*
X115095502Y-57015342D01*
X115112405Y-56994368D01*
X115948124Y-56158649D01*
X133401500Y-56158649D01*
X133408009Y-56219196D01*
X133408011Y-56219204D01*
X133459110Y-56356202D01*
X133459112Y-56356207D01*
X133546738Y-56473261D01*
X133663792Y-56560887D01*
X133663796Y-56560889D01*
X133779312Y-56603975D01*
X133836148Y-56646522D01*
X133860958Y-56713042D01*
X133845866Y-56782416D01*
X133827981Y-56807367D01*
X133684674Y-56963041D01*
X133561580Y-57151451D01*
X133471179Y-57357543D01*
X133471176Y-57357550D01*
X133423455Y-57545999D01*
X133423456Y-57546000D01*
X134328884Y-57546000D01*
X134300507Y-57590156D01*
X134260000Y-57728111D01*
X134260000Y-57871889D01*
X134300507Y-58009844D01*
X134328884Y-58054000D01*
X133423455Y-58054000D01*
X133471176Y-58242449D01*
X133471179Y-58242456D01*
X133561580Y-58448548D01*
X133684674Y-58636958D01*
X133837097Y-58802534D01*
X134014698Y-58940767D01*
X134014699Y-58940768D01*
X134212628Y-59047882D01*
X134212630Y-59047883D01*
X134425483Y-59120955D01*
X134425492Y-59120957D01*
X134506000Y-59134391D01*
X134506000Y-58233674D01*
X134617685Y-58284680D01*
X134724237Y-58300000D01*
X134795763Y-58300000D01*
X134902315Y-58284680D01*
X135014000Y-58233674D01*
X135014000Y-59134390D01*
X135094507Y-59120957D01*
X135094516Y-59120955D01*
X135307369Y-59047883D01*
X135307371Y-59047882D01*
X135505300Y-58940768D01*
X135505301Y-58940767D01*
X135682902Y-58802534D01*
X135835325Y-58636958D01*
X135958419Y-58448548D01*
X136048820Y-58242456D01*
X136048823Y-58242449D01*
X136096544Y-58054000D01*
X135191116Y-58054000D01*
X135219493Y-58009844D01*
X135260000Y-57871889D01*
X135260000Y-57728111D01*
X135219493Y-57590156D01*
X135191116Y-57546000D01*
X136096544Y-57546000D01*
X136096544Y-57545999D01*
X136048823Y-57357550D01*
X136048820Y-57357543D01*
X135958419Y-57151451D01*
X135835325Y-56963041D01*
X135692018Y-56807367D01*
X135660598Y-56743702D01*
X135668585Y-56673156D01*
X135713444Y-56618127D01*
X135740679Y-56603977D01*
X135856204Y-56560889D01*
X135973261Y-56473261D01*
X136060889Y-56356204D01*
X136111989Y-56219201D01*
X136118500Y-56158638D01*
X136118500Y-54361362D01*
X136118499Y-54361350D01*
X136111990Y-54300803D01*
X136111988Y-54300795D01*
X136060889Y-54163797D01*
X136060887Y-54163792D01*
X135973261Y-54046738D01*
X135856207Y-53959112D01*
X135856202Y-53959110D01*
X135719204Y-53908011D01*
X135719196Y-53908009D01*
X135658649Y-53901500D01*
X135658638Y-53901500D01*
X133861362Y-53901500D01*
X133861350Y-53901500D01*
X133800803Y-53908009D01*
X133800795Y-53908011D01*
X133663797Y-53959110D01*
X133663792Y-53959112D01*
X133546738Y-54046738D01*
X133459112Y-54163792D01*
X133459110Y-54163797D01*
X133408011Y-54300795D01*
X133408009Y-54300803D01*
X133401500Y-54361350D01*
X133401500Y-56158649D01*
X115948124Y-56158649D01*
X119994368Y-52112405D01*
X120056680Y-52078379D01*
X120083463Y-52075500D01*
X136548500Y-52075500D01*
X136616621Y-52095502D01*
G37*
%TD.AperFunction*%
%TD*%
M02*
