M48
; DRILL file {KiCad 7.0.5-7.0.5~ubuntu22.04.1} date Fri 07 Jul 2023 18:02:21 BST
; FORMAT={-:-/ absolute / inch / decimal}
; #@! TF.CreationDate,2023-07-07T18:02:21+01:00
; #@! TF.GenerationSoftware,Kicad,Pcbnew,7.0.5-7.0.5~ubuntu22.04.1
; #@! TF.FileFunction,Plated,1,2,PTH
FMAT,2
INCH
; #@! TA.AperFunction,Plated,PTH,ViaDrill
T1C0.0157
; #@! TA.AperFunction,Plated,PTH,ComponentDrill
T2C0.0315
; #@! TA.AperFunction,Plated,PTH,ComponentDrill
T3C0.0394
; #@! TA.AperFunction,Plated,PTH,ComponentDrill
T4C0.0394
; #@! TA.AperFunction,Plated,PTH,ComponentDrill
T5C0.0433
; #@! TA.AperFunction,Plated,PTH,ComponentDrill
T6C0.0551
%
G90
G05
T1
X5.0831Y-3.1339
X5.1579Y-3.0276
X5.2445Y-3.3583
X5.2799Y-3.4094
X5.7642Y-3.5354
X5.8154Y-3.3898
X5.9217Y-2.7795
X6.0555Y-3.4646
X6.2091Y-3.3228
X6.3252Y-3.3465
T2
X4.6642Y-3.4449
X4.6642Y-3.7449
X4.7642Y-3.4449
X4.7642Y-3.7449
X5.3515Y-2.6811
X5.4499Y-2.6811
X6.3406Y-5.315
X6.378Y-5.5197
X6.378Y-5.6181
X6.5374Y-5.315
T3
X4.8252Y-2.9449
X4.9236Y-2.9449
X5.022Y-2.9449
X5.3055Y-2.1756
X5.3055Y-2.2756
X5.4756Y-4.1654
X5.4756Y-4.3839
X5.5256Y-3.3594
X5.5748Y-4.5988
X5.5756Y-4.1654
X5.5756Y-4.3839
X5.624Y-3.3594
X5.6748Y-4.5988
X5.6756Y-4.1654
X5.6756Y-4.3839
X5.7224Y-3.3594
X5.7756Y-4.1654
X5.7756Y-4.3839
X6.2209Y-2.9439
X6.3193Y-2.9439
X6.4177Y-2.9439
T4
X4.8228Y-5.315
X4.8228Y-5.415
X5.0299Y-5.3142
X5.0299Y-5.6142
X5.1579Y-5.315
X5.1579Y-5.615
X6.122Y-5.315
X6.122Y-5.615
T6
X4.8154Y-4.5079
X4.8154Y-5.1469
X5.0654Y-4.5079
X5.0654Y-5.1469
X5.3154Y-4.5079
X5.3154Y-5.1469
X5.9281Y-4.5079
X5.9281Y-5.1469
X6.1781Y-4.5079
X6.1781Y-5.1469
X6.4281Y-4.5079
X6.4281Y-5.1469
T3
G00X4.9728Y-3.6526
M15
G01X4.9728Y-3.7018
M16
G05
G00X4.9748Y-3.8455
M15
G01X4.9748Y-3.8947
M16
G05
G00X5.148Y-3.6526
M15
G01X5.148Y-3.7018
M16
G05
G00X5.15Y-3.8455
M15
G01X5.15Y-3.8947
M16
G05
G00X5.3232Y-3.6526
M15
G01X5.3232Y-3.7018
M16
G05
G00X5.3252Y-3.8455
M15
G01X5.3252Y-3.8947
M16
G05
G00X5.4528Y-5.4262
M15
G01X5.4094Y-5.4262
M16
G05
G00X5.4528Y-5.6112
M15
G01X5.4094Y-5.6112
M16
G05
G00X5.4528Y-5.7963
M15
G01X5.4094Y-5.7963
M16
G05
G00X5.6614Y-5.4262
M15
G01X5.6181Y-5.4262
M16
G05
G00X5.6614Y-5.6122
M15
G01X5.6181Y-5.6122
M16
G05
G00X5.6614Y-5.7963
M15
G01X5.6181Y-5.7963
M16
G05
G00X5.8701Y-5.4262
M15
G01X5.8268Y-5.4262
M16
G05
G00X5.8701Y-5.6112
M15
G01X5.8268Y-5.6112
M16
G05
G00X5.8701Y-5.7963
M15
G01X5.8268Y-5.7963
M16
G05
T5
G00X4.7346Y-2.6634
M15
G01X4.7346Y-2.6358
M16
G05
G00X5.1126Y-2.6634
M15
G01X5.1126Y-2.6358
M16
G05
G00X5.435Y-3.078
M15
G01X5.435Y-3.0504
M16
G05
G00X5.813Y-3.078
M15
G01X5.813Y-3.0504
M16
G05
G00X6.1303Y-2.6624
M15
G01X6.1303Y-2.6348
M16
G05
G00X6.5083Y-2.6624
M15
G01X6.5083Y-2.6348
M16
G05
T0
M30
