%TF.GenerationSoftware,KiCad,Pcbnew,7.0.5-7.0.5~ubuntu22.04.1*%
%TF.CreationDate,2023-07-07T18:02:21+01:00*%
%TF.ProjectId,BMP,424d502e-6b69-4636-9164-5f7063625858,rev?*%
%TF.SameCoordinates,Original*%
%TF.FileFunction,Legend,Top*%
%TF.FilePolarity,Positive*%
%FSLAX46Y46*%
G04 Gerber Fmt 4.6, Leading zero omitted, Abs format (unit mm)*
G04 Created by KiCad (PCBNEW 7.0.5-7.0.5~ubuntu22.04.1) date 2023-07-07 18:02:21*
%MOMM*%
%LPD*%
G01*
G04 APERTURE LIST*
G04 Aperture macros list*
%AMRoundRect*
0 Rectangle with rounded corners*
0 $1 Rounding radius*
0 $2 $3 $4 $5 $6 $7 $8 $9 X,Y pos of 4 corners*
0 Add a 4 corners polygon primitive as box body*
4,1,4,$2,$3,$4,$5,$6,$7,$8,$9,$2,$3,0*
0 Add four circle primitives for the rounded corners*
1,1,$1+$1,$2,$3*
1,1,$1+$1,$4,$5*
1,1,$1+$1,$6,$7*
1,1,$1+$1,$8,$9*
0 Add four rect primitives between the rounded corners*
20,1,$1+$1,$2,$3,$4,$5,0*
20,1,$1+$1,$4,$5,$6,$7,0*
20,1,$1+$1,$6,$7,$8,$9,0*
20,1,$1+$1,$8,$9,$2,$3,0*%
G04 Aperture macros list end*
%ADD10C,0.150000*%
%ADD11C,0.120000*%
%ADD12R,2.600000X1.500000*%
%ADD13O,2.600000X1.500000*%
%ADD14R,2.000000X1.900000*%
%ADD15C,1.900000*%
%ADD16C,1.998980*%
%ADD17R,1.300000X1.300000*%
%ADD18C,1.300000*%
%ADD19RoundRect,0.200000X1.300000X0.750000X-1.300000X0.750000X-1.300000X-0.750000X1.300000X-0.750000X0*%
%ADD20O,3.000000X1.900000*%
%ADD21C,3.400000*%
%ADD22RoundRect,0.200000X-0.850000X-0.850000X0.850000X-0.850000X0.850000X0.850000X-0.850000X0.850000X0*%
%ADD23O,2.100000X2.100000*%
%ADD24RoundRect,0.200000X-0.850000X0.850000X-0.850000X-0.850000X0.850000X-0.850000X0.850000X0.850000X0*%
%ADD25RoundRect,0.200000X-0.800000X0.800000X-0.800000X-0.800000X0.800000X-0.800000X0.800000X0.800000X0*%
%ADD26C,2.000000*%
%ADD27RoundRect,0.200000X1.000000X0.950000X-1.000000X0.950000X-1.000000X-0.950000X1.000000X-0.950000X0*%
%ADD28C,2.300000*%
%ADD29C,2.398980*%
%ADD30RoundRect,0.200000X-0.650000X-0.650000X0.650000X-0.650000X0.650000X0.650000X-0.650000X0.650000X0*%
%ADD31C,1.700000*%
%ADD32RoundRect,0.450000X0.475000X-0.337500X0.475000X0.337500X-0.475000X0.337500X-0.475000X-0.337500X0*%
%ADD33RoundRect,0.450000X-0.475000X0.337500X-0.475000X-0.337500X0.475000X-0.337500X0.475000X0.337500X0*%
%ADD34RoundRect,0.450000X-0.337500X-0.475000X0.337500X-0.475000X0.337500X0.475000X-0.337500X0.475000X0*%
%ADD35RoundRect,0.450000X0.337500X0.475000X-0.337500X0.475000X-0.337500X-0.475000X0.337500X-0.475000X0*%
%ADD36O,3.120000X3.640000*%
%ADD37RoundRect,0.200000X0.900000X0.900000X-0.900000X0.900000X-0.900000X-0.900000X0.900000X-0.900000X0*%
%ADD38C,2.200000*%
%ADD39O,3.600000X4.800000*%
%ADD40RoundRect,0.450000X-1.000000X-0.650000X1.000000X-0.650000X1.000000X0.650000X-1.000000X0.650000X0*%
%ADD41RoundRect,0.450000X0.350000X0.450000X-0.350000X0.450000X-0.350000X-0.450000X0.350000X-0.450000X0*%
%ADD42RoundRect,0.350000X0.587500X0.150000X-0.587500X0.150000X-0.587500X-0.150000X0.587500X-0.150000X0*%
%ADD43RoundRect,0.200000X-0.800000X-0.800000X0.800000X-0.800000X0.800000X0.800000X-0.800000X0.800000X0*%
%ADD44RoundRect,0.450000X0.450000X-0.350000X0.450000X0.350000X-0.450000X0.350000X-0.450000X-0.350000X0*%
%ADD45RoundRect,0.450000X-0.350000X-0.450000X0.350000X-0.450000X0.350000X0.450000X-0.350000X0.450000X0*%
%ADD46RoundRect,0.425000X0.375000X-0.225000X0.375000X0.225000X-0.375000X0.225000X-0.375000X-0.225000X0*%
%ADD47RoundRect,0.450000X-0.450000X0.350000X-0.450000X-0.350000X0.450000X-0.350000X0.450000X0.350000X0*%
%ADD48RoundRect,0.425000X-0.225000X-0.375000X0.225000X-0.375000X0.225000X0.375000X-0.225000X0.375000X0*%
%ADD49RoundRect,0.425000X0.225000X0.375000X-0.225000X0.375000X-0.225000X-0.375000X0.225000X-0.375000X0*%
%ADD50RoundRect,0.350000X-0.150000X0.587500X-0.150000X-0.587500X0.150000X-0.587500X0.150000X0.587500X0*%
%ADD51RoundRect,0.200000X0.800000X-0.800000X0.800000X0.800000X-0.800000X0.800000X-0.800000X-0.800000X0*%
%ADD52O,2.000000X2.000000*%
%ADD53RoundRect,0.425000X-0.375000X0.225000X-0.375000X-0.225000X0.375000X-0.225000X0.375000X0.225000X0*%
%ADD54RoundRect,0.350000X0.150000X-0.587500X0.150000X0.587500X-0.150000X0.587500X-0.150000X-0.587500X0*%
G04 APERTURE END LIST*
D10*
%TO.C,J3*%
X128326666Y-133184819D02*
X128326666Y-133899104D01*
X128326666Y-133899104D02*
X128279047Y-134041961D01*
X128279047Y-134041961D02*
X128183809Y-134137200D01*
X128183809Y-134137200D02*
X128040952Y-134184819D01*
X128040952Y-134184819D02*
X127945714Y-134184819D01*
X128707619Y-133184819D02*
X129326666Y-133184819D01*
X129326666Y-133184819D02*
X128993333Y-133565771D01*
X128993333Y-133565771D02*
X129136190Y-133565771D01*
X129136190Y-133565771D02*
X129231428Y-133613390D01*
X129231428Y-133613390D02*
X129279047Y-133661009D01*
X129279047Y-133661009D02*
X129326666Y-133756247D01*
X129326666Y-133756247D02*
X129326666Y-133994342D01*
X129326666Y-133994342D02*
X129279047Y-134089580D01*
X129279047Y-134089580D02*
X129231428Y-134137200D01*
X129231428Y-134137200D02*
X129136190Y-134184819D01*
X129136190Y-134184819D02*
X128850476Y-134184819D01*
X128850476Y-134184819D02*
X128755238Y-134137200D01*
X128755238Y-134137200D02*
X128707619Y-134089580D01*
%TO.C,J1*%
X134426666Y-52384819D02*
X134426666Y-53099104D01*
X134426666Y-53099104D02*
X134379047Y-53241961D01*
X134379047Y-53241961D02*
X134283809Y-53337200D01*
X134283809Y-53337200D02*
X134140952Y-53384819D01*
X134140952Y-53384819D02*
X134045714Y-53384819D01*
X135426666Y-53384819D02*
X134855238Y-53384819D01*
X135140952Y-53384819D02*
X135140952Y-52384819D01*
X135140952Y-52384819D02*
X135045714Y-52527676D01*
X135045714Y-52527676D02*
X134950476Y-52622914D01*
X134950476Y-52622914D02*
X134855238Y-52670533D01*
%TO.C,JOVGI1*%
X141638095Y-113004819D02*
X141828571Y-113004819D01*
X141828571Y-113004819D02*
X141923809Y-113052438D01*
X141923809Y-113052438D02*
X142019047Y-113147676D01*
X142019047Y-113147676D02*
X142066666Y-113338152D01*
X142066666Y-113338152D02*
X142066666Y-113671485D01*
X142066666Y-113671485D02*
X142019047Y-113861961D01*
X142019047Y-113861961D02*
X141923809Y-113957200D01*
X141923809Y-113957200D02*
X141828571Y-114004819D01*
X141828571Y-114004819D02*
X141638095Y-114004819D01*
X141638095Y-114004819D02*
X141542857Y-113957200D01*
X141542857Y-113957200D02*
X141447619Y-113861961D01*
X141447619Y-113861961D02*
X141400000Y-113671485D01*
X141400000Y-113671485D02*
X141400000Y-113338152D01*
X141400000Y-113338152D02*
X141447619Y-113147676D01*
X141447619Y-113147676D02*
X141542857Y-113052438D01*
X141542857Y-113052438D02*
X141638095Y-113004819D01*
X142352381Y-113004819D02*
X142685714Y-114004819D01*
X142685714Y-114004819D02*
X143019047Y-113004819D01*
X143876190Y-113052438D02*
X143780952Y-113004819D01*
X143780952Y-113004819D02*
X143638095Y-113004819D01*
X143638095Y-113004819D02*
X143495238Y-113052438D01*
X143495238Y-113052438D02*
X143400000Y-113147676D01*
X143400000Y-113147676D02*
X143352381Y-113242914D01*
X143352381Y-113242914D02*
X143304762Y-113433390D01*
X143304762Y-113433390D02*
X143304762Y-113576247D01*
X143304762Y-113576247D02*
X143352381Y-113766723D01*
X143352381Y-113766723D02*
X143400000Y-113861961D01*
X143400000Y-113861961D02*
X143495238Y-113957200D01*
X143495238Y-113957200D02*
X143638095Y-114004819D01*
X143638095Y-114004819D02*
X143733333Y-114004819D01*
X143733333Y-114004819D02*
X143876190Y-113957200D01*
X143876190Y-113957200D02*
X143923809Y-113909580D01*
X143923809Y-113909580D02*
X143923809Y-113576247D01*
X143923809Y-113576247D02*
X143733333Y-113576247D01*
X144352381Y-114004819D02*
X144352381Y-113004819D01*
%TO.C,C2*%
X157783333Y-145709580D02*
X157735714Y-145757200D01*
X157735714Y-145757200D02*
X157592857Y-145804819D01*
X157592857Y-145804819D02*
X157497619Y-145804819D01*
X157497619Y-145804819D02*
X157354762Y-145757200D01*
X157354762Y-145757200D02*
X157259524Y-145661961D01*
X157259524Y-145661961D02*
X157211905Y-145566723D01*
X157211905Y-145566723D02*
X157164286Y-145376247D01*
X157164286Y-145376247D02*
X157164286Y-145233390D01*
X157164286Y-145233390D02*
X157211905Y-145042914D01*
X157211905Y-145042914D02*
X157259524Y-144947676D01*
X157259524Y-144947676D02*
X157354762Y-144852438D01*
X157354762Y-144852438D02*
X157497619Y-144804819D01*
X157497619Y-144804819D02*
X157592857Y-144804819D01*
X157592857Y-144804819D02*
X157735714Y-144852438D01*
X157735714Y-144852438D02*
X157783333Y-144900057D01*
X158164286Y-144900057D02*
X158211905Y-144852438D01*
X158211905Y-144852438D02*
X158307143Y-144804819D01*
X158307143Y-144804819D02*
X158545238Y-144804819D01*
X158545238Y-144804819D02*
X158640476Y-144852438D01*
X158640476Y-144852438D02*
X158688095Y-144900057D01*
X158688095Y-144900057D02*
X158735714Y-144995295D01*
X158735714Y-144995295D02*
X158735714Y-145090533D01*
X158735714Y-145090533D02*
X158688095Y-145233390D01*
X158688095Y-145233390D02*
X158116667Y-145804819D01*
X158116667Y-145804819D02*
X158735714Y-145804819D01*
X156902380Y-147304819D02*
X156330952Y-147304819D01*
X156616666Y-147304819D02*
X156616666Y-146304819D01*
X156616666Y-146304819D02*
X156521428Y-146447676D01*
X156521428Y-146447676D02*
X156426190Y-146542914D01*
X156426190Y-146542914D02*
X156330952Y-146590533D01*
X157521428Y-146304819D02*
X157616666Y-146304819D01*
X157616666Y-146304819D02*
X157711904Y-146352438D01*
X157711904Y-146352438D02*
X157759523Y-146400057D01*
X157759523Y-146400057D02*
X157807142Y-146495295D01*
X157807142Y-146495295D02*
X157854761Y-146685771D01*
X157854761Y-146685771D02*
X157854761Y-146923866D01*
X157854761Y-146923866D02*
X157807142Y-147114342D01*
X157807142Y-147114342D02*
X157759523Y-147209580D01*
X157759523Y-147209580D02*
X157711904Y-147257200D01*
X157711904Y-147257200D02*
X157616666Y-147304819D01*
X157616666Y-147304819D02*
X157521428Y-147304819D01*
X157521428Y-147304819D02*
X157426190Y-147257200D01*
X157426190Y-147257200D02*
X157378571Y-147209580D01*
X157378571Y-147209580D02*
X157330952Y-147114342D01*
X157330952Y-147114342D02*
X157283333Y-146923866D01*
X157283333Y-146923866D02*
X157283333Y-146685771D01*
X157283333Y-146685771D02*
X157330952Y-146495295D01*
X157330952Y-146495295D02*
X157378571Y-146400057D01*
X157378571Y-146400057D02*
X157426190Y-146352438D01*
X157426190Y-146352438D02*
X157521428Y-146304819D01*
X158473809Y-146304819D02*
X158569047Y-146304819D01*
X158569047Y-146304819D02*
X158664285Y-146352438D01*
X158664285Y-146352438D02*
X158711904Y-146400057D01*
X158711904Y-146400057D02*
X158759523Y-146495295D01*
X158759523Y-146495295D02*
X158807142Y-146685771D01*
X158807142Y-146685771D02*
X158807142Y-146923866D01*
X158807142Y-146923866D02*
X158759523Y-147114342D01*
X158759523Y-147114342D02*
X158711904Y-147209580D01*
X158711904Y-147209580D02*
X158664285Y-147257200D01*
X158664285Y-147257200D02*
X158569047Y-147304819D01*
X158569047Y-147304819D02*
X158473809Y-147304819D01*
X158473809Y-147304819D02*
X158378571Y-147257200D01*
X158378571Y-147257200D02*
X158330952Y-147209580D01*
X158330952Y-147209580D02*
X158283333Y-147114342D01*
X158283333Y-147114342D02*
X158235714Y-146923866D01*
X158235714Y-146923866D02*
X158235714Y-146685771D01*
X158235714Y-146685771D02*
X158283333Y-146495295D01*
X158283333Y-146495295D02*
X158330952Y-146400057D01*
X158330952Y-146400057D02*
X158378571Y-146352438D01*
X158378571Y-146352438D02*
X158473809Y-146304819D01*
X159664285Y-146638152D02*
X159664285Y-147304819D01*
X159235714Y-146638152D02*
X159235714Y-147161961D01*
X159235714Y-147161961D02*
X159283333Y-147257200D01*
X159283333Y-147257200D02*
X159378571Y-147304819D01*
X159378571Y-147304819D02*
X159521428Y-147304819D01*
X159521428Y-147304819D02*
X159616666Y-147257200D01*
X159616666Y-147257200D02*
X159664285Y-147209580D01*
X160473809Y-146781009D02*
X160140476Y-146781009D01*
X160140476Y-147304819D02*
X160140476Y-146304819D01*
X160140476Y-146304819D02*
X160616666Y-146304819D01*
%TO.C,D1*%
X122261905Y-140454819D02*
X122261905Y-139454819D01*
X122261905Y-139454819D02*
X122500000Y-139454819D01*
X122500000Y-139454819D02*
X122642857Y-139502438D01*
X122642857Y-139502438D02*
X122738095Y-139597676D01*
X122738095Y-139597676D02*
X122785714Y-139692914D01*
X122785714Y-139692914D02*
X122833333Y-139883390D01*
X122833333Y-139883390D02*
X122833333Y-140026247D01*
X122833333Y-140026247D02*
X122785714Y-140216723D01*
X122785714Y-140216723D02*
X122738095Y-140311961D01*
X122738095Y-140311961D02*
X122642857Y-140407200D01*
X122642857Y-140407200D02*
X122500000Y-140454819D01*
X122500000Y-140454819D02*
X122261905Y-140454819D01*
X123785714Y-140454819D02*
X123214286Y-140454819D01*
X123500000Y-140454819D02*
X123500000Y-139454819D01*
X123500000Y-139454819D02*
X123404762Y-139597676D01*
X123404762Y-139597676D02*
X123309524Y-139692914D01*
X123309524Y-139692914D02*
X123214286Y-139740533D01*
%TO.C,R1*%
X153804819Y-137316666D02*
X153328628Y-137649999D01*
X153804819Y-137888094D02*
X152804819Y-137888094D01*
X152804819Y-137888094D02*
X152804819Y-137507142D01*
X152804819Y-137507142D02*
X152852438Y-137411904D01*
X152852438Y-137411904D02*
X152900057Y-137364285D01*
X152900057Y-137364285D02*
X152995295Y-137316666D01*
X152995295Y-137316666D02*
X153138152Y-137316666D01*
X153138152Y-137316666D02*
X153233390Y-137364285D01*
X153233390Y-137364285D02*
X153281009Y-137411904D01*
X153281009Y-137411904D02*
X153328628Y-137507142D01*
X153328628Y-137507142D02*
X153328628Y-137888094D01*
X153804819Y-136364285D02*
X153804819Y-136935713D01*
X153804819Y-136649999D02*
X152804819Y-136649999D01*
X152804819Y-136649999D02*
X152947676Y-136745237D01*
X152947676Y-136745237D02*
X153042914Y-136840475D01*
X153042914Y-136840475D02*
X153090533Y-136935713D01*
X153804819Y-140435714D02*
X153804819Y-141007142D01*
X153804819Y-140721428D02*
X152804819Y-140721428D01*
X152804819Y-140721428D02*
X152947676Y-140816666D01*
X152947676Y-140816666D02*
X153042914Y-140911904D01*
X153042914Y-140911904D02*
X153090533Y-141007142D01*
X153804819Y-140007142D02*
X152804819Y-140007142D01*
X152804819Y-140007142D02*
X153519104Y-139673809D01*
X153519104Y-139673809D02*
X152804819Y-139340476D01*
X152804819Y-139340476D02*
X153804819Y-139340476D01*
%TO.C,R2*%
X125964819Y-143146666D02*
X125488628Y-143479999D01*
X125964819Y-143718094D02*
X124964819Y-143718094D01*
X124964819Y-143718094D02*
X124964819Y-143337142D01*
X124964819Y-143337142D02*
X125012438Y-143241904D01*
X125012438Y-143241904D02*
X125060057Y-143194285D01*
X125060057Y-143194285D02*
X125155295Y-143146666D01*
X125155295Y-143146666D02*
X125298152Y-143146666D01*
X125298152Y-143146666D02*
X125393390Y-143194285D01*
X125393390Y-143194285D02*
X125441009Y-143241904D01*
X125441009Y-143241904D02*
X125488628Y-143337142D01*
X125488628Y-143337142D02*
X125488628Y-143718094D01*
X125060057Y-142765713D02*
X125012438Y-142718094D01*
X125012438Y-142718094D02*
X124964819Y-142622856D01*
X124964819Y-142622856D02*
X124964819Y-142384761D01*
X124964819Y-142384761D02*
X125012438Y-142289523D01*
X125012438Y-142289523D02*
X125060057Y-142241904D01*
X125060057Y-142241904D02*
X125155295Y-142194285D01*
X125155295Y-142194285D02*
X125250533Y-142194285D01*
X125250533Y-142194285D02*
X125393390Y-142241904D01*
X125393390Y-142241904D02*
X125964819Y-142813332D01*
X125964819Y-142813332D02*
X125964819Y-142194285D01*
X125964819Y-140194285D02*
X125964819Y-140765713D01*
X125964819Y-140479999D02*
X124964819Y-140479999D01*
X124964819Y-140479999D02*
X125107676Y-140575237D01*
X125107676Y-140575237D02*
X125202914Y-140670475D01*
X125202914Y-140670475D02*
X125250533Y-140765713D01*
X125964819Y-139765713D02*
X124964819Y-139765713D01*
X125964819Y-139194285D02*
X125393390Y-139622856D01*
X124964819Y-139194285D02*
X125536247Y-139765713D01*
%TO.C,R3*%
X133714819Y-137916666D02*
X133238628Y-138249999D01*
X133714819Y-138488094D02*
X132714819Y-138488094D01*
X132714819Y-138488094D02*
X132714819Y-138107142D01*
X132714819Y-138107142D02*
X132762438Y-138011904D01*
X132762438Y-138011904D02*
X132810057Y-137964285D01*
X132810057Y-137964285D02*
X132905295Y-137916666D01*
X132905295Y-137916666D02*
X133048152Y-137916666D01*
X133048152Y-137916666D02*
X133143390Y-137964285D01*
X133143390Y-137964285D02*
X133191009Y-138011904D01*
X133191009Y-138011904D02*
X133238628Y-138107142D01*
X133238628Y-138107142D02*
X133238628Y-138488094D01*
X132714819Y-137583332D02*
X132714819Y-136964285D01*
X132714819Y-136964285D02*
X133095771Y-137297618D01*
X133095771Y-137297618D02*
X133095771Y-137154761D01*
X133095771Y-137154761D02*
X133143390Y-137059523D01*
X133143390Y-137059523D02*
X133191009Y-137011904D01*
X133191009Y-137011904D02*
X133286247Y-136964285D01*
X133286247Y-136964285D02*
X133524342Y-136964285D01*
X133524342Y-136964285D02*
X133619580Y-137011904D01*
X133619580Y-137011904D02*
X133667200Y-137059523D01*
X133667200Y-137059523D02*
X133714819Y-137154761D01*
X133714819Y-137154761D02*
X133714819Y-137440475D01*
X133714819Y-137440475D02*
X133667200Y-137535713D01*
X133667200Y-137535713D02*
X133619580Y-137583332D01*
X133714819Y-135035714D02*
X133714819Y-135607142D01*
X133714819Y-135321428D02*
X132714819Y-135321428D01*
X132714819Y-135321428D02*
X132857676Y-135416666D01*
X132857676Y-135416666D02*
X132952914Y-135511904D01*
X132952914Y-135511904D02*
X133000533Y-135607142D01*
X133714819Y-134607142D02*
X132714819Y-134607142D01*
X132714819Y-134607142D02*
X133429104Y-134273809D01*
X133429104Y-134273809D02*
X132714819Y-133940476D01*
X132714819Y-133940476D02*
X133714819Y-133940476D01*
%TO.C,C1*%
X159359580Y-135166666D02*
X159407200Y-135214285D01*
X159407200Y-135214285D02*
X159454819Y-135357142D01*
X159454819Y-135357142D02*
X159454819Y-135452380D01*
X159454819Y-135452380D02*
X159407200Y-135595237D01*
X159407200Y-135595237D02*
X159311961Y-135690475D01*
X159311961Y-135690475D02*
X159216723Y-135738094D01*
X159216723Y-135738094D02*
X159026247Y-135785713D01*
X159026247Y-135785713D02*
X158883390Y-135785713D01*
X158883390Y-135785713D02*
X158692914Y-135738094D01*
X158692914Y-135738094D02*
X158597676Y-135690475D01*
X158597676Y-135690475D02*
X158502438Y-135595237D01*
X158502438Y-135595237D02*
X158454819Y-135452380D01*
X158454819Y-135452380D02*
X158454819Y-135357142D01*
X158454819Y-135357142D02*
X158502438Y-135214285D01*
X158502438Y-135214285D02*
X158550057Y-135166666D01*
X159454819Y-134214285D02*
X159454819Y-134785713D01*
X159454819Y-134499999D02*
X158454819Y-134499999D01*
X158454819Y-134499999D02*
X158597676Y-134595237D01*
X158597676Y-134595237D02*
X158692914Y-134690475D01*
X158692914Y-134690475D02*
X158740533Y-134785713D01*
X168454819Y-136547619D02*
X168454819Y-137119047D01*
X168454819Y-136833333D02*
X167454819Y-136833333D01*
X167454819Y-136833333D02*
X167597676Y-136928571D01*
X167597676Y-136928571D02*
X167692914Y-137023809D01*
X167692914Y-137023809D02*
X167740533Y-137119047D01*
X167454819Y-135928571D02*
X167454819Y-135833333D01*
X167454819Y-135833333D02*
X167502438Y-135738095D01*
X167502438Y-135738095D02*
X167550057Y-135690476D01*
X167550057Y-135690476D02*
X167645295Y-135642857D01*
X167645295Y-135642857D02*
X167835771Y-135595238D01*
X167835771Y-135595238D02*
X168073866Y-135595238D01*
X168073866Y-135595238D02*
X168264342Y-135642857D01*
X168264342Y-135642857D02*
X168359580Y-135690476D01*
X168359580Y-135690476D02*
X168407200Y-135738095D01*
X168407200Y-135738095D02*
X168454819Y-135833333D01*
X168454819Y-135833333D02*
X168454819Y-135928571D01*
X168454819Y-135928571D02*
X168407200Y-136023809D01*
X168407200Y-136023809D02*
X168359580Y-136071428D01*
X168359580Y-136071428D02*
X168264342Y-136119047D01*
X168264342Y-136119047D02*
X168073866Y-136166666D01*
X168073866Y-136166666D02*
X167835771Y-136166666D01*
X167835771Y-136166666D02*
X167645295Y-136119047D01*
X167645295Y-136119047D02*
X167550057Y-136071428D01*
X167550057Y-136071428D02*
X167502438Y-136023809D01*
X167502438Y-136023809D02*
X167454819Y-135928571D01*
X167454819Y-134976190D02*
X167454819Y-134880952D01*
X167454819Y-134880952D02*
X167502438Y-134785714D01*
X167502438Y-134785714D02*
X167550057Y-134738095D01*
X167550057Y-134738095D02*
X167645295Y-134690476D01*
X167645295Y-134690476D02*
X167835771Y-134642857D01*
X167835771Y-134642857D02*
X168073866Y-134642857D01*
X168073866Y-134642857D02*
X168264342Y-134690476D01*
X168264342Y-134690476D02*
X168359580Y-134738095D01*
X168359580Y-134738095D02*
X168407200Y-134785714D01*
X168407200Y-134785714D02*
X168454819Y-134880952D01*
X168454819Y-134880952D02*
X168454819Y-134976190D01*
X168454819Y-134976190D02*
X168407200Y-135071428D01*
X168407200Y-135071428D02*
X168359580Y-135119047D01*
X168359580Y-135119047D02*
X168264342Y-135166666D01*
X168264342Y-135166666D02*
X168073866Y-135214285D01*
X168073866Y-135214285D02*
X167835771Y-135214285D01*
X167835771Y-135214285D02*
X167645295Y-135166666D01*
X167645295Y-135166666D02*
X167550057Y-135119047D01*
X167550057Y-135119047D02*
X167502438Y-135071428D01*
X167502438Y-135071428D02*
X167454819Y-134976190D01*
X167788152Y-134214285D02*
X168454819Y-134214285D01*
X167883390Y-134214285D02*
X167835771Y-134166666D01*
X167835771Y-134166666D02*
X167788152Y-134071428D01*
X167788152Y-134071428D02*
X167788152Y-133928571D01*
X167788152Y-133928571D02*
X167835771Y-133833333D01*
X167835771Y-133833333D02*
X167931009Y-133785714D01*
X167931009Y-133785714D02*
X168454819Y-133785714D01*
X167931009Y-132976190D02*
X167931009Y-133309523D01*
X168454819Y-133309523D02*
X167454819Y-133309523D01*
X167454819Y-133309523D02*
X167454819Y-132833333D01*
%TO.C,J4*%
X145924819Y-117143333D02*
X146639104Y-117143333D01*
X146639104Y-117143333D02*
X146781961Y-117190952D01*
X146781961Y-117190952D02*
X146877200Y-117286190D01*
X146877200Y-117286190D02*
X146924819Y-117429047D01*
X146924819Y-117429047D02*
X146924819Y-117524285D01*
X146258152Y-116238571D02*
X146924819Y-116238571D01*
X145877200Y-116476666D02*
X146591485Y-116714761D01*
X146591485Y-116714761D02*
X146591485Y-116095714D01*
%TO.C,J2*%
X156591666Y-110954819D02*
X156591666Y-111669104D01*
X156591666Y-111669104D02*
X156544047Y-111811961D01*
X156544047Y-111811961D02*
X156448809Y-111907200D01*
X156448809Y-111907200D02*
X156305952Y-111954819D01*
X156305952Y-111954819D02*
X156210714Y-111954819D01*
X157020238Y-111050057D02*
X157067857Y-111002438D01*
X157067857Y-111002438D02*
X157163095Y-110954819D01*
X157163095Y-110954819D02*
X157401190Y-110954819D01*
X157401190Y-110954819D02*
X157496428Y-111002438D01*
X157496428Y-111002438D02*
X157544047Y-111050057D01*
X157544047Y-111050057D02*
X157591666Y-111145295D01*
X157591666Y-111145295D02*
X157591666Y-111240533D01*
X157591666Y-111240533D02*
X157544047Y-111383390D01*
X157544047Y-111383390D02*
X156972619Y-111954819D01*
X156972619Y-111954819D02*
X157591666Y-111954819D01*
%TO.C,C16*%
X121619580Y-102192857D02*
X121667200Y-102240476D01*
X121667200Y-102240476D02*
X121714819Y-102383333D01*
X121714819Y-102383333D02*
X121714819Y-102478571D01*
X121714819Y-102478571D02*
X121667200Y-102621428D01*
X121667200Y-102621428D02*
X121571961Y-102716666D01*
X121571961Y-102716666D02*
X121476723Y-102764285D01*
X121476723Y-102764285D02*
X121286247Y-102811904D01*
X121286247Y-102811904D02*
X121143390Y-102811904D01*
X121143390Y-102811904D02*
X120952914Y-102764285D01*
X120952914Y-102764285D02*
X120857676Y-102716666D01*
X120857676Y-102716666D02*
X120762438Y-102621428D01*
X120762438Y-102621428D02*
X120714819Y-102478571D01*
X120714819Y-102478571D02*
X120714819Y-102383333D01*
X120714819Y-102383333D02*
X120762438Y-102240476D01*
X120762438Y-102240476D02*
X120810057Y-102192857D01*
X121714819Y-101240476D02*
X121714819Y-101811904D01*
X121714819Y-101526190D02*
X120714819Y-101526190D01*
X120714819Y-101526190D02*
X120857676Y-101621428D01*
X120857676Y-101621428D02*
X120952914Y-101716666D01*
X120952914Y-101716666D02*
X121000533Y-101811904D01*
X120714819Y-100383333D02*
X120714819Y-100573809D01*
X120714819Y-100573809D02*
X120762438Y-100669047D01*
X120762438Y-100669047D02*
X120810057Y-100716666D01*
X120810057Y-100716666D02*
X120952914Y-100811904D01*
X120952914Y-100811904D02*
X121143390Y-100859523D01*
X121143390Y-100859523D02*
X121524342Y-100859523D01*
X121524342Y-100859523D02*
X121619580Y-100811904D01*
X121619580Y-100811904D02*
X121667200Y-100764285D01*
X121667200Y-100764285D02*
X121714819Y-100669047D01*
X121714819Y-100669047D02*
X121714819Y-100478571D01*
X121714819Y-100478571D02*
X121667200Y-100383333D01*
X121667200Y-100383333D02*
X121619580Y-100335714D01*
X121619580Y-100335714D02*
X121524342Y-100288095D01*
X121524342Y-100288095D02*
X121286247Y-100288095D01*
X121286247Y-100288095D02*
X121191009Y-100335714D01*
X121191009Y-100335714D02*
X121143390Y-100383333D01*
X121143390Y-100383333D02*
X121095771Y-100478571D01*
X121095771Y-100478571D02*
X121095771Y-100669047D01*
X121095771Y-100669047D02*
X121143390Y-100764285D01*
X121143390Y-100764285D02*
X121191009Y-100811904D01*
X121191009Y-100811904D02*
X121286247Y-100859523D01*
%TO.C,C17*%
X123119580Y-88942857D02*
X123167200Y-88990476D01*
X123167200Y-88990476D02*
X123214819Y-89133333D01*
X123214819Y-89133333D02*
X123214819Y-89228571D01*
X123214819Y-89228571D02*
X123167200Y-89371428D01*
X123167200Y-89371428D02*
X123071961Y-89466666D01*
X123071961Y-89466666D02*
X122976723Y-89514285D01*
X122976723Y-89514285D02*
X122786247Y-89561904D01*
X122786247Y-89561904D02*
X122643390Y-89561904D01*
X122643390Y-89561904D02*
X122452914Y-89514285D01*
X122452914Y-89514285D02*
X122357676Y-89466666D01*
X122357676Y-89466666D02*
X122262438Y-89371428D01*
X122262438Y-89371428D02*
X122214819Y-89228571D01*
X122214819Y-89228571D02*
X122214819Y-89133333D01*
X122214819Y-89133333D02*
X122262438Y-88990476D01*
X122262438Y-88990476D02*
X122310057Y-88942857D01*
X123214819Y-87990476D02*
X123214819Y-88561904D01*
X123214819Y-88276190D02*
X122214819Y-88276190D01*
X122214819Y-88276190D02*
X122357676Y-88371428D01*
X122357676Y-88371428D02*
X122452914Y-88466666D01*
X122452914Y-88466666D02*
X122500533Y-88561904D01*
X122214819Y-87657142D02*
X122214819Y-86990476D01*
X122214819Y-86990476D02*
X123214819Y-87419047D01*
%TO.C,C6*%
X144843333Y-89909580D02*
X144795714Y-89957200D01*
X144795714Y-89957200D02*
X144652857Y-90004819D01*
X144652857Y-90004819D02*
X144557619Y-90004819D01*
X144557619Y-90004819D02*
X144414762Y-89957200D01*
X144414762Y-89957200D02*
X144319524Y-89861961D01*
X144319524Y-89861961D02*
X144271905Y-89766723D01*
X144271905Y-89766723D02*
X144224286Y-89576247D01*
X144224286Y-89576247D02*
X144224286Y-89433390D01*
X144224286Y-89433390D02*
X144271905Y-89242914D01*
X144271905Y-89242914D02*
X144319524Y-89147676D01*
X144319524Y-89147676D02*
X144414762Y-89052438D01*
X144414762Y-89052438D02*
X144557619Y-89004819D01*
X144557619Y-89004819D02*
X144652857Y-89004819D01*
X144652857Y-89004819D02*
X144795714Y-89052438D01*
X144795714Y-89052438D02*
X144843333Y-89100057D01*
X145700476Y-89004819D02*
X145510000Y-89004819D01*
X145510000Y-89004819D02*
X145414762Y-89052438D01*
X145414762Y-89052438D02*
X145367143Y-89100057D01*
X145367143Y-89100057D02*
X145271905Y-89242914D01*
X145271905Y-89242914D02*
X145224286Y-89433390D01*
X145224286Y-89433390D02*
X145224286Y-89814342D01*
X145224286Y-89814342D02*
X145271905Y-89909580D01*
X145271905Y-89909580D02*
X145319524Y-89957200D01*
X145319524Y-89957200D02*
X145414762Y-90004819D01*
X145414762Y-90004819D02*
X145605238Y-90004819D01*
X145605238Y-90004819D02*
X145700476Y-89957200D01*
X145700476Y-89957200D02*
X145748095Y-89909580D01*
X145748095Y-89909580D02*
X145795714Y-89814342D01*
X145795714Y-89814342D02*
X145795714Y-89576247D01*
X145795714Y-89576247D02*
X145748095Y-89481009D01*
X145748095Y-89481009D02*
X145700476Y-89433390D01*
X145700476Y-89433390D02*
X145605238Y-89385771D01*
X145605238Y-89385771D02*
X145414762Y-89385771D01*
X145414762Y-89385771D02*
X145319524Y-89433390D01*
X145319524Y-89433390D02*
X145271905Y-89481009D01*
X145271905Y-89481009D02*
X145224286Y-89576247D01*
%TO.C,C14*%
X155367142Y-76159580D02*
X155319523Y-76207200D01*
X155319523Y-76207200D02*
X155176666Y-76254819D01*
X155176666Y-76254819D02*
X155081428Y-76254819D01*
X155081428Y-76254819D02*
X154938571Y-76207200D01*
X154938571Y-76207200D02*
X154843333Y-76111961D01*
X154843333Y-76111961D02*
X154795714Y-76016723D01*
X154795714Y-76016723D02*
X154748095Y-75826247D01*
X154748095Y-75826247D02*
X154748095Y-75683390D01*
X154748095Y-75683390D02*
X154795714Y-75492914D01*
X154795714Y-75492914D02*
X154843333Y-75397676D01*
X154843333Y-75397676D02*
X154938571Y-75302438D01*
X154938571Y-75302438D02*
X155081428Y-75254819D01*
X155081428Y-75254819D02*
X155176666Y-75254819D01*
X155176666Y-75254819D02*
X155319523Y-75302438D01*
X155319523Y-75302438D02*
X155367142Y-75350057D01*
X156319523Y-76254819D02*
X155748095Y-76254819D01*
X156033809Y-76254819D02*
X156033809Y-75254819D01*
X156033809Y-75254819D02*
X155938571Y-75397676D01*
X155938571Y-75397676D02*
X155843333Y-75492914D01*
X155843333Y-75492914D02*
X155748095Y-75540533D01*
X157176666Y-75588152D02*
X157176666Y-76254819D01*
X156938571Y-75207200D02*
X156700476Y-75921485D01*
X156700476Y-75921485D02*
X157319523Y-75921485D01*
%TO.C,RV2*%
X136164819Y-79215238D02*
X135688628Y-79548571D01*
X136164819Y-79786666D02*
X135164819Y-79786666D01*
X135164819Y-79786666D02*
X135164819Y-79405714D01*
X135164819Y-79405714D02*
X135212438Y-79310476D01*
X135212438Y-79310476D02*
X135260057Y-79262857D01*
X135260057Y-79262857D02*
X135355295Y-79215238D01*
X135355295Y-79215238D02*
X135498152Y-79215238D01*
X135498152Y-79215238D02*
X135593390Y-79262857D01*
X135593390Y-79262857D02*
X135641009Y-79310476D01*
X135641009Y-79310476D02*
X135688628Y-79405714D01*
X135688628Y-79405714D02*
X135688628Y-79786666D01*
X135164819Y-78929523D02*
X136164819Y-78596190D01*
X136164819Y-78596190D02*
X135164819Y-78262857D01*
X135260057Y-77977142D02*
X135212438Y-77929523D01*
X135212438Y-77929523D02*
X135164819Y-77834285D01*
X135164819Y-77834285D02*
X135164819Y-77596190D01*
X135164819Y-77596190D02*
X135212438Y-77500952D01*
X135212438Y-77500952D02*
X135260057Y-77453333D01*
X135260057Y-77453333D02*
X135355295Y-77405714D01*
X135355295Y-77405714D02*
X135450533Y-77405714D01*
X135450533Y-77405714D02*
X135593390Y-77453333D01*
X135593390Y-77453333D02*
X136164819Y-78024761D01*
X136164819Y-78024761D02*
X136164819Y-77405714D01*
%TO.C,D6*%
X123771905Y-60254819D02*
X123771905Y-59254819D01*
X123771905Y-59254819D02*
X124010000Y-59254819D01*
X124010000Y-59254819D02*
X124152857Y-59302438D01*
X124152857Y-59302438D02*
X124248095Y-59397676D01*
X124248095Y-59397676D02*
X124295714Y-59492914D01*
X124295714Y-59492914D02*
X124343333Y-59683390D01*
X124343333Y-59683390D02*
X124343333Y-59826247D01*
X124343333Y-59826247D02*
X124295714Y-60016723D01*
X124295714Y-60016723D02*
X124248095Y-60111961D01*
X124248095Y-60111961D02*
X124152857Y-60207200D01*
X124152857Y-60207200D02*
X124010000Y-60254819D01*
X124010000Y-60254819D02*
X123771905Y-60254819D01*
X125200476Y-59254819D02*
X125010000Y-59254819D01*
X125010000Y-59254819D02*
X124914762Y-59302438D01*
X124914762Y-59302438D02*
X124867143Y-59350057D01*
X124867143Y-59350057D02*
X124771905Y-59492914D01*
X124771905Y-59492914D02*
X124724286Y-59683390D01*
X124724286Y-59683390D02*
X124724286Y-60064342D01*
X124724286Y-60064342D02*
X124771905Y-60159580D01*
X124771905Y-60159580D02*
X124819524Y-60207200D01*
X124819524Y-60207200D02*
X124914762Y-60254819D01*
X124914762Y-60254819D02*
X125105238Y-60254819D01*
X125105238Y-60254819D02*
X125200476Y-60207200D01*
X125200476Y-60207200D02*
X125248095Y-60159580D01*
X125248095Y-60159580D02*
X125295714Y-60064342D01*
X125295714Y-60064342D02*
X125295714Y-59826247D01*
X125295714Y-59826247D02*
X125248095Y-59731009D01*
X125248095Y-59731009D02*
X125200476Y-59683390D01*
X125200476Y-59683390D02*
X125105238Y-59635771D01*
X125105238Y-59635771D02*
X124914762Y-59635771D01*
X124914762Y-59635771D02*
X124819524Y-59683390D01*
X124819524Y-59683390D02*
X124771905Y-59731009D01*
X124771905Y-59731009D02*
X124724286Y-59826247D01*
%TO.C,C12*%
X158117142Y-88409580D02*
X158069523Y-88457200D01*
X158069523Y-88457200D02*
X157926666Y-88504819D01*
X157926666Y-88504819D02*
X157831428Y-88504819D01*
X157831428Y-88504819D02*
X157688571Y-88457200D01*
X157688571Y-88457200D02*
X157593333Y-88361961D01*
X157593333Y-88361961D02*
X157545714Y-88266723D01*
X157545714Y-88266723D02*
X157498095Y-88076247D01*
X157498095Y-88076247D02*
X157498095Y-87933390D01*
X157498095Y-87933390D02*
X157545714Y-87742914D01*
X157545714Y-87742914D02*
X157593333Y-87647676D01*
X157593333Y-87647676D02*
X157688571Y-87552438D01*
X157688571Y-87552438D02*
X157831428Y-87504819D01*
X157831428Y-87504819D02*
X157926666Y-87504819D01*
X157926666Y-87504819D02*
X158069523Y-87552438D01*
X158069523Y-87552438D02*
X158117142Y-87600057D01*
X159069523Y-88504819D02*
X158498095Y-88504819D01*
X158783809Y-88504819D02*
X158783809Y-87504819D01*
X158783809Y-87504819D02*
X158688571Y-87647676D01*
X158688571Y-87647676D02*
X158593333Y-87742914D01*
X158593333Y-87742914D02*
X158498095Y-87790533D01*
X159450476Y-87600057D02*
X159498095Y-87552438D01*
X159498095Y-87552438D02*
X159593333Y-87504819D01*
X159593333Y-87504819D02*
X159831428Y-87504819D01*
X159831428Y-87504819D02*
X159926666Y-87552438D01*
X159926666Y-87552438D02*
X159974285Y-87600057D01*
X159974285Y-87600057D02*
X160021904Y-87695295D01*
X160021904Y-87695295D02*
X160021904Y-87790533D01*
X160021904Y-87790533D02*
X159974285Y-87933390D01*
X159974285Y-87933390D02*
X159402857Y-88504819D01*
X159402857Y-88504819D02*
X160021904Y-88504819D01*
%TO.C,R17*%
X162367142Y-93754819D02*
X162033809Y-93278628D01*
X161795714Y-93754819D02*
X161795714Y-92754819D01*
X161795714Y-92754819D02*
X162176666Y-92754819D01*
X162176666Y-92754819D02*
X162271904Y-92802438D01*
X162271904Y-92802438D02*
X162319523Y-92850057D01*
X162319523Y-92850057D02*
X162367142Y-92945295D01*
X162367142Y-92945295D02*
X162367142Y-93088152D01*
X162367142Y-93088152D02*
X162319523Y-93183390D01*
X162319523Y-93183390D02*
X162271904Y-93231009D01*
X162271904Y-93231009D02*
X162176666Y-93278628D01*
X162176666Y-93278628D02*
X161795714Y-93278628D01*
X163319523Y-93754819D02*
X162748095Y-93754819D01*
X163033809Y-93754819D02*
X163033809Y-92754819D01*
X163033809Y-92754819D02*
X162938571Y-92897676D01*
X162938571Y-92897676D02*
X162843333Y-92992914D01*
X162843333Y-92992914D02*
X162748095Y-93040533D01*
X163652857Y-92754819D02*
X164319523Y-92754819D01*
X164319523Y-92754819D02*
X163890952Y-93754819D01*
%TO.C,Q1*%
X148352261Y-95100057D02*
X148257023Y-95052438D01*
X148257023Y-95052438D02*
X148161785Y-94957200D01*
X148161785Y-94957200D02*
X148018928Y-94814342D01*
X148018928Y-94814342D02*
X147923690Y-94766723D01*
X147923690Y-94766723D02*
X147828452Y-94766723D01*
X147876071Y-95004819D02*
X147780833Y-94957200D01*
X147780833Y-94957200D02*
X147685595Y-94861961D01*
X147685595Y-94861961D02*
X147637976Y-94671485D01*
X147637976Y-94671485D02*
X147637976Y-94338152D01*
X147637976Y-94338152D02*
X147685595Y-94147676D01*
X147685595Y-94147676D02*
X147780833Y-94052438D01*
X147780833Y-94052438D02*
X147876071Y-94004819D01*
X147876071Y-94004819D02*
X148066547Y-94004819D01*
X148066547Y-94004819D02*
X148161785Y-94052438D01*
X148161785Y-94052438D02*
X148257023Y-94147676D01*
X148257023Y-94147676D02*
X148304642Y-94338152D01*
X148304642Y-94338152D02*
X148304642Y-94671485D01*
X148304642Y-94671485D02*
X148257023Y-94861961D01*
X148257023Y-94861961D02*
X148161785Y-94957200D01*
X148161785Y-94957200D02*
X148066547Y-95004819D01*
X148066547Y-95004819D02*
X147876071Y-95004819D01*
X149257023Y-95004819D02*
X148685595Y-95004819D01*
X148971309Y-95004819D02*
X148971309Y-94004819D01*
X148971309Y-94004819D02*
X148876071Y-94147676D01*
X148876071Y-94147676D02*
X148780833Y-94242914D01*
X148780833Y-94242914D02*
X148685595Y-94290533D01*
%TO.C,C7*%
X154093333Y-79409580D02*
X154045714Y-79457200D01*
X154045714Y-79457200D02*
X153902857Y-79504819D01*
X153902857Y-79504819D02*
X153807619Y-79504819D01*
X153807619Y-79504819D02*
X153664762Y-79457200D01*
X153664762Y-79457200D02*
X153569524Y-79361961D01*
X153569524Y-79361961D02*
X153521905Y-79266723D01*
X153521905Y-79266723D02*
X153474286Y-79076247D01*
X153474286Y-79076247D02*
X153474286Y-78933390D01*
X153474286Y-78933390D02*
X153521905Y-78742914D01*
X153521905Y-78742914D02*
X153569524Y-78647676D01*
X153569524Y-78647676D02*
X153664762Y-78552438D01*
X153664762Y-78552438D02*
X153807619Y-78504819D01*
X153807619Y-78504819D02*
X153902857Y-78504819D01*
X153902857Y-78504819D02*
X154045714Y-78552438D01*
X154045714Y-78552438D02*
X154093333Y-78600057D01*
X154426667Y-78504819D02*
X155093333Y-78504819D01*
X155093333Y-78504819D02*
X154664762Y-79504819D01*
%TO.C,C19*%
X136534763Y-64059580D02*
X136487144Y-64107200D01*
X136487144Y-64107200D02*
X136344287Y-64154819D01*
X136344287Y-64154819D02*
X136249049Y-64154819D01*
X136249049Y-64154819D02*
X136106192Y-64107200D01*
X136106192Y-64107200D02*
X136010954Y-64011961D01*
X136010954Y-64011961D02*
X135963335Y-63916723D01*
X135963335Y-63916723D02*
X135915716Y-63726247D01*
X135915716Y-63726247D02*
X135915716Y-63583390D01*
X135915716Y-63583390D02*
X135963335Y-63392914D01*
X135963335Y-63392914D02*
X136010954Y-63297676D01*
X136010954Y-63297676D02*
X136106192Y-63202438D01*
X136106192Y-63202438D02*
X136249049Y-63154819D01*
X136249049Y-63154819D02*
X136344287Y-63154819D01*
X136344287Y-63154819D02*
X136487144Y-63202438D01*
X136487144Y-63202438D02*
X136534763Y-63250057D01*
X137487144Y-64154819D02*
X136915716Y-64154819D01*
X137201430Y-64154819D02*
X137201430Y-63154819D01*
X137201430Y-63154819D02*
X137106192Y-63297676D01*
X137106192Y-63297676D02*
X137010954Y-63392914D01*
X137010954Y-63392914D02*
X136915716Y-63440533D01*
X137963335Y-64154819D02*
X138153811Y-64154819D01*
X138153811Y-64154819D02*
X138249049Y-64107200D01*
X138249049Y-64107200D02*
X138296668Y-64059580D01*
X138296668Y-64059580D02*
X138391906Y-63916723D01*
X138391906Y-63916723D02*
X138439525Y-63726247D01*
X138439525Y-63726247D02*
X138439525Y-63345295D01*
X138439525Y-63345295D02*
X138391906Y-63250057D01*
X138391906Y-63250057D02*
X138344287Y-63202438D01*
X138344287Y-63202438D02*
X138249049Y-63154819D01*
X138249049Y-63154819D02*
X138058573Y-63154819D01*
X138058573Y-63154819D02*
X137963335Y-63202438D01*
X137963335Y-63202438D02*
X137915716Y-63250057D01*
X137915716Y-63250057D02*
X137868097Y-63345295D01*
X137868097Y-63345295D02*
X137868097Y-63583390D01*
X137868097Y-63583390D02*
X137915716Y-63678628D01*
X137915716Y-63678628D02*
X137963335Y-63726247D01*
X137963335Y-63726247D02*
X138058573Y-63773866D01*
X138058573Y-63773866D02*
X138249049Y-63773866D01*
X138249049Y-63773866D02*
X138344287Y-63726247D01*
X138344287Y-63726247D02*
X138391906Y-63678628D01*
X138391906Y-63678628D02*
X138439525Y-63583390D01*
%TO.C,R7*%
X153964819Y-97466666D02*
X153488628Y-97799999D01*
X153964819Y-98038094D02*
X152964819Y-98038094D01*
X152964819Y-98038094D02*
X152964819Y-97657142D01*
X152964819Y-97657142D02*
X153012438Y-97561904D01*
X153012438Y-97561904D02*
X153060057Y-97514285D01*
X153060057Y-97514285D02*
X153155295Y-97466666D01*
X153155295Y-97466666D02*
X153298152Y-97466666D01*
X153298152Y-97466666D02*
X153393390Y-97514285D01*
X153393390Y-97514285D02*
X153441009Y-97561904D01*
X153441009Y-97561904D02*
X153488628Y-97657142D01*
X153488628Y-97657142D02*
X153488628Y-98038094D01*
X152964819Y-97133332D02*
X152964819Y-96466666D01*
X152964819Y-96466666D02*
X153964819Y-96895237D01*
%TO.C,R24*%
X130714819Y-88692857D02*
X130238628Y-89026190D01*
X130714819Y-89264285D02*
X129714819Y-89264285D01*
X129714819Y-89264285D02*
X129714819Y-88883333D01*
X129714819Y-88883333D02*
X129762438Y-88788095D01*
X129762438Y-88788095D02*
X129810057Y-88740476D01*
X129810057Y-88740476D02*
X129905295Y-88692857D01*
X129905295Y-88692857D02*
X130048152Y-88692857D01*
X130048152Y-88692857D02*
X130143390Y-88740476D01*
X130143390Y-88740476D02*
X130191009Y-88788095D01*
X130191009Y-88788095D02*
X130238628Y-88883333D01*
X130238628Y-88883333D02*
X130238628Y-89264285D01*
X129810057Y-88311904D02*
X129762438Y-88264285D01*
X129762438Y-88264285D02*
X129714819Y-88169047D01*
X129714819Y-88169047D02*
X129714819Y-87930952D01*
X129714819Y-87930952D02*
X129762438Y-87835714D01*
X129762438Y-87835714D02*
X129810057Y-87788095D01*
X129810057Y-87788095D02*
X129905295Y-87740476D01*
X129905295Y-87740476D02*
X130000533Y-87740476D01*
X130000533Y-87740476D02*
X130143390Y-87788095D01*
X130143390Y-87788095D02*
X130714819Y-88359523D01*
X130714819Y-88359523D02*
X130714819Y-87740476D01*
X130048152Y-86883333D02*
X130714819Y-86883333D01*
X129667200Y-87121428D02*
X130381485Y-87359523D01*
X130381485Y-87359523D02*
X130381485Y-86740476D01*
%TO.C,R16*%
X165867142Y-82004819D02*
X165533809Y-81528628D01*
X165295714Y-82004819D02*
X165295714Y-81004819D01*
X165295714Y-81004819D02*
X165676666Y-81004819D01*
X165676666Y-81004819D02*
X165771904Y-81052438D01*
X165771904Y-81052438D02*
X165819523Y-81100057D01*
X165819523Y-81100057D02*
X165867142Y-81195295D01*
X165867142Y-81195295D02*
X165867142Y-81338152D01*
X165867142Y-81338152D02*
X165819523Y-81433390D01*
X165819523Y-81433390D02*
X165771904Y-81481009D01*
X165771904Y-81481009D02*
X165676666Y-81528628D01*
X165676666Y-81528628D02*
X165295714Y-81528628D01*
X166819523Y-82004819D02*
X166248095Y-82004819D01*
X166533809Y-82004819D02*
X166533809Y-81004819D01*
X166533809Y-81004819D02*
X166438571Y-81147676D01*
X166438571Y-81147676D02*
X166343333Y-81242914D01*
X166343333Y-81242914D02*
X166248095Y-81290533D01*
X167676666Y-81004819D02*
X167486190Y-81004819D01*
X167486190Y-81004819D02*
X167390952Y-81052438D01*
X167390952Y-81052438D02*
X167343333Y-81100057D01*
X167343333Y-81100057D02*
X167248095Y-81242914D01*
X167248095Y-81242914D02*
X167200476Y-81433390D01*
X167200476Y-81433390D02*
X167200476Y-81814342D01*
X167200476Y-81814342D02*
X167248095Y-81909580D01*
X167248095Y-81909580D02*
X167295714Y-81957200D01*
X167295714Y-81957200D02*
X167390952Y-82004819D01*
X167390952Y-82004819D02*
X167581428Y-82004819D01*
X167581428Y-82004819D02*
X167676666Y-81957200D01*
X167676666Y-81957200D02*
X167724285Y-81909580D01*
X167724285Y-81909580D02*
X167771904Y-81814342D01*
X167771904Y-81814342D02*
X167771904Y-81576247D01*
X167771904Y-81576247D02*
X167724285Y-81481009D01*
X167724285Y-81481009D02*
X167676666Y-81433390D01*
X167676666Y-81433390D02*
X167581428Y-81385771D01*
X167581428Y-81385771D02*
X167390952Y-81385771D01*
X167390952Y-81385771D02*
X167295714Y-81433390D01*
X167295714Y-81433390D02*
X167248095Y-81481009D01*
X167248095Y-81481009D02*
X167200476Y-81576247D01*
%TO.C,C5*%
X144869580Y-93966666D02*
X144917200Y-94014285D01*
X144917200Y-94014285D02*
X144964819Y-94157142D01*
X144964819Y-94157142D02*
X144964819Y-94252380D01*
X144964819Y-94252380D02*
X144917200Y-94395237D01*
X144917200Y-94395237D02*
X144821961Y-94490475D01*
X144821961Y-94490475D02*
X144726723Y-94538094D01*
X144726723Y-94538094D02*
X144536247Y-94585713D01*
X144536247Y-94585713D02*
X144393390Y-94585713D01*
X144393390Y-94585713D02*
X144202914Y-94538094D01*
X144202914Y-94538094D02*
X144107676Y-94490475D01*
X144107676Y-94490475D02*
X144012438Y-94395237D01*
X144012438Y-94395237D02*
X143964819Y-94252380D01*
X143964819Y-94252380D02*
X143964819Y-94157142D01*
X143964819Y-94157142D02*
X144012438Y-94014285D01*
X144012438Y-94014285D02*
X144060057Y-93966666D01*
X143964819Y-93061904D02*
X143964819Y-93538094D01*
X143964819Y-93538094D02*
X144441009Y-93585713D01*
X144441009Y-93585713D02*
X144393390Y-93538094D01*
X144393390Y-93538094D02*
X144345771Y-93442856D01*
X144345771Y-93442856D02*
X144345771Y-93204761D01*
X144345771Y-93204761D02*
X144393390Y-93109523D01*
X144393390Y-93109523D02*
X144441009Y-93061904D01*
X144441009Y-93061904D02*
X144536247Y-93014285D01*
X144536247Y-93014285D02*
X144774342Y-93014285D01*
X144774342Y-93014285D02*
X144869580Y-93061904D01*
X144869580Y-93061904D02*
X144917200Y-93109523D01*
X144917200Y-93109523D02*
X144964819Y-93204761D01*
X144964819Y-93204761D02*
X144964819Y-93442856D01*
X144964819Y-93442856D02*
X144917200Y-93538094D01*
X144917200Y-93538094D02*
X144869580Y-93585713D01*
%TO.C,R22*%
X118114819Y-83942857D02*
X117638628Y-84276190D01*
X118114819Y-84514285D02*
X117114819Y-84514285D01*
X117114819Y-84514285D02*
X117114819Y-84133333D01*
X117114819Y-84133333D02*
X117162438Y-84038095D01*
X117162438Y-84038095D02*
X117210057Y-83990476D01*
X117210057Y-83990476D02*
X117305295Y-83942857D01*
X117305295Y-83942857D02*
X117448152Y-83942857D01*
X117448152Y-83942857D02*
X117543390Y-83990476D01*
X117543390Y-83990476D02*
X117591009Y-84038095D01*
X117591009Y-84038095D02*
X117638628Y-84133333D01*
X117638628Y-84133333D02*
X117638628Y-84514285D01*
X117210057Y-83561904D02*
X117162438Y-83514285D01*
X117162438Y-83514285D02*
X117114819Y-83419047D01*
X117114819Y-83419047D02*
X117114819Y-83180952D01*
X117114819Y-83180952D02*
X117162438Y-83085714D01*
X117162438Y-83085714D02*
X117210057Y-83038095D01*
X117210057Y-83038095D02*
X117305295Y-82990476D01*
X117305295Y-82990476D02*
X117400533Y-82990476D01*
X117400533Y-82990476D02*
X117543390Y-83038095D01*
X117543390Y-83038095D02*
X118114819Y-83609523D01*
X118114819Y-83609523D02*
X118114819Y-82990476D01*
X117210057Y-82609523D02*
X117162438Y-82561904D01*
X117162438Y-82561904D02*
X117114819Y-82466666D01*
X117114819Y-82466666D02*
X117114819Y-82228571D01*
X117114819Y-82228571D02*
X117162438Y-82133333D01*
X117162438Y-82133333D02*
X117210057Y-82085714D01*
X117210057Y-82085714D02*
X117305295Y-82038095D01*
X117305295Y-82038095D02*
X117400533Y-82038095D01*
X117400533Y-82038095D02*
X117543390Y-82085714D01*
X117543390Y-82085714D02*
X118114819Y-82657142D01*
X118114819Y-82657142D02*
X118114819Y-82038095D01*
%TO.C,R10*%
X147367142Y-86804819D02*
X147033809Y-86328628D01*
X146795714Y-86804819D02*
X146795714Y-85804819D01*
X146795714Y-85804819D02*
X147176666Y-85804819D01*
X147176666Y-85804819D02*
X147271904Y-85852438D01*
X147271904Y-85852438D02*
X147319523Y-85900057D01*
X147319523Y-85900057D02*
X147367142Y-85995295D01*
X147367142Y-85995295D02*
X147367142Y-86138152D01*
X147367142Y-86138152D02*
X147319523Y-86233390D01*
X147319523Y-86233390D02*
X147271904Y-86281009D01*
X147271904Y-86281009D02*
X147176666Y-86328628D01*
X147176666Y-86328628D02*
X146795714Y-86328628D01*
X148319523Y-86804819D02*
X147748095Y-86804819D01*
X148033809Y-86804819D02*
X148033809Y-85804819D01*
X148033809Y-85804819D02*
X147938571Y-85947676D01*
X147938571Y-85947676D02*
X147843333Y-86042914D01*
X147843333Y-86042914D02*
X147748095Y-86090533D01*
X148938571Y-85804819D02*
X149033809Y-85804819D01*
X149033809Y-85804819D02*
X149129047Y-85852438D01*
X149129047Y-85852438D02*
X149176666Y-85900057D01*
X149176666Y-85900057D02*
X149224285Y-85995295D01*
X149224285Y-85995295D02*
X149271904Y-86185771D01*
X149271904Y-86185771D02*
X149271904Y-86423866D01*
X149271904Y-86423866D02*
X149224285Y-86614342D01*
X149224285Y-86614342D02*
X149176666Y-86709580D01*
X149176666Y-86709580D02*
X149129047Y-86757200D01*
X149129047Y-86757200D02*
X149033809Y-86804819D01*
X149033809Y-86804819D02*
X148938571Y-86804819D01*
X148938571Y-86804819D02*
X148843333Y-86757200D01*
X148843333Y-86757200D02*
X148795714Y-86709580D01*
X148795714Y-86709580D02*
X148748095Y-86614342D01*
X148748095Y-86614342D02*
X148700476Y-86423866D01*
X148700476Y-86423866D02*
X148700476Y-86185771D01*
X148700476Y-86185771D02*
X148748095Y-85995295D01*
X148748095Y-85995295D02*
X148795714Y-85900057D01*
X148795714Y-85900057D02*
X148843333Y-85852438D01*
X148843333Y-85852438D02*
X148938571Y-85804819D01*
%TO.C,R15*%
X158117142Y-86254819D02*
X157783809Y-85778628D01*
X157545714Y-86254819D02*
X157545714Y-85254819D01*
X157545714Y-85254819D02*
X157926666Y-85254819D01*
X157926666Y-85254819D02*
X158021904Y-85302438D01*
X158021904Y-85302438D02*
X158069523Y-85350057D01*
X158069523Y-85350057D02*
X158117142Y-85445295D01*
X158117142Y-85445295D02*
X158117142Y-85588152D01*
X158117142Y-85588152D02*
X158069523Y-85683390D01*
X158069523Y-85683390D02*
X158021904Y-85731009D01*
X158021904Y-85731009D02*
X157926666Y-85778628D01*
X157926666Y-85778628D02*
X157545714Y-85778628D01*
X159069523Y-86254819D02*
X158498095Y-86254819D01*
X158783809Y-86254819D02*
X158783809Y-85254819D01*
X158783809Y-85254819D02*
X158688571Y-85397676D01*
X158688571Y-85397676D02*
X158593333Y-85492914D01*
X158593333Y-85492914D02*
X158498095Y-85540533D01*
X159974285Y-85254819D02*
X159498095Y-85254819D01*
X159498095Y-85254819D02*
X159450476Y-85731009D01*
X159450476Y-85731009D02*
X159498095Y-85683390D01*
X159498095Y-85683390D02*
X159593333Y-85635771D01*
X159593333Y-85635771D02*
X159831428Y-85635771D01*
X159831428Y-85635771D02*
X159926666Y-85683390D01*
X159926666Y-85683390D02*
X159974285Y-85731009D01*
X159974285Y-85731009D02*
X160021904Y-85826247D01*
X160021904Y-85826247D02*
X160021904Y-86064342D01*
X160021904Y-86064342D02*
X159974285Y-86159580D01*
X159974285Y-86159580D02*
X159926666Y-86207200D01*
X159926666Y-86207200D02*
X159831428Y-86254819D01*
X159831428Y-86254819D02*
X159593333Y-86254819D01*
X159593333Y-86254819D02*
X159498095Y-86207200D01*
X159498095Y-86207200D02*
X159450476Y-86159580D01*
%TO.C,C13*%
X151404642Y-67079580D02*
X151357023Y-67127200D01*
X151357023Y-67127200D02*
X151214166Y-67174819D01*
X151214166Y-67174819D02*
X151118928Y-67174819D01*
X151118928Y-67174819D02*
X150976071Y-67127200D01*
X150976071Y-67127200D02*
X150880833Y-67031961D01*
X150880833Y-67031961D02*
X150833214Y-66936723D01*
X150833214Y-66936723D02*
X150785595Y-66746247D01*
X150785595Y-66746247D02*
X150785595Y-66603390D01*
X150785595Y-66603390D02*
X150833214Y-66412914D01*
X150833214Y-66412914D02*
X150880833Y-66317676D01*
X150880833Y-66317676D02*
X150976071Y-66222438D01*
X150976071Y-66222438D02*
X151118928Y-66174819D01*
X151118928Y-66174819D02*
X151214166Y-66174819D01*
X151214166Y-66174819D02*
X151357023Y-66222438D01*
X151357023Y-66222438D02*
X151404642Y-66270057D01*
X152357023Y-67174819D02*
X151785595Y-67174819D01*
X152071309Y-67174819D02*
X152071309Y-66174819D01*
X152071309Y-66174819D02*
X151976071Y-66317676D01*
X151976071Y-66317676D02*
X151880833Y-66412914D01*
X151880833Y-66412914D02*
X151785595Y-66460533D01*
X152690357Y-66174819D02*
X153309404Y-66174819D01*
X153309404Y-66174819D02*
X152976071Y-66555771D01*
X152976071Y-66555771D02*
X153118928Y-66555771D01*
X153118928Y-66555771D02*
X153214166Y-66603390D01*
X153214166Y-66603390D02*
X153261785Y-66651009D01*
X153261785Y-66651009D02*
X153309404Y-66746247D01*
X153309404Y-66746247D02*
X153309404Y-66984342D01*
X153309404Y-66984342D02*
X153261785Y-67079580D01*
X153261785Y-67079580D02*
X153214166Y-67127200D01*
X153214166Y-67127200D02*
X153118928Y-67174819D01*
X153118928Y-67174819D02*
X152833214Y-67174819D01*
X152833214Y-67174819D02*
X152737976Y-67127200D01*
X152737976Y-67127200D02*
X152690357Y-67079580D01*
%TO.C,D2*%
X153214819Y-76538094D02*
X152214819Y-76538094D01*
X152214819Y-76538094D02*
X152214819Y-76299999D01*
X152214819Y-76299999D02*
X152262438Y-76157142D01*
X152262438Y-76157142D02*
X152357676Y-76061904D01*
X152357676Y-76061904D02*
X152452914Y-76014285D01*
X152452914Y-76014285D02*
X152643390Y-75966666D01*
X152643390Y-75966666D02*
X152786247Y-75966666D01*
X152786247Y-75966666D02*
X152976723Y-76014285D01*
X152976723Y-76014285D02*
X153071961Y-76061904D01*
X153071961Y-76061904D02*
X153167200Y-76157142D01*
X153167200Y-76157142D02*
X153214819Y-76299999D01*
X153214819Y-76299999D02*
X153214819Y-76538094D01*
X152310057Y-75585713D02*
X152262438Y-75538094D01*
X152262438Y-75538094D02*
X152214819Y-75442856D01*
X152214819Y-75442856D02*
X152214819Y-75204761D01*
X152214819Y-75204761D02*
X152262438Y-75109523D01*
X152262438Y-75109523D02*
X152310057Y-75061904D01*
X152310057Y-75061904D02*
X152405295Y-75014285D01*
X152405295Y-75014285D02*
X152500533Y-75014285D01*
X152500533Y-75014285D02*
X152643390Y-75061904D01*
X152643390Y-75061904D02*
X153214819Y-75633332D01*
X153214819Y-75633332D02*
X153214819Y-75014285D01*
%TO.C,C10*%
X162367142Y-91659580D02*
X162319523Y-91707200D01*
X162319523Y-91707200D02*
X162176666Y-91754819D01*
X162176666Y-91754819D02*
X162081428Y-91754819D01*
X162081428Y-91754819D02*
X161938571Y-91707200D01*
X161938571Y-91707200D02*
X161843333Y-91611961D01*
X161843333Y-91611961D02*
X161795714Y-91516723D01*
X161795714Y-91516723D02*
X161748095Y-91326247D01*
X161748095Y-91326247D02*
X161748095Y-91183390D01*
X161748095Y-91183390D02*
X161795714Y-90992914D01*
X161795714Y-90992914D02*
X161843333Y-90897676D01*
X161843333Y-90897676D02*
X161938571Y-90802438D01*
X161938571Y-90802438D02*
X162081428Y-90754819D01*
X162081428Y-90754819D02*
X162176666Y-90754819D01*
X162176666Y-90754819D02*
X162319523Y-90802438D01*
X162319523Y-90802438D02*
X162367142Y-90850057D01*
X163319523Y-91754819D02*
X162748095Y-91754819D01*
X163033809Y-91754819D02*
X163033809Y-90754819D01*
X163033809Y-90754819D02*
X162938571Y-90897676D01*
X162938571Y-90897676D02*
X162843333Y-90992914D01*
X162843333Y-90992914D02*
X162748095Y-91040533D01*
X163938571Y-90754819D02*
X164033809Y-90754819D01*
X164033809Y-90754819D02*
X164129047Y-90802438D01*
X164129047Y-90802438D02*
X164176666Y-90850057D01*
X164176666Y-90850057D02*
X164224285Y-90945295D01*
X164224285Y-90945295D02*
X164271904Y-91135771D01*
X164271904Y-91135771D02*
X164271904Y-91373866D01*
X164271904Y-91373866D02*
X164224285Y-91564342D01*
X164224285Y-91564342D02*
X164176666Y-91659580D01*
X164176666Y-91659580D02*
X164129047Y-91707200D01*
X164129047Y-91707200D02*
X164033809Y-91754819D01*
X164033809Y-91754819D02*
X163938571Y-91754819D01*
X163938571Y-91754819D02*
X163843333Y-91707200D01*
X163843333Y-91707200D02*
X163795714Y-91659580D01*
X163795714Y-91659580D02*
X163748095Y-91564342D01*
X163748095Y-91564342D02*
X163700476Y-91373866D01*
X163700476Y-91373866D02*
X163700476Y-91135771D01*
X163700476Y-91135771D02*
X163748095Y-90945295D01*
X163748095Y-90945295D02*
X163795714Y-90850057D01*
X163795714Y-90850057D02*
X163843333Y-90802438D01*
X163843333Y-90802438D02*
X163938571Y-90754819D01*
%TO.C,R21*%
X164867142Y-77504819D02*
X164533809Y-77028628D01*
X164295714Y-77504819D02*
X164295714Y-76504819D01*
X164295714Y-76504819D02*
X164676666Y-76504819D01*
X164676666Y-76504819D02*
X164771904Y-76552438D01*
X164771904Y-76552438D02*
X164819523Y-76600057D01*
X164819523Y-76600057D02*
X164867142Y-76695295D01*
X164867142Y-76695295D02*
X164867142Y-76838152D01*
X164867142Y-76838152D02*
X164819523Y-76933390D01*
X164819523Y-76933390D02*
X164771904Y-76981009D01*
X164771904Y-76981009D02*
X164676666Y-77028628D01*
X164676666Y-77028628D02*
X164295714Y-77028628D01*
X165248095Y-76600057D02*
X165295714Y-76552438D01*
X165295714Y-76552438D02*
X165390952Y-76504819D01*
X165390952Y-76504819D02*
X165629047Y-76504819D01*
X165629047Y-76504819D02*
X165724285Y-76552438D01*
X165724285Y-76552438D02*
X165771904Y-76600057D01*
X165771904Y-76600057D02*
X165819523Y-76695295D01*
X165819523Y-76695295D02*
X165819523Y-76790533D01*
X165819523Y-76790533D02*
X165771904Y-76933390D01*
X165771904Y-76933390D02*
X165200476Y-77504819D01*
X165200476Y-77504819D02*
X165819523Y-77504819D01*
X166771904Y-77504819D02*
X166200476Y-77504819D01*
X166486190Y-77504819D02*
X166486190Y-76504819D01*
X166486190Y-76504819D02*
X166390952Y-76647676D01*
X166390952Y-76647676D02*
X166295714Y-76742914D01*
X166295714Y-76742914D02*
X166200476Y-76790533D01*
%TO.C,R12*%
X152714819Y-92692857D02*
X152238628Y-93026190D01*
X152714819Y-93264285D02*
X151714819Y-93264285D01*
X151714819Y-93264285D02*
X151714819Y-92883333D01*
X151714819Y-92883333D02*
X151762438Y-92788095D01*
X151762438Y-92788095D02*
X151810057Y-92740476D01*
X151810057Y-92740476D02*
X151905295Y-92692857D01*
X151905295Y-92692857D02*
X152048152Y-92692857D01*
X152048152Y-92692857D02*
X152143390Y-92740476D01*
X152143390Y-92740476D02*
X152191009Y-92788095D01*
X152191009Y-92788095D02*
X152238628Y-92883333D01*
X152238628Y-92883333D02*
X152238628Y-93264285D01*
X152714819Y-91740476D02*
X152714819Y-92311904D01*
X152714819Y-92026190D02*
X151714819Y-92026190D01*
X151714819Y-92026190D02*
X151857676Y-92121428D01*
X151857676Y-92121428D02*
X151952914Y-92216666D01*
X151952914Y-92216666D02*
X152000533Y-92311904D01*
X151810057Y-91359523D02*
X151762438Y-91311904D01*
X151762438Y-91311904D02*
X151714819Y-91216666D01*
X151714819Y-91216666D02*
X151714819Y-90978571D01*
X151714819Y-90978571D02*
X151762438Y-90883333D01*
X151762438Y-90883333D02*
X151810057Y-90835714D01*
X151810057Y-90835714D02*
X151905295Y-90788095D01*
X151905295Y-90788095D02*
X152000533Y-90788095D01*
X152000533Y-90788095D02*
X152143390Y-90835714D01*
X152143390Y-90835714D02*
X152714819Y-91407142D01*
X152714819Y-91407142D02*
X152714819Y-90788095D01*
%TO.C,R14*%
X146267142Y-73704819D02*
X145933809Y-73228628D01*
X145695714Y-73704819D02*
X145695714Y-72704819D01*
X145695714Y-72704819D02*
X146076666Y-72704819D01*
X146076666Y-72704819D02*
X146171904Y-72752438D01*
X146171904Y-72752438D02*
X146219523Y-72800057D01*
X146219523Y-72800057D02*
X146267142Y-72895295D01*
X146267142Y-72895295D02*
X146267142Y-73038152D01*
X146267142Y-73038152D02*
X146219523Y-73133390D01*
X146219523Y-73133390D02*
X146171904Y-73181009D01*
X146171904Y-73181009D02*
X146076666Y-73228628D01*
X146076666Y-73228628D02*
X145695714Y-73228628D01*
X147219523Y-73704819D02*
X146648095Y-73704819D01*
X146933809Y-73704819D02*
X146933809Y-72704819D01*
X146933809Y-72704819D02*
X146838571Y-72847676D01*
X146838571Y-72847676D02*
X146743333Y-72942914D01*
X146743333Y-72942914D02*
X146648095Y-72990533D01*
X148076666Y-73038152D02*
X148076666Y-73704819D01*
X147838571Y-72657200D02*
X147600476Y-73371485D01*
X147600476Y-73371485D02*
X148219523Y-73371485D01*
%TO.C,R9*%
X139114819Y-88766666D02*
X138638628Y-89099999D01*
X139114819Y-89338094D02*
X138114819Y-89338094D01*
X138114819Y-89338094D02*
X138114819Y-88957142D01*
X138114819Y-88957142D02*
X138162438Y-88861904D01*
X138162438Y-88861904D02*
X138210057Y-88814285D01*
X138210057Y-88814285D02*
X138305295Y-88766666D01*
X138305295Y-88766666D02*
X138448152Y-88766666D01*
X138448152Y-88766666D02*
X138543390Y-88814285D01*
X138543390Y-88814285D02*
X138591009Y-88861904D01*
X138591009Y-88861904D02*
X138638628Y-88957142D01*
X138638628Y-88957142D02*
X138638628Y-89338094D01*
X139114819Y-88290475D02*
X139114819Y-88099999D01*
X139114819Y-88099999D02*
X139067200Y-88004761D01*
X139067200Y-88004761D02*
X139019580Y-87957142D01*
X139019580Y-87957142D02*
X138876723Y-87861904D01*
X138876723Y-87861904D02*
X138686247Y-87814285D01*
X138686247Y-87814285D02*
X138305295Y-87814285D01*
X138305295Y-87814285D02*
X138210057Y-87861904D01*
X138210057Y-87861904D02*
X138162438Y-87909523D01*
X138162438Y-87909523D02*
X138114819Y-88004761D01*
X138114819Y-88004761D02*
X138114819Y-88195237D01*
X138114819Y-88195237D02*
X138162438Y-88290475D01*
X138162438Y-88290475D02*
X138210057Y-88338094D01*
X138210057Y-88338094D02*
X138305295Y-88385713D01*
X138305295Y-88385713D02*
X138543390Y-88385713D01*
X138543390Y-88385713D02*
X138638628Y-88338094D01*
X138638628Y-88338094D02*
X138686247Y-88290475D01*
X138686247Y-88290475D02*
X138733866Y-88195237D01*
X138733866Y-88195237D02*
X138733866Y-88004761D01*
X138733866Y-88004761D02*
X138686247Y-87909523D01*
X138686247Y-87909523D02*
X138638628Y-87861904D01*
X138638628Y-87861904D02*
X138543390Y-87814285D01*
%TO.C,R28*%
X130617142Y-54254819D02*
X130283809Y-53778628D01*
X130045714Y-54254819D02*
X130045714Y-53254819D01*
X130045714Y-53254819D02*
X130426666Y-53254819D01*
X130426666Y-53254819D02*
X130521904Y-53302438D01*
X130521904Y-53302438D02*
X130569523Y-53350057D01*
X130569523Y-53350057D02*
X130617142Y-53445295D01*
X130617142Y-53445295D02*
X130617142Y-53588152D01*
X130617142Y-53588152D02*
X130569523Y-53683390D01*
X130569523Y-53683390D02*
X130521904Y-53731009D01*
X130521904Y-53731009D02*
X130426666Y-53778628D01*
X130426666Y-53778628D02*
X130045714Y-53778628D01*
X130998095Y-53350057D02*
X131045714Y-53302438D01*
X131045714Y-53302438D02*
X131140952Y-53254819D01*
X131140952Y-53254819D02*
X131379047Y-53254819D01*
X131379047Y-53254819D02*
X131474285Y-53302438D01*
X131474285Y-53302438D02*
X131521904Y-53350057D01*
X131521904Y-53350057D02*
X131569523Y-53445295D01*
X131569523Y-53445295D02*
X131569523Y-53540533D01*
X131569523Y-53540533D02*
X131521904Y-53683390D01*
X131521904Y-53683390D02*
X130950476Y-54254819D01*
X130950476Y-54254819D02*
X131569523Y-54254819D01*
X132140952Y-53683390D02*
X132045714Y-53635771D01*
X132045714Y-53635771D02*
X131998095Y-53588152D01*
X131998095Y-53588152D02*
X131950476Y-53492914D01*
X131950476Y-53492914D02*
X131950476Y-53445295D01*
X131950476Y-53445295D02*
X131998095Y-53350057D01*
X131998095Y-53350057D02*
X132045714Y-53302438D01*
X132045714Y-53302438D02*
X132140952Y-53254819D01*
X132140952Y-53254819D02*
X132331428Y-53254819D01*
X132331428Y-53254819D02*
X132426666Y-53302438D01*
X132426666Y-53302438D02*
X132474285Y-53350057D01*
X132474285Y-53350057D02*
X132521904Y-53445295D01*
X132521904Y-53445295D02*
X132521904Y-53492914D01*
X132521904Y-53492914D02*
X132474285Y-53588152D01*
X132474285Y-53588152D02*
X132426666Y-53635771D01*
X132426666Y-53635771D02*
X132331428Y-53683390D01*
X132331428Y-53683390D02*
X132140952Y-53683390D01*
X132140952Y-53683390D02*
X132045714Y-53731009D01*
X132045714Y-53731009D02*
X131998095Y-53778628D01*
X131998095Y-53778628D02*
X131950476Y-53873866D01*
X131950476Y-53873866D02*
X131950476Y-54064342D01*
X131950476Y-54064342D02*
X131998095Y-54159580D01*
X131998095Y-54159580D02*
X132045714Y-54207200D01*
X132045714Y-54207200D02*
X132140952Y-54254819D01*
X132140952Y-54254819D02*
X132331428Y-54254819D01*
X132331428Y-54254819D02*
X132426666Y-54207200D01*
X132426666Y-54207200D02*
X132474285Y-54159580D01*
X132474285Y-54159580D02*
X132521904Y-54064342D01*
X132521904Y-54064342D02*
X132521904Y-53873866D01*
X132521904Y-53873866D02*
X132474285Y-53778628D01*
X132474285Y-53778628D02*
X132426666Y-53731009D01*
X132426666Y-53731009D02*
X132331428Y-53683390D01*
%TO.C,R6*%
X141964819Y-98966666D02*
X141488628Y-99299999D01*
X141964819Y-99538094D02*
X140964819Y-99538094D01*
X140964819Y-99538094D02*
X140964819Y-99157142D01*
X140964819Y-99157142D02*
X141012438Y-99061904D01*
X141012438Y-99061904D02*
X141060057Y-99014285D01*
X141060057Y-99014285D02*
X141155295Y-98966666D01*
X141155295Y-98966666D02*
X141298152Y-98966666D01*
X141298152Y-98966666D02*
X141393390Y-99014285D01*
X141393390Y-99014285D02*
X141441009Y-99061904D01*
X141441009Y-99061904D02*
X141488628Y-99157142D01*
X141488628Y-99157142D02*
X141488628Y-99538094D01*
X140964819Y-98109523D02*
X140964819Y-98299999D01*
X140964819Y-98299999D02*
X141012438Y-98395237D01*
X141012438Y-98395237D02*
X141060057Y-98442856D01*
X141060057Y-98442856D02*
X141202914Y-98538094D01*
X141202914Y-98538094D02*
X141393390Y-98585713D01*
X141393390Y-98585713D02*
X141774342Y-98585713D01*
X141774342Y-98585713D02*
X141869580Y-98538094D01*
X141869580Y-98538094D02*
X141917200Y-98490475D01*
X141917200Y-98490475D02*
X141964819Y-98395237D01*
X141964819Y-98395237D02*
X141964819Y-98204761D01*
X141964819Y-98204761D02*
X141917200Y-98109523D01*
X141917200Y-98109523D02*
X141869580Y-98061904D01*
X141869580Y-98061904D02*
X141774342Y-98014285D01*
X141774342Y-98014285D02*
X141536247Y-98014285D01*
X141536247Y-98014285D02*
X141441009Y-98061904D01*
X141441009Y-98061904D02*
X141393390Y-98109523D01*
X141393390Y-98109523D02*
X141345771Y-98204761D01*
X141345771Y-98204761D02*
X141345771Y-98395237D01*
X141345771Y-98395237D02*
X141393390Y-98490475D01*
X141393390Y-98490475D02*
X141441009Y-98538094D01*
X141441009Y-98538094D02*
X141536247Y-98585713D01*
%TO.C,C20*%
X127869580Y-56880357D02*
X127917200Y-56927976D01*
X127917200Y-56927976D02*
X127964819Y-57070833D01*
X127964819Y-57070833D02*
X127964819Y-57166071D01*
X127964819Y-57166071D02*
X127917200Y-57308928D01*
X127917200Y-57308928D02*
X127821961Y-57404166D01*
X127821961Y-57404166D02*
X127726723Y-57451785D01*
X127726723Y-57451785D02*
X127536247Y-57499404D01*
X127536247Y-57499404D02*
X127393390Y-57499404D01*
X127393390Y-57499404D02*
X127202914Y-57451785D01*
X127202914Y-57451785D02*
X127107676Y-57404166D01*
X127107676Y-57404166D02*
X127012438Y-57308928D01*
X127012438Y-57308928D02*
X126964819Y-57166071D01*
X126964819Y-57166071D02*
X126964819Y-57070833D01*
X126964819Y-57070833D02*
X127012438Y-56927976D01*
X127012438Y-56927976D02*
X127060057Y-56880357D01*
X127060057Y-56499404D02*
X127012438Y-56451785D01*
X127012438Y-56451785D02*
X126964819Y-56356547D01*
X126964819Y-56356547D02*
X126964819Y-56118452D01*
X126964819Y-56118452D02*
X127012438Y-56023214D01*
X127012438Y-56023214D02*
X127060057Y-55975595D01*
X127060057Y-55975595D02*
X127155295Y-55927976D01*
X127155295Y-55927976D02*
X127250533Y-55927976D01*
X127250533Y-55927976D02*
X127393390Y-55975595D01*
X127393390Y-55975595D02*
X127964819Y-56547023D01*
X127964819Y-56547023D02*
X127964819Y-55927976D01*
X126964819Y-55308928D02*
X126964819Y-55213690D01*
X126964819Y-55213690D02*
X127012438Y-55118452D01*
X127012438Y-55118452D02*
X127060057Y-55070833D01*
X127060057Y-55070833D02*
X127155295Y-55023214D01*
X127155295Y-55023214D02*
X127345771Y-54975595D01*
X127345771Y-54975595D02*
X127583866Y-54975595D01*
X127583866Y-54975595D02*
X127774342Y-55023214D01*
X127774342Y-55023214D02*
X127869580Y-55070833D01*
X127869580Y-55070833D02*
X127917200Y-55118452D01*
X127917200Y-55118452D02*
X127964819Y-55213690D01*
X127964819Y-55213690D02*
X127964819Y-55308928D01*
X127964819Y-55308928D02*
X127917200Y-55404166D01*
X127917200Y-55404166D02*
X127869580Y-55451785D01*
X127869580Y-55451785D02*
X127774342Y-55499404D01*
X127774342Y-55499404D02*
X127583866Y-55547023D01*
X127583866Y-55547023D02*
X127345771Y-55547023D01*
X127345771Y-55547023D02*
X127155295Y-55499404D01*
X127155295Y-55499404D02*
X127060057Y-55451785D01*
X127060057Y-55451785D02*
X127012438Y-55404166D01*
X127012438Y-55404166D02*
X126964819Y-55308928D01*
%TO.C,D5*%
X163271905Y-84504819D02*
X163271905Y-83504819D01*
X163271905Y-83504819D02*
X163510000Y-83504819D01*
X163510000Y-83504819D02*
X163652857Y-83552438D01*
X163652857Y-83552438D02*
X163748095Y-83647676D01*
X163748095Y-83647676D02*
X163795714Y-83742914D01*
X163795714Y-83742914D02*
X163843333Y-83933390D01*
X163843333Y-83933390D02*
X163843333Y-84076247D01*
X163843333Y-84076247D02*
X163795714Y-84266723D01*
X163795714Y-84266723D02*
X163748095Y-84361961D01*
X163748095Y-84361961D02*
X163652857Y-84457200D01*
X163652857Y-84457200D02*
X163510000Y-84504819D01*
X163510000Y-84504819D02*
X163271905Y-84504819D01*
X164748095Y-83504819D02*
X164271905Y-83504819D01*
X164271905Y-83504819D02*
X164224286Y-83981009D01*
X164224286Y-83981009D02*
X164271905Y-83933390D01*
X164271905Y-83933390D02*
X164367143Y-83885771D01*
X164367143Y-83885771D02*
X164605238Y-83885771D01*
X164605238Y-83885771D02*
X164700476Y-83933390D01*
X164700476Y-83933390D02*
X164748095Y-83981009D01*
X164748095Y-83981009D02*
X164795714Y-84076247D01*
X164795714Y-84076247D02*
X164795714Y-84314342D01*
X164795714Y-84314342D02*
X164748095Y-84409580D01*
X164748095Y-84409580D02*
X164700476Y-84457200D01*
X164700476Y-84457200D02*
X164605238Y-84504819D01*
X164605238Y-84504819D02*
X164367143Y-84504819D01*
X164367143Y-84504819D02*
X164271905Y-84457200D01*
X164271905Y-84457200D02*
X164224286Y-84409580D01*
%TO.C,R27*%
X125617142Y-91004819D02*
X125283809Y-90528628D01*
X125045714Y-91004819D02*
X125045714Y-90004819D01*
X125045714Y-90004819D02*
X125426666Y-90004819D01*
X125426666Y-90004819D02*
X125521904Y-90052438D01*
X125521904Y-90052438D02*
X125569523Y-90100057D01*
X125569523Y-90100057D02*
X125617142Y-90195295D01*
X125617142Y-90195295D02*
X125617142Y-90338152D01*
X125617142Y-90338152D02*
X125569523Y-90433390D01*
X125569523Y-90433390D02*
X125521904Y-90481009D01*
X125521904Y-90481009D02*
X125426666Y-90528628D01*
X125426666Y-90528628D02*
X125045714Y-90528628D01*
X125998095Y-90100057D02*
X126045714Y-90052438D01*
X126045714Y-90052438D02*
X126140952Y-90004819D01*
X126140952Y-90004819D02*
X126379047Y-90004819D01*
X126379047Y-90004819D02*
X126474285Y-90052438D01*
X126474285Y-90052438D02*
X126521904Y-90100057D01*
X126521904Y-90100057D02*
X126569523Y-90195295D01*
X126569523Y-90195295D02*
X126569523Y-90290533D01*
X126569523Y-90290533D02*
X126521904Y-90433390D01*
X126521904Y-90433390D02*
X125950476Y-91004819D01*
X125950476Y-91004819D02*
X126569523Y-91004819D01*
X126902857Y-90004819D02*
X127569523Y-90004819D01*
X127569523Y-90004819D02*
X127140952Y-91004819D01*
%TO.C,R23*%
X121214819Y-78692857D02*
X120738628Y-79026190D01*
X121214819Y-79264285D02*
X120214819Y-79264285D01*
X120214819Y-79264285D02*
X120214819Y-78883333D01*
X120214819Y-78883333D02*
X120262438Y-78788095D01*
X120262438Y-78788095D02*
X120310057Y-78740476D01*
X120310057Y-78740476D02*
X120405295Y-78692857D01*
X120405295Y-78692857D02*
X120548152Y-78692857D01*
X120548152Y-78692857D02*
X120643390Y-78740476D01*
X120643390Y-78740476D02*
X120691009Y-78788095D01*
X120691009Y-78788095D02*
X120738628Y-78883333D01*
X120738628Y-78883333D02*
X120738628Y-79264285D01*
X120310057Y-78311904D02*
X120262438Y-78264285D01*
X120262438Y-78264285D02*
X120214819Y-78169047D01*
X120214819Y-78169047D02*
X120214819Y-77930952D01*
X120214819Y-77930952D02*
X120262438Y-77835714D01*
X120262438Y-77835714D02*
X120310057Y-77788095D01*
X120310057Y-77788095D02*
X120405295Y-77740476D01*
X120405295Y-77740476D02*
X120500533Y-77740476D01*
X120500533Y-77740476D02*
X120643390Y-77788095D01*
X120643390Y-77788095D02*
X121214819Y-78359523D01*
X121214819Y-78359523D02*
X121214819Y-77740476D01*
X120214819Y-77407142D02*
X120214819Y-76788095D01*
X120214819Y-76788095D02*
X120595771Y-77121428D01*
X120595771Y-77121428D02*
X120595771Y-76978571D01*
X120595771Y-76978571D02*
X120643390Y-76883333D01*
X120643390Y-76883333D02*
X120691009Y-76835714D01*
X120691009Y-76835714D02*
X120786247Y-76788095D01*
X120786247Y-76788095D02*
X121024342Y-76788095D01*
X121024342Y-76788095D02*
X121119580Y-76835714D01*
X121119580Y-76835714D02*
X121167200Y-76883333D01*
X121167200Y-76883333D02*
X121214819Y-76978571D01*
X121214819Y-76978571D02*
X121214819Y-77264285D01*
X121214819Y-77264285D02*
X121167200Y-77359523D01*
X121167200Y-77359523D02*
X121119580Y-77407142D01*
%TO.C,C9*%
X153093333Y-83409580D02*
X153045714Y-83457200D01*
X153045714Y-83457200D02*
X152902857Y-83504819D01*
X152902857Y-83504819D02*
X152807619Y-83504819D01*
X152807619Y-83504819D02*
X152664762Y-83457200D01*
X152664762Y-83457200D02*
X152569524Y-83361961D01*
X152569524Y-83361961D02*
X152521905Y-83266723D01*
X152521905Y-83266723D02*
X152474286Y-83076247D01*
X152474286Y-83076247D02*
X152474286Y-82933390D01*
X152474286Y-82933390D02*
X152521905Y-82742914D01*
X152521905Y-82742914D02*
X152569524Y-82647676D01*
X152569524Y-82647676D02*
X152664762Y-82552438D01*
X152664762Y-82552438D02*
X152807619Y-82504819D01*
X152807619Y-82504819D02*
X152902857Y-82504819D01*
X152902857Y-82504819D02*
X153045714Y-82552438D01*
X153045714Y-82552438D02*
X153093333Y-82600057D01*
X153569524Y-83504819D02*
X153760000Y-83504819D01*
X153760000Y-83504819D02*
X153855238Y-83457200D01*
X153855238Y-83457200D02*
X153902857Y-83409580D01*
X153902857Y-83409580D02*
X153998095Y-83266723D01*
X153998095Y-83266723D02*
X154045714Y-83076247D01*
X154045714Y-83076247D02*
X154045714Y-82695295D01*
X154045714Y-82695295D02*
X153998095Y-82600057D01*
X153998095Y-82600057D02*
X153950476Y-82552438D01*
X153950476Y-82552438D02*
X153855238Y-82504819D01*
X153855238Y-82504819D02*
X153664762Y-82504819D01*
X153664762Y-82504819D02*
X153569524Y-82552438D01*
X153569524Y-82552438D02*
X153521905Y-82600057D01*
X153521905Y-82600057D02*
X153474286Y-82695295D01*
X153474286Y-82695295D02*
X153474286Y-82933390D01*
X153474286Y-82933390D02*
X153521905Y-83028628D01*
X153521905Y-83028628D02*
X153569524Y-83076247D01*
X153569524Y-83076247D02*
X153664762Y-83123866D01*
X153664762Y-83123866D02*
X153855238Y-83123866D01*
X153855238Y-83123866D02*
X153950476Y-83076247D01*
X153950476Y-83076247D02*
X153998095Y-83028628D01*
X153998095Y-83028628D02*
X154045714Y-82933390D01*
%TO.C,R18*%
X154867142Y-92104819D02*
X154533809Y-91628628D01*
X154295714Y-92104819D02*
X154295714Y-91104819D01*
X154295714Y-91104819D02*
X154676666Y-91104819D01*
X154676666Y-91104819D02*
X154771904Y-91152438D01*
X154771904Y-91152438D02*
X154819523Y-91200057D01*
X154819523Y-91200057D02*
X154867142Y-91295295D01*
X154867142Y-91295295D02*
X154867142Y-91438152D01*
X154867142Y-91438152D02*
X154819523Y-91533390D01*
X154819523Y-91533390D02*
X154771904Y-91581009D01*
X154771904Y-91581009D02*
X154676666Y-91628628D01*
X154676666Y-91628628D02*
X154295714Y-91628628D01*
X155819523Y-92104819D02*
X155248095Y-92104819D01*
X155533809Y-92104819D02*
X155533809Y-91104819D01*
X155533809Y-91104819D02*
X155438571Y-91247676D01*
X155438571Y-91247676D02*
X155343333Y-91342914D01*
X155343333Y-91342914D02*
X155248095Y-91390533D01*
X156390952Y-91533390D02*
X156295714Y-91485771D01*
X156295714Y-91485771D02*
X156248095Y-91438152D01*
X156248095Y-91438152D02*
X156200476Y-91342914D01*
X156200476Y-91342914D02*
X156200476Y-91295295D01*
X156200476Y-91295295D02*
X156248095Y-91200057D01*
X156248095Y-91200057D02*
X156295714Y-91152438D01*
X156295714Y-91152438D02*
X156390952Y-91104819D01*
X156390952Y-91104819D02*
X156581428Y-91104819D01*
X156581428Y-91104819D02*
X156676666Y-91152438D01*
X156676666Y-91152438D02*
X156724285Y-91200057D01*
X156724285Y-91200057D02*
X156771904Y-91295295D01*
X156771904Y-91295295D02*
X156771904Y-91342914D01*
X156771904Y-91342914D02*
X156724285Y-91438152D01*
X156724285Y-91438152D02*
X156676666Y-91485771D01*
X156676666Y-91485771D02*
X156581428Y-91533390D01*
X156581428Y-91533390D02*
X156390952Y-91533390D01*
X156390952Y-91533390D02*
X156295714Y-91581009D01*
X156295714Y-91581009D02*
X156248095Y-91628628D01*
X156248095Y-91628628D02*
X156200476Y-91723866D01*
X156200476Y-91723866D02*
X156200476Y-91914342D01*
X156200476Y-91914342D02*
X156248095Y-92009580D01*
X156248095Y-92009580D02*
X156295714Y-92057200D01*
X156295714Y-92057200D02*
X156390952Y-92104819D01*
X156390952Y-92104819D02*
X156581428Y-92104819D01*
X156581428Y-92104819D02*
X156676666Y-92057200D01*
X156676666Y-92057200D02*
X156724285Y-92009580D01*
X156724285Y-92009580D02*
X156771904Y-91914342D01*
X156771904Y-91914342D02*
X156771904Y-91723866D01*
X156771904Y-91723866D02*
X156724285Y-91628628D01*
X156724285Y-91628628D02*
X156676666Y-91581009D01*
X156676666Y-91581009D02*
X156581428Y-91533390D01*
%TO.C,C11*%
X162367142Y-95659580D02*
X162319523Y-95707200D01*
X162319523Y-95707200D02*
X162176666Y-95754819D01*
X162176666Y-95754819D02*
X162081428Y-95754819D01*
X162081428Y-95754819D02*
X161938571Y-95707200D01*
X161938571Y-95707200D02*
X161843333Y-95611961D01*
X161843333Y-95611961D02*
X161795714Y-95516723D01*
X161795714Y-95516723D02*
X161748095Y-95326247D01*
X161748095Y-95326247D02*
X161748095Y-95183390D01*
X161748095Y-95183390D02*
X161795714Y-94992914D01*
X161795714Y-94992914D02*
X161843333Y-94897676D01*
X161843333Y-94897676D02*
X161938571Y-94802438D01*
X161938571Y-94802438D02*
X162081428Y-94754819D01*
X162081428Y-94754819D02*
X162176666Y-94754819D01*
X162176666Y-94754819D02*
X162319523Y-94802438D01*
X162319523Y-94802438D02*
X162367142Y-94850057D01*
X163319523Y-95754819D02*
X162748095Y-95754819D01*
X163033809Y-95754819D02*
X163033809Y-94754819D01*
X163033809Y-94754819D02*
X162938571Y-94897676D01*
X162938571Y-94897676D02*
X162843333Y-94992914D01*
X162843333Y-94992914D02*
X162748095Y-95040533D01*
X164271904Y-95754819D02*
X163700476Y-95754819D01*
X163986190Y-95754819D02*
X163986190Y-94754819D01*
X163986190Y-94754819D02*
X163890952Y-94897676D01*
X163890952Y-94897676D02*
X163795714Y-94992914D01*
X163795714Y-94992914D02*
X163700476Y-95040533D01*
%TO.C,C18*%
X128617142Y-79159580D02*
X128569523Y-79207200D01*
X128569523Y-79207200D02*
X128426666Y-79254819D01*
X128426666Y-79254819D02*
X128331428Y-79254819D01*
X128331428Y-79254819D02*
X128188571Y-79207200D01*
X128188571Y-79207200D02*
X128093333Y-79111961D01*
X128093333Y-79111961D02*
X128045714Y-79016723D01*
X128045714Y-79016723D02*
X127998095Y-78826247D01*
X127998095Y-78826247D02*
X127998095Y-78683390D01*
X127998095Y-78683390D02*
X128045714Y-78492914D01*
X128045714Y-78492914D02*
X128093333Y-78397676D01*
X128093333Y-78397676D02*
X128188571Y-78302438D01*
X128188571Y-78302438D02*
X128331428Y-78254819D01*
X128331428Y-78254819D02*
X128426666Y-78254819D01*
X128426666Y-78254819D02*
X128569523Y-78302438D01*
X128569523Y-78302438D02*
X128617142Y-78350057D01*
X129569523Y-79254819D02*
X128998095Y-79254819D01*
X129283809Y-79254819D02*
X129283809Y-78254819D01*
X129283809Y-78254819D02*
X129188571Y-78397676D01*
X129188571Y-78397676D02*
X129093333Y-78492914D01*
X129093333Y-78492914D02*
X128998095Y-78540533D01*
X130140952Y-78683390D02*
X130045714Y-78635771D01*
X130045714Y-78635771D02*
X129998095Y-78588152D01*
X129998095Y-78588152D02*
X129950476Y-78492914D01*
X129950476Y-78492914D02*
X129950476Y-78445295D01*
X129950476Y-78445295D02*
X129998095Y-78350057D01*
X129998095Y-78350057D02*
X130045714Y-78302438D01*
X130045714Y-78302438D02*
X130140952Y-78254819D01*
X130140952Y-78254819D02*
X130331428Y-78254819D01*
X130331428Y-78254819D02*
X130426666Y-78302438D01*
X130426666Y-78302438D02*
X130474285Y-78350057D01*
X130474285Y-78350057D02*
X130521904Y-78445295D01*
X130521904Y-78445295D02*
X130521904Y-78492914D01*
X130521904Y-78492914D02*
X130474285Y-78588152D01*
X130474285Y-78588152D02*
X130426666Y-78635771D01*
X130426666Y-78635771D02*
X130331428Y-78683390D01*
X130331428Y-78683390D02*
X130140952Y-78683390D01*
X130140952Y-78683390D02*
X130045714Y-78731009D01*
X130045714Y-78731009D02*
X129998095Y-78778628D01*
X129998095Y-78778628D02*
X129950476Y-78873866D01*
X129950476Y-78873866D02*
X129950476Y-79064342D01*
X129950476Y-79064342D02*
X129998095Y-79159580D01*
X129998095Y-79159580D02*
X130045714Y-79207200D01*
X130045714Y-79207200D02*
X130140952Y-79254819D01*
X130140952Y-79254819D02*
X130331428Y-79254819D01*
X130331428Y-79254819D02*
X130426666Y-79207200D01*
X130426666Y-79207200D02*
X130474285Y-79159580D01*
X130474285Y-79159580D02*
X130521904Y-79064342D01*
X130521904Y-79064342D02*
X130521904Y-78873866D01*
X130521904Y-78873866D02*
X130474285Y-78778628D01*
X130474285Y-78778628D02*
X130426666Y-78731009D01*
X130426666Y-78731009D02*
X130331428Y-78683390D01*
%TO.C,C8*%
X155843333Y-80409580D02*
X155795714Y-80457200D01*
X155795714Y-80457200D02*
X155652857Y-80504819D01*
X155652857Y-80504819D02*
X155557619Y-80504819D01*
X155557619Y-80504819D02*
X155414762Y-80457200D01*
X155414762Y-80457200D02*
X155319524Y-80361961D01*
X155319524Y-80361961D02*
X155271905Y-80266723D01*
X155271905Y-80266723D02*
X155224286Y-80076247D01*
X155224286Y-80076247D02*
X155224286Y-79933390D01*
X155224286Y-79933390D02*
X155271905Y-79742914D01*
X155271905Y-79742914D02*
X155319524Y-79647676D01*
X155319524Y-79647676D02*
X155414762Y-79552438D01*
X155414762Y-79552438D02*
X155557619Y-79504819D01*
X155557619Y-79504819D02*
X155652857Y-79504819D01*
X155652857Y-79504819D02*
X155795714Y-79552438D01*
X155795714Y-79552438D02*
X155843333Y-79600057D01*
X156414762Y-79933390D02*
X156319524Y-79885771D01*
X156319524Y-79885771D02*
X156271905Y-79838152D01*
X156271905Y-79838152D02*
X156224286Y-79742914D01*
X156224286Y-79742914D02*
X156224286Y-79695295D01*
X156224286Y-79695295D02*
X156271905Y-79600057D01*
X156271905Y-79600057D02*
X156319524Y-79552438D01*
X156319524Y-79552438D02*
X156414762Y-79504819D01*
X156414762Y-79504819D02*
X156605238Y-79504819D01*
X156605238Y-79504819D02*
X156700476Y-79552438D01*
X156700476Y-79552438D02*
X156748095Y-79600057D01*
X156748095Y-79600057D02*
X156795714Y-79695295D01*
X156795714Y-79695295D02*
X156795714Y-79742914D01*
X156795714Y-79742914D02*
X156748095Y-79838152D01*
X156748095Y-79838152D02*
X156700476Y-79885771D01*
X156700476Y-79885771D02*
X156605238Y-79933390D01*
X156605238Y-79933390D02*
X156414762Y-79933390D01*
X156414762Y-79933390D02*
X156319524Y-79981009D01*
X156319524Y-79981009D02*
X156271905Y-80028628D01*
X156271905Y-80028628D02*
X156224286Y-80123866D01*
X156224286Y-80123866D02*
X156224286Y-80314342D01*
X156224286Y-80314342D02*
X156271905Y-80409580D01*
X156271905Y-80409580D02*
X156319524Y-80457200D01*
X156319524Y-80457200D02*
X156414762Y-80504819D01*
X156414762Y-80504819D02*
X156605238Y-80504819D01*
X156605238Y-80504819D02*
X156700476Y-80457200D01*
X156700476Y-80457200D02*
X156748095Y-80409580D01*
X156748095Y-80409580D02*
X156795714Y-80314342D01*
X156795714Y-80314342D02*
X156795714Y-80123866D01*
X156795714Y-80123866D02*
X156748095Y-80028628D01*
X156748095Y-80028628D02*
X156700476Y-79981009D01*
X156700476Y-79981009D02*
X156605238Y-79933390D01*
%TO.C,D4*%
X163021905Y-87004819D02*
X163021905Y-86004819D01*
X163021905Y-86004819D02*
X163260000Y-86004819D01*
X163260000Y-86004819D02*
X163402857Y-86052438D01*
X163402857Y-86052438D02*
X163498095Y-86147676D01*
X163498095Y-86147676D02*
X163545714Y-86242914D01*
X163545714Y-86242914D02*
X163593333Y-86433390D01*
X163593333Y-86433390D02*
X163593333Y-86576247D01*
X163593333Y-86576247D02*
X163545714Y-86766723D01*
X163545714Y-86766723D02*
X163498095Y-86861961D01*
X163498095Y-86861961D02*
X163402857Y-86957200D01*
X163402857Y-86957200D02*
X163260000Y-87004819D01*
X163260000Y-87004819D02*
X163021905Y-87004819D01*
X164450476Y-86338152D02*
X164450476Y-87004819D01*
X164212381Y-85957200D02*
X163974286Y-86671485D01*
X163974286Y-86671485D02*
X164593333Y-86671485D01*
%TO.C,RV4*%
X118374819Y-68685238D02*
X117898628Y-69018571D01*
X118374819Y-69256666D02*
X117374819Y-69256666D01*
X117374819Y-69256666D02*
X117374819Y-68875714D01*
X117374819Y-68875714D02*
X117422438Y-68780476D01*
X117422438Y-68780476D02*
X117470057Y-68732857D01*
X117470057Y-68732857D02*
X117565295Y-68685238D01*
X117565295Y-68685238D02*
X117708152Y-68685238D01*
X117708152Y-68685238D02*
X117803390Y-68732857D01*
X117803390Y-68732857D02*
X117851009Y-68780476D01*
X117851009Y-68780476D02*
X117898628Y-68875714D01*
X117898628Y-68875714D02*
X117898628Y-69256666D01*
X117374819Y-68399523D02*
X118374819Y-68066190D01*
X118374819Y-68066190D02*
X117374819Y-67732857D01*
X117708152Y-66970952D02*
X118374819Y-66970952D01*
X117327200Y-67209047D02*
X118041485Y-67447142D01*
X118041485Y-67447142D02*
X118041485Y-66828095D01*
%TO.C,R8*%
X139564819Y-95966666D02*
X139088628Y-96299999D01*
X139564819Y-96538094D02*
X138564819Y-96538094D01*
X138564819Y-96538094D02*
X138564819Y-96157142D01*
X138564819Y-96157142D02*
X138612438Y-96061904D01*
X138612438Y-96061904D02*
X138660057Y-96014285D01*
X138660057Y-96014285D02*
X138755295Y-95966666D01*
X138755295Y-95966666D02*
X138898152Y-95966666D01*
X138898152Y-95966666D02*
X138993390Y-96014285D01*
X138993390Y-96014285D02*
X139041009Y-96061904D01*
X139041009Y-96061904D02*
X139088628Y-96157142D01*
X139088628Y-96157142D02*
X139088628Y-96538094D01*
X138993390Y-95395237D02*
X138945771Y-95490475D01*
X138945771Y-95490475D02*
X138898152Y-95538094D01*
X138898152Y-95538094D02*
X138802914Y-95585713D01*
X138802914Y-95585713D02*
X138755295Y-95585713D01*
X138755295Y-95585713D02*
X138660057Y-95538094D01*
X138660057Y-95538094D02*
X138612438Y-95490475D01*
X138612438Y-95490475D02*
X138564819Y-95395237D01*
X138564819Y-95395237D02*
X138564819Y-95204761D01*
X138564819Y-95204761D02*
X138612438Y-95109523D01*
X138612438Y-95109523D02*
X138660057Y-95061904D01*
X138660057Y-95061904D02*
X138755295Y-95014285D01*
X138755295Y-95014285D02*
X138802914Y-95014285D01*
X138802914Y-95014285D02*
X138898152Y-95061904D01*
X138898152Y-95061904D02*
X138945771Y-95109523D01*
X138945771Y-95109523D02*
X138993390Y-95204761D01*
X138993390Y-95204761D02*
X138993390Y-95395237D01*
X138993390Y-95395237D02*
X139041009Y-95490475D01*
X139041009Y-95490475D02*
X139088628Y-95538094D01*
X139088628Y-95538094D02*
X139183866Y-95585713D01*
X139183866Y-95585713D02*
X139374342Y-95585713D01*
X139374342Y-95585713D02*
X139469580Y-95538094D01*
X139469580Y-95538094D02*
X139517200Y-95490475D01*
X139517200Y-95490475D02*
X139564819Y-95395237D01*
X139564819Y-95395237D02*
X139564819Y-95204761D01*
X139564819Y-95204761D02*
X139517200Y-95109523D01*
X139517200Y-95109523D02*
X139469580Y-95061904D01*
X139469580Y-95061904D02*
X139374342Y-95014285D01*
X139374342Y-95014285D02*
X139183866Y-95014285D01*
X139183866Y-95014285D02*
X139088628Y-95061904D01*
X139088628Y-95061904D02*
X139041009Y-95109523D01*
X139041009Y-95109523D02*
X138993390Y-95204761D01*
%TO.C,C4*%
X146119580Y-95466666D02*
X146167200Y-95514285D01*
X146167200Y-95514285D02*
X146214819Y-95657142D01*
X146214819Y-95657142D02*
X146214819Y-95752380D01*
X146214819Y-95752380D02*
X146167200Y-95895237D01*
X146167200Y-95895237D02*
X146071961Y-95990475D01*
X146071961Y-95990475D02*
X145976723Y-96038094D01*
X145976723Y-96038094D02*
X145786247Y-96085713D01*
X145786247Y-96085713D02*
X145643390Y-96085713D01*
X145643390Y-96085713D02*
X145452914Y-96038094D01*
X145452914Y-96038094D02*
X145357676Y-95990475D01*
X145357676Y-95990475D02*
X145262438Y-95895237D01*
X145262438Y-95895237D02*
X145214819Y-95752380D01*
X145214819Y-95752380D02*
X145214819Y-95657142D01*
X145214819Y-95657142D02*
X145262438Y-95514285D01*
X145262438Y-95514285D02*
X145310057Y-95466666D01*
X145548152Y-94609523D02*
X146214819Y-94609523D01*
X145167200Y-94847618D02*
X145881485Y-95085713D01*
X145881485Y-95085713D02*
X145881485Y-94466666D01*
%TO.C,Q3*%
X161414761Y-80350057D02*
X161319523Y-80302438D01*
X161319523Y-80302438D02*
X161224285Y-80207200D01*
X161224285Y-80207200D02*
X161081428Y-80064342D01*
X161081428Y-80064342D02*
X160986190Y-80016723D01*
X160986190Y-80016723D02*
X160890952Y-80016723D01*
X160938571Y-80254819D02*
X160843333Y-80207200D01*
X160843333Y-80207200D02*
X160748095Y-80111961D01*
X160748095Y-80111961D02*
X160700476Y-79921485D01*
X160700476Y-79921485D02*
X160700476Y-79588152D01*
X160700476Y-79588152D02*
X160748095Y-79397676D01*
X160748095Y-79397676D02*
X160843333Y-79302438D01*
X160843333Y-79302438D02*
X160938571Y-79254819D01*
X160938571Y-79254819D02*
X161129047Y-79254819D01*
X161129047Y-79254819D02*
X161224285Y-79302438D01*
X161224285Y-79302438D02*
X161319523Y-79397676D01*
X161319523Y-79397676D02*
X161367142Y-79588152D01*
X161367142Y-79588152D02*
X161367142Y-79921485D01*
X161367142Y-79921485D02*
X161319523Y-80111961D01*
X161319523Y-80111961D02*
X161224285Y-80207200D01*
X161224285Y-80207200D02*
X161129047Y-80254819D01*
X161129047Y-80254819D02*
X160938571Y-80254819D01*
X161700476Y-79254819D02*
X162319523Y-79254819D01*
X162319523Y-79254819D02*
X161986190Y-79635771D01*
X161986190Y-79635771D02*
X162129047Y-79635771D01*
X162129047Y-79635771D02*
X162224285Y-79683390D01*
X162224285Y-79683390D02*
X162271904Y-79731009D01*
X162271904Y-79731009D02*
X162319523Y-79826247D01*
X162319523Y-79826247D02*
X162319523Y-80064342D01*
X162319523Y-80064342D02*
X162271904Y-80159580D01*
X162271904Y-80159580D02*
X162224285Y-80207200D01*
X162224285Y-80207200D02*
X162129047Y-80254819D01*
X162129047Y-80254819D02*
X161843333Y-80254819D01*
X161843333Y-80254819D02*
X161748095Y-80207200D01*
X161748095Y-80207200D02*
X161700476Y-80159580D01*
%TO.C,R26*%
X123614819Y-84542857D02*
X123138628Y-84876190D01*
X123614819Y-85114285D02*
X122614819Y-85114285D01*
X122614819Y-85114285D02*
X122614819Y-84733333D01*
X122614819Y-84733333D02*
X122662438Y-84638095D01*
X122662438Y-84638095D02*
X122710057Y-84590476D01*
X122710057Y-84590476D02*
X122805295Y-84542857D01*
X122805295Y-84542857D02*
X122948152Y-84542857D01*
X122948152Y-84542857D02*
X123043390Y-84590476D01*
X123043390Y-84590476D02*
X123091009Y-84638095D01*
X123091009Y-84638095D02*
X123138628Y-84733333D01*
X123138628Y-84733333D02*
X123138628Y-85114285D01*
X122710057Y-84161904D02*
X122662438Y-84114285D01*
X122662438Y-84114285D02*
X122614819Y-84019047D01*
X122614819Y-84019047D02*
X122614819Y-83780952D01*
X122614819Y-83780952D02*
X122662438Y-83685714D01*
X122662438Y-83685714D02*
X122710057Y-83638095D01*
X122710057Y-83638095D02*
X122805295Y-83590476D01*
X122805295Y-83590476D02*
X122900533Y-83590476D01*
X122900533Y-83590476D02*
X123043390Y-83638095D01*
X123043390Y-83638095D02*
X123614819Y-84209523D01*
X123614819Y-84209523D02*
X123614819Y-83590476D01*
X122614819Y-82733333D02*
X122614819Y-82923809D01*
X122614819Y-82923809D02*
X122662438Y-83019047D01*
X122662438Y-83019047D02*
X122710057Y-83066666D01*
X122710057Y-83066666D02*
X122852914Y-83161904D01*
X122852914Y-83161904D02*
X123043390Y-83209523D01*
X123043390Y-83209523D02*
X123424342Y-83209523D01*
X123424342Y-83209523D02*
X123519580Y-83161904D01*
X123519580Y-83161904D02*
X123567200Y-83114285D01*
X123567200Y-83114285D02*
X123614819Y-83019047D01*
X123614819Y-83019047D02*
X123614819Y-82828571D01*
X123614819Y-82828571D02*
X123567200Y-82733333D01*
X123567200Y-82733333D02*
X123519580Y-82685714D01*
X123519580Y-82685714D02*
X123424342Y-82638095D01*
X123424342Y-82638095D02*
X123186247Y-82638095D01*
X123186247Y-82638095D02*
X123091009Y-82685714D01*
X123091009Y-82685714D02*
X123043390Y-82733333D01*
X123043390Y-82733333D02*
X122995771Y-82828571D01*
X122995771Y-82828571D02*
X122995771Y-83019047D01*
X122995771Y-83019047D02*
X123043390Y-83114285D01*
X123043390Y-83114285D02*
X123091009Y-83161904D01*
X123091009Y-83161904D02*
X123186247Y-83209523D01*
%TO.C,SW3*%
X116547200Y-92643332D02*
X116594819Y-92500475D01*
X116594819Y-92500475D02*
X116594819Y-92262380D01*
X116594819Y-92262380D02*
X116547200Y-92167142D01*
X116547200Y-92167142D02*
X116499580Y-92119523D01*
X116499580Y-92119523D02*
X116404342Y-92071904D01*
X116404342Y-92071904D02*
X116309104Y-92071904D01*
X116309104Y-92071904D02*
X116213866Y-92119523D01*
X116213866Y-92119523D02*
X116166247Y-92167142D01*
X116166247Y-92167142D02*
X116118628Y-92262380D01*
X116118628Y-92262380D02*
X116071009Y-92452856D01*
X116071009Y-92452856D02*
X116023390Y-92548094D01*
X116023390Y-92548094D02*
X115975771Y-92595713D01*
X115975771Y-92595713D02*
X115880533Y-92643332D01*
X115880533Y-92643332D02*
X115785295Y-92643332D01*
X115785295Y-92643332D02*
X115690057Y-92595713D01*
X115690057Y-92595713D02*
X115642438Y-92548094D01*
X115642438Y-92548094D02*
X115594819Y-92452856D01*
X115594819Y-92452856D02*
X115594819Y-92214761D01*
X115594819Y-92214761D02*
X115642438Y-92071904D01*
X115594819Y-91738570D02*
X116594819Y-91500475D01*
X116594819Y-91500475D02*
X115880533Y-91309999D01*
X115880533Y-91309999D02*
X116594819Y-91119523D01*
X116594819Y-91119523D02*
X115594819Y-90881428D01*
X115594819Y-90595713D02*
X115594819Y-89976666D01*
X115594819Y-89976666D02*
X115975771Y-90309999D01*
X115975771Y-90309999D02*
X115975771Y-90167142D01*
X115975771Y-90167142D02*
X116023390Y-90071904D01*
X116023390Y-90071904D02*
X116071009Y-90024285D01*
X116071009Y-90024285D02*
X116166247Y-89976666D01*
X116166247Y-89976666D02*
X116404342Y-89976666D01*
X116404342Y-89976666D02*
X116499580Y-90024285D01*
X116499580Y-90024285D02*
X116547200Y-90071904D01*
X116547200Y-90071904D02*
X116594819Y-90167142D01*
X116594819Y-90167142D02*
X116594819Y-90452856D01*
X116594819Y-90452856D02*
X116547200Y-90548094D01*
X116547200Y-90548094D02*
X116499580Y-90595713D01*
%TO.C,RV3*%
X153824819Y-68660238D02*
X153348628Y-68993571D01*
X153824819Y-69231666D02*
X152824819Y-69231666D01*
X152824819Y-69231666D02*
X152824819Y-68850714D01*
X152824819Y-68850714D02*
X152872438Y-68755476D01*
X152872438Y-68755476D02*
X152920057Y-68707857D01*
X152920057Y-68707857D02*
X153015295Y-68660238D01*
X153015295Y-68660238D02*
X153158152Y-68660238D01*
X153158152Y-68660238D02*
X153253390Y-68707857D01*
X153253390Y-68707857D02*
X153301009Y-68755476D01*
X153301009Y-68755476D02*
X153348628Y-68850714D01*
X153348628Y-68850714D02*
X153348628Y-69231666D01*
X152824819Y-68374523D02*
X153824819Y-68041190D01*
X153824819Y-68041190D02*
X152824819Y-67707857D01*
X152824819Y-67469761D02*
X152824819Y-66850714D01*
X152824819Y-66850714D02*
X153205771Y-67184047D01*
X153205771Y-67184047D02*
X153205771Y-67041190D01*
X153205771Y-67041190D02*
X153253390Y-66945952D01*
X153253390Y-66945952D02*
X153301009Y-66898333D01*
X153301009Y-66898333D02*
X153396247Y-66850714D01*
X153396247Y-66850714D02*
X153634342Y-66850714D01*
X153634342Y-66850714D02*
X153729580Y-66898333D01*
X153729580Y-66898333D02*
X153777200Y-66945952D01*
X153777200Y-66945952D02*
X153824819Y-67041190D01*
X153824819Y-67041190D02*
X153824819Y-67326904D01*
X153824819Y-67326904D02*
X153777200Y-67422142D01*
X153777200Y-67422142D02*
X153729580Y-67469761D01*
%TO.C,R25*%
X128867142Y-81504819D02*
X128533809Y-81028628D01*
X128295714Y-81504819D02*
X128295714Y-80504819D01*
X128295714Y-80504819D02*
X128676666Y-80504819D01*
X128676666Y-80504819D02*
X128771904Y-80552438D01*
X128771904Y-80552438D02*
X128819523Y-80600057D01*
X128819523Y-80600057D02*
X128867142Y-80695295D01*
X128867142Y-80695295D02*
X128867142Y-80838152D01*
X128867142Y-80838152D02*
X128819523Y-80933390D01*
X128819523Y-80933390D02*
X128771904Y-80981009D01*
X128771904Y-80981009D02*
X128676666Y-81028628D01*
X128676666Y-81028628D02*
X128295714Y-81028628D01*
X129248095Y-80600057D02*
X129295714Y-80552438D01*
X129295714Y-80552438D02*
X129390952Y-80504819D01*
X129390952Y-80504819D02*
X129629047Y-80504819D01*
X129629047Y-80504819D02*
X129724285Y-80552438D01*
X129724285Y-80552438D02*
X129771904Y-80600057D01*
X129771904Y-80600057D02*
X129819523Y-80695295D01*
X129819523Y-80695295D02*
X129819523Y-80790533D01*
X129819523Y-80790533D02*
X129771904Y-80933390D01*
X129771904Y-80933390D02*
X129200476Y-81504819D01*
X129200476Y-81504819D02*
X129819523Y-81504819D01*
X130724285Y-80504819D02*
X130248095Y-80504819D01*
X130248095Y-80504819D02*
X130200476Y-80981009D01*
X130200476Y-80981009D02*
X130248095Y-80933390D01*
X130248095Y-80933390D02*
X130343333Y-80885771D01*
X130343333Y-80885771D02*
X130581428Y-80885771D01*
X130581428Y-80885771D02*
X130676666Y-80933390D01*
X130676666Y-80933390D02*
X130724285Y-80981009D01*
X130724285Y-80981009D02*
X130771904Y-81076247D01*
X130771904Y-81076247D02*
X130771904Y-81314342D01*
X130771904Y-81314342D02*
X130724285Y-81409580D01*
X130724285Y-81409580D02*
X130676666Y-81457200D01*
X130676666Y-81457200D02*
X130581428Y-81504819D01*
X130581428Y-81504819D02*
X130343333Y-81504819D01*
X130343333Y-81504819D02*
X130248095Y-81457200D01*
X130248095Y-81457200D02*
X130200476Y-81409580D01*
%TO.C,C15*%
X118869580Y-102192857D02*
X118917200Y-102240476D01*
X118917200Y-102240476D02*
X118964819Y-102383333D01*
X118964819Y-102383333D02*
X118964819Y-102478571D01*
X118964819Y-102478571D02*
X118917200Y-102621428D01*
X118917200Y-102621428D02*
X118821961Y-102716666D01*
X118821961Y-102716666D02*
X118726723Y-102764285D01*
X118726723Y-102764285D02*
X118536247Y-102811904D01*
X118536247Y-102811904D02*
X118393390Y-102811904D01*
X118393390Y-102811904D02*
X118202914Y-102764285D01*
X118202914Y-102764285D02*
X118107676Y-102716666D01*
X118107676Y-102716666D02*
X118012438Y-102621428D01*
X118012438Y-102621428D02*
X117964819Y-102478571D01*
X117964819Y-102478571D02*
X117964819Y-102383333D01*
X117964819Y-102383333D02*
X118012438Y-102240476D01*
X118012438Y-102240476D02*
X118060057Y-102192857D01*
X118964819Y-101240476D02*
X118964819Y-101811904D01*
X118964819Y-101526190D02*
X117964819Y-101526190D01*
X117964819Y-101526190D02*
X118107676Y-101621428D01*
X118107676Y-101621428D02*
X118202914Y-101716666D01*
X118202914Y-101716666D02*
X118250533Y-101811904D01*
X117964819Y-100335714D02*
X117964819Y-100811904D01*
X117964819Y-100811904D02*
X118441009Y-100859523D01*
X118441009Y-100859523D02*
X118393390Y-100811904D01*
X118393390Y-100811904D02*
X118345771Y-100716666D01*
X118345771Y-100716666D02*
X118345771Y-100478571D01*
X118345771Y-100478571D02*
X118393390Y-100383333D01*
X118393390Y-100383333D02*
X118441009Y-100335714D01*
X118441009Y-100335714D02*
X118536247Y-100288095D01*
X118536247Y-100288095D02*
X118774342Y-100288095D01*
X118774342Y-100288095D02*
X118869580Y-100335714D01*
X118869580Y-100335714D02*
X118917200Y-100383333D01*
X118917200Y-100383333D02*
X118964819Y-100478571D01*
X118964819Y-100478571D02*
X118964819Y-100716666D01*
X118964819Y-100716666D02*
X118917200Y-100811904D01*
X118917200Y-100811904D02*
X118869580Y-100859523D01*
%TO.C,C3*%
X148130833Y-100479580D02*
X148083214Y-100527200D01*
X148083214Y-100527200D02*
X147940357Y-100574819D01*
X147940357Y-100574819D02*
X147845119Y-100574819D01*
X147845119Y-100574819D02*
X147702262Y-100527200D01*
X147702262Y-100527200D02*
X147607024Y-100431961D01*
X147607024Y-100431961D02*
X147559405Y-100336723D01*
X147559405Y-100336723D02*
X147511786Y-100146247D01*
X147511786Y-100146247D02*
X147511786Y-100003390D01*
X147511786Y-100003390D02*
X147559405Y-99812914D01*
X147559405Y-99812914D02*
X147607024Y-99717676D01*
X147607024Y-99717676D02*
X147702262Y-99622438D01*
X147702262Y-99622438D02*
X147845119Y-99574819D01*
X147845119Y-99574819D02*
X147940357Y-99574819D01*
X147940357Y-99574819D02*
X148083214Y-99622438D01*
X148083214Y-99622438D02*
X148130833Y-99670057D01*
X148464167Y-99574819D02*
X149083214Y-99574819D01*
X149083214Y-99574819D02*
X148749881Y-99955771D01*
X148749881Y-99955771D02*
X148892738Y-99955771D01*
X148892738Y-99955771D02*
X148987976Y-100003390D01*
X148987976Y-100003390D02*
X149035595Y-100051009D01*
X149035595Y-100051009D02*
X149083214Y-100146247D01*
X149083214Y-100146247D02*
X149083214Y-100384342D01*
X149083214Y-100384342D02*
X149035595Y-100479580D01*
X149035595Y-100479580D02*
X148987976Y-100527200D01*
X148987976Y-100527200D02*
X148892738Y-100574819D01*
X148892738Y-100574819D02*
X148607024Y-100574819D01*
X148607024Y-100574819D02*
X148511786Y-100527200D01*
X148511786Y-100527200D02*
X148464167Y-100479580D01*
%TO.C,N1*%
X112178095Y-155613904D02*
X112178095Y-154613904D01*
X112178095Y-154613904D02*
X112749523Y-155613904D01*
X112749523Y-155613904D02*
X112749523Y-154613904D01*
X113749523Y-155613904D02*
X113178095Y-155613904D01*
X113463809Y-155613904D02*
X113463809Y-154613904D01*
X113463809Y-154613904D02*
X113368571Y-154756761D01*
X113368571Y-154756761D02*
X113273333Y-154851999D01*
X113273333Y-154851999D02*
X113178095Y-154899618D01*
%TO.C,R11*%
X148567142Y-92254819D02*
X148233809Y-91778628D01*
X147995714Y-92254819D02*
X147995714Y-91254819D01*
X147995714Y-91254819D02*
X148376666Y-91254819D01*
X148376666Y-91254819D02*
X148471904Y-91302438D01*
X148471904Y-91302438D02*
X148519523Y-91350057D01*
X148519523Y-91350057D02*
X148567142Y-91445295D01*
X148567142Y-91445295D02*
X148567142Y-91588152D01*
X148567142Y-91588152D02*
X148519523Y-91683390D01*
X148519523Y-91683390D02*
X148471904Y-91731009D01*
X148471904Y-91731009D02*
X148376666Y-91778628D01*
X148376666Y-91778628D02*
X147995714Y-91778628D01*
X149519523Y-92254819D02*
X148948095Y-92254819D01*
X149233809Y-92254819D02*
X149233809Y-91254819D01*
X149233809Y-91254819D02*
X149138571Y-91397676D01*
X149138571Y-91397676D02*
X149043333Y-91492914D01*
X149043333Y-91492914D02*
X148948095Y-91540533D01*
X150471904Y-92254819D02*
X149900476Y-92254819D01*
X150186190Y-92254819D02*
X150186190Y-91254819D01*
X150186190Y-91254819D02*
X150090952Y-91397676D01*
X150090952Y-91397676D02*
X149995714Y-91492914D01*
X149995714Y-91492914D02*
X149900476Y-91540533D01*
%TO.C,D3*%
X151214819Y-76438094D02*
X150214819Y-76438094D01*
X150214819Y-76438094D02*
X150214819Y-76199999D01*
X150214819Y-76199999D02*
X150262438Y-76057142D01*
X150262438Y-76057142D02*
X150357676Y-75961904D01*
X150357676Y-75961904D02*
X150452914Y-75914285D01*
X150452914Y-75914285D02*
X150643390Y-75866666D01*
X150643390Y-75866666D02*
X150786247Y-75866666D01*
X150786247Y-75866666D02*
X150976723Y-75914285D01*
X150976723Y-75914285D02*
X151071961Y-75961904D01*
X151071961Y-75961904D02*
X151167200Y-76057142D01*
X151167200Y-76057142D02*
X151214819Y-76199999D01*
X151214819Y-76199999D02*
X151214819Y-76438094D01*
X150214819Y-75533332D02*
X150214819Y-74914285D01*
X150214819Y-74914285D02*
X150595771Y-75247618D01*
X150595771Y-75247618D02*
X150595771Y-75104761D01*
X150595771Y-75104761D02*
X150643390Y-75009523D01*
X150643390Y-75009523D02*
X150691009Y-74961904D01*
X150691009Y-74961904D02*
X150786247Y-74914285D01*
X150786247Y-74914285D02*
X151024342Y-74914285D01*
X151024342Y-74914285D02*
X151119580Y-74961904D01*
X151119580Y-74961904D02*
X151167200Y-75009523D01*
X151167200Y-75009523D02*
X151214819Y-75104761D01*
X151214819Y-75104761D02*
X151214819Y-75390475D01*
X151214819Y-75390475D02*
X151167200Y-75485713D01*
X151167200Y-75485713D02*
X151119580Y-75533332D01*
%TO.C,R13*%
X147867142Y-81754819D02*
X147533809Y-81278628D01*
X147295714Y-81754819D02*
X147295714Y-80754819D01*
X147295714Y-80754819D02*
X147676666Y-80754819D01*
X147676666Y-80754819D02*
X147771904Y-80802438D01*
X147771904Y-80802438D02*
X147819523Y-80850057D01*
X147819523Y-80850057D02*
X147867142Y-80945295D01*
X147867142Y-80945295D02*
X147867142Y-81088152D01*
X147867142Y-81088152D02*
X147819523Y-81183390D01*
X147819523Y-81183390D02*
X147771904Y-81231009D01*
X147771904Y-81231009D02*
X147676666Y-81278628D01*
X147676666Y-81278628D02*
X147295714Y-81278628D01*
X148819523Y-81754819D02*
X148248095Y-81754819D01*
X148533809Y-81754819D02*
X148533809Y-80754819D01*
X148533809Y-80754819D02*
X148438571Y-80897676D01*
X148438571Y-80897676D02*
X148343333Y-80992914D01*
X148343333Y-80992914D02*
X148248095Y-81040533D01*
X149152857Y-80754819D02*
X149771904Y-80754819D01*
X149771904Y-80754819D02*
X149438571Y-81135771D01*
X149438571Y-81135771D02*
X149581428Y-81135771D01*
X149581428Y-81135771D02*
X149676666Y-81183390D01*
X149676666Y-81183390D02*
X149724285Y-81231009D01*
X149724285Y-81231009D02*
X149771904Y-81326247D01*
X149771904Y-81326247D02*
X149771904Y-81564342D01*
X149771904Y-81564342D02*
X149724285Y-81659580D01*
X149724285Y-81659580D02*
X149676666Y-81707200D01*
X149676666Y-81707200D02*
X149581428Y-81754819D01*
X149581428Y-81754819D02*
X149295714Y-81754819D01*
X149295714Y-81754819D02*
X149200476Y-81707200D01*
X149200476Y-81707200D02*
X149152857Y-81659580D01*
%TO.C,R19*%
X161117142Y-79004819D02*
X160783809Y-78528628D01*
X160545714Y-79004819D02*
X160545714Y-78004819D01*
X160545714Y-78004819D02*
X160926666Y-78004819D01*
X160926666Y-78004819D02*
X161021904Y-78052438D01*
X161021904Y-78052438D02*
X161069523Y-78100057D01*
X161069523Y-78100057D02*
X161117142Y-78195295D01*
X161117142Y-78195295D02*
X161117142Y-78338152D01*
X161117142Y-78338152D02*
X161069523Y-78433390D01*
X161069523Y-78433390D02*
X161021904Y-78481009D01*
X161021904Y-78481009D02*
X160926666Y-78528628D01*
X160926666Y-78528628D02*
X160545714Y-78528628D01*
X162069523Y-79004819D02*
X161498095Y-79004819D01*
X161783809Y-79004819D02*
X161783809Y-78004819D01*
X161783809Y-78004819D02*
X161688571Y-78147676D01*
X161688571Y-78147676D02*
X161593333Y-78242914D01*
X161593333Y-78242914D02*
X161498095Y-78290533D01*
X162545714Y-79004819D02*
X162736190Y-79004819D01*
X162736190Y-79004819D02*
X162831428Y-78957200D01*
X162831428Y-78957200D02*
X162879047Y-78909580D01*
X162879047Y-78909580D02*
X162974285Y-78766723D01*
X162974285Y-78766723D02*
X163021904Y-78576247D01*
X163021904Y-78576247D02*
X163021904Y-78195295D01*
X163021904Y-78195295D02*
X162974285Y-78100057D01*
X162974285Y-78100057D02*
X162926666Y-78052438D01*
X162926666Y-78052438D02*
X162831428Y-78004819D01*
X162831428Y-78004819D02*
X162640952Y-78004819D01*
X162640952Y-78004819D02*
X162545714Y-78052438D01*
X162545714Y-78052438D02*
X162498095Y-78100057D01*
X162498095Y-78100057D02*
X162450476Y-78195295D01*
X162450476Y-78195295D02*
X162450476Y-78433390D01*
X162450476Y-78433390D02*
X162498095Y-78528628D01*
X162498095Y-78528628D02*
X162545714Y-78576247D01*
X162545714Y-78576247D02*
X162640952Y-78623866D01*
X162640952Y-78623866D02*
X162831428Y-78623866D01*
X162831428Y-78623866D02*
X162926666Y-78576247D01*
X162926666Y-78576247D02*
X162974285Y-78528628D01*
X162974285Y-78528628D02*
X163021904Y-78433390D01*
%TO.C,R4*%
X144093333Y-103754819D02*
X143760000Y-103278628D01*
X143521905Y-103754819D02*
X143521905Y-102754819D01*
X143521905Y-102754819D02*
X143902857Y-102754819D01*
X143902857Y-102754819D02*
X143998095Y-102802438D01*
X143998095Y-102802438D02*
X144045714Y-102850057D01*
X144045714Y-102850057D02*
X144093333Y-102945295D01*
X144093333Y-102945295D02*
X144093333Y-103088152D01*
X144093333Y-103088152D02*
X144045714Y-103183390D01*
X144045714Y-103183390D02*
X143998095Y-103231009D01*
X143998095Y-103231009D02*
X143902857Y-103278628D01*
X143902857Y-103278628D02*
X143521905Y-103278628D01*
X144950476Y-103088152D02*
X144950476Y-103754819D01*
X144712381Y-102707200D02*
X144474286Y-103421485D01*
X144474286Y-103421485D02*
X145093333Y-103421485D01*
%TO.C,Q4*%
X130810057Y-84395238D02*
X130762438Y-84490476D01*
X130762438Y-84490476D02*
X130667200Y-84585714D01*
X130667200Y-84585714D02*
X130524342Y-84728571D01*
X130524342Y-84728571D02*
X130476723Y-84823809D01*
X130476723Y-84823809D02*
X130476723Y-84919047D01*
X130714819Y-84871428D02*
X130667200Y-84966666D01*
X130667200Y-84966666D02*
X130571961Y-85061904D01*
X130571961Y-85061904D02*
X130381485Y-85109523D01*
X130381485Y-85109523D02*
X130048152Y-85109523D01*
X130048152Y-85109523D02*
X129857676Y-85061904D01*
X129857676Y-85061904D02*
X129762438Y-84966666D01*
X129762438Y-84966666D02*
X129714819Y-84871428D01*
X129714819Y-84871428D02*
X129714819Y-84680952D01*
X129714819Y-84680952D02*
X129762438Y-84585714D01*
X129762438Y-84585714D02*
X129857676Y-84490476D01*
X129857676Y-84490476D02*
X130048152Y-84442857D01*
X130048152Y-84442857D02*
X130381485Y-84442857D01*
X130381485Y-84442857D02*
X130571961Y-84490476D01*
X130571961Y-84490476D02*
X130667200Y-84585714D01*
X130667200Y-84585714D02*
X130714819Y-84680952D01*
X130714819Y-84680952D02*
X130714819Y-84871428D01*
X130048152Y-83585714D02*
X130714819Y-83585714D01*
X129667200Y-83823809D02*
X130381485Y-84061904D01*
X130381485Y-84061904D02*
X130381485Y-83442857D01*
%TO.C,R5*%
X153964819Y-101216666D02*
X153488628Y-101549999D01*
X153964819Y-101788094D02*
X152964819Y-101788094D01*
X152964819Y-101788094D02*
X152964819Y-101407142D01*
X152964819Y-101407142D02*
X153012438Y-101311904D01*
X153012438Y-101311904D02*
X153060057Y-101264285D01*
X153060057Y-101264285D02*
X153155295Y-101216666D01*
X153155295Y-101216666D02*
X153298152Y-101216666D01*
X153298152Y-101216666D02*
X153393390Y-101264285D01*
X153393390Y-101264285D02*
X153441009Y-101311904D01*
X153441009Y-101311904D02*
X153488628Y-101407142D01*
X153488628Y-101407142D02*
X153488628Y-101788094D01*
X152964819Y-100311904D02*
X152964819Y-100788094D01*
X152964819Y-100788094D02*
X153441009Y-100835713D01*
X153441009Y-100835713D02*
X153393390Y-100788094D01*
X153393390Y-100788094D02*
X153345771Y-100692856D01*
X153345771Y-100692856D02*
X153345771Y-100454761D01*
X153345771Y-100454761D02*
X153393390Y-100359523D01*
X153393390Y-100359523D02*
X153441009Y-100311904D01*
X153441009Y-100311904D02*
X153536247Y-100264285D01*
X153536247Y-100264285D02*
X153774342Y-100264285D01*
X153774342Y-100264285D02*
X153869580Y-100311904D01*
X153869580Y-100311904D02*
X153917200Y-100359523D01*
X153917200Y-100359523D02*
X153964819Y-100454761D01*
X153964819Y-100454761D02*
X153964819Y-100692856D01*
X153964819Y-100692856D02*
X153917200Y-100788094D01*
X153917200Y-100788094D02*
X153869580Y-100835713D01*
%TO.C,R20*%
X151467142Y-69404819D02*
X151133809Y-68928628D01*
X150895714Y-69404819D02*
X150895714Y-68404819D01*
X150895714Y-68404819D02*
X151276666Y-68404819D01*
X151276666Y-68404819D02*
X151371904Y-68452438D01*
X151371904Y-68452438D02*
X151419523Y-68500057D01*
X151419523Y-68500057D02*
X151467142Y-68595295D01*
X151467142Y-68595295D02*
X151467142Y-68738152D01*
X151467142Y-68738152D02*
X151419523Y-68833390D01*
X151419523Y-68833390D02*
X151371904Y-68881009D01*
X151371904Y-68881009D02*
X151276666Y-68928628D01*
X151276666Y-68928628D02*
X150895714Y-68928628D01*
X151848095Y-68500057D02*
X151895714Y-68452438D01*
X151895714Y-68452438D02*
X151990952Y-68404819D01*
X151990952Y-68404819D02*
X152229047Y-68404819D01*
X152229047Y-68404819D02*
X152324285Y-68452438D01*
X152324285Y-68452438D02*
X152371904Y-68500057D01*
X152371904Y-68500057D02*
X152419523Y-68595295D01*
X152419523Y-68595295D02*
X152419523Y-68690533D01*
X152419523Y-68690533D02*
X152371904Y-68833390D01*
X152371904Y-68833390D02*
X151800476Y-69404819D01*
X151800476Y-69404819D02*
X152419523Y-69404819D01*
X153038571Y-68404819D02*
X153133809Y-68404819D01*
X153133809Y-68404819D02*
X153229047Y-68452438D01*
X153229047Y-68452438D02*
X153276666Y-68500057D01*
X153276666Y-68500057D02*
X153324285Y-68595295D01*
X153324285Y-68595295D02*
X153371904Y-68785771D01*
X153371904Y-68785771D02*
X153371904Y-69023866D01*
X153371904Y-69023866D02*
X153324285Y-69214342D01*
X153324285Y-69214342D02*
X153276666Y-69309580D01*
X153276666Y-69309580D02*
X153229047Y-69357200D01*
X153229047Y-69357200D02*
X153133809Y-69404819D01*
X153133809Y-69404819D02*
X153038571Y-69404819D01*
X153038571Y-69404819D02*
X152943333Y-69357200D01*
X152943333Y-69357200D02*
X152895714Y-69309580D01*
X152895714Y-69309580D02*
X152848095Y-69214342D01*
X152848095Y-69214342D02*
X152800476Y-69023866D01*
X152800476Y-69023866D02*
X152800476Y-68785771D01*
X152800476Y-68785771D02*
X152848095Y-68595295D01*
X152848095Y-68595295D02*
X152895714Y-68500057D01*
X152895714Y-68500057D02*
X152943333Y-68452438D01*
X152943333Y-68452438D02*
X153038571Y-68404819D01*
%TO.C,Q2*%
X149560057Y-84145238D02*
X149512438Y-84240476D01*
X149512438Y-84240476D02*
X149417200Y-84335714D01*
X149417200Y-84335714D02*
X149274342Y-84478571D01*
X149274342Y-84478571D02*
X149226723Y-84573809D01*
X149226723Y-84573809D02*
X149226723Y-84669047D01*
X149464819Y-84621428D02*
X149417200Y-84716666D01*
X149417200Y-84716666D02*
X149321961Y-84811904D01*
X149321961Y-84811904D02*
X149131485Y-84859523D01*
X149131485Y-84859523D02*
X148798152Y-84859523D01*
X148798152Y-84859523D02*
X148607676Y-84811904D01*
X148607676Y-84811904D02*
X148512438Y-84716666D01*
X148512438Y-84716666D02*
X148464819Y-84621428D01*
X148464819Y-84621428D02*
X148464819Y-84430952D01*
X148464819Y-84430952D02*
X148512438Y-84335714D01*
X148512438Y-84335714D02*
X148607676Y-84240476D01*
X148607676Y-84240476D02*
X148798152Y-84192857D01*
X148798152Y-84192857D02*
X149131485Y-84192857D01*
X149131485Y-84192857D02*
X149321961Y-84240476D01*
X149321961Y-84240476D02*
X149417200Y-84335714D01*
X149417200Y-84335714D02*
X149464819Y-84430952D01*
X149464819Y-84430952D02*
X149464819Y-84621428D01*
X148560057Y-83811904D02*
X148512438Y-83764285D01*
X148512438Y-83764285D02*
X148464819Y-83669047D01*
X148464819Y-83669047D02*
X148464819Y-83430952D01*
X148464819Y-83430952D02*
X148512438Y-83335714D01*
X148512438Y-83335714D02*
X148560057Y-83288095D01*
X148560057Y-83288095D02*
X148655295Y-83240476D01*
X148655295Y-83240476D02*
X148750533Y-83240476D01*
X148750533Y-83240476D02*
X148893390Y-83288095D01*
X148893390Y-83288095D02*
X149464819Y-83859523D01*
X149464819Y-83859523D02*
X149464819Y-83240476D01*
%TO.C,SW1*%
X152250000Y-151175000D02*
X152250000Y-133875000D01*
X152250000Y-151175000D02*
X134250000Y-151175000D01*
X134250000Y-151175000D02*
X134250000Y-133875000D01*
X134250000Y-133875000D02*
X152150000Y-133875000D01*
D11*
%TO.C,J3*%
X141960000Y-127085000D02*
X139040000Y-127085000D01*
X141960000Y-118185000D02*
X141960000Y-127085000D01*
X141960000Y-118145000D02*
X139040000Y-118145000D01*
X139040000Y-131835000D02*
X136410000Y-131835000D01*
X139040000Y-127085000D02*
X139040000Y-131835000D01*
X139040000Y-113395000D02*
X139040000Y-118145000D01*
X136410000Y-113395000D02*
X139040000Y-113395000D01*
X133610000Y-131835000D02*
X130010000Y-131835000D01*
X130010000Y-113395000D02*
X133610000Y-113395000D01*
X127310000Y-131835000D02*
X123710000Y-131835000D01*
X123710000Y-113395000D02*
X127310000Y-113395000D01*
X118190000Y-131835000D02*
X120910000Y-131835000D01*
X118190000Y-128435000D02*
X118190000Y-131835000D01*
X118190000Y-128435000D02*
X115190000Y-128435000D01*
X118190000Y-116795000D02*
X115190000Y-116795000D01*
X118190000Y-113395000D02*
X120910000Y-113395000D01*
X118190000Y-113395000D02*
X118190000Y-116795000D01*
X115190000Y-116795000D02*
X115190000Y-128435000D01*
%TO.C,J1*%
X133430000Y-53930000D02*
X134760000Y-53930000D01*
X133430000Y-55260000D02*
X133430000Y-53930000D01*
X133430000Y-56530000D02*
X133430000Y-59130000D01*
X133430000Y-56530000D02*
X136090000Y-56530000D01*
X133430000Y-59130000D02*
X136090000Y-59130000D01*
X136090000Y-56530000D02*
X136090000Y-59130000D01*
%TO.C,JOVGI1*%
X148030000Y-110020000D02*
X148030000Y-111350000D01*
X146700000Y-110020000D02*
X148030000Y-110020000D01*
X145430000Y-110020000D02*
X137750000Y-110020000D01*
X145430000Y-110020000D02*
X145430000Y-112680000D01*
X137750000Y-110020000D02*
X137750000Y-112680000D01*
X145430000Y-112680000D02*
X137750000Y-112680000D01*
%TO.C,JOVGI2*%
X148030000Y-104470000D02*
X148030000Y-105800000D01*
X146700000Y-104470000D02*
X148030000Y-104470000D01*
X145430000Y-104470000D02*
X137750000Y-104470000D01*
X145430000Y-104470000D02*
X145430000Y-107130000D01*
X137750000Y-104470000D02*
X137750000Y-107130000D01*
X145430000Y-107130000D02*
X137750000Y-107130000D01*
%TO.C,C2*%
X162000000Y-138000000D02*
X162000000Y-139200000D01*
X162650000Y-138600000D02*
X161350000Y-138600000D01*
X166050000Y-141450000D02*
X157950000Y-141450000D01*
X166050000Y-141490000D02*
X157950000Y-141490000D01*
X166050000Y-141530000D02*
X157950000Y-141530000D01*
X166049000Y-141570000D02*
X157951000Y-141570000D01*
X166047000Y-141610000D02*
X157953000Y-141610000D01*
X166046000Y-141650000D02*
X157954000Y-141650000D01*
X166043000Y-141690000D02*
X157957000Y-141690000D01*
X166041000Y-141730000D02*
X162980000Y-141730000D01*
X161020000Y-141730000D02*
X157959000Y-141730000D01*
X166038000Y-141770000D02*
X162980000Y-141770000D01*
X161020000Y-141770000D02*
X157962000Y-141770000D01*
X166035000Y-141810000D02*
X162980000Y-141810000D01*
X161020000Y-141810000D02*
X157965000Y-141810000D01*
X166031000Y-141850000D02*
X162980000Y-141850000D01*
X161020000Y-141850000D02*
X157969000Y-141850000D01*
X166027000Y-141890000D02*
X162980000Y-141890000D01*
X161020000Y-141890000D02*
X157973000Y-141890000D01*
X166022000Y-141930000D02*
X162980000Y-141930000D01*
X161020000Y-141930000D02*
X157978000Y-141930000D01*
X166017000Y-141970000D02*
X162980000Y-141970000D01*
X161020000Y-141970000D02*
X157983000Y-141970000D01*
X166012000Y-142010000D02*
X162980000Y-142010000D01*
X161020000Y-142010000D02*
X157988000Y-142010000D01*
X166006000Y-142050000D02*
X162980000Y-142050000D01*
X161020000Y-142050000D02*
X157994000Y-142050000D01*
X166000000Y-142090000D02*
X162980000Y-142090000D01*
X161020000Y-142090000D02*
X158000000Y-142090000D01*
X165994000Y-142130000D02*
X162980000Y-142130000D01*
X161020000Y-142130000D02*
X158006000Y-142130000D01*
X165987000Y-142171000D02*
X162980000Y-142171000D01*
X161020000Y-142171000D02*
X158013000Y-142171000D01*
X165979000Y-142211000D02*
X162980000Y-142211000D01*
X161020000Y-142211000D02*
X158021000Y-142211000D01*
X165971000Y-142251000D02*
X162980000Y-142251000D01*
X161020000Y-142251000D02*
X158029000Y-142251000D01*
X165963000Y-142291000D02*
X162980000Y-142291000D01*
X161020000Y-142291000D02*
X158037000Y-142291000D01*
X165955000Y-142331000D02*
X162980000Y-142331000D01*
X161020000Y-142331000D02*
X158045000Y-142331000D01*
X165946000Y-142371000D02*
X162980000Y-142371000D01*
X161020000Y-142371000D02*
X158054000Y-142371000D01*
X165936000Y-142411000D02*
X162980000Y-142411000D01*
X161020000Y-142411000D02*
X158064000Y-142411000D01*
X165926000Y-142451000D02*
X162980000Y-142451000D01*
X161020000Y-142451000D02*
X158074000Y-142451000D01*
X165916000Y-142491000D02*
X162980000Y-142491000D01*
X161020000Y-142491000D02*
X158084000Y-142491000D01*
X165905000Y-142531000D02*
X162980000Y-142531000D01*
X161020000Y-142531000D02*
X158095000Y-142531000D01*
X165894000Y-142571000D02*
X162980000Y-142571000D01*
X161020000Y-142571000D02*
X158106000Y-142571000D01*
X165883000Y-142611000D02*
X162980000Y-142611000D01*
X161020000Y-142611000D02*
X158117000Y-142611000D01*
X165870000Y-142651000D02*
X162980000Y-142651000D01*
X161020000Y-142651000D02*
X158130000Y-142651000D01*
X165858000Y-142691000D02*
X162980000Y-142691000D01*
X161020000Y-142691000D02*
X158142000Y-142691000D01*
X165845000Y-142731000D02*
X162980000Y-142731000D01*
X161020000Y-142731000D02*
X158155000Y-142731000D01*
X165832000Y-142771000D02*
X162980000Y-142771000D01*
X161020000Y-142771000D02*
X158168000Y-142771000D01*
X165818000Y-142811000D02*
X162980000Y-142811000D01*
X161020000Y-142811000D02*
X158182000Y-142811000D01*
X165803000Y-142851000D02*
X162980000Y-142851000D01*
X161020000Y-142851000D02*
X158197000Y-142851000D01*
X165789000Y-142891000D02*
X162980000Y-142891000D01*
X161020000Y-142891000D02*
X158211000Y-142891000D01*
X165773000Y-142931000D02*
X162980000Y-142931000D01*
X161020000Y-142931000D02*
X158227000Y-142931000D01*
X165758000Y-142971000D02*
X162980000Y-142971000D01*
X161020000Y-142971000D02*
X158242000Y-142971000D01*
X165741000Y-143011000D02*
X162980000Y-143011000D01*
X161020000Y-143011000D02*
X158259000Y-143011000D01*
X165725000Y-143051000D02*
X162980000Y-143051000D01*
X161020000Y-143051000D02*
X158275000Y-143051000D01*
X165707000Y-143091000D02*
X162980000Y-143091000D01*
X161020000Y-143091000D02*
X158293000Y-143091000D01*
X165690000Y-143131000D02*
X162980000Y-143131000D01*
X161020000Y-143131000D02*
X158310000Y-143131000D01*
X165671000Y-143171000D02*
X162980000Y-143171000D01*
X161020000Y-143171000D02*
X158329000Y-143171000D01*
X165652000Y-143211000D02*
X162980000Y-143211000D01*
X161020000Y-143211000D02*
X158348000Y-143211000D01*
X165633000Y-143251000D02*
X162980000Y-143251000D01*
X161020000Y-143251000D02*
X158367000Y-143251000D01*
X165613000Y-143291000D02*
X162980000Y-143291000D01*
X161020000Y-143291000D02*
X158387000Y-143291000D01*
X165593000Y-143331000D02*
X162980000Y-143331000D01*
X161020000Y-143331000D02*
X158407000Y-143331000D01*
X165572000Y-143371000D02*
X162980000Y-143371000D01*
X161020000Y-143371000D02*
X158428000Y-143371000D01*
X165550000Y-143411000D02*
X162980000Y-143411000D01*
X161020000Y-143411000D02*
X158450000Y-143411000D01*
X165528000Y-143451000D02*
X162980000Y-143451000D01*
X161020000Y-143451000D02*
X158472000Y-143451000D01*
X165505000Y-143491000D02*
X162980000Y-143491000D01*
X161020000Y-143491000D02*
X158495000Y-143491000D01*
X165482000Y-143531000D02*
X162980000Y-143531000D01*
X161020000Y-143531000D02*
X158518000Y-143531000D01*
X165458000Y-143571000D02*
X162980000Y-143571000D01*
X161020000Y-143571000D02*
X158542000Y-143571000D01*
X165434000Y-143611000D02*
X162980000Y-143611000D01*
X161020000Y-143611000D02*
X158566000Y-143611000D01*
X165408000Y-143651000D02*
X162980000Y-143651000D01*
X161020000Y-143651000D02*
X158592000Y-143651000D01*
X165383000Y-143691000D02*
X158617000Y-143691000D01*
X165356000Y-143731000D02*
X158644000Y-143731000D01*
X165329000Y-143771000D02*
X158671000Y-143771000D01*
X165301000Y-143811000D02*
X158699000Y-143811000D01*
X165272000Y-143851000D02*
X158728000Y-143851000D01*
X165243000Y-143891000D02*
X158757000Y-143891000D01*
X165213000Y-143931000D02*
X158787000Y-143931000D01*
X165182000Y-143971000D02*
X158818000Y-143971000D01*
X165150000Y-144011000D02*
X158850000Y-144011000D01*
X165118000Y-144051000D02*
X158882000Y-144051000D01*
X165084000Y-144091000D02*
X158916000Y-144091000D01*
X165050000Y-144131000D02*
X158950000Y-144131000D01*
X165015000Y-144171000D02*
X158985000Y-144171000D01*
X164979000Y-144211000D02*
X159021000Y-144211000D01*
X164942000Y-144251000D02*
X159058000Y-144251000D01*
X164904000Y-144291000D02*
X159096000Y-144291000D01*
X164865000Y-144331000D02*
X159135000Y-144331000D01*
X164824000Y-144371000D02*
X159176000Y-144371000D01*
X164783000Y-144411000D02*
X159217000Y-144411000D01*
X164740000Y-144451000D02*
X159260000Y-144451000D01*
X164697000Y-144491000D02*
X159303000Y-144491000D01*
X164652000Y-144531000D02*
X159348000Y-144531000D01*
X164605000Y-144571000D02*
X159395000Y-144571000D01*
X164557000Y-144611000D02*
X159443000Y-144611000D01*
X164508000Y-144651000D02*
X159492000Y-144651000D01*
X164457000Y-144691000D02*
X159543000Y-144691000D01*
X164404000Y-144731000D02*
X159596000Y-144731000D01*
X164349000Y-144771000D02*
X159651000Y-144771000D01*
X164293000Y-144811000D02*
X159707000Y-144811000D01*
X164234000Y-144851000D02*
X159766000Y-144851000D01*
X164173000Y-144891000D02*
X159827000Y-144891000D01*
X164109000Y-144931000D02*
X159891000Y-144931000D01*
X164043000Y-144971000D02*
X159957000Y-144971000D01*
X163974000Y-145011000D02*
X160026000Y-145011000D01*
X163902000Y-145051000D02*
X160098000Y-145051000D01*
X163826000Y-145091000D02*
X160174000Y-145091000D01*
X163745000Y-145131000D02*
X160255000Y-145131000D01*
X163660000Y-145171000D02*
X160340000Y-145171000D01*
X163570000Y-145211000D02*
X160430000Y-145211000D01*
X163473000Y-145251000D02*
X160527000Y-145251000D01*
X163369000Y-145291000D02*
X160631000Y-145291000D01*
X163254000Y-145331000D02*
X160746000Y-145331000D01*
X163127000Y-145371000D02*
X160873000Y-145371000D01*
X162983000Y-145411000D02*
X161017000Y-145411000D01*
X162814000Y-145451000D02*
X161186000Y-145451000D01*
X162598000Y-145491000D02*
X161402000Y-145491000D01*
X162246000Y-145531000D02*
X161754000Y-145531000D01*
X166090000Y-141450000D02*
G75*
G03*
X166090000Y-141450000I-4090000J0D01*
G01*
D10*
%TO.C,D1*%
X124000000Y-138770000D02*
X121000000Y-138770000D01*
X124024903Y-138754887D02*
G75*
G03*
X121000000Y-138769999I-1524903J2484887D01*
G01*
X125017936Y-136270000D02*
G75*
G03*
X125017936Y-136270000I-2517936J0D01*
G01*
%TO.C,R1*%
X156770000Y-136270000D02*
X156770000Y-141350000D01*
X154230000Y-136270000D02*
X156770000Y-136270000D01*
X156770000Y-141350000D02*
X154230000Y-141350000D01*
X154230000Y-141350000D02*
X154230000Y-136270000D01*
%TO.C,R2*%
X126490000Y-141330000D02*
X126490000Y-136250000D01*
X129030000Y-141330000D02*
X126490000Y-141330000D01*
X126490000Y-136250000D02*
X129030000Y-136250000D01*
X129030000Y-136250000D02*
X129030000Y-141330000D01*
%TO.C,R3*%
X132280000Y-136270000D02*
X132280000Y-141350000D01*
X129740000Y-136270000D02*
X132280000Y-136270000D01*
X132280000Y-141350000D02*
X129740000Y-141350000D01*
X129740000Y-141350000D02*
X129740000Y-136270000D01*
%TO.C,C1*%
X160050000Y-133250000D02*
X167050000Y-133250000D01*
X160050000Y-136750000D02*
X160050000Y-133250000D01*
X167050000Y-133250000D02*
X167050000Y-136750000D01*
X167050000Y-136750000D02*
X160050000Y-136750000D01*
D11*
%TO.C,J4*%
X145470000Y-115480000D02*
X145470000Y-116810000D01*
X144140000Y-115480000D02*
X145470000Y-115480000D01*
X142870000Y-115480000D02*
X140270000Y-115480000D01*
X142870000Y-115480000D02*
X142870000Y-118140000D01*
X140270000Y-115480000D02*
X140270000Y-118140000D01*
X142870000Y-118140000D02*
X140270000Y-118140000D01*
%TO.C,J2*%
X143625000Y-118145000D02*
X146545000Y-118145000D01*
X143625000Y-127045000D02*
X143625000Y-118145000D01*
X143625000Y-127085000D02*
X146545000Y-127085000D01*
X146545000Y-113395000D02*
X149175000Y-113395000D01*
X146545000Y-118145000D02*
X146545000Y-113395000D01*
X146545000Y-131835000D02*
X146545000Y-127085000D01*
X149175000Y-131835000D02*
X146545000Y-131835000D01*
X151975000Y-113395000D02*
X155575000Y-113395000D01*
X155575000Y-131835000D02*
X151975000Y-131835000D01*
X158275000Y-113395000D02*
X161875000Y-113395000D01*
X161875000Y-131835000D02*
X158275000Y-131835000D01*
X167395000Y-113395000D02*
X164675000Y-113395000D01*
X167395000Y-116795000D02*
X167395000Y-113395000D01*
X167395000Y-116795000D02*
X170395000Y-116795000D01*
X167395000Y-128435000D02*
X170395000Y-128435000D01*
X167395000Y-131835000D02*
X164675000Y-131835000D01*
X167395000Y-131835000D02*
X167395000Y-128435000D01*
X170395000Y-128435000D02*
X170395000Y-116795000D01*
%TO.C,C16*%
X120375000Y-98498752D02*
X120375000Y-97976248D01*
X121845000Y-98498752D02*
X121845000Y-97976248D01*
%TO.C,C17*%
X124945000Y-87938748D02*
X124945000Y-88461252D01*
X123475000Y-87938748D02*
X123475000Y-88461252D01*
%TO.C,C6*%
X145111248Y-87265000D02*
X145633752Y-87265000D01*
X145111248Y-88735000D02*
X145633752Y-88735000D01*
%TO.C,C14*%
X158871252Y-77935000D02*
X158348748Y-77935000D01*
X158871252Y-76465000D02*
X158348748Y-76465000D01*
%TO.C,RV2*%
X137970000Y-84450000D02*
X137970000Y-79730000D01*
X139160000Y-84450000D02*
X137980000Y-84450000D01*
X142060000Y-84450000D02*
X141530000Y-84450000D01*
X144510000Y-84450000D02*
X143680000Y-84450000D01*
X147720000Y-84450000D02*
X146230000Y-84450000D01*
X147720000Y-84450000D02*
X147720000Y-79730000D01*
X137980000Y-75920000D02*
X137980000Y-72860000D01*
X147720000Y-75920000D02*
X147720000Y-72860000D01*
X147720000Y-72860000D02*
X137980000Y-72860000D01*
%TO.C,SW2*%
X123825000Y-90700000D02*
X137795000Y-90700000D01*
X123825000Y-100245000D02*
X123825000Y-91355000D01*
X127635000Y-95800000D02*
X128905000Y-92625000D01*
X128905000Y-92625000D02*
X132715000Y-92625000D01*
X128905000Y-98975000D02*
X127635000Y-95800000D01*
X132715000Y-92625000D02*
X133985000Y-95800000D01*
X132715000Y-98975000D02*
X128905000Y-98975000D01*
X133985000Y-95800000D02*
X132715000Y-98975000D01*
X137795000Y-91355000D02*
X137795000Y-100245000D01*
X137795000Y-101000000D02*
X123825000Y-101000000D01*
X134512654Y-95800000D02*
G75*
G03*
X134512654Y-95800000I-3702654J0D01*
G01*
%TO.C,D6*%
X125750000Y-58400000D02*
X125750000Y-61700000D01*
X125750000Y-58400000D02*
X131260000Y-58400000D01*
X125750000Y-61700000D02*
X131260000Y-61700000D01*
%TO.C,C12*%
X155808752Y-88635000D02*
X155286248Y-88635000D01*
X155808752Y-87165000D02*
X155286248Y-87165000D01*
%TO.C,R17*%
X159949564Y-94035000D02*
X159495436Y-94035000D01*
X159949564Y-92565000D02*
X159495436Y-92565000D01*
%TO.C,Q1*%
X148447500Y-98360000D02*
X150122500Y-98360000D01*
X148447500Y-98360000D02*
X147797500Y-98360000D01*
X148447500Y-95240000D02*
X149097500Y-95240000D01*
X148447500Y-95240000D02*
X147797500Y-95240000D01*
%TO.C,C7*%
X151286248Y-78465000D02*
X151808752Y-78465000D01*
X151286248Y-79935000D02*
X151808752Y-79935000D01*
%TO.C,C19*%
X133677380Y-66261000D02*
X134307380Y-66261000D01*
X133992380Y-65946000D02*
X133992380Y-66576000D01*
X137177621Y-64870000D02*
X137177621Y-71330000D01*
X137217621Y-64870000D02*
X137217621Y-71330000D01*
X137257621Y-64870000D02*
X137257621Y-71330000D01*
X137297621Y-64872000D02*
X137297621Y-71328000D01*
X137337621Y-64873000D02*
X137337621Y-71327000D01*
X137377621Y-64876000D02*
X137377621Y-71324000D01*
X137417621Y-64878000D02*
X137417621Y-67060000D01*
X137417621Y-69140000D02*
X137417621Y-71322000D01*
X137457621Y-64882000D02*
X137457621Y-67060000D01*
X137457621Y-69140000D02*
X137457621Y-71318000D01*
X137497621Y-64885000D02*
X137497621Y-67060000D01*
X137497621Y-69140000D02*
X137497621Y-71315000D01*
X137537621Y-64889000D02*
X137537621Y-67060000D01*
X137537621Y-69140000D02*
X137537621Y-71311000D01*
X137577621Y-64894000D02*
X137577621Y-67060000D01*
X137577621Y-69140000D02*
X137577621Y-71306000D01*
X137617621Y-64899000D02*
X137617621Y-67060000D01*
X137617621Y-69140000D02*
X137617621Y-71301000D01*
X137657621Y-64905000D02*
X137657621Y-67060000D01*
X137657621Y-69140000D02*
X137657621Y-71295000D01*
X137697621Y-64911000D02*
X137697621Y-67060000D01*
X137697621Y-69140000D02*
X137697621Y-71289000D01*
X137737621Y-64918000D02*
X137737621Y-67060000D01*
X137737621Y-69140000D02*
X137737621Y-71282000D01*
X137777621Y-64925000D02*
X137777621Y-67060000D01*
X137777621Y-69140000D02*
X137777621Y-71275000D01*
X137817621Y-64933000D02*
X137817621Y-67060000D01*
X137817621Y-69140000D02*
X137817621Y-71267000D01*
X137857621Y-64941000D02*
X137857621Y-67060000D01*
X137857621Y-69140000D02*
X137857621Y-71259000D01*
X137898621Y-64950000D02*
X137898621Y-67060000D01*
X137898621Y-69140000D02*
X137898621Y-71250000D01*
X137938621Y-64959000D02*
X137938621Y-67060000D01*
X137938621Y-69140000D02*
X137938621Y-71241000D01*
X137978621Y-64969000D02*
X137978621Y-67060000D01*
X137978621Y-69140000D02*
X137978621Y-71231000D01*
X138018621Y-64979000D02*
X138018621Y-67060000D01*
X138018621Y-69140000D02*
X138018621Y-71221000D01*
X138058621Y-64990000D02*
X138058621Y-67060000D01*
X138058621Y-69140000D02*
X138058621Y-71210000D01*
X138098621Y-65002000D02*
X138098621Y-67060000D01*
X138098621Y-69140000D02*
X138098621Y-71198000D01*
X138138621Y-65014000D02*
X138138621Y-67060000D01*
X138138621Y-69140000D02*
X138138621Y-71186000D01*
X138178621Y-65026000D02*
X138178621Y-67060000D01*
X138178621Y-69140000D02*
X138178621Y-71174000D01*
X138218621Y-65039000D02*
X138218621Y-67060000D01*
X138218621Y-69140000D02*
X138218621Y-71161000D01*
X138258621Y-65053000D02*
X138258621Y-67060000D01*
X138258621Y-69140000D02*
X138258621Y-71147000D01*
X138298621Y-65067000D02*
X138298621Y-67060000D01*
X138298621Y-69140000D02*
X138298621Y-71133000D01*
X138338621Y-65082000D02*
X138338621Y-67060000D01*
X138338621Y-69140000D02*
X138338621Y-71118000D01*
X138378621Y-65098000D02*
X138378621Y-67060000D01*
X138378621Y-69140000D02*
X138378621Y-71102000D01*
X138418621Y-65114000D02*
X138418621Y-67060000D01*
X138418621Y-69140000D02*
X138418621Y-71086000D01*
X138458621Y-65130000D02*
X138458621Y-67060000D01*
X138458621Y-69140000D02*
X138458621Y-71070000D01*
X138498621Y-65148000D02*
X138498621Y-67060000D01*
X138498621Y-69140000D02*
X138498621Y-71052000D01*
X138538621Y-65166000D02*
X138538621Y-67060000D01*
X138538621Y-69140000D02*
X138538621Y-71034000D01*
X138578621Y-65184000D02*
X138578621Y-67060000D01*
X138578621Y-69140000D02*
X138578621Y-71016000D01*
X138618621Y-65204000D02*
X138618621Y-67060000D01*
X138618621Y-69140000D02*
X138618621Y-70996000D01*
X138658621Y-65224000D02*
X138658621Y-67060000D01*
X138658621Y-69140000D02*
X138658621Y-70976000D01*
X138698621Y-65244000D02*
X138698621Y-67060000D01*
X138698621Y-69140000D02*
X138698621Y-70956000D01*
X138738621Y-65266000D02*
X138738621Y-67060000D01*
X138738621Y-69140000D02*
X138738621Y-70934000D01*
X138778621Y-65288000D02*
X138778621Y-67060000D01*
X138778621Y-69140000D02*
X138778621Y-70912000D01*
X138818621Y-65310000D02*
X138818621Y-67060000D01*
X138818621Y-69140000D02*
X138818621Y-70890000D01*
X138858621Y-65334000D02*
X138858621Y-67060000D01*
X138858621Y-69140000D02*
X138858621Y-70866000D01*
X138898621Y-65358000D02*
X138898621Y-67060000D01*
X138898621Y-69140000D02*
X138898621Y-70842000D01*
X138938621Y-65384000D02*
X138938621Y-67060000D01*
X138938621Y-69140000D02*
X138938621Y-70816000D01*
X138978621Y-65410000D02*
X138978621Y-67060000D01*
X138978621Y-69140000D02*
X138978621Y-70790000D01*
X139018621Y-65436000D02*
X139018621Y-67060000D01*
X139018621Y-69140000D02*
X139018621Y-70764000D01*
X139058621Y-65464000D02*
X139058621Y-67060000D01*
X139058621Y-69140000D02*
X139058621Y-70736000D01*
X139098621Y-65493000D02*
X139098621Y-67060000D01*
X139098621Y-69140000D02*
X139098621Y-70707000D01*
X139138621Y-65522000D02*
X139138621Y-67060000D01*
X139138621Y-69140000D02*
X139138621Y-70678000D01*
X139178621Y-65552000D02*
X139178621Y-67060000D01*
X139178621Y-69140000D02*
X139178621Y-70648000D01*
X139218621Y-65584000D02*
X139218621Y-67060000D01*
X139218621Y-69140000D02*
X139218621Y-70616000D01*
X139258621Y-65616000D02*
X139258621Y-67060000D01*
X139258621Y-69140000D02*
X139258621Y-70584000D01*
X139298621Y-65650000D02*
X139298621Y-67060000D01*
X139298621Y-69140000D02*
X139298621Y-70550000D01*
X139338621Y-65684000D02*
X139338621Y-67060000D01*
X139338621Y-69140000D02*
X139338621Y-70516000D01*
X139378621Y-65720000D02*
X139378621Y-67060000D01*
X139378621Y-69140000D02*
X139378621Y-70480000D01*
X139418621Y-65757000D02*
X139418621Y-67060000D01*
X139418621Y-69140000D02*
X139418621Y-70443000D01*
X139458621Y-65795000D02*
X139458621Y-67060000D01*
X139458621Y-69140000D02*
X139458621Y-70405000D01*
X139498621Y-65835000D02*
X139498621Y-70365000D01*
X139538621Y-65876000D02*
X139538621Y-70324000D01*
X139578621Y-65918000D02*
X139578621Y-70282000D01*
X139618621Y-65963000D02*
X139618621Y-70237000D01*
X139658621Y-66008000D02*
X139658621Y-70192000D01*
X139698621Y-66056000D02*
X139698621Y-70144000D01*
X139738621Y-66105000D02*
X139738621Y-70095000D01*
X139778621Y-66156000D02*
X139778621Y-70044000D01*
X139818621Y-66210000D02*
X139818621Y-69990000D01*
X139858621Y-66266000D02*
X139858621Y-69934000D01*
X139898621Y-66324000D02*
X139898621Y-69876000D01*
X139938621Y-66386000D02*
X139938621Y-69814000D01*
X139978621Y-66450000D02*
X139978621Y-69750000D01*
X140018621Y-66519000D02*
X140018621Y-69681000D01*
X140058621Y-66591000D02*
X140058621Y-69609000D01*
X140098621Y-66668000D02*
X140098621Y-69532000D01*
X140138621Y-66750000D02*
X140138621Y-69450000D01*
X140178621Y-66838000D02*
X140178621Y-69362000D01*
X140218621Y-66935000D02*
X140218621Y-69265000D01*
X140258621Y-67041000D02*
X140258621Y-69159000D01*
X140298621Y-67160000D02*
X140298621Y-69040000D01*
X140338621Y-67298000D02*
X140338621Y-68902000D01*
X140378621Y-67467000D02*
X140378621Y-68733000D01*
X140418621Y-67698000D02*
X140418621Y-68502000D01*
X140447621Y-68100000D02*
G75*
G03*
X140447621Y-68100000I-3270000J0D01*
G01*
%TO.C,R7*%
X151025000Y-97277064D02*
X151025000Y-96822936D01*
X152495000Y-97277064D02*
X152495000Y-96822936D01*
%TO.C,R24*%
X127775000Y-88427064D02*
X127775000Y-87972936D01*
X129245000Y-88427064D02*
X129245000Y-87972936D01*
%TO.C,R16*%
X163637064Y-82235000D02*
X163182936Y-82235000D01*
X163637064Y-80765000D02*
X163182936Y-80765000D01*
%TO.C,C5*%
X142275000Y-94061252D02*
X142275000Y-93538748D01*
X143745000Y-94061252D02*
X143745000Y-93538748D01*
%TO.C,R22*%
X118575000Y-83527064D02*
X118575000Y-83072936D01*
X120045000Y-83527064D02*
X120045000Y-83072936D01*
%TO.C,R10*%
X148982936Y-87265000D02*
X149437064Y-87265000D01*
X148982936Y-88735000D02*
X149437064Y-88735000D01*
%TO.C,R15*%
X155282936Y-84865000D02*
X155737064Y-84865000D01*
X155282936Y-86335000D02*
X155737064Y-86335000D01*
%TO.C,C13*%
X151786248Y-67665000D02*
X152308752Y-67665000D01*
X151786248Y-69135000D02*
X152308752Y-69135000D01*
%TO.C,D2*%
X151910000Y-78060000D02*
X153910000Y-78060000D01*
X151910000Y-78060000D02*
X151910000Y-74050000D01*
X153910000Y-78060000D02*
X153910000Y-74050000D01*
%TO.C,C10*%
X159983752Y-91935000D02*
X159461248Y-91935000D01*
X159983752Y-90465000D02*
X159461248Y-90465000D01*
%TO.C,R21*%
X162282936Y-76465000D02*
X162737064Y-76465000D01*
X162282936Y-77935000D02*
X162737064Y-77935000D01*
%TO.C,R12*%
X151575000Y-89127064D02*
X151575000Y-88672936D01*
X153045000Y-89127064D02*
X153045000Y-88672936D01*
%TO.C,R14*%
X147137064Y-72335000D02*
X146682936Y-72335000D01*
X147137064Y-70865000D02*
X146682936Y-70865000D01*
%TO.C,R9*%
X139575000Y-88827064D02*
X139575000Y-88372936D01*
X141045000Y-88827064D02*
X141045000Y-88372936D01*
%TO.C,R28*%
X132245000Y-56072936D02*
X132245000Y-56527064D01*
X130775000Y-56072936D02*
X130775000Y-56527064D01*
%TO.C,R6*%
X142275000Y-98277064D02*
X142275000Y-97822936D01*
X143745000Y-98277064D02*
X143745000Y-97822936D01*
%TO.C,C20*%
X129945000Y-55976248D02*
X129945000Y-56498752D01*
X128475000Y-55976248D02*
X128475000Y-56498752D01*
%TO.C,D5*%
X161650000Y-82900000D02*
X161650000Y-84900000D01*
X161650000Y-82900000D02*
X165660000Y-82900000D01*
X161650000Y-84900000D02*
X165660000Y-84900000D01*
%TO.C,R27*%
X125575000Y-88427064D02*
X125575000Y-87972936D01*
X127045000Y-88427064D02*
X127045000Y-87972936D01*
%TO.C,R23*%
X123245000Y-77872936D02*
X123245000Y-78327064D01*
X121775000Y-77872936D02*
X121775000Y-78327064D01*
%TO.C,C9*%
X155248748Y-82765000D02*
X155771252Y-82765000D01*
X155248748Y-84235000D02*
X155771252Y-84235000D01*
%TO.C,R18*%
X155737064Y-90735000D02*
X155282936Y-90735000D01*
X155737064Y-89265000D02*
X155282936Y-89265000D01*
%TO.C,C11*%
X159983752Y-96035000D02*
X159461248Y-96035000D01*
X159983752Y-94565000D02*
X159461248Y-94565000D01*
%TO.C,C18*%
X126048748Y-78065000D02*
X126571252Y-78065000D01*
X126048748Y-79535000D02*
X126571252Y-79535000D01*
%TO.C,C8*%
X155733752Y-82135000D02*
X155211248Y-82135000D01*
X155733752Y-80665000D02*
X155211248Y-80665000D01*
%TO.C,D4*%
X166270000Y-87400000D02*
X166270000Y-85400000D01*
X166270000Y-87400000D02*
X162260000Y-87400000D01*
X166270000Y-85400000D02*
X162260000Y-85400000D01*
%TO.C,RV4*%
X120180000Y-73920000D02*
X120180000Y-69200000D01*
X121370000Y-73920000D02*
X120190000Y-73920000D01*
X124270000Y-73920000D02*
X123740000Y-73920000D01*
X126720000Y-73920000D02*
X125890000Y-73920000D01*
X129930000Y-73920000D02*
X128440000Y-73920000D01*
X129930000Y-73920000D02*
X129930000Y-69200000D01*
X120190000Y-65390000D02*
X120190000Y-62330000D01*
X129930000Y-65390000D02*
X129930000Y-62330000D01*
X129930000Y-62330000D02*
X120190000Y-62330000D01*
%TO.C,R8*%
X140025000Y-96027064D02*
X140025000Y-95572936D01*
X141495000Y-96027064D02*
X141495000Y-95572936D01*
%TO.C,C4*%
X144525000Y-98311252D02*
X144525000Y-97788748D01*
X145995000Y-98311252D02*
X145995000Y-97788748D01*
%TO.C,Q3*%
X161270000Y-82462500D02*
X161270000Y-80787500D01*
X161270000Y-82462500D02*
X161270000Y-83112500D01*
X158150000Y-82462500D02*
X158150000Y-81812500D01*
X158150000Y-82462500D02*
X158150000Y-83112500D01*
%TO.C,R26*%
X124075000Y-84127064D02*
X124075000Y-83672936D01*
X125545000Y-84127064D02*
X125545000Y-83672936D01*
%TO.C,SW3*%
X117140000Y-93960000D02*
X122340000Y-93960000D01*
X122340000Y-93960000D02*
X122340000Y-88660000D01*
X117140000Y-92310000D02*
X117140000Y-93960000D01*
X117140000Y-88660000D02*
X117140000Y-90310000D01*
X122340000Y-88660000D02*
X117140000Y-88660000D01*
X117140000Y-92310000D02*
G75*
G03*
X117140000Y-90310000I0J1000000D01*
G01*
%TO.C,RV3*%
X155630000Y-73895000D02*
X155630000Y-69175000D01*
X156820000Y-73895000D02*
X155640000Y-73895000D01*
X159720000Y-73895000D02*
X159190000Y-73895000D01*
X162170000Y-73895000D02*
X161340000Y-73895000D01*
X165380000Y-73895000D02*
X163890000Y-73895000D01*
X165380000Y-73895000D02*
X165380000Y-69175000D01*
X155640000Y-65365000D02*
X155640000Y-62305000D01*
X165380000Y-65365000D02*
X165380000Y-62305000D01*
X165380000Y-62305000D02*
X155640000Y-62305000D01*
%TO.C,R25*%
X126537064Y-81635000D02*
X126082936Y-81635000D01*
X126537064Y-80165000D02*
X126082936Y-80165000D01*
%TO.C,C15*%
X117675000Y-98523752D02*
X117675000Y-98001248D01*
X119145000Y-98523752D02*
X119145000Y-98001248D01*
%TO.C,C3*%
X148036248Y-101065000D02*
X148558752Y-101065000D01*
X148036248Y-102535000D02*
X148558752Y-102535000D01*
%TO.C,R11*%
X148982936Y-89565000D02*
X149437064Y-89565000D01*
X148982936Y-91035000D02*
X149437064Y-91035000D01*
%TO.C,D3*%
X151510000Y-73340000D02*
X149510000Y-73340000D01*
X151510000Y-73340000D02*
X151510000Y-77350000D01*
X149510000Y-73340000D02*
X149510000Y-77350000D01*
%TO.C,R13*%
X151282936Y-80665000D02*
X151737064Y-80665000D01*
X151282936Y-82135000D02*
X151737064Y-82135000D01*
%TO.C,R19*%
X158382936Y-78565000D02*
X158837064Y-78565000D01*
X158382936Y-80035000D02*
X158837064Y-80035000D01*
%TO.C,R4*%
X144032936Y-101065000D02*
X144487064Y-101065000D01*
X144032936Y-102535000D02*
X144487064Y-102535000D01*
%TO.C,Q4*%
X126150000Y-83900000D02*
X126150000Y-85575000D01*
X126150000Y-83900000D02*
X126150000Y-83250000D01*
X129270000Y-83900000D02*
X129270000Y-84550000D01*
X129270000Y-83900000D02*
X129270000Y-83250000D01*
%TO.C,R5*%
X151025000Y-101277064D02*
X151025000Y-100822936D01*
X152495000Y-101277064D02*
X152495000Y-100822936D01*
%TO.C,R20*%
X151882936Y-69865000D02*
X152337064Y-69865000D01*
X151882936Y-71335000D02*
X152337064Y-71335000D01*
%TO.C,Q2*%
X149850000Y-84637500D02*
X149850000Y-86312500D01*
X149850000Y-84637500D02*
X149850000Y-83987500D01*
X152970000Y-84637500D02*
X152970000Y-85287500D01*
X152970000Y-84637500D02*
X152970000Y-83987500D01*
%TD*%
D12*
%TO.C,SW1*%
X148550000Y-137825000D03*
D13*
X143250000Y-137825000D03*
X137950000Y-137825000D03*
X148550000Y-142525000D03*
X143250000Y-142550000D03*
X137950000Y-142525000D03*
X148550000Y-147225000D03*
X143250000Y-147225000D03*
X137950000Y-147225000D03*
%TD*%
D14*
%TO.C,D1*%
X122500000Y-137540000D03*
D15*
X122500000Y-135000000D03*
%TD*%
D16*
%TO.C,R1*%
X155500000Y-135000000D03*
X155500000Y-142620000D03*
%TD*%
%TO.C,R2*%
X127760000Y-142600000D03*
X127760000Y-134980000D03*
%TD*%
%TO.C,R3*%
X131010000Y-135000000D03*
X131010000Y-142620000D03*
%TD*%
D17*
%TO.C,C1*%
X161050000Y-135000000D03*
D18*
X166050000Y-135000000D03*
%TD*%
%LPC*%
D19*
%TO.C,SW1*%
X148550000Y-137825000D03*
D20*
X143250000Y-137825000D03*
X137950000Y-137825000D03*
X148550000Y-142525000D03*
X143250000Y-142550000D03*
X137950000Y-142525000D03*
X148550000Y-147225000D03*
X143250000Y-147225000D03*
X137950000Y-147225000D03*
%TD*%
D21*
%TO.C,J3*%
X128660000Y-130730000D03*
X128660000Y-114500000D03*
X122310000Y-130730000D03*
X122310000Y-114500000D03*
X135010000Y-130730000D03*
X135010000Y-114500000D03*
%TD*%
D22*
%TO.C,J1*%
X134760000Y-55260000D03*
D23*
X134760000Y-57800000D03*
%TD*%
D24*
%TO.C,JOVGI1*%
X146700000Y-111350000D03*
D23*
X144160000Y-111350000D03*
X141620000Y-111350000D03*
X139080000Y-111350000D03*
%TD*%
D24*
%TO.C,JOVGI2*%
X146700000Y-105800000D03*
D23*
X144160000Y-105800000D03*
X141620000Y-105800000D03*
X139080000Y-105800000D03*
%TD*%
D25*
%TO.C,C2*%
X162000000Y-140200000D03*
D26*
X162000000Y-142700000D03*
%TD*%
D27*
%TO.C,D1*%
X122500000Y-137540000D03*
D28*
X122500000Y-135000000D03*
%TD*%
D29*
%TO.C,R1*%
X155500000Y-135000000D03*
X155500000Y-142620000D03*
%TD*%
%TO.C,R2*%
X127760000Y-142600000D03*
X127760000Y-134980000D03*
%TD*%
%TO.C,R3*%
X131010000Y-135000000D03*
X131010000Y-142620000D03*
%TD*%
D30*
%TO.C,C1*%
X161050000Y-135000000D03*
D31*
X166050000Y-135000000D03*
%TD*%
D24*
%TO.C,J4*%
X144140000Y-116810000D03*
D23*
X141600000Y-116810000D03*
%TD*%
D21*
%TO.C,J2*%
X156925000Y-114500000D03*
X156925000Y-130730000D03*
X163275000Y-114500000D03*
X163275000Y-130730000D03*
X150575000Y-114500000D03*
X150575000Y-130730000D03*
%TD*%
D32*
%TO.C,C16*%
X121110000Y-99275000D03*
X121110000Y-97200000D03*
%TD*%
D33*
%TO.C,C17*%
X124210000Y-87162500D03*
X124210000Y-89237500D03*
%TD*%
D34*
%TO.C,C6*%
X144335000Y-88000000D03*
X146410000Y-88000000D03*
%TD*%
D35*
%TO.C,C14*%
X159647500Y-77200000D03*
X157572500Y-77200000D03*
%TD*%
D36*
%TO.C,RV2*%
X138050000Y-77830000D03*
X147650000Y-77830000D03*
D37*
X140350000Y-85330000D03*
D38*
X142850000Y-85330000D03*
X145350000Y-85330000D03*
%TD*%
D39*
%TO.C,SW2*%
X126310000Y-93400000D03*
X130760000Y-93400000D03*
X135210000Y-93400000D03*
X126360000Y-98300000D03*
X130810000Y-98300000D03*
X135260000Y-98300000D03*
%TD*%
D40*
%TO.C,D6*%
X127260000Y-60050000D03*
X131260000Y-60050000D03*
%TD*%
D35*
%TO.C,C12*%
X156585000Y-87900000D03*
X154510000Y-87900000D03*
%TD*%
D41*
%TO.C,R17*%
X160722500Y-93300000D03*
X158722500Y-93300000D03*
%TD*%
D42*
%TO.C,Q1*%
X149385000Y-97750000D03*
X149385000Y-95850000D03*
X147510000Y-96800000D03*
%TD*%
D34*
%TO.C,C7*%
X150510000Y-79200000D03*
X152585000Y-79200000D03*
%TD*%
D43*
%TO.C,C19*%
X135927621Y-68100000D03*
D26*
X138427621Y-68100000D03*
%TD*%
D44*
%TO.C,R7*%
X151760000Y-98050000D03*
X151760000Y-96050000D03*
%TD*%
%TO.C,R24*%
X128510000Y-89200000D03*
X128510000Y-87200000D03*
%TD*%
D41*
%TO.C,R16*%
X164410000Y-81500000D03*
X162410000Y-81500000D03*
%TD*%
D32*
%TO.C,C5*%
X143010000Y-94837500D03*
X143010000Y-92762500D03*
%TD*%
D44*
%TO.C,R22*%
X119310000Y-84300000D03*
X119310000Y-82300000D03*
%TD*%
D45*
%TO.C,R10*%
X148210000Y-88000000D03*
X150210000Y-88000000D03*
%TD*%
%TO.C,R15*%
X154510000Y-85600000D03*
X156510000Y-85600000D03*
%TD*%
D34*
%TO.C,C13*%
X151010000Y-68400000D03*
X153085000Y-68400000D03*
%TD*%
D46*
%TO.C,D2*%
X152910000Y-77350000D03*
X152910000Y-74050000D03*
%TD*%
D35*
%TO.C,C10*%
X160760000Y-91200000D03*
X158685000Y-91200000D03*
%TD*%
D45*
%TO.C,R21*%
X161510000Y-77200000D03*
X163510000Y-77200000D03*
%TD*%
D44*
%TO.C,R12*%
X152310000Y-89900000D03*
X152310000Y-87900000D03*
%TD*%
D41*
%TO.C,R14*%
X147910000Y-71600000D03*
X145910000Y-71600000D03*
%TD*%
D44*
%TO.C,R9*%
X140310000Y-89600000D03*
X140310000Y-87600000D03*
%TD*%
D47*
%TO.C,R28*%
X131510000Y-55300000D03*
X131510000Y-57300000D03*
%TD*%
D44*
%TO.C,R6*%
X143010000Y-99050000D03*
X143010000Y-97050000D03*
%TD*%
D33*
%TO.C,C20*%
X129210000Y-55200000D03*
X129210000Y-57275000D03*
%TD*%
D48*
%TO.C,D5*%
X162360000Y-83900000D03*
X165660000Y-83900000D03*
%TD*%
D44*
%TO.C,R27*%
X126310000Y-89200000D03*
X126310000Y-87200000D03*
%TD*%
D47*
%TO.C,R23*%
X122510000Y-77100000D03*
X122510000Y-79100000D03*
%TD*%
D34*
%TO.C,C9*%
X154472500Y-83500000D03*
X156547500Y-83500000D03*
%TD*%
D41*
%TO.C,R18*%
X156510000Y-90000000D03*
X154510000Y-90000000D03*
%TD*%
D35*
%TO.C,C11*%
X160760000Y-95300000D03*
X158685000Y-95300000D03*
%TD*%
D34*
%TO.C,C18*%
X125272500Y-78800000D03*
X127347500Y-78800000D03*
%TD*%
D35*
%TO.C,C8*%
X156510000Y-81400000D03*
X154435000Y-81400000D03*
%TD*%
D49*
%TO.C,D4*%
X165560000Y-86400000D03*
X162260000Y-86400000D03*
%TD*%
D36*
%TO.C,RV4*%
X120260000Y-67300000D03*
X129860000Y-67300000D03*
D37*
X122560000Y-74800000D03*
D38*
X125060000Y-74800000D03*
X127560000Y-74800000D03*
%TD*%
D44*
%TO.C,R8*%
X140760000Y-96800000D03*
X140760000Y-94800000D03*
%TD*%
D32*
%TO.C,C4*%
X145260000Y-99087500D03*
X145260000Y-97012500D03*
%TD*%
D50*
%TO.C,Q3*%
X160660000Y-81525000D03*
X158760000Y-81525000D03*
X159710000Y-83400000D03*
%TD*%
D44*
%TO.C,R26*%
X124810000Y-84900000D03*
X124810000Y-82900000D03*
%TD*%
D51*
%TO.C,SW3*%
X118470000Y-95120000D03*
D52*
X121010000Y-95120000D03*
X121010000Y-87500000D03*
X118470000Y-87500000D03*
%TD*%
D36*
%TO.C,RV3*%
X155710000Y-67275000D03*
X165310000Y-67275000D03*
D37*
X158010000Y-74775000D03*
D38*
X160510000Y-74775000D03*
X163010000Y-74775000D03*
%TD*%
D41*
%TO.C,R25*%
X127310000Y-80900000D03*
X125310000Y-80900000D03*
%TD*%
D32*
%TO.C,C15*%
X118410000Y-99300000D03*
X118410000Y-97225000D03*
%TD*%
D34*
%TO.C,C3*%
X147260000Y-101800000D03*
X149335000Y-101800000D03*
%TD*%
D45*
%TO.C,R11*%
X148210000Y-90300000D03*
X150210000Y-90300000D03*
%TD*%
D53*
%TO.C,D3*%
X150510000Y-74050000D03*
X150510000Y-77350000D03*
%TD*%
D45*
%TO.C,R13*%
X150510000Y-81400000D03*
X152510000Y-81400000D03*
%TD*%
%TO.C,R19*%
X157610000Y-79300000D03*
X159610000Y-79300000D03*
%TD*%
%TO.C,R4*%
X143260000Y-101800000D03*
X145260000Y-101800000D03*
%TD*%
D54*
%TO.C,Q4*%
X126760000Y-84837500D03*
X128660000Y-84837500D03*
X127710000Y-82962500D03*
%TD*%
D44*
%TO.C,R5*%
X151760000Y-102050000D03*
X151760000Y-100050000D03*
%TD*%
D45*
%TO.C,R20*%
X151110000Y-70600000D03*
X153110000Y-70600000D03*
%TD*%
D54*
%TO.C,Q2*%
X150460000Y-85575000D03*
X152360000Y-85575000D03*
X151410000Y-83700000D03*
%TD*%
%LPD*%
M02*
