%TF.GenerationSoftware,KiCad,Pcbnew,7.0.2-6a45011f42~172~ubuntu22.04.1*%
%TF.CreationDate,2023-05-29T17:51:51+01:00*%
%TF.ProjectId,little-angel-v3-SMD,6c697474-6c65-42d6-916e-67656c2d7633,rev?*%
%TF.SameCoordinates,Original*%
%TF.FileFunction,Copper,L2,Bot*%
%TF.FilePolarity,Positive*%
%FSLAX46Y46*%
G04 Gerber Fmt 4.6, Leading zero omitted, Abs format (unit mm)*
G04 Created by KiCad (PCBNEW 7.0.2-6a45011f42~172~ubuntu22.04.1) date 2023-05-29 17:51:51*
%MOMM*%
%LPD*%
G01*
G04 APERTURE LIST*
%TA.AperFunction,ComponentPad*%
%ADD10R,2.600000X1.500000*%
%TD*%
%TA.AperFunction,ComponentPad*%
%ADD11O,2.600000X1.500000*%
%TD*%
%TA.AperFunction,ComponentPad*%
%ADD12R,1.700000X1.700000*%
%TD*%
%TA.AperFunction,ComponentPad*%
%ADD13O,1.700000X1.700000*%
%TD*%
%TA.AperFunction,ComponentPad*%
%ADD14C,3.000000*%
%TD*%
%TA.AperFunction,ComponentPad*%
%ADD15R,1.600000X1.600000*%
%TD*%
%TA.AperFunction,ComponentPad*%
%ADD16C,1.600000*%
%TD*%
%TA.AperFunction,ComponentPad*%
%ADD17R,2.000000X1.900000*%
%TD*%
%TA.AperFunction,ComponentPad*%
%ADD18C,1.900000*%
%TD*%
%TA.AperFunction,ComponentPad*%
%ADD19O,2.720000X3.240000*%
%TD*%
%TA.AperFunction,ComponentPad*%
%ADD20R,1.800000X1.800000*%
%TD*%
%TA.AperFunction,ComponentPad*%
%ADD21C,1.800000*%
%TD*%
%TA.AperFunction,ViaPad*%
%ADD22C,0.800000*%
%TD*%
%TA.AperFunction,Conductor*%
%ADD23C,0.400000*%
%TD*%
G04 APERTURE END LIST*
D10*
%TO.P,SW1,1,A*%
%TO.N,Net-(SW1A-A)*%
X148550000Y-137825000D03*
D11*
%TO.P,SW1,2,A*%
X143250000Y-137825000D03*
%TO.P,SW1,3,A*%
%TO.N,I*%
X137950000Y-137825000D03*
%TO.P,SW1,4,B*%
%TO.N,Net-(SW1A-B)*%
X148550000Y-142525000D03*
%TO.P,SW1,5,B*%
%TO.N,Net-(SW1B-B)*%
X143250000Y-142550000D03*
%TO.P,SW1,6,B*%
%TO.N,GND*%
X137950000Y-142525000D03*
%TO.P,SW1,7,C*%
%TO.N,I*%
X148550000Y-147225000D03*
%TO.P,SW1,8,C*%
%TO.N,O*%
X143250000Y-147225000D03*
%TO.P,SW1,9,C*%
%TO.N,Net-(SW1C-C)*%
X137950000Y-147225000D03*
%TD*%
D12*
%TO.P,J3,1,P1*%
%TO.N,GND*%
X144300000Y-115550000D03*
D13*
%TO.P,J3,2,P2*%
%TO.N,+9V*%
X141760000Y-115550000D03*
%TD*%
D14*
%TO.P,J1,R*%
%TO.N,unconnected-(J1-PadR)*%
X156910000Y-114550000D03*
%TO.P,J1,RN*%
%TO.N,unconnected-(J1-PadRN)*%
X156910000Y-130780000D03*
%TO.P,J1,S*%
%TO.N,GND*%
X163260000Y-114550000D03*
%TO.P,J1,SN*%
%TO.N,unconnected-(J1-PadSN)*%
X163260000Y-130780000D03*
%TO.P,J1,T*%
%TO.N,Net-(SW1A-B)*%
X150560000Y-114550000D03*
%TO.P,J1,TN*%
%TO.N,GND*%
X150560000Y-130780000D03*
%TD*%
D12*
%TO.P,JOVGI1,1,P1*%
%TO.N,I*%
X146700000Y-111350000D03*
D13*
%TO.P,JOVGI1,2,P2*%
%TO.N,GND*%
X144160000Y-111350000D03*
%TO.P,JOVGI1,3,P3*%
%TO.N,+9V*%
X141620000Y-111350000D03*
%TO.P,JOVGI1,4,P4*%
%TO.N,O*%
X139080000Y-111350000D03*
%TD*%
D12*
%TO.P,JOVGI2,1,P1*%
%TO.N,I*%
X146700000Y-105800000D03*
D13*
%TO.P,JOVGI2,2,P2*%
%TO.N,GND*%
X144160000Y-105800000D03*
%TO.P,JOVGI2,3,P3*%
%TO.N,+9V*%
X141620000Y-105800000D03*
%TO.P,JOVGI2,4,P4*%
%TO.N,O*%
X139080000Y-105800000D03*
%TD*%
D15*
%TO.P,C19,1*%
%TO.N,+9V*%
X162000000Y-140200000D03*
D16*
%TO.P,C19,2*%
%TO.N,GND*%
X162000000Y-142700000D03*
%TD*%
D17*
%TO.P,D1,1,K*%
%TO.N,Net-(D1-K)*%
X122500000Y-137540000D03*
D18*
%TO.P,D1,2,A*%
%TO.N,+9V*%
X122500000Y-135000000D03*
%TD*%
D14*
%TO.P,J4,R*%
%TO.N,unconnected-(J4-PadR)*%
X128660000Y-130780000D03*
%TO.P,J4,RN*%
%TO.N,unconnected-(J4-PadRN)*%
X128660000Y-114550000D03*
%TO.P,J4,S*%
%TO.N,GND*%
X122310000Y-130780000D03*
%TO.P,J4,SN*%
%TO.N,unconnected-(J4-PadSN)*%
X122310000Y-114550000D03*
%TO.P,J4,T*%
%TO.N,Net-(SW1B-B)*%
X135010000Y-130780000D03*
%TO.P,J4,TN*%
%TO.N,unconnected-(J4-PadTN)*%
X135010000Y-114550000D03*
%TD*%
D12*
%TO.P,J2,1,P1*%
%TO.N,+9V*%
X134510000Y-55550000D03*
D13*
%TO.P,J2,2,P2*%
%TO.N,GND*%
X134510000Y-58090000D03*
%TD*%
D19*
%TO.P,RV2,*%
%TO.N,*%
X120210000Y-59775000D03*
X129810000Y-59775000D03*
D20*
%TO.P,RV2,1,1*%
%TO.N,Net-(C4-Pad1)*%
X122510000Y-67275000D03*
D21*
%TO.P,RV2,2,2*%
%TO.N,Net-(R5-Pad2)*%
X125010000Y-67275000D03*
%TO.P,RV2,3,3*%
%TO.N,unconnected-(RV2-Pad3)*%
X127510000Y-67275000D03*
%TD*%
D16*
%TO.P,C8,2*%
%TO.N,GND*%
X158510000Y-97300000D03*
D15*
%TO.P,C8,1*%
%TO.N,Net-(C8-Pad1)*%
X158510000Y-94800000D03*
%TD*%
%TO.P,C3,1*%
%TO.N,+5V*%
X133692380Y-80300000D03*
D16*
%TO.P,C3,2*%
%TO.N,GND*%
X131192380Y-80300000D03*
%TD*%
D19*
%TO.P,RV1,*%
%TO.N,*%
X155660000Y-60050000D03*
X165260000Y-60050000D03*
D20*
%TO.P,RV1,1,1*%
%TO.N,unconnected-(RV1-Pad1)*%
X157960000Y-67550000D03*
D21*
%TO.P,RV1,2,2*%
%TO.N,Net-(C5-Pad1)*%
X160460000Y-67550000D03*
%TO.P,RV1,3,3*%
%TO.N,Net-(R14-Pad1)*%
X162960000Y-67550000D03*
%TD*%
D15*
%TO.P,C5,1*%
%TO.N,Net-(C5-Pad1)*%
X127010000Y-87117621D03*
D16*
%TO.P,C5,2*%
%TO.N,Net-(C4-Pad1)*%
X127010000Y-89617621D03*
%TD*%
D15*
%TO.P,C6,1*%
%TO.N,Net-(Q2-B)*%
X165510000Y-94867621D03*
D16*
%TO.P,C6,2*%
%TO.N,GND*%
X165510000Y-97367621D03*
%TD*%
D15*
%TO.P,C4,1*%
%TO.N,Net-(C4-Pad1)*%
X130942380Y-95050000D03*
D16*
%TO.P,C4,2*%
%TO.N,GND*%
X128442380Y-95050000D03*
%TD*%
D22*
%TO.N,GND*%
X152760000Y-88800000D03*
X142010000Y-87550000D03*
X140760000Y-92800000D03*
X146010000Y-94050000D03*
%TO.N,+9V*%
X141760000Y-98050000D03*
X133010000Y-90050000D03*
X133010000Y-100300000D03*
X148510000Y-92050000D03*
X166010000Y-135050000D03*
%TO.N,Net-(C2-Pad2)*%
X134010000Y-93050000D03*
X137760000Y-96685000D03*
%TO.N,+5V*%
X138260000Y-84800000D03*
X136010000Y-84800000D03*
%TO.N,Net-(C17-Pad1)*%
X144260000Y-72550000D03*
X134010000Y-102050000D03*
%TD*%
D23*
%TO.N,+9V*%
X141760000Y-97168629D02*
X146878629Y-92050000D01*
X125600000Y-131900000D02*
X122500000Y-135000000D01*
X141620000Y-98190000D02*
X141760000Y-98050000D01*
X146878629Y-92050000D02*
X148510000Y-92050000D01*
X141600000Y-118600000D02*
X142900000Y-119900000D01*
X131900000Y-118600000D02*
X125600000Y-124900000D01*
X141620000Y-111350000D02*
X141620000Y-112552081D01*
X141600000Y-112572081D02*
X141600000Y-118600000D01*
X160000000Y-119900000D02*
X166050000Y-125950000D01*
X141760000Y-98050000D02*
X141760000Y-97168629D01*
X125600000Y-124900000D02*
X125600000Y-131900000D01*
X142900000Y-119900000D02*
X160000000Y-119900000D01*
X132392380Y-89432380D02*
X133010000Y-90050000D01*
X141620000Y-112552081D02*
X141600000Y-112572081D01*
X132392380Y-57667620D02*
X132392380Y-89432380D01*
X166050000Y-125950000D02*
X166050000Y-135000000D01*
X133010000Y-100300000D02*
X133010000Y-90050000D01*
X134510000Y-55550000D02*
X132392380Y-57667620D01*
X141600000Y-118600000D02*
X131900000Y-118600000D01*
X141620000Y-105800000D02*
X141620000Y-98190000D01*
%TO.N,Net-(C2-Pad2)*%
X137760000Y-96800000D02*
X137875000Y-96800000D01*
X137875000Y-96800000D02*
X137760000Y-96685000D01*
X134010000Y-93050000D02*
X137760000Y-96800000D01*
%TO.N,O*%
X140330000Y-107050000D02*
X139080000Y-105800000D01*
X140130000Y-110300000D02*
X139080000Y-111350000D01*
X141010000Y-107050000D02*
X141510000Y-107550000D01*
X140760000Y-110300000D02*
X140130000Y-110300000D01*
X141510000Y-109550000D02*
X140760000Y-110300000D01*
X141510000Y-107550000D02*
X141510000Y-109550000D01*
X141010000Y-107050000D02*
X140330000Y-107050000D01*
%TO.N,+5V*%
X138260000Y-84800000D02*
X136010000Y-84800000D01*
%TO.N,Net-(C17-Pad1)*%
X144260000Y-92050000D02*
X134260000Y-102050000D01*
X144260000Y-72550000D02*
X144260000Y-92050000D01*
X134260000Y-102050000D02*
X134010000Y-102050000D01*
%TO.N,Net-(SW1B-B)*%
X138240000Y-130780000D02*
X135010000Y-130780000D01*
X140510000Y-139810000D02*
X140510000Y-133050000D01*
X143250000Y-142550000D02*
X140510000Y-139810000D01*
X140510000Y-133050000D02*
X138240000Y-130780000D01*
%TD*%
%TA.AperFunction,Conductor*%
%TO.N,GND*%
G36*
X136616621Y-52095502D02*
G01*
X136663114Y-52149158D01*
X136674500Y-52201500D01*
X136674500Y-62454469D01*
X136672587Y-62476343D01*
X136670876Y-62486048D01*
X136672586Y-62495746D01*
X136674128Y-62513373D01*
X136678707Y-62530467D01*
X136680418Y-62540171D01*
X136683935Y-62546262D01*
X136688452Y-62551645D01*
X136696982Y-62556570D01*
X136714972Y-62569167D01*
X136722518Y-62575499D01*
X136722519Y-62575499D01*
X136722520Y-62575500D01*
X136722521Y-62575500D01*
X136729123Y-62577903D01*
X136736047Y-62579124D01*
X136736047Y-62579123D01*
X136736048Y-62579124D01*
X136745746Y-62577413D01*
X136767625Y-62575500D01*
X148704470Y-62575500D01*
X148726350Y-62577414D01*
X148736047Y-62579124D01*
X148736047Y-62579123D01*
X148736048Y-62579124D01*
X148745746Y-62577413D01*
X148763381Y-62575871D01*
X148780473Y-62571290D01*
X148790172Y-62569581D01*
X148790173Y-62569579D01*
X148796260Y-62566064D01*
X148801641Y-62561549D01*
X148801645Y-62561548D01*
X148806569Y-62553018D01*
X148819165Y-62535028D01*
X148825500Y-62527480D01*
X148825500Y-62527479D01*
X148827902Y-62520879D01*
X148829122Y-62513955D01*
X148829124Y-62513952D01*
X148827414Y-62504253D01*
X148825500Y-62482374D01*
X148825500Y-60378288D01*
X153791500Y-60378288D01*
X153791666Y-60380558D01*
X153791667Y-60380581D01*
X153806466Y-60582781D01*
X153865938Y-60849756D01*
X153963644Y-61105219D01*
X154097507Y-61343738D01*
X154264670Y-61560219D01*
X154461571Y-61750057D01*
X154461574Y-61750059D01*
X154684019Y-61909205D01*
X154927266Y-62034267D01*
X155186130Y-62122579D01*
X155455093Y-62172259D01*
X155728424Y-62182248D01*
X155728424Y-62182247D01*
X155728425Y-62182248D01*
X155796391Y-62174769D01*
X156000296Y-62152334D01*
X156264916Y-62083153D01*
X156516643Y-61976181D01*
X156750112Y-61833697D01*
X156960347Y-61658738D01*
X157142867Y-61455033D01*
X157293783Y-61226923D01*
X157409877Y-60979271D01*
X157488676Y-60717355D01*
X157508482Y-60582781D01*
X157528500Y-60446758D01*
X157528500Y-60378288D01*
X163391500Y-60378288D01*
X163391666Y-60380558D01*
X163391667Y-60380581D01*
X163406466Y-60582781D01*
X163465938Y-60849756D01*
X163563644Y-61105219D01*
X163697507Y-61343738D01*
X163864670Y-61560219D01*
X164061571Y-61750057D01*
X164061574Y-61750059D01*
X164284019Y-61909205D01*
X164527266Y-62034267D01*
X164786130Y-62122579D01*
X165055093Y-62172259D01*
X165328424Y-62182248D01*
X165328424Y-62182247D01*
X165328425Y-62182248D01*
X165396391Y-62174769D01*
X165600296Y-62152334D01*
X165864916Y-62083153D01*
X166116643Y-61976181D01*
X166350112Y-61833697D01*
X166560347Y-61658738D01*
X166742867Y-61455033D01*
X166893783Y-61226923D01*
X167009877Y-60979271D01*
X167088676Y-60717355D01*
X167108482Y-60582781D01*
X167128500Y-60446758D01*
X167128500Y-59724012D01*
X167128500Y-59724011D01*
X167128500Y-59721712D01*
X167113533Y-59517217D01*
X167054063Y-59250247D01*
X166956355Y-58994781D01*
X166956355Y-58994780D01*
X166822492Y-58756261D01*
X166655329Y-58539780D01*
X166458428Y-58349942D01*
X166341524Y-58266305D01*
X166235981Y-58190795D01*
X165992734Y-58065733D01*
X165992733Y-58065732D01*
X165992730Y-58065731D01*
X165733871Y-57977421D01*
X165464908Y-57927741D01*
X165191574Y-57917751D01*
X164919706Y-57947665D01*
X164655084Y-58016847D01*
X164403358Y-58123818D01*
X164169884Y-58266305D01*
X163959652Y-58441262D01*
X163777136Y-58644962D01*
X163626213Y-58873083D01*
X163510125Y-59120722D01*
X163431322Y-59382649D01*
X163391500Y-59653241D01*
X163391500Y-59653243D01*
X163391500Y-60378288D01*
X157528500Y-60378288D01*
X157528500Y-59724012D01*
X157528500Y-59724011D01*
X157528500Y-59721712D01*
X157513533Y-59517217D01*
X157454063Y-59250247D01*
X157356355Y-58994781D01*
X157356355Y-58994780D01*
X157222492Y-58756261D01*
X157055329Y-58539780D01*
X156858428Y-58349942D01*
X156741524Y-58266305D01*
X156635981Y-58190795D01*
X156392734Y-58065733D01*
X156392733Y-58065732D01*
X156392730Y-58065731D01*
X156133871Y-57977421D01*
X155864908Y-57927741D01*
X155591574Y-57917751D01*
X155319706Y-57947665D01*
X155055084Y-58016847D01*
X154803358Y-58123818D01*
X154569884Y-58266305D01*
X154359652Y-58441262D01*
X154177136Y-58644962D01*
X154026213Y-58873083D01*
X153910125Y-59120722D01*
X153831322Y-59382649D01*
X153791500Y-59653241D01*
X153791500Y-59653243D01*
X153791500Y-60378288D01*
X148825500Y-60378288D01*
X148825500Y-52201500D01*
X148845502Y-52133379D01*
X148899158Y-52086886D01*
X148951500Y-52075500D01*
X165416537Y-52075500D01*
X165484658Y-52095502D01*
X165505632Y-52112405D01*
X170387595Y-56994368D01*
X170421621Y-57056680D01*
X170424500Y-57083463D01*
X170424500Y-105844689D01*
X170404498Y-105912810D01*
X170393614Y-105927329D01*
X168913254Y-107631140D01*
X168853476Y-107669444D01*
X168818140Y-107674500D01*
X145445530Y-107674500D01*
X145423650Y-107672586D01*
X145413952Y-107670875D01*
X145404254Y-107672586D01*
X145386626Y-107674128D01*
X145369535Y-107678707D01*
X145359827Y-107680419D01*
X145353737Y-107683934D01*
X145348354Y-107688452D01*
X145343426Y-107696987D01*
X145330835Y-107714969D01*
X145324499Y-107722519D01*
X145322097Y-107729119D01*
X145320876Y-107736048D01*
X145322586Y-107745746D01*
X145324500Y-107767624D01*
X145324500Y-109454469D01*
X145322587Y-109476343D01*
X145320876Y-109486048D01*
X145322586Y-109495746D01*
X145324128Y-109513373D01*
X145328707Y-109530467D01*
X145330418Y-109540171D01*
X145333935Y-109546262D01*
X145338452Y-109551645D01*
X145346982Y-109556570D01*
X145364972Y-109569167D01*
X145372518Y-109575499D01*
X145372519Y-109575499D01*
X145372520Y-109575500D01*
X145372521Y-109575500D01*
X145379123Y-109577903D01*
X145386047Y-109579124D01*
X145386047Y-109579123D01*
X145386048Y-109579124D01*
X145395746Y-109577413D01*
X145417625Y-109575500D01*
X147916537Y-109575500D01*
X147984658Y-109595502D01*
X148005632Y-109612405D01*
X149664617Y-111271390D01*
X149676515Y-111286896D01*
X149694734Y-111302184D01*
X149702835Y-111309609D01*
X149711660Y-111318434D01*
X149721789Y-111324887D01*
X149722520Y-111325500D01*
X149722522Y-111325500D01*
X149732462Y-111329118D01*
X149742996Y-111330040D01*
X149742997Y-111330039D01*
X149742998Y-111330040D01*
X149743917Y-111329793D01*
X149776529Y-111325500D01*
X164722520Y-111325500D01*
X168916537Y-111325500D01*
X168984658Y-111345502D01*
X169005632Y-111362405D01*
X170387595Y-112744368D01*
X170421621Y-112806680D01*
X170424500Y-112833463D01*
X170424500Y-131916535D01*
X170404498Y-131984656D01*
X170387595Y-132005630D01*
X168978604Y-133414620D01*
X168963099Y-133426518D01*
X168947820Y-133444726D01*
X168940411Y-133452813D01*
X168931572Y-133461653D01*
X168925122Y-133471777D01*
X168924500Y-133472518D01*
X168920882Y-133482458D01*
X168919960Y-133492997D01*
X168920206Y-133493915D01*
X168924500Y-133526530D01*
X168924500Y-140916536D01*
X168904498Y-140984657D01*
X168887595Y-141005631D01*
X158105631Y-151787595D01*
X158043319Y-151821621D01*
X158016536Y-151824500D01*
X134483464Y-151824500D01*
X134415343Y-151804498D01*
X134394368Y-151787595D01*
X133612404Y-151005630D01*
X133578379Y-150943318D01*
X133575500Y-150916535D01*
X133575500Y-148545248D01*
X133578051Y-148525873D01*
X133575979Y-148502183D01*
X133575500Y-148491204D01*
X133575500Y-148478713D01*
X133572900Y-148466986D01*
X133572818Y-148466045D01*
X133572817Y-148466044D01*
X133568349Y-148456461D01*
X133561546Y-148448353D01*
X133560724Y-148447879D01*
X133534628Y-148427855D01*
X132585382Y-147478608D01*
X132573489Y-147463107D01*
X132555271Y-147447820D01*
X132547170Y-147440395D01*
X132538342Y-147431567D01*
X132528208Y-147425110D01*
X132527481Y-147424500D01*
X132517539Y-147420881D01*
X132507003Y-147419959D01*
X132506341Y-147420137D01*
X132506082Y-147420206D01*
X132473471Y-147424500D01*
X128083463Y-147424500D01*
X128015342Y-147404498D01*
X127994372Y-147387599D01*
X127888461Y-147281688D01*
X136137684Y-147281688D01*
X136151332Y-147382437D01*
X136168094Y-147506175D01*
X136168095Y-147506177D01*
X136238095Y-147721618D01*
X136345445Y-147921107D01*
X136486685Y-148098218D01*
X136576365Y-148176568D01*
X136657282Y-148247263D01*
X136851750Y-148363453D01*
X137063839Y-148443051D01*
X137195733Y-148466986D01*
X137286732Y-148483500D01*
X137286733Y-148483500D01*
X138553700Y-148483500D01*
X138556522Y-148483500D01*
X138725622Y-148468281D01*
X138943993Y-148408014D01*
X139148093Y-148309725D01*
X139331363Y-148176571D01*
X139487912Y-148012834D01*
X139612709Y-147823774D01*
X139701743Y-147615470D01*
X139752151Y-147394615D01*
X139757223Y-147281688D01*
X141437684Y-147281688D01*
X141451332Y-147382437D01*
X141468094Y-147506175D01*
X141468095Y-147506177D01*
X141538095Y-147721618D01*
X141645445Y-147921107D01*
X141786685Y-148098218D01*
X141876365Y-148176568D01*
X141957282Y-148247263D01*
X142151750Y-148363453D01*
X142363839Y-148443051D01*
X142495733Y-148466986D01*
X142586732Y-148483500D01*
X142586733Y-148483500D01*
X143853700Y-148483500D01*
X143856522Y-148483500D01*
X144025622Y-148468281D01*
X144243993Y-148408014D01*
X144448093Y-148309725D01*
X144631363Y-148176571D01*
X144787912Y-148012834D01*
X144912709Y-147823774D01*
X145001743Y-147615470D01*
X145052151Y-147394615D01*
X145057223Y-147281688D01*
X146737684Y-147281688D01*
X146751332Y-147382437D01*
X146768094Y-147506175D01*
X146768095Y-147506177D01*
X146838095Y-147721618D01*
X146945445Y-147921107D01*
X147086685Y-148098218D01*
X147176365Y-148176568D01*
X147257282Y-148247263D01*
X147451750Y-148363453D01*
X147663839Y-148443051D01*
X147795733Y-148466986D01*
X147886732Y-148483500D01*
X147886733Y-148483500D01*
X149153700Y-148483500D01*
X149156522Y-148483500D01*
X149325622Y-148468281D01*
X149543993Y-148408014D01*
X149748093Y-148309725D01*
X149931363Y-148176571D01*
X150087912Y-148012834D01*
X150212709Y-147823774D01*
X150301743Y-147615470D01*
X150352151Y-147394615D01*
X150362315Y-147168309D01*
X150331906Y-146943825D01*
X150261903Y-146728379D01*
X150154556Y-146528894D01*
X150081432Y-146437199D01*
X150013314Y-146351781D01*
X149842718Y-146202737D01*
X149738170Y-146140272D01*
X149648250Y-146086547D01*
X149436161Y-146006949D01*
X149436160Y-146006948D01*
X149436158Y-146006948D01*
X149213268Y-145966500D01*
X149213267Y-145966500D01*
X147943478Y-145966500D01*
X147940684Y-145966751D01*
X147940671Y-145966752D01*
X147774375Y-145981719D01*
X147556006Y-146041986D01*
X147351910Y-146140272D01*
X147265936Y-146202737D01*
X147168637Y-146273429D01*
X147168635Y-146273430D01*
X147168635Y-146273431D01*
X147012087Y-146437166D01*
X146887291Y-146626225D01*
X146798256Y-146834530D01*
X146747849Y-147055384D01*
X146737684Y-147281688D01*
X145057223Y-147281688D01*
X145062315Y-147168309D01*
X145031906Y-146943825D01*
X144961903Y-146728379D01*
X144854556Y-146528894D01*
X144781432Y-146437199D01*
X144713314Y-146351781D01*
X144542718Y-146202737D01*
X144438170Y-146140272D01*
X144348250Y-146086547D01*
X144136161Y-146006949D01*
X144136160Y-146006948D01*
X144136158Y-146006948D01*
X143913268Y-145966500D01*
X143913267Y-145966500D01*
X142643478Y-145966500D01*
X142640684Y-145966751D01*
X142640671Y-145966752D01*
X142474375Y-145981719D01*
X142256006Y-146041986D01*
X142051910Y-146140272D01*
X141965936Y-146202737D01*
X141868637Y-146273429D01*
X141868635Y-146273430D01*
X141868635Y-146273431D01*
X141712087Y-146437166D01*
X141587291Y-146626225D01*
X141498256Y-146834530D01*
X141447849Y-147055384D01*
X141437684Y-147281688D01*
X139757223Y-147281688D01*
X139762315Y-147168309D01*
X139731906Y-146943825D01*
X139661903Y-146728379D01*
X139554556Y-146528894D01*
X139481432Y-146437199D01*
X139413314Y-146351781D01*
X139242718Y-146202737D01*
X139138170Y-146140272D01*
X139048250Y-146086547D01*
X138836161Y-146006949D01*
X138836160Y-146006948D01*
X138836158Y-146006948D01*
X138613268Y-145966500D01*
X138613267Y-145966500D01*
X137343478Y-145966500D01*
X137340684Y-145966751D01*
X137340671Y-145966752D01*
X137174375Y-145981719D01*
X136956006Y-146041986D01*
X136751910Y-146140272D01*
X136665936Y-146202737D01*
X136568637Y-146273429D01*
X136568635Y-146273430D01*
X136568635Y-146273431D01*
X136412087Y-146437166D01*
X136287291Y-146626225D01*
X136198256Y-146834530D01*
X136147849Y-147055384D01*
X136137684Y-147281688D01*
X127888461Y-147281688D01*
X127043974Y-146437200D01*
X127043973Y-146437199D01*
X127029515Y-146422741D01*
X127029514Y-146422741D01*
X127029512Y-146422739D01*
X123385773Y-142779000D01*
X136164918Y-142779000D01*
X136168584Y-142806065D01*
X136238557Y-143021421D01*
X136345863Y-143220829D01*
X136487051Y-143397873D01*
X136657575Y-143546855D01*
X136851968Y-143662999D01*
X137063975Y-143742567D01*
X137286777Y-143783000D01*
X137696000Y-143783000D01*
X137696000Y-143025000D01*
X138204000Y-143025000D01*
X138204000Y-143783000D01*
X138553678Y-143783000D01*
X138559306Y-143782747D01*
X138725535Y-143767786D01*
X138943815Y-143707543D01*
X139147834Y-143609294D01*
X139331032Y-143476193D01*
X139487520Y-143312520D01*
X139612265Y-143123539D01*
X139701264Y-142915314D01*
X139732377Y-142779000D01*
X138931116Y-142779000D01*
X138959493Y-142734844D01*
X139000000Y-142596889D01*
X139000000Y-142453111D01*
X138959493Y-142315156D01*
X138931116Y-142271000D01*
X139735082Y-142271000D01*
X139731415Y-142243934D01*
X139661442Y-142028578D01*
X139554136Y-141829170D01*
X139412948Y-141652126D01*
X139242424Y-141503144D01*
X139048031Y-141387000D01*
X138836024Y-141307432D01*
X138613223Y-141267000D01*
X138204000Y-141267000D01*
X138204000Y-142025000D01*
X137696000Y-142025000D01*
X137696000Y-141267000D01*
X137346322Y-141267000D01*
X137340693Y-141267252D01*
X137174464Y-141282213D01*
X136956184Y-141342456D01*
X136752165Y-141440705D01*
X136568967Y-141573806D01*
X136412479Y-141737479D01*
X136287734Y-141926460D01*
X136198735Y-142134685D01*
X136167622Y-142270999D01*
X136167623Y-142271000D01*
X136968884Y-142271000D01*
X136940507Y-142315156D01*
X136900000Y-142453111D01*
X136900000Y-142596889D01*
X136940507Y-142734844D01*
X136968884Y-142779000D01*
X136164918Y-142779000D01*
X123385773Y-142779000D01*
X115112405Y-134505631D01*
X115078379Y-134443319D01*
X115075500Y-134416536D01*
X115075500Y-130784298D01*
X120297602Y-130784298D01*
X120315760Y-131049769D01*
X120316928Y-131058268D01*
X120371069Y-131318807D01*
X120373384Y-131327072D01*
X120462495Y-131577806D01*
X120465917Y-131585682D01*
X120588333Y-131821934D01*
X120592804Y-131829287D01*
X120720540Y-132010248D01*
X120720541Y-132010248D01*
X121667912Y-131062876D01*
X121729680Y-131180566D01*
X121842405Y-131307806D01*
X121982305Y-131404371D01*
X122027642Y-131421565D01*
X121080715Y-132368492D01*
X121080715Y-132368494D01*
X121145984Y-132421595D01*
X121152995Y-132426543D01*
X121380352Y-132564802D01*
X121387981Y-132568754D01*
X121632039Y-132674764D01*
X121640132Y-132677641D01*
X121896359Y-132749433D01*
X121904777Y-132751182D01*
X122168380Y-132787413D01*
X122176954Y-132788000D01*
X122443046Y-132788000D01*
X122451619Y-132787413D01*
X122715222Y-132751182D01*
X122723640Y-132749433D01*
X122979867Y-132677641D01*
X122987960Y-132674764D01*
X123232018Y-132568754D01*
X123239647Y-132564802D01*
X123467004Y-132426543D01*
X123474016Y-132421594D01*
X123539283Y-132368494D01*
X123539283Y-132368492D01*
X122592356Y-131421565D01*
X122637695Y-131404371D01*
X122777595Y-131307806D01*
X122890320Y-131180566D01*
X122952087Y-131062877D01*
X123899457Y-132010247D01*
X124027199Y-131829280D01*
X124031666Y-131821934D01*
X124154082Y-131585682D01*
X124157504Y-131577806D01*
X124246615Y-131327072D01*
X124248930Y-131318807D01*
X124303071Y-131058268D01*
X124304239Y-131049769D01*
X124322398Y-130784298D01*
X124322398Y-130775701D01*
X124304239Y-130510230D01*
X124303071Y-130501731D01*
X124248930Y-130241192D01*
X124246615Y-130232927D01*
X124157504Y-129982193D01*
X124154082Y-129974317D01*
X124031666Y-129738065D01*
X124027199Y-129730719D01*
X123899457Y-129549750D01*
X122952086Y-130497121D01*
X122890320Y-130379434D01*
X122777595Y-130252194D01*
X122637695Y-130155629D01*
X122592355Y-130138433D01*
X123539283Y-129191505D01*
X123539283Y-129191504D01*
X123474015Y-129138404D01*
X123467004Y-129133456D01*
X123239647Y-128995197D01*
X123232018Y-128991245D01*
X122987960Y-128885235D01*
X122979867Y-128882358D01*
X122723640Y-128810566D01*
X122715222Y-128808817D01*
X122451619Y-128772586D01*
X122443046Y-128772000D01*
X122176954Y-128772000D01*
X122168380Y-128772586D01*
X121904777Y-128808817D01*
X121896359Y-128810566D01*
X121640132Y-128882358D01*
X121632039Y-128885235D01*
X121387981Y-128991245D01*
X121380352Y-128995197D01*
X121152997Y-129133454D01*
X121145983Y-129138405D01*
X121080715Y-129191504D01*
X121080714Y-129191506D01*
X122027642Y-130138434D01*
X121982305Y-130155629D01*
X121842405Y-130252194D01*
X121729680Y-130379434D01*
X121667913Y-130497121D01*
X120720541Y-129549750D01*
X120592796Y-129730724D01*
X120588335Y-129738061D01*
X120465917Y-129974317D01*
X120462495Y-129982193D01*
X120373384Y-130232927D01*
X120371069Y-130241192D01*
X120316928Y-130501731D01*
X120315760Y-130510230D01*
X120297602Y-130775701D01*
X120297602Y-130784298D01*
X115075500Y-130784298D01*
X115075500Y-120986688D01*
X115075500Y-117765500D01*
X115075499Y-114550000D01*
X120296807Y-114550000D01*
X120297101Y-114554298D01*
X120315259Y-114819769D01*
X120315558Y-114824130D01*
X120371462Y-115093153D01*
X120372899Y-115097196D01*
X120372902Y-115097207D01*
X120462037Y-115348008D01*
X120462040Y-115348015D01*
X120463477Y-115352058D01*
X120465451Y-115355869D01*
X120465453Y-115355872D01*
X120587906Y-115592197D01*
X120587909Y-115592202D01*
X120589889Y-115596023D01*
X120748343Y-115820502D01*
X120935889Y-116021314D01*
X121149031Y-116194718D01*
X121383800Y-116337484D01*
X121635823Y-116446953D01*
X121900404Y-116521085D01*
X122172615Y-116558500D01*
X122176920Y-116558500D01*
X122443080Y-116558500D01*
X122447385Y-116558500D01*
X122719596Y-116521085D01*
X122984177Y-116446953D01*
X123236200Y-116337484D01*
X123470969Y-116194718D01*
X123684111Y-116021314D01*
X123871657Y-115820502D01*
X124030111Y-115596023D01*
X124156523Y-115352058D01*
X124248538Y-115093153D01*
X124304442Y-114824130D01*
X124323193Y-114550000D01*
X126646807Y-114550000D01*
X126647101Y-114554298D01*
X126665259Y-114819769D01*
X126665558Y-114824130D01*
X126721462Y-115093153D01*
X126722899Y-115097196D01*
X126722902Y-115097207D01*
X126812037Y-115348008D01*
X126812040Y-115348015D01*
X126813477Y-115352058D01*
X126815451Y-115355869D01*
X126815453Y-115355872D01*
X126937906Y-115592197D01*
X126937909Y-115592202D01*
X126939889Y-115596023D01*
X127098343Y-115820502D01*
X127285889Y-116021314D01*
X127499031Y-116194718D01*
X127733800Y-116337484D01*
X127985823Y-116446953D01*
X128250404Y-116521085D01*
X128522615Y-116558500D01*
X128526920Y-116558500D01*
X128793080Y-116558500D01*
X128797385Y-116558500D01*
X129069596Y-116521085D01*
X129334177Y-116446953D01*
X129586200Y-116337484D01*
X129820969Y-116194718D01*
X130034111Y-116021314D01*
X130221657Y-115820502D01*
X130380111Y-115596023D01*
X130506523Y-115352058D01*
X130598538Y-115093153D01*
X130654442Y-114824130D01*
X130673193Y-114550000D01*
X132996807Y-114550000D01*
X132997101Y-114554298D01*
X133015259Y-114819769D01*
X133015558Y-114824130D01*
X133071462Y-115093153D01*
X133072899Y-115097196D01*
X133072902Y-115097207D01*
X133162037Y-115348008D01*
X133162040Y-115348015D01*
X133163477Y-115352058D01*
X133165451Y-115355869D01*
X133165453Y-115355872D01*
X133287906Y-115592197D01*
X133287909Y-115592202D01*
X133289889Y-115596023D01*
X133448343Y-115820502D01*
X133635889Y-116021314D01*
X133849031Y-116194718D01*
X134083800Y-116337484D01*
X134335823Y-116446953D01*
X134600404Y-116521085D01*
X134872615Y-116558500D01*
X134876920Y-116558500D01*
X135143080Y-116558500D01*
X135147385Y-116558500D01*
X135419596Y-116521085D01*
X135684177Y-116446953D01*
X135936200Y-116337484D01*
X136170969Y-116194718D01*
X136384111Y-116021314D01*
X136571657Y-115820502D01*
X136730111Y-115596023D01*
X136856523Y-115352058D01*
X136948538Y-115093153D01*
X137004442Y-114824130D01*
X137023193Y-114550000D01*
X137022667Y-114542317D01*
X137015866Y-114442890D01*
X137004442Y-114275870D01*
X136948538Y-114006847D01*
X136892794Y-113850000D01*
X136857962Y-113751991D01*
X136856523Y-113747942D01*
X136730111Y-113503977D01*
X136571657Y-113279498D01*
X136384111Y-113078686D01*
X136380774Y-113075971D01*
X136174304Y-112907995D01*
X136174301Y-112907993D01*
X136170969Y-112905282D01*
X135936200Y-112762516D01*
X135932259Y-112760804D01*
X135932253Y-112760801D01*
X135688112Y-112654756D01*
X135688109Y-112654755D01*
X135684177Y-112653047D01*
X135680052Y-112651891D01*
X135680043Y-112651888D01*
X135423742Y-112580076D01*
X135423732Y-112580074D01*
X135419596Y-112578915D01*
X135415335Y-112578329D01*
X135415324Y-112578327D01*
X135151653Y-112542086D01*
X135151643Y-112542085D01*
X135147385Y-112541500D01*
X134872615Y-112541500D01*
X134868357Y-112542085D01*
X134868346Y-112542086D01*
X134604675Y-112578327D01*
X134604661Y-112578329D01*
X134600404Y-112578915D01*
X134596269Y-112580073D01*
X134596257Y-112580076D01*
X134339956Y-112651888D01*
X134339942Y-112651892D01*
X134335823Y-112653047D01*
X134331895Y-112654753D01*
X134331887Y-112654756D01*
X134087746Y-112760801D01*
X134087733Y-112760807D01*
X134083800Y-112762516D01*
X134080129Y-112764748D01*
X134080122Y-112764752D01*
X133852704Y-112903048D01*
X133852699Y-112903050D01*
X133849031Y-112905282D01*
X133845704Y-112907988D01*
X133845695Y-112907995D01*
X133639225Y-113075971D01*
X133639217Y-113075978D01*
X133635889Y-113078686D01*
X133632957Y-113081824D01*
X133632952Y-113081830D01*
X133451282Y-113276350D01*
X133451274Y-113276358D01*
X133448343Y-113279498D01*
X133445863Y-113283010D01*
X133445860Y-113283015D01*
X133292375Y-113500454D01*
X133292370Y-113500462D01*
X133289889Y-113503977D01*
X133287913Y-113507790D01*
X133287906Y-113507802D01*
X133165453Y-113744127D01*
X133165449Y-113744136D01*
X133163477Y-113747942D01*
X133162042Y-113751978D01*
X133162037Y-113751991D01*
X133072902Y-114002792D01*
X133072897Y-114002807D01*
X133071462Y-114006847D01*
X133070587Y-114011054D01*
X133070587Y-114011057D01*
X133016432Y-114271661D01*
X133016430Y-114271670D01*
X133015558Y-114275870D01*
X133015264Y-114280157D01*
X133015264Y-114280163D01*
X132997101Y-114545701D01*
X132996807Y-114550000D01*
X130673193Y-114550000D01*
X130672667Y-114542317D01*
X130665866Y-114442890D01*
X130654442Y-114275870D01*
X130598538Y-114006847D01*
X130542794Y-113850000D01*
X130507962Y-113751991D01*
X130506523Y-113747942D01*
X130380111Y-113503977D01*
X130221657Y-113279498D01*
X130034111Y-113078686D01*
X130030774Y-113075971D01*
X129824304Y-112907995D01*
X129824301Y-112907993D01*
X129820969Y-112905282D01*
X129586200Y-112762516D01*
X129582259Y-112760804D01*
X129582253Y-112760801D01*
X129338112Y-112654756D01*
X129338109Y-112654755D01*
X129334177Y-112653047D01*
X129330052Y-112651891D01*
X129330043Y-112651888D01*
X129073742Y-112580076D01*
X129073732Y-112580074D01*
X129069596Y-112578915D01*
X129065335Y-112578329D01*
X129065324Y-112578327D01*
X128801653Y-112542086D01*
X128801643Y-112542085D01*
X128797385Y-112541500D01*
X128522615Y-112541500D01*
X128518357Y-112542085D01*
X128518346Y-112542086D01*
X128254675Y-112578327D01*
X128254661Y-112578329D01*
X128250404Y-112578915D01*
X128246269Y-112580073D01*
X128246257Y-112580076D01*
X127989956Y-112651888D01*
X127989942Y-112651892D01*
X127985823Y-112653047D01*
X127981895Y-112654753D01*
X127981887Y-112654756D01*
X127737746Y-112760801D01*
X127737733Y-112760807D01*
X127733800Y-112762516D01*
X127730129Y-112764748D01*
X127730122Y-112764752D01*
X127502704Y-112903048D01*
X127502699Y-112903050D01*
X127499031Y-112905282D01*
X127495704Y-112907988D01*
X127495695Y-112907995D01*
X127289225Y-113075971D01*
X127289217Y-113075978D01*
X127285889Y-113078686D01*
X127282957Y-113081824D01*
X127282952Y-113081830D01*
X127101282Y-113276350D01*
X127101274Y-113276358D01*
X127098343Y-113279498D01*
X127095863Y-113283010D01*
X127095860Y-113283015D01*
X126942375Y-113500454D01*
X126942370Y-113500462D01*
X126939889Y-113503977D01*
X126937913Y-113507790D01*
X126937906Y-113507802D01*
X126815453Y-113744127D01*
X126815449Y-113744136D01*
X126813477Y-113747942D01*
X126812042Y-113751978D01*
X126812037Y-113751991D01*
X126722902Y-114002792D01*
X126722897Y-114002807D01*
X126721462Y-114006847D01*
X126720587Y-114011054D01*
X126720587Y-114011057D01*
X126666432Y-114271661D01*
X126666430Y-114271670D01*
X126665558Y-114275870D01*
X126665264Y-114280157D01*
X126665264Y-114280163D01*
X126647101Y-114545701D01*
X126646807Y-114550000D01*
X124323193Y-114550000D01*
X124322667Y-114542317D01*
X124315866Y-114442890D01*
X124304442Y-114275870D01*
X124248538Y-114006847D01*
X124192794Y-113850000D01*
X124157962Y-113751991D01*
X124156523Y-113747942D01*
X124030111Y-113503977D01*
X123871657Y-113279498D01*
X123684111Y-113078686D01*
X123680774Y-113075971D01*
X123474304Y-112907995D01*
X123474301Y-112907993D01*
X123470969Y-112905282D01*
X123236200Y-112762516D01*
X123232259Y-112760804D01*
X123232253Y-112760801D01*
X122988112Y-112654756D01*
X122988109Y-112654755D01*
X122984177Y-112653047D01*
X122980052Y-112651891D01*
X122980043Y-112651888D01*
X122723742Y-112580076D01*
X122723732Y-112580074D01*
X122719596Y-112578915D01*
X122715335Y-112578329D01*
X122715324Y-112578327D01*
X122451653Y-112542086D01*
X122451643Y-112542085D01*
X122447385Y-112541500D01*
X122172615Y-112541500D01*
X122168357Y-112542085D01*
X122168346Y-112542086D01*
X121904675Y-112578327D01*
X121904661Y-112578329D01*
X121900404Y-112578915D01*
X121896269Y-112580073D01*
X121896257Y-112580076D01*
X121639956Y-112651888D01*
X121639942Y-112651892D01*
X121635823Y-112653047D01*
X121631895Y-112654753D01*
X121631887Y-112654756D01*
X121387746Y-112760801D01*
X121387733Y-112760807D01*
X121383800Y-112762516D01*
X121380129Y-112764748D01*
X121380122Y-112764752D01*
X121152704Y-112903048D01*
X121152699Y-112903050D01*
X121149031Y-112905282D01*
X121145704Y-112907988D01*
X121145695Y-112907995D01*
X120939225Y-113075971D01*
X120939217Y-113075978D01*
X120935889Y-113078686D01*
X120932957Y-113081824D01*
X120932952Y-113081830D01*
X120751282Y-113276350D01*
X120751274Y-113276358D01*
X120748343Y-113279498D01*
X120745863Y-113283010D01*
X120745860Y-113283015D01*
X120592375Y-113500454D01*
X120592370Y-113500462D01*
X120589889Y-113503977D01*
X120587913Y-113507790D01*
X120587906Y-113507802D01*
X120465453Y-113744127D01*
X120465449Y-113744136D01*
X120463477Y-113747942D01*
X120462042Y-113751978D01*
X120462037Y-113751991D01*
X120372902Y-114002792D01*
X120372897Y-114002807D01*
X120371462Y-114006847D01*
X120370587Y-114011054D01*
X120370587Y-114011057D01*
X120316432Y-114271661D01*
X120316430Y-114271670D01*
X120315558Y-114275870D01*
X120315264Y-114280157D01*
X120315264Y-114280163D01*
X120297101Y-114545701D01*
X120296807Y-114550000D01*
X115075499Y-114550000D01*
X115075499Y-112833459D01*
X115095501Y-112765342D01*
X115112399Y-112744373D01*
X116494368Y-111362405D01*
X116556680Y-111328379D01*
X116583463Y-111325500D01*
X116972520Y-111325500D01*
X135904753Y-111325500D01*
X135924126Y-111328051D01*
X135929204Y-111327606D01*
X135929205Y-111327607D01*
X135947817Y-111325978D01*
X135958796Y-111325500D01*
X135971296Y-111325500D01*
X135983017Y-111322899D01*
X135983955Y-111322818D01*
X135983956Y-111322816D01*
X135993543Y-111318346D01*
X136001642Y-111311550D01*
X136001642Y-111311548D01*
X136001645Y-111311548D01*
X136002121Y-111310721D01*
X136022140Y-111284631D01*
X137694370Y-109612402D01*
X137756680Y-109578379D01*
X137783463Y-109575500D01*
X139545344Y-109575500D01*
X139613465Y-109595502D01*
X139659958Y-109649158D01*
X139670062Y-109719432D01*
X139640568Y-109784012D01*
X139639653Y-109785057D01*
X139616386Y-109811318D01*
X139611172Y-109816856D01*
X139447503Y-109980525D01*
X139385191Y-110014551D01*
X139337670Y-110015712D01*
X139268756Y-110004213D01*
X139192569Y-109991500D01*
X138967431Y-109991500D01*
X138745365Y-110028556D01*
X138745362Y-110028556D01*
X138745362Y-110028557D01*
X138532426Y-110101657D01*
X138334421Y-110208812D01*
X138156762Y-110347091D01*
X138004278Y-110512731D01*
X137881139Y-110701209D01*
X137790702Y-110907388D01*
X137735437Y-111125627D01*
X137735436Y-111125632D01*
X137716844Y-111350000D01*
X137735436Y-111574368D01*
X137735436Y-111574371D01*
X137735437Y-111574372D01*
X137790702Y-111792611D01*
X137881139Y-111998790D01*
X137915183Y-112050898D01*
X138004278Y-112187268D01*
X138156419Y-112352536D01*
X138156762Y-112352908D01*
X138334421Y-112491187D01*
X138334424Y-112491189D01*
X138532426Y-112598342D01*
X138745365Y-112671444D01*
X138967431Y-112708500D01*
X138967434Y-112708500D01*
X139192566Y-112708500D01*
X139192569Y-112708500D01*
X139414635Y-112671444D01*
X139627574Y-112598342D01*
X139825576Y-112491189D01*
X140003240Y-112352906D01*
X140155722Y-112187268D01*
X140244518Y-112051354D01*
X140298521Y-112005268D01*
X140368869Y-111995693D01*
X140433226Y-112025670D01*
X140455480Y-112051353D01*
X140544278Y-112187268D01*
X140696419Y-112352536D01*
X140696762Y-112352908D01*
X140840908Y-112465103D01*
X140882379Y-112522728D01*
X140889287Y-112556922D01*
X140891270Y-112589686D01*
X140891500Y-112597298D01*
X140891500Y-114442890D01*
X140871498Y-114511011D01*
X140842897Y-114542317D01*
X140836762Y-114547092D01*
X140684278Y-114712732D01*
X140561139Y-114901209D01*
X140470702Y-115107388D01*
X140415437Y-115325627D01*
X140415436Y-115325632D01*
X140396844Y-115550000D01*
X140415436Y-115774368D01*
X140415436Y-115774371D01*
X140415437Y-115774372D01*
X140470702Y-115992611D01*
X140470703Y-115992614D01*
X140470704Y-115992616D01*
X140489155Y-116034680D01*
X140561139Y-116198790D01*
X140652582Y-116338754D01*
X140684278Y-116387268D01*
X140836760Y-116552906D01*
X140842889Y-116557676D01*
X140884361Y-116615299D01*
X140891500Y-116657109D01*
X140891500Y-117765500D01*
X140871498Y-117833621D01*
X140817842Y-117880114D01*
X140765500Y-117891500D01*
X131925206Y-117891500D01*
X131917598Y-117891270D01*
X131856904Y-117887598D01*
X131797097Y-117898558D01*
X131789576Y-117899703D01*
X131729198Y-117907035D01*
X131719663Y-117910651D01*
X131697705Y-117916772D01*
X131687670Y-117918611D01*
X131632226Y-117943564D01*
X131625199Y-117946475D01*
X131568325Y-117968045D01*
X131559923Y-117973845D01*
X131540071Y-117985041D01*
X131530774Y-117989225D01*
X131482906Y-118026726D01*
X131476781Y-118031233D01*
X131426729Y-118065783D01*
X131386396Y-118111308D01*
X131381180Y-118116847D01*
X125116856Y-124381172D01*
X125111317Y-124386388D01*
X125065782Y-124426729D01*
X125031238Y-124476773D01*
X125026731Y-124482898D01*
X124989224Y-124530774D01*
X124985036Y-124540078D01*
X124973843Y-124559923D01*
X124968048Y-124568319D01*
X124946482Y-124625183D01*
X124943570Y-124632211D01*
X124918611Y-124687668D01*
X124916771Y-124697710D01*
X124910651Y-124719662D01*
X124907035Y-124729197D01*
X124899705Y-124789554D01*
X124898561Y-124797071D01*
X124887597Y-124856906D01*
X124891270Y-124917608D01*
X124891500Y-124925217D01*
X124891500Y-131554339D01*
X124871498Y-131622460D01*
X124854595Y-131643434D01*
X122954386Y-133543642D01*
X122892074Y-133577668D01*
X122844555Y-133578828D01*
X122620855Y-133541500D01*
X122379145Y-133541500D01*
X122140732Y-133581284D01*
X122140729Y-133581284D01*
X122140729Y-133581285D01*
X121912119Y-133659766D01*
X121699543Y-133774806D01*
X121508795Y-133923272D01*
X121345097Y-134101096D01*
X121212889Y-134303453D01*
X121115796Y-134524804D01*
X121056462Y-134759111D01*
X121056461Y-134759116D01*
X121036501Y-135000000D01*
X121056461Y-135240884D01*
X121056461Y-135240887D01*
X121056462Y-135240888D01*
X121115796Y-135475195D01*
X121212889Y-135696546D01*
X121212891Y-135696549D01*
X121345094Y-135898900D01*
X121359428Y-135914471D01*
X121390849Y-135978136D01*
X121382862Y-136048681D01*
X121338003Y-136103710D01*
X121310760Y-136117863D01*
X121253796Y-136139109D01*
X121136738Y-136226738D01*
X121049111Y-136343794D01*
X120998011Y-136480798D01*
X120998011Y-136480799D01*
X120991500Y-136541362D01*
X120991500Y-138538638D01*
X120998011Y-138599201D01*
X121023561Y-138667702D01*
X121049111Y-138736205D01*
X121136738Y-138853261D01*
X121253794Y-138940888D01*
X121253795Y-138940888D01*
X121253796Y-138940889D01*
X121390799Y-138991989D01*
X121451362Y-138998500D01*
X121454731Y-138998500D01*
X123545269Y-138998500D01*
X123548638Y-138998500D01*
X123609201Y-138991989D01*
X123746204Y-138940889D01*
X123863261Y-138853261D01*
X123950889Y-138736204D01*
X124001989Y-138599201D01*
X124008500Y-138538638D01*
X124008500Y-136541362D01*
X124001989Y-136480799D01*
X123950889Y-136343796D01*
X123950888Y-136343794D01*
X123863261Y-136226738D01*
X123746206Y-136139111D01*
X123689239Y-136117864D01*
X123632404Y-136075317D01*
X123607593Y-136008796D01*
X123622685Y-135939422D01*
X123640567Y-135914476D01*
X123654906Y-135898900D01*
X123787109Y-135696549D01*
X123884203Y-135475197D01*
X123943539Y-135240884D01*
X123963499Y-135000000D01*
X123943539Y-134759116D01*
X123920562Y-134668383D01*
X123923229Y-134597437D01*
X123953609Y-134548359D01*
X126083157Y-132418811D01*
X126088683Y-132413610D01*
X126134215Y-132373273D01*
X126168791Y-132323179D01*
X126173235Y-132317140D01*
X126210775Y-132269226D01*
X126214960Y-132259926D01*
X126226159Y-132240069D01*
X126231954Y-132231675D01*
X126253522Y-132174802D01*
X126256423Y-132167797D01*
X126281389Y-132112329D01*
X126283227Y-132102294D01*
X126289352Y-132080327D01*
X126292965Y-132070801D01*
X126300299Y-132010398D01*
X126301434Y-132002941D01*
X126312402Y-131943093D01*
X126310795Y-131916535D01*
X126308730Y-131882390D01*
X126308500Y-131874782D01*
X126308500Y-130780000D01*
X126646807Y-130780000D01*
X126647101Y-130784298D01*
X126665259Y-131049769D01*
X126665558Y-131054130D01*
X126721462Y-131323153D01*
X126722899Y-131327196D01*
X126722902Y-131327207D01*
X126812037Y-131578008D01*
X126812040Y-131578015D01*
X126813477Y-131582058D01*
X126815451Y-131585869D01*
X126815453Y-131585872D01*
X126937906Y-131822197D01*
X126937909Y-131822202D01*
X126939889Y-131826023D01*
X127098343Y-132050502D01*
X127101281Y-132053648D01*
X127101282Y-132053649D01*
X127117301Y-132070801D01*
X127285889Y-132251314D01*
X127499031Y-132424718D01*
X127733800Y-132567484D01*
X127985823Y-132676953D01*
X128250404Y-132751085D01*
X128522615Y-132788500D01*
X128526920Y-132788500D01*
X128793080Y-132788500D01*
X128797385Y-132788500D01*
X129069596Y-132751085D01*
X129334177Y-132676953D01*
X129586200Y-132567484D01*
X129820969Y-132424718D01*
X130034111Y-132251314D01*
X130221657Y-132050502D01*
X130380111Y-131826023D01*
X130506523Y-131582058D01*
X130598538Y-131323153D01*
X130654442Y-131054130D01*
X130673193Y-130780000D01*
X132996807Y-130780000D01*
X132997101Y-130784298D01*
X133015259Y-131049769D01*
X133015558Y-131054130D01*
X133071462Y-131323153D01*
X133072899Y-131327196D01*
X133072902Y-131327207D01*
X133162037Y-131578008D01*
X133162040Y-131578015D01*
X133163477Y-131582058D01*
X133165451Y-131585869D01*
X133165453Y-131585872D01*
X133287906Y-131822197D01*
X133287909Y-131822202D01*
X133289889Y-131826023D01*
X133448343Y-132050502D01*
X133451281Y-132053648D01*
X133451282Y-132053649D01*
X133467301Y-132070801D01*
X133635889Y-132251314D01*
X133849031Y-132424718D01*
X134083800Y-132567484D01*
X134335823Y-132676953D01*
X134600404Y-132751085D01*
X134872615Y-132788500D01*
X134876920Y-132788500D01*
X135143080Y-132788500D01*
X135147385Y-132788500D01*
X135419596Y-132751085D01*
X135684177Y-132676953D01*
X135936200Y-132567484D01*
X136170969Y-132424718D01*
X136384111Y-132251314D01*
X136571657Y-132050502D01*
X136730111Y-131826023D01*
X136856523Y-131582058D01*
X136859988Y-131572307D01*
X136901647Y-131514817D01*
X136967773Y-131488976D01*
X136978714Y-131488500D01*
X137894340Y-131488500D01*
X137962461Y-131508502D01*
X137983435Y-131525405D01*
X139764596Y-133306566D01*
X139798620Y-133368876D01*
X139801500Y-133395659D01*
X139801500Y-137087750D01*
X139781498Y-137155871D01*
X139727842Y-137202364D01*
X139657568Y-137212468D01*
X139592988Y-137182974D01*
X139564547Y-137147460D01*
X139554556Y-137128894D01*
X139506979Y-137069234D01*
X139413314Y-136951781D01*
X139242718Y-136802737D01*
X139138170Y-136740272D01*
X139048250Y-136686547D01*
X138836161Y-136606949D01*
X138836160Y-136606948D01*
X138836158Y-136606948D01*
X138613268Y-136566500D01*
X138613267Y-136566500D01*
X137343478Y-136566500D01*
X137340684Y-136566751D01*
X137340671Y-136566752D01*
X137174375Y-136581719D01*
X136956006Y-136641986D01*
X136751910Y-136740272D01*
X136665936Y-136802737D01*
X136568637Y-136873429D01*
X136568635Y-136873430D01*
X136568635Y-136873431D01*
X136412087Y-137037166D01*
X136287291Y-137226225D01*
X136198256Y-137434530D01*
X136147849Y-137655384D01*
X136137684Y-137881688D01*
X136151332Y-137982437D01*
X136168094Y-138106175D01*
X136168095Y-138106177D01*
X136238095Y-138321618D01*
X136238097Y-138321621D01*
X136345444Y-138521106D01*
X136356739Y-138535269D01*
X136486685Y-138698218D01*
X136576365Y-138776568D01*
X136657282Y-138847263D01*
X136851750Y-138963453D01*
X137063839Y-139043051D01*
X137202863Y-139068280D01*
X137286732Y-139083500D01*
X137286733Y-139083500D01*
X138553700Y-139083500D01*
X138556522Y-139083500D01*
X138725622Y-139068281D01*
X138943993Y-139008014D01*
X139148093Y-138909725D01*
X139331363Y-138776571D01*
X139487912Y-138612834D01*
X139570344Y-138487953D01*
X139624564Y-138442121D01*
X139694956Y-138432878D01*
X139759171Y-138463159D01*
X139796821Y-138523351D01*
X139801500Y-138557367D01*
X139801500Y-139784781D01*
X139801270Y-139792389D01*
X139797597Y-139853093D01*
X139808559Y-139912910D01*
X139809704Y-139920432D01*
X139817035Y-139980801D01*
X139820649Y-139990332D01*
X139826770Y-140012289D01*
X139828610Y-140022329D01*
X139853572Y-140077794D01*
X139856483Y-140084822D01*
X139878045Y-140141673D01*
X139883839Y-140150068D01*
X139895036Y-140169922D01*
X139899223Y-140179224D01*
X139936725Y-140227092D01*
X139941235Y-140233220D01*
X139975785Y-140283273D01*
X140021316Y-140323610D01*
X140026857Y-140328827D01*
X141545587Y-141847557D01*
X141579613Y-141909869D01*
X141574548Y-141980684D01*
X141572353Y-141986173D01*
X141498256Y-142159532D01*
X141447849Y-142380384D01*
X141437684Y-142606688D01*
X141450325Y-142699999D01*
X141468094Y-142831175D01*
X141468095Y-142831177D01*
X141538095Y-143046618D01*
X141645445Y-143246107D01*
X141786685Y-143423218D01*
X141876365Y-143501568D01*
X141957282Y-143572263D01*
X142151750Y-143688453D01*
X142363839Y-143768051D01*
X142502863Y-143793280D01*
X142586732Y-143808500D01*
X142586733Y-143808500D01*
X143853700Y-143808500D01*
X143856522Y-143808500D01*
X144025622Y-143793281D01*
X144243993Y-143733014D01*
X144448093Y-143634725D01*
X144631363Y-143501571D01*
X144787912Y-143337834D01*
X144912709Y-143148774D01*
X145001743Y-142940470D01*
X145052151Y-142719615D01*
X145058346Y-142581688D01*
X146737684Y-142581688D01*
X146751332Y-142682437D01*
X146768094Y-142806175D01*
X146768095Y-142806177D01*
X146838095Y-143021618D01*
X146945445Y-143221107D01*
X147086685Y-143398218D01*
X147176365Y-143476568D01*
X147257282Y-143547263D01*
X147451750Y-143663453D01*
X147663839Y-143743051D01*
X147802863Y-143768280D01*
X147886732Y-143783500D01*
X147886733Y-143783500D01*
X149153700Y-143783500D01*
X149156522Y-143783500D01*
X149325622Y-143768281D01*
X149543993Y-143708014D01*
X149748093Y-143609725D01*
X149931363Y-143476571D01*
X150087912Y-143312834D01*
X150212709Y-143123774D01*
X150301743Y-142915470D01*
X150350922Y-142699999D01*
X160687004Y-142699999D01*
X160706951Y-142927999D01*
X160766186Y-143149070D01*
X160862912Y-143356497D01*
X160912899Y-143427887D01*
X161601272Y-142739515D01*
X161614835Y-142825148D01*
X161672359Y-142938045D01*
X161761955Y-143027641D01*
X161874852Y-143085165D01*
X161960482Y-143098727D01*
X161272110Y-143787098D01*
X161272110Y-143787100D01*
X161343497Y-143837085D01*
X161550929Y-143933813D01*
X161772000Y-143993048D01*
X161999999Y-144012995D01*
X162227999Y-143993048D01*
X162449070Y-143933813D01*
X162656498Y-143837087D01*
X162727888Y-143787099D01*
X162727888Y-143787097D01*
X162039518Y-143098727D01*
X162125148Y-143085165D01*
X162238045Y-143027641D01*
X162327641Y-142938045D01*
X162385165Y-142825148D01*
X162398727Y-142739516D01*
X163087098Y-143427888D01*
X163087099Y-143427888D01*
X163137087Y-143356498D01*
X163233813Y-143149070D01*
X163293048Y-142927999D01*
X163312995Y-142699999D01*
X163293048Y-142472000D01*
X163233813Y-142250929D01*
X163137085Y-142043497D01*
X163087100Y-141972110D01*
X163087097Y-141972110D01*
X162398726Y-142660480D01*
X162385165Y-142574852D01*
X162327641Y-142461955D01*
X162238045Y-142372359D01*
X162125148Y-142314835D01*
X162039514Y-142301272D01*
X162739504Y-141601283D01*
X162744692Y-141575470D01*
X162794091Y-141524478D01*
X162848737Y-141508491D01*
X162848643Y-141508499D01*
X162909201Y-141501989D01*
X163046204Y-141450889D01*
X163163261Y-141363261D01*
X163250889Y-141246204D01*
X163301989Y-141109201D01*
X163308500Y-141048638D01*
X163308500Y-139351362D01*
X163301989Y-139290799D01*
X163250889Y-139153796D01*
X163250888Y-139153794D01*
X163163261Y-139036738D01*
X163046205Y-138949111D01*
X162940607Y-138909725D01*
X162909201Y-138898011D01*
X162848638Y-138891500D01*
X161151362Y-138891500D01*
X161148013Y-138891859D01*
X161148013Y-138891860D01*
X161090799Y-138898011D01*
X160953794Y-138949111D01*
X160836738Y-139036738D01*
X160749111Y-139153794D01*
X160698011Y-139290799D01*
X160691500Y-139351362D01*
X160691500Y-141048638D01*
X160691860Y-141051986D01*
X160698011Y-141109200D01*
X160749111Y-141246205D01*
X160836738Y-141363261D01*
X160953794Y-141450888D01*
X160953795Y-141450888D01*
X160953796Y-141450889D01*
X161090799Y-141501989D01*
X161151358Y-141508499D01*
X161151096Y-141508478D01*
X161217468Y-141531891D01*
X161261024Y-141587957D01*
X161263369Y-141604159D01*
X161960483Y-142301272D01*
X161874852Y-142314835D01*
X161761955Y-142372359D01*
X161672359Y-142461955D01*
X161614835Y-142574852D01*
X161601272Y-142660482D01*
X160912899Y-141972109D01*
X160862913Y-142043499D01*
X160766186Y-142250929D01*
X160706951Y-142472000D01*
X160687004Y-142699999D01*
X150350922Y-142699999D01*
X150352151Y-142694615D01*
X150362315Y-142468309D01*
X150331906Y-142243825D01*
X150261903Y-142028379D01*
X150154556Y-141828894D01*
X150081655Y-141737479D01*
X150013314Y-141651781D01*
X149842718Y-141502737D01*
X149841464Y-141501988D01*
X149648250Y-141386547D01*
X149436161Y-141306949D01*
X149436160Y-141306948D01*
X149436158Y-141306948D01*
X149213268Y-141266500D01*
X149213267Y-141266500D01*
X147943478Y-141266500D01*
X147940684Y-141266751D01*
X147940671Y-141266752D01*
X147774375Y-141281719D01*
X147556006Y-141341986D01*
X147351910Y-141440272D01*
X147258016Y-141508491D01*
X147168637Y-141573429D01*
X147168635Y-141573430D01*
X147168635Y-141573431D01*
X147012087Y-141737166D01*
X146887291Y-141926225D01*
X146798256Y-142134530D01*
X146747849Y-142355384D01*
X146737684Y-142581688D01*
X145058346Y-142581688D01*
X145062315Y-142493309D01*
X145031906Y-142268825D01*
X144961903Y-142053379D01*
X144854556Y-141853894D01*
X144806979Y-141794234D01*
X144713314Y-141676781D01*
X144542718Y-141527737D01*
X144509915Y-141508138D01*
X144348250Y-141411547D01*
X144136161Y-141331949D01*
X144136160Y-141331948D01*
X144136158Y-141331948D01*
X143913268Y-141291500D01*
X143913267Y-141291500D01*
X143045660Y-141291500D01*
X142977539Y-141271498D01*
X142956565Y-141254595D01*
X141255405Y-139553434D01*
X141221379Y-139491122D01*
X141218500Y-139464339D01*
X141218500Y-138132428D01*
X141238502Y-138064307D01*
X141292158Y-138017814D01*
X141362432Y-138007710D01*
X141427012Y-138037204D01*
X141464438Y-138095439D01*
X141464590Y-138095390D01*
X141464777Y-138095968D01*
X141465396Y-138096930D01*
X141465979Y-138099667D01*
X141538095Y-138321618D01*
X141538097Y-138321621D01*
X141645444Y-138521106D01*
X141656739Y-138535269D01*
X141786685Y-138698218D01*
X141876365Y-138776568D01*
X141957282Y-138847263D01*
X142151750Y-138963453D01*
X142363839Y-139043051D01*
X142502863Y-139068280D01*
X142586732Y-139083500D01*
X142586733Y-139083500D01*
X143853700Y-139083500D01*
X143856522Y-139083500D01*
X144025622Y-139068281D01*
X144243993Y-139008014D01*
X144448093Y-138909725D01*
X144631363Y-138776571D01*
X144777582Y-138623638D01*
X146741500Y-138623638D01*
X146741860Y-138626986D01*
X146748011Y-138684200D01*
X146799111Y-138821205D01*
X146886738Y-138938261D01*
X147003794Y-139025888D01*
X147003795Y-139025888D01*
X147003796Y-139025889D01*
X147140799Y-139076989D01*
X147201362Y-139083500D01*
X147204731Y-139083500D01*
X149895269Y-139083500D01*
X149898638Y-139083500D01*
X149959201Y-139076989D01*
X150096204Y-139025889D01*
X150213261Y-138938261D01*
X150300889Y-138821204D01*
X150351989Y-138684201D01*
X150358500Y-138623638D01*
X150358500Y-137026362D01*
X150351989Y-136965799D01*
X150300889Y-136828796D01*
X150300888Y-136828794D01*
X150213261Y-136711738D01*
X150096205Y-136624111D01*
X150027702Y-136598561D01*
X149959201Y-136573011D01*
X149898638Y-136566500D01*
X147201362Y-136566500D01*
X147198013Y-136566859D01*
X147198013Y-136566860D01*
X147140799Y-136573011D01*
X147003794Y-136624111D01*
X146886738Y-136711738D01*
X146799111Y-136828794D01*
X146753239Y-136951781D01*
X146748011Y-136965799D01*
X146741500Y-137026362D01*
X146741500Y-138623638D01*
X144777582Y-138623638D01*
X144787912Y-138612834D01*
X144912709Y-138423774D01*
X145001743Y-138215470D01*
X145052151Y-137994615D01*
X145062315Y-137768309D01*
X145031906Y-137543825D01*
X144961903Y-137328379D01*
X144854556Y-137128894D01*
X144806979Y-137069234D01*
X144713314Y-136951781D01*
X144542718Y-136802737D01*
X144438170Y-136740272D01*
X144348250Y-136686547D01*
X144136161Y-136606949D01*
X144136160Y-136606948D01*
X144136158Y-136606948D01*
X143913268Y-136566500D01*
X143913267Y-136566500D01*
X142643478Y-136566500D01*
X142640684Y-136566751D01*
X142640671Y-136566752D01*
X142474375Y-136581719D01*
X142256006Y-136641986D01*
X142051910Y-136740272D01*
X141965936Y-136802737D01*
X141868637Y-136873429D01*
X141868635Y-136873430D01*
X141868635Y-136873431D01*
X141712087Y-137037166D01*
X141587291Y-137226225D01*
X141498256Y-137434530D01*
X141467341Y-137569983D01*
X141432682Y-137631945D01*
X141370027Y-137665333D01*
X141299266Y-137659547D01*
X141242867Y-137616423D01*
X141218736Y-137549653D01*
X141218500Y-137541946D01*
X141218500Y-133075222D01*
X141218730Y-133067614D01*
X141222402Y-133006908D01*
X141222401Y-133006908D01*
X141211435Y-132947064D01*
X141210293Y-132939555D01*
X141202965Y-132879200D01*
X141199350Y-132869667D01*
X141193227Y-132847702D01*
X141191389Y-132837671D01*
X141166418Y-132782189D01*
X141163524Y-132775203D01*
X141141954Y-132718325D01*
X141141952Y-132718323D01*
X141141952Y-132718321D01*
X141136161Y-132709931D01*
X141124957Y-132690067D01*
X141120775Y-132680774D01*
X141083260Y-132632891D01*
X141078766Y-132626783D01*
X141044215Y-132576727D01*
X140998682Y-132536388D01*
X140993141Y-132531171D01*
X139246268Y-130784298D01*
X148547602Y-130784298D01*
X148565760Y-131049769D01*
X148566928Y-131058268D01*
X148621069Y-131318807D01*
X148623384Y-131327072D01*
X148712495Y-131577806D01*
X148715917Y-131585682D01*
X148838333Y-131821934D01*
X148842804Y-131829287D01*
X148970540Y-132010248D01*
X148970541Y-132010248D01*
X149917912Y-131062876D01*
X149979680Y-131180566D01*
X150092405Y-131307806D01*
X150232305Y-131404371D01*
X150277642Y-131421565D01*
X149330715Y-132368492D01*
X149330715Y-132368494D01*
X149395984Y-132421595D01*
X149402995Y-132426543D01*
X149630352Y-132564802D01*
X149637981Y-132568754D01*
X149882039Y-132674764D01*
X149890132Y-132677641D01*
X150146359Y-132749433D01*
X150154777Y-132751182D01*
X150418380Y-132787413D01*
X150426954Y-132788000D01*
X150693046Y-132788000D01*
X150701619Y-132787413D01*
X150965222Y-132751182D01*
X150973640Y-132749433D01*
X151229867Y-132677641D01*
X151237960Y-132674764D01*
X151482018Y-132568754D01*
X151489647Y-132564802D01*
X151717004Y-132426543D01*
X151724016Y-132421594D01*
X151789283Y-132368494D01*
X151789283Y-132368492D01*
X150842356Y-131421565D01*
X150887695Y-131404371D01*
X151027595Y-131307806D01*
X151140320Y-131180566D01*
X151202087Y-131062877D01*
X152149457Y-132010248D01*
X152277199Y-131829280D01*
X152281666Y-131821934D01*
X152404082Y-131585682D01*
X152407504Y-131577806D01*
X152496615Y-131327072D01*
X152498930Y-131318807D01*
X152553071Y-131058268D01*
X152554239Y-131049769D01*
X152572398Y-130784298D01*
X152572398Y-130780000D01*
X154896807Y-130780000D01*
X154897101Y-130784298D01*
X154915259Y-131049769D01*
X154915558Y-131054130D01*
X154971462Y-131323153D01*
X154972899Y-131327196D01*
X154972902Y-131327207D01*
X155062037Y-131578008D01*
X155062040Y-131578015D01*
X155063477Y-131582058D01*
X155065451Y-131585869D01*
X155065453Y-131585872D01*
X155187906Y-131822197D01*
X155187909Y-131822202D01*
X155189889Y-131826023D01*
X155348343Y-132050502D01*
X155351281Y-132053648D01*
X155351282Y-132053649D01*
X155367301Y-132070801D01*
X155535889Y-132251314D01*
X155749031Y-132424718D01*
X155983800Y-132567484D01*
X156235823Y-132676953D01*
X156500404Y-132751085D01*
X156772615Y-132788500D01*
X156776920Y-132788500D01*
X157043080Y-132788500D01*
X157047385Y-132788500D01*
X157319596Y-132751085D01*
X157584177Y-132676953D01*
X157836200Y-132567484D01*
X158070969Y-132424718D01*
X158284111Y-132251314D01*
X158471657Y-132050502D01*
X158630111Y-131826023D01*
X158756523Y-131582058D01*
X158848538Y-131323153D01*
X158904442Y-131054130D01*
X158923193Y-130780000D01*
X158904442Y-130505870D01*
X158848538Y-130236847D01*
X158839435Y-130211235D01*
X158757962Y-129981991D01*
X158757962Y-129981990D01*
X158756523Y-129977942D01*
X158630111Y-129733977D01*
X158471657Y-129509498D01*
X158284111Y-129308686D01*
X158140078Y-129191506D01*
X158074304Y-129137995D01*
X158074301Y-129137993D01*
X158070969Y-129135282D01*
X157836200Y-128992516D01*
X157832259Y-128990804D01*
X157832253Y-128990801D01*
X157588112Y-128884756D01*
X157588109Y-128884755D01*
X157584177Y-128883047D01*
X157580052Y-128881891D01*
X157580043Y-128881888D01*
X157323742Y-128810076D01*
X157323732Y-128810074D01*
X157319596Y-128808915D01*
X157315335Y-128808329D01*
X157315324Y-128808327D01*
X157051653Y-128772086D01*
X157051643Y-128772085D01*
X157047385Y-128771500D01*
X156772615Y-128771500D01*
X156768357Y-128772085D01*
X156768346Y-128772086D01*
X156504675Y-128808327D01*
X156504661Y-128808329D01*
X156500404Y-128808915D01*
X156496269Y-128810073D01*
X156496257Y-128810076D01*
X156239956Y-128881888D01*
X156239942Y-128881892D01*
X156235823Y-128883047D01*
X156231895Y-128884753D01*
X156231887Y-128884756D01*
X155987746Y-128990801D01*
X155987733Y-128990807D01*
X155983800Y-128992516D01*
X155980129Y-128994748D01*
X155980122Y-128994752D01*
X155752704Y-129133048D01*
X155752699Y-129133050D01*
X155749031Y-129135282D01*
X155745704Y-129137988D01*
X155745695Y-129137995D01*
X155539225Y-129305971D01*
X155539217Y-129305978D01*
X155535889Y-129308686D01*
X155532957Y-129311824D01*
X155532952Y-129311830D01*
X155351282Y-129506350D01*
X155351274Y-129506358D01*
X155348343Y-129509498D01*
X155345863Y-129513010D01*
X155345860Y-129513015D01*
X155192375Y-129730454D01*
X155192370Y-129730462D01*
X155189889Y-129733977D01*
X155187913Y-129737790D01*
X155187906Y-129737802D01*
X155065453Y-129974127D01*
X155065449Y-129974136D01*
X155063477Y-129977942D01*
X155062042Y-129981978D01*
X155062037Y-129981991D01*
X154972902Y-130232792D01*
X154972897Y-130232807D01*
X154971462Y-130236847D01*
X154970587Y-130241054D01*
X154970587Y-130241057D01*
X154916432Y-130501661D01*
X154916430Y-130501670D01*
X154915558Y-130505870D01*
X154915264Y-130510157D01*
X154915264Y-130510163D01*
X154902621Y-130695005D01*
X154896807Y-130780000D01*
X152572398Y-130780000D01*
X152572398Y-130775701D01*
X152554239Y-130510230D01*
X152553071Y-130501731D01*
X152498930Y-130241192D01*
X152496615Y-130232927D01*
X152407504Y-129982193D01*
X152404082Y-129974317D01*
X152281666Y-129738065D01*
X152277199Y-129730719D01*
X152149457Y-129549750D01*
X151202086Y-130497121D01*
X151140320Y-130379434D01*
X151027595Y-130252194D01*
X150887695Y-130155629D01*
X150842355Y-130138433D01*
X151789283Y-129191505D01*
X151789283Y-129191504D01*
X151724015Y-129138404D01*
X151717004Y-129133456D01*
X151489647Y-128995197D01*
X151482018Y-128991245D01*
X151237960Y-128885235D01*
X151229867Y-128882358D01*
X150973640Y-128810566D01*
X150965222Y-128808817D01*
X150701619Y-128772586D01*
X150693046Y-128772000D01*
X150426954Y-128772000D01*
X150418380Y-128772586D01*
X150154777Y-128808817D01*
X150146359Y-128810566D01*
X149890132Y-128882358D01*
X149882039Y-128885235D01*
X149637981Y-128991245D01*
X149630352Y-128995197D01*
X149402997Y-129133454D01*
X149395983Y-129138405D01*
X149330715Y-129191504D01*
X149330714Y-129191505D01*
X150277643Y-130138434D01*
X150232305Y-130155629D01*
X150092405Y-130252194D01*
X149979680Y-130379434D01*
X149917913Y-130497121D01*
X148970541Y-129549750D01*
X148842796Y-129730724D01*
X148838335Y-129738061D01*
X148715917Y-129974317D01*
X148712495Y-129982193D01*
X148623384Y-130232927D01*
X148621069Y-130241192D01*
X148566928Y-130501731D01*
X148565760Y-130510230D01*
X148547602Y-130775701D01*
X148547602Y-130784298D01*
X139246268Y-130784298D01*
X138758827Y-130296857D01*
X138753610Y-130291316D01*
X138713273Y-130245785D01*
X138682743Y-130224711D01*
X138663220Y-130211235D01*
X138657092Y-130206725D01*
X138609224Y-130169223D01*
X138599922Y-130165036D01*
X138580068Y-130153839D01*
X138578781Y-130152951D01*
X138571675Y-130148046D01*
X138571673Y-130148045D01*
X138514822Y-130126483D01*
X138507794Y-130123572D01*
X138452329Y-130098610D01*
X138442289Y-130096770D01*
X138420332Y-130090649D01*
X138410801Y-130087035D01*
X138350432Y-130079704D01*
X138342914Y-130078559D01*
X138335153Y-130077137D01*
X138283093Y-130067597D01*
X138222390Y-130071270D01*
X138214782Y-130071500D01*
X136978714Y-130071500D01*
X136910593Y-130051498D01*
X136864100Y-129997842D01*
X136859988Y-129987692D01*
X136858144Y-129982504D01*
X136856523Y-129977942D01*
X136730111Y-129733977D01*
X136571657Y-129509498D01*
X136384111Y-129308686D01*
X136240078Y-129191506D01*
X136174304Y-129137995D01*
X136174301Y-129137993D01*
X136170969Y-129135282D01*
X135936200Y-128992516D01*
X135932259Y-128990804D01*
X135932253Y-128990801D01*
X135688112Y-128884756D01*
X135688109Y-128884755D01*
X135684177Y-128883047D01*
X135680052Y-128881891D01*
X135680043Y-128881888D01*
X135423742Y-128810076D01*
X135423732Y-128810074D01*
X135419596Y-128808915D01*
X135415335Y-128808329D01*
X135415324Y-128808327D01*
X135151653Y-128772086D01*
X135151643Y-128772085D01*
X135147385Y-128771500D01*
X134872615Y-128771500D01*
X134868357Y-128772085D01*
X134868346Y-128772086D01*
X134604675Y-128808327D01*
X134604661Y-128808329D01*
X134600404Y-128808915D01*
X134596269Y-128810073D01*
X134596257Y-128810076D01*
X134339956Y-128881888D01*
X134339942Y-128881892D01*
X134335823Y-128883047D01*
X134331895Y-128884753D01*
X134331887Y-128884756D01*
X134087746Y-128990801D01*
X134087733Y-128990807D01*
X134083800Y-128992516D01*
X134080129Y-128994748D01*
X134080122Y-128994752D01*
X133852704Y-129133048D01*
X133852699Y-129133050D01*
X133849031Y-129135282D01*
X133845704Y-129137988D01*
X133845695Y-129137995D01*
X133639225Y-129305971D01*
X133639217Y-129305978D01*
X133635889Y-129308686D01*
X133632957Y-129311824D01*
X133632952Y-129311830D01*
X133451282Y-129506350D01*
X133451274Y-129506358D01*
X133448343Y-129509498D01*
X133445863Y-129513010D01*
X133445860Y-129513015D01*
X133292375Y-129730454D01*
X133292370Y-129730462D01*
X133289889Y-129733977D01*
X133287913Y-129737790D01*
X133287906Y-129737802D01*
X133165453Y-129974127D01*
X133165449Y-129974136D01*
X133163477Y-129977942D01*
X133162042Y-129981978D01*
X133162037Y-129981991D01*
X133072902Y-130232792D01*
X133072897Y-130232807D01*
X133071462Y-130236847D01*
X133070587Y-130241054D01*
X133070587Y-130241057D01*
X133016432Y-130501661D01*
X133016430Y-130501670D01*
X133015558Y-130505870D01*
X133015264Y-130510157D01*
X133015264Y-130510163D01*
X133002621Y-130695005D01*
X132996807Y-130780000D01*
X130673193Y-130780000D01*
X130654442Y-130505870D01*
X130598538Y-130236847D01*
X130589435Y-130211235D01*
X130507962Y-129981991D01*
X130507962Y-129981990D01*
X130506523Y-129977942D01*
X130380111Y-129733977D01*
X130221657Y-129509498D01*
X130034111Y-129308686D01*
X129890078Y-129191506D01*
X129824304Y-129137995D01*
X129824301Y-129137993D01*
X129820969Y-129135282D01*
X129586200Y-128992516D01*
X129582259Y-128990804D01*
X129582253Y-128990801D01*
X129338112Y-128884756D01*
X129338109Y-128884755D01*
X129334177Y-128883047D01*
X129330052Y-128881891D01*
X129330043Y-128881888D01*
X129073742Y-128810076D01*
X129073732Y-128810074D01*
X129069596Y-128808915D01*
X129065335Y-128808329D01*
X129065324Y-128808327D01*
X128801653Y-128772086D01*
X128801643Y-128772085D01*
X128797385Y-128771500D01*
X128522615Y-128771500D01*
X128518357Y-128772085D01*
X128518346Y-128772086D01*
X128254675Y-128808327D01*
X128254661Y-128808329D01*
X128250404Y-128808915D01*
X128246269Y-128810073D01*
X128246257Y-128810076D01*
X127989956Y-128881888D01*
X127989942Y-128881892D01*
X127985823Y-128883047D01*
X127981895Y-128884753D01*
X127981887Y-128884756D01*
X127737746Y-128990801D01*
X127737733Y-128990807D01*
X127733800Y-128992516D01*
X127730129Y-128994748D01*
X127730122Y-128994752D01*
X127502704Y-129133048D01*
X127502699Y-129133050D01*
X127499031Y-129135282D01*
X127495704Y-129137988D01*
X127495695Y-129137995D01*
X127289225Y-129305971D01*
X127289217Y-129305978D01*
X127285889Y-129308686D01*
X127282957Y-129311824D01*
X127282952Y-129311830D01*
X127101282Y-129506350D01*
X127101274Y-129506358D01*
X127098343Y-129509498D01*
X127095863Y-129513010D01*
X127095860Y-129513015D01*
X126942375Y-129730454D01*
X126942370Y-129730462D01*
X126939889Y-129733977D01*
X126937913Y-129737790D01*
X126937906Y-129737802D01*
X126815453Y-129974127D01*
X126815449Y-129974136D01*
X126813477Y-129977942D01*
X126812042Y-129981978D01*
X126812037Y-129981991D01*
X126722902Y-130232792D01*
X126722897Y-130232807D01*
X126721462Y-130236847D01*
X126720587Y-130241054D01*
X126720587Y-130241057D01*
X126666432Y-130501661D01*
X126666430Y-130501670D01*
X126665558Y-130505870D01*
X126665264Y-130510157D01*
X126665264Y-130510163D01*
X126652621Y-130695005D01*
X126646807Y-130780000D01*
X126308500Y-130780000D01*
X126308500Y-125245660D01*
X126328502Y-125177539D01*
X126345405Y-125156565D01*
X132156566Y-119345405D01*
X132218878Y-119311379D01*
X132245661Y-119308500D01*
X141254340Y-119308500D01*
X141322461Y-119328502D01*
X141343435Y-119345405D01*
X142381171Y-120383141D01*
X142386388Y-120388682D01*
X142426727Y-120434215D01*
X142457909Y-120455739D01*
X142476790Y-120468772D01*
X142482905Y-120473271D01*
X142530775Y-120510775D01*
X142540071Y-120514959D01*
X142559931Y-120526160D01*
X142568323Y-120531953D01*
X142568324Y-120531953D01*
X142568325Y-120531954D01*
X142625204Y-120553525D01*
X142632193Y-120556420D01*
X142687671Y-120581389D01*
X142697704Y-120583227D01*
X142719666Y-120589349D01*
X142729199Y-120592965D01*
X142789565Y-120600294D01*
X142797064Y-120601435D01*
X142856908Y-120612402D01*
X142917616Y-120608729D01*
X142925223Y-120608500D01*
X159654340Y-120608500D01*
X159722461Y-120628502D01*
X159743435Y-120645404D01*
X165304596Y-126206566D01*
X165338621Y-126268876D01*
X165341500Y-126295659D01*
X165341500Y-129914383D01*
X165321498Y-129982504D01*
X165267842Y-130028997D01*
X165197568Y-130039101D01*
X165132988Y-130009607D01*
X165103626Y-129972351D01*
X164982093Y-129737802D01*
X164982092Y-129737801D01*
X164980111Y-129733977D01*
X164821657Y-129509498D01*
X164634111Y-129308686D01*
X164490078Y-129191506D01*
X164424304Y-129137995D01*
X164424301Y-129137993D01*
X164420969Y-129135282D01*
X164186200Y-128992516D01*
X164182259Y-128990804D01*
X164182253Y-128990801D01*
X163938112Y-128884756D01*
X163938109Y-128884755D01*
X163934177Y-128883047D01*
X163930052Y-128881891D01*
X163930043Y-128881888D01*
X163673742Y-128810076D01*
X163673732Y-128810074D01*
X163669596Y-128808915D01*
X163665335Y-128808329D01*
X163665324Y-128808327D01*
X163401653Y-128772086D01*
X163401643Y-128772085D01*
X163397385Y-128771500D01*
X163122615Y-128771500D01*
X163118357Y-128772085D01*
X163118346Y-128772086D01*
X162854675Y-128808327D01*
X162854661Y-128808329D01*
X162850404Y-128808915D01*
X162846269Y-128810073D01*
X162846257Y-128810076D01*
X162589956Y-128881888D01*
X162589942Y-128881892D01*
X162585823Y-128883047D01*
X162581895Y-128884753D01*
X162581887Y-128884756D01*
X162337746Y-128990801D01*
X162337733Y-128990807D01*
X162333800Y-128992516D01*
X162330129Y-128994748D01*
X162330122Y-128994752D01*
X162102704Y-129133048D01*
X162102699Y-129133050D01*
X162099031Y-129135282D01*
X162095704Y-129137988D01*
X162095695Y-129137995D01*
X161889225Y-129305971D01*
X161889217Y-129305978D01*
X161885889Y-129308686D01*
X161882957Y-129311824D01*
X161882952Y-129311830D01*
X161701282Y-129506350D01*
X161701274Y-129506358D01*
X161698343Y-129509498D01*
X161695863Y-129513010D01*
X161695860Y-129513015D01*
X161542375Y-129730454D01*
X161542370Y-129730462D01*
X161539889Y-129733977D01*
X161537913Y-129737790D01*
X161537906Y-129737802D01*
X161415453Y-129974127D01*
X161415449Y-129974136D01*
X161413477Y-129977942D01*
X161412042Y-129981978D01*
X161412037Y-129981991D01*
X161322902Y-130232792D01*
X161322897Y-130232807D01*
X161321462Y-130236847D01*
X161320587Y-130241054D01*
X161320587Y-130241057D01*
X161266432Y-130501661D01*
X161266430Y-130501670D01*
X161265558Y-130505870D01*
X161265264Y-130510157D01*
X161265264Y-130510163D01*
X161252621Y-130695005D01*
X161246807Y-130780000D01*
X161247101Y-130784298D01*
X161265259Y-131049769D01*
X161265558Y-131054130D01*
X161321462Y-131323153D01*
X161322899Y-131327196D01*
X161322902Y-131327207D01*
X161412037Y-131578008D01*
X161412040Y-131578015D01*
X161413477Y-131582058D01*
X161415451Y-131585869D01*
X161415453Y-131585872D01*
X161537906Y-131822197D01*
X161537909Y-131822202D01*
X161539889Y-131826023D01*
X161698343Y-132050502D01*
X161701281Y-132053648D01*
X161701282Y-132053649D01*
X161717301Y-132070801D01*
X161885889Y-132251314D01*
X162099031Y-132424718D01*
X162333800Y-132567484D01*
X162585823Y-132676953D01*
X162850404Y-132751085D01*
X163122615Y-132788500D01*
X163126920Y-132788500D01*
X163393080Y-132788500D01*
X163397385Y-132788500D01*
X163669596Y-132751085D01*
X163934177Y-132676953D01*
X164186200Y-132567484D01*
X164420969Y-132424718D01*
X164634111Y-132251314D01*
X164821657Y-132050502D01*
X164980111Y-131826023D01*
X165103627Y-131587646D01*
X165152726Y-131536367D01*
X165221755Y-131519771D01*
X165288799Y-131543131D01*
X165332571Y-131599028D01*
X165341500Y-131645616D01*
X165341500Y-134386346D01*
X165321498Y-134454467D01*
X165309136Y-134470656D01*
X165270960Y-134513054D01*
X165175472Y-134678443D01*
X165116458Y-134860070D01*
X165096496Y-135050000D01*
X165116458Y-135239929D01*
X165175472Y-135421556D01*
X165270958Y-135586942D01*
X165270960Y-135586944D01*
X165398747Y-135728866D01*
X165553248Y-135841118D01*
X165727712Y-135918794D01*
X165914513Y-135958500D01*
X165914515Y-135958500D01*
X166105485Y-135958500D01*
X166105487Y-135958500D01*
X166292288Y-135918794D01*
X166466752Y-135841118D01*
X166621253Y-135728866D01*
X166749040Y-135586944D01*
X166844527Y-135421556D01*
X166903542Y-135239928D01*
X166923504Y-135050000D01*
X166903542Y-134860072D01*
X166844527Y-134678444D01*
X166844527Y-134678443D01*
X166775381Y-134558679D01*
X166758500Y-134495679D01*
X166758500Y-125975217D01*
X166758730Y-125967609D01*
X166762402Y-125906908D01*
X166762402Y-125906907D01*
X166751433Y-125847052D01*
X166750295Y-125839572D01*
X166742965Y-125779199D01*
X166739349Y-125769666D01*
X166733227Y-125747702D01*
X166731389Y-125737671D01*
X166706418Y-125682189D01*
X166703524Y-125675203D01*
X166681954Y-125618325D01*
X166681952Y-125618323D01*
X166681952Y-125618321D01*
X166676161Y-125609931D01*
X166664957Y-125590067D01*
X166660775Y-125580774D01*
X166623260Y-125532891D01*
X166618766Y-125526783D01*
X166584215Y-125476727D01*
X166538682Y-125436388D01*
X166533141Y-125431171D01*
X160518827Y-119416857D01*
X160513610Y-119411316D01*
X160473273Y-119365785D01*
X160442743Y-119344711D01*
X160423220Y-119331235D01*
X160417092Y-119326725D01*
X160369224Y-119289223D01*
X160359922Y-119285036D01*
X160340068Y-119273839D01*
X160338781Y-119272951D01*
X160331675Y-119268046D01*
X160331673Y-119268045D01*
X160274822Y-119246483D01*
X160267794Y-119243572D01*
X160212329Y-119218610D01*
X160202289Y-119216770D01*
X160180332Y-119210649D01*
X160170801Y-119207035D01*
X160110432Y-119199704D01*
X160102914Y-119198559D01*
X160095153Y-119197137D01*
X160043093Y-119187597D01*
X159982390Y-119191270D01*
X159974782Y-119191500D01*
X143245660Y-119191500D01*
X143177539Y-119171498D01*
X143156569Y-119154599D01*
X142345404Y-118343434D01*
X142311379Y-118281122D01*
X142308500Y-118254339D01*
X142308500Y-116872920D01*
X142328502Y-116804799D01*
X142374532Y-116762106D01*
X142505573Y-116691191D01*
X142549361Y-116657109D01*
X142683240Y-116552906D01*
X142744626Y-116486222D01*
X142805476Y-116449654D01*
X142876440Y-116451787D01*
X142934986Y-116491948D01*
X142955381Y-116527529D01*
X142999554Y-116645963D01*
X143087095Y-116762904D01*
X143204037Y-116850445D01*
X143340906Y-116901494D01*
X143398063Y-116907640D01*
X143404777Y-116908000D01*
X144046000Y-116908000D01*
X144046000Y-115983674D01*
X144157685Y-116034680D01*
X144264237Y-116050000D01*
X144335763Y-116050000D01*
X144442315Y-116034680D01*
X144554000Y-115983674D01*
X144554000Y-116908000D01*
X145195223Y-116908000D01*
X145201936Y-116907640D01*
X145259093Y-116901494D01*
X145395962Y-116850445D01*
X145512904Y-116762904D01*
X145600445Y-116645962D01*
X145651494Y-116509093D01*
X145657640Y-116451936D01*
X145658000Y-116445222D01*
X145658000Y-115804000D01*
X144731116Y-115804000D01*
X144759493Y-115759844D01*
X144800000Y-115621889D01*
X144800000Y-115478111D01*
X144759493Y-115340156D01*
X144731116Y-115296000D01*
X145658000Y-115296000D01*
X145658000Y-114654777D01*
X145657640Y-114648063D01*
X145651494Y-114590906D01*
X145636237Y-114550000D01*
X148546807Y-114550000D01*
X148547101Y-114554298D01*
X148565259Y-114819769D01*
X148565558Y-114824130D01*
X148621462Y-115093153D01*
X148622899Y-115097196D01*
X148622902Y-115097207D01*
X148712037Y-115348008D01*
X148712040Y-115348015D01*
X148713477Y-115352058D01*
X148715451Y-115355869D01*
X148715453Y-115355872D01*
X148837906Y-115592197D01*
X148837909Y-115592202D01*
X148839889Y-115596023D01*
X148998343Y-115820502D01*
X149185889Y-116021314D01*
X149399031Y-116194718D01*
X149633800Y-116337484D01*
X149885823Y-116446953D01*
X150150404Y-116521085D01*
X150422615Y-116558500D01*
X150426920Y-116558500D01*
X150693080Y-116558500D01*
X150697385Y-116558500D01*
X150969596Y-116521085D01*
X151234177Y-116446953D01*
X151486200Y-116337484D01*
X151720969Y-116194718D01*
X151934111Y-116021314D01*
X152121657Y-115820502D01*
X152280111Y-115596023D01*
X152406523Y-115352058D01*
X152498538Y-115093153D01*
X152554442Y-114824130D01*
X152573193Y-114550000D01*
X154896807Y-114550000D01*
X154897101Y-114554298D01*
X154915259Y-114819769D01*
X154915558Y-114824130D01*
X154971462Y-115093153D01*
X154972899Y-115097196D01*
X154972902Y-115097207D01*
X155062037Y-115348008D01*
X155062040Y-115348015D01*
X155063477Y-115352058D01*
X155065451Y-115355869D01*
X155065453Y-115355872D01*
X155187906Y-115592197D01*
X155187909Y-115592202D01*
X155189889Y-115596023D01*
X155348343Y-115820502D01*
X155535889Y-116021314D01*
X155749031Y-116194718D01*
X155983800Y-116337484D01*
X156235823Y-116446953D01*
X156500404Y-116521085D01*
X156772615Y-116558500D01*
X156776920Y-116558500D01*
X157043080Y-116558500D01*
X157047385Y-116558500D01*
X157319596Y-116521085D01*
X157584177Y-116446953D01*
X157836200Y-116337484D01*
X158070969Y-116194718D01*
X158284111Y-116021314D01*
X158471657Y-115820502D01*
X158630111Y-115596023D01*
X158756523Y-115352058D01*
X158848538Y-115093153D01*
X158904442Y-114824130D01*
X158922899Y-114554298D01*
X161247602Y-114554298D01*
X161265760Y-114819769D01*
X161266928Y-114828268D01*
X161321069Y-115088807D01*
X161323384Y-115097072D01*
X161412495Y-115347806D01*
X161415917Y-115355682D01*
X161538333Y-115591934D01*
X161542804Y-115599287D01*
X161670540Y-115780248D01*
X161670541Y-115780248D01*
X162617912Y-114832876D01*
X162679680Y-114950566D01*
X162792405Y-115077806D01*
X162932305Y-115174371D01*
X162977642Y-115191565D01*
X162030715Y-116138492D01*
X162030715Y-116138494D01*
X162095984Y-116191595D01*
X162102995Y-116196543D01*
X162330352Y-116334802D01*
X162337981Y-116338754D01*
X162582039Y-116444764D01*
X162590132Y-116447641D01*
X162846359Y-116519433D01*
X162854777Y-116521182D01*
X163118380Y-116557413D01*
X163126954Y-116558000D01*
X163393046Y-116558000D01*
X163401619Y-116557413D01*
X163665222Y-116521182D01*
X163673640Y-116519433D01*
X163929867Y-116447641D01*
X163937960Y-116444764D01*
X164182018Y-116338754D01*
X164189647Y-116334802D01*
X164417004Y-116196543D01*
X164424016Y-116191594D01*
X164489283Y-116138494D01*
X164489283Y-116138492D01*
X163542356Y-115191565D01*
X163587695Y-115174371D01*
X163727595Y-115077806D01*
X163840320Y-114950566D01*
X163902087Y-114832877D01*
X164849457Y-115780247D01*
X164977199Y-115599280D01*
X164981666Y-115591934D01*
X165104082Y-115355682D01*
X165107504Y-115347806D01*
X165196615Y-115097072D01*
X165198930Y-115088807D01*
X165253071Y-114828268D01*
X165254239Y-114819769D01*
X165272398Y-114554298D01*
X165272398Y-114545701D01*
X165254239Y-114280230D01*
X165253071Y-114271731D01*
X165198930Y-114011192D01*
X165196615Y-114002927D01*
X165107504Y-113752193D01*
X165104082Y-113744317D01*
X164981666Y-113508065D01*
X164977199Y-113500719D01*
X164849457Y-113319750D01*
X163902086Y-114267121D01*
X163840320Y-114149434D01*
X163727595Y-114022194D01*
X163587695Y-113925629D01*
X163542355Y-113908433D01*
X164489283Y-112961505D01*
X164489283Y-112961504D01*
X164424015Y-112908404D01*
X164417004Y-112903456D01*
X164189647Y-112765197D01*
X164182018Y-112761245D01*
X163937960Y-112655235D01*
X163929867Y-112652358D01*
X163673640Y-112580566D01*
X163665222Y-112578817D01*
X163401619Y-112542586D01*
X163393046Y-112542000D01*
X163126954Y-112542000D01*
X163118380Y-112542586D01*
X162854777Y-112578817D01*
X162846359Y-112580566D01*
X162590132Y-112652358D01*
X162582039Y-112655235D01*
X162337981Y-112761245D01*
X162330352Y-112765197D01*
X162102997Y-112903454D01*
X162095983Y-112908405D01*
X162030715Y-112961504D01*
X162030714Y-112961505D01*
X162977643Y-113908434D01*
X162932305Y-113925629D01*
X162792405Y-114022194D01*
X162679680Y-114149434D01*
X162617913Y-114267122D01*
X161670541Y-113319750D01*
X161542796Y-113500724D01*
X161538335Y-113508061D01*
X161415917Y-113744317D01*
X161412495Y-113752193D01*
X161323384Y-114002927D01*
X161321069Y-114011192D01*
X161266928Y-114271731D01*
X161265760Y-114280230D01*
X161247602Y-114545701D01*
X161247602Y-114554298D01*
X158922899Y-114554298D01*
X158923193Y-114550000D01*
X158922667Y-114542317D01*
X158915866Y-114442890D01*
X158904442Y-114275870D01*
X158848538Y-114006847D01*
X158792794Y-113850000D01*
X158757962Y-113751991D01*
X158756523Y-113747942D01*
X158630111Y-113503977D01*
X158471657Y-113279498D01*
X158284111Y-113078686D01*
X158280774Y-113075971D01*
X158074304Y-112907995D01*
X158074301Y-112907993D01*
X158070969Y-112905282D01*
X157836200Y-112762516D01*
X157832259Y-112760804D01*
X157832253Y-112760801D01*
X157588112Y-112654756D01*
X157588109Y-112654755D01*
X157584177Y-112653047D01*
X157580052Y-112651891D01*
X157580043Y-112651888D01*
X157323742Y-112580076D01*
X157323732Y-112580074D01*
X157319596Y-112578915D01*
X157315335Y-112578329D01*
X157315324Y-112578327D01*
X157051653Y-112542086D01*
X157051643Y-112542085D01*
X157047385Y-112541500D01*
X156772615Y-112541500D01*
X156768357Y-112542085D01*
X156768346Y-112542086D01*
X156504675Y-112578327D01*
X156504661Y-112578329D01*
X156500404Y-112578915D01*
X156496269Y-112580073D01*
X156496257Y-112580076D01*
X156239956Y-112651888D01*
X156239942Y-112651892D01*
X156235823Y-112653047D01*
X156231895Y-112654753D01*
X156231887Y-112654756D01*
X155987746Y-112760801D01*
X155987733Y-112760807D01*
X155983800Y-112762516D01*
X155980129Y-112764748D01*
X155980122Y-112764752D01*
X155752704Y-112903048D01*
X155752699Y-112903050D01*
X155749031Y-112905282D01*
X155745704Y-112907988D01*
X155745695Y-112907995D01*
X155539225Y-113075971D01*
X155539217Y-113075978D01*
X155535889Y-113078686D01*
X155532957Y-113081824D01*
X155532952Y-113081830D01*
X155351282Y-113276350D01*
X155351274Y-113276358D01*
X155348343Y-113279498D01*
X155345863Y-113283010D01*
X155345860Y-113283015D01*
X155192375Y-113500454D01*
X155192370Y-113500462D01*
X155189889Y-113503977D01*
X155187913Y-113507790D01*
X155187906Y-113507802D01*
X155065453Y-113744127D01*
X155065449Y-113744136D01*
X155063477Y-113747942D01*
X155062042Y-113751978D01*
X155062037Y-113751991D01*
X154972902Y-114002792D01*
X154972897Y-114002807D01*
X154971462Y-114006847D01*
X154970587Y-114011054D01*
X154970587Y-114011057D01*
X154916432Y-114271661D01*
X154916430Y-114271670D01*
X154915558Y-114275870D01*
X154915264Y-114280157D01*
X154915264Y-114280163D01*
X154897101Y-114545701D01*
X154896807Y-114550000D01*
X152573193Y-114550000D01*
X152572667Y-114542317D01*
X152565866Y-114442890D01*
X152554442Y-114275870D01*
X152498538Y-114006847D01*
X152442794Y-113850000D01*
X152407962Y-113751991D01*
X152406523Y-113747942D01*
X152280111Y-113503977D01*
X152121657Y-113279498D01*
X151934111Y-113078686D01*
X151930774Y-113075971D01*
X151724304Y-112907995D01*
X151724301Y-112907993D01*
X151720969Y-112905282D01*
X151486200Y-112762516D01*
X151482259Y-112760804D01*
X151482253Y-112760801D01*
X151238112Y-112654756D01*
X151238109Y-112654755D01*
X151234177Y-112653047D01*
X151230052Y-112651891D01*
X151230043Y-112651888D01*
X150973742Y-112580076D01*
X150973732Y-112580074D01*
X150969596Y-112578915D01*
X150965335Y-112578329D01*
X150965324Y-112578327D01*
X150701653Y-112542086D01*
X150701643Y-112542085D01*
X150697385Y-112541500D01*
X150422615Y-112541500D01*
X150418357Y-112542085D01*
X150418346Y-112542086D01*
X150154675Y-112578327D01*
X150154661Y-112578329D01*
X150150404Y-112578915D01*
X150146269Y-112580073D01*
X150146257Y-112580076D01*
X149889956Y-112651888D01*
X149889942Y-112651892D01*
X149885823Y-112653047D01*
X149881895Y-112654753D01*
X149881887Y-112654756D01*
X149637746Y-112760801D01*
X149637733Y-112760807D01*
X149633800Y-112762516D01*
X149630129Y-112764748D01*
X149630122Y-112764752D01*
X149402704Y-112903048D01*
X149402699Y-112903050D01*
X149399031Y-112905282D01*
X149395704Y-112907988D01*
X149395695Y-112907995D01*
X149189225Y-113075971D01*
X149189217Y-113075978D01*
X149185889Y-113078686D01*
X149182957Y-113081824D01*
X149182952Y-113081830D01*
X149001282Y-113276350D01*
X149001274Y-113276358D01*
X148998343Y-113279498D01*
X148995863Y-113283010D01*
X148995860Y-113283015D01*
X148842375Y-113500454D01*
X148842370Y-113500462D01*
X148839889Y-113503977D01*
X148837913Y-113507790D01*
X148837906Y-113507802D01*
X148715453Y-113744127D01*
X148715449Y-113744136D01*
X148713477Y-113747942D01*
X148712042Y-113751978D01*
X148712037Y-113751991D01*
X148622902Y-114002792D01*
X148622897Y-114002807D01*
X148621462Y-114006847D01*
X148620587Y-114011054D01*
X148620587Y-114011057D01*
X148566432Y-114271661D01*
X148566430Y-114271670D01*
X148565558Y-114275870D01*
X148565264Y-114280157D01*
X148565264Y-114280163D01*
X148547101Y-114545701D01*
X148546807Y-114550000D01*
X145636237Y-114550000D01*
X145600445Y-114454037D01*
X145512904Y-114337095D01*
X145395962Y-114249554D01*
X145259093Y-114198505D01*
X145201936Y-114192359D01*
X145195223Y-114192000D01*
X144554000Y-114192000D01*
X144554000Y-115116325D01*
X144442315Y-115065320D01*
X144335763Y-115050000D01*
X144264237Y-115050000D01*
X144157685Y-115065320D01*
X144046000Y-115116325D01*
X144046000Y-114192000D01*
X143404777Y-114192000D01*
X143398063Y-114192359D01*
X143340906Y-114198505D01*
X143204037Y-114249554D01*
X143087095Y-114337095D01*
X142999554Y-114454036D01*
X142955381Y-114572470D01*
X142912834Y-114629305D01*
X142846313Y-114654116D01*
X142776939Y-114639024D01*
X142744624Y-114613774D01*
X142683240Y-114547093D01*
X142505581Y-114408814D01*
X142505577Y-114408811D01*
X142505576Y-114408811D01*
X142374529Y-114337892D01*
X142324140Y-114287879D01*
X142308500Y-114227079D01*
X142308500Y-112757745D01*
X142312083Y-112738187D01*
X142311120Y-112738071D01*
X142312963Y-112722885D01*
X142312965Y-112722882D01*
X142320298Y-112662473D01*
X142321435Y-112655008D01*
X142332401Y-112595174D01*
X142331893Y-112586789D01*
X142347746Y-112517585D01*
X142380273Y-112479750D01*
X142543237Y-112352908D01*
X142543240Y-112352906D01*
X142695722Y-112187268D01*
X142784817Y-112050896D01*
X142838819Y-112004809D01*
X142909167Y-111995234D01*
X142973524Y-112025211D01*
X142995782Y-112050897D01*
X143084678Y-112186962D01*
X143237096Y-112352533D01*
X143414697Y-112490766D01*
X143612631Y-112597883D01*
X143825485Y-112670955D01*
X143906000Y-112684391D01*
X143906000Y-111783674D01*
X144017685Y-111834680D01*
X144124237Y-111850000D01*
X144195763Y-111850000D01*
X144302315Y-111834680D01*
X144414000Y-111783674D01*
X144414000Y-112684390D01*
X144494514Y-112670955D01*
X144707368Y-112597883D01*
X144905302Y-112490766D01*
X145082899Y-112352536D01*
X145144047Y-112286112D01*
X145204900Y-112249541D01*
X145275864Y-112251674D01*
X145334410Y-112291835D01*
X145354805Y-112327416D01*
X145399111Y-112446206D01*
X145486738Y-112563261D01*
X145603794Y-112650888D01*
X145603795Y-112650888D01*
X145603796Y-112650889D01*
X145740799Y-112701989D01*
X145801362Y-112708500D01*
X145804731Y-112708500D01*
X147595269Y-112708500D01*
X147598638Y-112708500D01*
X147659201Y-112701989D01*
X147796204Y-112650889D01*
X147913261Y-112563261D01*
X148000889Y-112446204D01*
X148051989Y-112309201D01*
X148058500Y-112248638D01*
X148058500Y-110451362D01*
X148051989Y-110390799D01*
X148000889Y-110253796D01*
X148000888Y-110253794D01*
X147913261Y-110136738D01*
X147796205Y-110049111D01*
X147726930Y-110023273D01*
X147659201Y-109998011D01*
X147598638Y-109991500D01*
X145801362Y-109991500D01*
X145798013Y-109991859D01*
X145798013Y-109991860D01*
X145740799Y-109998011D01*
X145603794Y-110049111D01*
X145486738Y-110136738D01*
X145399109Y-110253796D01*
X145354804Y-110372583D01*
X145312257Y-110429419D01*
X145245737Y-110454229D01*
X145176363Y-110439137D01*
X145144048Y-110413887D01*
X145082903Y-110347466D01*
X144905302Y-110209233D01*
X144707368Y-110102116D01*
X144494510Y-110029042D01*
X144414000Y-110015606D01*
X144414000Y-110916325D01*
X144302315Y-110865320D01*
X144195763Y-110850000D01*
X144124237Y-110850000D01*
X144017685Y-110865320D01*
X143906000Y-110916325D01*
X143906000Y-110015607D01*
X143905999Y-110015606D01*
X143825489Y-110029042D01*
X143612631Y-110102116D01*
X143414697Y-110209233D01*
X143237096Y-110347466D01*
X143084678Y-110513037D01*
X142995782Y-110649102D01*
X142941778Y-110695190D01*
X142871430Y-110704765D01*
X142807073Y-110674787D01*
X142784816Y-110649101D01*
X142695723Y-110512734D01*
X142695722Y-110512732D01*
X142543240Y-110347094D01*
X142543239Y-110347093D01*
X142543237Y-110347091D01*
X142365581Y-110208814D01*
X142365577Y-110208811D01*
X142365576Y-110208811D01*
X142167574Y-110101658D01*
X142165597Y-110100588D01*
X142115207Y-110050574D01*
X142099855Y-109981257D01*
X142117140Y-109934375D01*
X142114493Y-109933184D01*
X142120771Y-109919230D01*
X142120775Y-109919226D01*
X142124960Y-109909925D01*
X142136162Y-109890065D01*
X142141954Y-109881675D01*
X142163524Y-109824795D01*
X142166433Y-109817775D01*
X142181629Y-109784012D01*
X142191388Y-109762329D01*
X142193225Y-109752302D01*
X142199347Y-109730339D01*
X142202965Y-109720801D01*
X142210297Y-109660415D01*
X142211436Y-109652925D01*
X142222401Y-109593093D01*
X142218729Y-109532400D01*
X142218500Y-109524793D01*
X142218500Y-107575222D01*
X142218730Y-107567614D01*
X142222402Y-107506908D01*
X142213769Y-107459799D01*
X142211435Y-107447064D01*
X142210293Y-107439555D01*
X142202965Y-107379200D01*
X142199350Y-107369667D01*
X142193227Y-107347702D01*
X142191389Y-107337671D01*
X142166418Y-107282189D01*
X142163524Y-107275203D01*
X142141954Y-107218325D01*
X142141953Y-107218323D01*
X142136528Y-107204018D01*
X142137765Y-107203548D01*
X142121028Y-107152800D01*
X142138775Y-107084057D01*
X142186988Y-107037835D01*
X142365576Y-106941189D01*
X142543240Y-106802906D01*
X142695722Y-106637268D01*
X142784817Y-106500896D01*
X142838819Y-106454809D01*
X142909167Y-106445234D01*
X142973524Y-106475211D01*
X142995782Y-106500897D01*
X143084678Y-106636962D01*
X143237096Y-106802533D01*
X143414697Y-106940766D01*
X143612631Y-107047883D01*
X143825485Y-107120955D01*
X143906000Y-107134391D01*
X143906000Y-106233674D01*
X144017685Y-106284680D01*
X144124237Y-106300000D01*
X144195763Y-106300000D01*
X144302315Y-106284680D01*
X144414000Y-106233674D01*
X144414000Y-107134390D01*
X144494514Y-107120955D01*
X144707368Y-107047883D01*
X144905302Y-106940766D01*
X145082899Y-106802536D01*
X145144047Y-106736112D01*
X145204900Y-106699541D01*
X145275864Y-106701674D01*
X145334410Y-106741835D01*
X145354805Y-106777416D01*
X145399111Y-106896206D01*
X145486738Y-107013261D01*
X145603794Y-107100888D01*
X145603795Y-107100888D01*
X145603796Y-107100889D01*
X145740799Y-107151989D01*
X145801362Y-107158500D01*
X145804731Y-107158500D01*
X147595269Y-107158500D01*
X147598638Y-107158500D01*
X147659201Y-107151989D01*
X147796204Y-107100889D01*
X147913261Y-107013261D01*
X148000889Y-106896204D01*
X148051989Y-106759201D01*
X148058500Y-106698638D01*
X148058500Y-104901362D01*
X148051989Y-104840799D01*
X148000889Y-104703796D01*
X148000888Y-104703794D01*
X147913261Y-104586738D01*
X147796205Y-104499111D01*
X147706377Y-104465607D01*
X147659201Y-104448011D01*
X147598638Y-104441500D01*
X145801362Y-104441500D01*
X145798013Y-104441859D01*
X145798013Y-104441860D01*
X145740799Y-104448011D01*
X145603794Y-104499111D01*
X145486738Y-104586738D01*
X145399109Y-104703796D01*
X145354804Y-104822583D01*
X145312257Y-104879419D01*
X145245737Y-104904229D01*
X145176363Y-104889137D01*
X145144048Y-104863887D01*
X145082903Y-104797466D01*
X144905302Y-104659233D01*
X144707368Y-104552116D01*
X144494510Y-104479042D01*
X144414000Y-104465606D01*
X144414000Y-105366325D01*
X144302315Y-105315320D01*
X144195763Y-105300000D01*
X144124237Y-105300000D01*
X144017685Y-105315320D01*
X143906000Y-105366325D01*
X143906000Y-104465607D01*
X143905999Y-104465606D01*
X143825489Y-104479042D01*
X143612631Y-104552116D01*
X143414697Y-104659233D01*
X143237096Y-104797466D01*
X143084678Y-104963037D01*
X142995782Y-105099102D01*
X142941778Y-105145190D01*
X142871430Y-105154765D01*
X142807073Y-105124787D01*
X142784816Y-105099101D01*
X142695723Y-104962734D01*
X142695722Y-104962732D01*
X142543240Y-104797094D01*
X142543239Y-104797093D01*
X142543237Y-104797091D01*
X142377109Y-104667787D01*
X142335638Y-104610162D01*
X142328500Y-104568356D01*
X142328500Y-98824128D01*
X142348502Y-98756007D01*
X142363716Y-98739901D01*
X142362391Y-98738708D01*
X142414697Y-98680616D01*
X142499040Y-98586944D01*
X142594527Y-98421556D01*
X142653542Y-98239928D01*
X142673504Y-98050000D01*
X142653542Y-97860072D01*
X142594527Y-97678444D01*
X142594527Y-97678443D01*
X142517551Y-97545117D01*
X142500813Y-97476122D01*
X142524033Y-97409030D01*
X142537569Y-97393028D01*
X142630597Y-97300000D01*
X157197004Y-97300000D01*
X157216951Y-97527999D01*
X157276186Y-97749070D01*
X157372912Y-97956497D01*
X157422899Y-98027887D01*
X158111272Y-97339516D01*
X158124835Y-97425148D01*
X158182359Y-97538045D01*
X158271955Y-97627641D01*
X158384852Y-97685165D01*
X158470482Y-97698727D01*
X157782110Y-98387098D01*
X157782110Y-98387100D01*
X157853497Y-98437085D01*
X158060929Y-98533813D01*
X158282000Y-98593048D01*
X158510000Y-98612995D01*
X158737999Y-98593048D01*
X158959070Y-98533813D01*
X159166498Y-98437087D01*
X159237888Y-98387099D01*
X159237888Y-98387097D01*
X158549518Y-97698727D01*
X158635148Y-97685165D01*
X158748045Y-97627641D01*
X158837641Y-97538045D01*
X158895165Y-97425148D01*
X158908727Y-97339518D01*
X159597097Y-98027888D01*
X159597099Y-98027888D01*
X159647087Y-97956498D01*
X159743813Y-97749070D01*
X159803048Y-97527999D01*
X159817079Y-97367620D01*
X164197004Y-97367620D01*
X164216951Y-97595620D01*
X164276186Y-97816691D01*
X164372912Y-98024118D01*
X164422900Y-98095509D01*
X165111272Y-97407136D01*
X165124835Y-97492769D01*
X165182359Y-97605666D01*
X165271955Y-97695262D01*
X165384852Y-97752786D01*
X165470482Y-97766348D01*
X164782110Y-98454719D01*
X164782110Y-98454721D01*
X164853497Y-98504706D01*
X165060929Y-98601434D01*
X165282000Y-98660669D01*
X165509999Y-98680616D01*
X165737999Y-98660669D01*
X165959070Y-98601434D01*
X166166498Y-98504708D01*
X166237888Y-98454720D01*
X166237888Y-98454718D01*
X165549518Y-97766348D01*
X165635148Y-97752786D01*
X165748045Y-97695262D01*
X165837641Y-97605666D01*
X165895165Y-97492769D01*
X165908727Y-97407138D01*
X166597097Y-98095509D01*
X166597099Y-98095509D01*
X166647087Y-98024119D01*
X166743813Y-97816691D01*
X166803048Y-97595620D01*
X166822995Y-97367621D01*
X166803048Y-97139621D01*
X166743813Y-96918550D01*
X166647085Y-96711118D01*
X166597099Y-96639731D01*
X165908726Y-97328102D01*
X165895165Y-97242473D01*
X165837641Y-97129576D01*
X165748045Y-97039980D01*
X165635148Y-96982456D01*
X165549515Y-96968893D01*
X166249503Y-96268906D01*
X166254692Y-96243091D01*
X166304091Y-96192099D01*
X166358737Y-96176112D01*
X166358643Y-96176120D01*
X166419201Y-96169610D01*
X166556204Y-96118510D01*
X166673261Y-96030882D01*
X166760889Y-95913825D01*
X166811989Y-95776822D01*
X166818500Y-95716259D01*
X166818500Y-94018983D01*
X166811989Y-93958420D01*
X166760889Y-93821417D01*
X166760888Y-93821415D01*
X166673261Y-93704359D01*
X166556205Y-93616732D01*
X166487702Y-93591181D01*
X166419201Y-93565632D01*
X166358638Y-93559121D01*
X164661362Y-93559121D01*
X164658013Y-93559480D01*
X164658013Y-93559481D01*
X164600799Y-93565632D01*
X164463794Y-93616732D01*
X164346738Y-93704359D01*
X164259111Y-93821415D01*
X164209387Y-93954730D01*
X164208011Y-93958420D01*
X164201500Y-94018983D01*
X164201500Y-95716259D01*
X164208011Y-95776822D01*
X164222701Y-95816206D01*
X164259111Y-95913826D01*
X164346738Y-96030882D01*
X164463794Y-96118509D01*
X164463795Y-96118509D01*
X164463796Y-96118510D01*
X164600799Y-96169610D01*
X164661358Y-96176120D01*
X164661096Y-96176099D01*
X164727468Y-96199512D01*
X164771024Y-96255578D01*
X164773370Y-96271782D01*
X165470481Y-96968893D01*
X165384852Y-96982456D01*
X165271955Y-97039980D01*
X165182359Y-97129576D01*
X165124835Y-97242473D01*
X165111272Y-97328102D01*
X164422900Y-96639730D01*
X164372913Y-96711120D01*
X164276186Y-96918550D01*
X164216951Y-97139621D01*
X164197004Y-97367620D01*
X159817079Y-97367620D01*
X159822995Y-97299999D01*
X159803048Y-97072000D01*
X159743813Y-96850929D01*
X159647085Y-96643497D01*
X159597100Y-96572110D01*
X159597098Y-96572110D01*
X158908727Y-97260481D01*
X158895165Y-97174852D01*
X158837641Y-97061955D01*
X158748045Y-96972359D01*
X158635148Y-96914835D01*
X158549517Y-96901272D01*
X159249504Y-96201283D01*
X159254692Y-96175470D01*
X159304091Y-96124478D01*
X159358737Y-96108491D01*
X159358643Y-96108499D01*
X159419201Y-96101989D01*
X159556204Y-96050889D01*
X159673261Y-95963261D01*
X159760889Y-95846204D01*
X159811989Y-95709201D01*
X159818500Y-95648638D01*
X159818500Y-93951362D01*
X159811989Y-93890799D01*
X159760889Y-93753796D01*
X159760888Y-93753794D01*
X159673261Y-93636738D01*
X159556205Y-93549111D01*
X159487702Y-93523561D01*
X159419201Y-93498011D01*
X159358638Y-93491500D01*
X157661362Y-93491500D01*
X157658013Y-93491859D01*
X157658013Y-93491860D01*
X157600799Y-93498011D01*
X157463794Y-93549111D01*
X157346738Y-93636738D01*
X157259111Y-93753794D01*
X157211103Y-93882508D01*
X157208011Y-93890799D01*
X157201500Y-93951362D01*
X157201500Y-95648638D01*
X157208011Y-95709201D01*
X157225652Y-95756498D01*
X157259111Y-95846205D01*
X157346738Y-95963261D01*
X157463794Y-96050888D01*
X157463795Y-96050888D01*
X157463796Y-96050889D01*
X157600799Y-96101989D01*
X157661358Y-96108499D01*
X157661096Y-96108478D01*
X157727468Y-96131891D01*
X157771024Y-96187957D01*
X157773370Y-96204161D01*
X158470481Y-96901272D01*
X158384852Y-96914835D01*
X158271955Y-96972359D01*
X158182359Y-97061955D01*
X158124835Y-97174852D01*
X158111272Y-97260481D01*
X157422900Y-96572109D01*
X157372913Y-96643499D01*
X157276186Y-96850929D01*
X157216951Y-97072000D01*
X157197004Y-97300000D01*
X142630597Y-97300000D01*
X147135193Y-92795405D01*
X147197506Y-92761379D01*
X147224289Y-92758500D01*
X147898595Y-92758500D01*
X147966716Y-92778502D01*
X147972655Y-92782563D01*
X148053248Y-92841118D01*
X148227712Y-92918794D01*
X148414513Y-92958500D01*
X148414515Y-92958500D01*
X148605485Y-92958500D01*
X148605487Y-92958500D01*
X148792288Y-92918794D01*
X148966752Y-92841118D01*
X149121253Y-92728866D01*
X149249040Y-92586944D01*
X149344527Y-92421556D01*
X149403542Y-92239928D01*
X149423504Y-92050000D01*
X149403542Y-91860072D01*
X149344527Y-91678444D01*
X149344527Y-91678443D01*
X149249041Y-91513057D01*
X149142861Y-91395132D01*
X149121253Y-91371134D01*
X149117780Y-91368611D01*
X148966753Y-91258883D01*
X148966752Y-91258882D01*
X148792288Y-91181206D01*
X148605487Y-91141500D01*
X148414513Y-91141500D01*
X148289979Y-91167970D01*
X148227711Y-91181206D01*
X148053246Y-91258883D01*
X147972656Y-91317436D01*
X147905788Y-91341294D01*
X147898595Y-91341500D01*
X146903852Y-91341500D01*
X146896245Y-91341270D01*
X146894169Y-91341144D01*
X146835535Y-91337597D01*
X146775719Y-91348559D01*
X146768198Y-91349704D01*
X146707826Y-91357035D01*
X146698291Y-91360651D01*
X146676340Y-91366770D01*
X146674238Y-91367155D01*
X146666297Y-91368611D01*
X146610842Y-91393569D01*
X146603815Y-91396480D01*
X146546951Y-91418046D01*
X146538555Y-91423842D01*
X146518705Y-91435038D01*
X146509405Y-91439224D01*
X146509403Y-91439225D01*
X146509404Y-91439225D01*
X146461528Y-91476731D01*
X146455414Y-91481230D01*
X146405359Y-91515781D01*
X146365017Y-91561317D01*
X146359801Y-91566856D01*
X141276856Y-96649801D01*
X141271317Y-96655017D01*
X141225782Y-96695358D01*
X141191238Y-96745402D01*
X141186731Y-96751527D01*
X141149224Y-96799403D01*
X141145036Y-96808707D01*
X141133843Y-96828552D01*
X141128048Y-96836948D01*
X141106482Y-96893812D01*
X141103570Y-96900840D01*
X141078611Y-96956297D01*
X141076771Y-96966339D01*
X141070651Y-96988291D01*
X141067035Y-96997826D01*
X141059705Y-97058183D01*
X141058561Y-97065700D01*
X141047597Y-97125535D01*
X141051270Y-97186237D01*
X141051500Y-97193846D01*
X141051500Y-97430771D01*
X141031498Y-97498892D01*
X141021818Y-97511568D01*
X140925472Y-97678444D01*
X140866458Y-97860070D01*
X140846496Y-98049999D01*
X140866458Y-98239929D01*
X140905333Y-98359571D01*
X140911500Y-98398507D01*
X140911500Y-104568356D01*
X140891498Y-104636477D01*
X140862891Y-104667787D01*
X140696762Y-104797091D01*
X140544278Y-104962731D01*
X140455483Y-105098643D01*
X140401479Y-105144731D01*
X140331131Y-105154306D01*
X140266774Y-105124328D01*
X140244517Y-105098643D01*
X140155721Y-104962731D01*
X140064728Y-104863887D01*
X140003240Y-104797094D01*
X140003239Y-104797093D01*
X140003237Y-104797091D01*
X139825578Y-104658812D01*
X139627573Y-104551657D01*
X139474510Y-104499111D01*
X139414635Y-104478556D01*
X139192569Y-104441500D01*
X138967431Y-104441500D01*
X138745365Y-104478556D01*
X138745362Y-104478556D01*
X138745362Y-104478557D01*
X138532426Y-104551657D01*
X138334421Y-104658812D01*
X138156762Y-104797091D01*
X138004278Y-104962731D01*
X137881139Y-105151209D01*
X137790702Y-105357388D01*
X137735437Y-105575627D01*
X137735436Y-105575632D01*
X137716844Y-105800000D01*
X137735436Y-106024368D01*
X137735436Y-106024371D01*
X137735437Y-106024372D01*
X137790702Y-106242611D01*
X137881139Y-106448790D01*
X137915183Y-106500898D01*
X138004278Y-106637268D01*
X138156419Y-106802536D01*
X138156762Y-106802908D01*
X138334420Y-106941186D01*
X138334424Y-106941189D01*
X138532426Y-107048342D01*
X138745365Y-107121444D01*
X138967431Y-107158500D01*
X138967434Y-107158500D01*
X139192572Y-107158500D01*
X139300727Y-107140451D01*
X139337669Y-107134287D01*
X139408152Y-107142803D01*
X139447503Y-107169473D01*
X139737829Y-107459799D01*
X139771855Y-107522111D01*
X139766790Y-107592926D01*
X139724243Y-107649762D01*
X139657723Y-107674573D01*
X139648786Y-107674894D01*
X116601990Y-107684457D01*
X116533861Y-107664483D01*
X116500412Y-107633079D01*
X116455091Y-107571418D01*
X115129931Y-105768480D01*
X115105705Y-105701746D01*
X115105458Y-105693956D01*
X115098909Y-95050000D01*
X127129384Y-95050000D01*
X127149331Y-95277999D01*
X127208566Y-95499070D01*
X127305292Y-95706497D01*
X127355280Y-95777888D01*
X128043652Y-95089515D01*
X128057215Y-95175148D01*
X128114739Y-95288045D01*
X128204335Y-95377641D01*
X128317232Y-95435165D01*
X128402862Y-95448727D01*
X127714490Y-96137098D01*
X127714490Y-96137100D01*
X127785877Y-96187085D01*
X127993309Y-96283813D01*
X128214380Y-96343048D01*
X128442380Y-96362995D01*
X128670379Y-96343048D01*
X128891450Y-96283813D01*
X129098878Y-96187087D01*
X129170268Y-96137099D01*
X129170268Y-96137097D01*
X128481898Y-95448727D01*
X128567528Y-95435165D01*
X128680425Y-95377641D01*
X128770021Y-95288045D01*
X128827545Y-95175148D01*
X128841107Y-95089517D01*
X129541093Y-95789503D01*
X129566909Y-95794692D01*
X129617901Y-95844091D01*
X129633886Y-95898718D01*
X129633880Y-95898640D01*
X129634239Y-95901980D01*
X129634240Y-95901993D01*
X129639560Y-95951478D01*
X129640391Y-95959201D01*
X129657896Y-96006133D01*
X129691491Y-96096205D01*
X129779118Y-96213261D01*
X129896174Y-96300888D01*
X129896175Y-96300888D01*
X129896176Y-96300889D01*
X130033179Y-96351989D01*
X130093742Y-96358500D01*
X130097111Y-96358500D01*
X131787649Y-96358500D01*
X131791018Y-96358500D01*
X131851581Y-96351989D01*
X131988584Y-96300889D01*
X132099991Y-96217489D01*
X132166509Y-96192680D01*
X132235884Y-96207771D01*
X132286086Y-96257973D01*
X132301499Y-96318359D01*
X132301500Y-99680771D01*
X132281498Y-99748892D01*
X132271818Y-99761568D01*
X132175472Y-99928444D01*
X132116458Y-100110070D01*
X132096496Y-100300000D01*
X132116458Y-100489929D01*
X132175472Y-100671556D01*
X132270958Y-100836942D01*
X132270960Y-100836944D01*
X132398747Y-100978866D01*
X132553248Y-101091118D01*
X132727712Y-101168794D01*
X132914513Y-101208500D01*
X132914515Y-101208500D01*
X133105488Y-101208500D01*
X133137533Y-101201688D01*
X133269940Y-101173544D01*
X133340728Y-101178945D01*
X133397361Y-101221761D01*
X133421855Y-101288399D01*
X133406434Y-101357700D01*
X133389772Y-101381100D01*
X133270958Y-101513057D01*
X133175472Y-101678443D01*
X133116458Y-101860070D01*
X133096496Y-102049999D01*
X133116458Y-102239929D01*
X133175472Y-102421556D01*
X133270958Y-102586942D01*
X133270960Y-102586944D01*
X133398747Y-102728866D01*
X133553248Y-102841118D01*
X133727712Y-102918794D01*
X133914513Y-102958500D01*
X133914515Y-102958500D01*
X134105485Y-102958500D01*
X134105487Y-102958500D01*
X134292288Y-102918794D01*
X134466752Y-102841118D01*
X134621253Y-102728866D01*
X134749040Y-102586944D01*
X134773550Y-102544489D01*
X134793571Y-102518397D01*
X144743157Y-92568811D01*
X144748683Y-92563610D01*
X144794215Y-92523273D01*
X144828774Y-92473204D01*
X144833256Y-92467113D01*
X144870775Y-92419225D01*
X144874956Y-92409934D01*
X144886163Y-92390064D01*
X144891955Y-92381673D01*
X144913516Y-92324818D01*
X144916418Y-92317809D01*
X144941389Y-92262329D01*
X144943228Y-92252290D01*
X144949350Y-92230332D01*
X144952965Y-92220801D01*
X144960299Y-92160396D01*
X144961433Y-92152945D01*
X144972402Y-92093092D01*
X144969795Y-92049999D01*
X144968730Y-92032384D01*
X144968500Y-92024776D01*
X144968500Y-73169229D01*
X144988502Y-73101108D01*
X144998182Y-73088430D01*
X145094527Y-72921556D01*
X145094526Y-72921556D01*
X145153542Y-72739928D01*
X145173504Y-72550000D01*
X145153542Y-72360072D01*
X145094527Y-72178444D01*
X145094527Y-72178443D01*
X144999041Y-72013057D01*
X144871252Y-71871133D01*
X144716753Y-71758883D01*
X144716752Y-71758882D01*
X144542288Y-71681206D01*
X144355487Y-71641500D01*
X144164513Y-71641500D01*
X144039978Y-71667970D01*
X143977711Y-71681206D01*
X143803246Y-71758883D01*
X143648747Y-71871133D01*
X143520958Y-72013057D01*
X143425472Y-72178443D01*
X143366458Y-72360070D01*
X143346496Y-72549999D01*
X143366458Y-72739929D01*
X143425472Y-72921556D01*
X143527581Y-73098413D01*
X143526039Y-73099303D01*
X143549853Y-73148922D01*
X143551500Y-73169229D01*
X143551500Y-91704339D01*
X143531498Y-91772460D01*
X143514595Y-91793434D01*
X138838026Y-96470002D01*
X138775714Y-96504028D01*
X138704899Y-96498963D01*
X138648063Y-96456416D01*
X138629098Y-96419843D01*
X138594527Y-96313443D01*
X138499041Y-96148057D01*
X138371252Y-96006133D01*
X138244201Y-95913825D01*
X138216752Y-95893882D01*
X138042288Y-95816206D01*
X137855487Y-95776500D01*
X137855485Y-95776500D01*
X137790660Y-95776500D01*
X137722539Y-95756498D01*
X137701565Y-95739595D01*
X134944664Y-92982694D01*
X134910638Y-92920382D01*
X134908449Y-92906767D01*
X134903542Y-92860071D01*
X134844526Y-92678442D01*
X134749041Y-92513057D01*
X134621252Y-92371133D01*
X134466753Y-92258883D01*
X134466752Y-92258882D01*
X134292288Y-92181206D01*
X134105487Y-92141500D01*
X133914513Y-92141500D01*
X133914512Y-92141500D01*
X133870695Y-92150813D01*
X133799904Y-92145410D01*
X133743272Y-92102593D01*
X133718780Y-92035955D01*
X133718500Y-92027566D01*
X133718500Y-90669229D01*
X133738502Y-90601108D01*
X133748182Y-90588430D01*
X133844527Y-90421556D01*
X133903542Y-90239928D01*
X133923504Y-90050000D01*
X133903542Y-89860072D01*
X133853871Y-89707202D01*
X133844527Y-89678443D01*
X133749041Y-89513057D01*
X133637820Y-89389534D01*
X133621253Y-89371134D01*
X133466752Y-89258882D01*
X133292288Y-89181206D01*
X133292284Y-89181204D01*
X133200681Y-89161733D01*
X133138208Y-89128005D01*
X133103887Y-89065855D01*
X133100879Y-89038487D01*
X133100880Y-84800000D01*
X135096496Y-84800000D01*
X135116458Y-84989929D01*
X135175472Y-85171556D01*
X135270958Y-85336942D01*
X135270960Y-85336944D01*
X135398747Y-85478866D01*
X135553248Y-85591118D01*
X135727712Y-85668794D01*
X135914513Y-85708500D01*
X135914515Y-85708500D01*
X136105485Y-85708500D01*
X136105487Y-85708500D01*
X136292288Y-85668794D01*
X136466752Y-85591118D01*
X136547344Y-85532563D01*
X136614212Y-85508706D01*
X136621405Y-85508500D01*
X137648595Y-85508500D01*
X137716716Y-85528502D01*
X137722655Y-85532563D01*
X137803248Y-85591118D01*
X137977712Y-85668794D01*
X138164513Y-85708500D01*
X138164515Y-85708500D01*
X138355485Y-85708500D01*
X138355487Y-85708500D01*
X138542288Y-85668794D01*
X138716752Y-85591118D01*
X138871253Y-85478866D01*
X138999040Y-85336944D01*
X139094527Y-85171556D01*
X139153542Y-84989928D01*
X139173504Y-84800000D01*
X139153542Y-84610072D01*
X139094527Y-84428444D01*
X139094527Y-84428443D01*
X138999041Y-84263057D01*
X138871252Y-84121133D01*
X138716753Y-84008883D01*
X138716752Y-84008882D01*
X138542288Y-83931206D01*
X138355487Y-83891500D01*
X138164513Y-83891500D01*
X138039979Y-83917970D01*
X137977711Y-83931206D01*
X137803246Y-84008883D01*
X137722656Y-84067436D01*
X137655788Y-84091294D01*
X137648595Y-84091500D01*
X136621405Y-84091500D01*
X136553284Y-84071498D01*
X136547344Y-84067436D01*
X136466753Y-84008883D01*
X136466752Y-84008882D01*
X136292288Y-83931206D01*
X136105487Y-83891500D01*
X135914513Y-83891500D01*
X135789978Y-83917970D01*
X135727711Y-83931206D01*
X135553246Y-84008883D01*
X135398747Y-84121133D01*
X135270958Y-84263057D01*
X135175472Y-84428443D01*
X135116458Y-84610070D01*
X135096496Y-84800000D01*
X133100880Y-84800000D01*
X133100880Y-81734500D01*
X133120882Y-81666379D01*
X133174538Y-81619886D01*
X133226880Y-81608500D01*
X134537649Y-81608500D01*
X134541018Y-81608500D01*
X134601581Y-81601989D01*
X134738584Y-81550889D01*
X134855641Y-81463261D01*
X134943269Y-81346204D01*
X134994369Y-81209201D01*
X135000880Y-81148638D01*
X135000880Y-79451362D01*
X134994369Y-79390799D01*
X134943269Y-79253796D01*
X134875235Y-79162913D01*
X134855641Y-79136738D01*
X134738585Y-79049111D01*
X134670082Y-79023561D01*
X134601581Y-78998011D01*
X134541018Y-78991500D01*
X134537649Y-78991500D01*
X133226880Y-78991500D01*
X133158759Y-78971498D01*
X133112266Y-78917842D01*
X133100880Y-78865500D01*
X133100880Y-68498638D01*
X156551500Y-68498638D01*
X156558011Y-68559201D01*
X156569431Y-68589818D01*
X156609111Y-68696205D01*
X156696738Y-68813261D01*
X156813794Y-68900888D01*
X156813795Y-68900888D01*
X156813796Y-68900889D01*
X156950799Y-68951989D01*
X157011362Y-68958500D01*
X157014731Y-68958500D01*
X158905269Y-68958500D01*
X158908638Y-68958500D01*
X158969201Y-68951989D01*
X159106204Y-68900889D01*
X159223261Y-68813261D01*
X159283202Y-68733190D01*
X159310889Y-68696205D01*
X159324827Y-68658835D01*
X159367373Y-68601999D01*
X159433893Y-68577187D01*
X159503267Y-68592278D01*
X159520272Y-68603432D01*
X159686983Y-68733190D01*
X159892273Y-68844287D01*
X160113049Y-68920080D01*
X160343288Y-68958500D01*
X160343291Y-68958500D01*
X160576709Y-68958500D01*
X160576712Y-68958500D01*
X160806951Y-68920080D01*
X161027727Y-68844287D01*
X161233017Y-68733190D01*
X161417220Y-68589818D01*
X161575314Y-68418083D01*
X161604518Y-68373381D01*
X161658518Y-68327296D01*
X161728866Y-68317720D01*
X161793223Y-68347696D01*
X161815481Y-68373382D01*
X161832949Y-68400118D01*
X161844686Y-68418083D01*
X162002780Y-68589818D01*
X162186983Y-68733190D01*
X162392273Y-68844287D01*
X162613049Y-68920080D01*
X162843288Y-68958500D01*
X162843291Y-68958500D01*
X163076709Y-68958500D01*
X163076712Y-68958500D01*
X163306951Y-68920080D01*
X163527727Y-68844287D01*
X163733017Y-68733190D01*
X163917220Y-68589818D01*
X164075314Y-68418083D01*
X164202984Y-68222669D01*
X164296749Y-68008907D01*
X164354051Y-67782626D01*
X164373327Y-67550000D01*
X164354051Y-67317374D01*
X164296749Y-67091093D01*
X164202984Y-66877331D01*
X164075314Y-66681917D01*
X163917220Y-66510182D01*
X163733017Y-66366810D01*
X163664499Y-66329730D01*
X163527726Y-66255712D01*
X163362852Y-66199111D01*
X163306951Y-66179920D01*
X163076712Y-66141500D01*
X162843288Y-66141500D01*
X162613049Y-66179920D01*
X162613046Y-66179920D01*
X162613046Y-66179921D01*
X162392273Y-66255712D01*
X162186984Y-66366809D01*
X162002779Y-66510182D01*
X161844683Y-66681920D01*
X161815482Y-66726616D01*
X161761479Y-66772704D01*
X161691131Y-66782279D01*
X161626774Y-66752301D01*
X161604518Y-66726616D01*
X161575316Y-66681920D01*
X161575315Y-66681919D01*
X161575314Y-66681917D01*
X161417220Y-66510182D01*
X161233017Y-66366810D01*
X161164499Y-66329730D01*
X161027726Y-66255712D01*
X160862852Y-66199111D01*
X160806951Y-66179920D01*
X160576712Y-66141500D01*
X160343288Y-66141500D01*
X160113049Y-66179920D01*
X160113046Y-66179920D01*
X160113046Y-66179921D01*
X159892273Y-66255712D01*
X159686984Y-66366809D01*
X159520274Y-66496565D01*
X159454231Y-66522621D01*
X159384586Y-66508835D01*
X159333449Y-66459585D01*
X159324827Y-66441165D01*
X159310888Y-66403794D01*
X159223261Y-66286738D01*
X159106205Y-66199111D01*
X159017873Y-66166165D01*
X158969201Y-66148011D01*
X158908638Y-66141500D01*
X157011362Y-66141500D01*
X157008013Y-66141859D01*
X157008013Y-66141860D01*
X156950799Y-66148011D01*
X156813794Y-66199111D01*
X156696738Y-66286738D01*
X156609111Y-66403794D01*
X156574085Y-66497704D01*
X156558011Y-66540799D01*
X156551500Y-66601362D01*
X156551500Y-68498638D01*
X133100880Y-68498638D01*
X133100880Y-58839274D01*
X133120882Y-58771153D01*
X133174538Y-58724660D01*
X133244812Y-58714556D01*
X133309392Y-58744050D01*
X133332363Y-58770358D01*
X133434678Y-58926962D01*
X133587096Y-59092533D01*
X133764697Y-59230766D01*
X133962631Y-59337883D01*
X134175485Y-59410955D01*
X134256000Y-59424391D01*
X134256000Y-58523674D01*
X134367685Y-58574680D01*
X134474237Y-58590000D01*
X134545763Y-58590000D01*
X134652315Y-58574680D01*
X134764000Y-58523674D01*
X134764000Y-59424390D01*
X134844514Y-59410955D01*
X135057368Y-59337883D01*
X135255302Y-59230766D01*
X135432903Y-59092533D01*
X135585321Y-58926962D01*
X135708419Y-58738548D01*
X135798822Y-58532451D01*
X135846544Y-58344000D01*
X134941116Y-58344000D01*
X134969493Y-58299844D01*
X135010000Y-58161889D01*
X135010000Y-58018111D01*
X134969493Y-57880156D01*
X134941116Y-57836000D01*
X135846544Y-57836000D01*
X135846544Y-57835999D01*
X135798822Y-57647548D01*
X135708419Y-57441451D01*
X135585321Y-57253037D01*
X135442018Y-57097367D01*
X135410597Y-57033702D01*
X135418584Y-56963156D01*
X135463443Y-56908127D01*
X135490679Y-56893977D01*
X135606204Y-56850889D01*
X135723261Y-56763261D01*
X135810889Y-56646204D01*
X135861989Y-56509201D01*
X135868500Y-56448638D01*
X135868500Y-54651362D01*
X135861989Y-54590799D01*
X135810889Y-54453796D01*
X135810888Y-54453794D01*
X135723261Y-54336738D01*
X135606205Y-54249111D01*
X135537702Y-54223561D01*
X135469201Y-54198011D01*
X135408638Y-54191500D01*
X133611362Y-54191500D01*
X133608013Y-54191859D01*
X133608013Y-54191860D01*
X133550799Y-54198011D01*
X133413794Y-54249111D01*
X133296738Y-54336738D01*
X133209111Y-54453794D01*
X133158011Y-54590799D01*
X133151500Y-54651362D01*
X133151500Y-54654730D01*
X133151500Y-55854339D01*
X133131498Y-55922460D01*
X133114595Y-55943434D01*
X131909236Y-57148792D01*
X131903697Y-57154008D01*
X131858162Y-57194349D01*
X131823618Y-57244393D01*
X131819111Y-57250518D01*
X131781604Y-57298394D01*
X131777416Y-57307698D01*
X131766223Y-57327543D01*
X131760428Y-57335939D01*
X131738862Y-57392803D01*
X131735950Y-57399831D01*
X131710991Y-57455288D01*
X131709151Y-57465330D01*
X131703031Y-57487282D01*
X131699415Y-57496817D01*
X131692085Y-57557174D01*
X131690941Y-57564691D01*
X131679977Y-57624526D01*
X131683650Y-57685228D01*
X131683880Y-57692837D01*
X131683880Y-58554138D01*
X131663878Y-58622259D01*
X131610222Y-58668752D01*
X131539948Y-58678856D01*
X131475368Y-58649362D01*
X131448002Y-58615805D01*
X131372492Y-58481261D01*
X131205329Y-58264780D01*
X131008428Y-58074942D01*
X130928992Y-58018111D01*
X130785981Y-57915795D01*
X130542734Y-57790733D01*
X130542733Y-57790732D01*
X130542730Y-57790731D01*
X130283871Y-57702421D01*
X130014908Y-57652741D01*
X129741574Y-57642751D01*
X129469706Y-57672665D01*
X129205084Y-57741847D01*
X128953358Y-57848818D01*
X128719884Y-57991305D01*
X128509652Y-58166262D01*
X128327136Y-58369962D01*
X128176213Y-58598083D01*
X128060125Y-58845722D01*
X127981322Y-59107649D01*
X127941500Y-59378241D01*
X127941500Y-59378243D01*
X127941500Y-60103288D01*
X127941666Y-60105558D01*
X127941667Y-60105581D01*
X127956466Y-60307781D01*
X128015938Y-60574756D01*
X128113644Y-60830219D01*
X128247507Y-61068738D01*
X128414670Y-61285219D01*
X128611571Y-61475057D01*
X128611574Y-61475059D01*
X128834019Y-61634205D01*
X129077266Y-61759267D01*
X129336130Y-61847579D01*
X129605093Y-61897259D01*
X129878424Y-61907248D01*
X129878424Y-61907247D01*
X129878425Y-61907248D01*
X129946391Y-61899769D01*
X130150296Y-61877334D01*
X130414916Y-61808153D01*
X130666643Y-61701181D01*
X130900112Y-61558697D01*
X131110347Y-61383738D01*
X131292867Y-61180033D01*
X131443783Y-60951923D01*
X131443789Y-60951908D01*
X131443796Y-60951901D01*
X131448871Y-60944231D01*
X131449947Y-60944942D01*
X131490806Y-60898717D01*
X131559121Y-60879387D01*
X131627041Y-60900060D01*
X131673003Y-60954171D01*
X131683879Y-61005381D01*
X131683880Y-78913349D01*
X131663878Y-78981470D01*
X131610222Y-79027963D01*
X131539948Y-79038067D01*
X131525269Y-79035056D01*
X131420379Y-79006951D01*
X131192380Y-78987004D01*
X130964380Y-79006951D01*
X130743309Y-79066186D01*
X130535879Y-79162913D01*
X130464489Y-79212899D01*
X131152863Y-79901272D01*
X131067232Y-79914835D01*
X130954335Y-79972359D01*
X130864739Y-80061955D01*
X130807215Y-80174852D01*
X130793652Y-80260481D01*
X130105280Y-79572109D01*
X130055293Y-79643499D01*
X129958566Y-79850929D01*
X129899331Y-80072000D01*
X129879384Y-80300000D01*
X129899331Y-80527999D01*
X129958566Y-80749070D01*
X130055292Y-80956497D01*
X130105279Y-81027887D01*
X130793652Y-80339515D01*
X130807215Y-80425148D01*
X130864739Y-80538045D01*
X130954335Y-80627641D01*
X131067232Y-80685165D01*
X131152860Y-80698726D01*
X130464490Y-81387097D01*
X130464490Y-81387100D01*
X130535877Y-81437085D01*
X130743309Y-81533813D01*
X130964380Y-81593048D01*
X131192380Y-81612995D01*
X131420383Y-81593048D01*
X131525268Y-81564944D01*
X131596245Y-81566633D01*
X131655041Y-81606426D01*
X131682989Y-81671691D01*
X131683880Y-81686650D01*
X131683879Y-89407161D01*
X131683649Y-89414768D01*
X131679977Y-89475472D01*
X131690939Y-89535290D01*
X131692084Y-89542812D01*
X131699415Y-89603181D01*
X131703029Y-89612712D01*
X131709150Y-89634669D01*
X131710990Y-89644709D01*
X131735952Y-89700174D01*
X131738863Y-89707202D01*
X131760425Y-89764053D01*
X131766219Y-89772448D01*
X131777416Y-89792302D01*
X131781603Y-89801604D01*
X131819105Y-89849472D01*
X131823615Y-89855600D01*
X131858165Y-89905653D01*
X131903696Y-89945990D01*
X131909237Y-89951207D01*
X132075335Y-90117305D01*
X132109361Y-90179617D01*
X132111550Y-90193228D01*
X132116458Y-90239929D01*
X132175472Y-90421556D01*
X132277581Y-90598413D01*
X132276039Y-90599303D01*
X132299853Y-90648922D01*
X132301500Y-90669229D01*
X132301499Y-93781640D01*
X132281497Y-93849761D01*
X132227841Y-93896254D01*
X132157567Y-93906357D01*
X132099990Y-93882508D01*
X131988585Y-93799111D01*
X131920082Y-93773561D01*
X131851581Y-93748011D01*
X131791018Y-93741500D01*
X130093742Y-93741500D01*
X130090393Y-93741859D01*
X130090393Y-93741860D01*
X130033179Y-93748011D01*
X129896174Y-93799111D01*
X129779118Y-93886738D01*
X129691491Y-94003794D01*
X129685826Y-94018983D01*
X129640391Y-94140799D01*
X129633909Y-94201083D01*
X129633909Y-94201086D01*
X129633883Y-94201324D01*
X129633880Y-94201359D01*
X129633900Y-94201113D01*
X129610476Y-94267485D01*
X129554402Y-94311031D01*
X129538213Y-94313374D01*
X128841106Y-95010480D01*
X128827545Y-94924852D01*
X128770021Y-94811955D01*
X128680425Y-94722359D01*
X128567528Y-94664835D01*
X128481895Y-94651272D01*
X129170268Y-93962899D01*
X129098877Y-93912912D01*
X128891450Y-93816186D01*
X128670379Y-93756951D01*
X128442379Y-93737004D01*
X128214380Y-93756951D01*
X127993309Y-93816186D01*
X127785879Y-93912913D01*
X127714489Y-93962899D01*
X128402862Y-94651272D01*
X128317232Y-94664835D01*
X128204335Y-94722359D01*
X128114739Y-94811955D01*
X128057215Y-94924852D01*
X128043652Y-95010481D01*
X127355280Y-94322109D01*
X127305293Y-94393499D01*
X127208566Y-94600929D01*
X127149331Y-94822000D01*
X127129384Y-95050000D01*
X115098909Y-95050000D01*
X115095567Y-89617621D01*
X125696502Y-89617621D01*
X125716457Y-89845708D01*
X125775715Y-90066864D01*
X125872477Y-90274371D01*
X126003804Y-90461924D01*
X126165696Y-90623816D01*
X126353249Y-90755143D01*
X126560756Y-90851905D01*
X126620014Y-90867783D01*
X126781913Y-90911164D01*
X127010000Y-90931119D01*
X127238087Y-90911164D01*
X127459243Y-90851905D01*
X127666749Y-90755144D01*
X127854300Y-90623819D01*
X128016198Y-90461921D01*
X128147523Y-90274370D01*
X128244284Y-90066864D01*
X128303543Y-89845708D01*
X128323498Y-89617621D01*
X128303543Y-89389534D01*
X128244284Y-89168378D01*
X128241185Y-89161733D01*
X128147522Y-88960870D01*
X128016195Y-88773317D01*
X127870860Y-88627982D01*
X127836834Y-88565670D01*
X127841899Y-88494855D01*
X127884446Y-88438019D01*
X127915923Y-88420831D01*
X127919194Y-88419610D01*
X127919201Y-88419610D01*
X128056204Y-88368510D01*
X128173261Y-88280882D01*
X128260889Y-88163825D01*
X128311989Y-88026822D01*
X128318500Y-87966259D01*
X128318500Y-86268983D01*
X128311989Y-86208420D01*
X128260889Y-86071417D01*
X128260888Y-86071415D01*
X128173261Y-85954359D01*
X128056205Y-85866732D01*
X127987702Y-85841181D01*
X127919201Y-85815632D01*
X127858638Y-85809121D01*
X126161362Y-85809121D01*
X126158013Y-85809480D01*
X126158013Y-85809481D01*
X126100799Y-85815632D01*
X125963794Y-85866732D01*
X125846738Y-85954359D01*
X125759111Y-86071415D01*
X125708011Y-86208420D01*
X125701500Y-86268983D01*
X125701500Y-87966259D01*
X125701860Y-87969607D01*
X125708011Y-88026821D01*
X125759111Y-88163826D01*
X125846738Y-88280882D01*
X125963794Y-88368509D01*
X125963795Y-88368509D01*
X125963796Y-88368510D01*
X126100799Y-88419610D01*
X126100803Y-88419610D01*
X126104076Y-88420831D01*
X126160912Y-88463377D01*
X126185723Y-88529898D01*
X126170632Y-88599272D01*
X126149140Y-88627982D01*
X126003802Y-88773320D01*
X125872477Y-88960870D01*
X125775715Y-89168377D01*
X125716457Y-89389533D01*
X125696502Y-89617621D01*
X115095567Y-89617621D01*
X115082405Y-68223638D01*
X121101500Y-68223638D01*
X121108011Y-68284201D01*
X121119431Y-68314818D01*
X121159111Y-68421205D01*
X121246738Y-68538261D01*
X121363794Y-68625888D01*
X121363795Y-68625888D01*
X121363796Y-68625889D01*
X121500799Y-68676989D01*
X121561362Y-68683500D01*
X121564731Y-68683500D01*
X123455269Y-68683500D01*
X123458638Y-68683500D01*
X123519201Y-68676989D01*
X123656204Y-68625889D01*
X123773261Y-68538261D01*
X123800416Y-68501986D01*
X123860889Y-68421205D01*
X123874827Y-68383835D01*
X123917373Y-68326999D01*
X123983893Y-68302187D01*
X124053267Y-68317278D01*
X124070272Y-68328432D01*
X124236983Y-68458190D01*
X124442273Y-68569287D01*
X124663049Y-68645080D01*
X124893288Y-68683500D01*
X124893291Y-68683500D01*
X125126709Y-68683500D01*
X125126712Y-68683500D01*
X125356951Y-68645080D01*
X125577727Y-68569287D01*
X125783017Y-68458190D01*
X125967220Y-68314818D01*
X126125314Y-68143083D01*
X126154518Y-68098381D01*
X126208518Y-68052296D01*
X126278866Y-68042720D01*
X126343223Y-68072696D01*
X126365481Y-68098382D01*
X126394686Y-68143083D01*
X126552780Y-68314818D01*
X126736983Y-68458190D01*
X126942273Y-68569287D01*
X127163049Y-68645080D01*
X127393288Y-68683500D01*
X127393291Y-68683500D01*
X127626709Y-68683500D01*
X127626712Y-68683500D01*
X127856951Y-68645080D01*
X128077727Y-68569287D01*
X128283017Y-68458190D01*
X128467220Y-68314818D01*
X128625314Y-68143083D01*
X128752984Y-67947669D01*
X128846749Y-67733907D01*
X128904051Y-67507626D01*
X128923327Y-67275000D01*
X128904051Y-67042374D01*
X128846749Y-66816093D01*
X128752984Y-66602331D01*
X128625314Y-66406917D01*
X128467220Y-66235182D01*
X128283017Y-66091810D01*
X128251779Y-66074904D01*
X128077726Y-65980712D01*
X127912852Y-65924111D01*
X127856951Y-65904920D01*
X127626712Y-65866500D01*
X127393288Y-65866500D01*
X127163049Y-65904920D01*
X127163046Y-65904920D01*
X127163046Y-65904921D01*
X126942273Y-65980712D01*
X126736984Y-66091809D01*
X126552779Y-66235182D01*
X126394683Y-66406920D01*
X126365482Y-66451616D01*
X126311479Y-66497704D01*
X126241131Y-66507279D01*
X126176774Y-66477301D01*
X126154518Y-66451616D01*
X126125316Y-66406920D01*
X126125315Y-66406919D01*
X126125314Y-66406917D01*
X125967220Y-66235182D01*
X125783017Y-66091810D01*
X125751779Y-66074904D01*
X125577726Y-65980712D01*
X125412852Y-65924111D01*
X125356951Y-65904920D01*
X125126712Y-65866500D01*
X124893288Y-65866500D01*
X124663049Y-65904920D01*
X124663046Y-65904920D01*
X124663046Y-65904921D01*
X124442273Y-65980712D01*
X124236984Y-66091809D01*
X124070274Y-66221565D01*
X124004231Y-66247621D01*
X123934586Y-66233835D01*
X123883449Y-66184585D01*
X123874827Y-66166165D01*
X123868056Y-66148011D01*
X123860889Y-66128796D01*
X123833201Y-66091809D01*
X123773261Y-66011738D01*
X123656205Y-65924111D01*
X123587702Y-65898560D01*
X123519201Y-65873011D01*
X123458638Y-65866500D01*
X121561362Y-65866500D01*
X121558013Y-65866859D01*
X121558013Y-65866860D01*
X121500799Y-65873011D01*
X121363794Y-65924111D01*
X121246738Y-66011738D01*
X121159111Y-66128794D01*
X121119933Y-66233835D01*
X121108011Y-66265799D01*
X121101500Y-66326362D01*
X121101500Y-68223638D01*
X115082405Y-68223638D01*
X115077409Y-60103288D01*
X118341500Y-60103288D01*
X118341666Y-60105558D01*
X118341667Y-60105581D01*
X118356466Y-60307781D01*
X118415938Y-60574756D01*
X118513644Y-60830219D01*
X118647507Y-61068738D01*
X118814670Y-61285219D01*
X119011571Y-61475057D01*
X119011574Y-61475059D01*
X119234019Y-61634205D01*
X119477266Y-61759267D01*
X119736130Y-61847579D01*
X120005093Y-61897259D01*
X120278424Y-61907248D01*
X120278424Y-61907247D01*
X120278425Y-61907248D01*
X120346391Y-61899769D01*
X120550296Y-61877334D01*
X120814916Y-61808153D01*
X121066643Y-61701181D01*
X121300112Y-61558697D01*
X121510347Y-61383738D01*
X121692867Y-61180033D01*
X121843783Y-60951923D01*
X121959877Y-60704271D01*
X122038676Y-60442355D01*
X122047768Y-60380581D01*
X122078500Y-60171758D01*
X122078500Y-59449012D01*
X122078500Y-59446712D01*
X122063533Y-59242217D01*
X122004063Y-58975247D01*
X121920309Y-58756264D01*
X121906355Y-58719780D01*
X121772492Y-58481261D01*
X121605329Y-58264780D01*
X121408428Y-58074942D01*
X121328992Y-58018111D01*
X121185981Y-57915795D01*
X120942734Y-57790733D01*
X120942733Y-57790732D01*
X120942730Y-57790731D01*
X120683871Y-57702421D01*
X120414908Y-57652741D01*
X120141574Y-57642751D01*
X119869706Y-57672665D01*
X119605084Y-57741847D01*
X119353358Y-57848818D01*
X119119884Y-57991305D01*
X118909652Y-58166262D01*
X118727136Y-58369962D01*
X118576213Y-58598083D01*
X118460125Y-58845722D01*
X118381322Y-59107649D01*
X118341500Y-59378241D01*
X118341500Y-59378243D01*
X118341500Y-60103288D01*
X115077409Y-60103288D01*
X115075551Y-57083487D01*
X115095511Y-57015354D01*
X115112451Y-56994320D01*
X119994367Y-52112405D01*
X120056680Y-52078379D01*
X120083463Y-52075500D01*
X136548500Y-52075500D01*
X136616621Y-52095502D01*
G37*
%TD.AperFunction*%
%TD*%
M02*
