M48
; DRILL file {KiCad 7.0.2-6a45011f42~172~ubuntu22.04.1} date Mon 29 May 2023 17:51:51 BST
; FORMAT={-:-/ absolute / inch / decimal}
; #@! TF.CreationDate,2023-05-29T17:51:51+01:00
; #@! TF.GenerationSoftware,Kicad,Pcbnew,7.0.2-6a45011f42~172~ubuntu22.04.1
; #@! TF.FileFunction,Plated,1,2,PTH
FMAT,2
INCH
; #@! TA.AperFunction,Plated,PTH,ViaDrill
T1C0.0157
; #@! TA.AperFunction,Plated,PTH,ComponentDrill
T2C0.0315
; #@! TA.AperFunction,Plated,PTH,ComponentDrill
T3C0.0394
; #@! TA.AperFunction,Plated,PTH,ComponentDrill
T4C0.0394
; #@! TA.AperFunction,Plated,PTH,ComponentDrill
T5C0.0433
; #@! TA.AperFunction,Plated,PTH,ComponentDrill
T6C0.0551
%
G90
G05
T1
X5.2366Y-3.5453
X5.2366Y-3.9488
X5.276Y-3.6634
X5.276Y-4.0177
X5.3547Y-3.3386
X5.4236Y-3.8065
X5.4433Y-3.3386
X5.5417Y-3.6535
X5.5811Y-3.8602
X5.5909Y-3.4469
X5.6795Y-2.8563
X5.7484Y-3.7028
X5.8469Y-3.624
X6.0142Y-3.4961
X6.5358Y-5.3169
T2
X5.0004Y-3.4298
X5.0004Y-3.5283
X5.0568Y-3.7421
X5.1552Y-3.7421
X5.1651Y-3.1614
X5.2635Y-3.1614
X6.2406Y-3.7323
X6.2406Y-3.8307
X6.378Y-5.5197
X6.378Y-5.6181
X6.5161Y-3.7349
X6.5161Y-3.8334
T3
X4.8232Y-2.6486
X4.9217Y-2.6486
X5.0201Y-2.6486
X5.2957Y-2.187
X5.2957Y-2.287
X5.4756Y-4.1654
X5.4756Y-4.3839
X5.5756Y-4.1654
X5.5756Y-4.3839
X5.5811Y-4.5492
X5.6756Y-4.1654
X5.6756Y-4.3839
X5.6811Y-4.5492
X5.7756Y-4.1654
X5.7756Y-4.3839
X6.2189Y-2.6594
X6.3173Y-2.6594
X6.4157Y-2.6594
T4
X4.8228Y-5.315
X4.8228Y-5.415
T6
X4.8154Y-4.5098
X4.8154Y-5.1488
X5.0654Y-4.5098
X5.0654Y-5.1488
X5.3154Y-4.5098
X5.3154Y-5.1488
X5.9276Y-4.5098
X5.9276Y-5.1488
X6.1776Y-4.5098
X6.1776Y-5.1488
X6.4276Y-4.5098
X6.4276Y-5.1488
T3
G00X5.4528Y-5.4262
M15
G01X5.4094Y-5.4262
M16
G05
G00X5.4528Y-5.6112
M15
G01X5.4094Y-5.6112
M16
G05
G00X5.4528Y-5.7963
M15
G01X5.4094Y-5.7963
M16
G05
G00X5.6614Y-5.4262
M15
G01X5.6181Y-5.4262
M16
G05
G00X5.6614Y-5.6122
M15
G01X5.6181Y-5.6122
M16
G05
G00X5.6614Y-5.7963
M15
G01X5.6181Y-5.7963
M16
G05
G00X5.8701Y-5.4262
M15
G01X5.8268Y-5.4262
M16
G05
G00X5.8701Y-5.6112
M15
G01X5.8268Y-5.6112
M16
G05
G00X5.8701Y-5.7963
M15
G01X5.8268Y-5.7963
M16
G05
T5
G00X4.7327Y-2.3671
M15
G01X4.7327Y-2.3396
M16
G05
G00X5.1106Y-2.3671
M15
G01X5.1106Y-2.3396
M16
G05
G00X6.1283Y-2.378
M15
G01X6.1283Y-2.3504
M16
G05
G00X6.5063Y-2.378
M15
G01X6.5063Y-2.3504
M16
G05
T0
M30
