%TF.GenerationSoftware,KiCad,Pcbnew,7.0.2-6a45011f42~172~ubuntu22.04.1*%
%TF.CreationDate,2023-05-29T17:51:51+01:00*%
%TF.ProjectId,little-angel-v3-SMD,6c697474-6c65-42d6-916e-67656c2d7633,rev?*%
%TF.SameCoordinates,Original*%
%TF.FileFunction,Soldermask,Top*%
%TF.FilePolarity,Negative*%
%FSLAX46Y46*%
G04 Gerber Fmt 4.6, Leading zero omitted, Abs format (unit mm)*
G04 Created by KiCad (PCBNEW 7.0.2-6a45011f42~172~ubuntu22.04.1) date 2023-05-29 17:51:51*
%MOMM*%
%LPD*%
G01*
G04 APERTURE LIST*
G04 Aperture macros list*
%AMRoundRect*
0 Rectangle with rounded corners*
0 $1 Rounding radius*
0 $2 $3 $4 $5 $6 $7 $8 $9 X,Y pos of 4 corners*
0 Add a 4 corners polygon primitive as box body*
4,1,4,$2,$3,$4,$5,$6,$7,$8,$9,$2,$3,0*
0 Add four circle primitives for the rounded corners*
1,1,$1+$1,$2,$3*
1,1,$1+$1,$4,$5*
1,1,$1+$1,$6,$7*
1,1,$1+$1,$8,$9*
0 Add four rect primitives between the rounded corners*
20,1,$1+$1,$2,$3,$4,$5,0*
20,1,$1+$1,$4,$5,$6,$7,0*
20,1,$1+$1,$6,$7,$8,$9,0*
20,1,$1+$1,$8,$9,$2,$3,0*%
%AMFreePoly0*
4,1,33,3.949277,1.046694,4.018866,0.991198,4.057486,0.911004,4.062500,0.866500,4.062500,-0.866500,4.042694,-0.953277,3.987198,-1.022866,3.907004,-1.061486,3.862500,-1.066500,0.737500,-1.066500,0.650723,-1.046694,0.581134,-0.991198,0.542514,-0.911004,0.537500,-0.866500,0.537500,-0.650000,-0.737500,-0.650000,-0.824277,-0.630194,-0.893866,-0.574698,-0.932486,-0.494504,-0.937500,-0.450000,
-0.937500,0.450000,-0.917694,0.536777,-0.862198,0.606366,-0.782004,0.644986,-0.737500,0.650000,0.537500,0.650000,0.537500,0.866500,0.557306,0.953277,0.612802,1.022866,0.692996,1.061486,0.737500,1.066500,3.862500,1.066500,3.949277,1.046694,3.949277,1.046694,$1*%
G04 Aperture macros list end*
%ADD10RoundRect,0.350000X0.150000X-0.825000X0.150000X0.825000X-0.150000X0.825000X-0.150000X-0.825000X0*%
%ADD11RoundRect,0.200000X1.300000X0.750000X-1.300000X0.750000X-1.300000X-0.750000X1.300000X-0.750000X0*%
%ADD12O,3.000000X1.900000*%
%ADD13RoundRect,0.200000X-0.850000X0.850000X-0.850000X-0.850000X0.850000X-0.850000X0.850000X0.850000X0*%
%ADD14O,2.100000X2.100000*%
%ADD15C,3.400000*%
%ADD16RoundRect,0.200000X-0.800000X0.800000X-0.800000X-0.800000X0.800000X-0.800000X0.800000X0.800000X0*%
%ADD17C,2.000000*%
%ADD18RoundRect,0.200000X1.000000X0.950000X-1.000000X0.950000X-1.000000X-0.950000X1.000000X-0.950000X0*%
%ADD19C,2.300000*%
%ADD20RoundRect,0.450000X-0.450000X0.350000X-0.450000X-0.350000X0.450000X-0.350000X0.450000X0.350000X0*%
%ADD21RoundRect,0.450000X0.450000X-0.350000X0.450000X0.350000X-0.450000X0.350000X-0.450000X-0.350000X0*%
%ADD22RoundRect,0.450000X-0.337500X-0.475000X0.337500X-0.475000X0.337500X0.475000X-0.337500X0.475000X0*%
%ADD23RoundRect,0.200000X-0.850000X-0.850000X0.850000X-0.850000X0.850000X0.850000X-0.850000X0.850000X0*%
%ADD24RoundRect,0.450000X0.350000X0.450000X-0.350000X0.450000X-0.350000X-0.450000X0.350000X-0.450000X0*%
%ADD25O,3.120000X3.640000*%
%ADD26RoundRect,0.200000X0.900000X0.900000X-0.900000X0.900000X-0.900000X-0.900000X0.900000X-0.900000X0*%
%ADD27C,2.200000*%
%ADD28RoundRect,0.200000X0.800000X0.800000X-0.800000X0.800000X-0.800000X-0.800000X0.800000X-0.800000X0*%
%ADD29RoundRect,0.450000X0.337500X0.475000X-0.337500X0.475000X-0.337500X-0.475000X0.337500X-0.475000X0*%
%ADD30RoundRect,0.350000X0.587500X0.150000X-0.587500X0.150000X-0.587500X-0.150000X0.587500X-0.150000X0*%
%ADD31RoundRect,0.450000X0.475000X-0.337500X0.475000X0.337500X-0.475000X0.337500X-0.475000X-0.337500X0*%
%ADD32RoundRect,0.450000X-0.475000X0.337500X-0.475000X-0.337500X0.475000X-0.337500X0.475000X0.337500X0*%
%ADD33RoundRect,0.200000X-0.450000X0.650000X-0.450000X-0.650000X0.450000X-0.650000X0.450000X0.650000X0*%
%ADD34FreePoly0,270.000000*%
%ADD35RoundRect,0.350000X0.650000X0.150000X-0.650000X0.150000X-0.650000X-0.150000X0.650000X-0.150000X0*%
%ADD36RoundRect,0.450000X-0.350000X-0.450000X0.350000X-0.450000X0.350000X0.450000X-0.350000X0.450000X0*%
G04 APERTURE END LIST*
D10*
%TO.C,U3*%
X140065000Y-84775000D03*
X141335000Y-84775000D03*
X142605000Y-84775000D03*
X143875000Y-84775000D03*
X145145000Y-84775000D03*
X146415000Y-84775000D03*
X147685000Y-84775000D03*
X148955000Y-84775000D03*
X148955000Y-79825000D03*
X147685000Y-79825000D03*
X146415000Y-79825000D03*
X145145000Y-79825000D03*
X143875000Y-79825000D03*
X142605000Y-79825000D03*
X141335000Y-79825000D03*
X140065000Y-79825000D03*
%TD*%
D11*
%TO.C,SW1*%
X148550000Y-137825000D03*
D12*
X143250000Y-137825000D03*
X137950000Y-137825000D03*
X148550000Y-142525000D03*
X143250000Y-142550000D03*
X137950000Y-142525000D03*
X148550000Y-147225000D03*
X143250000Y-147225000D03*
X137950000Y-147225000D03*
%TD*%
D13*
%TO.C,J3*%
X144300000Y-115550000D03*
D14*
X141760000Y-115550000D03*
%TD*%
D15*
%TO.C,J1*%
X156910000Y-114550000D03*
X156910000Y-130780000D03*
X163260000Y-114550000D03*
X163260000Y-130780000D03*
X150560000Y-114550000D03*
X150560000Y-130780000D03*
%TD*%
D13*
%TO.C,JOVGI1*%
X146700000Y-111350000D03*
D14*
X144160000Y-111350000D03*
X141620000Y-111350000D03*
X139080000Y-111350000D03*
%TD*%
D13*
%TO.C,JOVGI2*%
X146700000Y-105800000D03*
D14*
X144160000Y-105800000D03*
X141620000Y-105800000D03*
X139080000Y-105800000D03*
%TD*%
D16*
%TO.C,C19*%
X162000000Y-140200000D03*
D17*
X162000000Y-142700000D03*
%TD*%
D18*
%TO.C,D1*%
X122500000Y-137540000D03*
D19*
X122500000Y-135000000D03*
%TD*%
D20*
%TO.C,R25*%
X155510000Y-135300000D03*
X155510000Y-137300000D03*
%TD*%
D21*
%TO.C,R26*%
X127510000Y-137300000D03*
X127510000Y-135300000D03*
%TD*%
D20*
%TO.C,R27*%
X131000000Y-135300000D03*
X131000000Y-137300000D03*
%TD*%
D22*
%TO.C,C18*%
X160012500Y-135000000D03*
X162087500Y-135000000D03*
%TD*%
D15*
%TO.C,J4*%
X128660000Y-130780000D03*
X128660000Y-114550000D03*
X122310000Y-130780000D03*
X122310000Y-114550000D03*
X135010000Y-130780000D03*
X135010000Y-114550000D03*
%TD*%
D23*
%TO.C,J2*%
X134510000Y-55550000D03*
D14*
X134510000Y-58090000D03*
%TD*%
D24*
%TO.C,R1*%
X137010000Y-91050000D03*
X135010000Y-91050000D03*
%TD*%
D25*
%TO.C,RV2*%
X120210000Y-59775000D03*
X129810000Y-59775000D03*
D26*
X122510000Y-67275000D03*
D27*
X125010000Y-67275000D03*
X127510000Y-67275000D03*
%TD*%
D17*
%TO.C,C8*%
X158510000Y-97300000D03*
D16*
X158510000Y-94800000D03*
%TD*%
D28*
%TO.C,C3*%
X133692380Y-80300000D03*
D17*
X131192380Y-80300000D03*
%TD*%
D24*
%TO.C,R15*%
X152010000Y-98550000D03*
X150010000Y-98550000D03*
%TD*%
D20*
%TO.C,R14*%
X151510000Y-79300000D03*
X151510000Y-81300000D03*
%TD*%
D24*
%TO.C,R17*%
X148010000Y-100800000D03*
X146010000Y-100800000D03*
%TD*%
D29*
%TO.C,C16*%
X141297500Y-102050000D03*
X139222500Y-102050000D03*
%TD*%
D24*
%TO.C,R7*%
X164010000Y-91800000D03*
X162010000Y-91800000D03*
%TD*%
D25*
%TO.C,RV1*%
X155660000Y-60050000D03*
X165260000Y-60050000D03*
D26*
X157960000Y-67550000D03*
D27*
X160460000Y-67550000D03*
X162960000Y-67550000D03*
%TD*%
D16*
%TO.C,C5*%
X127010000Y-87117621D03*
D17*
X127010000Y-89617621D03*
%TD*%
D30*
%TO.C,Q2*%
X163947500Y-90000000D03*
X163947500Y-88100000D03*
X162072500Y-89050000D03*
%TD*%
D16*
%TO.C,C6*%
X165510000Y-94867621D03*
D17*
X165510000Y-97367621D03*
%TD*%
D24*
%TO.C,R11*%
X152010000Y-96550000D03*
X150010000Y-96550000D03*
%TD*%
%TO.C,R22*%
X143010000Y-70800000D03*
X141010000Y-70800000D03*
%TD*%
D21*
%TO.C,R9*%
X154010000Y-96550000D03*
X154010000Y-94550000D03*
%TD*%
D24*
%TO.C,R19*%
X139010000Y-72800000D03*
X137010000Y-72800000D03*
%TD*%
D21*
%TO.C,R18*%
X137010000Y-76800000D03*
X137010000Y-74800000D03*
%TD*%
D24*
%TO.C,R2*%
X140760000Y-91050000D03*
X138760000Y-91050000D03*
%TD*%
%TO.C,R5*%
X137010000Y-99050000D03*
X135010000Y-99050000D03*
%TD*%
%TO.C,R13*%
X152010000Y-94300000D03*
X150010000Y-94300000D03*
%TD*%
D31*
%TO.C,C9*%
X147510000Y-89837500D03*
X147510000Y-87762500D03*
%TD*%
D22*
%TO.C,C2*%
X134972500Y-97050000D03*
X137047500Y-97050000D03*
%TD*%
%TO.C,C17*%
X135222500Y-102050000D03*
X137297500Y-102050000D03*
%TD*%
D24*
%TO.C,R4*%
X137010000Y-93050000D03*
X135010000Y-93050000D03*
%TD*%
D20*
%TO.C,R20*%
X146010000Y-70550000D03*
X146010000Y-72550000D03*
%TD*%
D22*
%TO.C,C11*%
X142722500Y-91550000D03*
X144797500Y-91550000D03*
%TD*%
%TO.C,C7*%
X149972500Y-100800000D03*
X152047500Y-100800000D03*
%TD*%
D24*
%TO.C,R8*%
X152010000Y-92300000D03*
X150010000Y-92300000D03*
%TD*%
%TO.C,R3*%
X137010000Y-95050000D03*
X135010000Y-95050000D03*
%TD*%
D32*
%TO.C,C13*%
X146010000Y-74512500D03*
X146010000Y-76587500D03*
%TD*%
D24*
%TO.C,R10*%
X159820000Y-87300000D03*
X157820000Y-87300000D03*
%TD*%
D33*
%TO.C,U4*%
X134760000Y-84850000D03*
D34*
X133260000Y-84937500D03*
D33*
X131760000Y-84850000D03*
%TD*%
D31*
%TO.C,C10*%
X149510000Y-89837500D03*
X149510000Y-87762500D03*
%TD*%
D35*
%TO.C,U1*%
X147860000Y-97955000D03*
X147860000Y-96685000D03*
X147860000Y-95415000D03*
X147860000Y-94145000D03*
X140660000Y-94145000D03*
X140660000Y-95415000D03*
X140660000Y-96685000D03*
X140660000Y-97955000D03*
%TD*%
D36*
%TO.C,R12*%
X157820000Y-89550000D03*
X159820000Y-89550000D03*
%TD*%
D31*
%TO.C,C12*%
X142510000Y-76837500D03*
X142510000Y-74762500D03*
%TD*%
%TO.C,C14*%
X148260000Y-76587500D03*
X148260000Y-74512500D03*
%TD*%
D36*
%TO.C,R21*%
X141010000Y-72800000D03*
X143010000Y-72800000D03*
%TD*%
D28*
%TO.C,C4*%
X130942380Y-95050000D03*
D17*
X128442380Y-95050000D03*
%TD*%
D31*
%TO.C,C15*%
X139010000Y-76837500D03*
X139010000Y-74762500D03*
%TD*%
D20*
%TO.C,R23*%
X148260000Y-70550000D03*
X148260000Y-72550000D03*
%TD*%
D21*
%TO.C,R16*%
X137010000Y-80550000D03*
X137010000Y-78550000D03*
%TD*%
M02*
