%TF.GenerationSoftware,KiCad,Pcbnew,7.0.2-6a45011f42~172~ubuntu22.04.1*%
%TF.CreationDate,2023-05-29T17:51:51+01:00*%
%TF.ProjectId,little-angel-v3-SMD,6c697474-6c65-42d6-916e-67656c2d7633,rev?*%
%TF.SameCoordinates,Original*%
%TF.FileFunction,Legend,Top*%
%TF.FilePolarity,Positive*%
%FSLAX46Y46*%
G04 Gerber Fmt 4.6, Leading zero omitted, Abs format (unit mm)*
G04 Created by KiCad (PCBNEW 7.0.2-6a45011f42~172~ubuntu22.04.1) date 2023-05-29 17:51:51*
%MOMM*%
%LPD*%
G01*
G04 APERTURE LIST*
G04 Aperture macros list*
%AMRoundRect*
0 Rectangle with rounded corners*
0 $1 Rounding radius*
0 $2 $3 $4 $5 $6 $7 $8 $9 X,Y pos of 4 corners*
0 Add a 4 corners polygon primitive as box body*
4,1,4,$2,$3,$4,$5,$6,$7,$8,$9,$2,$3,0*
0 Add four circle primitives for the rounded corners*
1,1,$1+$1,$2,$3*
1,1,$1+$1,$4,$5*
1,1,$1+$1,$6,$7*
1,1,$1+$1,$8,$9*
0 Add four rect primitives between the rounded corners*
20,1,$1+$1,$2,$3,$4,$5,0*
20,1,$1+$1,$4,$5,$6,$7,0*
20,1,$1+$1,$6,$7,$8,$9,0*
20,1,$1+$1,$8,$9,$2,$3,0*%
%AMFreePoly0*
4,1,33,3.949277,1.046694,4.018866,0.991198,4.057486,0.911004,4.062500,0.866500,4.062500,-0.866500,4.042694,-0.953277,3.987198,-1.022866,3.907004,-1.061486,3.862500,-1.066500,0.737500,-1.066500,0.650723,-1.046694,0.581134,-0.991198,0.542514,-0.911004,0.537500,-0.866500,0.537500,-0.650000,-0.737500,-0.650000,-0.824277,-0.630194,-0.893866,-0.574698,-0.932486,-0.494504,-0.937500,-0.450000,
-0.937500,0.450000,-0.917694,0.536777,-0.862198,0.606366,-0.782004,0.644986,-0.737500,0.650000,0.537500,0.650000,0.537500,0.866500,0.557306,0.953277,0.612802,1.022866,0.692996,1.061486,0.737500,1.066500,3.862500,1.066500,3.949277,1.046694,3.949277,1.046694,$1*%
G04 Aperture macros list end*
%ADD10C,0.125000*%
%ADD11C,0.150000*%
%ADD12C,0.120000*%
%ADD13R,2.600000X1.500000*%
%ADD14O,2.600000X1.500000*%
%ADD15R,2.000000X1.900000*%
%ADD16C,1.900000*%
%ADD17RoundRect,0.350000X0.150000X-0.825000X0.150000X0.825000X-0.150000X0.825000X-0.150000X-0.825000X0*%
%ADD18RoundRect,0.200000X1.300000X0.750000X-1.300000X0.750000X-1.300000X-0.750000X1.300000X-0.750000X0*%
%ADD19O,3.000000X1.900000*%
%ADD20RoundRect,0.200000X-0.850000X0.850000X-0.850000X-0.850000X0.850000X-0.850000X0.850000X0.850000X0*%
%ADD21O,2.100000X2.100000*%
%ADD22C,3.400000*%
%ADD23RoundRect,0.200000X-0.800000X0.800000X-0.800000X-0.800000X0.800000X-0.800000X0.800000X0.800000X0*%
%ADD24C,2.000000*%
%ADD25RoundRect,0.200000X1.000000X0.950000X-1.000000X0.950000X-1.000000X-0.950000X1.000000X-0.950000X0*%
%ADD26C,2.300000*%
%ADD27RoundRect,0.450000X-0.450000X0.350000X-0.450000X-0.350000X0.450000X-0.350000X0.450000X0.350000X0*%
%ADD28RoundRect,0.450000X0.450000X-0.350000X0.450000X0.350000X-0.450000X0.350000X-0.450000X-0.350000X0*%
%ADD29RoundRect,0.450000X-0.337500X-0.475000X0.337500X-0.475000X0.337500X0.475000X-0.337500X0.475000X0*%
%ADD30RoundRect,0.200000X-0.850000X-0.850000X0.850000X-0.850000X0.850000X0.850000X-0.850000X0.850000X0*%
%ADD31RoundRect,0.450000X0.350000X0.450000X-0.350000X0.450000X-0.350000X-0.450000X0.350000X-0.450000X0*%
%ADD32O,3.120000X3.640000*%
%ADD33RoundRect,0.200000X0.900000X0.900000X-0.900000X0.900000X-0.900000X-0.900000X0.900000X-0.900000X0*%
%ADD34C,2.200000*%
%ADD35RoundRect,0.200000X0.800000X0.800000X-0.800000X0.800000X-0.800000X-0.800000X0.800000X-0.800000X0*%
%ADD36RoundRect,0.450000X0.337500X0.475000X-0.337500X0.475000X-0.337500X-0.475000X0.337500X-0.475000X0*%
%ADD37RoundRect,0.350000X0.587500X0.150000X-0.587500X0.150000X-0.587500X-0.150000X0.587500X-0.150000X0*%
%ADD38RoundRect,0.450000X0.475000X-0.337500X0.475000X0.337500X-0.475000X0.337500X-0.475000X-0.337500X0*%
%ADD39RoundRect,0.450000X-0.475000X0.337500X-0.475000X-0.337500X0.475000X-0.337500X0.475000X0.337500X0*%
%ADD40RoundRect,0.200000X-0.450000X0.650000X-0.450000X-0.650000X0.450000X-0.650000X0.450000X0.650000X0*%
%ADD41FreePoly0,270.000000*%
%ADD42RoundRect,0.350000X0.650000X0.150000X-0.650000X0.150000X-0.650000X-0.150000X0.650000X-0.150000X0*%
%ADD43RoundRect,0.450000X-0.350000X-0.450000X0.350000X-0.450000X0.350000X0.450000X-0.350000X0.450000X0*%
G04 APERTURE END LIST*
D10*
G36*
X124231209Y-55947621D02*
G01*
X124278687Y-56001881D01*
X124322857Y-56119669D01*
X124299692Y-56304995D01*
X124222476Y-56428540D01*
X124155580Y-56488003D01*
X124024599Y-56549642D01*
X123537942Y-56549642D01*
X123620531Y-55888928D01*
X124121160Y-55888928D01*
X124231209Y-55947621D01*
G37*
G36*
X128279206Y-55951455D02*
G01*
X128385829Y-56073310D01*
X128432821Y-56198624D01*
X128466655Y-56469286D01*
X128441751Y-56668515D01*
X128339392Y-56941474D01*
X128258188Y-57071399D01*
X128114072Y-57199502D01*
X127912741Y-57263928D01*
X127636155Y-57263928D01*
X127808030Y-55888928D01*
X128099440Y-55888928D01*
X128279206Y-55951455D01*
G37*
G36*
X129122499Y-57911786D02*
G01*
X121208214Y-57911786D01*
X121208214Y-57242574D01*
X121831771Y-57242574D01*
X121835204Y-57279117D01*
X121857848Y-57308002D01*
X122073526Y-57383020D01*
X122082719Y-57388928D01*
X122099526Y-57388928D01*
X122116332Y-57389754D01*
X122117768Y-57388928D01*
X122454104Y-57388928D01*
X122468221Y-57390793D01*
X122480453Y-57385036D01*
X122493431Y-57381226D01*
X122496790Y-57377348D01*
X122602521Y-57327593D01*
X123314725Y-57327593D01*
X123319114Y-57354576D01*
X123343657Y-57381867D01*
X123379058Y-57391556D01*
X123414078Y-57380568D01*
X123437598Y-57352390D01*
X123439685Y-57335698D01*
X124804452Y-57335698D01*
X124808587Y-57344753D01*
X124810185Y-57354576D01*
X124816052Y-57361100D01*
X124819699Y-57369085D01*
X124828072Y-57374466D01*
X124834728Y-57381867D01*
X124843194Y-57384184D01*
X124850576Y-57388928D01*
X124860527Y-57388928D01*
X124870129Y-57391556D01*
X124878505Y-57388928D01*
X125592201Y-57388928D01*
X125618431Y-57381226D01*
X125642467Y-57353488D01*
X125645025Y-57335698D01*
X126152666Y-57335698D01*
X126156801Y-57344753D01*
X126158399Y-57354576D01*
X126164266Y-57361100D01*
X126167913Y-57369085D01*
X126176286Y-57374466D01*
X126182942Y-57381867D01*
X126191408Y-57384184D01*
X126198790Y-57388928D01*
X126208741Y-57388928D01*
X126218343Y-57391556D01*
X126226719Y-57388928D01*
X126940415Y-57388928D01*
X126966645Y-57381226D01*
X126990681Y-57353488D01*
X126993239Y-57335698D01*
X127500880Y-57335698D01*
X127505015Y-57344753D01*
X127506613Y-57354576D01*
X127512480Y-57361100D01*
X127516127Y-57369085D01*
X127524500Y-57374466D01*
X127531156Y-57381867D01*
X127539622Y-57384184D01*
X127547004Y-57388928D01*
X127556955Y-57388928D01*
X127566557Y-57391556D01*
X127574933Y-57388928D01*
X127914279Y-57388928D01*
X127924068Y-57391548D01*
X127940827Y-57386185D01*
X127957716Y-57381226D01*
X127958249Y-57380609D01*
X128160163Y-57315998D01*
X128173520Y-57313905D01*
X128184160Y-57304446D01*
X128195956Y-57296458D01*
X128197679Y-57292429D01*
X128341232Y-57164825D01*
X128349700Y-57160829D01*
X128354664Y-57152886D01*
X128354667Y-57152884D01*
X128369155Y-57129701D01*
X128442489Y-57012367D01*
X128447790Y-57008414D01*
X128452034Y-56997095D01*
X128453476Y-56994789D01*
X128455175Y-56988719D01*
X128557644Y-56715466D01*
X128562597Y-56709534D01*
X128563960Y-56698624D01*
X128564532Y-56697101D01*
X128565072Y-56689731D01*
X128590398Y-56487126D01*
X128593936Y-56479743D01*
X128592628Y-56469283D01*
X128592774Y-56468119D01*
X128591517Y-56460391D01*
X128557262Y-56186360D01*
X128558891Y-56178809D01*
X128555032Y-56168518D01*
X128554830Y-56166901D01*
X128551880Y-56160113D01*
X128501202Y-56024971D01*
X128499477Y-56013369D01*
X128488927Y-56001312D01*
X128479300Y-55988499D01*
X128476954Y-55987628D01*
X128363507Y-55857974D01*
X128353222Y-55844855D01*
X128342755Y-55841214D01*
X128333405Y-55835269D01*
X128325767Y-55835305D01*
X128137546Y-55769837D01*
X128128351Y-55763928D01*
X128111532Y-55763928D01*
X128094739Y-55763102D01*
X128093303Y-55763928D01*
X127761257Y-55763928D01*
X127751655Y-55761300D01*
X127734693Y-55766622D01*
X127717639Y-55771630D01*
X127717230Y-55772101D01*
X127716634Y-55772289D01*
X127705261Y-55785914D01*
X127693603Y-55799368D01*
X127693513Y-55799988D01*
X127693115Y-55800466D01*
X127690915Y-55818059D01*
X127688380Y-55835698D01*
X127688639Y-55836267D01*
X127503414Y-57318065D01*
X127500880Y-57335698D01*
X126993239Y-57335698D01*
X126995904Y-57317158D01*
X126980657Y-57283771D01*
X126949780Y-57263928D01*
X126287941Y-57263928D01*
X126370530Y-56603214D01*
X126824343Y-56603214D01*
X126850573Y-56595512D01*
X126874609Y-56567774D01*
X126879832Y-56531444D01*
X126864585Y-56498057D01*
X126833708Y-56478214D01*
X126386155Y-56478214D01*
X126459816Y-55888928D01*
X127127915Y-55888928D01*
X127154145Y-55881226D01*
X127178181Y-55853488D01*
X127183404Y-55817158D01*
X127168157Y-55783771D01*
X127137280Y-55763928D01*
X126413043Y-55763928D01*
X126403441Y-55761300D01*
X126386479Y-55766622D01*
X126369425Y-55771630D01*
X126369016Y-55772101D01*
X126368420Y-55772289D01*
X126357047Y-55785914D01*
X126345389Y-55799368D01*
X126345299Y-55799988D01*
X126344901Y-55800466D01*
X126342701Y-55818059D01*
X126340166Y-55835698D01*
X126340425Y-55836267D01*
X126253417Y-56532335D01*
X126250880Y-56549984D01*
X126251140Y-56550553D01*
X126155200Y-57318065D01*
X126152666Y-57335698D01*
X125645025Y-57335698D01*
X125647690Y-57317158D01*
X125632443Y-57283771D01*
X125601566Y-57263928D01*
X124939727Y-57263928D01*
X125022316Y-56603214D01*
X125476129Y-56603214D01*
X125502359Y-56595512D01*
X125526395Y-56567774D01*
X125531618Y-56531444D01*
X125516371Y-56498057D01*
X125485494Y-56478214D01*
X125037941Y-56478214D01*
X125111602Y-55888928D01*
X125779701Y-55888928D01*
X125805931Y-55881226D01*
X125829967Y-55853488D01*
X125835190Y-55817158D01*
X125819943Y-55783771D01*
X125789066Y-55763928D01*
X125064829Y-55763928D01*
X125055227Y-55761300D01*
X125038265Y-55766622D01*
X125021211Y-55771630D01*
X125020802Y-55772101D01*
X125020206Y-55772289D01*
X125008833Y-55785914D01*
X124997175Y-55799368D01*
X124997085Y-55799988D01*
X124996687Y-55800466D01*
X124994487Y-55818059D01*
X124991952Y-55835698D01*
X124992211Y-55836267D01*
X124905203Y-56532335D01*
X124902666Y-56549984D01*
X124902926Y-56550553D01*
X124806986Y-57318065D01*
X124804452Y-57335698D01*
X123439685Y-57335698D01*
X123522317Y-56674642D01*
X124034461Y-56674642D01*
X124048578Y-56676507D01*
X124060810Y-56670750D01*
X124073788Y-56666940D01*
X124077147Y-56663062D01*
X124208874Y-56601074D01*
X124218164Y-56599619D01*
X124231611Y-56587665D01*
X124245555Y-56575301D01*
X124245566Y-56575261D01*
X124305521Y-56521967D01*
X124313987Y-56517972D01*
X124318949Y-56510031D01*
X124318954Y-56510028D01*
X124330200Y-56492030D01*
X124410726Y-56363190D01*
X124419741Y-56352390D01*
X124421439Y-56338801D01*
X124425134Y-56325607D01*
X124423680Y-56320876D01*
X124448460Y-56122627D01*
X124451749Y-56107380D01*
X124447480Y-56095997D01*
X124445528Y-56083993D01*
X124441155Y-56079131D01*
X124394060Y-55953542D01*
X124392335Y-55941940D01*
X124381785Y-55929883D01*
X124372158Y-55917070D01*
X124369812Y-55916199D01*
X124322072Y-55861639D01*
X124316319Y-55851346D01*
X124302231Y-55843832D01*
X124288763Y-55835269D01*
X124286197Y-55835281D01*
X124168444Y-55772479D01*
X124155137Y-55763928D01*
X124143194Y-55763928D01*
X124131499Y-55761504D01*
X124125190Y-55763928D01*
X123573758Y-55763928D01*
X123564156Y-55761300D01*
X123547194Y-55766622D01*
X123530140Y-55771630D01*
X123529731Y-55772101D01*
X123529135Y-55772289D01*
X123517762Y-55785914D01*
X123506104Y-55799368D01*
X123506014Y-55799988D01*
X123505616Y-55800466D01*
X123503416Y-55818059D01*
X123500881Y-55835698D01*
X123501140Y-55836267D01*
X123405200Y-56603790D01*
X123402667Y-56621412D01*
X123402926Y-56621980D01*
X123314725Y-57327593D01*
X122602521Y-57327593D01*
X122628517Y-57315360D01*
X122637807Y-57313905D01*
X122651254Y-57301951D01*
X122665198Y-57289587D01*
X122665209Y-57289547D01*
X122725163Y-57236254D01*
X122733631Y-57232258D01*
X122738594Y-57224316D01*
X122738597Y-57224314D01*
X122747557Y-57209976D01*
X122830368Y-57077476D01*
X122839383Y-57066677D01*
X122841082Y-57053082D01*
X122844775Y-57039893D01*
X122843322Y-57035165D01*
X122859174Y-56908353D01*
X122862465Y-56893095D01*
X122858194Y-56881707D01*
X122856243Y-56869709D01*
X122851872Y-56864848D01*
X122804774Y-56739256D01*
X122803049Y-56727655D01*
X122792498Y-56715597D01*
X122782871Y-56702784D01*
X122780525Y-56701913D01*
X122732786Y-56647354D01*
X122727033Y-56637060D01*
X122712945Y-56629546D01*
X122699477Y-56620983D01*
X122696911Y-56620995D01*
X122586203Y-56561950D01*
X122580887Y-56556210D01*
X122570332Y-56553486D01*
X122568982Y-56552766D01*
X122561663Y-56551249D01*
X122293549Y-56482059D01*
X122176289Y-56419520D01*
X122128811Y-56365260D01*
X122084641Y-56247472D01*
X122098878Y-56133574D01*
X122176094Y-56010029D01*
X122242992Y-55950565D01*
X122373972Y-55888928D01*
X122706583Y-55888928D01*
X122910456Y-55959840D01*
X122937760Y-55961183D01*
X122969575Y-55942881D01*
X122986443Y-55910283D01*
X122983010Y-55873740D01*
X122960366Y-55844855D01*
X122744689Y-55769837D01*
X122735494Y-55763928D01*
X122718675Y-55763928D01*
X122701882Y-55763102D01*
X122700446Y-55763928D01*
X122364110Y-55763928D01*
X122349993Y-55762063D01*
X122337761Y-55767819D01*
X122324783Y-55771630D01*
X122321422Y-55775507D01*
X122189701Y-55837494D01*
X122180408Y-55838951D01*
X122166537Y-55851280D01*
X122153016Y-55863270D01*
X122153005Y-55863308D01*
X122093049Y-55916601D01*
X122084584Y-55920598D01*
X122079621Y-55928538D01*
X122079617Y-55928542D01*
X122071245Y-55941940D01*
X121987845Y-56075377D01*
X121978830Y-56086179D01*
X121977131Y-56099769D01*
X121973437Y-56112963D01*
X121974890Y-56117693D01*
X121959038Y-56244514D01*
X121955750Y-56259762D01*
X121960018Y-56271144D01*
X121961971Y-56283148D01*
X121966342Y-56288008D01*
X122013438Y-56413599D01*
X122015164Y-56425202D01*
X122025713Y-56437258D01*
X122035341Y-56450072D01*
X122037686Y-56450942D01*
X122085426Y-56505502D01*
X122091180Y-56515796D01*
X122105263Y-56523307D01*
X122118736Y-56531874D01*
X122121303Y-56531861D01*
X122232010Y-56590905D01*
X122237327Y-56596646D01*
X122247881Y-56599369D01*
X122249232Y-56600090D01*
X122256550Y-56601606D01*
X122524663Y-56670796D01*
X122641924Y-56733335D01*
X122689401Y-56787596D01*
X122733572Y-56905384D01*
X122719334Y-57019280D01*
X122642118Y-57142827D01*
X122575223Y-57202289D01*
X122444242Y-57263928D01*
X122111630Y-57263928D01*
X121907758Y-57193017D01*
X121880454Y-57191674D01*
X121848639Y-57209976D01*
X121831771Y-57242574D01*
X121208214Y-57242574D01*
X121208214Y-55295714D01*
X129122499Y-55295714D01*
X129122499Y-57911786D01*
G37*
D11*
G36*
X158094834Y-56262175D02*
G01*
X158197782Y-56379829D01*
X158243459Y-56501637D01*
X158276916Y-56769284D01*
X158252388Y-56965505D01*
X158150987Y-57235908D01*
X158071399Y-57363249D01*
X157930603Y-57488402D01*
X157733649Y-57551428D01*
X157473172Y-57551428D01*
X157641922Y-56201428D01*
X157920187Y-56201428D01*
X158094834Y-56262175D01*
G37*
G36*
X161072950Y-56257573D02*
G01*
X161117424Y-56308401D01*
X161159714Y-56421175D01*
X161137273Y-56600707D01*
X161062470Y-56720392D01*
X160998267Y-56777462D01*
X160871447Y-56837142D01*
X160401743Y-56837142D01*
X160481207Y-56201428D01*
X160967677Y-56201428D01*
X161072950Y-56257573D01*
G37*
G36*
X164581071Y-58249286D02*
G01*
X156600714Y-58249286D01*
X156600714Y-57637552D01*
X157310844Y-57637552D01*
X157315805Y-57648416D01*
X157317723Y-57660206D01*
X157324765Y-57668035D01*
X157329140Y-57677616D01*
X157339190Y-57684074D01*
X157347175Y-57692953D01*
X157357329Y-57695732D01*
X157366192Y-57701428D01*
X157378140Y-57701428D01*
X157389656Y-57704580D01*
X157399702Y-57701428D01*
X157735494Y-57701428D01*
X157747241Y-57704572D01*
X157767390Y-57698124D01*
X157787617Y-57692185D01*
X157788256Y-57691447D01*
X157956677Y-57637552D01*
X158801915Y-57637552D01*
X158806876Y-57648416D01*
X158808794Y-57660206D01*
X158815836Y-57668035D01*
X158820211Y-57677616D01*
X158830261Y-57684074D01*
X158838246Y-57692953D01*
X158848400Y-57695732D01*
X158857263Y-57701428D01*
X158869211Y-57701428D01*
X158880727Y-57704580D01*
X158890773Y-57701428D01*
X159604353Y-57701428D01*
X159635831Y-57692185D01*
X159664673Y-57658899D01*
X159669141Y-57627824D01*
X160151741Y-57627824D01*
X160157008Y-57660206D01*
X160186460Y-57692953D01*
X160228941Y-57704580D01*
X160270964Y-57691395D01*
X160299188Y-57657583D01*
X160382993Y-56987142D01*
X160883283Y-56987142D01*
X160900222Y-56989380D01*
X160914905Y-56982470D01*
X160930473Y-56977899D01*
X160934503Y-56973247D01*
X161062218Y-56913147D01*
X161073367Y-56911400D01*
X161089991Y-56896622D01*
X161106236Y-56882218D01*
X161106249Y-56882171D01*
X161162123Y-56832505D01*
X161172284Y-56827710D01*
X161270515Y-56670539D01*
X161281331Y-56657582D01*
X161283369Y-56641272D01*
X161287802Y-56625443D01*
X161286057Y-56619768D01*
X161310437Y-56424725D01*
X161314384Y-56406428D01*
X161309260Y-56392764D01*
X161306918Y-56378364D01*
X161301673Y-56372532D01*
X161255871Y-56250392D01*
X161253801Y-56236470D01*
X161241134Y-56221994D01*
X161229588Y-56206627D01*
X161226774Y-56205583D01*
X161181982Y-56154393D01*
X161175081Y-56142044D01*
X161166658Y-56137552D01*
X161614414Y-56137552D01*
X161632710Y-56177616D01*
X161669762Y-56201428D01*
X162035398Y-56201428D01*
X161857098Y-57627824D01*
X161862365Y-57660206D01*
X161891817Y-57692953D01*
X161934298Y-57704580D01*
X161976321Y-57691395D01*
X162004545Y-57657583D01*
X162008265Y-57627824D01*
X162776741Y-57627824D01*
X162782008Y-57660206D01*
X162811460Y-57692953D01*
X162853941Y-57704580D01*
X162895964Y-57691395D01*
X162924188Y-57657583D01*
X163016922Y-56915714D01*
X163722898Y-56915714D01*
X163633884Y-57627824D01*
X163639151Y-57660206D01*
X163668603Y-57692953D01*
X163711084Y-57704580D01*
X163753107Y-57691395D01*
X163781331Y-57657583D01*
X163882195Y-56850668D01*
X163885226Y-56829590D01*
X163884915Y-56828909D01*
X163972900Y-56125032D01*
X163967633Y-56092651D01*
X163938181Y-56059903D01*
X163895700Y-56048276D01*
X163853676Y-56061461D01*
X163825453Y-56095274D01*
X163741648Y-56765714D01*
X163035672Y-56765714D01*
X163115757Y-56125032D01*
X163110490Y-56092651D01*
X163081038Y-56059903D01*
X163038557Y-56048276D01*
X162996533Y-56061461D01*
X162968310Y-56095274D01*
X162876377Y-56830729D01*
X162873343Y-56851838D01*
X162873654Y-56852519D01*
X162776741Y-57627824D01*
X162008265Y-57627824D01*
X162186564Y-56201428D01*
X162559709Y-56201428D01*
X162591187Y-56192185D01*
X162620029Y-56158899D01*
X162626297Y-56115304D01*
X162608001Y-56075240D01*
X162570949Y-56051428D01*
X162130430Y-56051428D01*
X162118914Y-56048276D01*
X162108868Y-56051428D01*
X161681002Y-56051428D01*
X161649524Y-56060671D01*
X161620682Y-56093957D01*
X161614414Y-56137552D01*
X161166658Y-56137552D01*
X161158172Y-56133026D01*
X161142014Y-56122752D01*
X161138936Y-56122766D01*
X161024411Y-56061686D01*
X161008449Y-56051428D01*
X160994114Y-56051428D01*
X160980083Y-56048520D01*
X160972515Y-56051428D01*
X160425073Y-56051428D01*
X160413557Y-56048276D01*
X160393201Y-56054662D01*
X160372739Y-56060671D01*
X160372249Y-56061236D01*
X160371533Y-56061461D01*
X160357850Y-56077853D01*
X160343897Y-56093957D01*
X160343790Y-56094698D01*
X160343310Y-56095274D01*
X160340662Y-56116450D01*
X160337629Y-56137552D01*
X160337940Y-56138233D01*
X160242446Y-56902184D01*
X160239415Y-56923266D01*
X160239725Y-56923946D01*
X160151741Y-57627824D01*
X159669141Y-57627824D01*
X159670941Y-57615304D01*
X159652645Y-57575240D01*
X159615593Y-57551428D01*
X158964243Y-57551428D01*
X159043708Y-56915714D01*
X159488281Y-56915714D01*
X159519759Y-56906471D01*
X159548601Y-56873185D01*
X159554869Y-56829590D01*
X159536573Y-56789526D01*
X159499521Y-56765714D01*
X159062458Y-56765714D01*
X159132993Y-56201428D01*
X159791853Y-56201428D01*
X159823331Y-56192185D01*
X159852173Y-56158899D01*
X159858441Y-56115304D01*
X159840145Y-56075240D01*
X159803093Y-56051428D01*
X159076859Y-56051428D01*
X159065343Y-56048276D01*
X159044987Y-56054662D01*
X159024525Y-56060671D01*
X159024035Y-56061236D01*
X159023319Y-56061461D01*
X159009636Y-56077853D01*
X158995683Y-56093957D01*
X158995576Y-56094698D01*
X158995096Y-56095274D01*
X158992448Y-56116450D01*
X158989415Y-56137552D01*
X158989726Y-56138233D01*
X158903163Y-56830729D01*
X158900129Y-56851838D01*
X158900440Y-56852519D01*
X158804947Y-57616463D01*
X158801915Y-57637552D01*
X157956677Y-57637552D01*
X157985911Y-57628197D01*
X158001939Y-57625686D01*
X158014711Y-57614332D01*
X158028862Y-57604749D01*
X158030929Y-57599916D01*
X158171050Y-57475363D01*
X158181213Y-57470567D01*
X158274703Y-57320981D01*
X158281063Y-57316239D01*
X158286155Y-57302659D01*
X158287885Y-57299892D01*
X158289924Y-57292609D01*
X158391462Y-57021842D01*
X158397403Y-57014726D01*
X158399038Y-57001639D01*
X158399725Y-56999810D01*
X158400373Y-56990963D01*
X158425407Y-56790693D01*
X158429652Y-56781835D01*
X158428083Y-56769286D01*
X158428258Y-56767889D01*
X158426749Y-56758611D01*
X158392787Y-56486920D01*
X158394742Y-56477857D01*
X158390109Y-56465504D01*
X158389868Y-56463569D01*
X158386339Y-56455448D01*
X158336229Y-56321820D01*
X158334159Y-56307899D01*
X158321491Y-56293422D01*
X158309946Y-56278056D01*
X158307133Y-56277012D01*
X158195993Y-56149997D01*
X158183653Y-56134255D01*
X158171092Y-56129886D01*
X158159873Y-56122752D01*
X158150709Y-56122796D01*
X157965911Y-56058517D01*
X157954879Y-56051428D01*
X157934690Y-56051428D01*
X157914545Y-56050437D01*
X157912823Y-56051428D01*
X157585788Y-56051428D01*
X157574272Y-56048276D01*
X157553916Y-56054662D01*
X157533454Y-56060671D01*
X157532964Y-56061236D01*
X157532248Y-56061461D01*
X157518565Y-56077853D01*
X157504612Y-56093957D01*
X157504505Y-56094698D01*
X157504025Y-56095274D01*
X157501377Y-56116450D01*
X157498344Y-56137552D01*
X157498655Y-56138233D01*
X157313876Y-57616463D01*
X157310844Y-57637552D01*
X156600714Y-57637552D01*
X156600714Y-55495714D01*
X164581071Y-55495714D01*
X164581071Y-58249286D01*
G37*
G36*
X119102034Y-86276792D02*
G01*
X119133461Y-86281646D01*
X119193545Y-86294103D01*
X119209782Y-86297892D01*
X119239114Y-86307326D01*
X119269886Y-86322596D01*
X119294112Y-86341730D01*
X119314539Y-86369791D01*
X119324360Y-86397426D01*
X119327634Y-86428925D01*
X119327634Y-86798953D01*
X119133461Y-86758653D01*
X119117223Y-86754863D01*
X119087891Y-86745429D01*
X119057119Y-86730159D01*
X119032894Y-86711025D01*
X119012466Y-86682964D01*
X119002645Y-86655329D01*
X118999371Y-86623831D01*
X118999371Y-86360781D01*
X119001467Y-86336143D01*
X119012466Y-86307086D01*
X119037215Y-86285167D01*
X119068642Y-86276649D01*
X119102034Y-86276792D01*
G37*
G36*
X119655896Y-83673133D02*
G01*
X118885799Y-83340474D01*
X119655896Y-83331681D01*
X119655896Y-83673133D01*
G37*
G36*
X119123935Y-79914968D02*
G01*
X119953384Y-80087159D01*
X119958954Y-80088464D01*
X119988974Y-80099736D01*
X120015364Y-80115993D01*
X120038381Y-80135519D01*
X120059246Y-80160363D01*
X120073272Y-80189014D01*
X120077948Y-80219050D01*
X120077948Y-80400034D01*
X120075475Y-80421055D01*
X120062492Y-80447605D01*
X120038381Y-80468178D01*
X120012764Y-80479226D01*
X119983593Y-80484106D01*
X119953384Y-80481367D01*
X119123935Y-80309176D01*
X119116272Y-80307449D01*
X119088050Y-80298965D01*
X119058247Y-80284819D01*
X119034527Y-80266736D01*
X119014090Y-80239843D01*
X119002413Y-80207282D01*
X118999371Y-80175819D01*
X118999371Y-79994836D01*
X119001318Y-79970346D01*
X119011536Y-79941384D01*
X119034527Y-79919379D01*
X119063721Y-79910621D01*
X119094741Y-79910446D01*
X119123935Y-79914968D01*
G37*
G36*
X119102034Y-78266604D02*
G01*
X119133461Y-78271458D01*
X119193545Y-78283914D01*
X119209782Y-78287704D01*
X119239114Y-78297138D01*
X119269886Y-78312408D01*
X119294112Y-78331542D01*
X119314539Y-78359603D01*
X119324360Y-78387238D01*
X119327634Y-78418736D01*
X119327634Y-78788764D01*
X119133461Y-78748464D01*
X119117223Y-78744675D01*
X119087891Y-78735241D01*
X119057119Y-78719971D01*
X119032894Y-78700837D01*
X119012466Y-78672776D01*
X119002645Y-78645141D01*
X118999371Y-78613642D01*
X118999371Y-78350593D01*
X119001467Y-78325955D01*
X119012466Y-78296897D01*
X119037215Y-78274979D01*
X119068642Y-78266461D01*
X119102034Y-78266604D01*
G37*
G36*
X121856990Y-93453571D02*
G01*
X117220329Y-93453571D01*
X117220329Y-92254117D01*
X117873900Y-92254117D01*
X120500000Y-92800000D01*
X120500000Y-91279588D01*
X120077948Y-91191660D01*
X120077948Y-92231402D01*
X117873900Y-91773447D01*
X117873900Y-92254117D01*
X117220329Y-92254117D01*
X117220329Y-90029553D01*
X118108374Y-90029553D01*
X118108374Y-90473586D01*
X118389741Y-90532205D01*
X118389741Y-90127006D01*
X118577320Y-90127006D01*
X118577320Y-90689741D01*
X118999371Y-90777669D01*
X118999371Y-90658967D01*
X120500000Y-90971109D01*
X120500000Y-90527076D01*
X118577320Y-90127006D01*
X118389741Y-90127006D01*
X118389741Y-90088171D01*
X118108374Y-90029553D01*
X117220329Y-90029553D01*
X117220329Y-89685903D01*
X117873900Y-89685903D01*
X118295952Y-89773831D01*
X118295952Y-89650732D01*
X118577320Y-89708618D01*
X118577320Y-89954815D01*
X118999371Y-90042742D01*
X118999371Y-89796545D01*
X120500000Y-90108688D01*
X120500000Y-89660258D01*
X118999371Y-89348115D01*
X118999371Y-89143684D01*
X118577320Y-89055757D01*
X118577320Y-89260188D01*
X117873900Y-89114375D01*
X117873900Y-89685903D01*
X117220329Y-89685903D01*
X117220329Y-88686461D01*
X117873900Y-88686461D01*
X118295952Y-88774389D01*
X118295952Y-88651290D01*
X118577320Y-88709176D01*
X118577320Y-88955373D01*
X118999371Y-89043300D01*
X118999371Y-88797103D01*
X120500000Y-89109246D01*
X120500000Y-88660816D01*
X118999371Y-88348674D01*
X118999371Y-88144242D01*
X118577320Y-88056315D01*
X118577320Y-88260746D01*
X117873900Y-88114933D01*
X117873900Y-88686461D01*
X117220329Y-88686461D01*
X117220329Y-87202686D01*
X117873900Y-87202686D01*
X117873900Y-87773482D01*
X118295952Y-87861409D01*
X118295952Y-87738311D01*
X120500000Y-88196266D01*
X120500000Y-87748569D01*
X117873900Y-87202686D01*
X117220329Y-87202686D01*
X117220329Y-86634089D01*
X118577320Y-86634089D01*
X118577829Y-86656554D01*
X118580504Y-86690006D01*
X118585471Y-86723161D01*
X118592731Y-86756020D01*
X118602284Y-86788583D01*
X118614129Y-86820849D01*
X118628267Y-86852820D01*
X118644698Y-86884494D01*
X118663421Y-86915872D01*
X118684437Y-86946953D01*
X118707745Y-86977739D01*
X118724249Y-86997585D01*
X118749756Y-87025530D01*
X118776164Y-87051286D01*
X118803474Y-87074852D01*
X118831685Y-87096229D01*
X118860798Y-87115416D01*
X118890813Y-87132413D01*
X118921729Y-87147221D01*
X118953547Y-87159839D01*
X118986267Y-87170267D01*
X119019888Y-87178506D01*
X120057431Y-87393928D01*
X120080469Y-87398207D01*
X120114179Y-87402468D01*
X120146870Y-87404141D01*
X120178544Y-87403224D01*
X120209201Y-87399719D01*
X120238840Y-87393624D01*
X120267461Y-87384941D01*
X120295065Y-87373669D01*
X120321652Y-87359808D01*
X120347221Y-87343358D01*
X120371772Y-87324319D01*
X120387300Y-87310377D01*
X120408713Y-87288359D01*
X120427872Y-87265014D01*
X120444777Y-87240342D01*
X120459428Y-87214344D01*
X120471825Y-87187019D01*
X120481968Y-87158368D01*
X120489857Y-87128389D01*
X120495492Y-87097085D01*
X120498873Y-87064453D01*
X120500000Y-87030495D01*
X120500000Y-86664863D01*
X120499527Y-86641874D01*
X120497048Y-86607733D01*
X120492443Y-86574005D01*
X120485713Y-86540689D01*
X120476858Y-86507785D01*
X120465878Y-86475293D01*
X120452773Y-86443213D01*
X120437542Y-86411545D01*
X120420186Y-86380290D01*
X120400705Y-86349447D01*
X120379099Y-86319016D01*
X120363764Y-86299352D01*
X120339923Y-86271682D01*
X120315077Y-86246201D01*
X120289227Y-86222909D01*
X120262372Y-86201808D01*
X120234513Y-86182895D01*
X120205649Y-86166173D01*
X120175780Y-86151640D01*
X120144907Y-86139297D01*
X120113029Y-86129143D01*
X120080146Y-86121179D01*
X119995882Y-86103593D01*
X119886706Y-86512456D01*
X119970237Y-86530041D01*
X119997912Y-86539723D01*
X120023508Y-86556677D01*
X120044975Y-86578401D01*
X120047004Y-86580883D01*
X120063748Y-86606643D01*
X120074728Y-86636962D01*
X120077948Y-86666329D01*
X120077948Y-86839253D01*
X120076300Y-86858076D01*
X120064495Y-86887453D01*
X120043510Y-86908129D01*
X120030192Y-86915814D01*
X120000453Y-86924865D01*
X119969504Y-86923517D01*
X119749685Y-86878087D01*
X119749685Y-86516852D01*
X119749185Y-86494295D01*
X119746555Y-86460706D01*
X119741671Y-86427414D01*
X119734534Y-86394417D01*
X119725142Y-86361717D01*
X119713496Y-86329313D01*
X119699597Y-86297205D01*
X119683443Y-86265394D01*
X119665035Y-86233879D01*
X119644374Y-86202660D01*
X119621458Y-86171737D01*
X119605195Y-86151710D01*
X119579920Y-86123505D01*
X119553589Y-86097503D01*
X119526202Y-86073702D01*
X119497759Y-86052105D01*
X119468259Y-86032710D01*
X119437703Y-86015517D01*
X119406092Y-86000527D01*
X119373424Y-85987739D01*
X119339700Y-85977154D01*
X119304919Y-85968771D01*
X119022086Y-85910153D01*
X118998782Y-85905794D01*
X118964706Y-85901455D01*
X118931686Y-85899757D01*
X118899722Y-85900700D01*
X118868814Y-85904283D01*
X118838963Y-85910506D01*
X118810167Y-85919369D01*
X118782428Y-85930873D01*
X118755745Y-85945018D01*
X118730118Y-85961803D01*
X118705547Y-85981228D01*
X118690020Y-85995333D01*
X118668607Y-86017521D01*
X118649448Y-86040945D01*
X118632543Y-86065606D01*
X118617892Y-86091503D01*
X118605495Y-86118637D01*
X118595352Y-86147008D01*
X118587463Y-86176614D01*
X118581828Y-86207458D01*
X118578447Y-86239537D01*
X118577320Y-86272854D01*
X118577320Y-86623831D01*
X118577320Y-86634089D01*
X117220329Y-86634089D01*
X117220329Y-83380774D01*
X117873900Y-83380774D01*
X120500000Y-84550942D01*
X120500000Y-84057815D01*
X120077948Y-83867306D01*
X120077948Y-83312630D01*
X120500000Y-83297976D01*
X120500000Y-82793126D01*
X117873900Y-82883251D01*
X117873900Y-83340474D01*
X117873900Y-83380774D01*
X117220329Y-83380774D01*
X117220329Y-82200348D01*
X118577320Y-82200348D01*
X120500000Y-82600418D01*
X120500000Y-82157117D01*
X119128332Y-81872086D01*
X119120398Y-81870314D01*
X119091180Y-81861664D01*
X119060325Y-81847342D01*
X119035767Y-81829121D01*
X119014610Y-81802107D01*
X119002520Y-81769478D01*
X118999371Y-81737997D01*
X118999371Y-81557013D01*
X119001386Y-81532535D01*
X119011965Y-81503632D01*
X119035767Y-81481764D01*
X119065992Y-81473177D01*
X119098107Y-81473184D01*
X119128332Y-81477878D01*
X120500000Y-81762909D01*
X120500000Y-81318876D01*
X119025750Y-81012595D01*
X119002351Y-81008228D01*
X118968122Y-81003844D01*
X118934937Y-81002062D01*
X118902795Y-81002883D01*
X118871696Y-81006304D01*
X118841641Y-81012328D01*
X118812629Y-81020953D01*
X118784660Y-81032180D01*
X118757734Y-81046009D01*
X118731852Y-81062440D01*
X118707013Y-81081472D01*
X118691308Y-81095325D01*
X118669650Y-81117221D01*
X118650272Y-81140457D01*
X118633174Y-81165032D01*
X118618355Y-81190946D01*
X118605817Y-81218200D01*
X118595558Y-81246794D01*
X118587579Y-81276727D01*
X118581879Y-81308000D01*
X118578460Y-81340612D01*
X118577320Y-81374563D01*
X118577320Y-81576064D01*
X118578104Y-81607803D01*
X118580457Y-81639456D01*
X118584378Y-81671024D01*
X118589868Y-81702505D01*
X118596926Y-81733901D01*
X118605553Y-81765211D01*
X118615748Y-81796435D01*
X118627512Y-81827573D01*
X118640844Y-81858625D01*
X118655745Y-81889591D01*
X118672214Y-81920472D01*
X118690252Y-81951267D01*
X118709858Y-81981975D01*
X118731033Y-82012598D01*
X118753776Y-82043135D01*
X118778087Y-82073586D01*
X118577320Y-82088974D01*
X118577320Y-82200348D01*
X117220329Y-82200348D01*
X117220329Y-79356629D01*
X118577320Y-79356629D01*
X118577320Y-79468004D01*
X118765631Y-79555931D01*
X118742828Y-79574931D01*
X118711381Y-79604610D01*
X118683245Y-79635707D01*
X118658419Y-79668220D01*
X118636903Y-79702151D01*
X118618697Y-79737498D01*
X118603801Y-79774261D01*
X118592216Y-79812442D01*
X118583940Y-79852039D01*
X118578975Y-79893054D01*
X118577320Y-79935484D01*
X118577320Y-80175819D01*
X118577320Y-80182414D01*
X118577821Y-80205409D01*
X118580450Y-80239580D01*
X118585334Y-80273364D01*
X118592472Y-80306762D01*
X118601863Y-80339773D01*
X118613509Y-80372398D01*
X118627409Y-80404637D01*
X118643562Y-80436489D01*
X118661970Y-80467955D01*
X118682632Y-80499034D01*
X118705547Y-80529727D01*
X118721802Y-80549488D01*
X118747032Y-80577326D01*
X118773279Y-80603000D01*
X118800544Y-80626510D01*
X118828826Y-80647857D01*
X118858126Y-80667040D01*
X118888443Y-80684058D01*
X118919778Y-80698913D01*
X118952130Y-80711604D01*
X118985500Y-80722132D01*
X119019888Y-80730495D01*
X120057431Y-80945917D01*
X120080469Y-80950196D01*
X120114179Y-80954457D01*
X120146870Y-80956130D01*
X120178544Y-80955213D01*
X120209201Y-80951707D01*
X120238840Y-80945613D01*
X120267461Y-80936930D01*
X120295065Y-80925658D01*
X120321652Y-80911797D01*
X120347221Y-80895347D01*
X120371772Y-80876308D01*
X120387300Y-80862366D01*
X120408713Y-80840348D01*
X120427872Y-80817003D01*
X120444777Y-80792331D01*
X120459428Y-80766333D01*
X120471825Y-80739008D01*
X120481968Y-80710356D01*
X120489857Y-80680378D01*
X120495492Y-80649073D01*
X120498873Y-80616442D01*
X120500000Y-80582484D01*
X120500000Y-80295254D01*
X120501114Y-80278594D01*
X120512379Y-80247985D01*
X120535775Y-80228946D01*
X120565485Y-80221836D01*
X120597052Y-80222405D01*
X120626762Y-80227110D01*
X120654605Y-80232972D01*
X120662404Y-80234699D01*
X120691124Y-80243165D01*
X120721452Y-80257258D01*
X120745592Y-80275251D01*
X120766389Y-80301990D01*
X120778272Y-80334344D01*
X120781367Y-80365596D01*
X120781367Y-80879239D01*
X121203419Y-80836008D01*
X121203419Y-80359002D01*
X121202909Y-80336007D01*
X121200235Y-80301836D01*
X121195267Y-80268052D01*
X121188007Y-80234654D01*
X121178455Y-80201642D01*
X121166609Y-80169017D01*
X121152471Y-80136779D01*
X121136041Y-80104927D01*
X121117318Y-80073461D01*
X121096302Y-80042381D01*
X121072993Y-80011688D01*
X121056461Y-79991836D01*
X121030804Y-79963861D01*
X121004117Y-79938049D01*
X120976399Y-79914401D01*
X120947651Y-79892918D01*
X120917872Y-79873598D01*
X120887063Y-79856441D01*
X120855224Y-79841449D01*
X120822354Y-79828621D01*
X120788454Y-79817956D01*
X120753524Y-79809455D01*
X120657536Y-79789672D01*
X120631464Y-79784734D01*
X120593161Y-79779421D01*
X120555824Y-79776620D01*
X120519453Y-79776330D01*
X120484048Y-79778552D01*
X120449609Y-79783285D01*
X120416136Y-79790530D01*
X120383629Y-79800287D01*
X120352089Y-79812555D01*
X120321514Y-79827335D01*
X120291905Y-79844626D01*
X120272187Y-79824668D01*
X120241826Y-79796480D01*
X120210526Y-79770392D01*
X120178285Y-79746403D01*
X120145104Y-79724513D01*
X120110983Y-79704723D01*
X120075921Y-79687032D01*
X120039920Y-79671441D01*
X120002978Y-79657949D01*
X119965096Y-79646557D01*
X119926273Y-79637264D01*
X118577320Y-79356629D01*
X117220329Y-79356629D01*
X117220329Y-78623900D01*
X118577320Y-78623900D01*
X118577829Y-78646366D01*
X118580504Y-78679817D01*
X118585471Y-78712973D01*
X118592731Y-78745832D01*
X118602284Y-78778395D01*
X118614129Y-78810661D01*
X118628267Y-78842631D01*
X118644698Y-78874305D01*
X118663421Y-78905683D01*
X118684437Y-78936765D01*
X118707745Y-78967550D01*
X118724249Y-78987397D01*
X118749756Y-79015342D01*
X118776164Y-79041098D01*
X118803474Y-79064664D01*
X118831685Y-79086040D01*
X118860798Y-79105227D01*
X118890813Y-79122225D01*
X118921729Y-79137032D01*
X118953547Y-79149650D01*
X118986267Y-79160079D01*
X119019888Y-79168318D01*
X120057431Y-79383740D01*
X120080469Y-79388019D01*
X120114179Y-79392280D01*
X120146870Y-79393952D01*
X120178544Y-79393036D01*
X120209201Y-79389530D01*
X120238840Y-79383436D01*
X120267461Y-79374753D01*
X120295065Y-79363480D01*
X120321652Y-79349619D01*
X120347221Y-79333169D01*
X120371772Y-79314131D01*
X120387300Y-79300189D01*
X120408713Y-79278170D01*
X120427872Y-79254825D01*
X120444777Y-79230154D01*
X120459428Y-79204156D01*
X120471825Y-79176831D01*
X120481968Y-79148179D01*
X120489857Y-79118201D01*
X120495492Y-79086896D01*
X120498873Y-79054265D01*
X120500000Y-79020307D01*
X120500000Y-78654675D01*
X120499527Y-78631686D01*
X120497048Y-78597545D01*
X120492443Y-78563817D01*
X120485713Y-78530500D01*
X120476858Y-78497596D01*
X120465878Y-78465104D01*
X120452773Y-78433025D01*
X120437542Y-78401357D01*
X120420186Y-78370102D01*
X120400705Y-78339258D01*
X120379099Y-78308827D01*
X120363764Y-78289164D01*
X120339923Y-78261493D01*
X120315077Y-78236012D01*
X120289227Y-78212721D01*
X120262372Y-78191619D01*
X120234513Y-78172707D01*
X120205649Y-78155985D01*
X120175780Y-78141452D01*
X120144907Y-78129108D01*
X120113029Y-78118955D01*
X120080146Y-78110990D01*
X119995882Y-78093405D01*
X119886706Y-78502267D01*
X119970237Y-78519853D01*
X119997912Y-78529534D01*
X120023508Y-78546489D01*
X120044975Y-78568213D01*
X120047004Y-78570695D01*
X120063748Y-78596455D01*
X120074728Y-78626774D01*
X120077948Y-78656140D01*
X120077948Y-78829064D01*
X120076300Y-78847888D01*
X120064495Y-78877264D01*
X120043510Y-78897941D01*
X120030192Y-78905626D01*
X120000453Y-78914677D01*
X119969504Y-78913328D01*
X119749685Y-78867899D01*
X119749685Y-78506664D01*
X119749185Y-78484107D01*
X119746555Y-78450518D01*
X119741671Y-78417225D01*
X119734534Y-78384229D01*
X119725142Y-78351529D01*
X119713496Y-78319125D01*
X119699597Y-78287017D01*
X119683443Y-78255206D01*
X119665035Y-78223690D01*
X119644374Y-78192471D01*
X119621458Y-78161549D01*
X119605195Y-78141522D01*
X119579920Y-78113317D01*
X119553589Y-78087314D01*
X119526202Y-78063514D01*
X119497759Y-78041916D01*
X119468259Y-78022521D01*
X119437703Y-78005329D01*
X119406092Y-77990339D01*
X119373424Y-77977551D01*
X119339700Y-77966966D01*
X119304919Y-77958583D01*
X119022086Y-77899965D01*
X118998782Y-77895605D01*
X118964706Y-77891267D01*
X118931686Y-77889569D01*
X118899722Y-77890511D01*
X118868814Y-77894094D01*
X118838963Y-77900317D01*
X118810167Y-77909181D01*
X118782428Y-77920685D01*
X118755745Y-77934829D01*
X118730118Y-77951614D01*
X118705547Y-77971039D01*
X118690020Y-77985144D01*
X118668607Y-78007332D01*
X118649448Y-78030757D01*
X118632543Y-78055418D01*
X118617892Y-78081315D01*
X118605495Y-78108449D01*
X118595352Y-78136819D01*
X118587463Y-78166426D01*
X118581828Y-78197269D01*
X118578447Y-78229349D01*
X118577320Y-78262665D01*
X118577320Y-78613642D01*
X118577320Y-78623900D01*
X117220329Y-78623900D01*
X117220329Y-76856559D01*
X117873900Y-76856559D01*
X117873900Y-77427355D01*
X118295952Y-77515282D01*
X118295952Y-77392184D01*
X120500000Y-77850139D01*
X120500000Y-77402442D01*
X117873900Y-76856559D01*
X117220329Y-76856559D01*
X117220329Y-74034822D01*
X118577320Y-74034822D01*
X118577320Y-74486182D01*
X119634647Y-74932414D01*
X118577320Y-74942672D01*
X118577320Y-75382309D01*
X120500000Y-75300976D01*
X120500000Y-74919225D01*
X118577320Y-74034822D01*
X117220329Y-74034822D01*
X117220329Y-73063956D01*
X117873900Y-73063956D01*
X117874570Y-73095607D01*
X117876579Y-73126994D01*
X117879928Y-73158118D01*
X117884617Y-73188978D01*
X117890644Y-73219575D01*
X117898012Y-73249909D01*
X117906719Y-73279979D01*
X117916765Y-73309787D01*
X117928151Y-73339331D01*
X117940876Y-73368611D01*
X117954941Y-73397628D01*
X117970346Y-73426382D01*
X117987090Y-73454873D01*
X118005173Y-73483100D01*
X118024596Y-73511064D01*
X118045359Y-73538764D01*
X118067117Y-73565698D01*
X118089529Y-73591360D01*
X118112592Y-73615752D01*
X118136309Y-73638873D01*
X118160678Y-73660724D01*
X118185699Y-73681303D01*
X118211373Y-73700611D01*
X118237700Y-73718649D01*
X118264679Y-73735416D01*
X118292311Y-73750912D01*
X118320596Y-73765137D01*
X118349533Y-73778092D01*
X118379122Y-73789775D01*
X118409365Y-73800188D01*
X118440259Y-73809330D01*
X118471807Y-73817201D01*
X118593440Y-73365840D01*
X118477669Y-73341660D01*
X118457258Y-73336254D01*
X118429343Y-73325140D01*
X118402200Y-73309888D01*
X118375828Y-73290498D01*
X118353838Y-73270586D01*
X118346828Y-73263424D01*
X118325856Y-73238089D01*
X118310423Y-73212334D01*
X118299570Y-73182383D01*
X118295952Y-73151884D01*
X118295952Y-72798709D01*
X118297240Y-72779170D01*
X118306050Y-72748239D01*
X118323206Y-72722756D01*
X118348709Y-72702721D01*
X118375636Y-72690127D01*
X118404396Y-72683121D01*
X118434987Y-72681701D01*
X118467411Y-72685868D01*
X118781018Y-72751081D01*
X118797470Y-72755168D01*
X118825215Y-72765241D01*
X118851626Y-72779031D01*
X118876706Y-72796537D01*
X118900453Y-72817759D01*
X118903654Y-72821024D01*
X118923213Y-72844596D01*
X118939471Y-72873080D01*
X118949225Y-72903214D01*
X118952477Y-72934996D01*
X118952477Y-73288171D01*
X119374528Y-73376099D01*
X119374528Y-73022923D01*
X119376667Y-72999757D01*
X119387891Y-72969836D01*
X119408738Y-72945712D01*
X119435345Y-72929134D01*
X119446877Y-72924038D01*
X119478888Y-72914352D01*
X119508400Y-72910535D01*
X119539315Y-72911066D01*
X119571632Y-72915945D01*
X119932868Y-72990683D01*
X119955830Y-72996440D01*
X119986654Y-73007685D01*
X120015936Y-73022647D01*
X120043676Y-73041325D01*
X120066224Y-73060293D01*
X120073323Y-73067025D01*
X120094560Y-73091308D01*
X120110188Y-73116713D01*
X120121179Y-73147121D01*
X120124842Y-73178995D01*
X120124842Y-73532170D01*
X120122756Y-73555663D01*
X120111801Y-73586266D01*
X120091458Y-73611304D01*
X120065491Y-73628890D01*
X120054215Y-73634248D01*
X120022696Y-73644506D01*
X119993389Y-73648674D01*
X119962469Y-73648353D01*
X119929937Y-73643545D01*
X119806838Y-73617899D01*
X119935799Y-74121284D01*
X119952107Y-74124204D01*
X119984210Y-74128881D01*
X120015626Y-74132006D01*
X120046355Y-74133580D01*
X120076397Y-74133603D01*
X120105751Y-74132075D01*
X120148496Y-74126873D01*
X120189695Y-74118182D01*
X120229348Y-74105999D01*
X120267456Y-74090326D01*
X120304018Y-74071163D01*
X120339034Y-74048509D01*
X120372505Y-74022365D01*
X120393622Y-74003360D01*
X120422744Y-73973307D01*
X120448800Y-73941399D01*
X120471791Y-73907636D01*
X120491716Y-73872018D01*
X120508576Y-73834546D01*
X120522371Y-73795219D01*
X120533100Y-73754038D01*
X120540763Y-73711001D01*
X120544169Y-73681280D01*
X120546213Y-73650734D01*
X120546894Y-73619364D01*
X120546894Y-73266189D01*
X120546193Y-73234525D01*
X120544089Y-73203095D01*
X120540583Y-73171899D01*
X120535674Y-73140939D01*
X120529363Y-73110213D01*
X120521649Y-73079721D01*
X120512533Y-73049465D01*
X120502015Y-73019443D01*
X120490093Y-72989656D01*
X120476770Y-72960103D01*
X120462044Y-72930786D01*
X120445915Y-72901703D01*
X120428384Y-72872854D01*
X120409450Y-72844241D01*
X120389114Y-72815862D01*
X120367376Y-72787718D01*
X120344632Y-72760269D01*
X120321282Y-72734160D01*
X120297326Y-72709390D01*
X120272762Y-72685960D01*
X120247592Y-72663869D01*
X120221815Y-72643118D01*
X120195431Y-72623707D01*
X120168440Y-72605635D01*
X120140842Y-72588902D01*
X120112638Y-72573509D01*
X120083827Y-72559455D01*
X120054409Y-72546741D01*
X120024384Y-72535367D01*
X119993753Y-72525332D01*
X119962514Y-72516637D01*
X119930669Y-72509281D01*
X119605338Y-72441870D01*
X119574077Y-72436245D01*
X119543674Y-72432562D01*
X119514130Y-72430819D01*
X119471425Y-72431843D01*
X119430651Y-72437233D01*
X119391809Y-72446989D01*
X119354899Y-72461112D01*
X119319922Y-72479602D01*
X119286876Y-72502457D01*
X119255762Y-72529679D01*
X119226580Y-72561267D01*
X119208199Y-72584752D01*
X119190834Y-72553837D01*
X119172444Y-72524473D01*
X119153030Y-72496661D01*
X119132591Y-72470400D01*
X119111127Y-72445691D01*
X119088638Y-72422533D01*
X119065125Y-72400926D01*
X119040587Y-72380870D01*
X119015025Y-72362366D01*
X118988438Y-72345413D01*
X118960826Y-72330011D01*
X118932189Y-72316161D01*
X118902528Y-72303862D01*
X118871842Y-72293114D01*
X118840132Y-72283918D01*
X118807397Y-72276273D01*
X118490125Y-72210327D01*
X118473858Y-72207138D01*
X118441819Y-72201958D01*
X118410437Y-72198374D01*
X118379714Y-72196388D01*
X118349649Y-72195998D01*
X118320243Y-72197206D01*
X118277368Y-72202013D01*
X118235973Y-72210413D01*
X118196061Y-72222406D01*
X118157629Y-72237993D01*
X118120678Y-72257173D01*
X118085209Y-72279947D01*
X118051221Y-72306315D01*
X118019532Y-72335394D01*
X117990960Y-72366301D01*
X117965504Y-72399038D01*
X117943166Y-72433604D01*
X117923945Y-72469998D01*
X117907841Y-72508222D01*
X117894853Y-72548274D01*
X117884983Y-72590156D01*
X117880134Y-72619093D01*
X117876671Y-72648843D01*
X117874593Y-72679405D01*
X117873900Y-72710781D01*
X117873900Y-73063956D01*
X117220329Y-73063956D01*
X117220329Y-71542428D01*
X121856990Y-71542428D01*
X121856990Y-93453571D01*
G37*
X140260000Y-71800000D02*
X138510000Y-70300000D01*
X147760000Y-92800000D02*
X149260000Y-93550000D01*
X153260000Y-97550000D02*
X152760000Y-97300000D01*
%TO.C,U3*%
X138072619Y-83061904D02*
X138882142Y-83061904D01*
X138882142Y-83061904D02*
X138977380Y-83014285D01*
X138977380Y-83014285D02*
X139025000Y-82966666D01*
X139025000Y-82966666D02*
X139072619Y-82871428D01*
X139072619Y-82871428D02*
X139072619Y-82680952D01*
X139072619Y-82680952D02*
X139025000Y-82585714D01*
X139025000Y-82585714D02*
X138977380Y-82538095D01*
X138977380Y-82538095D02*
X138882142Y-82490476D01*
X138882142Y-82490476D02*
X138072619Y-82490476D01*
X138072619Y-82109523D02*
X138072619Y-81490476D01*
X138072619Y-81490476D02*
X138453571Y-81823809D01*
X138453571Y-81823809D02*
X138453571Y-81680952D01*
X138453571Y-81680952D02*
X138501190Y-81585714D01*
X138501190Y-81585714D02*
X138548809Y-81538095D01*
X138548809Y-81538095D02*
X138644047Y-81490476D01*
X138644047Y-81490476D02*
X138882142Y-81490476D01*
X138882142Y-81490476D02*
X138977380Y-81538095D01*
X138977380Y-81538095D02*
X139025000Y-81585714D01*
X139025000Y-81585714D02*
X139072619Y-81680952D01*
X139072619Y-81680952D02*
X139072619Y-81966666D01*
X139072619Y-81966666D02*
X139025000Y-82061904D01*
X139025000Y-82061904D02*
X138977380Y-82109523D01*
%TO.C,J1*%
X156576666Y-111012619D02*
X156576666Y-111726904D01*
X156576666Y-111726904D02*
X156529047Y-111869761D01*
X156529047Y-111869761D02*
X156433809Y-111965000D01*
X156433809Y-111965000D02*
X156290952Y-112012619D01*
X156290952Y-112012619D02*
X156195714Y-112012619D01*
X157576666Y-112012619D02*
X157005238Y-112012619D01*
X157290952Y-112012619D02*
X157290952Y-111012619D01*
X157290952Y-111012619D02*
X157195714Y-111155476D01*
X157195714Y-111155476D02*
X157100476Y-111250714D01*
X157100476Y-111250714D02*
X157005238Y-111298333D01*
%TO.C,C19*%
X166117380Y-142092857D02*
X166165000Y-142140476D01*
X166165000Y-142140476D02*
X166212619Y-142283333D01*
X166212619Y-142283333D02*
X166212619Y-142378571D01*
X166212619Y-142378571D02*
X166165000Y-142521428D01*
X166165000Y-142521428D02*
X166069761Y-142616666D01*
X166069761Y-142616666D02*
X165974523Y-142664285D01*
X165974523Y-142664285D02*
X165784047Y-142711904D01*
X165784047Y-142711904D02*
X165641190Y-142711904D01*
X165641190Y-142711904D02*
X165450714Y-142664285D01*
X165450714Y-142664285D02*
X165355476Y-142616666D01*
X165355476Y-142616666D02*
X165260238Y-142521428D01*
X165260238Y-142521428D02*
X165212619Y-142378571D01*
X165212619Y-142378571D02*
X165212619Y-142283333D01*
X165212619Y-142283333D02*
X165260238Y-142140476D01*
X165260238Y-142140476D02*
X165307857Y-142092857D01*
X166212619Y-141140476D02*
X166212619Y-141711904D01*
X166212619Y-141426190D02*
X165212619Y-141426190D01*
X165212619Y-141426190D02*
X165355476Y-141521428D01*
X165355476Y-141521428D02*
X165450714Y-141616666D01*
X165450714Y-141616666D02*
X165498333Y-141711904D01*
X166212619Y-140664285D02*
X166212619Y-140473809D01*
X166212619Y-140473809D02*
X166165000Y-140378571D01*
X166165000Y-140378571D02*
X166117380Y-140330952D01*
X166117380Y-140330952D02*
X165974523Y-140235714D01*
X165974523Y-140235714D02*
X165784047Y-140188095D01*
X165784047Y-140188095D02*
X165403095Y-140188095D01*
X165403095Y-140188095D02*
X165307857Y-140235714D01*
X165307857Y-140235714D02*
X165260238Y-140283333D01*
X165260238Y-140283333D02*
X165212619Y-140378571D01*
X165212619Y-140378571D02*
X165212619Y-140569047D01*
X165212619Y-140569047D02*
X165260238Y-140664285D01*
X165260238Y-140664285D02*
X165307857Y-140711904D01*
X165307857Y-140711904D02*
X165403095Y-140759523D01*
X165403095Y-140759523D02*
X165641190Y-140759523D01*
X165641190Y-140759523D02*
X165736428Y-140711904D01*
X165736428Y-140711904D02*
X165784047Y-140664285D01*
X165784047Y-140664285D02*
X165831666Y-140569047D01*
X165831666Y-140569047D02*
X165831666Y-140378571D01*
X165831666Y-140378571D02*
X165784047Y-140283333D01*
X165784047Y-140283333D02*
X165736428Y-140235714D01*
X165736428Y-140235714D02*
X165641190Y-140188095D01*
%TO.C,D1*%
X122261905Y-140462619D02*
X122261905Y-139462619D01*
X122261905Y-139462619D02*
X122500000Y-139462619D01*
X122500000Y-139462619D02*
X122642857Y-139510238D01*
X122642857Y-139510238D02*
X122738095Y-139605476D01*
X122738095Y-139605476D02*
X122785714Y-139700714D01*
X122785714Y-139700714D02*
X122833333Y-139891190D01*
X122833333Y-139891190D02*
X122833333Y-140034047D01*
X122833333Y-140034047D02*
X122785714Y-140224523D01*
X122785714Y-140224523D02*
X122738095Y-140319761D01*
X122738095Y-140319761D02*
X122642857Y-140415000D01*
X122642857Y-140415000D02*
X122500000Y-140462619D01*
X122500000Y-140462619D02*
X122261905Y-140462619D01*
X123785714Y-140462619D02*
X123214286Y-140462619D01*
X123500000Y-140462619D02*
X123500000Y-139462619D01*
X123500000Y-139462619D02*
X123404762Y-139605476D01*
X123404762Y-139605476D02*
X123309524Y-139700714D01*
X123309524Y-139700714D02*
X123214286Y-139748333D01*
%TO.C,R25*%
X157622619Y-136942857D02*
X157146428Y-137276190D01*
X157622619Y-137514285D02*
X156622619Y-137514285D01*
X156622619Y-137514285D02*
X156622619Y-137133333D01*
X156622619Y-137133333D02*
X156670238Y-137038095D01*
X156670238Y-137038095D02*
X156717857Y-136990476D01*
X156717857Y-136990476D02*
X156813095Y-136942857D01*
X156813095Y-136942857D02*
X156955952Y-136942857D01*
X156955952Y-136942857D02*
X157051190Y-136990476D01*
X157051190Y-136990476D02*
X157098809Y-137038095D01*
X157098809Y-137038095D02*
X157146428Y-137133333D01*
X157146428Y-137133333D02*
X157146428Y-137514285D01*
X156717857Y-136561904D02*
X156670238Y-136514285D01*
X156670238Y-136514285D02*
X156622619Y-136419047D01*
X156622619Y-136419047D02*
X156622619Y-136180952D01*
X156622619Y-136180952D02*
X156670238Y-136085714D01*
X156670238Y-136085714D02*
X156717857Y-136038095D01*
X156717857Y-136038095D02*
X156813095Y-135990476D01*
X156813095Y-135990476D02*
X156908333Y-135990476D01*
X156908333Y-135990476D02*
X157051190Y-136038095D01*
X157051190Y-136038095D02*
X157622619Y-136609523D01*
X157622619Y-136609523D02*
X157622619Y-135990476D01*
X156622619Y-135085714D02*
X156622619Y-135561904D01*
X156622619Y-135561904D02*
X157098809Y-135609523D01*
X157098809Y-135609523D02*
X157051190Y-135561904D01*
X157051190Y-135561904D02*
X157003571Y-135466666D01*
X157003571Y-135466666D02*
X157003571Y-135228571D01*
X157003571Y-135228571D02*
X157051190Y-135133333D01*
X157051190Y-135133333D02*
X157098809Y-135085714D01*
X157098809Y-135085714D02*
X157194047Y-135038095D01*
X157194047Y-135038095D02*
X157432142Y-135038095D01*
X157432142Y-135038095D02*
X157527380Y-135085714D01*
X157527380Y-135085714D02*
X157575000Y-135133333D01*
X157575000Y-135133333D02*
X157622619Y-135228571D01*
X157622619Y-135228571D02*
X157622619Y-135466666D01*
X157622619Y-135466666D02*
X157575000Y-135561904D01*
X157575000Y-135561904D02*
X157527380Y-135609523D01*
%TO.C,R26*%
X126322619Y-136942857D02*
X125846428Y-137276190D01*
X126322619Y-137514285D02*
X125322619Y-137514285D01*
X125322619Y-137514285D02*
X125322619Y-137133333D01*
X125322619Y-137133333D02*
X125370238Y-137038095D01*
X125370238Y-137038095D02*
X125417857Y-136990476D01*
X125417857Y-136990476D02*
X125513095Y-136942857D01*
X125513095Y-136942857D02*
X125655952Y-136942857D01*
X125655952Y-136942857D02*
X125751190Y-136990476D01*
X125751190Y-136990476D02*
X125798809Y-137038095D01*
X125798809Y-137038095D02*
X125846428Y-137133333D01*
X125846428Y-137133333D02*
X125846428Y-137514285D01*
X125417857Y-136561904D02*
X125370238Y-136514285D01*
X125370238Y-136514285D02*
X125322619Y-136419047D01*
X125322619Y-136419047D02*
X125322619Y-136180952D01*
X125322619Y-136180952D02*
X125370238Y-136085714D01*
X125370238Y-136085714D02*
X125417857Y-136038095D01*
X125417857Y-136038095D02*
X125513095Y-135990476D01*
X125513095Y-135990476D02*
X125608333Y-135990476D01*
X125608333Y-135990476D02*
X125751190Y-136038095D01*
X125751190Y-136038095D02*
X126322619Y-136609523D01*
X126322619Y-136609523D02*
X126322619Y-135990476D01*
X125322619Y-135133333D02*
X125322619Y-135323809D01*
X125322619Y-135323809D02*
X125370238Y-135419047D01*
X125370238Y-135419047D02*
X125417857Y-135466666D01*
X125417857Y-135466666D02*
X125560714Y-135561904D01*
X125560714Y-135561904D02*
X125751190Y-135609523D01*
X125751190Y-135609523D02*
X126132142Y-135609523D01*
X126132142Y-135609523D02*
X126227380Y-135561904D01*
X126227380Y-135561904D02*
X126275000Y-135514285D01*
X126275000Y-135514285D02*
X126322619Y-135419047D01*
X126322619Y-135419047D02*
X126322619Y-135228571D01*
X126322619Y-135228571D02*
X126275000Y-135133333D01*
X126275000Y-135133333D02*
X126227380Y-135085714D01*
X126227380Y-135085714D02*
X126132142Y-135038095D01*
X126132142Y-135038095D02*
X125894047Y-135038095D01*
X125894047Y-135038095D02*
X125798809Y-135085714D01*
X125798809Y-135085714D02*
X125751190Y-135133333D01*
X125751190Y-135133333D02*
X125703571Y-135228571D01*
X125703571Y-135228571D02*
X125703571Y-135419047D01*
X125703571Y-135419047D02*
X125751190Y-135514285D01*
X125751190Y-135514285D02*
X125798809Y-135561904D01*
X125798809Y-135561904D02*
X125894047Y-135609523D01*
%TO.C,R27*%
X133112619Y-136942857D02*
X132636428Y-137276190D01*
X133112619Y-137514285D02*
X132112619Y-137514285D01*
X132112619Y-137514285D02*
X132112619Y-137133333D01*
X132112619Y-137133333D02*
X132160238Y-137038095D01*
X132160238Y-137038095D02*
X132207857Y-136990476D01*
X132207857Y-136990476D02*
X132303095Y-136942857D01*
X132303095Y-136942857D02*
X132445952Y-136942857D01*
X132445952Y-136942857D02*
X132541190Y-136990476D01*
X132541190Y-136990476D02*
X132588809Y-137038095D01*
X132588809Y-137038095D02*
X132636428Y-137133333D01*
X132636428Y-137133333D02*
X132636428Y-137514285D01*
X132207857Y-136561904D02*
X132160238Y-136514285D01*
X132160238Y-136514285D02*
X132112619Y-136419047D01*
X132112619Y-136419047D02*
X132112619Y-136180952D01*
X132112619Y-136180952D02*
X132160238Y-136085714D01*
X132160238Y-136085714D02*
X132207857Y-136038095D01*
X132207857Y-136038095D02*
X132303095Y-135990476D01*
X132303095Y-135990476D02*
X132398333Y-135990476D01*
X132398333Y-135990476D02*
X132541190Y-136038095D01*
X132541190Y-136038095D02*
X133112619Y-136609523D01*
X133112619Y-136609523D02*
X133112619Y-135990476D01*
X132112619Y-135657142D02*
X132112619Y-134990476D01*
X132112619Y-134990476D02*
X133112619Y-135419047D01*
%TO.C,C18*%
X160407142Y-133687380D02*
X160359523Y-133735000D01*
X160359523Y-133735000D02*
X160216666Y-133782619D01*
X160216666Y-133782619D02*
X160121428Y-133782619D01*
X160121428Y-133782619D02*
X159978571Y-133735000D01*
X159978571Y-133735000D02*
X159883333Y-133639761D01*
X159883333Y-133639761D02*
X159835714Y-133544523D01*
X159835714Y-133544523D02*
X159788095Y-133354047D01*
X159788095Y-133354047D02*
X159788095Y-133211190D01*
X159788095Y-133211190D02*
X159835714Y-133020714D01*
X159835714Y-133020714D02*
X159883333Y-132925476D01*
X159883333Y-132925476D02*
X159978571Y-132830238D01*
X159978571Y-132830238D02*
X160121428Y-132782619D01*
X160121428Y-132782619D02*
X160216666Y-132782619D01*
X160216666Y-132782619D02*
X160359523Y-132830238D01*
X160359523Y-132830238D02*
X160407142Y-132877857D01*
X161359523Y-133782619D02*
X160788095Y-133782619D01*
X161073809Y-133782619D02*
X161073809Y-132782619D01*
X161073809Y-132782619D02*
X160978571Y-132925476D01*
X160978571Y-132925476D02*
X160883333Y-133020714D01*
X160883333Y-133020714D02*
X160788095Y-133068333D01*
X161930952Y-133211190D02*
X161835714Y-133163571D01*
X161835714Y-133163571D02*
X161788095Y-133115952D01*
X161788095Y-133115952D02*
X161740476Y-133020714D01*
X161740476Y-133020714D02*
X161740476Y-132973095D01*
X161740476Y-132973095D02*
X161788095Y-132877857D01*
X161788095Y-132877857D02*
X161835714Y-132830238D01*
X161835714Y-132830238D02*
X161930952Y-132782619D01*
X161930952Y-132782619D02*
X162121428Y-132782619D01*
X162121428Y-132782619D02*
X162216666Y-132830238D01*
X162216666Y-132830238D02*
X162264285Y-132877857D01*
X162264285Y-132877857D02*
X162311904Y-132973095D01*
X162311904Y-132973095D02*
X162311904Y-133020714D01*
X162311904Y-133020714D02*
X162264285Y-133115952D01*
X162264285Y-133115952D02*
X162216666Y-133163571D01*
X162216666Y-133163571D02*
X162121428Y-133211190D01*
X162121428Y-133211190D02*
X161930952Y-133211190D01*
X161930952Y-133211190D02*
X161835714Y-133258809D01*
X161835714Y-133258809D02*
X161788095Y-133306428D01*
X161788095Y-133306428D02*
X161740476Y-133401666D01*
X161740476Y-133401666D02*
X161740476Y-133592142D01*
X161740476Y-133592142D02*
X161788095Y-133687380D01*
X161788095Y-133687380D02*
X161835714Y-133735000D01*
X161835714Y-133735000D02*
X161930952Y-133782619D01*
X161930952Y-133782619D02*
X162121428Y-133782619D01*
X162121428Y-133782619D02*
X162216666Y-133735000D01*
X162216666Y-133735000D02*
X162264285Y-133687380D01*
X162264285Y-133687380D02*
X162311904Y-133592142D01*
X162311904Y-133592142D02*
X162311904Y-133401666D01*
X162311904Y-133401666D02*
X162264285Y-133306428D01*
X162264285Y-133306428D02*
X162216666Y-133258809D01*
X162216666Y-133258809D02*
X162121428Y-133211190D01*
%TO.C,J4*%
X128326666Y-133242619D02*
X128326666Y-133956904D01*
X128326666Y-133956904D02*
X128279047Y-134099761D01*
X128279047Y-134099761D02*
X128183809Y-134195000D01*
X128183809Y-134195000D02*
X128040952Y-134242619D01*
X128040952Y-134242619D02*
X127945714Y-134242619D01*
X129231428Y-133575952D02*
X129231428Y-134242619D01*
X128993333Y-133195000D02*
X128755238Y-133909285D01*
X128755238Y-133909285D02*
X129374285Y-133909285D01*
%TO.C,J2*%
X134176666Y-52682619D02*
X134176666Y-53396904D01*
X134176666Y-53396904D02*
X134129047Y-53539761D01*
X134129047Y-53539761D02*
X134033809Y-53635000D01*
X134033809Y-53635000D02*
X133890952Y-53682619D01*
X133890952Y-53682619D02*
X133795714Y-53682619D01*
X134605238Y-52777857D02*
X134652857Y-52730238D01*
X134652857Y-52730238D02*
X134748095Y-52682619D01*
X134748095Y-52682619D02*
X134986190Y-52682619D01*
X134986190Y-52682619D02*
X135081428Y-52730238D01*
X135081428Y-52730238D02*
X135129047Y-52777857D01*
X135129047Y-52777857D02*
X135176666Y-52873095D01*
X135176666Y-52873095D02*
X135176666Y-52968333D01*
X135176666Y-52968333D02*
X135129047Y-53111190D01*
X135129047Y-53111190D02*
X134557619Y-53682619D01*
X134557619Y-53682619D02*
X135176666Y-53682619D01*
%TO.C,R1*%
X135843333Y-90012619D02*
X135510000Y-89536428D01*
X135271905Y-90012619D02*
X135271905Y-89012619D01*
X135271905Y-89012619D02*
X135652857Y-89012619D01*
X135652857Y-89012619D02*
X135748095Y-89060238D01*
X135748095Y-89060238D02*
X135795714Y-89107857D01*
X135795714Y-89107857D02*
X135843333Y-89203095D01*
X135843333Y-89203095D02*
X135843333Y-89345952D01*
X135843333Y-89345952D02*
X135795714Y-89441190D01*
X135795714Y-89441190D02*
X135748095Y-89488809D01*
X135748095Y-89488809D02*
X135652857Y-89536428D01*
X135652857Y-89536428D02*
X135271905Y-89536428D01*
X136795714Y-90012619D02*
X136224286Y-90012619D01*
X136510000Y-90012619D02*
X136510000Y-89012619D01*
X136510000Y-89012619D02*
X136414762Y-89155476D01*
X136414762Y-89155476D02*
X136319524Y-89250714D01*
X136319524Y-89250714D02*
X136224286Y-89298333D01*
%TO.C,RV2*%
X118332619Y-61160238D02*
X117856428Y-61493571D01*
X118332619Y-61731666D02*
X117332619Y-61731666D01*
X117332619Y-61731666D02*
X117332619Y-61350714D01*
X117332619Y-61350714D02*
X117380238Y-61255476D01*
X117380238Y-61255476D02*
X117427857Y-61207857D01*
X117427857Y-61207857D02*
X117523095Y-61160238D01*
X117523095Y-61160238D02*
X117665952Y-61160238D01*
X117665952Y-61160238D02*
X117761190Y-61207857D01*
X117761190Y-61207857D02*
X117808809Y-61255476D01*
X117808809Y-61255476D02*
X117856428Y-61350714D01*
X117856428Y-61350714D02*
X117856428Y-61731666D01*
X117332619Y-60874523D02*
X118332619Y-60541190D01*
X118332619Y-60541190D02*
X117332619Y-60207857D01*
X117427857Y-59922142D02*
X117380238Y-59874523D01*
X117380238Y-59874523D02*
X117332619Y-59779285D01*
X117332619Y-59779285D02*
X117332619Y-59541190D01*
X117332619Y-59541190D02*
X117380238Y-59445952D01*
X117380238Y-59445952D02*
X117427857Y-59398333D01*
X117427857Y-59398333D02*
X117523095Y-59350714D01*
X117523095Y-59350714D02*
X117618333Y-59350714D01*
X117618333Y-59350714D02*
X117761190Y-59398333D01*
X117761190Y-59398333D02*
X118332619Y-59969761D01*
X118332619Y-59969761D02*
X118332619Y-59350714D01*
%TO.C,C8*%
X160343333Y-95667380D02*
X160295714Y-95715000D01*
X160295714Y-95715000D02*
X160152857Y-95762619D01*
X160152857Y-95762619D02*
X160057619Y-95762619D01*
X160057619Y-95762619D02*
X159914762Y-95715000D01*
X159914762Y-95715000D02*
X159819524Y-95619761D01*
X159819524Y-95619761D02*
X159771905Y-95524523D01*
X159771905Y-95524523D02*
X159724286Y-95334047D01*
X159724286Y-95334047D02*
X159724286Y-95191190D01*
X159724286Y-95191190D02*
X159771905Y-95000714D01*
X159771905Y-95000714D02*
X159819524Y-94905476D01*
X159819524Y-94905476D02*
X159914762Y-94810238D01*
X159914762Y-94810238D02*
X160057619Y-94762619D01*
X160057619Y-94762619D02*
X160152857Y-94762619D01*
X160152857Y-94762619D02*
X160295714Y-94810238D01*
X160295714Y-94810238D02*
X160343333Y-94857857D01*
X160914762Y-95191190D02*
X160819524Y-95143571D01*
X160819524Y-95143571D02*
X160771905Y-95095952D01*
X160771905Y-95095952D02*
X160724286Y-95000714D01*
X160724286Y-95000714D02*
X160724286Y-94953095D01*
X160724286Y-94953095D02*
X160771905Y-94857857D01*
X160771905Y-94857857D02*
X160819524Y-94810238D01*
X160819524Y-94810238D02*
X160914762Y-94762619D01*
X160914762Y-94762619D02*
X161105238Y-94762619D01*
X161105238Y-94762619D02*
X161200476Y-94810238D01*
X161200476Y-94810238D02*
X161248095Y-94857857D01*
X161248095Y-94857857D02*
X161295714Y-94953095D01*
X161295714Y-94953095D02*
X161295714Y-95000714D01*
X161295714Y-95000714D02*
X161248095Y-95095952D01*
X161248095Y-95095952D02*
X161200476Y-95143571D01*
X161200476Y-95143571D02*
X161105238Y-95191190D01*
X161105238Y-95191190D02*
X160914762Y-95191190D01*
X160914762Y-95191190D02*
X160819524Y-95238809D01*
X160819524Y-95238809D02*
X160771905Y-95286428D01*
X160771905Y-95286428D02*
X160724286Y-95381666D01*
X160724286Y-95381666D02*
X160724286Y-95572142D01*
X160724286Y-95572142D02*
X160771905Y-95667380D01*
X160771905Y-95667380D02*
X160819524Y-95715000D01*
X160819524Y-95715000D02*
X160914762Y-95762619D01*
X160914762Y-95762619D02*
X161105238Y-95762619D01*
X161105238Y-95762619D02*
X161200476Y-95715000D01*
X161200476Y-95715000D02*
X161248095Y-95667380D01*
X161248095Y-95667380D02*
X161295714Y-95572142D01*
X161295714Y-95572142D02*
X161295714Y-95381666D01*
X161295714Y-95381666D02*
X161248095Y-95286428D01*
X161248095Y-95286428D02*
X161200476Y-95238809D01*
X161200476Y-95238809D02*
X161105238Y-95191190D01*
%TO.C,C3*%
X133627381Y-78716666D02*
X133675001Y-78764285D01*
X133675001Y-78764285D02*
X133722620Y-78907142D01*
X133722620Y-78907142D02*
X133722620Y-79002380D01*
X133722620Y-79002380D02*
X133675001Y-79145237D01*
X133675001Y-79145237D02*
X133579762Y-79240475D01*
X133579762Y-79240475D02*
X133484524Y-79288094D01*
X133484524Y-79288094D02*
X133294048Y-79335713D01*
X133294048Y-79335713D02*
X133151191Y-79335713D01*
X133151191Y-79335713D02*
X132960715Y-79288094D01*
X132960715Y-79288094D02*
X132865477Y-79240475D01*
X132865477Y-79240475D02*
X132770239Y-79145237D01*
X132770239Y-79145237D02*
X132722620Y-79002380D01*
X132722620Y-79002380D02*
X132722620Y-78907142D01*
X132722620Y-78907142D02*
X132770239Y-78764285D01*
X132770239Y-78764285D02*
X132817858Y-78716666D01*
X132722620Y-78383332D02*
X132722620Y-77764285D01*
X132722620Y-77764285D02*
X133103572Y-78097618D01*
X133103572Y-78097618D02*
X133103572Y-77954761D01*
X133103572Y-77954761D02*
X133151191Y-77859523D01*
X133151191Y-77859523D02*
X133198810Y-77811904D01*
X133198810Y-77811904D02*
X133294048Y-77764285D01*
X133294048Y-77764285D02*
X133532143Y-77764285D01*
X133532143Y-77764285D02*
X133627381Y-77811904D01*
X133627381Y-77811904D02*
X133675001Y-77859523D01*
X133675001Y-77859523D02*
X133722620Y-77954761D01*
X133722620Y-77954761D02*
X133722620Y-78240475D01*
X133722620Y-78240475D02*
X133675001Y-78335713D01*
X133675001Y-78335713D02*
X133627381Y-78383332D01*
%TO.C,R15*%
X154117142Y-100012619D02*
X153783809Y-99536428D01*
X153545714Y-100012619D02*
X153545714Y-99012619D01*
X153545714Y-99012619D02*
X153926666Y-99012619D01*
X153926666Y-99012619D02*
X154021904Y-99060238D01*
X154021904Y-99060238D02*
X154069523Y-99107857D01*
X154069523Y-99107857D02*
X154117142Y-99203095D01*
X154117142Y-99203095D02*
X154117142Y-99345952D01*
X154117142Y-99345952D02*
X154069523Y-99441190D01*
X154069523Y-99441190D02*
X154021904Y-99488809D01*
X154021904Y-99488809D02*
X153926666Y-99536428D01*
X153926666Y-99536428D02*
X153545714Y-99536428D01*
X155069523Y-100012619D02*
X154498095Y-100012619D01*
X154783809Y-100012619D02*
X154783809Y-99012619D01*
X154783809Y-99012619D02*
X154688571Y-99155476D01*
X154688571Y-99155476D02*
X154593333Y-99250714D01*
X154593333Y-99250714D02*
X154498095Y-99298333D01*
X155974285Y-99012619D02*
X155498095Y-99012619D01*
X155498095Y-99012619D02*
X155450476Y-99488809D01*
X155450476Y-99488809D02*
X155498095Y-99441190D01*
X155498095Y-99441190D02*
X155593333Y-99393571D01*
X155593333Y-99393571D02*
X155831428Y-99393571D01*
X155831428Y-99393571D02*
X155926666Y-99441190D01*
X155926666Y-99441190D02*
X155974285Y-99488809D01*
X155974285Y-99488809D02*
X156021904Y-99584047D01*
X156021904Y-99584047D02*
X156021904Y-99822142D01*
X156021904Y-99822142D02*
X155974285Y-99917380D01*
X155974285Y-99917380D02*
X155926666Y-99965000D01*
X155926666Y-99965000D02*
X155831428Y-100012619D01*
X155831428Y-100012619D02*
X155593333Y-100012619D01*
X155593333Y-100012619D02*
X155498095Y-99965000D01*
X155498095Y-99965000D02*
X155450476Y-99917380D01*
%TO.C,R14*%
X153622619Y-80942857D02*
X153146428Y-81276190D01*
X153622619Y-81514285D02*
X152622619Y-81514285D01*
X152622619Y-81514285D02*
X152622619Y-81133333D01*
X152622619Y-81133333D02*
X152670238Y-81038095D01*
X152670238Y-81038095D02*
X152717857Y-80990476D01*
X152717857Y-80990476D02*
X152813095Y-80942857D01*
X152813095Y-80942857D02*
X152955952Y-80942857D01*
X152955952Y-80942857D02*
X153051190Y-80990476D01*
X153051190Y-80990476D02*
X153098809Y-81038095D01*
X153098809Y-81038095D02*
X153146428Y-81133333D01*
X153146428Y-81133333D02*
X153146428Y-81514285D01*
X153622619Y-79990476D02*
X153622619Y-80561904D01*
X153622619Y-80276190D02*
X152622619Y-80276190D01*
X152622619Y-80276190D02*
X152765476Y-80371428D01*
X152765476Y-80371428D02*
X152860714Y-80466666D01*
X152860714Y-80466666D02*
X152908333Y-80561904D01*
X152955952Y-79133333D02*
X153622619Y-79133333D01*
X152575000Y-79371428D02*
X153289285Y-79609523D01*
X153289285Y-79609523D02*
X153289285Y-78990476D01*
%TO.C,R17*%
X146367142Y-102762619D02*
X146033809Y-102286428D01*
X145795714Y-102762619D02*
X145795714Y-101762619D01*
X145795714Y-101762619D02*
X146176666Y-101762619D01*
X146176666Y-101762619D02*
X146271904Y-101810238D01*
X146271904Y-101810238D02*
X146319523Y-101857857D01*
X146319523Y-101857857D02*
X146367142Y-101953095D01*
X146367142Y-101953095D02*
X146367142Y-102095952D01*
X146367142Y-102095952D02*
X146319523Y-102191190D01*
X146319523Y-102191190D02*
X146271904Y-102238809D01*
X146271904Y-102238809D02*
X146176666Y-102286428D01*
X146176666Y-102286428D02*
X145795714Y-102286428D01*
X147319523Y-102762619D02*
X146748095Y-102762619D01*
X147033809Y-102762619D02*
X147033809Y-101762619D01*
X147033809Y-101762619D02*
X146938571Y-101905476D01*
X146938571Y-101905476D02*
X146843333Y-102000714D01*
X146843333Y-102000714D02*
X146748095Y-102048333D01*
X147652857Y-101762619D02*
X148319523Y-101762619D01*
X148319523Y-101762619D02*
X147890952Y-102762619D01*
%TO.C,C16*%
X142867142Y-102417380D02*
X142819523Y-102465000D01*
X142819523Y-102465000D02*
X142676666Y-102512619D01*
X142676666Y-102512619D02*
X142581428Y-102512619D01*
X142581428Y-102512619D02*
X142438571Y-102465000D01*
X142438571Y-102465000D02*
X142343333Y-102369761D01*
X142343333Y-102369761D02*
X142295714Y-102274523D01*
X142295714Y-102274523D02*
X142248095Y-102084047D01*
X142248095Y-102084047D02*
X142248095Y-101941190D01*
X142248095Y-101941190D02*
X142295714Y-101750714D01*
X142295714Y-101750714D02*
X142343333Y-101655476D01*
X142343333Y-101655476D02*
X142438571Y-101560238D01*
X142438571Y-101560238D02*
X142581428Y-101512619D01*
X142581428Y-101512619D02*
X142676666Y-101512619D01*
X142676666Y-101512619D02*
X142819523Y-101560238D01*
X142819523Y-101560238D02*
X142867142Y-101607857D01*
X143819523Y-102512619D02*
X143248095Y-102512619D01*
X143533809Y-102512619D02*
X143533809Y-101512619D01*
X143533809Y-101512619D02*
X143438571Y-101655476D01*
X143438571Y-101655476D02*
X143343333Y-101750714D01*
X143343333Y-101750714D02*
X143248095Y-101798333D01*
X144676666Y-101512619D02*
X144486190Y-101512619D01*
X144486190Y-101512619D02*
X144390952Y-101560238D01*
X144390952Y-101560238D02*
X144343333Y-101607857D01*
X144343333Y-101607857D02*
X144248095Y-101750714D01*
X144248095Y-101750714D02*
X144200476Y-101941190D01*
X144200476Y-101941190D02*
X144200476Y-102322142D01*
X144200476Y-102322142D02*
X144248095Y-102417380D01*
X144248095Y-102417380D02*
X144295714Y-102465000D01*
X144295714Y-102465000D02*
X144390952Y-102512619D01*
X144390952Y-102512619D02*
X144581428Y-102512619D01*
X144581428Y-102512619D02*
X144676666Y-102465000D01*
X144676666Y-102465000D02*
X144724285Y-102417380D01*
X144724285Y-102417380D02*
X144771904Y-102322142D01*
X144771904Y-102322142D02*
X144771904Y-102084047D01*
X144771904Y-102084047D02*
X144724285Y-101988809D01*
X144724285Y-101988809D02*
X144676666Y-101941190D01*
X144676666Y-101941190D02*
X144581428Y-101893571D01*
X144581428Y-101893571D02*
X144390952Y-101893571D01*
X144390952Y-101893571D02*
X144295714Y-101941190D01*
X144295714Y-101941190D02*
X144248095Y-101988809D01*
X144248095Y-101988809D02*
X144200476Y-102084047D01*
%TO.C,R7*%
X159843333Y-92262619D02*
X159510000Y-91786428D01*
X159271905Y-92262619D02*
X159271905Y-91262619D01*
X159271905Y-91262619D02*
X159652857Y-91262619D01*
X159652857Y-91262619D02*
X159748095Y-91310238D01*
X159748095Y-91310238D02*
X159795714Y-91357857D01*
X159795714Y-91357857D02*
X159843333Y-91453095D01*
X159843333Y-91453095D02*
X159843333Y-91595952D01*
X159843333Y-91595952D02*
X159795714Y-91691190D01*
X159795714Y-91691190D02*
X159748095Y-91738809D01*
X159748095Y-91738809D02*
X159652857Y-91786428D01*
X159652857Y-91786428D02*
X159271905Y-91786428D01*
X160176667Y-91262619D02*
X160843333Y-91262619D01*
X160843333Y-91262619D02*
X160414762Y-92262619D01*
%TO.C,RV1*%
X153782619Y-61435238D02*
X153306428Y-61768571D01*
X153782619Y-62006666D02*
X152782619Y-62006666D01*
X152782619Y-62006666D02*
X152782619Y-61625714D01*
X152782619Y-61625714D02*
X152830238Y-61530476D01*
X152830238Y-61530476D02*
X152877857Y-61482857D01*
X152877857Y-61482857D02*
X152973095Y-61435238D01*
X152973095Y-61435238D02*
X153115952Y-61435238D01*
X153115952Y-61435238D02*
X153211190Y-61482857D01*
X153211190Y-61482857D02*
X153258809Y-61530476D01*
X153258809Y-61530476D02*
X153306428Y-61625714D01*
X153306428Y-61625714D02*
X153306428Y-62006666D01*
X152782619Y-61149523D02*
X153782619Y-60816190D01*
X153782619Y-60816190D02*
X152782619Y-60482857D01*
X153782619Y-59625714D02*
X153782619Y-60197142D01*
X153782619Y-59911428D02*
X152782619Y-59911428D01*
X152782619Y-59911428D02*
X152925476Y-60006666D01*
X152925476Y-60006666D02*
X153020714Y-60101904D01*
X153020714Y-60101904D02*
X153068333Y-60197142D01*
%TO.C,C5*%
X125627380Y-87216666D02*
X125675000Y-87264285D01*
X125675000Y-87264285D02*
X125722619Y-87407142D01*
X125722619Y-87407142D02*
X125722619Y-87502380D01*
X125722619Y-87502380D02*
X125675000Y-87645237D01*
X125675000Y-87645237D02*
X125579761Y-87740475D01*
X125579761Y-87740475D02*
X125484523Y-87788094D01*
X125484523Y-87788094D02*
X125294047Y-87835713D01*
X125294047Y-87835713D02*
X125151190Y-87835713D01*
X125151190Y-87835713D02*
X124960714Y-87788094D01*
X124960714Y-87788094D02*
X124865476Y-87740475D01*
X124865476Y-87740475D02*
X124770238Y-87645237D01*
X124770238Y-87645237D02*
X124722619Y-87502380D01*
X124722619Y-87502380D02*
X124722619Y-87407142D01*
X124722619Y-87407142D02*
X124770238Y-87264285D01*
X124770238Y-87264285D02*
X124817857Y-87216666D01*
X124722619Y-86311904D02*
X124722619Y-86788094D01*
X124722619Y-86788094D02*
X125198809Y-86835713D01*
X125198809Y-86835713D02*
X125151190Y-86788094D01*
X125151190Y-86788094D02*
X125103571Y-86692856D01*
X125103571Y-86692856D02*
X125103571Y-86454761D01*
X125103571Y-86454761D02*
X125151190Y-86359523D01*
X125151190Y-86359523D02*
X125198809Y-86311904D01*
X125198809Y-86311904D02*
X125294047Y-86264285D01*
X125294047Y-86264285D02*
X125532142Y-86264285D01*
X125532142Y-86264285D02*
X125627380Y-86311904D01*
X125627380Y-86311904D02*
X125675000Y-86359523D01*
X125675000Y-86359523D02*
X125722619Y-86454761D01*
X125722619Y-86454761D02*
X125722619Y-86692856D01*
X125722619Y-86692856D02*
X125675000Y-86788094D01*
X125675000Y-86788094D02*
X125627380Y-86835713D01*
%TO.C,Q2*%
X162914761Y-87357857D02*
X162819523Y-87310238D01*
X162819523Y-87310238D02*
X162724285Y-87215000D01*
X162724285Y-87215000D02*
X162581428Y-87072142D01*
X162581428Y-87072142D02*
X162486190Y-87024523D01*
X162486190Y-87024523D02*
X162390952Y-87024523D01*
X162438571Y-87262619D02*
X162343333Y-87215000D01*
X162343333Y-87215000D02*
X162248095Y-87119761D01*
X162248095Y-87119761D02*
X162200476Y-86929285D01*
X162200476Y-86929285D02*
X162200476Y-86595952D01*
X162200476Y-86595952D02*
X162248095Y-86405476D01*
X162248095Y-86405476D02*
X162343333Y-86310238D01*
X162343333Y-86310238D02*
X162438571Y-86262619D01*
X162438571Y-86262619D02*
X162629047Y-86262619D01*
X162629047Y-86262619D02*
X162724285Y-86310238D01*
X162724285Y-86310238D02*
X162819523Y-86405476D01*
X162819523Y-86405476D02*
X162867142Y-86595952D01*
X162867142Y-86595952D02*
X162867142Y-86929285D01*
X162867142Y-86929285D02*
X162819523Y-87119761D01*
X162819523Y-87119761D02*
X162724285Y-87215000D01*
X162724285Y-87215000D02*
X162629047Y-87262619D01*
X162629047Y-87262619D02*
X162438571Y-87262619D01*
X163248095Y-86357857D02*
X163295714Y-86310238D01*
X163295714Y-86310238D02*
X163390952Y-86262619D01*
X163390952Y-86262619D02*
X163629047Y-86262619D01*
X163629047Y-86262619D02*
X163724285Y-86310238D01*
X163724285Y-86310238D02*
X163771904Y-86357857D01*
X163771904Y-86357857D02*
X163819523Y-86453095D01*
X163819523Y-86453095D02*
X163819523Y-86548333D01*
X163819523Y-86548333D02*
X163771904Y-86691190D01*
X163771904Y-86691190D02*
X163200476Y-87262619D01*
X163200476Y-87262619D02*
X163819523Y-87262619D01*
%TO.C,C6*%
X163343333Y-95735001D02*
X163295714Y-95782621D01*
X163295714Y-95782621D02*
X163152857Y-95830240D01*
X163152857Y-95830240D02*
X163057619Y-95830240D01*
X163057619Y-95830240D02*
X162914762Y-95782621D01*
X162914762Y-95782621D02*
X162819524Y-95687382D01*
X162819524Y-95687382D02*
X162771905Y-95592144D01*
X162771905Y-95592144D02*
X162724286Y-95401668D01*
X162724286Y-95401668D02*
X162724286Y-95258811D01*
X162724286Y-95258811D02*
X162771905Y-95068335D01*
X162771905Y-95068335D02*
X162819524Y-94973097D01*
X162819524Y-94973097D02*
X162914762Y-94877859D01*
X162914762Y-94877859D02*
X163057619Y-94830240D01*
X163057619Y-94830240D02*
X163152857Y-94830240D01*
X163152857Y-94830240D02*
X163295714Y-94877859D01*
X163295714Y-94877859D02*
X163343333Y-94925478D01*
X164200476Y-94830240D02*
X164010000Y-94830240D01*
X164010000Y-94830240D02*
X163914762Y-94877859D01*
X163914762Y-94877859D02*
X163867143Y-94925478D01*
X163867143Y-94925478D02*
X163771905Y-95068335D01*
X163771905Y-95068335D02*
X163724286Y-95258811D01*
X163724286Y-95258811D02*
X163724286Y-95639763D01*
X163724286Y-95639763D02*
X163771905Y-95735001D01*
X163771905Y-95735001D02*
X163819524Y-95782621D01*
X163819524Y-95782621D02*
X163914762Y-95830240D01*
X163914762Y-95830240D02*
X164105238Y-95830240D01*
X164105238Y-95830240D02*
X164200476Y-95782621D01*
X164200476Y-95782621D02*
X164248095Y-95735001D01*
X164248095Y-95735001D02*
X164295714Y-95639763D01*
X164295714Y-95639763D02*
X164295714Y-95401668D01*
X164295714Y-95401668D02*
X164248095Y-95306430D01*
X164248095Y-95306430D02*
X164200476Y-95258811D01*
X164200476Y-95258811D02*
X164105238Y-95211192D01*
X164105238Y-95211192D02*
X163914762Y-95211192D01*
X163914762Y-95211192D02*
X163819524Y-95258811D01*
X163819524Y-95258811D02*
X163771905Y-95306430D01*
X163771905Y-95306430D02*
X163724286Y-95401668D01*
%TO.C,R11*%
X154117142Y-98662619D02*
X153783809Y-98186428D01*
X153545714Y-98662619D02*
X153545714Y-97662619D01*
X153545714Y-97662619D02*
X153926666Y-97662619D01*
X153926666Y-97662619D02*
X154021904Y-97710238D01*
X154021904Y-97710238D02*
X154069523Y-97757857D01*
X154069523Y-97757857D02*
X154117142Y-97853095D01*
X154117142Y-97853095D02*
X154117142Y-97995952D01*
X154117142Y-97995952D02*
X154069523Y-98091190D01*
X154069523Y-98091190D02*
X154021904Y-98138809D01*
X154021904Y-98138809D02*
X153926666Y-98186428D01*
X153926666Y-98186428D02*
X153545714Y-98186428D01*
X155069523Y-98662619D02*
X154498095Y-98662619D01*
X154783809Y-98662619D02*
X154783809Y-97662619D01*
X154783809Y-97662619D02*
X154688571Y-97805476D01*
X154688571Y-97805476D02*
X154593333Y-97900714D01*
X154593333Y-97900714D02*
X154498095Y-97948333D01*
X156021904Y-98662619D02*
X155450476Y-98662619D01*
X155736190Y-98662619D02*
X155736190Y-97662619D01*
X155736190Y-97662619D02*
X155640952Y-97805476D01*
X155640952Y-97805476D02*
X155545714Y-97900714D01*
X155545714Y-97900714D02*
X155450476Y-97948333D01*
%TO.C,R22*%
X141367142Y-69512619D02*
X141033809Y-69036428D01*
X140795714Y-69512619D02*
X140795714Y-68512619D01*
X140795714Y-68512619D02*
X141176666Y-68512619D01*
X141176666Y-68512619D02*
X141271904Y-68560238D01*
X141271904Y-68560238D02*
X141319523Y-68607857D01*
X141319523Y-68607857D02*
X141367142Y-68703095D01*
X141367142Y-68703095D02*
X141367142Y-68845952D01*
X141367142Y-68845952D02*
X141319523Y-68941190D01*
X141319523Y-68941190D02*
X141271904Y-68988809D01*
X141271904Y-68988809D02*
X141176666Y-69036428D01*
X141176666Y-69036428D02*
X140795714Y-69036428D01*
X141748095Y-68607857D02*
X141795714Y-68560238D01*
X141795714Y-68560238D02*
X141890952Y-68512619D01*
X141890952Y-68512619D02*
X142129047Y-68512619D01*
X142129047Y-68512619D02*
X142224285Y-68560238D01*
X142224285Y-68560238D02*
X142271904Y-68607857D01*
X142271904Y-68607857D02*
X142319523Y-68703095D01*
X142319523Y-68703095D02*
X142319523Y-68798333D01*
X142319523Y-68798333D02*
X142271904Y-68941190D01*
X142271904Y-68941190D02*
X141700476Y-69512619D01*
X141700476Y-69512619D02*
X142319523Y-69512619D01*
X142700476Y-68607857D02*
X142748095Y-68560238D01*
X142748095Y-68560238D02*
X142843333Y-68512619D01*
X142843333Y-68512619D02*
X143081428Y-68512619D01*
X143081428Y-68512619D02*
X143176666Y-68560238D01*
X143176666Y-68560238D02*
X143224285Y-68607857D01*
X143224285Y-68607857D02*
X143271904Y-68703095D01*
X143271904Y-68703095D02*
X143271904Y-68798333D01*
X143271904Y-68798333D02*
X143224285Y-68941190D01*
X143224285Y-68941190D02*
X142652857Y-69512619D01*
X142652857Y-69512619D02*
X143271904Y-69512619D01*
%TO.C,R9*%
X155722619Y-93466666D02*
X155246428Y-93799999D01*
X155722619Y-94038094D02*
X154722619Y-94038094D01*
X154722619Y-94038094D02*
X154722619Y-93657142D01*
X154722619Y-93657142D02*
X154770238Y-93561904D01*
X154770238Y-93561904D02*
X154817857Y-93514285D01*
X154817857Y-93514285D02*
X154913095Y-93466666D01*
X154913095Y-93466666D02*
X155055952Y-93466666D01*
X155055952Y-93466666D02*
X155151190Y-93514285D01*
X155151190Y-93514285D02*
X155198809Y-93561904D01*
X155198809Y-93561904D02*
X155246428Y-93657142D01*
X155246428Y-93657142D02*
X155246428Y-94038094D01*
X155722619Y-92990475D02*
X155722619Y-92799999D01*
X155722619Y-92799999D02*
X155675000Y-92704761D01*
X155675000Y-92704761D02*
X155627380Y-92657142D01*
X155627380Y-92657142D02*
X155484523Y-92561904D01*
X155484523Y-92561904D02*
X155294047Y-92514285D01*
X155294047Y-92514285D02*
X154913095Y-92514285D01*
X154913095Y-92514285D02*
X154817857Y-92561904D01*
X154817857Y-92561904D02*
X154770238Y-92609523D01*
X154770238Y-92609523D02*
X154722619Y-92704761D01*
X154722619Y-92704761D02*
X154722619Y-92895237D01*
X154722619Y-92895237D02*
X154770238Y-92990475D01*
X154770238Y-92990475D02*
X154817857Y-93038094D01*
X154817857Y-93038094D02*
X154913095Y-93085713D01*
X154913095Y-93085713D02*
X155151190Y-93085713D01*
X155151190Y-93085713D02*
X155246428Y-93038094D01*
X155246428Y-93038094D02*
X155294047Y-92990475D01*
X155294047Y-92990475D02*
X155341666Y-92895237D01*
X155341666Y-92895237D02*
X155341666Y-92704761D01*
X155341666Y-92704761D02*
X155294047Y-92609523D01*
X155294047Y-92609523D02*
X155246428Y-92561904D01*
X155246428Y-92561904D02*
X155151190Y-92514285D01*
%TO.C,R19*%
X134367142Y-73262619D02*
X134033809Y-72786428D01*
X133795714Y-73262619D02*
X133795714Y-72262619D01*
X133795714Y-72262619D02*
X134176666Y-72262619D01*
X134176666Y-72262619D02*
X134271904Y-72310238D01*
X134271904Y-72310238D02*
X134319523Y-72357857D01*
X134319523Y-72357857D02*
X134367142Y-72453095D01*
X134367142Y-72453095D02*
X134367142Y-72595952D01*
X134367142Y-72595952D02*
X134319523Y-72691190D01*
X134319523Y-72691190D02*
X134271904Y-72738809D01*
X134271904Y-72738809D02*
X134176666Y-72786428D01*
X134176666Y-72786428D02*
X133795714Y-72786428D01*
X135319523Y-73262619D02*
X134748095Y-73262619D01*
X135033809Y-73262619D02*
X135033809Y-72262619D01*
X135033809Y-72262619D02*
X134938571Y-72405476D01*
X134938571Y-72405476D02*
X134843333Y-72500714D01*
X134843333Y-72500714D02*
X134748095Y-72548333D01*
X135795714Y-73262619D02*
X135986190Y-73262619D01*
X135986190Y-73262619D02*
X136081428Y-73215000D01*
X136081428Y-73215000D02*
X136129047Y-73167380D01*
X136129047Y-73167380D02*
X136224285Y-73024523D01*
X136224285Y-73024523D02*
X136271904Y-72834047D01*
X136271904Y-72834047D02*
X136271904Y-72453095D01*
X136271904Y-72453095D02*
X136224285Y-72357857D01*
X136224285Y-72357857D02*
X136176666Y-72310238D01*
X136176666Y-72310238D02*
X136081428Y-72262619D01*
X136081428Y-72262619D02*
X135890952Y-72262619D01*
X135890952Y-72262619D02*
X135795714Y-72310238D01*
X135795714Y-72310238D02*
X135748095Y-72357857D01*
X135748095Y-72357857D02*
X135700476Y-72453095D01*
X135700476Y-72453095D02*
X135700476Y-72691190D01*
X135700476Y-72691190D02*
X135748095Y-72786428D01*
X135748095Y-72786428D02*
X135795714Y-72834047D01*
X135795714Y-72834047D02*
X135890952Y-72881666D01*
X135890952Y-72881666D02*
X136081428Y-72881666D01*
X136081428Y-72881666D02*
X136176666Y-72834047D01*
X136176666Y-72834047D02*
X136224285Y-72786428D01*
X136224285Y-72786428D02*
X136271904Y-72691190D01*
%TO.C,R18*%
X135822619Y-76442857D02*
X135346428Y-76776190D01*
X135822619Y-77014285D02*
X134822619Y-77014285D01*
X134822619Y-77014285D02*
X134822619Y-76633333D01*
X134822619Y-76633333D02*
X134870238Y-76538095D01*
X134870238Y-76538095D02*
X134917857Y-76490476D01*
X134917857Y-76490476D02*
X135013095Y-76442857D01*
X135013095Y-76442857D02*
X135155952Y-76442857D01*
X135155952Y-76442857D02*
X135251190Y-76490476D01*
X135251190Y-76490476D02*
X135298809Y-76538095D01*
X135298809Y-76538095D02*
X135346428Y-76633333D01*
X135346428Y-76633333D02*
X135346428Y-77014285D01*
X135822619Y-75490476D02*
X135822619Y-76061904D01*
X135822619Y-75776190D02*
X134822619Y-75776190D01*
X134822619Y-75776190D02*
X134965476Y-75871428D01*
X134965476Y-75871428D02*
X135060714Y-75966666D01*
X135060714Y-75966666D02*
X135108333Y-76061904D01*
X135251190Y-74919047D02*
X135203571Y-75014285D01*
X135203571Y-75014285D02*
X135155952Y-75061904D01*
X135155952Y-75061904D02*
X135060714Y-75109523D01*
X135060714Y-75109523D02*
X135013095Y-75109523D01*
X135013095Y-75109523D02*
X134917857Y-75061904D01*
X134917857Y-75061904D02*
X134870238Y-75014285D01*
X134870238Y-75014285D02*
X134822619Y-74919047D01*
X134822619Y-74919047D02*
X134822619Y-74728571D01*
X134822619Y-74728571D02*
X134870238Y-74633333D01*
X134870238Y-74633333D02*
X134917857Y-74585714D01*
X134917857Y-74585714D02*
X135013095Y-74538095D01*
X135013095Y-74538095D02*
X135060714Y-74538095D01*
X135060714Y-74538095D02*
X135155952Y-74585714D01*
X135155952Y-74585714D02*
X135203571Y-74633333D01*
X135203571Y-74633333D02*
X135251190Y-74728571D01*
X135251190Y-74728571D02*
X135251190Y-74919047D01*
X135251190Y-74919047D02*
X135298809Y-75014285D01*
X135298809Y-75014285D02*
X135346428Y-75061904D01*
X135346428Y-75061904D02*
X135441666Y-75109523D01*
X135441666Y-75109523D02*
X135632142Y-75109523D01*
X135632142Y-75109523D02*
X135727380Y-75061904D01*
X135727380Y-75061904D02*
X135775000Y-75014285D01*
X135775000Y-75014285D02*
X135822619Y-74919047D01*
X135822619Y-74919047D02*
X135822619Y-74728571D01*
X135822619Y-74728571D02*
X135775000Y-74633333D01*
X135775000Y-74633333D02*
X135727380Y-74585714D01*
X135727380Y-74585714D02*
X135632142Y-74538095D01*
X135632142Y-74538095D02*
X135441666Y-74538095D01*
X135441666Y-74538095D02*
X135346428Y-74585714D01*
X135346428Y-74585714D02*
X135298809Y-74633333D01*
X135298809Y-74633333D02*
X135251190Y-74728571D01*
%TO.C,R2*%
X139593333Y-90012619D02*
X139260000Y-89536428D01*
X139021905Y-90012619D02*
X139021905Y-89012619D01*
X139021905Y-89012619D02*
X139402857Y-89012619D01*
X139402857Y-89012619D02*
X139498095Y-89060238D01*
X139498095Y-89060238D02*
X139545714Y-89107857D01*
X139545714Y-89107857D02*
X139593333Y-89203095D01*
X139593333Y-89203095D02*
X139593333Y-89345952D01*
X139593333Y-89345952D02*
X139545714Y-89441190D01*
X139545714Y-89441190D02*
X139498095Y-89488809D01*
X139498095Y-89488809D02*
X139402857Y-89536428D01*
X139402857Y-89536428D02*
X139021905Y-89536428D01*
X139974286Y-89107857D02*
X140021905Y-89060238D01*
X140021905Y-89060238D02*
X140117143Y-89012619D01*
X140117143Y-89012619D02*
X140355238Y-89012619D01*
X140355238Y-89012619D02*
X140450476Y-89060238D01*
X140450476Y-89060238D02*
X140498095Y-89107857D01*
X140498095Y-89107857D02*
X140545714Y-89203095D01*
X140545714Y-89203095D02*
X140545714Y-89298333D01*
X140545714Y-89298333D02*
X140498095Y-89441190D01*
X140498095Y-89441190D02*
X139926667Y-90012619D01*
X139926667Y-90012619D02*
X140545714Y-90012619D01*
%TO.C,R5*%
X133093333Y-99512619D02*
X132760000Y-99036428D01*
X132521905Y-99512619D02*
X132521905Y-98512619D01*
X132521905Y-98512619D02*
X132902857Y-98512619D01*
X132902857Y-98512619D02*
X132998095Y-98560238D01*
X132998095Y-98560238D02*
X133045714Y-98607857D01*
X133045714Y-98607857D02*
X133093333Y-98703095D01*
X133093333Y-98703095D02*
X133093333Y-98845952D01*
X133093333Y-98845952D02*
X133045714Y-98941190D01*
X133045714Y-98941190D02*
X132998095Y-98988809D01*
X132998095Y-98988809D02*
X132902857Y-99036428D01*
X132902857Y-99036428D02*
X132521905Y-99036428D01*
X133998095Y-98512619D02*
X133521905Y-98512619D01*
X133521905Y-98512619D02*
X133474286Y-98988809D01*
X133474286Y-98988809D02*
X133521905Y-98941190D01*
X133521905Y-98941190D02*
X133617143Y-98893571D01*
X133617143Y-98893571D02*
X133855238Y-98893571D01*
X133855238Y-98893571D02*
X133950476Y-98941190D01*
X133950476Y-98941190D02*
X133998095Y-98988809D01*
X133998095Y-98988809D02*
X134045714Y-99084047D01*
X134045714Y-99084047D02*
X134045714Y-99322142D01*
X134045714Y-99322142D02*
X133998095Y-99417380D01*
X133998095Y-99417380D02*
X133950476Y-99465000D01*
X133950476Y-99465000D02*
X133855238Y-99512619D01*
X133855238Y-99512619D02*
X133617143Y-99512619D01*
X133617143Y-99512619D02*
X133521905Y-99465000D01*
X133521905Y-99465000D02*
X133474286Y-99417380D01*
%TO.C,R13*%
X145617142Y-93012619D02*
X145283809Y-92536428D01*
X145045714Y-93012619D02*
X145045714Y-92012619D01*
X145045714Y-92012619D02*
X145426666Y-92012619D01*
X145426666Y-92012619D02*
X145521904Y-92060238D01*
X145521904Y-92060238D02*
X145569523Y-92107857D01*
X145569523Y-92107857D02*
X145617142Y-92203095D01*
X145617142Y-92203095D02*
X145617142Y-92345952D01*
X145617142Y-92345952D02*
X145569523Y-92441190D01*
X145569523Y-92441190D02*
X145521904Y-92488809D01*
X145521904Y-92488809D02*
X145426666Y-92536428D01*
X145426666Y-92536428D02*
X145045714Y-92536428D01*
X146569523Y-93012619D02*
X145998095Y-93012619D01*
X146283809Y-93012619D02*
X146283809Y-92012619D01*
X146283809Y-92012619D02*
X146188571Y-92155476D01*
X146188571Y-92155476D02*
X146093333Y-92250714D01*
X146093333Y-92250714D02*
X145998095Y-92298333D01*
X146902857Y-92012619D02*
X147521904Y-92012619D01*
X147521904Y-92012619D02*
X147188571Y-92393571D01*
X147188571Y-92393571D02*
X147331428Y-92393571D01*
X147331428Y-92393571D02*
X147426666Y-92441190D01*
X147426666Y-92441190D02*
X147474285Y-92488809D01*
X147474285Y-92488809D02*
X147521904Y-92584047D01*
X147521904Y-92584047D02*
X147521904Y-92822142D01*
X147521904Y-92822142D02*
X147474285Y-92917380D01*
X147474285Y-92917380D02*
X147426666Y-92965000D01*
X147426666Y-92965000D02*
X147331428Y-93012619D01*
X147331428Y-93012619D02*
X147045714Y-93012619D01*
X147045714Y-93012619D02*
X146950476Y-92965000D01*
X146950476Y-92965000D02*
X146902857Y-92917380D01*
%TO.C,C9*%
X146197380Y-88966666D02*
X146245000Y-89014285D01*
X146245000Y-89014285D02*
X146292619Y-89157142D01*
X146292619Y-89157142D02*
X146292619Y-89252380D01*
X146292619Y-89252380D02*
X146245000Y-89395237D01*
X146245000Y-89395237D02*
X146149761Y-89490475D01*
X146149761Y-89490475D02*
X146054523Y-89538094D01*
X146054523Y-89538094D02*
X145864047Y-89585713D01*
X145864047Y-89585713D02*
X145721190Y-89585713D01*
X145721190Y-89585713D02*
X145530714Y-89538094D01*
X145530714Y-89538094D02*
X145435476Y-89490475D01*
X145435476Y-89490475D02*
X145340238Y-89395237D01*
X145340238Y-89395237D02*
X145292619Y-89252380D01*
X145292619Y-89252380D02*
X145292619Y-89157142D01*
X145292619Y-89157142D02*
X145340238Y-89014285D01*
X145340238Y-89014285D02*
X145387857Y-88966666D01*
X146292619Y-88490475D02*
X146292619Y-88299999D01*
X146292619Y-88299999D02*
X146245000Y-88204761D01*
X146245000Y-88204761D02*
X146197380Y-88157142D01*
X146197380Y-88157142D02*
X146054523Y-88061904D01*
X146054523Y-88061904D02*
X145864047Y-88014285D01*
X145864047Y-88014285D02*
X145483095Y-88014285D01*
X145483095Y-88014285D02*
X145387857Y-88061904D01*
X145387857Y-88061904D02*
X145340238Y-88109523D01*
X145340238Y-88109523D02*
X145292619Y-88204761D01*
X145292619Y-88204761D02*
X145292619Y-88395237D01*
X145292619Y-88395237D02*
X145340238Y-88490475D01*
X145340238Y-88490475D02*
X145387857Y-88538094D01*
X145387857Y-88538094D02*
X145483095Y-88585713D01*
X145483095Y-88585713D02*
X145721190Y-88585713D01*
X145721190Y-88585713D02*
X145816428Y-88538094D01*
X145816428Y-88538094D02*
X145864047Y-88490475D01*
X145864047Y-88490475D02*
X145911666Y-88395237D01*
X145911666Y-88395237D02*
X145911666Y-88204761D01*
X145911666Y-88204761D02*
X145864047Y-88109523D01*
X145864047Y-88109523D02*
X145816428Y-88061904D01*
X145816428Y-88061904D02*
X145721190Y-88014285D01*
%TO.C,C2*%
X133343333Y-97417380D02*
X133295714Y-97465000D01*
X133295714Y-97465000D02*
X133152857Y-97512619D01*
X133152857Y-97512619D02*
X133057619Y-97512619D01*
X133057619Y-97512619D02*
X132914762Y-97465000D01*
X132914762Y-97465000D02*
X132819524Y-97369761D01*
X132819524Y-97369761D02*
X132771905Y-97274523D01*
X132771905Y-97274523D02*
X132724286Y-97084047D01*
X132724286Y-97084047D02*
X132724286Y-96941190D01*
X132724286Y-96941190D02*
X132771905Y-96750714D01*
X132771905Y-96750714D02*
X132819524Y-96655476D01*
X132819524Y-96655476D02*
X132914762Y-96560238D01*
X132914762Y-96560238D02*
X133057619Y-96512619D01*
X133057619Y-96512619D02*
X133152857Y-96512619D01*
X133152857Y-96512619D02*
X133295714Y-96560238D01*
X133295714Y-96560238D02*
X133343333Y-96607857D01*
X133724286Y-96607857D02*
X133771905Y-96560238D01*
X133771905Y-96560238D02*
X133867143Y-96512619D01*
X133867143Y-96512619D02*
X134105238Y-96512619D01*
X134105238Y-96512619D02*
X134200476Y-96560238D01*
X134200476Y-96560238D02*
X134248095Y-96607857D01*
X134248095Y-96607857D02*
X134295714Y-96703095D01*
X134295714Y-96703095D02*
X134295714Y-96798333D01*
X134295714Y-96798333D02*
X134248095Y-96941190D01*
X134248095Y-96941190D02*
X133676667Y-97512619D01*
X133676667Y-97512619D02*
X134295714Y-97512619D01*
%TO.C,C17*%
X131617142Y-102417380D02*
X131569523Y-102465000D01*
X131569523Y-102465000D02*
X131426666Y-102512619D01*
X131426666Y-102512619D02*
X131331428Y-102512619D01*
X131331428Y-102512619D02*
X131188571Y-102465000D01*
X131188571Y-102465000D02*
X131093333Y-102369761D01*
X131093333Y-102369761D02*
X131045714Y-102274523D01*
X131045714Y-102274523D02*
X130998095Y-102084047D01*
X130998095Y-102084047D02*
X130998095Y-101941190D01*
X130998095Y-101941190D02*
X131045714Y-101750714D01*
X131045714Y-101750714D02*
X131093333Y-101655476D01*
X131093333Y-101655476D02*
X131188571Y-101560238D01*
X131188571Y-101560238D02*
X131331428Y-101512619D01*
X131331428Y-101512619D02*
X131426666Y-101512619D01*
X131426666Y-101512619D02*
X131569523Y-101560238D01*
X131569523Y-101560238D02*
X131617142Y-101607857D01*
X132569523Y-102512619D02*
X131998095Y-102512619D01*
X132283809Y-102512619D02*
X132283809Y-101512619D01*
X132283809Y-101512619D02*
X132188571Y-101655476D01*
X132188571Y-101655476D02*
X132093333Y-101750714D01*
X132093333Y-101750714D02*
X131998095Y-101798333D01*
X132902857Y-101512619D02*
X133569523Y-101512619D01*
X133569523Y-101512619D02*
X133140952Y-102512619D01*
%TO.C,R4*%
X133343333Y-93512619D02*
X133010000Y-93036428D01*
X132771905Y-93512619D02*
X132771905Y-92512619D01*
X132771905Y-92512619D02*
X133152857Y-92512619D01*
X133152857Y-92512619D02*
X133248095Y-92560238D01*
X133248095Y-92560238D02*
X133295714Y-92607857D01*
X133295714Y-92607857D02*
X133343333Y-92703095D01*
X133343333Y-92703095D02*
X133343333Y-92845952D01*
X133343333Y-92845952D02*
X133295714Y-92941190D01*
X133295714Y-92941190D02*
X133248095Y-92988809D01*
X133248095Y-92988809D02*
X133152857Y-93036428D01*
X133152857Y-93036428D02*
X132771905Y-93036428D01*
X134200476Y-92845952D02*
X134200476Y-93512619D01*
X133962381Y-92465000D02*
X133724286Y-93179285D01*
X133724286Y-93179285D02*
X134343333Y-93179285D01*
%TO.C,R20*%
X146222619Y-68942857D02*
X145746428Y-69276190D01*
X146222619Y-69514285D02*
X145222619Y-69514285D01*
X145222619Y-69514285D02*
X145222619Y-69133333D01*
X145222619Y-69133333D02*
X145270238Y-69038095D01*
X145270238Y-69038095D02*
X145317857Y-68990476D01*
X145317857Y-68990476D02*
X145413095Y-68942857D01*
X145413095Y-68942857D02*
X145555952Y-68942857D01*
X145555952Y-68942857D02*
X145651190Y-68990476D01*
X145651190Y-68990476D02*
X145698809Y-69038095D01*
X145698809Y-69038095D02*
X145746428Y-69133333D01*
X145746428Y-69133333D02*
X145746428Y-69514285D01*
X145317857Y-68561904D02*
X145270238Y-68514285D01*
X145270238Y-68514285D02*
X145222619Y-68419047D01*
X145222619Y-68419047D02*
X145222619Y-68180952D01*
X145222619Y-68180952D02*
X145270238Y-68085714D01*
X145270238Y-68085714D02*
X145317857Y-68038095D01*
X145317857Y-68038095D02*
X145413095Y-67990476D01*
X145413095Y-67990476D02*
X145508333Y-67990476D01*
X145508333Y-67990476D02*
X145651190Y-68038095D01*
X145651190Y-68038095D02*
X146222619Y-68609523D01*
X146222619Y-68609523D02*
X146222619Y-67990476D01*
X145222619Y-67371428D02*
X145222619Y-67276190D01*
X145222619Y-67276190D02*
X145270238Y-67180952D01*
X145270238Y-67180952D02*
X145317857Y-67133333D01*
X145317857Y-67133333D02*
X145413095Y-67085714D01*
X145413095Y-67085714D02*
X145603571Y-67038095D01*
X145603571Y-67038095D02*
X145841666Y-67038095D01*
X145841666Y-67038095D02*
X146032142Y-67085714D01*
X146032142Y-67085714D02*
X146127380Y-67133333D01*
X146127380Y-67133333D02*
X146175000Y-67180952D01*
X146175000Y-67180952D02*
X146222619Y-67276190D01*
X146222619Y-67276190D02*
X146222619Y-67371428D01*
X146222619Y-67371428D02*
X146175000Y-67466666D01*
X146175000Y-67466666D02*
X146127380Y-67514285D01*
X146127380Y-67514285D02*
X146032142Y-67561904D01*
X146032142Y-67561904D02*
X145841666Y-67609523D01*
X145841666Y-67609523D02*
X145603571Y-67609523D01*
X145603571Y-67609523D02*
X145413095Y-67561904D01*
X145413095Y-67561904D02*
X145317857Y-67514285D01*
X145317857Y-67514285D02*
X145270238Y-67466666D01*
X145270238Y-67466666D02*
X145222619Y-67371428D01*
%TO.C,C11*%
X143117142Y-90237380D02*
X143069523Y-90285000D01*
X143069523Y-90285000D02*
X142926666Y-90332619D01*
X142926666Y-90332619D02*
X142831428Y-90332619D01*
X142831428Y-90332619D02*
X142688571Y-90285000D01*
X142688571Y-90285000D02*
X142593333Y-90189761D01*
X142593333Y-90189761D02*
X142545714Y-90094523D01*
X142545714Y-90094523D02*
X142498095Y-89904047D01*
X142498095Y-89904047D02*
X142498095Y-89761190D01*
X142498095Y-89761190D02*
X142545714Y-89570714D01*
X142545714Y-89570714D02*
X142593333Y-89475476D01*
X142593333Y-89475476D02*
X142688571Y-89380238D01*
X142688571Y-89380238D02*
X142831428Y-89332619D01*
X142831428Y-89332619D02*
X142926666Y-89332619D01*
X142926666Y-89332619D02*
X143069523Y-89380238D01*
X143069523Y-89380238D02*
X143117142Y-89427857D01*
X144069523Y-90332619D02*
X143498095Y-90332619D01*
X143783809Y-90332619D02*
X143783809Y-89332619D01*
X143783809Y-89332619D02*
X143688571Y-89475476D01*
X143688571Y-89475476D02*
X143593333Y-89570714D01*
X143593333Y-89570714D02*
X143498095Y-89618333D01*
X145021904Y-90332619D02*
X144450476Y-90332619D01*
X144736190Y-90332619D02*
X144736190Y-89332619D01*
X144736190Y-89332619D02*
X144640952Y-89475476D01*
X144640952Y-89475476D02*
X144545714Y-89570714D01*
X144545714Y-89570714D02*
X144450476Y-89618333D01*
%TO.C,C7*%
X151093333Y-102667380D02*
X151045714Y-102715000D01*
X151045714Y-102715000D02*
X150902857Y-102762619D01*
X150902857Y-102762619D02*
X150807619Y-102762619D01*
X150807619Y-102762619D02*
X150664762Y-102715000D01*
X150664762Y-102715000D02*
X150569524Y-102619761D01*
X150569524Y-102619761D02*
X150521905Y-102524523D01*
X150521905Y-102524523D02*
X150474286Y-102334047D01*
X150474286Y-102334047D02*
X150474286Y-102191190D01*
X150474286Y-102191190D02*
X150521905Y-102000714D01*
X150521905Y-102000714D02*
X150569524Y-101905476D01*
X150569524Y-101905476D02*
X150664762Y-101810238D01*
X150664762Y-101810238D02*
X150807619Y-101762619D01*
X150807619Y-101762619D02*
X150902857Y-101762619D01*
X150902857Y-101762619D02*
X151045714Y-101810238D01*
X151045714Y-101810238D02*
X151093333Y-101857857D01*
X151426667Y-101762619D02*
X152093333Y-101762619D01*
X152093333Y-101762619D02*
X151664762Y-102762619D01*
%TO.C,R8*%
X153343333Y-92762619D02*
X153010000Y-92286428D01*
X152771905Y-92762619D02*
X152771905Y-91762619D01*
X152771905Y-91762619D02*
X153152857Y-91762619D01*
X153152857Y-91762619D02*
X153248095Y-91810238D01*
X153248095Y-91810238D02*
X153295714Y-91857857D01*
X153295714Y-91857857D02*
X153343333Y-91953095D01*
X153343333Y-91953095D02*
X153343333Y-92095952D01*
X153343333Y-92095952D02*
X153295714Y-92191190D01*
X153295714Y-92191190D02*
X153248095Y-92238809D01*
X153248095Y-92238809D02*
X153152857Y-92286428D01*
X153152857Y-92286428D02*
X152771905Y-92286428D01*
X153914762Y-92191190D02*
X153819524Y-92143571D01*
X153819524Y-92143571D02*
X153771905Y-92095952D01*
X153771905Y-92095952D02*
X153724286Y-92000714D01*
X153724286Y-92000714D02*
X153724286Y-91953095D01*
X153724286Y-91953095D02*
X153771905Y-91857857D01*
X153771905Y-91857857D02*
X153819524Y-91810238D01*
X153819524Y-91810238D02*
X153914762Y-91762619D01*
X153914762Y-91762619D02*
X154105238Y-91762619D01*
X154105238Y-91762619D02*
X154200476Y-91810238D01*
X154200476Y-91810238D02*
X154248095Y-91857857D01*
X154248095Y-91857857D02*
X154295714Y-91953095D01*
X154295714Y-91953095D02*
X154295714Y-92000714D01*
X154295714Y-92000714D02*
X154248095Y-92095952D01*
X154248095Y-92095952D02*
X154200476Y-92143571D01*
X154200476Y-92143571D02*
X154105238Y-92191190D01*
X154105238Y-92191190D02*
X153914762Y-92191190D01*
X153914762Y-92191190D02*
X153819524Y-92238809D01*
X153819524Y-92238809D02*
X153771905Y-92286428D01*
X153771905Y-92286428D02*
X153724286Y-92381666D01*
X153724286Y-92381666D02*
X153724286Y-92572142D01*
X153724286Y-92572142D02*
X153771905Y-92667380D01*
X153771905Y-92667380D02*
X153819524Y-92715000D01*
X153819524Y-92715000D02*
X153914762Y-92762619D01*
X153914762Y-92762619D02*
X154105238Y-92762619D01*
X154105238Y-92762619D02*
X154200476Y-92715000D01*
X154200476Y-92715000D02*
X154248095Y-92667380D01*
X154248095Y-92667380D02*
X154295714Y-92572142D01*
X154295714Y-92572142D02*
X154295714Y-92381666D01*
X154295714Y-92381666D02*
X154248095Y-92286428D01*
X154248095Y-92286428D02*
X154200476Y-92238809D01*
X154200476Y-92238809D02*
X154105238Y-92191190D01*
%TO.C,R3*%
X133343333Y-95262619D02*
X133010000Y-94786428D01*
X132771905Y-95262619D02*
X132771905Y-94262619D01*
X132771905Y-94262619D02*
X133152857Y-94262619D01*
X133152857Y-94262619D02*
X133248095Y-94310238D01*
X133248095Y-94310238D02*
X133295714Y-94357857D01*
X133295714Y-94357857D02*
X133343333Y-94453095D01*
X133343333Y-94453095D02*
X133343333Y-94595952D01*
X133343333Y-94595952D02*
X133295714Y-94691190D01*
X133295714Y-94691190D02*
X133248095Y-94738809D01*
X133248095Y-94738809D02*
X133152857Y-94786428D01*
X133152857Y-94786428D02*
X132771905Y-94786428D01*
X133676667Y-94262619D02*
X134295714Y-94262619D01*
X134295714Y-94262619D02*
X133962381Y-94643571D01*
X133962381Y-94643571D02*
X134105238Y-94643571D01*
X134105238Y-94643571D02*
X134200476Y-94691190D01*
X134200476Y-94691190D02*
X134248095Y-94738809D01*
X134248095Y-94738809D02*
X134295714Y-94834047D01*
X134295714Y-94834047D02*
X134295714Y-95072142D01*
X134295714Y-95072142D02*
X134248095Y-95167380D01*
X134248095Y-95167380D02*
X134200476Y-95215000D01*
X134200476Y-95215000D02*
X134105238Y-95262619D01*
X134105238Y-95262619D02*
X133819524Y-95262619D01*
X133819524Y-95262619D02*
X133724286Y-95215000D01*
X133724286Y-95215000D02*
X133676667Y-95167380D01*
%TO.C,C13*%
X144877380Y-76192857D02*
X144925000Y-76240476D01*
X144925000Y-76240476D02*
X144972619Y-76383333D01*
X144972619Y-76383333D02*
X144972619Y-76478571D01*
X144972619Y-76478571D02*
X144925000Y-76621428D01*
X144925000Y-76621428D02*
X144829761Y-76716666D01*
X144829761Y-76716666D02*
X144734523Y-76764285D01*
X144734523Y-76764285D02*
X144544047Y-76811904D01*
X144544047Y-76811904D02*
X144401190Y-76811904D01*
X144401190Y-76811904D02*
X144210714Y-76764285D01*
X144210714Y-76764285D02*
X144115476Y-76716666D01*
X144115476Y-76716666D02*
X144020238Y-76621428D01*
X144020238Y-76621428D02*
X143972619Y-76478571D01*
X143972619Y-76478571D02*
X143972619Y-76383333D01*
X143972619Y-76383333D02*
X144020238Y-76240476D01*
X144020238Y-76240476D02*
X144067857Y-76192857D01*
X144972619Y-75240476D02*
X144972619Y-75811904D01*
X144972619Y-75526190D02*
X143972619Y-75526190D01*
X143972619Y-75526190D02*
X144115476Y-75621428D01*
X144115476Y-75621428D02*
X144210714Y-75716666D01*
X144210714Y-75716666D02*
X144258333Y-75811904D01*
X143972619Y-74907142D02*
X143972619Y-74288095D01*
X143972619Y-74288095D02*
X144353571Y-74621428D01*
X144353571Y-74621428D02*
X144353571Y-74478571D01*
X144353571Y-74478571D02*
X144401190Y-74383333D01*
X144401190Y-74383333D02*
X144448809Y-74335714D01*
X144448809Y-74335714D02*
X144544047Y-74288095D01*
X144544047Y-74288095D02*
X144782142Y-74288095D01*
X144782142Y-74288095D02*
X144877380Y-74335714D01*
X144877380Y-74335714D02*
X144925000Y-74383333D01*
X144925000Y-74383333D02*
X144972619Y-74478571D01*
X144972619Y-74478571D02*
X144972619Y-74764285D01*
X144972619Y-74764285D02*
X144925000Y-74859523D01*
X144925000Y-74859523D02*
X144877380Y-74907142D01*
%TO.C,R10*%
X154867142Y-87762619D02*
X154533809Y-87286428D01*
X154295714Y-87762619D02*
X154295714Y-86762619D01*
X154295714Y-86762619D02*
X154676666Y-86762619D01*
X154676666Y-86762619D02*
X154771904Y-86810238D01*
X154771904Y-86810238D02*
X154819523Y-86857857D01*
X154819523Y-86857857D02*
X154867142Y-86953095D01*
X154867142Y-86953095D02*
X154867142Y-87095952D01*
X154867142Y-87095952D02*
X154819523Y-87191190D01*
X154819523Y-87191190D02*
X154771904Y-87238809D01*
X154771904Y-87238809D02*
X154676666Y-87286428D01*
X154676666Y-87286428D02*
X154295714Y-87286428D01*
X155819523Y-87762619D02*
X155248095Y-87762619D01*
X155533809Y-87762619D02*
X155533809Y-86762619D01*
X155533809Y-86762619D02*
X155438571Y-86905476D01*
X155438571Y-86905476D02*
X155343333Y-87000714D01*
X155343333Y-87000714D02*
X155248095Y-87048333D01*
X156438571Y-86762619D02*
X156533809Y-86762619D01*
X156533809Y-86762619D02*
X156629047Y-86810238D01*
X156629047Y-86810238D02*
X156676666Y-86857857D01*
X156676666Y-86857857D02*
X156724285Y-86953095D01*
X156724285Y-86953095D02*
X156771904Y-87143571D01*
X156771904Y-87143571D02*
X156771904Y-87381666D01*
X156771904Y-87381666D02*
X156724285Y-87572142D01*
X156724285Y-87572142D02*
X156676666Y-87667380D01*
X156676666Y-87667380D02*
X156629047Y-87715000D01*
X156629047Y-87715000D02*
X156533809Y-87762619D01*
X156533809Y-87762619D02*
X156438571Y-87762619D01*
X156438571Y-87762619D02*
X156343333Y-87715000D01*
X156343333Y-87715000D02*
X156295714Y-87667380D01*
X156295714Y-87667380D02*
X156248095Y-87572142D01*
X156248095Y-87572142D02*
X156200476Y-87381666D01*
X156200476Y-87381666D02*
X156200476Y-87143571D01*
X156200476Y-87143571D02*
X156248095Y-86953095D01*
X156248095Y-86953095D02*
X156295714Y-86857857D01*
X156295714Y-86857857D02*
X156343333Y-86810238D01*
X156343333Y-86810238D02*
X156438571Y-86762619D01*
%TO.C,U4*%
X136222619Y-87561904D02*
X137032142Y-87561904D01*
X137032142Y-87561904D02*
X137127380Y-87514285D01*
X137127380Y-87514285D02*
X137175000Y-87466666D01*
X137175000Y-87466666D02*
X137222619Y-87371428D01*
X137222619Y-87371428D02*
X137222619Y-87180952D01*
X137222619Y-87180952D02*
X137175000Y-87085714D01*
X137175000Y-87085714D02*
X137127380Y-87038095D01*
X137127380Y-87038095D02*
X137032142Y-86990476D01*
X137032142Y-86990476D02*
X136222619Y-86990476D01*
X136555952Y-86085714D02*
X137222619Y-86085714D01*
X136175000Y-86323809D02*
X136889285Y-86561904D01*
X136889285Y-86561904D02*
X136889285Y-85942857D01*
%TO.C,C10*%
X151627380Y-89442857D02*
X151675000Y-89490476D01*
X151675000Y-89490476D02*
X151722619Y-89633333D01*
X151722619Y-89633333D02*
X151722619Y-89728571D01*
X151722619Y-89728571D02*
X151675000Y-89871428D01*
X151675000Y-89871428D02*
X151579761Y-89966666D01*
X151579761Y-89966666D02*
X151484523Y-90014285D01*
X151484523Y-90014285D02*
X151294047Y-90061904D01*
X151294047Y-90061904D02*
X151151190Y-90061904D01*
X151151190Y-90061904D02*
X150960714Y-90014285D01*
X150960714Y-90014285D02*
X150865476Y-89966666D01*
X150865476Y-89966666D02*
X150770238Y-89871428D01*
X150770238Y-89871428D02*
X150722619Y-89728571D01*
X150722619Y-89728571D02*
X150722619Y-89633333D01*
X150722619Y-89633333D02*
X150770238Y-89490476D01*
X150770238Y-89490476D02*
X150817857Y-89442857D01*
X151722619Y-88490476D02*
X151722619Y-89061904D01*
X151722619Y-88776190D02*
X150722619Y-88776190D01*
X150722619Y-88776190D02*
X150865476Y-88871428D01*
X150865476Y-88871428D02*
X150960714Y-88966666D01*
X150960714Y-88966666D02*
X151008333Y-89061904D01*
X150722619Y-87871428D02*
X150722619Y-87776190D01*
X150722619Y-87776190D02*
X150770238Y-87680952D01*
X150770238Y-87680952D02*
X150817857Y-87633333D01*
X150817857Y-87633333D02*
X150913095Y-87585714D01*
X150913095Y-87585714D02*
X151103571Y-87538095D01*
X151103571Y-87538095D02*
X151341666Y-87538095D01*
X151341666Y-87538095D02*
X151532142Y-87585714D01*
X151532142Y-87585714D02*
X151627380Y-87633333D01*
X151627380Y-87633333D02*
X151675000Y-87680952D01*
X151675000Y-87680952D02*
X151722619Y-87776190D01*
X151722619Y-87776190D02*
X151722619Y-87871428D01*
X151722619Y-87871428D02*
X151675000Y-87966666D01*
X151675000Y-87966666D02*
X151627380Y-88014285D01*
X151627380Y-88014285D02*
X151532142Y-88061904D01*
X151532142Y-88061904D02*
X151341666Y-88109523D01*
X151341666Y-88109523D02*
X151103571Y-88109523D01*
X151103571Y-88109523D02*
X150913095Y-88061904D01*
X150913095Y-88061904D02*
X150817857Y-88014285D01*
X150817857Y-88014285D02*
X150770238Y-87966666D01*
X150770238Y-87966666D02*
X150722619Y-87871428D01*
%TO.C,U1*%
X143498095Y-99102619D02*
X143498095Y-99912142D01*
X143498095Y-99912142D02*
X143545714Y-100007380D01*
X143545714Y-100007380D02*
X143593333Y-100055000D01*
X143593333Y-100055000D02*
X143688571Y-100102619D01*
X143688571Y-100102619D02*
X143879047Y-100102619D01*
X143879047Y-100102619D02*
X143974285Y-100055000D01*
X143974285Y-100055000D02*
X144021904Y-100007380D01*
X144021904Y-100007380D02*
X144069523Y-99912142D01*
X144069523Y-99912142D02*
X144069523Y-99102619D01*
X145069523Y-100102619D02*
X144498095Y-100102619D01*
X144783809Y-100102619D02*
X144783809Y-99102619D01*
X144783809Y-99102619D02*
X144688571Y-99245476D01*
X144688571Y-99245476D02*
X144593333Y-99340714D01*
X144593333Y-99340714D02*
X144498095Y-99388333D01*
%TO.C,R12*%
X154867142Y-90012619D02*
X154533809Y-89536428D01*
X154295714Y-90012619D02*
X154295714Y-89012619D01*
X154295714Y-89012619D02*
X154676666Y-89012619D01*
X154676666Y-89012619D02*
X154771904Y-89060238D01*
X154771904Y-89060238D02*
X154819523Y-89107857D01*
X154819523Y-89107857D02*
X154867142Y-89203095D01*
X154867142Y-89203095D02*
X154867142Y-89345952D01*
X154867142Y-89345952D02*
X154819523Y-89441190D01*
X154819523Y-89441190D02*
X154771904Y-89488809D01*
X154771904Y-89488809D02*
X154676666Y-89536428D01*
X154676666Y-89536428D02*
X154295714Y-89536428D01*
X155819523Y-90012619D02*
X155248095Y-90012619D01*
X155533809Y-90012619D02*
X155533809Y-89012619D01*
X155533809Y-89012619D02*
X155438571Y-89155476D01*
X155438571Y-89155476D02*
X155343333Y-89250714D01*
X155343333Y-89250714D02*
X155248095Y-89298333D01*
X156200476Y-89107857D02*
X156248095Y-89060238D01*
X156248095Y-89060238D02*
X156343333Y-89012619D01*
X156343333Y-89012619D02*
X156581428Y-89012619D01*
X156581428Y-89012619D02*
X156676666Y-89060238D01*
X156676666Y-89060238D02*
X156724285Y-89107857D01*
X156724285Y-89107857D02*
X156771904Y-89203095D01*
X156771904Y-89203095D02*
X156771904Y-89298333D01*
X156771904Y-89298333D02*
X156724285Y-89441190D01*
X156724285Y-89441190D02*
X156152857Y-90012619D01*
X156152857Y-90012619D02*
X156771904Y-90012619D01*
%TO.C,C12*%
X141197380Y-76442857D02*
X141245000Y-76490476D01*
X141245000Y-76490476D02*
X141292619Y-76633333D01*
X141292619Y-76633333D02*
X141292619Y-76728571D01*
X141292619Y-76728571D02*
X141245000Y-76871428D01*
X141245000Y-76871428D02*
X141149761Y-76966666D01*
X141149761Y-76966666D02*
X141054523Y-77014285D01*
X141054523Y-77014285D02*
X140864047Y-77061904D01*
X140864047Y-77061904D02*
X140721190Y-77061904D01*
X140721190Y-77061904D02*
X140530714Y-77014285D01*
X140530714Y-77014285D02*
X140435476Y-76966666D01*
X140435476Y-76966666D02*
X140340238Y-76871428D01*
X140340238Y-76871428D02*
X140292619Y-76728571D01*
X140292619Y-76728571D02*
X140292619Y-76633333D01*
X140292619Y-76633333D02*
X140340238Y-76490476D01*
X140340238Y-76490476D02*
X140387857Y-76442857D01*
X141292619Y-75490476D02*
X141292619Y-76061904D01*
X141292619Y-75776190D02*
X140292619Y-75776190D01*
X140292619Y-75776190D02*
X140435476Y-75871428D01*
X140435476Y-75871428D02*
X140530714Y-75966666D01*
X140530714Y-75966666D02*
X140578333Y-76061904D01*
X140387857Y-75109523D02*
X140340238Y-75061904D01*
X140340238Y-75061904D02*
X140292619Y-74966666D01*
X140292619Y-74966666D02*
X140292619Y-74728571D01*
X140292619Y-74728571D02*
X140340238Y-74633333D01*
X140340238Y-74633333D02*
X140387857Y-74585714D01*
X140387857Y-74585714D02*
X140483095Y-74538095D01*
X140483095Y-74538095D02*
X140578333Y-74538095D01*
X140578333Y-74538095D02*
X140721190Y-74585714D01*
X140721190Y-74585714D02*
X141292619Y-75157142D01*
X141292619Y-75157142D02*
X141292619Y-74538095D01*
%TO.C,C14*%
X150377380Y-76442857D02*
X150425000Y-76490476D01*
X150425000Y-76490476D02*
X150472619Y-76633333D01*
X150472619Y-76633333D02*
X150472619Y-76728571D01*
X150472619Y-76728571D02*
X150425000Y-76871428D01*
X150425000Y-76871428D02*
X150329761Y-76966666D01*
X150329761Y-76966666D02*
X150234523Y-77014285D01*
X150234523Y-77014285D02*
X150044047Y-77061904D01*
X150044047Y-77061904D02*
X149901190Y-77061904D01*
X149901190Y-77061904D02*
X149710714Y-77014285D01*
X149710714Y-77014285D02*
X149615476Y-76966666D01*
X149615476Y-76966666D02*
X149520238Y-76871428D01*
X149520238Y-76871428D02*
X149472619Y-76728571D01*
X149472619Y-76728571D02*
X149472619Y-76633333D01*
X149472619Y-76633333D02*
X149520238Y-76490476D01*
X149520238Y-76490476D02*
X149567857Y-76442857D01*
X150472619Y-75490476D02*
X150472619Y-76061904D01*
X150472619Y-75776190D02*
X149472619Y-75776190D01*
X149472619Y-75776190D02*
X149615476Y-75871428D01*
X149615476Y-75871428D02*
X149710714Y-75966666D01*
X149710714Y-75966666D02*
X149758333Y-76061904D01*
X149805952Y-74633333D02*
X150472619Y-74633333D01*
X149425000Y-74871428D02*
X150139285Y-75109523D01*
X150139285Y-75109523D02*
X150139285Y-74490476D01*
%TO.C,R21*%
X137367142Y-70012619D02*
X137033809Y-69536428D01*
X136795714Y-70012619D02*
X136795714Y-69012619D01*
X136795714Y-69012619D02*
X137176666Y-69012619D01*
X137176666Y-69012619D02*
X137271904Y-69060238D01*
X137271904Y-69060238D02*
X137319523Y-69107857D01*
X137319523Y-69107857D02*
X137367142Y-69203095D01*
X137367142Y-69203095D02*
X137367142Y-69345952D01*
X137367142Y-69345952D02*
X137319523Y-69441190D01*
X137319523Y-69441190D02*
X137271904Y-69488809D01*
X137271904Y-69488809D02*
X137176666Y-69536428D01*
X137176666Y-69536428D02*
X136795714Y-69536428D01*
X137748095Y-69107857D02*
X137795714Y-69060238D01*
X137795714Y-69060238D02*
X137890952Y-69012619D01*
X137890952Y-69012619D02*
X138129047Y-69012619D01*
X138129047Y-69012619D02*
X138224285Y-69060238D01*
X138224285Y-69060238D02*
X138271904Y-69107857D01*
X138271904Y-69107857D02*
X138319523Y-69203095D01*
X138319523Y-69203095D02*
X138319523Y-69298333D01*
X138319523Y-69298333D02*
X138271904Y-69441190D01*
X138271904Y-69441190D02*
X137700476Y-70012619D01*
X137700476Y-70012619D02*
X138319523Y-70012619D01*
X139271904Y-70012619D02*
X138700476Y-70012619D01*
X138986190Y-70012619D02*
X138986190Y-69012619D01*
X138986190Y-69012619D02*
X138890952Y-69155476D01*
X138890952Y-69155476D02*
X138795714Y-69250714D01*
X138795714Y-69250714D02*
X138700476Y-69298333D01*
%TO.C,C4*%
X130843333Y-93667380D02*
X130795714Y-93715000D01*
X130795714Y-93715000D02*
X130652857Y-93762619D01*
X130652857Y-93762619D02*
X130557619Y-93762619D01*
X130557619Y-93762619D02*
X130414762Y-93715000D01*
X130414762Y-93715000D02*
X130319524Y-93619761D01*
X130319524Y-93619761D02*
X130271905Y-93524523D01*
X130271905Y-93524523D02*
X130224286Y-93334047D01*
X130224286Y-93334047D02*
X130224286Y-93191190D01*
X130224286Y-93191190D02*
X130271905Y-93000714D01*
X130271905Y-93000714D02*
X130319524Y-92905476D01*
X130319524Y-92905476D02*
X130414762Y-92810238D01*
X130414762Y-92810238D02*
X130557619Y-92762619D01*
X130557619Y-92762619D02*
X130652857Y-92762619D01*
X130652857Y-92762619D02*
X130795714Y-92810238D01*
X130795714Y-92810238D02*
X130843333Y-92857857D01*
X131700476Y-93095952D02*
X131700476Y-93762619D01*
X131462381Y-92715000D02*
X131224286Y-93429285D01*
X131224286Y-93429285D02*
X131843333Y-93429285D01*
%TO.C,C15*%
X139127380Y-79442857D02*
X139175000Y-79490476D01*
X139175000Y-79490476D02*
X139222619Y-79633333D01*
X139222619Y-79633333D02*
X139222619Y-79728571D01*
X139222619Y-79728571D02*
X139175000Y-79871428D01*
X139175000Y-79871428D02*
X139079761Y-79966666D01*
X139079761Y-79966666D02*
X138984523Y-80014285D01*
X138984523Y-80014285D02*
X138794047Y-80061904D01*
X138794047Y-80061904D02*
X138651190Y-80061904D01*
X138651190Y-80061904D02*
X138460714Y-80014285D01*
X138460714Y-80014285D02*
X138365476Y-79966666D01*
X138365476Y-79966666D02*
X138270238Y-79871428D01*
X138270238Y-79871428D02*
X138222619Y-79728571D01*
X138222619Y-79728571D02*
X138222619Y-79633333D01*
X138222619Y-79633333D02*
X138270238Y-79490476D01*
X138270238Y-79490476D02*
X138317857Y-79442857D01*
X139222619Y-78490476D02*
X139222619Y-79061904D01*
X139222619Y-78776190D02*
X138222619Y-78776190D01*
X138222619Y-78776190D02*
X138365476Y-78871428D01*
X138365476Y-78871428D02*
X138460714Y-78966666D01*
X138460714Y-78966666D02*
X138508333Y-79061904D01*
X138222619Y-77585714D02*
X138222619Y-78061904D01*
X138222619Y-78061904D02*
X138698809Y-78109523D01*
X138698809Y-78109523D02*
X138651190Y-78061904D01*
X138651190Y-78061904D02*
X138603571Y-77966666D01*
X138603571Y-77966666D02*
X138603571Y-77728571D01*
X138603571Y-77728571D02*
X138651190Y-77633333D01*
X138651190Y-77633333D02*
X138698809Y-77585714D01*
X138698809Y-77585714D02*
X138794047Y-77538095D01*
X138794047Y-77538095D02*
X139032142Y-77538095D01*
X139032142Y-77538095D02*
X139127380Y-77585714D01*
X139127380Y-77585714D02*
X139175000Y-77633333D01*
X139175000Y-77633333D02*
X139222619Y-77728571D01*
X139222619Y-77728571D02*
X139222619Y-77966666D01*
X139222619Y-77966666D02*
X139175000Y-78061904D01*
X139175000Y-78061904D02*
X139127380Y-78109523D01*
%TO.C,R23*%
X150372619Y-72192857D02*
X149896428Y-72526190D01*
X150372619Y-72764285D02*
X149372619Y-72764285D01*
X149372619Y-72764285D02*
X149372619Y-72383333D01*
X149372619Y-72383333D02*
X149420238Y-72288095D01*
X149420238Y-72288095D02*
X149467857Y-72240476D01*
X149467857Y-72240476D02*
X149563095Y-72192857D01*
X149563095Y-72192857D02*
X149705952Y-72192857D01*
X149705952Y-72192857D02*
X149801190Y-72240476D01*
X149801190Y-72240476D02*
X149848809Y-72288095D01*
X149848809Y-72288095D02*
X149896428Y-72383333D01*
X149896428Y-72383333D02*
X149896428Y-72764285D01*
X149467857Y-71811904D02*
X149420238Y-71764285D01*
X149420238Y-71764285D02*
X149372619Y-71669047D01*
X149372619Y-71669047D02*
X149372619Y-71430952D01*
X149372619Y-71430952D02*
X149420238Y-71335714D01*
X149420238Y-71335714D02*
X149467857Y-71288095D01*
X149467857Y-71288095D02*
X149563095Y-71240476D01*
X149563095Y-71240476D02*
X149658333Y-71240476D01*
X149658333Y-71240476D02*
X149801190Y-71288095D01*
X149801190Y-71288095D02*
X150372619Y-71859523D01*
X150372619Y-71859523D02*
X150372619Y-71240476D01*
X149372619Y-70907142D02*
X149372619Y-70288095D01*
X149372619Y-70288095D02*
X149753571Y-70621428D01*
X149753571Y-70621428D02*
X149753571Y-70478571D01*
X149753571Y-70478571D02*
X149801190Y-70383333D01*
X149801190Y-70383333D02*
X149848809Y-70335714D01*
X149848809Y-70335714D02*
X149944047Y-70288095D01*
X149944047Y-70288095D02*
X150182142Y-70288095D01*
X150182142Y-70288095D02*
X150277380Y-70335714D01*
X150277380Y-70335714D02*
X150325000Y-70383333D01*
X150325000Y-70383333D02*
X150372619Y-70478571D01*
X150372619Y-70478571D02*
X150372619Y-70764285D01*
X150372619Y-70764285D02*
X150325000Y-70859523D01*
X150325000Y-70859523D02*
X150277380Y-70907142D01*
%TO.C,R16*%
X135822619Y-80192857D02*
X135346428Y-80526190D01*
X135822619Y-80764285D02*
X134822619Y-80764285D01*
X134822619Y-80764285D02*
X134822619Y-80383333D01*
X134822619Y-80383333D02*
X134870238Y-80288095D01*
X134870238Y-80288095D02*
X134917857Y-80240476D01*
X134917857Y-80240476D02*
X135013095Y-80192857D01*
X135013095Y-80192857D02*
X135155952Y-80192857D01*
X135155952Y-80192857D02*
X135251190Y-80240476D01*
X135251190Y-80240476D02*
X135298809Y-80288095D01*
X135298809Y-80288095D02*
X135346428Y-80383333D01*
X135346428Y-80383333D02*
X135346428Y-80764285D01*
X135822619Y-79240476D02*
X135822619Y-79811904D01*
X135822619Y-79526190D02*
X134822619Y-79526190D01*
X134822619Y-79526190D02*
X134965476Y-79621428D01*
X134965476Y-79621428D02*
X135060714Y-79716666D01*
X135060714Y-79716666D02*
X135108333Y-79811904D01*
X134822619Y-78383333D02*
X134822619Y-78573809D01*
X134822619Y-78573809D02*
X134870238Y-78669047D01*
X134870238Y-78669047D02*
X134917857Y-78716666D01*
X134917857Y-78716666D02*
X135060714Y-78811904D01*
X135060714Y-78811904D02*
X135251190Y-78859523D01*
X135251190Y-78859523D02*
X135632142Y-78859523D01*
X135632142Y-78859523D02*
X135727380Y-78811904D01*
X135727380Y-78811904D02*
X135775000Y-78764285D01*
X135775000Y-78764285D02*
X135822619Y-78669047D01*
X135822619Y-78669047D02*
X135822619Y-78478571D01*
X135822619Y-78478571D02*
X135775000Y-78383333D01*
X135775000Y-78383333D02*
X135727380Y-78335714D01*
X135727380Y-78335714D02*
X135632142Y-78288095D01*
X135632142Y-78288095D02*
X135394047Y-78288095D01*
X135394047Y-78288095D02*
X135298809Y-78335714D01*
X135298809Y-78335714D02*
X135251190Y-78383333D01*
X135251190Y-78383333D02*
X135203571Y-78478571D01*
X135203571Y-78478571D02*
X135203571Y-78669047D01*
X135203571Y-78669047D02*
X135251190Y-78764285D01*
X135251190Y-78764285D02*
X135298809Y-78811904D01*
X135298809Y-78811904D02*
X135394047Y-78859523D01*
D12*
%TO.C,U3*%
X149570000Y-82300000D02*
X149570000Y-84250000D01*
X139450000Y-82300000D02*
X139450000Y-80350000D01*
X149570000Y-82300000D02*
X149570000Y-80350000D01*
X139450000Y-82300000D02*
X139450000Y-85750000D01*
D11*
%TO.C,SW1*%
X152250000Y-151175000D02*
X152250000Y-133875000D01*
X152250000Y-151175000D02*
X134250000Y-151175000D01*
X134250000Y-151175000D02*
X134250000Y-133875000D01*
X134250000Y-133875000D02*
X152150000Y-133875000D01*
D12*
%TO.C,J3*%
X145630000Y-114220000D02*
X145630000Y-115550000D01*
X144300000Y-114220000D02*
X145630000Y-114220000D01*
X143030000Y-114220000D02*
X140430000Y-114220000D01*
X143030000Y-114220000D02*
X143030000Y-116880000D01*
X140430000Y-114220000D02*
X140430000Y-116880000D01*
X143030000Y-116880000D02*
X140430000Y-116880000D01*
%TO.C,J1*%
X143610000Y-118195000D02*
X146530000Y-118195000D01*
X143610000Y-127095000D02*
X143610000Y-118195000D01*
X143610000Y-127135000D02*
X146530000Y-127135000D01*
X146530000Y-113445000D02*
X149160000Y-113445000D01*
X146530000Y-118195000D02*
X146530000Y-113445000D01*
X146530000Y-131885000D02*
X146530000Y-127135000D01*
X149160000Y-131885000D02*
X146530000Y-131885000D01*
X151960000Y-113445000D02*
X155560000Y-113445000D01*
X155560000Y-131885000D02*
X151960000Y-131885000D01*
X158260000Y-113445000D02*
X161860000Y-113445000D01*
X161860000Y-131885000D02*
X158260000Y-131885000D01*
X167380000Y-113445000D02*
X164660000Y-113445000D01*
X167380000Y-116845000D02*
X167380000Y-113445000D01*
X167380000Y-116845000D02*
X170380000Y-116845000D01*
X167380000Y-128485000D02*
X170380000Y-128485000D01*
X167380000Y-131885000D02*
X164660000Y-131885000D01*
X167380000Y-131885000D02*
X167380000Y-128485000D01*
X170380000Y-128485000D02*
X170380000Y-116845000D01*
%TO.C,JOVGI1*%
X148030000Y-110020000D02*
X148030000Y-111350000D01*
X146700000Y-110020000D02*
X148030000Y-110020000D01*
X145430000Y-110020000D02*
X137750000Y-110020000D01*
X145430000Y-110020000D02*
X145430000Y-112680000D01*
X137750000Y-110020000D02*
X137750000Y-112680000D01*
X145430000Y-112680000D02*
X137750000Y-112680000D01*
%TO.C,JOVGI2*%
X148030000Y-104470000D02*
X148030000Y-105800000D01*
X146700000Y-104470000D02*
X148030000Y-104470000D01*
X145430000Y-104470000D02*
X137750000Y-104470000D01*
X145430000Y-104470000D02*
X145430000Y-107130000D01*
X137750000Y-104470000D02*
X137750000Y-107130000D01*
X145430000Y-107130000D02*
X137750000Y-107130000D01*
%TO.C,C19*%
X163475000Y-138645225D02*
X163475000Y-139145225D01*
X163725000Y-138895225D02*
X163225000Y-138895225D01*
X164580000Y-141450000D02*
X159420000Y-141450000D01*
X164580000Y-141490000D02*
X159420000Y-141490000D01*
X164579000Y-141530000D02*
X159421000Y-141530000D01*
X164578000Y-141570000D02*
X159422000Y-141570000D01*
X164576000Y-141610000D02*
X159424000Y-141610000D01*
X164573000Y-141650000D02*
X159427000Y-141650000D01*
X164569000Y-141690000D02*
X163040000Y-141690000D01*
X160960000Y-141690000D02*
X159431000Y-141690000D01*
X164565000Y-141730000D02*
X163040000Y-141730000D01*
X160960000Y-141730000D02*
X159435000Y-141730000D01*
X164561000Y-141770000D02*
X163040000Y-141770000D01*
X160960000Y-141770000D02*
X159439000Y-141770000D01*
X164556000Y-141810000D02*
X163040000Y-141810000D01*
X160960000Y-141810000D02*
X159444000Y-141810000D01*
X164550000Y-141850000D02*
X163040000Y-141850000D01*
X160960000Y-141850000D02*
X159450000Y-141850000D01*
X164543000Y-141890000D02*
X163040000Y-141890000D01*
X160960000Y-141890000D02*
X159457000Y-141890000D01*
X164536000Y-141930000D02*
X163040000Y-141930000D01*
X160960000Y-141930000D02*
X159464000Y-141930000D01*
X164528000Y-141970000D02*
X163040000Y-141970000D01*
X160960000Y-141970000D02*
X159472000Y-141970000D01*
X164520000Y-142010000D02*
X163040000Y-142010000D01*
X160960000Y-142010000D02*
X159480000Y-142010000D01*
X164511000Y-142050000D02*
X163040000Y-142050000D01*
X160960000Y-142050000D02*
X159489000Y-142050000D01*
X164501000Y-142090000D02*
X163040000Y-142090000D01*
X160960000Y-142090000D02*
X159499000Y-142090000D01*
X164491000Y-142130000D02*
X163040000Y-142130000D01*
X160960000Y-142130000D02*
X159509000Y-142130000D01*
X164480000Y-142171000D02*
X163040000Y-142171000D01*
X160960000Y-142171000D02*
X159520000Y-142171000D01*
X164468000Y-142211000D02*
X163040000Y-142211000D01*
X160960000Y-142211000D02*
X159532000Y-142211000D01*
X164455000Y-142251000D02*
X163040000Y-142251000D01*
X160960000Y-142251000D02*
X159545000Y-142251000D01*
X164442000Y-142291000D02*
X163040000Y-142291000D01*
X160960000Y-142291000D02*
X159558000Y-142291000D01*
X164428000Y-142331000D02*
X163040000Y-142331000D01*
X160960000Y-142331000D02*
X159572000Y-142331000D01*
X164414000Y-142371000D02*
X163040000Y-142371000D01*
X160960000Y-142371000D02*
X159586000Y-142371000D01*
X164398000Y-142411000D02*
X163040000Y-142411000D01*
X160960000Y-142411000D02*
X159602000Y-142411000D01*
X164382000Y-142451000D02*
X163040000Y-142451000D01*
X160960000Y-142451000D02*
X159618000Y-142451000D01*
X164365000Y-142491000D02*
X163040000Y-142491000D01*
X160960000Y-142491000D02*
X159635000Y-142491000D01*
X164348000Y-142531000D02*
X163040000Y-142531000D01*
X160960000Y-142531000D02*
X159652000Y-142531000D01*
X164329000Y-142571000D02*
X163040000Y-142571000D01*
X160960000Y-142571000D02*
X159671000Y-142571000D01*
X164310000Y-142611000D02*
X163040000Y-142611000D01*
X160960000Y-142611000D02*
X159690000Y-142611000D01*
X164290000Y-142651000D02*
X163040000Y-142651000D01*
X160960000Y-142651000D02*
X159710000Y-142651000D01*
X164268000Y-142691000D02*
X163040000Y-142691000D01*
X160960000Y-142691000D02*
X159732000Y-142691000D01*
X164247000Y-142731000D02*
X163040000Y-142731000D01*
X160960000Y-142731000D02*
X159753000Y-142731000D01*
X164224000Y-142771000D02*
X163040000Y-142771000D01*
X160960000Y-142771000D02*
X159776000Y-142771000D01*
X164200000Y-142811000D02*
X163040000Y-142811000D01*
X160960000Y-142811000D02*
X159800000Y-142811000D01*
X164175000Y-142851000D02*
X163040000Y-142851000D01*
X160960000Y-142851000D02*
X159825000Y-142851000D01*
X164149000Y-142891000D02*
X163040000Y-142891000D01*
X160960000Y-142891000D02*
X159851000Y-142891000D01*
X164122000Y-142931000D02*
X163040000Y-142931000D01*
X160960000Y-142931000D02*
X159878000Y-142931000D01*
X164095000Y-142971000D02*
X163040000Y-142971000D01*
X160960000Y-142971000D02*
X159905000Y-142971000D01*
X164065000Y-143011000D02*
X163040000Y-143011000D01*
X160960000Y-143011000D02*
X159935000Y-143011000D01*
X164035000Y-143051000D02*
X163040000Y-143051000D01*
X160960000Y-143051000D02*
X159965000Y-143051000D01*
X164004000Y-143091000D02*
X163040000Y-143091000D01*
X160960000Y-143091000D02*
X159996000Y-143091000D01*
X163971000Y-143131000D02*
X163040000Y-143131000D01*
X160960000Y-143131000D02*
X160029000Y-143131000D01*
X163937000Y-143171000D02*
X163040000Y-143171000D01*
X160960000Y-143171000D02*
X160063000Y-143171000D01*
X163901000Y-143211000D02*
X163040000Y-143211000D01*
X160960000Y-143211000D02*
X160099000Y-143211000D01*
X163864000Y-143251000D02*
X163040000Y-143251000D01*
X160960000Y-143251000D02*
X160136000Y-143251000D01*
X163826000Y-143291000D02*
X163040000Y-143291000D01*
X160960000Y-143291000D02*
X160174000Y-143291000D01*
X163785000Y-143331000D02*
X163040000Y-143331000D01*
X160960000Y-143331000D02*
X160215000Y-143331000D01*
X163743000Y-143371000D02*
X163040000Y-143371000D01*
X160960000Y-143371000D02*
X160257000Y-143371000D01*
X163699000Y-143411000D02*
X163040000Y-143411000D01*
X160960000Y-143411000D02*
X160301000Y-143411000D01*
X163653000Y-143451000D02*
X163040000Y-143451000D01*
X160960000Y-143451000D02*
X160347000Y-143451000D01*
X163605000Y-143491000D02*
X163040000Y-143491000D01*
X160960000Y-143491000D02*
X160395000Y-143491000D01*
X163554000Y-143531000D02*
X163040000Y-143531000D01*
X160960000Y-143531000D02*
X160446000Y-143531000D01*
X163500000Y-143571000D02*
X163040000Y-143571000D01*
X160960000Y-143571000D02*
X160500000Y-143571000D01*
X163443000Y-143611000D02*
X163040000Y-143611000D01*
X160960000Y-143611000D02*
X160557000Y-143611000D01*
X163383000Y-143651000D02*
X163040000Y-143651000D01*
X160960000Y-143651000D02*
X160617000Y-143651000D01*
X163319000Y-143691000D02*
X163040000Y-143691000D01*
X160960000Y-143691000D02*
X160681000Y-143691000D01*
X163251000Y-143731000D02*
X163040000Y-143731000D01*
X160960000Y-143731000D02*
X160749000Y-143731000D01*
X163178000Y-143771000D02*
X160822000Y-143771000D01*
X163098000Y-143811000D02*
X160902000Y-143811000D01*
X163011000Y-143851000D02*
X160989000Y-143851000D01*
X162915000Y-143891000D02*
X161085000Y-143891000D01*
X162805000Y-143931000D02*
X161195000Y-143931000D01*
X162677000Y-143971000D02*
X161323000Y-143971000D01*
X162518000Y-144011000D02*
X161482000Y-144011000D01*
X162284000Y-144051000D02*
X161716000Y-144051000D01*
X164620000Y-141450000D02*
G75*
G03*
X164620000Y-141450000I-2620000J0D01*
G01*
D11*
%TO.C,D1*%
X124000000Y-138770000D02*
X121000000Y-138770000D01*
X124024903Y-138754887D02*
G75*
G03*
X121000000Y-138769999I-1524903J2484887D01*
G01*
X125017936Y-136270000D02*
G75*
G03*
X125017936Y-136270000I-2517936J0D01*
G01*
D12*
%TO.C,R25*%
X156245000Y-136072936D02*
X156245000Y-136527064D01*
X154775000Y-136072936D02*
X154775000Y-136527064D01*
%TO.C,R26*%
X126775000Y-136527064D02*
X126775000Y-136072936D01*
X128245000Y-136527064D02*
X128245000Y-136072936D01*
%TO.C,R27*%
X131735000Y-136072936D02*
X131735000Y-136527064D01*
X130265000Y-136072936D02*
X130265000Y-136527064D01*
%TO.C,C18*%
X160788748Y-134265000D02*
X161311252Y-134265000D01*
X160788748Y-135735000D02*
X161311252Y-135735000D01*
%TO.C,J4*%
X141960000Y-127135000D02*
X139040000Y-127135000D01*
X141960000Y-118235000D02*
X141960000Y-127135000D01*
X141960000Y-118195000D02*
X139040000Y-118195000D01*
X139040000Y-131885000D02*
X136410000Y-131885000D01*
X139040000Y-127135000D02*
X139040000Y-131885000D01*
X139040000Y-113445000D02*
X139040000Y-118195000D01*
X136410000Y-113445000D02*
X139040000Y-113445000D01*
X133610000Y-131885000D02*
X130010000Y-131885000D01*
X130010000Y-113445000D02*
X133610000Y-113445000D01*
X127310000Y-131885000D02*
X123710000Y-131885000D01*
X123710000Y-113445000D02*
X127310000Y-113445000D01*
X118190000Y-131885000D02*
X120910000Y-131885000D01*
X118190000Y-128485000D02*
X118190000Y-131885000D01*
X118190000Y-128485000D02*
X115190000Y-128485000D01*
X118190000Y-116845000D02*
X115190000Y-116845000D01*
X118190000Y-113445000D02*
X120910000Y-113445000D01*
X118190000Y-113445000D02*
X118190000Y-116845000D01*
X115190000Y-116845000D02*
X115190000Y-128485000D01*
%TO.C,J2*%
X133180000Y-54220000D02*
X134510000Y-54220000D01*
X133180000Y-55550000D02*
X133180000Y-54220000D01*
X133180000Y-56820000D02*
X133180000Y-59420000D01*
X133180000Y-56820000D02*
X135840000Y-56820000D01*
X133180000Y-59420000D02*
X135840000Y-59420000D01*
X135840000Y-56820000D02*
X135840000Y-59420000D01*
%TO.C,R1*%
X136237064Y-91785000D02*
X135782936Y-91785000D01*
X136237064Y-90315000D02*
X135782936Y-90315000D01*
%TO.C,RV2*%
X120130000Y-66395000D02*
X120130000Y-61675000D01*
X121320000Y-66395000D02*
X120140000Y-66395000D01*
X124220000Y-66395000D02*
X123690000Y-66395000D01*
X126670000Y-66395000D02*
X125840000Y-66395000D01*
X129880000Y-66395000D02*
X128390000Y-66395000D01*
X129880000Y-66395000D02*
X129880000Y-61675000D01*
X120140000Y-57865000D02*
X120140000Y-54805000D01*
X129880000Y-57865000D02*
X129880000Y-54805000D01*
X129880000Y-54805000D02*
X120140000Y-54805000D01*
%TO.C,C8*%
X161780000Y-96050000D02*
G75*
G03*
X161780000Y-96050000I-3270000J0D01*
G01*
X158912000Y-99291000D02*
X158108000Y-99291000D01*
X159143000Y-99251000D02*
X157877000Y-99251000D01*
X159312000Y-99211000D02*
X157708000Y-99211000D01*
X159450000Y-99171000D02*
X157570000Y-99171000D01*
X159569000Y-99131000D02*
X157451000Y-99131000D01*
X159675000Y-99091000D02*
X157345000Y-99091000D01*
X159772000Y-99051000D02*
X157248000Y-99051000D01*
X159860000Y-99011000D02*
X157160000Y-99011000D01*
X159942000Y-98971000D02*
X157078000Y-98971000D01*
X160019000Y-98931000D02*
X157001000Y-98931000D01*
X160091000Y-98891000D02*
X156929000Y-98891000D01*
X160160000Y-98851000D02*
X156860000Y-98851000D01*
X160224000Y-98811000D02*
X156796000Y-98811000D01*
X160286000Y-98771000D02*
X156734000Y-98771000D01*
X160344000Y-98731000D02*
X156676000Y-98731000D01*
X160400000Y-98691000D02*
X156620000Y-98691000D01*
X160454000Y-98651000D02*
X156566000Y-98651000D01*
X160505000Y-98611000D02*
X156515000Y-98611000D01*
X160554000Y-98571000D02*
X156466000Y-98571000D01*
X160602000Y-98531000D02*
X156418000Y-98531000D01*
X160647000Y-98491000D02*
X156373000Y-98491000D01*
X160692000Y-98451000D02*
X156328000Y-98451000D01*
X160734000Y-98411000D02*
X156286000Y-98411000D01*
X160775000Y-98371000D02*
X156245000Y-98371000D01*
X157470000Y-98331000D02*
X156205000Y-98331000D01*
X160815000Y-98331000D02*
X159550000Y-98331000D01*
X157470000Y-98291000D02*
X156167000Y-98291000D01*
X160853000Y-98291000D02*
X159550000Y-98291000D01*
X157470000Y-98251000D02*
X156130000Y-98251000D01*
X160890000Y-98251000D02*
X159550000Y-98251000D01*
X157470000Y-98211000D02*
X156094000Y-98211000D01*
X160926000Y-98211000D02*
X159550000Y-98211000D01*
X157470000Y-98171000D02*
X156060000Y-98171000D01*
X160960000Y-98171000D02*
X159550000Y-98171000D01*
X157470000Y-98131000D02*
X156026000Y-98131000D01*
X160994000Y-98131000D02*
X159550000Y-98131000D01*
X157470000Y-98091000D02*
X155994000Y-98091000D01*
X161026000Y-98091000D02*
X159550000Y-98091000D01*
X157470000Y-98051000D02*
X155962000Y-98051000D01*
X161058000Y-98051000D02*
X159550000Y-98051000D01*
X157470000Y-98011000D02*
X155932000Y-98011000D01*
X161088000Y-98011000D02*
X159550000Y-98011000D01*
X157470000Y-97971000D02*
X155903000Y-97971000D01*
X161117000Y-97971000D02*
X159550000Y-97971000D01*
X157470000Y-97931000D02*
X155874000Y-97931000D01*
X161146000Y-97931000D02*
X159550000Y-97931000D01*
X157470000Y-97891000D02*
X155846000Y-97891000D01*
X161174000Y-97891000D02*
X159550000Y-97891000D01*
X157470000Y-97851000D02*
X155820000Y-97851000D01*
X161200000Y-97851000D02*
X159550000Y-97851000D01*
X157470000Y-97811000D02*
X155794000Y-97811000D01*
X161226000Y-97811000D02*
X159550000Y-97811000D01*
X157470000Y-97771000D02*
X155768000Y-97771000D01*
X161252000Y-97771000D02*
X159550000Y-97771000D01*
X157470000Y-97731000D02*
X155744000Y-97731000D01*
X161276000Y-97731000D02*
X159550000Y-97731000D01*
X157470000Y-97691000D02*
X155720000Y-97691000D01*
X161300000Y-97691000D02*
X159550000Y-97691000D01*
X157470000Y-97651000D02*
X155698000Y-97651000D01*
X161322000Y-97651000D02*
X159550000Y-97651000D01*
X157470000Y-97611000D02*
X155676000Y-97611000D01*
X161344000Y-97611000D02*
X159550000Y-97611000D01*
X157470000Y-97571000D02*
X155654000Y-97571000D01*
X161366000Y-97571000D02*
X159550000Y-97571000D01*
X157470000Y-97531000D02*
X155634000Y-97531000D01*
X161386000Y-97531000D02*
X159550000Y-97531000D01*
X157470000Y-97491000D02*
X155614000Y-97491000D01*
X161406000Y-97491000D02*
X159550000Y-97491000D01*
X157470000Y-97451000D02*
X155594000Y-97451000D01*
X161426000Y-97451000D02*
X159550000Y-97451000D01*
X157470000Y-97411000D02*
X155576000Y-97411000D01*
X161444000Y-97411000D02*
X159550000Y-97411000D01*
X157470000Y-97371000D02*
X155558000Y-97371000D01*
X161462000Y-97371000D02*
X159550000Y-97371000D01*
X157470000Y-97331000D02*
X155540000Y-97331000D01*
X161480000Y-97331000D02*
X159550000Y-97331000D01*
X157470000Y-97291000D02*
X155524000Y-97291000D01*
X161496000Y-97291000D02*
X159550000Y-97291000D01*
X157470000Y-97251000D02*
X155508000Y-97251000D01*
X161512000Y-97251000D02*
X159550000Y-97251000D01*
X157470000Y-97211000D02*
X155492000Y-97211000D01*
X161528000Y-97211000D02*
X159550000Y-97211000D01*
X157470000Y-97171000D02*
X155477000Y-97171000D01*
X161543000Y-97171000D02*
X159550000Y-97171000D01*
X157470000Y-97131000D02*
X155463000Y-97131000D01*
X161557000Y-97131000D02*
X159550000Y-97131000D01*
X157470000Y-97091000D02*
X155449000Y-97091000D01*
X161571000Y-97091000D02*
X159550000Y-97091000D01*
X157470000Y-97051000D02*
X155436000Y-97051000D01*
X161584000Y-97051000D02*
X159550000Y-97051000D01*
X157470000Y-97011000D02*
X155424000Y-97011000D01*
X161596000Y-97011000D02*
X159550000Y-97011000D01*
X157470000Y-96971000D02*
X155412000Y-96971000D01*
X161608000Y-96971000D02*
X159550000Y-96971000D01*
X157470000Y-96931000D02*
X155400000Y-96931000D01*
X161620000Y-96931000D02*
X159550000Y-96931000D01*
X157470000Y-96891000D02*
X155389000Y-96891000D01*
X161631000Y-96891000D02*
X159550000Y-96891000D01*
X157470000Y-96851000D02*
X155379000Y-96851000D01*
X161641000Y-96851000D02*
X159550000Y-96851000D01*
X157470000Y-96811000D02*
X155369000Y-96811000D01*
X161651000Y-96811000D02*
X159550000Y-96811000D01*
X157470000Y-96771000D02*
X155360000Y-96771000D01*
X161660000Y-96771000D02*
X159550000Y-96771000D01*
X157470000Y-96730000D02*
X155351000Y-96730000D01*
X161669000Y-96730000D02*
X159550000Y-96730000D01*
X157470000Y-96690000D02*
X155343000Y-96690000D01*
X161677000Y-96690000D02*
X159550000Y-96690000D01*
X157470000Y-96650000D02*
X155335000Y-96650000D01*
X161685000Y-96650000D02*
X159550000Y-96650000D01*
X157470000Y-96610000D02*
X155328000Y-96610000D01*
X161692000Y-96610000D02*
X159550000Y-96610000D01*
X157470000Y-96570000D02*
X155321000Y-96570000D01*
X161699000Y-96570000D02*
X159550000Y-96570000D01*
X157470000Y-96530000D02*
X155315000Y-96530000D01*
X161705000Y-96530000D02*
X159550000Y-96530000D01*
X157470000Y-96490000D02*
X155309000Y-96490000D01*
X161711000Y-96490000D02*
X159550000Y-96490000D01*
X157470000Y-96450000D02*
X155304000Y-96450000D01*
X161716000Y-96450000D02*
X159550000Y-96450000D01*
X157470000Y-96410000D02*
X155299000Y-96410000D01*
X161721000Y-96410000D02*
X159550000Y-96410000D01*
X157470000Y-96370000D02*
X155295000Y-96370000D01*
X161725000Y-96370000D02*
X159550000Y-96370000D01*
X157470000Y-96330000D02*
X155292000Y-96330000D01*
X161728000Y-96330000D02*
X159550000Y-96330000D01*
X157470000Y-96290000D02*
X155288000Y-96290000D01*
X161732000Y-96290000D02*
X159550000Y-96290000D01*
X161734000Y-96250000D02*
X155286000Y-96250000D01*
X161737000Y-96210000D02*
X155283000Y-96210000D01*
X161738000Y-96170000D02*
X155282000Y-96170000D01*
X161740000Y-96130000D02*
X155280000Y-96130000D01*
X161740000Y-96090000D02*
X155280000Y-96090000D01*
X161740000Y-96050000D02*
X155280000Y-96050000D01*
X160664000Y-92864759D02*
X160034000Y-92864759D01*
X160349000Y-92549759D02*
X160349000Y-93179759D01*
%TO.C,C3*%
X135942621Y-82139000D02*
X135312621Y-82139000D01*
X135627621Y-82454000D02*
X135627621Y-81824000D01*
X132442380Y-83530000D02*
X132442380Y-77070000D01*
X132402380Y-83530000D02*
X132402380Y-77070000D01*
X132362380Y-83530000D02*
X132362380Y-77070000D01*
X132322380Y-83528000D02*
X132322380Y-77072000D01*
X132282380Y-83527000D02*
X132282380Y-77073000D01*
X132242380Y-83524000D02*
X132242380Y-77076000D01*
X132202380Y-83522000D02*
X132202380Y-81340000D01*
X132202380Y-79260000D02*
X132202380Y-77078000D01*
X132162380Y-83518000D02*
X132162380Y-81340000D01*
X132162380Y-79260000D02*
X132162380Y-77082000D01*
X132122380Y-83515000D02*
X132122380Y-81340000D01*
X132122380Y-79260000D02*
X132122380Y-77085000D01*
X132082380Y-83511000D02*
X132082380Y-81340000D01*
X132082380Y-79260000D02*
X132082380Y-77089000D01*
X132042380Y-83506000D02*
X132042380Y-81340000D01*
X132042380Y-79260000D02*
X132042380Y-77094000D01*
X132002380Y-83501000D02*
X132002380Y-81340000D01*
X132002380Y-79260000D02*
X132002380Y-77099000D01*
X131962380Y-83495000D02*
X131962380Y-81340000D01*
X131962380Y-79260000D02*
X131962380Y-77105000D01*
X131922380Y-83489000D02*
X131922380Y-81340000D01*
X131922380Y-79260000D02*
X131922380Y-77111000D01*
X131882380Y-83482000D02*
X131882380Y-81340000D01*
X131882380Y-79260000D02*
X131882380Y-77118000D01*
X131842380Y-83475000D02*
X131842380Y-81340000D01*
X131842380Y-79260000D02*
X131842380Y-77125000D01*
X131802380Y-83467000D02*
X131802380Y-81340000D01*
X131802380Y-79260000D02*
X131802380Y-77133000D01*
X131762380Y-83459000D02*
X131762380Y-81340000D01*
X131762380Y-79260000D02*
X131762380Y-77141000D01*
X131721380Y-83450000D02*
X131721380Y-81340000D01*
X131721380Y-79260000D02*
X131721380Y-77150000D01*
X131681380Y-83441000D02*
X131681380Y-81340000D01*
X131681380Y-79260000D02*
X131681380Y-77159000D01*
X131641380Y-83431000D02*
X131641380Y-81340000D01*
X131641380Y-79260000D02*
X131641380Y-77169000D01*
X131601380Y-83421000D02*
X131601380Y-81340000D01*
X131601380Y-79260000D02*
X131601380Y-77179000D01*
X131561380Y-83410000D02*
X131561380Y-81340000D01*
X131561380Y-79260000D02*
X131561380Y-77190000D01*
X131521380Y-83398000D02*
X131521380Y-81340000D01*
X131521380Y-79260000D02*
X131521380Y-77202000D01*
X131481380Y-83386000D02*
X131481380Y-81340000D01*
X131481380Y-79260000D02*
X131481380Y-77214000D01*
X131441380Y-83374000D02*
X131441380Y-81340000D01*
X131441380Y-79260000D02*
X131441380Y-77226000D01*
X131401380Y-83361000D02*
X131401380Y-81340000D01*
X131401380Y-79260000D02*
X131401380Y-77239000D01*
X131361380Y-83347000D02*
X131361380Y-81340000D01*
X131361380Y-79260000D02*
X131361380Y-77253000D01*
X131321380Y-83333000D02*
X131321380Y-81340000D01*
X131321380Y-79260000D02*
X131321380Y-77267000D01*
X131281380Y-83318000D02*
X131281380Y-81340000D01*
X131281380Y-79260000D02*
X131281380Y-77282000D01*
X131241380Y-83302000D02*
X131241380Y-81340000D01*
X131241380Y-79260000D02*
X131241380Y-77298000D01*
X131201380Y-83286000D02*
X131201380Y-81340000D01*
X131201380Y-79260000D02*
X131201380Y-77314000D01*
X131161380Y-83270000D02*
X131161380Y-81340000D01*
X131161380Y-79260000D02*
X131161380Y-77330000D01*
X131121380Y-83252000D02*
X131121380Y-81340000D01*
X131121380Y-79260000D02*
X131121380Y-77348000D01*
X131081380Y-83234000D02*
X131081380Y-81340000D01*
X131081380Y-79260000D02*
X131081380Y-77366000D01*
X131041380Y-83216000D02*
X131041380Y-81340000D01*
X131041380Y-79260000D02*
X131041380Y-77384000D01*
X131001380Y-83196000D02*
X131001380Y-81340000D01*
X131001380Y-79260000D02*
X131001380Y-77404000D01*
X130961380Y-83176000D02*
X130961380Y-81340000D01*
X130961380Y-79260000D02*
X130961380Y-77424000D01*
X130921380Y-83156000D02*
X130921380Y-81340000D01*
X130921380Y-79260000D02*
X130921380Y-77444000D01*
X130881380Y-83134000D02*
X130881380Y-81340000D01*
X130881380Y-79260000D02*
X130881380Y-77466000D01*
X130841380Y-83112000D02*
X130841380Y-81340000D01*
X130841380Y-79260000D02*
X130841380Y-77488000D01*
X130801380Y-83090000D02*
X130801380Y-81340000D01*
X130801380Y-79260000D02*
X130801380Y-77510000D01*
X130761380Y-83066000D02*
X130761380Y-81340000D01*
X130761380Y-79260000D02*
X130761380Y-77534000D01*
X130721380Y-83042000D02*
X130721380Y-81340000D01*
X130721380Y-79260000D02*
X130721380Y-77558000D01*
X130681380Y-83016000D02*
X130681380Y-81340000D01*
X130681380Y-79260000D02*
X130681380Y-77584000D01*
X130641380Y-82990000D02*
X130641380Y-81340000D01*
X130641380Y-79260000D02*
X130641380Y-77610000D01*
X130601380Y-82964000D02*
X130601380Y-81340000D01*
X130601380Y-79260000D02*
X130601380Y-77636000D01*
X130561380Y-82936000D02*
X130561380Y-81340000D01*
X130561380Y-79260000D02*
X130561380Y-77664000D01*
X130521380Y-82907000D02*
X130521380Y-81340000D01*
X130521380Y-79260000D02*
X130521380Y-77693000D01*
X130481380Y-82878000D02*
X130481380Y-81340000D01*
X130481380Y-79260000D02*
X130481380Y-77722000D01*
X130441380Y-82848000D02*
X130441380Y-81340000D01*
X130441380Y-79260000D02*
X130441380Y-77752000D01*
X130401380Y-82816000D02*
X130401380Y-81340000D01*
X130401380Y-79260000D02*
X130401380Y-77784000D01*
X130361380Y-82784000D02*
X130361380Y-81340000D01*
X130361380Y-79260000D02*
X130361380Y-77816000D01*
X130321380Y-82750000D02*
X130321380Y-81340000D01*
X130321380Y-79260000D02*
X130321380Y-77850000D01*
X130281380Y-82716000D02*
X130281380Y-81340000D01*
X130281380Y-79260000D02*
X130281380Y-77884000D01*
X130241380Y-82680000D02*
X130241380Y-81340000D01*
X130241380Y-79260000D02*
X130241380Y-77920000D01*
X130201380Y-82643000D02*
X130201380Y-81340000D01*
X130201380Y-79260000D02*
X130201380Y-77957000D01*
X130161380Y-82605000D02*
X130161380Y-81340000D01*
X130161380Y-79260000D02*
X130161380Y-77995000D01*
X130121380Y-82565000D02*
X130121380Y-78035000D01*
X130081380Y-82524000D02*
X130081380Y-78076000D01*
X130041380Y-82482000D02*
X130041380Y-78118000D01*
X130001380Y-82437000D02*
X130001380Y-78163000D01*
X129961380Y-82392000D02*
X129961380Y-78208000D01*
X129921380Y-82344000D02*
X129921380Y-78256000D01*
X129881380Y-82295000D02*
X129881380Y-78305000D01*
X129841380Y-82244000D02*
X129841380Y-78356000D01*
X129801380Y-82190000D02*
X129801380Y-78410000D01*
X129761380Y-82134000D02*
X129761380Y-78466000D01*
X129721380Y-82076000D02*
X129721380Y-78524000D01*
X129681380Y-82014000D02*
X129681380Y-78586000D01*
X129641380Y-81950000D02*
X129641380Y-78650000D01*
X129601380Y-81881000D02*
X129601380Y-78719000D01*
X129561380Y-81809000D02*
X129561380Y-78791000D01*
X129521380Y-81732000D02*
X129521380Y-78868000D01*
X129481380Y-81650000D02*
X129481380Y-78950000D01*
X129441380Y-81562000D02*
X129441380Y-79038000D01*
X129401380Y-81465000D02*
X129401380Y-79135000D01*
X129361380Y-81359000D02*
X129361380Y-79241000D01*
X129321380Y-81240000D02*
X129321380Y-79360000D01*
X129281380Y-81102000D02*
X129281380Y-79498000D01*
X129241380Y-80933000D02*
X129241380Y-79667000D01*
X129201380Y-80702000D02*
X129201380Y-79898000D01*
X135712380Y-80300000D02*
G75*
G03*
X135712380Y-80300000I-3270000J0D01*
G01*
%TO.C,R15*%
X151237064Y-99285000D02*
X150782936Y-99285000D01*
X151237064Y-97815000D02*
X150782936Y-97815000D01*
%TO.C,R14*%
X152245000Y-80072936D02*
X152245000Y-80527064D01*
X150775000Y-80072936D02*
X150775000Y-80527064D01*
%TO.C,G\u002A\u002A\u002A*%
G36*
X124969240Y-95667099D02*
G01*
X125049503Y-95690477D01*
X125171308Y-95737052D01*
X125273219Y-95790254D01*
X125367144Y-95857527D01*
X125464989Y-95946319D01*
X125475972Y-95957191D01*
X125599057Y-96101719D01*
X125691263Y-96260063D01*
X125754189Y-96435005D01*
X125757142Y-96446378D01*
X125773432Y-96541491D01*
X125781073Y-96655769D01*
X125780211Y-96776471D01*
X125770990Y-96890860D01*
X125753557Y-96986195D01*
X125750882Y-96995881D01*
X125731198Y-97058560D01*
X125711254Y-97113750D01*
X125699134Y-97141661D01*
X125675517Y-97185979D01*
X125640730Y-97248915D01*
X125597670Y-97325456D01*
X125549232Y-97410590D01*
X125498312Y-97499303D01*
X125447809Y-97586584D01*
X125400617Y-97667421D01*
X125359634Y-97736801D01*
X125327756Y-97789711D01*
X125307879Y-97821140D01*
X125302707Y-97827684D01*
X125291113Y-97813668D01*
X125266592Y-97775730D01*
X125232690Y-97720036D01*
X125192951Y-97652752D01*
X125150922Y-97580042D01*
X125110148Y-97508072D01*
X125074174Y-97443009D01*
X125046546Y-97391016D01*
X125030808Y-97358260D01*
X125028501Y-97350835D01*
X125036781Y-97329068D01*
X125058948Y-97285688D01*
X125090987Y-97228344D01*
X125108270Y-97198817D01*
X125175299Y-97082685D01*
X125224691Y-96988336D01*
X125258805Y-96909687D01*
X125280002Y-96840652D01*
X125290642Y-96775146D01*
X125293134Y-96722130D01*
X125286544Y-96604779D01*
X125262747Y-96505992D01*
X125218123Y-96412840D01*
X125197327Y-96379795D01*
X125108349Y-96274308D01*
X125000825Y-96197318D01*
X124876492Y-96149661D01*
X124737089Y-96132175D01*
X124685283Y-96133324D01*
X124542656Y-96156106D01*
X124419558Y-96206939D01*
X124315460Y-96286051D01*
X124305461Y-96296162D01*
X124286012Y-96322278D01*
X124251083Y-96375681D01*
X124202182Y-96453858D01*
X124140816Y-96554297D01*
X124068493Y-96674487D01*
X123986721Y-96811916D01*
X123897009Y-96964070D01*
X123800863Y-97128439D01*
X123699793Y-97302509D01*
X123658957Y-97373193D01*
X123356472Y-97897485D01*
X123070678Y-98392780D01*
X122801151Y-98859809D01*
X122547468Y-99299301D01*
X122309206Y-99711986D01*
X122085940Y-100098595D01*
X121877249Y-100459857D01*
X121682707Y-100796503D01*
X121501892Y-101109262D01*
X121334381Y-101398865D01*
X121179750Y-101666041D01*
X121037575Y-101911521D01*
X120907433Y-102136034D01*
X120788901Y-102340311D01*
X120681555Y-102525082D01*
X120584972Y-102691076D01*
X120498729Y-102839024D01*
X120422401Y-102969656D01*
X120355566Y-103083701D01*
X120297801Y-103181890D01*
X120248681Y-103264953D01*
X120207783Y-103333619D01*
X120174685Y-103388619D01*
X120148962Y-103430684D01*
X120130191Y-103460541D01*
X120117948Y-103478923D01*
X120116031Y-103481578D01*
X119998553Y-103612148D01*
X119858095Y-103719984D01*
X119699115Y-103802935D01*
X119526073Y-103858850D01*
X119343428Y-103885576D01*
X119274483Y-103887636D01*
X119085412Y-103871770D01*
X118908811Y-103824417D01*
X118743295Y-103745008D01*
X118587477Y-103632975D01*
X118532085Y-103583217D01*
X118411121Y-103445519D01*
X118317267Y-103289963D01*
X118251629Y-103121060D01*
X118215316Y-102943325D01*
X118209435Y-102761270D01*
X118235094Y-102579408D01*
X118262201Y-102483625D01*
X118281359Y-102436607D01*
X118313829Y-102367647D01*
X118356449Y-102282570D01*
X118406062Y-102187197D01*
X118459508Y-102087350D01*
X118513627Y-101988853D01*
X118565259Y-101897529D01*
X118611246Y-101819199D01*
X118648427Y-101759686D01*
X118673643Y-101724813D01*
X118674427Y-101723938D01*
X118685669Y-101720534D01*
X118702418Y-101733040D01*
X118727160Y-101764779D01*
X118762380Y-101819071D01*
X118810566Y-101899240D01*
X118828455Y-101929745D01*
X118874629Y-102009952D01*
X118913946Y-102080443D01*
X118943381Y-102135621D01*
X118959910Y-102169888D01*
X118962404Y-102177663D01*
X118954388Y-102199066D01*
X118932099Y-102243784D01*
X118898781Y-102305640D01*
X118857677Y-102378460D01*
X118849824Y-102392045D01*
X118788150Y-102503186D01*
X118744868Y-102594727D01*
X118717614Y-102674375D01*
X118704021Y-102749837D01*
X118701726Y-102828820D01*
X118703780Y-102868000D01*
X118729152Y-103002105D01*
X118782457Y-103120988D01*
X118859705Y-103221977D01*
X118956906Y-103302402D01*
X119070071Y-103359591D01*
X119195211Y-103390874D01*
X119328336Y-103393579D01*
X119452360Y-103369165D01*
X119475647Y-103362720D01*
X119496737Y-103357606D01*
X119516316Y-103352725D01*
X119535074Y-103346976D01*
X119553696Y-103339262D01*
X119572871Y-103328483D01*
X119593286Y-103313541D01*
X119615629Y-103293337D01*
X119640587Y-103266773D01*
X119668848Y-103232748D01*
X119701100Y-103190165D01*
X119738029Y-103137925D01*
X119780323Y-103074928D01*
X119828670Y-103000077D01*
X119883758Y-102912272D01*
X119946273Y-102810414D01*
X120016904Y-102693404D01*
X120096338Y-102560145D01*
X120185262Y-102409536D01*
X120284365Y-102240480D01*
X120394333Y-102051876D01*
X120515853Y-101842627D01*
X120649615Y-101611634D01*
X120796304Y-101357798D01*
X120956610Y-101080019D01*
X121131218Y-100777200D01*
X121320817Y-100448241D01*
X121526094Y-100092043D01*
X121747737Y-99707509D01*
X121798233Y-99619919D01*
X123835110Y-96086900D01*
X123973027Y-95948773D01*
X124056885Y-95869564D01*
X124131691Y-95810713D01*
X124207897Y-95764358D01*
X124239574Y-95748299D01*
X124417415Y-95680084D01*
X124601389Y-95643592D01*
X124786871Y-95639154D01*
X124969240Y-95667099D01*
G37*
G36*
X124369705Y-96728128D02*
G01*
X124395008Y-96769298D01*
X124433644Y-96833978D01*
X124483768Y-96919032D01*
X124543536Y-97021325D01*
X124611105Y-97137722D01*
X124684629Y-97265088D01*
X124715154Y-97318160D01*
X124800914Y-97467332D01*
X124899784Y-97639162D01*
X125007711Y-97826609D01*
X125120638Y-98022636D01*
X125234510Y-98220202D01*
X125345271Y-98412269D01*
X125448867Y-98591798D01*
X125482995Y-98650911D01*
X125567966Y-98798686D01*
X125648704Y-98940293D01*
X125723354Y-99072394D01*
X125790061Y-99191652D01*
X125846971Y-99294730D01*
X125892227Y-99378291D01*
X125923976Y-99438999D01*
X125940362Y-99473515D01*
X125940608Y-99474139D01*
X125969937Y-99581206D01*
X125984636Y-99705800D01*
X125984462Y-99834771D01*
X125969174Y-99954964D01*
X125950734Y-100022957D01*
X125936269Y-100054598D01*
X125905719Y-100113807D01*
X125860249Y-100198506D01*
X125801021Y-100306615D01*
X125729202Y-100436053D01*
X125645956Y-100584742D01*
X125552446Y-100750602D01*
X125449837Y-100931553D01*
X125339294Y-101125516D01*
X125221980Y-101330411D01*
X125099061Y-101544159D01*
X125096996Y-101547743D01*
X124952628Y-101798128D01*
X124824150Y-102020554D01*
X124710377Y-102216813D01*
X124610125Y-102388696D01*
X124522208Y-102537994D01*
X124445443Y-102666498D01*
X124378645Y-102776000D01*
X124320628Y-102868289D01*
X124270208Y-102945159D01*
X124226202Y-103008399D01*
X124187423Y-103059801D01*
X124152687Y-103101156D01*
X124120811Y-103134254D01*
X124090608Y-103160889D01*
X124060895Y-103182849D01*
X124030487Y-103201927D01*
X123998198Y-103219913D01*
X123987139Y-103225803D01*
X123941092Y-103249872D01*
X123899387Y-103270038D01*
X123858581Y-103286648D01*
X123815230Y-103300047D01*
X123765892Y-103310578D01*
X123707123Y-103318588D01*
X123635482Y-103324422D01*
X123547524Y-103328424D01*
X123439807Y-103330939D01*
X123308888Y-103332313D01*
X123151324Y-103332891D01*
X122963672Y-103333016D01*
X122917235Y-103333018D01*
X122132790Y-103333018D01*
X121879511Y-103772134D01*
X121814779Y-103883528D01*
X121754886Y-103985009D01*
X121702123Y-104072820D01*
X121658780Y-104143204D01*
X121627150Y-104192404D01*
X121609523Y-104216661D01*
X121607332Y-104218503D01*
X121584387Y-104220712D01*
X121533539Y-104222034D01*
X121461178Y-104222412D01*
X121373691Y-104221790D01*
X121322146Y-104221014D01*
X121055859Y-104216272D01*
X121309157Y-103778933D01*
X121562455Y-103341593D01*
X121049110Y-103333018D01*
X120535765Y-103324443D01*
X120685475Y-103063351D01*
X120835185Y-102802259D01*
X121356574Y-102797517D01*
X121877962Y-102792775D01*
X122211096Y-102218231D01*
X122285394Y-102089952D01*
X122354383Y-101970575D01*
X122416139Y-101863445D01*
X122468742Y-101771908D01*
X122510268Y-101699312D01*
X122538795Y-101649001D01*
X122552401Y-101624323D01*
X122553169Y-101622743D01*
X122548039Y-101601486D01*
X122528116Y-101556169D01*
X122496091Y-101492242D01*
X122454651Y-101415158D01*
X122423258Y-101359388D01*
X122376641Y-101277513D01*
X122336687Y-101206409D01*
X122306249Y-101151228D01*
X122288177Y-101117121D01*
X122284409Y-101108607D01*
X122292770Y-101092907D01*
X122316950Y-101049868D01*
X122355591Y-100981844D01*
X122407338Y-100891186D01*
X122470834Y-100780248D01*
X122544723Y-100651383D01*
X122627647Y-100506943D01*
X122718251Y-100349282D01*
X122815178Y-100180752D01*
X122917072Y-100003707D01*
X123022575Y-99820498D01*
X123130332Y-99633480D01*
X123238987Y-99445004D01*
X123347182Y-99257424D01*
X123453561Y-99073093D01*
X123556767Y-98894363D01*
X123655445Y-98723588D01*
X123748238Y-98563120D01*
X123833788Y-98415311D01*
X123910741Y-98282516D01*
X123977739Y-98167087D01*
X124033425Y-98071376D01*
X124076444Y-97997737D01*
X124105439Y-97948523D01*
X124119053Y-97926085D01*
X124119817Y-97925012D01*
X124132622Y-97933361D01*
X124158268Y-97966513D01*
X124193064Y-98019215D01*
X124233320Y-98086217D01*
X124234314Y-98087942D01*
X124276473Y-98161122D01*
X124330831Y-98255382D01*
X124392416Y-98362107D01*
X124456258Y-98472682D01*
X124510866Y-98567212D01*
X124563792Y-98659777D01*
X124610269Y-98742930D01*
X124647708Y-98811883D01*
X124673517Y-98861844D01*
X124685105Y-98888024D01*
X124685489Y-98890062D01*
X124677071Y-98907199D01*
X124652491Y-98952252D01*
X124612764Y-99023447D01*
X124558902Y-99119008D01*
X124491920Y-99237161D01*
X124412830Y-99376129D01*
X124322646Y-99534138D01*
X124222381Y-99709414D01*
X124113049Y-99900179D01*
X123995663Y-100104661D01*
X123871236Y-100321082D01*
X123740782Y-100547669D01*
X123605314Y-100782646D01*
X123580287Y-100826024D01*
X123443827Y-101062588D01*
X123312032Y-101291222D01*
X123185928Y-101510140D01*
X123066542Y-101717551D01*
X122954900Y-101911667D01*
X122852029Y-102090699D01*
X122758956Y-102252858D01*
X122676707Y-102396357D01*
X122606308Y-102519405D01*
X122548787Y-102620215D01*
X122505170Y-102696997D01*
X122476482Y-102747962D01*
X122463752Y-102771323D01*
X122463247Y-102772426D01*
X122461416Y-102780957D01*
X122465392Y-102787713D01*
X122478564Y-102792855D01*
X122504319Y-102796543D01*
X122546047Y-102798937D01*
X122607134Y-102800198D01*
X122690970Y-102800486D01*
X122800943Y-102799961D01*
X122940440Y-102798784D01*
X123006768Y-102798152D01*
X123562126Y-102792775D01*
X123657938Y-102747843D01*
X123722226Y-102712198D01*
X123783522Y-102669357D01*
X123813005Y-102643656D01*
X123828235Y-102622297D01*
X123859030Y-102573843D01*
X123903850Y-102500930D01*
X123961155Y-102406196D01*
X124029404Y-102292277D01*
X124107056Y-102161809D01*
X124192570Y-102017428D01*
X124284406Y-101861772D01*
X124381023Y-101697476D01*
X124480881Y-101527178D01*
X124582438Y-101353513D01*
X124684155Y-101179118D01*
X124784491Y-101006630D01*
X124881904Y-100838684D01*
X124974855Y-100677918D01*
X125061802Y-100526968D01*
X125141206Y-100388471D01*
X125211525Y-100265062D01*
X125271218Y-100159379D01*
X125318746Y-100074058D01*
X125352567Y-100011735D01*
X125364991Y-99987772D01*
X125404075Y-99875954D01*
X125417026Y-99755259D01*
X125402427Y-99639161D01*
X125401869Y-99637069D01*
X125387849Y-99602126D01*
X125358226Y-99541104D01*
X125314854Y-99457449D01*
X125259586Y-99354609D01*
X125194276Y-99236031D01*
X125120777Y-99105162D01*
X125040943Y-98965450D01*
X125037584Y-98959621D01*
X124944064Y-98797422D01*
X124839771Y-98616544D01*
X124729769Y-98425768D01*
X124619119Y-98233876D01*
X124512885Y-98049647D01*
X124416131Y-97881863D01*
X124371944Y-97805238D01*
X124047450Y-97242550D01*
X124199202Y-96977723D01*
X124248461Y-96892601D01*
X124292020Y-96818917D01*
X124327009Y-96761403D01*
X124350556Y-96724785D01*
X124359578Y-96713602D01*
X124369705Y-96728128D01*
G37*
G36*
X122888197Y-95293614D02*
G01*
X122916986Y-95297581D01*
X122929581Y-95304080D01*
X122930504Y-95313476D01*
X122929941Y-95315092D01*
X122918930Y-95336526D01*
X122893058Y-95383479D01*
X122854670Y-95451801D01*
X122806114Y-95537338D01*
X122749735Y-95635939D01*
X122687880Y-95743452D01*
X122687089Y-95744822D01*
X122625221Y-95852333D01*
X122568829Y-95950903D01*
X122520252Y-96036398D01*
X122481829Y-96104682D01*
X122455900Y-96151621D01*
X122444803Y-96173081D01*
X122444762Y-96173184D01*
X122445683Y-96180469D01*
X122456923Y-96186229D01*
X122481873Y-96190636D01*
X122523923Y-96193862D01*
X122586463Y-96196077D01*
X122672883Y-96197454D01*
X122786573Y-96198164D01*
X122930923Y-96198378D01*
X122942871Y-96198379D01*
X123070828Y-96198796D01*
X123186899Y-96199974D01*
X123286871Y-96201807D01*
X123366536Y-96204188D01*
X123421682Y-96207011D01*
X123448100Y-96210167D01*
X123449797Y-96211242D01*
X123441293Y-96229619D01*
X123418264Y-96272457D01*
X123383558Y-96334637D01*
X123340025Y-96411044D01*
X123301857Y-96477076D01*
X123154768Y-96730047D01*
X122636293Y-96730047D01*
X122117819Y-96730047D01*
X121772480Y-97329207D01*
X121427141Y-97928367D01*
X121564155Y-98165298D01*
X121610775Y-98247064D01*
X121650597Y-98319097D01*
X121680681Y-98375908D01*
X121698090Y-98412002D01*
X121701230Y-98421501D01*
X121692871Y-98438235D01*
X121668687Y-98482291D01*
X121630037Y-98551308D01*
X121578280Y-98642923D01*
X121514776Y-98754774D01*
X121440884Y-98884496D01*
X121357963Y-99029729D01*
X121267373Y-99188109D01*
X121170473Y-99357273D01*
X121068622Y-99534860D01*
X120963180Y-99718505D01*
X120855506Y-99905847D01*
X120746959Y-100094523D01*
X120638899Y-100282170D01*
X120532685Y-100466425D01*
X120429676Y-100644926D01*
X120331232Y-100815310D01*
X120238712Y-100975215D01*
X120153476Y-101122277D01*
X120076882Y-101254135D01*
X120010290Y-101368425D01*
X119955059Y-101462784D01*
X119912549Y-101534851D01*
X119884119Y-101582262D01*
X119871129Y-101602654D01*
X119870728Y-101603120D01*
X119860095Y-101591464D01*
X119834906Y-101554268D01*
X119797663Y-101495752D01*
X119750871Y-101420133D01*
X119697032Y-101331630D01*
X119638651Y-101234461D01*
X119578230Y-101132845D01*
X119518275Y-101030999D01*
X119461287Y-100933142D01*
X119409772Y-100843492D01*
X119366232Y-100766269D01*
X119333171Y-100705688D01*
X119313093Y-100665971D01*
X119309492Y-100657505D01*
X119316640Y-100639255D01*
X119340345Y-100592651D01*
X119379886Y-100518968D01*
X119434542Y-100419484D01*
X119503592Y-100295475D01*
X119586314Y-100148218D01*
X119681989Y-99978990D01*
X119789895Y-99789068D01*
X119909310Y-99579728D01*
X120039515Y-99352247D01*
X120179787Y-99107902D01*
X120329407Y-98847969D01*
X120423290Y-98685189D01*
X121546769Y-96738622D01*
X121010905Y-96734084D01*
X120842192Y-96732937D01*
X120703794Y-96733091D01*
X120591733Y-96735237D01*
X120502028Y-96740063D01*
X120430699Y-96748259D01*
X120373767Y-96760514D01*
X120327251Y-96777517D01*
X120287172Y-96799959D01*
X120249550Y-96828528D01*
X120210405Y-96863913D01*
X120199080Y-96874705D01*
X120180793Y-96893805D01*
X120159775Y-96919206D01*
X120134874Y-96952809D01*
X120104939Y-96996515D01*
X120068819Y-97052224D01*
X120025362Y-97121838D01*
X119973417Y-97207255D01*
X119911833Y-97310377D01*
X119839458Y-97433105D01*
X119755140Y-97577340D01*
X119657729Y-97744981D01*
X119546073Y-97937929D01*
X119419021Y-98158085D01*
X119368131Y-98246382D01*
X119256323Y-98440730D01*
X119149094Y-98627702D01*
X119047737Y-98805010D01*
X118953546Y-98970363D01*
X118867814Y-99121473D01*
X118791834Y-99256051D01*
X118726900Y-99371807D01*
X118674305Y-99466452D01*
X118635342Y-99537698D01*
X118611304Y-99583254D01*
X118603863Y-99599146D01*
X118582307Y-99701927D01*
X118582642Y-99814495D01*
X118604164Y-99921543D01*
X118620667Y-99964039D01*
X118638837Y-99999549D01*
X118671882Y-100060546D01*
X118717461Y-100142850D01*
X118773232Y-100242281D01*
X118836856Y-100354658D01*
X118905989Y-100475801D01*
X118956829Y-100564309D01*
X119038084Y-100705383D01*
X119131863Y-100868204D01*
X119233570Y-101044794D01*
X119338610Y-101227173D01*
X119442389Y-101407364D01*
X119540311Y-101577390D01*
X119597950Y-101677473D01*
X119672977Y-101808400D01*
X119742126Y-101930331D01*
X119803611Y-102040020D01*
X119855646Y-102134224D01*
X119896445Y-102209699D01*
X119924222Y-102263200D01*
X119937191Y-102291484D01*
X119937883Y-102294893D01*
X119927323Y-102316783D01*
X119903439Y-102360661D01*
X119869578Y-102420793D01*
X119829088Y-102491443D01*
X119785317Y-102566876D01*
X119741611Y-102641357D01*
X119701317Y-102709150D01*
X119667784Y-102764521D01*
X119644358Y-102801734D01*
X119634387Y-102815054D01*
X119634321Y-102815015D01*
X119625020Y-102799577D01*
X119600324Y-102757444D01*
X119561983Y-102691629D01*
X119511746Y-102605145D01*
X119451362Y-102501007D01*
X119382580Y-102382228D01*
X119307150Y-102251821D01*
X119248094Y-102149628D01*
X119148991Y-101978097D01*
X119037642Y-101785406D01*
X118918977Y-101580087D01*
X118797929Y-101370670D01*
X118679427Y-101165686D01*
X118568403Y-100973667D01*
X118479803Y-100820459D01*
X118398050Y-100678254D01*
X118320453Y-100541648D01*
X118248988Y-100414236D01*
X118185630Y-100299614D01*
X118132355Y-100201376D01*
X118091139Y-100123117D01*
X118063957Y-100068432D01*
X118054543Y-100046671D01*
X118013348Y-99887616D01*
X118003554Y-99725629D01*
X118025031Y-99566881D01*
X118067452Y-99439838D01*
X118080772Y-99414018D01*
X118109996Y-99360690D01*
X118153875Y-99282048D01*
X118211162Y-99180288D01*
X118280607Y-99057606D01*
X118360964Y-98916198D01*
X118450982Y-98758258D01*
X118549416Y-98585984D01*
X118655015Y-98401570D01*
X118766533Y-98207212D01*
X118882720Y-98005106D01*
X118910788Y-97956339D01*
X119054367Y-97706969D01*
X119182039Y-97485518D01*
X119295028Y-97290188D01*
X119394564Y-97119185D01*
X119481871Y-96970711D01*
X119558176Y-96842971D01*
X119624707Y-96734167D01*
X119682689Y-96642503D01*
X119733349Y-96566184D01*
X119777914Y-96503412D01*
X119817610Y-96452392D01*
X119853663Y-96411326D01*
X119887301Y-96378419D01*
X119919750Y-96351874D01*
X119952236Y-96329895D01*
X119985987Y-96310685D01*
X120022227Y-96292448D01*
X120058800Y-96274996D01*
X120105483Y-96254136D01*
X120152539Y-96236592D01*
X120203321Y-96222081D01*
X120261181Y-96210322D01*
X120329473Y-96201032D01*
X120411547Y-96193930D01*
X120510759Y-96188734D01*
X120630459Y-96185162D01*
X120774002Y-96182931D01*
X120944739Y-96181760D01*
X121146023Y-96181367D01*
X121172106Y-96181359D01*
X121869189Y-96181229D01*
X122123963Y-95739601D01*
X122378737Y-95297974D01*
X122659435Y-95293252D01*
X122763944Y-95291815D01*
X122838690Y-95291814D01*
X122888197Y-95293614D01*
G37*
%TO.C,R17*%
X147237064Y-101535000D02*
X146782936Y-101535000D01*
X147237064Y-100065000D02*
X146782936Y-100065000D01*
%TO.C,C16*%
X140521252Y-102785000D02*
X139998748Y-102785000D01*
X140521252Y-101315000D02*
X139998748Y-101315000D01*
%TO.C,R7*%
X163237064Y-92535000D02*
X162782936Y-92535000D01*
X163237064Y-91065000D02*
X162782936Y-91065000D01*
%TO.C,RV1*%
X155580000Y-66670000D02*
X155580000Y-61950000D01*
X156770000Y-66670000D02*
X155590000Y-66670000D01*
X159670000Y-66670000D02*
X159140000Y-66670000D01*
X162120000Y-66670000D02*
X161290000Y-66670000D01*
X165330000Y-66670000D02*
X163840000Y-66670000D01*
X165330000Y-66670000D02*
X165330000Y-61950000D01*
X155590000Y-58140000D02*
X155590000Y-55080000D01*
X165330000Y-58140000D02*
X165330000Y-55080000D01*
X165330000Y-55080000D02*
X155590000Y-55080000D01*
%TO.C,C5*%
X128849000Y-84867380D02*
X128849000Y-85497380D01*
X129164000Y-85182380D02*
X128534000Y-85182380D01*
X130240000Y-88367621D02*
X123780000Y-88367621D01*
X130240000Y-88407621D02*
X123780000Y-88407621D01*
X130240000Y-88447621D02*
X123780000Y-88447621D01*
X130238000Y-88487621D02*
X123782000Y-88487621D01*
X130237000Y-88527621D02*
X123783000Y-88527621D01*
X130234000Y-88567621D02*
X123786000Y-88567621D01*
X130232000Y-88607621D02*
X128050000Y-88607621D01*
X125970000Y-88607621D02*
X123788000Y-88607621D01*
X130228000Y-88647621D02*
X128050000Y-88647621D01*
X125970000Y-88647621D02*
X123792000Y-88647621D01*
X130225000Y-88687621D02*
X128050000Y-88687621D01*
X125970000Y-88687621D02*
X123795000Y-88687621D01*
X130221000Y-88727621D02*
X128050000Y-88727621D01*
X125970000Y-88727621D02*
X123799000Y-88727621D01*
X130216000Y-88767621D02*
X128050000Y-88767621D01*
X125970000Y-88767621D02*
X123804000Y-88767621D01*
X130211000Y-88807621D02*
X128050000Y-88807621D01*
X125970000Y-88807621D02*
X123809000Y-88807621D01*
X130205000Y-88847621D02*
X128050000Y-88847621D01*
X125970000Y-88847621D02*
X123815000Y-88847621D01*
X130199000Y-88887621D02*
X128050000Y-88887621D01*
X125970000Y-88887621D02*
X123821000Y-88887621D01*
X130192000Y-88927621D02*
X128050000Y-88927621D01*
X125970000Y-88927621D02*
X123828000Y-88927621D01*
X130185000Y-88967621D02*
X128050000Y-88967621D01*
X125970000Y-88967621D02*
X123835000Y-88967621D01*
X130177000Y-89007621D02*
X128050000Y-89007621D01*
X125970000Y-89007621D02*
X123843000Y-89007621D01*
X130169000Y-89047621D02*
X128050000Y-89047621D01*
X125970000Y-89047621D02*
X123851000Y-89047621D01*
X130160000Y-89088621D02*
X128050000Y-89088621D01*
X125970000Y-89088621D02*
X123860000Y-89088621D01*
X130151000Y-89128621D02*
X128050000Y-89128621D01*
X125970000Y-89128621D02*
X123869000Y-89128621D01*
X130141000Y-89168621D02*
X128050000Y-89168621D01*
X125970000Y-89168621D02*
X123879000Y-89168621D01*
X130131000Y-89208621D02*
X128050000Y-89208621D01*
X125970000Y-89208621D02*
X123889000Y-89208621D01*
X130120000Y-89248621D02*
X128050000Y-89248621D01*
X125970000Y-89248621D02*
X123900000Y-89248621D01*
X130108000Y-89288621D02*
X128050000Y-89288621D01*
X125970000Y-89288621D02*
X123912000Y-89288621D01*
X130096000Y-89328621D02*
X128050000Y-89328621D01*
X125970000Y-89328621D02*
X123924000Y-89328621D01*
X130084000Y-89368621D02*
X128050000Y-89368621D01*
X125970000Y-89368621D02*
X123936000Y-89368621D01*
X130071000Y-89408621D02*
X128050000Y-89408621D01*
X125970000Y-89408621D02*
X123949000Y-89408621D01*
X130057000Y-89448621D02*
X128050000Y-89448621D01*
X125970000Y-89448621D02*
X123963000Y-89448621D01*
X130043000Y-89488621D02*
X128050000Y-89488621D01*
X125970000Y-89488621D02*
X123977000Y-89488621D01*
X130028000Y-89528621D02*
X128050000Y-89528621D01*
X125970000Y-89528621D02*
X123992000Y-89528621D01*
X130012000Y-89568621D02*
X128050000Y-89568621D01*
X125970000Y-89568621D02*
X124008000Y-89568621D01*
X129996000Y-89608621D02*
X128050000Y-89608621D01*
X125970000Y-89608621D02*
X124024000Y-89608621D01*
X129980000Y-89648621D02*
X128050000Y-89648621D01*
X125970000Y-89648621D02*
X124040000Y-89648621D01*
X129962000Y-89688621D02*
X128050000Y-89688621D01*
X125970000Y-89688621D02*
X124058000Y-89688621D01*
X129944000Y-89728621D02*
X128050000Y-89728621D01*
X125970000Y-89728621D02*
X124076000Y-89728621D01*
X129926000Y-89768621D02*
X128050000Y-89768621D01*
X125970000Y-89768621D02*
X124094000Y-89768621D01*
X129906000Y-89808621D02*
X128050000Y-89808621D01*
X125970000Y-89808621D02*
X124114000Y-89808621D01*
X129886000Y-89848621D02*
X128050000Y-89848621D01*
X125970000Y-89848621D02*
X124134000Y-89848621D01*
X129866000Y-89888621D02*
X128050000Y-89888621D01*
X125970000Y-89888621D02*
X124154000Y-89888621D01*
X129844000Y-89928621D02*
X128050000Y-89928621D01*
X125970000Y-89928621D02*
X124176000Y-89928621D01*
X129822000Y-89968621D02*
X128050000Y-89968621D01*
X125970000Y-89968621D02*
X124198000Y-89968621D01*
X129800000Y-90008621D02*
X128050000Y-90008621D01*
X125970000Y-90008621D02*
X124220000Y-90008621D01*
X129776000Y-90048621D02*
X128050000Y-90048621D01*
X125970000Y-90048621D02*
X124244000Y-90048621D01*
X129752000Y-90088621D02*
X128050000Y-90088621D01*
X125970000Y-90088621D02*
X124268000Y-90088621D01*
X129726000Y-90128621D02*
X128050000Y-90128621D01*
X125970000Y-90128621D02*
X124294000Y-90128621D01*
X129700000Y-90168621D02*
X128050000Y-90168621D01*
X125970000Y-90168621D02*
X124320000Y-90168621D01*
X129674000Y-90208621D02*
X128050000Y-90208621D01*
X125970000Y-90208621D02*
X124346000Y-90208621D01*
X129646000Y-90248621D02*
X128050000Y-90248621D01*
X125970000Y-90248621D02*
X124374000Y-90248621D01*
X129617000Y-90288621D02*
X128050000Y-90288621D01*
X125970000Y-90288621D02*
X124403000Y-90288621D01*
X129588000Y-90328621D02*
X128050000Y-90328621D01*
X125970000Y-90328621D02*
X124432000Y-90328621D01*
X129558000Y-90368621D02*
X128050000Y-90368621D01*
X125970000Y-90368621D02*
X124462000Y-90368621D01*
X129526000Y-90408621D02*
X128050000Y-90408621D01*
X125970000Y-90408621D02*
X124494000Y-90408621D01*
X129494000Y-90448621D02*
X128050000Y-90448621D01*
X125970000Y-90448621D02*
X124526000Y-90448621D01*
X129460000Y-90488621D02*
X128050000Y-90488621D01*
X125970000Y-90488621D02*
X124560000Y-90488621D01*
X129426000Y-90528621D02*
X128050000Y-90528621D01*
X125970000Y-90528621D02*
X124594000Y-90528621D01*
X129390000Y-90568621D02*
X128050000Y-90568621D01*
X125970000Y-90568621D02*
X124630000Y-90568621D01*
X129353000Y-90608621D02*
X128050000Y-90608621D01*
X125970000Y-90608621D02*
X124667000Y-90608621D01*
X129315000Y-90648621D02*
X128050000Y-90648621D01*
X125970000Y-90648621D02*
X124705000Y-90648621D01*
X129275000Y-90688621D02*
X124745000Y-90688621D01*
X129234000Y-90728621D02*
X124786000Y-90728621D01*
X129192000Y-90768621D02*
X124828000Y-90768621D01*
X129147000Y-90808621D02*
X124873000Y-90808621D01*
X129102000Y-90848621D02*
X124918000Y-90848621D01*
X129054000Y-90888621D02*
X124966000Y-90888621D01*
X129005000Y-90928621D02*
X125015000Y-90928621D01*
X128954000Y-90968621D02*
X125066000Y-90968621D01*
X128900000Y-91008621D02*
X125120000Y-91008621D01*
X128844000Y-91048621D02*
X125176000Y-91048621D01*
X128786000Y-91088621D02*
X125234000Y-91088621D01*
X128724000Y-91128621D02*
X125296000Y-91128621D01*
X128660000Y-91168621D02*
X125360000Y-91168621D01*
X128591000Y-91208621D02*
X125429000Y-91208621D01*
X128519000Y-91248621D02*
X125501000Y-91248621D01*
X128442000Y-91288621D02*
X125578000Y-91288621D01*
X128360000Y-91328621D02*
X125660000Y-91328621D01*
X128272000Y-91368621D02*
X125748000Y-91368621D01*
X128175000Y-91408621D02*
X125845000Y-91408621D01*
X128069000Y-91448621D02*
X125951000Y-91448621D01*
X127950000Y-91488621D02*
X126070000Y-91488621D01*
X127812000Y-91528621D02*
X126208000Y-91528621D01*
X127643000Y-91568621D02*
X126377000Y-91568621D01*
X127412000Y-91608621D02*
X126608000Y-91608621D01*
X130280000Y-88367621D02*
G75*
G03*
X130280000Y-88367621I-3270000J0D01*
G01*
%TO.C,Q2*%
X163010000Y-90610000D02*
X164685000Y-90610000D01*
X163010000Y-90610000D02*
X162360000Y-90610000D01*
X163010000Y-87490000D02*
X163660000Y-87490000D01*
X163010000Y-87490000D02*
X162360000Y-87490000D01*
%TO.C,C6*%
X167349000Y-92617380D02*
X167349000Y-93247380D01*
X167664000Y-92932380D02*
X167034000Y-92932380D01*
X168740000Y-96117621D02*
X162280000Y-96117621D01*
X168740000Y-96157621D02*
X162280000Y-96157621D01*
X168740000Y-96197621D02*
X162280000Y-96197621D01*
X168738000Y-96237621D02*
X162282000Y-96237621D01*
X168737000Y-96277621D02*
X162283000Y-96277621D01*
X168734000Y-96317621D02*
X162286000Y-96317621D01*
X168732000Y-96357621D02*
X166550000Y-96357621D01*
X164470000Y-96357621D02*
X162288000Y-96357621D01*
X168728000Y-96397621D02*
X166550000Y-96397621D01*
X164470000Y-96397621D02*
X162292000Y-96397621D01*
X168725000Y-96437621D02*
X166550000Y-96437621D01*
X164470000Y-96437621D02*
X162295000Y-96437621D01*
X168721000Y-96477621D02*
X166550000Y-96477621D01*
X164470000Y-96477621D02*
X162299000Y-96477621D01*
X168716000Y-96517621D02*
X166550000Y-96517621D01*
X164470000Y-96517621D02*
X162304000Y-96517621D01*
X168711000Y-96557621D02*
X166550000Y-96557621D01*
X164470000Y-96557621D02*
X162309000Y-96557621D01*
X168705000Y-96597621D02*
X166550000Y-96597621D01*
X164470000Y-96597621D02*
X162315000Y-96597621D01*
X168699000Y-96637621D02*
X166550000Y-96637621D01*
X164470000Y-96637621D02*
X162321000Y-96637621D01*
X168692000Y-96677621D02*
X166550000Y-96677621D01*
X164470000Y-96677621D02*
X162328000Y-96677621D01*
X168685000Y-96717621D02*
X166550000Y-96717621D01*
X164470000Y-96717621D02*
X162335000Y-96717621D01*
X168677000Y-96757621D02*
X166550000Y-96757621D01*
X164470000Y-96757621D02*
X162343000Y-96757621D01*
X168669000Y-96797621D02*
X166550000Y-96797621D01*
X164470000Y-96797621D02*
X162351000Y-96797621D01*
X168660000Y-96838621D02*
X166550000Y-96838621D01*
X164470000Y-96838621D02*
X162360000Y-96838621D01*
X168651000Y-96878621D02*
X166550000Y-96878621D01*
X164470000Y-96878621D02*
X162369000Y-96878621D01*
X168641000Y-96918621D02*
X166550000Y-96918621D01*
X164470000Y-96918621D02*
X162379000Y-96918621D01*
X168631000Y-96958621D02*
X166550000Y-96958621D01*
X164470000Y-96958621D02*
X162389000Y-96958621D01*
X168620000Y-96998621D02*
X166550000Y-96998621D01*
X164470000Y-96998621D02*
X162400000Y-96998621D01*
X168608000Y-97038621D02*
X166550000Y-97038621D01*
X164470000Y-97038621D02*
X162412000Y-97038621D01*
X168596000Y-97078621D02*
X166550000Y-97078621D01*
X164470000Y-97078621D02*
X162424000Y-97078621D01*
X168584000Y-97118621D02*
X166550000Y-97118621D01*
X164470000Y-97118621D02*
X162436000Y-97118621D01*
X168571000Y-97158621D02*
X166550000Y-97158621D01*
X164470000Y-97158621D02*
X162449000Y-97158621D01*
X168557000Y-97198621D02*
X166550000Y-97198621D01*
X164470000Y-97198621D02*
X162463000Y-97198621D01*
X168543000Y-97238621D02*
X166550000Y-97238621D01*
X164470000Y-97238621D02*
X162477000Y-97238621D01*
X168528000Y-97278621D02*
X166550000Y-97278621D01*
X164470000Y-97278621D02*
X162492000Y-97278621D01*
X168512000Y-97318621D02*
X166550000Y-97318621D01*
X164470000Y-97318621D02*
X162508000Y-97318621D01*
X168496000Y-97358621D02*
X166550000Y-97358621D01*
X164470000Y-97358621D02*
X162524000Y-97358621D01*
X168480000Y-97398621D02*
X166550000Y-97398621D01*
X164470000Y-97398621D02*
X162540000Y-97398621D01*
X168462000Y-97438621D02*
X166550000Y-97438621D01*
X164470000Y-97438621D02*
X162558000Y-97438621D01*
X168444000Y-97478621D02*
X166550000Y-97478621D01*
X164470000Y-97478621D02*
X162576000Y-97478621D01*
X168426000Y-97518621D02*
X166550000Y-97518621D01*
X164470000Y-97518621D02*
X162594000Y-97518621D01*
X168406000Y-97558621D02*
X166550000Y-97558621D01*
X164470000Y-97558621D02*
X162614000Y-97558621D01*
X168386000Y-97598621D02*
X166550000Y-97598621D01*
X164470000Y-97598621D02*
X162634000Y-97598621D01*
X168366000Y-97638621D02*
X166550000Y-97638621D01*
X164470000Y-97638621D02*
X162654000Y-97638621D01*
X168344000Y-97678621D02*
X166550000Y-97678621D01*
X164470000Y-97678621D02*
X162676000Y-97678621D01*
X168322000Y-97718621D02*
X166550000Y-97718621D01*
X164470000Y-97718621D02*
X162698000Y-97718621D01*
X168300000Y-97758621D02*
X166550000Y-97758621D01*
X164470000Y-97758621D02*
X162720000Y-97758621D01*
X168276000Y-97798621D02*
X166550000Y-97798621D01*
X164470000Y-97798621D02*
X162744000Y-97798621D01*
X168252000Y-97838621D02*
X166550000Y-97838621D01*
X164470000Y-97838621D02*
X162768000Y-97838621D01*
X168226000Y-97878621D02*
X166550000Y-97878621D01*
X164470000Y-97878621D02*
X162794000Y-97878621D01*
X168200000Y-97918621D02*
X166550000Y-97918621D01*
X164470000Y-97918621D02*
X162820000Y-97918621D01*
X168174000Y-97958621D02*
X166550000Y-97958621D01*
X164470000Y-97958621D02*
X162846000Y-97958621D01*
X168146000Y-97998621D02*
X166550000Y-97998621D01*
X164470000Y-97998621D02*
X162874000Y-97998621D01*
X168117000Y-98038621D02*
X166550000Y-98038621D01*
X164470000Y-98038621D02*
X162903000Y-98038621D01*
X168088000Y-98078621D02*
X166550000Y-98078621D01*
X164470000Y-98078621D02*
X162932000Y-98078621D01*
X168058000Y-98118621D02*
X166550000Y-98118621D01*
X164470000Y-98118621D02*
X162962000Y-98118621D01*
X168026000Y-98158621D02*
X166550000Y-98158621D01*
X164470000Y-98158621D02*
X162994000Y-98158621D01*
X167994000Y-98198621D02*
X166550000Y-98198621D01*
X164470000Y-98198621D02*
X163026000Y-98198621D01*
X167960000Y-98238621D02*
X166550000Y-98238621D01*
X164470000Y-98238621D02*
X163060000Y-98238621D01*
X167926000Y-98278621D02*
X166550000Y-98278621D01*
X164470000Y-98278621D02*
X163094000Y-98278621D01*
X167890000Y-98318621D02*
X166550000Y-98318621D01*
X164470000Y-98318621D02*
X163130000Y-98318621D01*
X167853000Y-98358621D02*
X166550000Y-98358621D01*
X164470000Y-98358621D02*
X163167000Y-98358621D01*
X167815000Y-98398621D02*
X166550000Y-98398621D01*
X164470000Y-98398621D02*
X163205000Y-98398621D01*
X167775000Y-98438621D02*
X163245000Y-98438621D01*
X167734000Y-98478621D02*
X163286000Y-98478621D01*
X167692000Y-98518621D02*
X163328000Y-98518621D01*
X167647000Y-98558621D02*
X163373000Y-98558621D01*
X167602000Y-98598621D02*
X163418000Y-98598621D01*
X167554000Y-98638621D02*
X163466000Y-98638621D01*
X167505000Y-98678621D02*
X163515000Y-98678621D01*
X167454000Y-98718621D02*
X163566000Y-98718621D01*
X167400000Y-98758621D02*
X163620000Y-98758621D01*
X167344000Y-98798621D02*
X163676000Y-98798621D01*
X167286000Y-98838621D02*
X163734000Y-98838621D01*
X167224000Y-98878621D02*
X163796000Y-98878621D01*
X167160000Y-98918621D02*
X163860000Y-98918621D01*
X167091000Y-98958621D02*
X163929000Y-98958621D01*
X167019000Y-98998621D02*
X164001000Y-98998621D01*
X166942000Y-99038621D02*
X164078000Y-99038621D01*
X166860000Y-99078621D02*
X164160000Y-99078621D01*
X166772000Y-99118621D02*
X164248000Y-99118621D01*
X166675000Y-99158621D02*
X164345000Y-99158621D01*
X166569000Y-99198621D02*
X164451000Y-99198621D01*
X166450000Y-99238621D02*
X164570000Y-99238621D01*
X166312000Y-99278621D02*
X164708000Y-99278621D01*
X166143000Y-99318621D02*
X164877000Y-99318621D01*
X165912000Y-99358621D02*
X165108000Y-99358621D01*
X168780000Y-96117621D02*
G75*
G03*
X168780000Y-96117621I-3270000J0D01*
G01*
%TO.C,R11*%
X151237064Y-97285000D02*
X150782936Y-97285000D01*
X151237064Y-95815000D02*
X150782936Y-95815000D01*
%TO.C,R22*%
X142237064Y-71535000D02*
X141782936Y-71535000D01*
X142237064Y-70065000D02*
X141782936Y-70065000D01*
%TO.C,R9*%
X153275000Y-95777064D02*
X153275000Y-95322936D01*
X154745000Y-95777064D02*
X154745000Y-95322936D01*
%TO.C,R19*%
X138237064Y-73535000D02*
X137782936Y-73535000D01*
X138237064Y-72065000D02*
X137782936Y-72065000D01*
%TO.C,R18*%
X136275000Y-76027064D02*
X136275000Y-75572936D01*
X137745000Y-76027064D02*
X137745000Y-75572936D01*
%TO.C,R2*%
X139987064Y-91785000D02*
X139532936Y-91785000D01*
X139987064Y-90315000D02*
X139532936Y-90315000D01*
%TO.C,R5*%
X136237064Y-99785000D02*
X135782936Y-99785000D01*
X136237064Y-98315000D02*
X135782936Y-98315000D01*
%TO.C,R13*%
X151237064Y-95035000D02*
X150782936Y-95035000D01*
X151237064Y-93565000D02*
X150782936Y-93565000D01*
%TO.C,C9*%
X146775000Y-89061252D02*
X146775000Y-88538748D01*
X148245000Y-89061252D02*
X148245000Y-88538748D01*
%TO.C,C2*%
X135748748Y-96315000D02*
X136271252Y-96315000D01*
X135748748Y-97785000D02*
X136271252Y-97785000D01*
%TO.C,C17*%
X135998748Y-101315000D02*
X136521252Y-101315000D01*
X135998748Y-102785000D02*
X136521252Y-102785000D01*
%TO.C,R4*%
X136237064Y-93785000D02*
X135782936Y-93785000D01*
X136237064Y-92315000D02*
X135782936Y-92315000D01*
%TO.C,R20*%
X146745000Y-71322936D02*
X146745000Y-71777064D01*
X145275000Y-71322936D02*
X145275000Y-71777064D01*
%TO.C,C11*%
X143498748Y-90815000D02*
X144021252Y-90815000D01*
X143498748Y-92285000D02*
X144021252Y-92285000D01*
%TO.C,C7*%
X150748748Y-100065000D02*
X151271252Y-100065000D01*
X150748748Y-101535000D02*
X151271252Y-101535000D01*
%TO.C,R8*%
X151237064Y-93035000D02*
X150782936Y-93035000D01*
X151237064Y-91565000D02*
X150782936Y-91565000D01*
%TO.C,R3*%
X136237064Y-95785000D02*
X135782936Y-95785000D01*
X136237064Y-94315000D02*
X135782936Y-94315000D01*
%TO.C,C13*%
X146745000Y-75288748D02*
X146745000Y-75811252D01*
X145275000Y-75288748D02*
X145275000Y-75811252D01*
%TO.C,R10*%
X159047064Y-88035000D02*
X158592936Y-88035000D01*
X159047064Y-86565000D02*
X158592936Y-86565000D01*
%TO.C,U4*%
X135390000Y-84300000D02*
X135390000Y-85440000D01*
X135620000Y-85440000D02*
X135390000Y-85440000D01*
X135620000Y-85440000D02*
X135620000Y-88160000D01*
X130900000Y-85440000D02*
X131130000Y-85440000D01*
X135620000Y-88160000D02*
X134310000Y-88160000D01*
X132210000Y-88160000D02*
X130900000Y-88160000D01*
X130900000Y-88160000D02*
X130900000Y-85440000D01*
%TO.C,C10*%
X148775000Y-89061252D02*
X148775000Y-88538748D01*
X150245000Y-89061252D02*
X150245000Y-88538748D01*
%TO.C,U1*%
X147007500Y-98797500D02*
X147007500Y-98515000D01*
X147007500Y-98515000D02*
X148660000Y-98515000D01*
X147007500Y-93302500D02*
X147007500Y-93585000D01*
X144260000Y-98797500D02*
X147007500Y-98797500D01*
X144260000Y-98797500D02*
X141512500Y-98797500D01*
X144260000Y-93302500D02*
X147007500Y-93302500D01*
X144260000Y-93302500D02*
X141512500Y-93302500D01*
X141512500Y-98797500D02*
X141512500Y-98515000D01*
X141512500Y-93302500D02*
X141512500Y-93585000D01*
%TO.C,R12*%
X158592936Y-88815000D02*
X159047064Y-88815000D01*
X158592936Y-90285000D02*
X159047064Y-90285000D01*
%TO.C,C12*%
X141775000Y-76061252D02*
X141775000Y-75538748D01*
X143245000Y-76061252D02*
X143245000Y-75538748D01*
%TO.C,C14*%
X147525000Y-75811252D02*
X147525000Y-75288748D01*
X148995000Y-75811252D02*
X148995000Y-75288748D01*
%TO.C,R21*%
X141782936Y-72065000D02*
X142237064Y-72065000D01*
X141782936Y-73535000D02*
X142237064Y-73535000D01*
%TO.C,C4*%
X133192621Y-96889000D02*
X132562621Y-96889000D01*
X132877621Y-97204000D02*
X132877621Y-96574000D01*
X129692380Y-98280000D02*
X129692380Y-91820000D01*
X129652380Y-98280000D02*
X129652380Y-91820000D01*
X129612380Y-98280000D02*
X129612380Y-91820000D01*
X129572380Y-98278000D02*
X129572380Y-91822000D01*
X129532380Y-98277000D02*
X129532380Y-91823000D01*
X129492380Y-98274000D02*
X129492380Y-91826000D01*
X129452380Y-98272000D02*
X129452380Y-96090000D01*
X129452380Y-94010000D02*
X129452380Y-91828000D01*
X129412380Y-98268000D02*
X129412380Y-96090000D01*
X129412380Y-94010000D02*
X129412380Y-91832000D01*
X129372380Y-98265000D02*
X129372380Y-96090000D01*
X129372380Y-94010000D02*
X129372380Y-91835000D01*
X129332380Y-98261000D02*
X129332380Y-96090000D01*
X129332380Y-94010000D02*
X129332380Y-91839000D01*
X129292380Y-98256000D02*
X129292380Y-96090000D01*
X129292380Y-94010000D02*
X129292380Y-91844000D01*
X129252380Y-98251000D02*
X129252380Y-96090000D01*
X129252380Y-94010000D02*
X129252380Y-91849000D01*
X129212380Y-98245000D02*
X129212380Y-96090000D01*
X129212380Y-94010000D02*
X129212380Y-91855000D01*
X129172380Y-98239000D02*
X129172380Y-96090000D01*
X129172380Y-94010000D02*
X129172380Y-91861000D01*
X129132380Y-98232000D02*
X129132380Y-96090000D01*
X129132380Y-94010000D02*
X129132380Y-91868000D01*
X129092380Y-98225000D02*
X129092380Y-96090000D01*
X129092380Y-94010000D02*
X129092380Y-91875000D01*
X129052380Y-98217000D02*
X129052380Y-96090000D01*
X129052380Y-94010000D02*
X129052380Y-91883000D01*
X129012380Y-98209000D02*
X129012380Y-96090000D01*
X129012380Y-94010000D02*
X129012380Y-91891000D01*
X128971380Y-98200000D02*
X128971380Y-96090000D01*
X128971380Y-94010000D02*
X128971380Y-91900000D01*
X128931380Y-98191000D02*
X128931380Y-96090000D01*
X128931380Y-94010000D02*
X128931380Y-91909000D01*
X128891380Y-98181000D02*
X128891380Y-96090000D01*
X128891380Y-94010000D02*
X128891380Y-91919000D01*
X128851380Y-98171000D02*
X128851380Y-96090000D01*
X128851380Y-94010000D02*
X128851380Y-91929000D01*
X128811380Y-98160000D02*
X128811380Y-96090000D01*
X128811380Y-94010000D02*
X128811380Y-91940000D01*
X128771380Y-98148000D02*
X128771380Y-96090000D01*
X128771380Y-94010000D02*
X128771380Y-91952000D01*
X128731380Y-98136000D02*
X128731380Y-96090000D01*
X128731380Y-94010000D02*
X128731380Y-91964000D01*
X128691380Y-98124000D02*
X128691380Y-96090000D01*
X128691380Y-94010000D02*
X128691380Y-91976000D01*
X128651380Y-98111000D02*
X128651380Y-96090000D01*
X128651380Y-94010000D02*
X128651380Y-91989000D01*
X128611380Y-98097000D02*
X128611380Y-96090000D01*
X128611380Y-94010000D02*
X128611380Y-92003000D01*
X128571380Y-98083000D02*
X128571380Y-96090000D01*
X128571380Y-94010000D02*
X128571380Y-92017000D01*
X128531380Y-98068000D02*
X128531380Y-96090000D01*
X128531380Y-94010000D02*
X128531380Y-92032000D01*
X128491380Y-98052000D02*
X128491380Y-96090000D01*
X128491380Y-94010000D02*
X128491380Y-92048000D01*
X128451380Y-98036000D02*
X128451380Y-96090000D01*
X128451380Y-94010000D02*
X128451380Y-92064000D01*
X128411380Y-98020000D02*
X128411380Y-96090000D01*
X128411380Y-94010000D02*
X128411380Y-92080000D01*
X128371380Y-98002000D02*
X128371380Y-96090000D01*
X128371380Y-94010000D02*
X128371380Y-92098000D01*
X128331380Y-97984000D02*
X128331380Y-96090000D01*
X128331380Y-94010000D02*
X128331380Y-92116000D01*
X128291380Y-97966000D02*
X128291380Y-96090000D01*
X128291380Y-94010000D02*
X128291380Y-92134000D01*
X128251380Y-97946000D02*
X128251380Y-96090000D01*
X128251380Y-94010000D02*
X128251380Y-92154000D01*
X128211380Y-97926000D02*
X128211380Y-96090000D01*
X128211380Y-94010000D02*
X128211380Y-92174000D01*
X128171380Y-97906000D02*
X128171380Y-96090000D01*
X128171380Y-94010000D02*
X128171380Y-92194000D01*
X128131380Y-97884000D02*
X128131380Y-96090000D01*
X128131380Y-94010000D02*
X128131380Y-92216000D01*
X128091380Y-97862000D02*
X128091380Y-96090000D01*
X128091380Y-94010000D02*
X128091380Y-92238000D01*
X128051380Y-97840000D02*
X128051380Y-96090000D01*
X128051380Y-94010000D02*
X128051380Y-92260000D01*
X128011380Y-97816000D02*
X128011380Y-96090000D01*
X128011380Y-94010000D02*
X128011380Y-92284000D01*
X127971380Y-97792000D02*
X127971380Y-96090000D01*
X127971380Y-94010000D02*
X127971380Y-92308000D01*
X127931380Y-97766000D02*
X127931380Y-96090000D01*
X127931380Y-94010000D02*
X127931380Y-92334000D01*
X127891380Y-97740000D02*
X127891380Y-96090000D01*
X127891380Y-94010000D02*
X127891380Y-92360000D01*
X127851380Y-97714000D02*
X127851380Y-96090000D01*
X127851380Y-94010000D02*
X127851380Y-92386000D01*
X127811380Y-97686000D02*
X127811380Y-96090000D01*
X127811380Y-94010000D02*
X127811380Y-92414000D01*
X127771380Y-97657000D02*
X127771380Y-96090000D01*
X127771380Y-94010000D02*
X127771380Y-92443000D01*
X127731380Y-97628000D02*
X127731380Y-96090000D01*
X127731380Y-94010000D02*
X127731380Y-92472000D01*
X127691380Y-97598000D02*
X127691380Y-96090000D01*
X127691380Y-94010000D02*
X127691380Y-92502000D01*
X127651380Y-97566000D02*
X127651380Y-96090000D01*
X127651380Y-94010000D02*
X127651380Y-92534000D01*
X127611380Y-97534000D02*
X127611380Y-96090000D01*
X127611380Y-94010000D02*
X127611380Y-92566000D01*
X127571380Y-97500000D02*
X127571380Y-96090000D01*
X127571380Y-94010000D02*
X127571380Y-92600000D01*
X127531380Y-97466000D02*
X127531380Y-96090000D01*
X127531380Y-94010000D02*
X127531380Y-92634000D01*
X127491380Y-97430000D02*
X127491380Y-96090000D01*
X127491380Y-94010000D02*
X127491380Y-92670000D01*
X127451380Y-97393000D02*
X127451380Y-96090000D01*
X127451380Y-94010000D02*
X127451380Y-92707000D01*
X127411380Y-97355000D02*
X127411380Y-96090000D01*
X127411380Y-94010000D02*
X127411380Y-92745000D01*
X127371380Y-97315000D02*
X127371380Y-92785000D01*
X127331380Y-97274000D02*
X127331380Y-92826000D01*
X127291380Y-97232000D02*
X127291380Y-92868000D01*
X127251380Y-97187000D02*
X127251380Y-92913000D01*
X127211380Y-97142000D02*
X127211380Y-92958000D01*
X127171380Y-97094000D02*
X127171380Y-93006000D01*
X127131380Y-97045000D02*
X127131380Y-93055000D01*
X127091380Y-96994000D02*
X127091380Y-93106000D01*
X127051380Y-96940000D02*
X127051380Y-93160000D01*
X127011380Y-96884000D02*
X127011380Y-93216000D01*
X126971380Y-96826000D02*
X126971380Y-93274000D01*
X126931380Y-96764000D02*
X126931380Y-93336000D01*
X126891380Y-96700000D02*
X126891380Y-93400000D01*
X126851380Y-96631000D02*
X126851380Y-93469000D01*
X126811380Y-96559000D02*
X126811380Y-93541000D01*
X126771380Y-96482000D02*
X126771380Y-93618000D01*
X126731380Y-96400000D02*
X126731380Y-93700000D01*
X126691380Y-96312000D02*
X126691380Y-93788000D01*
X126651380Y-96215000D02*
X126651380Y-93885000D01*
X126611380Y-96109000D02*
X126611380Y-93991000D01*
X126571380Y-95990000D02*
X126571380Y-94110000D01*
X126531380Y-95852000D02*
X126531380Y-94248000D01*
X126491380Y-95683000D02*
X126491380Y-94417000D01*
X126451380Y-95452000D02*
X126451380Y-94648000D01*
X132962380Y-95050000D02*
G75*
G03*
X132962380Y-95050000I-3270000J0D01*
G01*
%TO.C,C15*%
X138275000Y-76061252D02*
X138275000Y-75538748D01*
X139745000Y-76061252D02*
X139745000Y-75538748D01*
%TO.C,R23*%
X148995000Y-71322936D02*
X148995000Y-71777064D01*
X147525000Y-71322936D02*
X147525000Y-71777064D01*
%TO.C,R16*%
X136275000Y-79777064D02*
X136275000Y-79322936D01*
X137745000Y-79777064D02*
X137745000Y-79322936D01*
%TD*%
D13*
%TO.C,SW1*%
X148550000Y-137825000D03*
D14*
X143250000Y-137825000D03*
X137950000Y-137825000D03*
X148550000Y-142525000D03*
X143250000Y-142550000D03*
X137950000Y-142525000D03*
X148550000Y-147225000D03*
X143250000Y-147225000D03*
X137950000Y-147225000D03*
%TD*%
D15*
%TO.C,D1*%
X122500000Y-137540000D03*
D16*
X122500000Y-135000000D03*
%TD*%
%LPC*%
D17*
%TO.C,U3*%
X140065000Y-84775000D03*
X141335000Y-84775000D03*
X142605000Y-84775000D03*
X143875000Y-84775000D03*
X145145000Y-84775000D03*
X146415000Y-84775000D03*
X147685000Y-84775000D03*
X148955000Y-84775000D03*
X148955000Y-79825000D03*
X147685000Y-79825000D03*
X146415000Y-79825000D03*
X145145000Y-79825000D03*
X143875000Y-79825000D03*
X142605000Y-79825000D03*
X141335000Y-79825000D03*
X140065000Y-79825000D03*
%TD*%
D18*
%TO.C,SW1*%
X148550000Y-137825000D03*
D19*
X143250000Y-137825000D03*
X137950000Y-137825000D03*
X148550000Y-142525000D03*
X143250000Y-142550000D03*
X137950000Y-142525000D03*
X148550000Y-147225000D03*
X143250000Y-147225000D03*
X137950000Y-147225000D03*
%TD*%
D20*
%TO.C,J3*%
X144300000Y-115550000D03*
D21*
X141760000Y-115550000D03*
%TD*%
D22*
%TO.C,J1*%
X156910000Y-114550000D03*
X156910000Y-130780000D03*
X163260000Y-114550000D03*
X163260000Y-130780000D03*
X150560000Y-114550000D03*
X150560000Y-130780000D03*
%TD*%
D20*
%TO.C,JOVGI1*%
X146700000Y-111350000D03*
D21*
X144160000Y-111350000D03*
X141620000Y-111350000D03*
X139080000Y-111350000D03*
%TD*%
D20*
%TO.C,JOVGI2*%
X146700000Y-105800000D03*
D21*
X144160000Y-105800000D03*
X141620000Y-105800000D03*
X139080000Y-105800000D03*
%TD*%
D23*
%TO.C,C19*%
X162000000Y-140200000D03*
D24*
X162000000Y-142700000D03*
%TD*%
D25*
%TO.C,D1*%
X122500000Y-137540000D03*
D26*
X122500000Y-135000000D03*
%TD*%
D27*
%TO.C,R25*%
X155510000Y-135300000D03*
X155510000Y-137300000D03*
%TD*%
D28*
%TO.C,R26*%
X127510000Y-137300000D03*
X127510000Y-135300000D03*
%TD*%
D27*
%TO.C,R27*%
X131000000Y-135300000D03*
X131000000Y-137300000D03*
%TD*%
D29*
%TO.C,C18*%
X160012500Y-135000000D03*
X162087500Y-135000000D03*
%TD*%
D22*
%TO.C,J4*%
X128660000Y-130780000D03*
X128660000Y-114550000D03*
X122310000Y-130780000D03*
X122310000Y-114550000D03*
X135010000Y-130780000D03*
X135010000Y-114550000D03*
%TD*%
D30*
%TO.C,J2*%
X134510000Y-55550000D03*
D21*
X134510000Y-58090000D03*
%TD*%
D31*
%TO.C,R1*%
X137010000Y-91050000D03*
X135010000Y-91050000D03*
%TD*%
D32*
%TO.C,RV2*%
X120210000Y-59775000D03*
X129810000Y-59775000D03*
D33*
X122510000Y-67275000D03*
D34*
X125010000Y-67275000D03*
X127510000Y-67275000D03*
%TD*%
D24*
%TO.C,C8*%
X158510000Y-97300000D03*
D23*
X158510000Y-94800000D03*
%TD*%
D35*
%TO.C,C3*%
X133692380Y-80300000D03*
D24*
X131192380Y-80300000D03*
%TD*%
D31*
%TO.C,R15*%
X152010000Y-98550000D03*
X150010000Y-98550000D03*
%TD*%
D27*
%TO.C,R14*%
X151510000Y-79300000D03*
X151510000Y-81300000D03*
%TD*%
D31*
%TO.C,R17*%
X148010000Y-100800000D03*
X146010000Y-100800000D03*
%TD*%
D36*
%TO.C,C16*%
X141297500Y-102050000D03*
X139222500Y-102050000D03*
%TD*%
D31*
%TO.C,R7*%
X164010000Y-91800000D03*
X162010000Y-91800000D03*
%TD*%
D32*
%TO.C,RV1*%
X155660000Y-60050000D03*
X165260000Y-60050000D03*
D33*
X157960000Y-67550000D03*
D34*
X160460000Y-67550000D03*
X162960000Y-67550000D03*
%TD*%
D23*
%TO.C,C5*%
X127010000Y-87117621D03*
D24*
X127010000Y-89617621D03*
%TD*%
D37*
%TO.C,Q2*%
X163947500Y-90000000D03*
X163947500Y-88100000D03*
X162072500Y-89050000D03*
%TD*%
D23*
%TO.C,C6*%
X165510000Y-94867621D03*
D24*
X165510000Y-97367621D03*
%TD*%
D31*
%TO.C,R11*%
X152010000Y-96550000D03*
X150010000Y-96550000D03*
%TD*%
%TO.C,R22*%
X143010000Y-70800000D03*
X141010000Y-70800000D03*
%TD*%
D28*
%TO.C,R9*%
X154010000Y-96550000D03*
X154010000Y-94550000D03*
%TD*%
D31*
%TO.C,R19*%
X139010000Y-72800000D03*
X137010000Y-72800000D03*
%TD*%
D28*
%TO.C,R18*%
X137010000Y-76800000D03*
X137010000Y-74800000D03*
%TD*%
D31*
%TO.C,R2*%
X140760000Y-91050000D03*
X138760000Y-91050000D03*
%TD*%
%TO.C,R5*%
X137010000Y-99050000D03*
X135010000Y-99050000D03*
%TD*%
%TO.C,R13*%
X152010000Y-94300000D03*
X150010000Y-94300000D03*
%TD*%
D38*
%TO.C,C9*%
X147510000Y-89837500D03*
X147510000Y-87762500D03*
%TD*%
D29*
%TO.C,C2*%
X134972500Y-97050000D03*
X137047500Y-97050000D03*
%TD*%
%TO.C,C17*%
X135222500Y-102050000D03*
X137297500Y-102050000D03*
%TD*%
D31*
%TO.C,R4*%
X137010000Y-93050000D03*
X135010000Y-93050000D03*
%TD*%
D27*
%TO.C,R20*%
X146010000Y-70550000D03*
X146010000Y-72550000D03*
%TD*%
D29*
%TO.C,C11*%
X142722500Y-91550000D03*
X144797500Y-91550000D03*
%TD*%
%TO.C,C7*%
X149972500Y-100800000D03*
X152047500Y-100800000D03*
%TD*%
D31*
%TO.C,R8*%
X152010000Y-92300000D03*
X150010000Y-92300000D03*
%TD*%
%TO.C,R3*%
X137010000Y-95050000D03*
X135010000Y-95050000D03*
%TD*%
D39*
%TO.C,C13*%
X146010000Y-74512500D03*
X146010000Y-76587500D03*
%TD*%
D31*
%TO.C,R10*%
X159820000Y-87300000D03*
X157820000Y-87300000D03*
%TD*%
D40*
%TO.C,U4*%
X134760000Y-84850000D03*
D41*
X133260000Y-84937500D03*
D40*
X131760000Y-84850000D03*
%TD*%
D38*
%TO.C,C10*%
X149510000Y-89837500D03*
X149510000Y-87762500D03*
%TD*%
D42*
%TO.C,U1*%
X147860000Y-97955000D03*
X147860000Y-96685000D03*
X147860000Y-95415000D03*
X147860000Y-94145000D03*
X140660000Y-94145000D03*
X140660000Y-95415000D03*
X140660000Y-96685000D03*
X140660000Y-97955000D03*
%TD*%
D43*
%TO.C,R12*%
X157820000Y-89550000D03*
X159820000Y-89550000D03*
%TD*%
D38*
%TO.C,C12*%
X142510000Y-76837500D03*
X142510000Y-74762500D03*
%TD*%
%TO.C,C14*%
X148260000Y-76587500D03*
X148260000Y-74512500D03*
%TD*%
D43*
%TO.C,R21*%
X141010000Y-72800000D03*
X143010000Y-72800000D03*
%TD*%
D35*
%TO.C,C4*%
X130942380Y-95050000D03*
D24*
X128442380Y-95050000D03*
%TD*%
D38*
%TO.C,C15*%
X139010000Y-76837500D03*
X139010000Y-74762500D03*
%TD*%
D27*
%TO.C,R23*%
X148260000Y-70550000D03*
X148260000Y-72550000D03*
%TD*%
D28*
%TO.C,R16*%
X137010000Y-80550000D03*
X137010000Y-78550000D03*
%TD*%
%LPD*%
M02*
