%TF.GenerationSoftware,KiCad,Pcbnew,7.0.2-6a45011f42~172~ubuntu22.04.1*%
%TF.CreationDate,2023-05-25T17:24:48+01:00*%
%TF.ProjectId,little-angel-v2,6c697474-6c65-42d6-916e-67656c2d7632,rev?*%
%TF.SameCoordinates,Original*%
%TF.FileFunction,Legend,Bot*%
%TF.FilePolarity,Positive*%
%FSLAX46Y46*%
G04 Gerber Fmt 4.6, Leading zero omitted, Abs format (unit mm)*
G04 Created by KiCad (PCBNEW 7.0.2-6a45011f42~172~ubuntu22.04.1) date 2023-05-25 17:24:48*
%MOMM*%
%LPD*%
G01*
G04 APERTURE LIST*
G04 Aperture macros list*
%AMRoundRect*
0 Rectangle with rounded corners*
0 $1 Rounding radius*
0 $2 $3 $4 $5 $6 $7 $8 $9 X,Y pos of 4 corners*
0 Add a 4 corners polygon primitive as box body*
4,1,4,$2,$3,$4,$5,$6,$7,$8,$9,$2,$3,0*
0 Add four circle primitives for the rounded corners*
1,1,$1+$1,$2,$3*
1,1,$1+$1,$4,$5*
1,1,$1+$1,$6,$7*
1,1,$1+$1,$8,$9*
0 Add four rect primitives between the rounded corners*
20,1,$1+$1,$2,$3,$4,$5,0*
20,1,$1+$1,$4,$5,$6,$7,0*
20,1,$1+$1,$6,$7,$8,$9,0*
20,1,$1+$1,$8,$9,$2,$3,0*%
G04 Aperture macros list end*
%ADD10C,1.998980*%
%ADD11RoundRect,0.200000X0.650000X-0.525000X0.650000X0.525000X-0.650000X0.525000X-0.650000X-0.525000X0*%
%ADD12O,1.700000X1.450000*%
%ADD13RoundRect,0.200000X0.525000X0.650000X-0.525000X0.650000X-0.525000X-0.650000X0.525000X-0.650000X0*%
%ADD14O,1.450000X1.700000*%
%ADD15RoundRect,0.200000X-0.800000X0.800000X-0.800000X-0.800000X0.800000X-0.800000X0.800000X0.800000X0*%
%ADD16C,2.000000*%
%ADD17RoundRect,0.200000X-0.800000X-0.800000X0.800000X-0.800000X0.800000X0.800000X-0.800000X0.800000X0*%
%ADD18RoundRect,0.200000X0.800000X0.800000X-0.800000X0.800000X-0.800000X-0.800000X0.800000X-0.800000X0*%
%ADD19RoundRect,0.200000X0.800000X-0.800000X0.800000X0.800000X-0.800000X0.800000X-0.800000X-0.800000X0*%
%ADD20O,2.000000X2.000000*%
%ADD21C,2.200000*%
%ADD22RoundRect,0.200000X0.900000X0.900000X-0.900000X0.900000X-0.900000X-0.900000X0.900000X-0.900000X0*%
%ADD23O,3.120000X3.640000*%
%ADD24O,1.800000X1.800000*%
%ADD25C,1.800000*%
%ADD26C,3.400000*%
%ADD27RoundRect,0.200000X-0.850000X0.850000X-0.850000X-0.850000X0.850000X-0.850000X0.850000X0.850000X0*%
%ADD28O,2.100000X2.100000*%
%ADD29RoundRect,0.200000X-0.850000X-0.850000X0.850000X-0.850000X0.850000X0.850000X-0.850000X0.850000X0*%
%ADD30RoundRect,0.200000X1.300000X0.750000X-1.300000X0.750000X-1.300000X-0.750000X1.300000X-0.750000X0*%
%ADD31O,3.000000X1.900000*%
%ADD32RoundRect,0.200000X1.000000X0.950000X-1.000000X0.950000X-1.000000X-0.950000X1.000000X-0.950000X0*%
%ADD33C,2.300000*%
%ADD34C,2.398980*%
%ADD35RoundRect,0.200000X-0.650000X-0.650000X0.650000X-0.650000X0.650000X0.650000X-0.650000X0.650000X0*%
%ADD36C,1.700000*%
G04 APERTURE END LIST*
D10*
%TO.C,R25*%
X155500000Y-135000000D03*
X155500000Y-142620000D03*
%TD*%
%TO.C,R26*%
X127760000Y-134980000D03*
X127760000Y-142600000D03*
%TD*%
%TO.C,R27*%
X131000000Y-142670000D03*
X131000000Y-135050000D03*
%TD*%
%LPC*%
D11*
%TO.C,U2*%
X119010000Y-84820000D03*
D12*
X119010000Y-82280000D03*
X119010000Y-79740000D03*
%TD*%
D13*
%TO.C,Q1*%
X166510000Y-88550000D03*
D14*
X163970000Y-88550000D03*
X161430000Y-88550000D03*
%TD*%
D15*
%TO.C,C19*%
X162000000Y-140200000D03*
D16*
X162000000Y-142700000D03*
%TD*%
D15*
%TO.C,C8*%
X161260000Y-100867621D03*
D16*
X161260000Y-103367621D03*
%TD*%
D15*
%TO.C,C6*%
X161260000Y-93800000D03*
D16*
X161260000Y-96300000D03*
%TD*%
D17*
%TO.C,C5*%
X160577621Y-72300000D03*
D16*
X163077621Y-72300000D03*
%TD*%
D18*
%TO.C,C4*%
X121442380Y-72050000D03*
D16*
X118942380Y-72050000D03*
%TD*%
%TO.C,C3*%
X123510000Y-76732379D03*
D19*
X123510000Y-79232379D03*
%TD*%
%TO.C,U3*%
X137430000Y-85050000D03*
D20*
X139970000Y-85050000D03*
X142510000Y-85050000D03*
X145050000Y-85050000D03*
X147590000Y-85050000D03*
X150130000Y-85050000D03*
X152670000Y-85050000D03*
X155210000Y-85050000D03*
X155210000Y-77430000D03*
X152670000Y-77430000D03*
X150130000Y-77430000D03*
X147590000Y-77430000D03*
X145050000Y-77430000D03*
X142510000Y-77430000D03*
X139970000Y-77430000D03*
X137430000Y-77430000D03*
%TD*%
D18*
%TO.C,U1*%
X147060000Y-98600000D03*
D20*
X147060000Y-96060000D03*
X147060000Y-93520000D03*
X147060000Y-90980000D03*
X139440000Y-90980000D03*
X139440000Y-93520000D03*
X139440000Y-96060000D03*
X139440000Y-98600000D03*
%TD*%
D21*
%TO.C,RV2*%
X127510000Y-67275000D03*
X125010000Y-67275000D03*
D22*
X122510000Y-67275000D03*
D23*
X129810000Y-59775000D03*
X120210000Y-59775000D03*
%TD*%
%TO.C,RV1*%
X155660000Y-60050000D03*
X165260000Y-60050000D03*
D22*
X157960000Y-67550000D03*
D21*
X160460000Y-67550000D03*
X162960000Y-67550000D03*
%TD*%
D24*
%TO.C,R23*%
X148010000Y-75110000D03*
D25*
X148010000Y-67490000D03*
%TD*%
D24*
%TO.C,R22*%
X140260000Y-75100000D03*
D25*
X140260000Y-67480000D03*
%TD*%
%TO.C,R21*%
X132260000Y-75430000D03*
D24*
X132260000Y-83050000D03*
%TD*%
D25*
%TO.C,R20*%
X145760000Y-67480000D03*
D24*
X145760000Y-75100000D03*
%TD*%
D25*
%TO.C,R19*%
X130010000Y-83050000D03*
D24*
X130010000Y-75430000D03*
%TD*%
D25*
%TO.C,R18*%
X134510000Y-73360000D03*
D24*
X134510000Y-65740000D03*
%TD*%
D25*
%TO.C,R17*%
X147070000Y-101300000D03*
D24*
X139450000Y-101300000D03*
%TD*%
D25*
%TO.C,R16*%
X127760000Y-83110000D03*
D24*
X127760000Y-75490000D03*
%TD*%
D25*
%TO.C,R15*%
X156820000Y-98550000D03*
D24*
X149200000Y-98550000D03*
%TD*%
D25*
%TO.C,R14*%
X134510000Y-75490000D03*
D24*
X134510000Y-83110000D03*
%TD*%
D25*
%TO.C,R13*%
X156820000Y-93550000D03*
D24*
X149200000Y-93550000D03*
%TD*%
D25*
%TO.C,R12*%
X158820000Y-89550000D03*
D24*
X151200000Y-89550000D03*
%TD*%
D25*
%TO.C,R11*%
X156820000Y-96050000D03*
D24*
X149200000Y-96050000D03*
%TD*%
%TO.C,R10*%
X151200000Y-87300000D03*
D25*
X158820000Y-87300000D03*
%TD*%
%TO.C,R9*%
X166760000Y-107110000D03*
D24*
X166760000Y-99490000D03*
%TD*%
D25*
%TO.C,R8*%
X156760000Y-101300000D03*
D24*
X149140000Y-101300000D03*
%TD*%
D25*
%TO.C,R7*%
X149260000Y-88300000D03*
D24*
X141640000Y-88300000D03*
%TD*%
D25*
%TO.C,R5*%
X137060000Y-89050000D03*
D24*
X129440000Y-89050000D03*
%TD*%
D25*
%TO.C,R4*%
X129440000Y-93550000D03*
D24*
X137060000Y-93550000D03*
%TD*%
D25*
%TO.C,R3*%
X137060000Y-91300000D03*
D24*
X129440000Y-91300000D03*
%TD*%
%TO.C,R2*%
X119700000Y-93550000D03*
D25*
X127320000Y-93550000D03*
%TD*%
%TO.C,R1*%
X127320000Y-91300000D03*
D24*
X119700000Y-91300000D03*
%TD*%
D16*
%TO.C,C17*%
X132260000Y-101300000D03*
X132260000Y-106300000D03*
%TD*%
%TO.C,C16*%
X135510000Y-101300000D03*
X135510000Y-106300000D03*
%TD*%
%TO.C,C15*%
X137260000Y-74800000D03*
X137260000Y-69800000D03*
%TD*%
%TO.C,C14*%
X154260000Y-74800000D03*
X154260000Y-69800000D03*
%TD*%
%TO.C,C13*%
X151260000Y-69800000D03*
X151260000Y-74800000D03*
%TD*%
%TO.C,C12*%
X143010000Y-69800000D03*
X143010000Y-74800000D03*
%TD*%
%TO.C,C11*%
X127010000Y-86300000D03*
X132010000Y-86300000D03*
%TD*%
%TO.C,C10*%
X161510000Y-84550000D03*
X161510000Y-79550000D03*
%TD*%
%TO.C,C9*%
X158510000Y-84550000D03*
X158510000Y-79550000D03*
%TD*%
%TO.C,C7*%
X150010000Y-106050000D03*
X155010000Y-106050000D03*
%TD*%
%TO.C,C2*%
X131760000Y-96050000D03*
X136760000Y-96050000D03*
%TD*%
D26*
%TO.C,J4*%
X135010000Y-114550000D03*
X135010000Y-130780000D03*
X122310000Y-114550000D03*
X122310000Y-130780000D03*
X128660000Y-114550000D03*
X128660000Y-130780000D03*
%TD*%
D27*
%TO.C,J3*%
X144300000Y-115550000D03*
D28*
X141760000Y-115550000D03*
%TD*%
D29*
%TO.C,J2*%
X134510000Y-55550000D03*
D28*
X134510000Y-58090000D03*
%TD*%
D26*
%TO.C,J1*%
X156910000Y-114550000D03*
X156910000Y-130780000D03*
X163260000Y-114550000D03*
X163260000Y-130780000D03*
X150560000Y-114550000D03*
X150560000Y-130780000D03*
%TD*%
D30*
%TO.C,SW1*%
X148550000Y-137825000D03*
D31*
X143250000Y-137825000D03*
X137950000Y-137825000D03*
X148550000Y-142525000D03*
X143250000Y-142550000D03*
X137950000Y-142525000D03*
X148550000Y-147225000D03*
X143250000Y-147225000D03*
X137950000Y-147225000D03*
%TD*%
D27*
%TO.C,JOVGI1*%
X146700000Y-111350000D03*
D28*
X144160000Y-111350000D03*
X141620000Y-111350000D03*
X139080000Y-111350000D03*
%TD*%
D27*
%TO.C,JOVGI2*%
X146700000Y-105800000D03*
D28*
X144160000Y-105800000D03*
X141620000Y-105800000D03*
X139080000Y-105800000D03*
%TD*%
D32*
%TO.C,D1*%
X122500000Y-137540000D03*
D33*
X122500000Y-135000000D03*
%TD*%
D34*
%TO.C,R25*%
X155500000Y-135000000D03*
X155500000Y-142620000D03*
%TD*%
%TO.C,R26*%
X127760000Y-134980000D03*
X127760000Y-142600000D03*
%TD*%
%TO.C,R27*%
X131000000Y-142670000D03*
X131000000Y-135050000D03*
%TD*%
D35*
%TO.C,C18*%
X161050000Y-135000000D03*
D36*
X166050000Y-135000000D03*
%TD*%
%LPD*%
M02*
