%TF.GenerationSoftware,KiCad,Pcbnew,7.0.2-6a45011f42~172~ubuntu22.04.1*%
%TF.CreationDate,2023-05-29T17:51:51+01:00*%
%TF.ProjectId,little-angel-v3-SMD,6c697474-6c65-42d6-916e-67656c2d7633,rev?*%
%TF.SameCoordinates,Original*%
%TF.FileFunction,Soldermask,Bot*%
%TF.FilePolarity,Negative*%
%FSLAX46Y46*%
G04 Gerber Fmt 4.6, Leading zero omitted, Abs format (unit mm)*
G04 Created by KiCad (PCBNEW 7.0.2-6a45011f42~172~ubuntu22.04.1) date 2023-05-29 17:51:51*
%MOMM*%
%LPD*%
G01*
G04 APERTURE LIST*
G04 Aperture macros list*
%AMRoundRect*
0 Rectangle with rounded corners*
0 $1 Rounding radius*
0 $2 $3 $4 $5 $6 $7 $8 $9 X,Y pos of 4 corners*
0 Add a 4 corners polygon primitive as box body*
4,1,4,$2,$3,$4,$5,$6,$7,$8,$9,$2,$3,0*
0 Add four circle primitives for the rounded corners*
1,1,$1+$1,$2,$3*
1,1,$1+$1,$4,$5*
1,1,$1+$1,$6,$7*
1,1,$1+$1,$8,$9*
0 Add four rect primitives between the rounded corners*
20,1,$1+$1,$2,$3,$4,$5,0*
20,1,$1+$1,$4,$5,$6,$7,0*
20,1,$1+$1,$6,$7,$8,$9,0*
20,1,$1+$1,$8,$9,$2,$3,0*%
G04 Aperture macros list end*
%ADD10RoundRect,0.200000X1.300000X0.750000X-1.300000X0.750000X-1.300000X-0.750000X1.300000X-0.750000X0*%
%ADD11O,3.000000X1.900000*%
%ADD12RoundRect,0.200000X-0.850000X0.850000X-0.850000X-0.850000X0.850000X-0.850000X0.850000X0.850000X0*%
%ADD13O,2.100000X2.100000*%
%ADD14C,3.400000*%
%ADD15RoundRect,0.200000X-0.800000X0.800000X-0.800000X-0.800000X0.800000X-0.800000X0.800000X0.800000X0*%
%ADD16C,2.000000*%
%ADD17RoundRect,0.200000X1.000000X0.950000X-1.000000X0.950000X-1.000000X-0.950000X1.000000X-0.950000X0*%
%ADD18C,2.300000*%
%ADD19RoundRect,0.200000X-0.850000X-0.850000X0.850000X-0.850000X0.850000X0.850000X-0.850000X0.850000X0*%
%ADD20O,3.120000X3.640000*%
%ADD21RoundRect,0.200000X0.900000X0.900000X-0.900000X0.900000X-0.900000X-0.900000X0.900000X-0.900000X0*%
%ADD22C,2.200000*%
%ADD23RoundRect,0.200000X0.800000X0.800000X-0.800000X0.800000X-0.800000X-0.800000X0.800000X-0.800000X0*%
G04 APERTURE END LIST*
D10*
%TO.C,SW1*%
X148550000Y-137825000D03*
D11*
X143250000Y-137825000D03*
X137950000Y-137825000D03*
X148550000Y-142525000D03*
X143250000Y-142550000D03*
X137950000Y-142525000D03*
X148550000Y-147225000D03*
X143250000Y-147225000D03*
X137950000Y-147225000D03*
%TD*%
D12*
%TO.C,J3*%
X144300000Y-115550000D03*
D13*
X141760000Y-115550000D03*
%TD*%
D14*
%TO.C,J1*%
X156910000Y-114550000D03*
X156910000Y-130780000D03*
X163260000Y-114550000D03*
X163260000Y-130780000D03*
X150560000Y-114550000D03*
X150560000Y-130780000D03*
%TD*%
D12*
%TO.C,JOVGI1*%
X146700000Y-111350000D03*
D13*
X144160000Y-111350000D03*
X141620000Y-111350000D03*
X139080000Y-111350000D03*
%TD*%
D12*
%TO.C,JOVGI2*%
X146700000Y-105800000D03*
D13*
X144160000Y-105800000D03*
X141620000Y-105800000D03*
X139080000Y-105800000D03*
%TD*%
D15*
%TO.C,C19*%
X162000000Y-140200000D03*
D16*
X162000000Y-142700000D03*
%TD*%
D17*
%TO.C,D1*%
X122500000Y-137540000D03*
D18*
X122500000Y-135000000D03*
%TD*%
D14*
%TO.C,J4*%
X128660000Y-130780000D03*
X128660000Y-114550000D03*
X122310000Y-130780000D03*
X122310000Y-114550000D03*
X135010000Y-130780000D03*
X135010000Y-114550000D03*
%TD*%
D19*
%TO.C,J2*%
X134510000Y-55550000D03*
D13*
X134510000Y-58090000D03*
%TD*%
D20*
%TO.C,RV2*%
X120210000Y-59775000D03*
X129810000Y-59775000D03*
D21*
X122510000Y-67275000D03*
D22*
X125010000Y-67275000D03*
X127510000Y-67275000D03*
%TD*%
D16*
%TO.C,C8*%
X158510000Y-97300000D03*
D15*
X158510000Y-94800000D03*
%TD*%
D23*
%TO.C,C3*%
X133692380Y-80300000D03*
D16*
X131192380Y-80300000D03*
%TD*%
D20*
%TO.C,RV1*%
X155660000Y-60050000D03*
X165260000Y-60050000D03*
D21*
X157960000Y-67550000D03*
D22*
X160460000Y-67550000D03*
X162960000Y-67550000D03*
%TD*%
D15*
%TO.C,C5*%
X127010000Y-87117621D03*
D16*
X127010000Y-89617621D03*
%TD*%
D15*
%TO.C,C6*%
X165510000Y-94867621D03*
D16*
X165510000Y-97367621D03*
%TD*%
D23*
%TO.C,C4*%
X130942380Y-95050000D03*
D16*
X128442380Y-95050000D03*
%TD*%
M02*
