M48
; DRILL file {KiCad 7.0.2-6a45011f42~172~ubuntu22.04.1} date Thu 25 May 2023 17:24:48 BST
; FORMAT={-:-/ absolute / inch / decimal}
; #@! TF.CreationDate,2023-05-25T17:24:48+01:00
; #@! TF.GenerationSoftware,Kicad,Pcbnew,7.0.2-6a45011f42~172~ubuntu22.04.1
; #@! TF.FileFunction,Plated,1,2,PTH
FMAT,2
INCH
; #@! TA.AperFunction,Plated,PTH,ComponentDrill
T1C0.0276
; #@! TA.AperFunction,Plated,PTH,ComponentDrill
T2C0.0295
; #@! TA.AperFunction,Plated,PTH,ComponentDrill
T3C0.0315
; #@! TA.AperFunction,Plated,PTH,ComponentDrill
T4C0.0394
; #@! TA.AperFunction,Plated,PTH,ComponentDrill
T5C0.0394
; #@! TA.AperFunction,Plated,PTH,ComponentDrill
T6C0.0433
; #@! TA.AperFunction,Plated,PTH,ComponentDrill
T7C0.0551
%
G90
G05
T1
X4.7126Y-3.5945
X4.7126Y-3.6831
X5.0126Y-3.5945
X5.0126Y-3.6831
X5.0299Y-2.972
X5.0299Y-3.272
X5.0961Y-3.5059
X5.0961Y-3.5945
X5.0961Y-3.6831
X5.1185Y-2.9697
X5.1185Y-3.2697
X5.2071Y-2.9697
X5.2071Y-3.2697
X5.2957Y-2.5882
X5.2957Y-2.8882
X5.2957Y-2.972
X5.2957Y-3.272
X5.3961Y-3.5059
X5.3961Y-3.5945
X5.3961Y-3.6831
X5.4902Y-3.9882
X5.522Y-2.6567
X5.522Y-2.9567
X5.5764Y-3.4764
X5.7386Y-2.6567
X5.7386Y-2.9567
X5.7902Y-3.9882
X5.8272Y-2.6571
X5.8272Y-2.9571
X5.8717Y-3.9882
X5.874Y-3.6831
X5.874Y-3.7815
X5.874Y-3.8799
X5.8764Y-3.4764
X5.9528Y-3.437
X5.9528Y-3.5256
X6.1717Y-3.9882
X6.174Y-3.6831
X6.174Y-3.7815
X6.174Y-3.8799
X6.2528Y-3.437
X6.2528Y-3.5256
X6.5654Y-3.9169
X6.5654Y-4.2169
T2
X4.6854Y-3.1394
X4.6854Y-3.2394
X4.6854Y-3.3394
X6.3555Y-3.4862
X6.4555Y-3.4862
X6.5555Y-3.4862
T3
X4.6828Y-2.8366
X4.7812Y-2.8366
X4.8626Y-3.021
X4.8626Y-3.1194
X5.0004Y-3.3976
X5.1874Y-3.7815
X5.1972Y-3.3976
X5.2071Y-3.9882
X5.2071Y-4.185
X5.335Y-3.9882
X5.335Y-4.185
X5.3843Y-3.7815
X5.4039Y-2.748
X5.4039Y-2.9449
X5.4106Y-3.0484
X5.4106Y-3.3484
X5.4898Y-3.5819
X5.4898Y-3.6819
X5.4898Y-3.7819
X5.4898Y-3.8819
X5.5106Y-3.0484
X5.5106Y-3.3484
X5.6106Y-3.0484
X5.6106Y-3.3484
X5.6303Y-2.748
X5.6303Y-2.9449
X5.7106Y-3.0484
X5.7106Y-3.3484
X5.7898Y-3.5819
X5.7898Y-3.6819
X5.7898Y-3.7819
X5.7898Y-3.8819
X5.8106Y-3.0484
X5.8106Y-3.3484
X5.9059Y-4.1752
X5.9106Y-3.0484
X5.9106Y-3.3484
X5.9551Y-2.748
X5.9551Y-2.9449
X6.0106Y-3.0484
X6.0106Y-3.3484
X6.0732Y-2.748
X6.0732Y-2.9449
X6.1028Y-4.1752
X6.1106Y-3.0484
X6.1106Y-3.3484
X6.2406Y-3.1319
X6.2406Y-3.3287
X6.322Y-2.8465
X6.3406Y-5.315
X6.3488Y-3.6929
X6.3488Y-3.7913
X6.3488Y-3.9712
X6.3488Y-4.0696
X6.3587Y-3.1319
X6.3587Y-3.3287
X6.378Y-5.5197
X6.378Y-5.6181
X6.4204Y-2.8465
X6.5374Y-5.315
T4
X4.8232Y-2.6486
X4.9217Y-2.6486
X5.0201Y-2.6486
X5.2957Y-2.187
X5.2957Y-2.287
X5.4756Y-4.1654
X5.4756Y-4.3839
X5.5756Y-4.1654
X5.5756Y-4.3839
X5.5811Y-4.5492
X5.6756Y-4.1654
X5.6756Y-4.3839
X5.6811Y-4.5492
X5.7756Y-4.1654
X5.7756Y-4.3839
X6.2189Y-2.6594
X6.3173Y-2.6594
X6.4157Y-2.6594
T5
X4.8228Y-5.315
X4.8228Y-5.415
X5.0299Y-5.3142
X5.0299Y-5.6142
X5.1575Y-5.3169
X5.1575Y-5.6169
X6.122Y-5.315
X6.122Y-5.615
T7
X4.8154Y-4.5098
X4.8154Y-5.1488
X5.0654Y-4.5098
X5.0654Y-5.1488
X5.3154Y-4.5098
X5.3154Y-5.1488
X5.9276Y-4.5098
X5.9276Y-5.1488
X6.1776Y-4.5098
X6.1776Y-5.1488
X6.4276Y-4.5098
X6.4276Y-5.1488
T4
G00X5.4528Y-5.4262
M15
G01X5.4094Y-5.4262
M16
G05
G00X5.4528Y-5.6112
M15
G01X5.4094Y-5.6112
M16
G05
G00X5.4528Y-5.7963
M15
G01X5.4094Y-5.7963
M16
G05
G00X5.6614Y-5.4262
M15
G01X5.6181Y-5.4262
M16
G05
G00X5.6614Y-5.6122
M15
G01X5.6181Y-5.6122
M16
G05
G00X5.6614Y-5.7963
M15
G01X5.6181Y-5.7963
M16
G05
G00X5.8701Y-5.4262
M15
G01X5.8268Y-5.4262
M16
G05
G00X5.8701Y-5.6112
M15
G01X5.8268Y-5.6112
M16
G05
G00X5.8701Y-5.7963
M15
G01X5.8268Y-5.7963
M16
G05
T6
G00X4.7327Y-2.3671
M15
G01X4.7327Y-2.3396
M16
G05
G00X5.1106Y-2.3671
M15
G01X5.1106Y-2.3396
M16
G05
G00X6.1283Y-2.378
M15
G01X6.1283Y-2.3504
M16
G05
G00X6.5063Y-2.378
M15
G01X6.5063Y-2.3504
M16
G05
T0
M30
