%TF.GenerationSoftware,KiCad,Pcbnew,7.0.2-6a45011f42~172~ubuntu22.04.1*%
%TF.CreationDate,2023-05-16T10:09:17+01:00*%
%TF.ProjectId,greenbean,67726565-6e62-4656-916e-2e6b69636164,rev?*%
%TF.SameCoordinates,Original*%
%TF.FileFunction,Soldermask,Bot*%
%TF.FilePolarity,Negative*%
%FSLAX46Y46*%
G04 Gerber Fmt 4.6, Leading zero omitted, Abs format (unit mm)*
G04 Created by KiCad (PCBNEW 7.0.2-6a45011f42~172~ubuntu22.04.1) date 2023-05-16 10:09:17*
%MOMM*%
%LPD*%
G01*
G04 APERTURE LIST*
G04 Aperture macros list*
%AMRoundRect*
0 Rectangle with rounded corners*
0 $1 Rounding radius*
0 $2 $3 $4 $5 $6 $7 $8 $9 X,Y pos of 4 corners*
0 Add a 4 corners polygon primitive as box body*
4,1,4,$2,$3,$4,$5,$6,$7,$8,$9,$2,$3,0*
0 Add four circle primitives for the rounded corners*
1,1,$1+$1,$2,$3*
1,1,$1+$1,$4,$5*
1,1,$1+$1,$6,$7*
1,1,$1+$1,$8,$9*
0 Add four rect primitives between the rounded corners*
20,1,$1+$1,$2,$3,$4,$5,0*
20,1,$1+$1,$4,$5,$6,$7,0*
20,1,$1+$1,$6,$7,$8,$9,0*
20,1,$1+$1,$8,$9,$2,$3,0*%
G04 Aperture macros list end*
%ADD10RoundRect,0.200000X-0.525000X-0.750000X0.525000X-0.750000X0.525000X0.750000X-0.525000X0.750000X0*%
%ADD11O,1.450000X1.900000*%
%ADD12C,1.800000*%
%ADD13O,1.800000X1.800000*%
%ADD14C,2.000000*%
%ADD15RoundRect,0.200000X-0.800000X0.800000X-0.800000X-0.800000X0.800000X-0.800000X0.800000X0.800000X0*%
%ADD16O,2.000000X2.000000*%
%ADD17C,3.400000*%
%ADD18RoundRect,0.200000X-0.650000X-0.650000X0.650000X-0.650000X0.650000X0.650000X-0.650000X0.650000X0*%
%ADD19C,1.700000*%
%ADD20RoundRect,0.200000X1.300000X0.750000X-1.300000X0.750000X-1.300000X-0.750000X1.300000X-0.750000X0*%
%ADD21O,3.000000X1.900000*%
%ADD22RoundRect,0.200000X0.800000X0.800000X-0.800000X0.800000X-0.800000X-0.800000X0.800000X-0.800000X0*%
%ADD23RoundRect,0.200000X-0.850000X0.850000X-0.850000X-0.850000X0.850000X-0.850000X0.850000X0.850000X0*%
%ADD24O,2.100000X2.100000*%
%ADD25RoundRect,0.200000X-0.900000X0.900000X-0.900000X-0.900000X0.900000X-0.900000X0.900000X0.900000X0*%
%ADD26C,2.200000*%
%ADD27RoundRect,0.200000X-1.100000X1.100000X-1.100000X-1.100000X1.100000X-1.100000X1.100000X1.100000X0*%
%ADD28O,2.600000X2.600000*%
%ADD29C,2.398980*%
%ADD30RoundRect,0.200000X1.000000X0.950000X-1.000000X0.950000X-1.000000X-0.950000X1.000000X-0.950000X0*%
%ADD31C,2.300000*%
%ADD32RoundRect,0.200000X0.900000X-0.900000X0.900000X0.900000X-0.900000X0.900000X-0.900000X-0.900000X0*%
%ADD33RoundRect,0.200000X0.550000X0.900000X-0.550000X0.900000X-0.550000X-0.900000X0.550000X-0.900000X0*%
%ADD34RoundRect,0.475000X0.275000X0.625000X-0.275000X0.625000X-0.275000X-0.625000X0.275000X-0.625000X0*%
%ADD35RoundRect,0.200000X0.800000X-0.800000X0.800000X0.800000X-0.800000X0.800000X-0.800000X-0.800000X0*%
%ADD36RoundRect,0.200000X0.850000X-0.850000X0.850000X0.850000X-0.850000X0.850000X-0.850000X-0.850000X0*%
G04 APERTURE END LIST*
D10*
%TO.C,Q4*%
X152080000Y-79720000D03*
D11*
X153350000Y-79720000D03*
X154620000Y-79720000D03*
%TD*%
D12*
%TO.C,R16*%
X132590000Y-109400000D03*
D13*
X140210000Y-109400000D03*
%TD*%
D12*
%TO.C,R2*%
X164360000Y-106180000D03*
D13*
X156740000Y-106180000D03*
%TD*%
D12*
%TO.C,R19*%
X125710000Y-74220000D03*
D13*
X125710000Y-81840000D03*
%TD*%
D12*
%TO.C,R13*%
X133840000Y-84510000D03*
D13*
X133840000Y-76890000D03*
%TD*%
D14*
%TO.C,C10*%
X141960000Y-101880000D03*
X141960000Y-106880000D03*
%TD*%
D15*
%TO.C,D4*%
X157970000Y-82900000D03*
D16*
X157970000Y-90520000D03*
%TD*%
D14*
%TO.C,C7*%
X175560000Y-60530000D03*
X170560000Y-60530000D03*
%TD*%
D12*
%TO.C,R1*%
X165680000Y-109240000D03*
D13*
X158060000Y-109240000D03*
%TD*%
D17*
%TO.C,J3*%
X128830000Y-131710000D03*
X141530000Y-131710000D03*
X135180000Y-131710000D03*
X128830000Y-115480000D03*
X141530000Y-115480000D03*
X135180000Y-115480000D03*
%TD*%
D12*
%TO.C,R3*%
X156740000Y-103960000D03*
D13*
X164360000Y-103960000D03*
%TD*%
D18*
%TO.C,C1*%
X167630000Y-135980000D03*
D19*
X172630000Y-135980000D03*
%TD*%
D14*
%TO.C,C9*%
X130930000Y-74450000D03*
X130930000Y-79450000D03*
%TD*%
D20*
%TO.C,SW1*%
X155130000Y-138805000D03*
D21*
X149830000Y-138805000D03*
X144530000Y-138805000D03*
X155130000Y-143505000D03*
X149830000Y-143530000D03*
X144530000Y-143505000D03*
X155130000Y-148205000D03*
X149830000Y-148205000D03*
X144530000Y-148205000D03*
%TD*%
D14*
%TO.C,C3*%
X148770000Y-96010000D03*
X153770000Y-96010000D03*
%TD*%
D12*
%TO.C,R6*%
X125730000Y-72140000D03*
D13*
X125730000Y-64520000D03*
%TD*%
D14*
%TO.C,C2*%
X159020000Y-101380000D03*
X164020000Y-101380000D03*
%TD*%
D10*
%TO.C,Q1*%
X157730000Y-79730000D03*
D11*
X159000000Y-79730000D03*
X160270000Y-79730000D03*
%TD*%
D14*
%TO.C,C5*%
X125770000Y-62010000D03*
X130770000Y-62010000D03*
%TD*%
D12*
%TO.C,R5*%
X166570000Y-98360000D03*
D13*
X166570000Y-105980000D03*
%TD*%
D22*
%TO.C,U1*%
X152930000Y-92930000D03*
D16*
X152930000Y-90390000D03*
X152930000Y-87850000D03*
X152930000Y-85310000D03*
X145310000Y-85310000D03*
X145310000Y-87850000D03*
X145310000Y-90390000D03*
X145310000Y-92930000D03*
%TD*%
D23*
%TO.C,JOVGI1*%
X153280000Y-112330000D03*
D24*
X150740000Y-112330000D03*
X148200000Y-112330000D03*
X145660000Y-112330000D03*
%TD*%
D12*
%TO.C,R10*%
X170590000Y-71160000D03*
D13*
X170590000Y-63540000D03*
%TD*%
D12*
%TO.C,R8*%
X149540000Y-78060000D03*
D13*
X141920000Y-78060000D03*
%TD*%
D12*
%TO.C,R7*%
X142920000Y-75840000D03*
D13*
X150540000Y-75840000D03*
%TD*%
D25*
%TO.C,D1*%
X153850000Y-73200000D03*
D26*
X153850000Y-75740000D03*
%TD*%
D27*
%TO.C,D7*%
X128490000Y-87830000D03*
D28*
X128490000Y-97990000D03*
%TD*%
D12*
%TO.C,R9*%
X146230000Y-70160000D03*
D13*
X153850000Y-70160000D03*
%TD*%
D23*
%TO.C,J4*%
X150720000Y-117790000D03*
D24*
X148180000Y-117790000D03*
%TD*%
D15*
%TO.C,D5*%
X155400000Y-82880000D03*
D16*
X155400000Y-90500000D03*
%TD*%
D29*
%TO.C,R2*%
X137580000Y-136000000D03*
X137580000Y-143620000D03*
%TD*%
D14*
%TO.C,C4*%
X125730000Y-58890000D03*
X130730000Y-58890000D03*
%TD*%
D30*
%TO.C,D1*%
X129080000Y-138520000D03*
D31*
X129080000Y-135980000D03*
%TD*%
D12*
%TO.C,R12*%
X128020000Y-75080000D03*
D13*
X128020000Y-67460000D03*
%TD*%
D29*
%TO.C,R3*%
X134330000Y-143600000D03*
X134330000Y-135980000D03*
%TD*%
D14*
%TO.C,C8*%
X137720000Y-86250000D03*
X142720000Y-86250000D03*
%TD*%
D32*
%TO.C,D2*%
X158500000Y-75745000D03*
D26*
X158500000Y-73205000D03*
%TD*%
D29*
%TO.C,R1*%
X162080000Y-135980000D03*
X162080000Y-143600000D03*
%TD*%
D12*
%TO.C,R14*%
X141990000Y-95160000D03*
D13*
X134370000Y-95160000D03*
%TD*%
D33*
%TO.C,Q3*%
X131010000Y-82890000D03*
D34*
X129740000Y-84960000D03*
X128470000Y-82890000D03*
%TD*%
D15*
%TO.C,C13*%
X128490000Y-102510000D03*
D14*
X128490000Y-105010000D03*
%TD*%
D12*
%TO.C,R18*%
X125700000Y-83840000D03*
D13*
X125700000Y-91460000D03*
%TD*%
D17*
%TO.C,J2*%
X169830000Y-115510000D03*
X157130000Y-115510000D03*
X163480000Y-115510000D03*
X169830000Y-131740000D03*
X157130000Y-131740000D03*
X163480000Y-131740000D03*
%TD*%
D14*
%TO.C,C1*%
X148710000Y-103370000D03*
X153710000Y-103370000D03*
%TD*%
D33*
%TO.C,Q2*%
X159230000Y-95530000D03*
D34*
X157960000Y-97600000D03*
X156690000Y-95530000D03*
%TD*%
D14*
%TO.C,C6*%
X140250000Y-80810000D03*
X145250000Y-80810000D03*
%TD*%
D12*
%TO.C,R11*%
X143190000Y-89010000D03*
D13*
X135570000Y-89010000D03*
%TD*%
D35*
%TO.C,D3*%
X160530000Y-90520000D03*
D16*
X160530000Y-82900000D03*
%TD*%
D36*
%TO.C,J1*%
X148230000Y-65280000D03*
D24*
X150770000Y-65280000D03*
%TD*%
D12*
%TO.C,R20*%
X137950000Y-71720000D03*
D13*
X130330000Y-71720000D03*
%TD*%
D15*
%TO.C,C2*%
X168580000Y-141180000D03*
D14*
X168580000Y-143680000D03*
%TD*%
D12*
%TO.C,R4*%
X169410000Y-96200000D03*
D13*
X161790000Y-96200000D03*
%TD*%
D14*
%TO.C,C11*%
X144330000Y-99020000D03*
X149330000Y-99020000D03*
%TD*%
D22*
%TO.C,C12*%
X173842651Y-101470000D03*
D14*
X171342651Y-101470000D03*
%TD*%
D23*
%TO.C,JOVGI2*%
X153280000Y-106780000D03*
D24*
X150740000Y-106780000D03*
X148200000Y-106780000D03*
X145660000Y-106780000D03*
%TD*%
D12*
%TO.C,R15*%
X134370000Y-97370000D03*
D13*
X141990000Y-97370000D03*
%TD*%
D26*
%TO.C,TONE*%
X160150000Y-62590000D03*
X162690000Y-62590000D03*
X165230000Y-62590000D03*
%TD*%
%TO.C,DRIVE*%
X138355000Y-65635000D03*
X135815000Y-65635000D03*
X133275000Y-65635000D03*
%TD*%
%TO.C,LOW*%
X133315000Y-62535000D03*
X135855000Y-62535000D03*
X138395000Y-62535000D03*
%TD*%
%TO.C,VOL*%
X165175000Y-65355000D03*
X162635000Y-65355000D03*
X160095000Y-65355000D03*
%TD*%
M02*
