%TF.GenerationSoftware,KiCad,Pcbnew,7.0.2-6a45011f42~172~ubuntu22.04.1*%
%TF.CreationDate,2023-05-16T10:09:17+01:00*%
%TF.ProjectId,greenbean,67726565-6e62-4656-916e-2e6b69636164,rev?*%
%TF.SameCoordinates,Original*%
%TF.FileFunction,Legend,Bot*%
%TF.FilePolarity,Positive*%
%FSLAX46Y46*%
G04 Gerber Fmt 4.6, Leading zero omitted, Abs format (unit mm)*
G04 Created by KiCad (PCBNEW 7.0.2-6a45011f42~172~ubuntu22.04.1) date 2023-05-16 10:09:17*
%MOMM*%
%LPD*%
G01*
G04 APERTURE LIST*
G04 Aperture macros list*
%AMRoundRect*
0 Rectangle with rounded corners*
0 $1 Rounding radius*
0 $2 $3 $4 $5 $6 $7 $8 $9 X,Y pos of 4 corners*
0 Add a 4 corners polygon primitive as box body*
4,1,4,$2,$3,$4,$5,$6,$7,$8,$9,$2,$3,0*
0 Add four circle primitives for the rounded corners*
1,1,$1+$1,$2,$3*
1,1,$1+$1,$4,$5*
1,1,$1+$1,$6,$7*
1,1,$1+$1,$8,$9*
0 Add four rect primitives between the rounded corners*
20,1,$1+$1,$2,$3,$4,$5,0*
20,1,$1+$1,$4,$5,$6,$7,0*
20,1,$1+$1,$6,$7,$8,$9,0*
20,1,$1+$1,$8,$9,$2,$3,0*%
G04 Aperture macros list end*
%ADD10C,0.150000*%
%ADD11C,0.120000*%
%ADD12C,1.998980*%
%ADD13RoundRect,0.200000X-0.525000X-0.750000X0.525000X-0.750000X0.525000X0.750000X-0.525000X0.750000X0*%
%ADD14O,1.450000X1.900000*%
%ADD15C,1.800000*%
%ADD16O,1.800000X1.800000*%
%ADD17C,2.000000*%
%ADD18RoundRect,0.200000X-0.800000X0.800000X-0.800000X-0.800000X0.800000X-0.800000X0.800000X0.800000X0*%
%ADD19O,2.000000X2.000000*%
%ADD20C,3.400000*%
%ADD21RoundRect,0.200000X-0.650000X-0.650000X0.650000X-0.650000X0.650000X0.650000X-0.650000X0.650000X0*%
%ADD22C,1.700000*%
%ADD23RoundRect,0.200000X1.300000X0.750000X-1.300000X0.750000X-1.300000X-0.750000X1.300000X-0.750000X0*%
%ADD24O,3.000000X1.900000*%
%ADD25RoundRect,0.200000X0.800000X0.800000X-0.800000X0.800000X-0.800000X-0.800000X0.800000X-0.800000X0*%
%ADD26RoundRect,0.200000X-0.850000X0.850000X-0.850000X-0.850000X0.850000X-0.850000X0.850000X0.850000X0*%
%ADD27O,2.100000X2.100000*%
%ADD28RoundRect,0.200000X-0.900000X0.900000X-0.900000X-0.900000X0.900000X-0.900000X0.900000X0.900000X0*%
%ADD29C,2.200000*%
%ADD30RoundRect,0.200000X-1.100000X1.100000X-1.100000X-1.100000X1.100000X-1.100000X1.100000X1.100000X0*%
%ADD31O,2.600000X2.600000*%
%ADD32C,2.398980*%
%ADD33RoundRect,0.200000X1.000000X0.950000X-1.000000X0.950000X-1.000000X-0.950000X1.000000X-0.950000X0*%
%ADD34C,2.300000*%
%ADD35RoundRect,0.200000X0.900000X-0.900000X0.900000X0.900000X-0.900000X0.900000X-0.900000X-0.900000X0*%
%ADD36RoundRect,0.200000X0.550000X0.900000X-0.550000X0.900000X-0.550000X-0.900000X0.550000X-0.900000X0*%
%ADD37RoundRect,0.475000X0.275000X0.625000X-0.275000X0.625000X-0.275000X-0.625000X0.275000X-0.625000X0*%
%ADD38RoundRect,0.200000X0.800000X-0.800000X0.800000X0.800000X-0.800000X0.800000X-0.800000X-0.800000X0*%
%ADD39RoundRect,0.200000X0.850000X-0.850000X0.850000X0.850000X-0.850000X0.850000X-0.850000X-0.850000X0*%
G04 APERTURE END LIST*
D10*
%TO.C,TONE*%
X164835713Y-60152619D02*
X164264285Y-60152619D01*
X164549999Y-61152619D02*
X164549999Y-60152619D01*
X163740475Y-60152619D02*
X163549999Y-60152619D01*
X163549999Y-60152619D02*
X163454761Y-60200238D01*
X163454761Y-60200238D02*
X163359523Y-60295476D01*
X163359523Y-60295476D02*
X163311904Y-60485952D01*
X163311904Y-60485952D02*
X163311904Y-60819285D01*
X163311904Y-60819285D02*
X163359523Y-61009761D01*
X163359523Y-61009761D02*
X163454761Y-61105000D01*
X163454761Y-61105000D02*
X163549999Y-61152619D01*
X163549999Y-61152619D02*
X163740475Y-61152619D01*
X163740475Y-61152619D02*
X163835713Y-61105000D01*
X163835713Y-61105000D02*
X163930951Y-61009761D01*
X163930951Y-61009761D02*
X163978570Y-60819285D01*
X163978570Y-60819285D02*
X163978570Y-60485952D01*
X163978570Y-60485952D02*
X163930951Y-60295476D01*
X163930951Y-60295476D02*
X163835713Y-60200238D01*
X163835713Y-60200238D02*
X163740475Y-60152619D01*
X162883332Y-61152619D02*
X162883332Y-60152619D01*
X162883332Y-60152619D02*
X162311904Y-61152619D01*
X162311904Y-61152619D02*
X162311904Y-60152619D01*
X161835713Y-60628809D02*
X161502380Y-60628809D01*
X161359523Y-61152619D02*
X161835713Y-61152619D01*
X161835713Y-61152619D02*
X161835713Y-60152619D01*
X161835713Y-60152619D02*
X161359523Y-60152619D01*
%TO.C,DRIVE*%
X137790951Y-68132619D02*
X137790951Y-67132619D01*
X137790951Y-67132619D02*
X137552856Y-67132619D01*
X137552856Y-67132619D02*
X137409999Y-67180238D01*
X137409999Y-67180238D02*
X137314761Y-67275476D01*
X137314761Y-67275476D02*
X137267142Y-67370714D01*
X137267142Y-67370714D02*
X137219523Y-67561190D01*
X137219523Y-67561190D02*
X137219523Y-67704047D01*
X137219523Y-67704047D02*
X137267142Y-67894523D01*
X137267142Y-67894523D02*
X137314761Y-67989761D01*
X137314761Y-67989761D02*
X137409999Y-68085000D01*
X137409999Y-68085000D02*
X137552856Y-68132619D01*
X137552856Y-68132619D02*
X137790951Y-68132619D01*
X136219523Y-68132619D02*
X136552856Y-67656428D01*
X136790951Y-68132619D02*
X136790951Y-67132619D01*
X136790951Y-67132619D02*
X136409999Y-67132619D01*
X136409999Y-67132619D02*
X136314761Y-67180238D01*
X136314761Y-67180238D02*
X136267142Y-67227857D01*
X136267142Y-67227857D02*
X136219523Y-67323095D01*
X136219523Y-67323095D02*
X136219523Y-67465952D01*
X136219523Y-67465952D02*
X136267142Y-67561190D01*
X136267142Y-67561190D02*
X136314761Y-67608809D01*
X136314761Y-67608809D02*
X136409999Y-67656428D01*
X136409999Y-67656428D02*
X136790951Y-67656428D01*
X135790951Y-68132619D02*
X135790951Y-67132619D01*
X135457618Y-67132619D02*
X135124285Y-68132619D01*
X135124285Y-68132619D02*
X134790952Y-67132619D01*
X134457618Y-67608809D02*
X134124285Y-67608809D01*
X133981428Y-68132619D02*
X134457618Y-68132619D01*
X134457618Y-68132619D02*
X134457618Y-67132619D01*
X134457618Y-67132619D02*
X133981428Y-67132619D01*
%TO.C,LOW*%
X136465714Y-61182619D02*
X136941904Y-61182619D01*
X136941904Y-61182619D02*
X136941904Y-60182619D01*
X135941904Y-60182619D02*
X135751428Y-60182619D01*
X135751428Y-60182619D02*
X135656190Y-60230238D01*
X135656190Y-60230238D02*
X135560952Y-60325476D01*
X135560952Y-60325476D02*
X135513333Y-60515952D01*
X135513333Y-60515952D02*
X135513333Y-60849285D01*
X135513333Y-60849285D02*
X135560952Y-61039761D01*
X135560952Y-61039761D02*
X135656190Y-61135000D01*
X135656190Y-61135000D02*
X135751428Y-61182619D01*
X135751428Y-61182619D02*
X135941904Y-61182619D01*
X135941904Y-61182619D02*
X136037142Y-61135000D01*
X136037142Y-61135000D02*
X136132380Y-61039761D01*
X136132380Y-61039761D02*
X136179999Y-60849285D01*
X136179999Y-60849285D02*
X136179999Y-60515952D01*
X136179999Y-60515952D02*
X136132380Y-60325476D01*
X136132380Y-60325476D02*
X136037142Y-60230238D01*
X136037142Y-60230238D02*
X135941904Y-60182619D01*
X135179999Y-60182619D02*
X134941904Y-61182619D01*
X134941904Y-61182619D02*
X134751428Y-60468333D01*
X134751428Y-60468333D02*
X134560952Y-61182619D01*
X134560952Y-61182619D02*
X134322857Y-60182619D01*
%TO.C,VOL*%
X163941904Y-66792619D02*
X163608571Y-67792619D01*
X163608571Y-67792619D02*
X163275238Y-66792619D01*
X162751428Y-66792619D02*
X162560952Y-66792619D01*
X162560952Y-66792619D02*
X162465714Y-66840238D01*
X162465714Y-66840238D02*
X162370476Y-66935476D01*
X162370476Y-66935476D02*
X162322857Y-67125952D01*
X162322857Y-67125952D02*
X162322857Y-67459285D01*
X162322857Y-67459285D02*
X162370476Y-67649761D01*
X162370476Y-67649761D02*
X162465714Y-67745000D01*
X162465714Y-67745000D02*
X162560952Y-67792619D01*
X162560952Y-67792619D02*
X162751428Y-67792619D01*
X162751428Y-67792619D02*
X162846666Y-67745000D01*
X162846666Y-67745000D02*
X162941904Y-67649761D01*
X162941904Y-67649761D02*
X162989523Y-67459285D01*
X162989523Y-67459285D02*
X162989523Y-67125952D01*
X162989523Y-67125952D02*
X162941904Y-66935476D01*
X162941904Y-66935476D02*
X162846666Y-66840238D01*
X162846666Y-66840238D02*
X162751428Y-66792619D01*
X161418095Y-67792619D02*
X161894285Y-67792619D01*
X161894285Y-67792619D02*
X161894285Y-66792619D01*
D11*
%TO.C,TONE*%
X156320000Y-61960000D02*
X156320000Y-49220000D01*
X158995000Y-61960000D02*
X156320000Y-61960000D01*
X161534000Y-61960000D02*
X161305000Y-61960000D01*
X164075000Y-61960000D02*
X163845000Y-61960000D01*
X169060000Y-61960000D02*
X166385000Y-61960000D01*
X169060000Y-61960000D02*
X169060000Y-49220000D01*
X169060000Y-49220000D02*
X156320000Y-49220000D01*
%TO.C,DRIVE*%
X142185000Y-66265000D02*
X142185000Y-79005000D01*
X139510000Y-66265000D02*
X142185000Y-66265000D01*
X136971000Y-66265000D02*
X137200000Y-66265000D01*
X134430000Y-66265000D02*
X134660000Y-66265000D01*
X129445000Y-66265000D02*
X132120000Y-66265000D01*
X129445000Y-66265000D02*
X129445000Y-79005000D01*
X129445000Y-79005000D02*
X142185000Y-79005000D01*
%TO.C,LOW*%
X129485000Y-61905000D02*
X129485000Y-49165000D01*
X132160000Y-61905000D02*
X129485000Y-61905000D01*
X134699000Y-61905000D02*
X134470000Y-61905000D01*
X137240000Y-61905000D02*
X137010000Y-61905000D01*
X142225000Y-61905000D02*
X139550000Y-61905000D01*
X142225000Y-61905000D02*
X142225000Y-49165000D01*
X142225000Y-49165000D02*
X129485000Y-49165000D01*
%TO.C,VOL*%
X169005000Y-65985000D02*
X169005000Y-78725000D01*
X166330000Y-65985000D02*
X169005000Y-65985000D01*
X163791000Y-65985000D02*
X164020000Y-65985000D01*
X161250000Y-65985000D02*
X161480000Y-65985000D01*
X156265000Y-65985000D02*
X158940000Y-65985000D01*
X156265000Y-65985000D02*
X156265000Y-78725000D01*
X156265000Y-78725000D02*
X169005000Y-78725000D01*
%TD*%
D12*
%TO.C,R2*%
X137580000Y-136000000D03*
X137580000Y-143620000D03*
%TD*%
%TO.C,R3*%
X134330000Y-143600000D03*
X134330000Y-135980000D03*
%TD*%
%TO.C,R1*%
X162080000Y-135980000D03*
X162080000Y-143600000D03*
%TD*%
%LPC*%
D13*
%TO.C,Q4*%
X152080000Y-79720000D03*
D14*
X153350000Y-79720000D03*
X154620000Y-79720000D03*
%TD*%
D15*
%TO.C,R16*%
X132590000Y-109400000D03*
D16*
X140210000Y-109400000D03*
%TD*%
D15*
%TO.C,R2*%
X164360000Y-106180000D03*
D16*
X156740000Y-106180000D03*
%TD*%
D15*
%TO.C,R19*%
X125710000Y-74220000D03*
D16*
X125710000Y-81840000D03*
%TD*%
D15*
%TO.C,R13*%
X133840000Y-84510000D03*
D16*
X133840000Y-76890000D03*
%TD*%
D17*
%TO.C,C10*%
X141960000Y-101880000D03*
X141960000Y-106880000D03*
%TD*%
D18*
%TO.C,D4*%
X157970000Y-82900000D03*
D19*
X157970000Y-90520000D03*
%TD*%
D17*
%TO.C,C7*%
X175560000Y-60530000D03*
X170560000Y-60530000D03*
%TD*%
D15*
%TO.C,R1*%
X165680000Y-109240000D03*
D16*
X158060000Y-109240000D03*
%TD*%
D20*
%TO.C,J3*%
X128830000Y-131710000D03*
X141530000Y-131710000D03*
X135180000Y-131710000D03*
X128830000Y-115480000D03*
X141530000Y-115480000D03*
X135180000Y-115480000D03*
%TD*%
D15*
%TO.C,R3*%
X156740000Y-103960000D03*
D16*
X164360000Y-103960000D03*
%TD*%
D21*
%TO.C,C1*%
X167630000Y-135980000D03*
D22*
X172630000Y-135980000D03*
%TD*%
D17*
%TO.C,C9*%
X130930000Y-74450000D03*
X130930000Y-79450000D03*
%TD*%
D23*
%TO.C,SW1*%
X155130000Y-138805000D03*
D24*
X149830000Y-138805000D03*
X144530000Y-138805000D03*
X155130000Y-143505000D03*
X149830000Y-143530000D03*
X144530000Y-143505000D03*
X155130000Y-148205000D03*
X149830000Y-148205000D03*
X144530000Y-148205000D03*
%TD*%
D17*
%TO.C,C3*%
X148770000Y-96010000D03*
X153770000Y-96010000D03*
%TD*%
D15*
%TO.C,R6*%
X125730000Y-72140000D03*
D16*
X125730000Y-64520000D03*
%TD*%
D17*
%TO.C,C2*%
X159020000Y-101380000D03*
X164020000Y-101380000D03*
%TD*%
D13*
%TO.C,Q1*%
X157730000Y-79730000D03*
D14*
X159000000Y-79730000D03*
X160270000Y-79730000D03*
%TD*%
D17*
%TO.C,C5*%
X125770000Y-62010000D03*
X130770000Y-62010000D03*
%TD*%
D15*
%TO.C,R5*%
X166570000Y-98360000D03*
D16*
X166570000Y-105980000D03*
%TD*%
D25*
%TO.C,U1*%
X152930000Y-92930000D03*
D19*
X152930000Y-90390000D03*
X152930000Y-87850000D03*
X152930000Y-85310000D03*
X145310000Y-85310000D03*
X145310000Y-87850000D03*
X145310000Y-90390000D03*
X145310000Y-92930000D03*
%TD*%
D26*
%TO.C,JOVGI1*%
X153280000Y-112330000D03*
D27*
X150740000Y-112330000D03*
X148200000Y-112330000D03*
X145660000Y-112330000D03*
%TD*%
D15*
%TO.C,R10*%
X170590000Y-71160000D03*
D16*
X170590000Y-63540000D03*
%TD*%
D15*
%TO.C,R8*%
X149540000Y-78060000D03*
D16*
X141920000Y-78060000D03*
%TD*%
D15*
%TO.C,R7*%
X142920000Y-75840000D03*
D16*
X150540000Y-75840000D03*
%TD*%
D28*
%TO.C,D1*%
X153850000Y-73200000D03*
D29*
X153850000Y-75740000D03*
%TD*%
D30*
%TO.C,D7*%
X128490000Y-87830000D03*
D31*
X128490000Y-97990000D03*
%TD*%
D15*
%TO.C,R9*%
X146230000Y-70160000D03*
D16*
X153850000Y-70160000D03*
%TD*%
D26*
%TO.C,J4*%
X150720000Y-117790000D03*
D27*
X148180000Y-117790000D03*
%TD*%
D18*
%TO.C,D5*%
X155400000Y-82880000D03*
D19*
X155400000Y-90500000D03*
%TD*%
D32*
%TO.C,R2*%
X137580000Y-136000000D03*
X137580000Y-143620000D03*
%TD*%
D17*
%TO.C,C4*%
X125730000Y-58890000D03*
X130730000Y-58890000D03*
%TD*%
D33*
%TO.C,D1*%
X129080000Y-138520000D03*
D34*
X129080000Y-135980000D03*
%TD*%
D15*
%TO.C,R12*%
X128020000Y-75080000D03*
D16*
X128020000Y-67460000D03*
%TD*%
D32*
%TO.C,R3*%
X134330000Y-143600000D03*
X134330000Y-135980000D03*
%TD*%
D17*
%TO.C,C8*%
X137720000Y-86250000D03*
X142720000Y-86250000D03*
%TD*%
D35*
%TO.C,D2*%
X158500000Y-75745000D03*
D29*
X158500000Y-73205000D03*
%TD*%
D32*
%TO.C,R1*%
X162080000Y-135980000D03*
X162080000Y-143600000D03*
%TD*%
D15*
%TO.C,R14*%
X141990000Y-95160000D03*
D16*
X134370000Y-95160000D03*
%TD*%
D36*
%TO.C,Q3*%
X131010000Y-82890000D03*
D37*
X129740000Y-84960000D03*
X128470000Y-82890000D03*
%TD*%
D18*
%TO.C,C13*%
X128490000Y-102510000D03*
D17*
X128490000Y-105010000D03*
%TD*%
D15*
%TO.C,R18*%
X125700000Y-83840000D03*
D16*
X125700000Y-91460000D03*
%TD*%
D20*
%TO.C,J2*%
X169830000Y-115510000D03*
X157130000Y-115510000D03*
X163480000Y-115510000D03*
X169830000Y-131740000D03*
X157130000Y-131740000D03*
X163480000Y-131740000D03*
%TD*%
D17*
%TO.C,C1*%
X148710000Y-103370000D03*
X153710000Y-103370000D03*
%TD*%
D36*
%TO.C,Q2*%
X159230000Y-95530000D03*
D37*
X157960000Y-97600000D03*
X156690000Y-95530000D03*
%TD*%
D17*
%TO.C,C6*%
X140250000Y-80810000D03*
X145250000Y-80810000D03*
%TD*%
D15*
%TO.C,R11*%
X143190000Y-89010000D03*
D16*
X135570000Y-89010000D03*
%TD*%
D38*
%TO.C,D3*%
X160530000Y-90520000D03*
D19*
X160530000Y-82900000D03*
%TD*%
D39*
%TO.C,J1*%
X148230000Y-65280000D03*
D27*
X150770000Y-65280000D03*
%TD*%
D15*
%TO.C,R20*%
X137950000Y-71720000D03*
D16*
X130330000Y-71720000D03*
%TD*%
D18*
%TO.C,C2*%
X168580000Y-141180000D03*
D17*
X168580000Y-143680000D03*
%TD*%
D15*
%TO.C,R4*%
X169410000Y-96200000D03*
D16*
X161790000Y-96200000D03*
%TD*%
D17*
%TO.C,C11*%
X144330000Y-99020000D03*
X149330000Y-99020000D03*
%TD*%
D25*
%TO.C,C12*%
X173842651Y-101470000D03*
D17*
X171342651Y-101470000D03*
%TD*%
D26*
%TO.C,JOVGI2*%
X153280000Y-106780000D03*
D27*
X150740000Y-106780000D03*
X148200000Y-106780000D03*
X145660000Y-106780000D03*
%TD*%
D15*
%TO.C,R15*%
X134370000Y-97370000D03*
D16*
X141990000Y-97370000D03*
%TD*%
D29*
%TO.C,TONE*%
X160150000Y-62590000D03*
X162690000Y-62590000D03*
X165230000Y-62590000D03*
%TD*%
%TO.C,DRIVE*%
X138355000Y-65635000D03*
X135815000Y-65635000D03*
X133275000Y-65635000D03*
%TD*%
%TO.C,LOW*%
X133315000Y-62535000D03*
X135855000Y-62535000D03*
X138395000Y-62535000D03*
%TD*%
%TO.C,VOL*%
X165175000Y-65355000D03*
X162635000Y-65355000D03*
X160095000Y-65355000D03*
%TD*%
%LPD*%
M02*
