M48
; DRILL file {KiCad 7.0.2-6a45011f42~172~ubuntu22.04.1} date Tue 16 May 2023 10:09:17 BST
; FORMAT={-:-/ absolute / inch / decimal}
; #@! TF.CreationDate,2023-05-16T10:09:17+01:00
; #@! TF.GenerationSoftware,Kicad,Pcbnew,7.0.2-6a45011f42~172~ubuntu22.04.1
; #@! TF.FileFunction,Plated,1,2,PTH
FMAT,2
INCH
; #@! TA.AperFunction,Plated,PTH,ComponentDrill
T1C0.0276
; #@! TA.AperFunction,Plated,PTH,ComponentDrill
T2C0.0295
; #@! TA.AperFunction,Plated,PTH,ComponentDrill
T3C0.0315
; #@! TA.AperFunction,Plated,PTH,ComponentDrill
T4C0.0354
; #@! TA.AperFunction,Plated,PTH,ComponentDrill
T5C0.0394
; #@! TA.AperFunction,Plated,PTH,ComponentDrill
T6C0.0394
; #@! TA.AperFunction,Plated,PTH,ComponentDrill
T7C0.0433
; #@! TA.AperFunction,Plated,PTH,ComponentDrill
T8C0.0591
%
G90
G05
T1
X4.9488Y-3.3008
X4.9488Y-3.6008
X4.9492Y-2.922
X4.9492Y-3.222
X4.95Y-2.5402
X4.95Y-2.8402
X5.0402Y-2.6559
X5.0402Y-2.9559
X5.1311Y-2.8236
X5.2201Y-4.3071
X5.2693Y-3.0272
X5.2693Y-3.3272
X5.2902Y-3.7465
X5.2902Y-3.8335
X5.3374Y-3.5043
X5.4311Y-2.8236
X5.5201Y-4.3071
X5.5874Y-3.0732
X5.5902Y-3.7465
X5.5902Y-3.8335
X5.6268Y-2.9858
X5.6374Y-3.5043
X5.7571Y-2.7622
X5.8874Y-3.0732
X5.9268Y-2.9858
X6.0571Y-2.7622
X6.1709Y-4.0929
X6.1709Y-4.1803
X6.2228Y-4.3008
X6.3697Y-3.7874
X6.4709Y-4.0929
X6.4709Y-4.1803
X6.5228Y-4.3008
X6.5579Y-3.8724
X6.5579Y-4.1724
X6.6697Y-3.7874
X6.7161Y-2.5016
X6.7161Y-2.8016
T2
X5.0579Y-3.2791
X5.1079Y-3.3291
X5.1579Y-3.2791
X5.9874Y-3.1386
X6.0374Y-3.1386
X6.0874Y-3.1386
X6.1689Y-3.7768
X6.2098Y-3.139
X6.2189Y-3.8268
X6.2598Y-3.139
X6.2689Y-3.7768
X6.3098Y-3.139
T3
X4.95Y-2.3185
X4.9516Y-2.4413
X5.0587Y-4.0358
X5.0587Y-4.1343
X5.1469Y-2.3185
X5.1484Y-2.4413
X5.1547Y-2.9311
X5.1547Y-3.128
X5.422Y-3.3957
X5.5217Y-3.1815
X5.589Y-4.011
X5.589Y-4.2079
X5.6189Y-3.3957
X5.6823Y-3.8984
X5.7185Y-3.1815
X5.7209Y-3.3587
X5.7209Y-3.4587
X5.7209Y-3.5587
X5.7209Y-3.6587
X5.8547Y-4.0697
X5.8571Y-3.7799
X5.8791Y-3.8984
X6.0209Y-3.3587
X6.0209Y-3.4587
X6.0209Y-3.5587
X6.0209Y-3.6587
X6.0516Y-4.0697
X6.0539Y-3.7799
X6.1181Y-3.263
X6.1181Y-3.563
X6.2193Y-3.2638
X6.2193Y-3.5638
X6.2606Y-3.9913
X6.3201Y-3.2638
X6.3201Y-3.5638
X6.4575Y-3.9913
X6.5996Y-5.3535
X6.637Y-5.5583
X6.637Y-5.6567
X6.715Y-2.3831
X6.7458Y-3.9949
X6.7965Y-5.3535
X6.8442Y-3.9949
X6.9118Y-2.3831
T4
X6.0571Y-2.8819
X6.0571Y-2.9819
X6.2402Y-2.8821
X6.2402Y-2.9821
T5
X5.247Y-2.5841
X5.2486Y-2.462
X5.347Y-2.5841
X5.3486Y-2.462
X5.447Y-2.5841
X5.4486Y-2.462
X5.7346Y-4.2039
X5.7346Y-4.4224
X5.8339Y-4.6374
X5.8346Y-4.2039
X5.8346Y-4.4224
X5.8358Y-2.5701
X5.9339Y-4.6374
X5.9346Y-4.2039
X5.9346Y-4.4224
X5.9358Y-2.5701
X6.0346Y-4.2039
X6.0346Y-4.4224
X6.303Y-2.573
X6.3051Y-2.4642
X6.403Y-2.573
X6.4051Y-2.4642
X6.503Y-2.573
X6.5051Y-2.4642
T6
X5.0819Y-5.3535
X5.0819Y-5.4535
X5.2886Y-5.3535
X5.2886Y-5.6535
X5.4165Y-5.3543
X5.4165Y-5.6543
X6.3811Y-5.3535
X6.3811Y-5.6535
T7
X5.0587Y-3.4579
X5.0587Y-3.8579
T8
X5.072Y-4.5465
X5.072Y-5.1854
X5.322Y-4.5465
X5.322Y-5.1854
X5.572Y-4.5465
X5.572Y-5.1854
X6.1862Y-4.5476
X6.1862Y-5.1866
X6.4362Y-4.5476
X6.4362Y-5.1866
X6.6862Y-4.5476
X6.6862Y-5.1866
T5
G00X5.7118Y-5.4648
M15
G01X5.6685Y-5.4648
M16
G05
G00X5.7118Y-5.6498
M15
G01X5.6685Y-5.6498
M16
G05
G00X5.7118Y-5.8348
M15
G01X5.6685Y-5.8348
M16
G05
G00X5.9205Y-5.4648
M15
G01X5.8772Y-5.4648
M16
G05
G00X5.9205Y-5.6508
M15
G01X5.8772Y-5.6508
M16
G05
G00X5.9205Y-5.8348
M15
G01X5.8772Y-5.8348
M16
G05
G00X6.1291Y-5.4648
M15
G01X6.0858Y-5.4648
M16
G05
G00X6.1291Y-5.6498
M15
G01X6.0858Y-5.6498
M16
G05
G00X6.1291Y-5.8348
M15
G01X6.0858Y-5.8348
M16
G05
G00X6.5783Y-3.2949
M15
G01X6.5272Y-3.2949
M16
G05
G00X6.5783Y-3.4701
M15
G01X6.5272Y-3.4701
M16
G05
G00X6.5783Y-3.6453
M15
G01X6.5272Y-3.6453
M16
G05
T0
M30
