%TF.GenerationSoftware,KiCad,Pcbnew,7.0.2-6a45011f42~172~ubuntu22.04.1*%
%TF.CreationDate,2023-05-16T10:12:08+01:00*%
%TF.ProjectId,little-angel-chorus,6c697474-6c65-42d6-916e-67656c2d6368,rev?*%
%TF.SameCoordinates,Original*%
%TF.FileFunction,Legend,Bot*%
%TF.FilePolarity,Positive*%
%FSLAX46Y46*%
G04 Gerber Fmt 4.6, Leading zero omitted, Abs format (unit mm)*
G04 Created by KiCad (PCBNEW 7.0.2-6a45011f42~172~ubuntu22.04.1) date 2023-05-16 10:12:08*
%MOMM*%
%LPD*%
G01*
G04 APERTURE LIST*
G04 Aperture macros list*
%AMRoundRect*
0 Rectangle with rounded corners*
0 $1 Rounding radius*
0 $2 $3 $4 $5 $6 $7 $8 $9 X,Y pos of 4 corners*
0 Add a 4 corners polygon primitive as box body*
4,1,4,$2,$3,$4,$5,$6,$7,$8,$9,$2,$3,0*
0 Add four circle primitives for the rounded corners*
1,1,$1+$1,$2,$3*
1,1,$1+$1,$4,$5*
1,1,$1+$1,$6,$7*
1,1,$1+$1,$8,$9*
0 Add four rect primitives between the rounded corners*
20,1,$1+$1,$2,$3,$4,$5,0*
20,1,$1+$1,$4,$5,$6,$7,0*
20,1,$1+$1,$6,$7,$8,$9,0*
20,1,$1+$1,$8,$9,$2,$3,0*%
G04 Aperture macros list end*
%ADD10C,1.998980*%
%ADD11C,1.800000*%
%ADD12O,1.800000X1.800000*%
%ADD13RoundRect,0.200000X0.800000X0.800000X-0.800000X0.800000X-0.800000X-0.800000X0.800000X-0.800000X0*%
%ADD14C,2.000000*%
%ADD15C,3.400000*%
%ADD16RoundRect,0.200000X-0.850000X0.850000X-0.850000X-0.850000X0.850000X-0.850000X0.850000X0.850000X0*%
%ADD17O,2.100000X2.100000*%
%ADD18RoundRect,0.200000X-0.800000X0.800000X-0.800000X-0.800000X0.800000X-0.800000X0.800000X0.800000X0*%
%ADD19C,2.398980*%
%ADD20RoundRect,0.200000X-0.650000X-0.650000X0.650000X-0.650000X0.650000X0.650000X-0.650000X0.650000X0*%
%ADD21C,1.700000*%
%ADD22RoundRect,0.200000X0.800000X-0.800000X0.800000X0.800000X-0.800000X0.800000X-0.800000X-0.800000X0*%
%ADD23O,2.000000X2.000000*%
%ADD24RoundRect,0.200000X-0.800000X-0.800000X0.800000X-0.800000X0.800000X0.800000X-0.800000X0.800000X0*%
%ADD25O,3.120000X3.640000*%
%ADD26RoundRect,0.200000X0.900000X0.900000X-0.900000X0.900000X-0.900000X-0.900000X0.900000X-0.900000X0*%
%ADD27C,2.200000*%
%ADD28RoundRect,0.200000X1.300000X0.750000X-1.300000X0.750000X-1.300000X-0.750000X1.300000X-0.750000X0*%
%ADD29O,3.000000X1.900000*%
%ADD30RoundRect,0.200000X0.850000X-0.850000X0.850000X0.850000X-0.850000X0.850000X-0.850000X-0.850000X0*%
%ADD31RoundRect,0.200000X0.525000X0.750000X-0.525000X0.750000X-0.525000X-0.750000X0.525000X-0.750000X0*%
%ADD32O,1.450000X1.900000*%
%ADD33RoundRect,0.200000X1.000000X0.950000X-1.000000X0.950000X-1.000000X-0.950000X1.000000X-0.950000X0*%
%ADD34C,2.300000*%
G04 APERTURE END LIST*
D10*
%TO.C,R2*%
X135203812Y-127353812D03*
X135203812Y-134973812D03*
%TD*%
%TO.C,R3*%
X131953812Y-134953812D03*
X131953812Y-127333812D03*
%TD*%
%TO.C,R1*%
X159703812Y-127333812D03*
X159703812Y-134953812D03*
%TD*%
%LPC*%
D11*
%TO.C,R15*%
X157850000Y-74920000D03*
D12*
X150230000Y-74920000D03*
%TD*%
D11*
%TO.C,R16*%
X164413812Y-81513812D03*
D12*
X172033812Y-81513812D03*
%TD*%
D13*
%TO.C,C11*%
X126200000Y-65230000D03*
D14*
X123700000Y-65230000D03*
%TD*%
D15*
%TO.C,J2*%
X167453812Y-106863812D03*
X154753812Y-106863812D03*
X161103812Y-106863812D03*
X167453812Y-123093812D03*
X154753812Y-123093812D03*
X161103812Y-123093812D03*
%TD*%
D11*
%TO.C,R7*%
X131013812Y-89153812D03*
D12*
X123393812Y-89153812D03*
%TD*%
D16*
%TO.C,J4*%
X148343812Y-109143812D03*
D17*
X145803812Y-109143812D03*
%TD*%
D14*
%TO.C,C9*%
X155590000Y-69320000D03*
X150590000Y-69320000D03*
%TD*%
D11*
%TO.C,R13*%
X125963812Y-76833812D03*
D12*
X133583812Y-76833812D03*
%TD*%
D14*
%TO.C,C2*%
X134300000Y-92110000D03*
X139300000Y-92110000D03*
%TD*%
D18*
%TO.C,C13*%
X166613812Y-64813812D03*
D14*
X166613812Y-67313812D03*
%TD*%
D11*
%TO.C,R14*%
X161333812Y-68273812D03*
D12*
X161333812Y-75893812D03*
%TD*%
D19*
%TO.C,R2*%
X135203812Y-127353812D03*
X135203812Y-134973812D03*
%TD*%
D20*
%TO.C,C1*%
X165253812Y-127333812D03*
D21*
X170253812Y-127333812D03*
%TD*%
D11*
%TO.C,R5*%
X152203812Y-91043812D03*
D12*
X144583812Y-91043812D03*
%TD*%
D13*
%TO.C,C14*%
X167996463Y-74683812D03*
D14*
X165496463Y-74683812D03*
%TD*%
%TO.C,C7*%
X137870000Y-73330000D03*
X132870000Y-73330000D03*
%TD*%
D11*
%TO.C,R20*%
X171753812Y-91683812D03*
D12*
X171753812Y-84063812D03*
%TD*%
D11*
%TO.C,R9*%
X131093812Y-84553812D03*
D12*
X123473812Y-84553812D03*
%TD*%
D22*
%TO.C,U2*%
X157049929Y-91529929D03*
D23*
X159589929Y-91529929D03*
X162129929Y-91529929D03*
X164669929Y-91529929D03*
X164669929Y-83909929D03*
X162129929Y-83909929D03*
X159589929Y-83909929D03*
X157049929Y-83909929D03*
%TD*%
D24*
%TO.C,C12*%
X151543812Y-62013812D03*
D14*
X154043812Y-62013812D03*
%TD*%
D25*
%TO.C,RV2*%
X126003812Y-52248812D03*
X135603812Y-52248812D03*
D26*
X128303812Y-59748812D03*
D27*
X130803812Y-59748812D03*
X133303812Y-59748812D03*
%TD*%
D16*
%TO.C,JOVGI1*%
X150903812Y-103683812D03*
D17*
X148363812Y-103683812D03*
X145823812Y-103683812D03*
X143283812Y-103683812D03*
%TD*%
D11*
%TO.C,R18*%
X138733812Y-63893812D03*
D12*
X131113812Y-63893812D03*
%TD*%
D11*
%TO.C,R3*%
X154319929Y-97229929D03*
D12*
X154319929Y-89609929D03*
%TD*%
D11*
%TO.C,R17*%
X154303812Y-85793812D03*
D12*
X154303812Y-78173812D03*
%TD*%
D19*
%TO.C,R3*%
X131953812Y-134953812D03*
X131953812Y-127333812D03*
%TD*%
D18*
%TO.C,C2*%
X166203812Y-132533812D03*
D14*
X166203812Y-135033812D03*
%TD*%
%TO.C,C5*%
X137760000Y-88840000D03*
X137760000Y-83840000D03*
%TD*%
%TO.C,C8*%
X132850000Y-70110000D03*
X137850000Y-70110000D03*
%TD*%
D28*
%TO.C,SW1*%
X152753812Y-130158812D03*
D29*
X147453812Y-130158812D03*
X142153812Y-130158812D03*
X152753812Y-134858812D03*
X147453812Y-134883812D03*
X142153812Y-134858812D03*
X152753812Y-139558812D03*
X147453812Y-139558812D03*
X142153812Y-139558812D03*
%TD*%
D30*
%TO.C,J1*%
X145853812Y-56633812D03*
D17*
X148393812Y-56633812D03*
%TD*%
D13*
%TO.C,U1*%
X148033812Y-87078812D03*
D23*
X148033812Y-84538812D03*
X148033812Y-81998812D03*
X148033812Y-79458812D03*
X148033812Y-76918812D03*
X148033812Y-74378812D03*
X148033812Y-71838812D03*
X148033812Y-69298812D03*
X140413812Y-69298812D03*
X140413812Y-71838812D03*
X140413812Y-74378812D03*
X140413812Y-76918812D03*
X140413812Y-79458812D03*
X140413812Y-81998812D03*
X140413812Y-84538812D03*
X140413812Y-87078812D03*
%TD*%
D11*
%TO.C,R4*%
X169639929Y-93769929D03*
D12*
X162019929Y-93769929D03*
%TD*%
D15*
%TO.C,J3*%
X126453812Y-123063812D03*
X139153812Y-123063812D03*
X132803812Y-123063812D03*
X126453812Y-106833812D03*
X139153812Y-106833812D03*
X132803812Y-106833812D03*
%TD*%
D11*
%TO.C,R12*%
X125963812Y-79463812D03*
D12*
X133583812Y-79463812D03*
%TD*%
D25*
%TO.C,RV1*%
X159123812Y-52378812D03*
X168723812Y-52378812D03*
D26*
X161423812Y-59878812D03*
D27*
X163923812Y-59878812D03*
X166423812Y-59878812D03*
%TD*%
D11*
%TO.C,R11*%
X123523812Y-82053812D03*
D12*
X131143812Y-82053812D03*
%TD*%
D11*
%TO.C,R19*%
X167383812Y-83913812D03*
D12*
X167383812Y-91533812D03*
%TD*%
D11*
%TO.C,R10*%
X134430000Y-81620000D03*
D12*
X134430000Y-89240000D03*
%TD*%
D14*
%TO.C,C3*%
X142080000Y-90070000D03*
X142080000Y-95070000D03*
%TD*%
D16*
%TO.C,JOVGI2*%
X150903812Y-98133812D03*
D17*
X148363812Y-98133812D03*
X145823812Y-98133812D03*
X143283812Y-98133812D03*
%TD*%
D31*
%TO.C,U3*%
X146983812Y-61123812D03*
D32*
X145713812Y-61123812D03*
X144443812Y-61123812D03*
%TD*%
D11*
%TO.C,R2*%
X157789929Y-95909929D03*
D12*
X165409929Y-95909929D03*
%TD*%
D14*
%TO.C,C10*%
X155610000Y-72330000D03*
X150610000Y-72330000D03*
%TD*%
%TO.C,C4*%
X134380000Y-95170000D03*
X139380000Y-95170000D03*
%TD*%
D19*
%TO.C,R1*%
X159703812Y-127333812D03*
X159703812Y-134953812D03*
%TD*%
D14*
%TO.C,C6*%
X137740000Y-81330000D03*
X137740000Y-76330000D03*
%TD*%
%TO.C,C15*%
X162313812Y-81483812D03*
X157313812Y-81483812D03*
%TD*%
D11*
%TO.C,R8*%
X131033812Y-86793812D03*
D12*
X123413812Y-86793812D03*
%TD*%
D11*
%TO.C,R6*%
X132500000Y-99280000D03*
D12*
X140120000Y-99280000D03*
%TD*%
D11*
%TO.C,R1*%
X157849929Y-98369929D03*
D12*
X165469929Y-98369929D03*
%TD*%
D14*
%TO.C,C1*%
X160830000Y-100940000D03*
X165830000Y-100940000D03*
%TD*%
D33*
%TO.C,D1*%
X126703812Y-129873812D03*
D34*
X126703812Y-127333812D03*
%TD*%
%LPD*%
M02*
