%TF.GenerationSoftware,KiCad,Pcbnew,7.0.2-6a45011f42~172~ubuntu22.04.1*%
%TF.CreationDate,2023-05-16T10:12:08+01:00*%
%TF.ProjectId,little-angel-chorus,6c697474-6c65-42d6-916e-67656c2d6368,rev?*%
%TF.SameCoordinates,Original*%
%TF.FileFunction,Profile,NP*%
%FSLAX46Y46*%
G04 Gerber Fmt 4.6, Leading zero omitted, Abs format (unit mm)*
G04 Created by KiCad (PCBNEW 7.0.2-6a45011f42~172~ubuntu22.04.1) date 2023-05-16 10:12:08*
%MOMM*%
%LPD*%
G01*
G04 APERTURE LIST*
%TA.AperFunction,Profile*%
%ADD10C,0.150000*%
%TD*%
G04 APERTURE END LIST*
D10*
X141553812Y-100083812D02*
X139553812Y-102083812D01*
X132703812Y-139833812D02*
X132203812Y-139833812D01*
X152203812Y-100083812D02*
X152703812Y-100083812D01*
X173203812Y-125833812D02*
X173203812Y-133333812D01*
X132203812Y-139833812D02*
X131203812Y-138833812D01*
X121203812Y-103583812D02*
X120703812Y-103583812D01*
X152953812Y-54833812D02*
X152953812Y-44333812D01*
X140153812Y-103583812D02*
X121203812Y-103583812D01*
X154703812Y-102083812D02*
X173203812Y-102083812D01*
X120703812Y-102083812D02*
X119203812Y-100583812D01*
X153953812Y-103583812D02*
X168953812Y-103583812D01*
X174703812Y-100583812D02*
X174703812Y-77333812D01*
X174703812Y-105083812D02*
X173203812Y-103583812D01*
X119203812Y-49333812D02*
X119203812Y-100583812D01*
X141903812Y-100088812D02*
X141903812Y-101833812D01*
X173203812Y-133333812D02*
X162203812Y-144333812D01*
X137703812Y-143333812D02*
X137703812Y-140833812D01*
X120703812Y-102083812D02*
X120703812Y-102083812D01*
X141903812Y-100088812D02*
X141553812Y-100083812D01*
X152953812Y-44333812D02*
X169703812Y-44333812D01*
X139553812Y-102083812D02*
X120703812Y-102083812D01*
X138703812Y-144333812D02*
X137703812Y-143333812D01*
X119203812Y-49333812D02*
X124203812Y-44333812D01*
X173203812Y-125833812D02*
X174703812Y-124333812D01*
X131203812Y-138833812D02*
X119203812Y-126833812D01*
X137703812Y-140833812D02*
X136703812Y-139833812D01*
X120703812Y-103583812D02*
X119203812Y-105083812D01*
X140953812Y-54833812D02*
X152953812Y-54833812D01*
X173203812Y-103583812D02*
X168953812Y-103583812D01*
X141903812Y-101833812D02*
X140153812Y-103583812D01*
X173203812Y-102083812D02*
X174703812Y-100583812D01*
X152203812Y-101833812D02*
X153953812Y-103583812D01*
X174703812Y-124333812D02*
X174703812Y-105083812D01*
X119203812Y-126833812D02*
X119203812Y-113333812D01*
X152703812Y-100083812D02*
X154703812Y-102083812D01*
X152203812Y-101833812D02*
X152203812Y-100083812D01*
X136703812Y-139833812D02*
X132703812Y-139833812D01*
X140953812Y-44333812D02*
X140953812Y-54833812D01*
X174703812Y-77333812D02*
X174703812Y-49333812D01*
X119203812Y-105083812D02*
X119203812Y-113333812D01*
X169703812Y-44333812D02*
X174703812Y-49333812D01*
X140953812Y-44333812D02*
X124203812Y-44333812D01*
X138703812Y-144333812D02*
X162203812Y-144333812D01*
M02*
