M48
; DRILL file {KiCad 7.0.2-6a45011f42~172~ubuntu22.04.1} date Tue 16 May 2023 10:12:08 BST
; FORMAT={-:-/ absolute / inch / decimal}
; #@! TF.CreationDate,2023-05-16T10:12:08+01:00
; #@! TF.GenerationSoftware,Kicad,Pcbnew,7.0.2-6a45011f42~172~ubuntu22.04.1
; #@! TF.FileFunction,Plated,1,2,PTH
FMAT,2
INCH
; #@! TA.AperFunction,Plated,PTH,ComponentDrill
T1C0.0276
; #@! TA.AperFunction,Plated,PTH,ComponentDrill
T2C0.0295
; #@! TA.AperFunction,Plated,PTH,ComponentDrill
T3C0.0315
; #@! TA.AperFunction,Plated,PTH,ComponentDrill
T4C0.0394
; #@! TA.AperFunction,Plated,PTH,ComponentDrill
T5C0.0394
; #@! TA.AperFunction,Plated,PTH,ComponentDrill
T6C0.0433
; #@! TA.AperFunction,Plated,PTH,ComponentDrill
T7C0.0591
%
G90
G05
T1
X4.858Y-3.51
X4.8588Y-3.4171
X4.8612Y-3.3289
X4.8631Y-3.2305
X4.9592Y-3.025
X4.9592Y-3.1285
X5.158Y-3.51
X5.1588Y-3.4171
X5.1612Y-3.3289
X5.162Y-2.5155
X5.1631Y-3.2305
X5.2165Y-3.9087
X5.2592Y-3.025
X5.2592Y-3.1285
X5.2925Y-3.2134
X5.2925Y-3.5134
X5.462Y-2.5155
X5.5165Y-3.9087
X5.6923Y-3.5844
X5.9146Y-2.9496
X5.9923Y-3.5844
X6.075Y-3.0777
X6.075Y-3.3777
X6.0756Y-3.5279
X6.0756Y-3.8279
X6.2122Y-3.776
X6.2146Y-3.8728
X6.2146Y-2.9496
X6.3517Y-2.6879
X6.3517Y-2.9879
X6.3787Y-3.6917
X6.473Y-3.2092
X6.5122Y-3.776
X6.5146Y-3.8728
X6.5899Y-3.3037
X6.5899Y-3.6037
X6.6787Y-3.6917
X6.762Y-3.3096
X6.762Y-3.6096
X6.773Y-3.2092
T2
X5.6868Y-2.4064
X5.7368Y-2.4064
X5.7868Y-2.4064
T3
X4.8701Y-2.5681
X4.9685Y-2.5681
X5.2303Y-2.7602
X5.2311Y-2.887
X5.2874Y-3.6264
X5.2906Y-3.7469
X5.4228Y-3.0051
X5.4228Y-3.202
X5.4236Y-3.3008
X5.4236Y-3.4976
X5.4272Y-2.7602
X5.428Y-2.887
X5.4843Y-3.6264
X5.4874Y-3.7469
X5.5281Y-2.7283
X5.5281Y-2.8283
X5.5281Y-2.9283
X5.5281Y-3.0283
X5.5281Y-3.1283
X5.5281Y-3.2283
X5.5281Y-3.3283
X5.5281Y-3.4283
X5.5937Y-3.5461
X5.5937Y-3.7429
X5.8281Y-2.7283
X5.8281Y-2.8283
X5.8281Y-2.9283
X5.8281Y-3.0283
X5.8281Y-3.1283
X5.8281Y-3.2283
X5.8281Y-3.3283
X5.8281Y-3.4283
X5.9287Y-2.7291
X5.9295Y-2.8476
X5.9663Y-2.4415
X6.0647Y-2.4415
X6.1256Y-2.7291
X6.1264Y-2.8476
X6.1831Y-3.3035
X6.1831Y-3.6035
X6.1935Y-3.208
X6.2831Y-3.3035
X6.2831Y-3.6035
X6.3319Y-3.974
X6.3831Y-3.3035
X6.3831Y-3.6035
X6.3903Y-3.208
X6.4831Y-3.3035
X6.4831Y-3.6035
X6.5061Y-5.0131
X6.5156Y-2.9403
X6.5287Y-3.974
X6.5435Y-5.2179
X6.5435Y-5.3163
X6.5596Y-2.5517
X6.5596Y-2.6502
X6.614Y-2.9403
X6.7029Y-5.0131
T4
X5.0513Y-2.3523
X5.1498Y-2.3523
X5.2482Y-2.3523
X5.6411Y-3.8635
X5.6411Y-4.082
X5.7403Y-4.297
X5.7411Y-3.8635
X5.7411Y-4.082
X5.7423Y-2.2297
X5.8403Y-4.297
X5.8411Y-3.8635
X5.8411Y-4.082
X5.8423Y-2.2297
X5.9411Y-3.8635
X5.9411Y-4.082
X6.3553Y-2.3574
X6.4537Y-2.3574
X6.5521Y-2.3574
T5
X4.9883Y-5.0131
X4.9883Y-5.1131
X5.195Y-5.0131
X5.195Y-5.3131
X5.323Y-5.0139
X5.323Y-5.3139
X6.2876Y-5.0131
X6.2876Y-5.3131
T7
X4.9785Y-4.2061
X4.9785Y-4.845
X5.2285Y-4.2061
X5.2285Y-4.845
X5.4785Y-4.2061
X5.4785Y-4.845
X6.0927Y-4.2072
X6.0927Y-4.8462
X6.3427Y-4.2072
X6.3427Y-4.8462
X6.5927Y-4.2072
X6.5927Y-4.8462
T4
G00X5.6183Y-5.1244
M15
G01X5.575Y-5.1244
M16
G05
G00X5.6183Y-5.3094
M15
G01X5.575Y-5.3094
M16
G05
G00X5.6183Y-5.4944
M15
G01X5.575Y-5.4944
M16
G05
G00X5.8269Y-5.1244
M15
G01X5.7836Y-5.1244
M16
G05
G00X5.8269Y-5.3104
M15
G01X5.7836Y-5.3104
M16
G05
G00X5.8269Y-5.4944
M15
G01X5.7836Y-5.4944
M16
G05
G00X6.0356Y-5.1244
M15
G01X5.9923Y-5.1244
M16
G05
G00X6.0356Y-5.3094
M15
G01X5.9923Y-5.3094
M16
G05
G00X6.0356Y-5.4944
M15
G01X5.9923Y-5.4944
M16
G05
T6
G00X4.9608Y-2.0708
M15
G01X4.9608Y-2.0433
M16
G05
G00X5.3387Y-2.0708
M15
G01X5.3387Y-2.0433
M16
G05
G00X6.2647Y-2.0759
M15
G01X6.2647Y-2.0484
M16
G05
G00X6.6427Y-2.0759
M15
G01X6.6427Y-2.0484
M16
G05
T0
M30
