%TF.GenerationSoftware,KiCad,Pcbnew,7.0.2-6a45011f42~172~ubuntu22.04.1*%
%TF.CreationDate,2023-05-16T10:12:08+01:00*%
%TF.ProjectId,little-angel-chorus,6c697474-6c65-42d6-916e-67656c2d6368,rev?*%
%TF.SameCoordinates,Original*%
%TF.FileFunction,Legend,Top*%
%TF.FilePolarity,Positive*%
%FSLAX46Y46*%
G04 Gerber Fmt 4.6, Leading zero omitted, Abs format (unit mm)*
G04 Created by KiCad (PCBNEW 7.0.2-6a45011f42~172~ubuntu22.04.1) date 2023-05-16 10:12:08*
%MOMM*%
%LPD*%
G01*
G04 APERTURE LIST*
G04 Aperture macros list*
%AMRoundRect*
0 Rectangle with rounded corners*
0 $1 Rounding radius*
0 $2 $3 $4 $5 $6 $7 $8 $9 X,Y pos of 4 corners*
0 Add a 4 corners polygon primitive as box body*
4,1,4,$2,$3,$4,$5,$6,$7,$8,$9,$2,$3,0*
0 Add four circle primitives for the rounded corners*
1,1,$1+$1,$2,$3*
1,1,$1+$1,$4,$5*
1,1,$1+$1,$6,$7*
1,1,$1+$1,$8,$9*
0 Add four rect primitives between the rounded corners*
20,1,$1+$1,$2,$3,$4,$5,0*
20,1,$1+$1,$4,$5,$6,$7,0*
20,1,$1+$1,$6,$7,$8,$9,0*
20,1,$1+$1,$8,$9,$2,$3,0*%
G04 Aperture macros list end*
%ADD10C,0.150000*%
%ADD11C,0.120000*%
%ADD12C,1.998980*%
%ADD13R,1.300000X1.300000*%
%ADD14C,1.300000*%
%ADD15R,2.600000X1.500000*%
%ADD16O,2.600000X1.500000*%
%ADD17R,2.000000X1.900000*%
%ADD18C,1.900000*%
%ADD19C,1.800000*%
%ADD20O,1.800000X1.800000*%
%ADD21RoundRect,0.200000X0.800000X0.800000X-0.800000X0.800000X-0.800000X-0.800000X0.800000X-0.800000X0*%
%ADD22C,2.000000*%
%ADD23C,3.400000*%
%ADD24RoundRect,0.200000X-0.850000X0.850000X-0.850000X-0.850000X0.850000X-0.850000X0.850000X0.850000X0*%
%ADD25O,2.100000X2.100000*%
%ADD26RoundRect,0.200000X-0.800000X0.800000X-0.800000X-0.800000X0.800000X-0.800000X0.800000X0.800000X0*%
%ADD27C,2.398980*%
%ADD28RoundRect,0.200000X-0.650000X-0.650000X0.650000X-0.650000X0.650000X0.650000X-0.650000X0.650000X0*%
%ADD29C,1.700000*%
%ADD30RoundRect,0.200000X0.800000X-0.800000X0.800000X0.800000X-0.800000X0.800000X-0.800000X-0.800000X0*%
%ADD31O,2.000000X2.000000*%
%ADD32RoundRect,0.200000X-0.800000X-0.800000X0.800000X-0.800000X0.800000X0.800000X-0.800000X0.800000X0*%
%ADD33O,3.120000X3.640000*%
%ADD34RoundRect,0.200000X0.900000X0.900000X-0.900000X0.900000X-0.900000X-0.900000X0.900000X-0.900000X0*%
%ADD35C,2.200000*%
%ADD36RoundRect,0.200000X1.300000X0.750000X-1.300000X0.750000X-1.300000X-0.750000X1.300000X-0.750000X0*%
%ADD37O,3.000000X1.900000*%
%ADD38RoundRect,0.200000X0.850000X-0.850000X0.850000X0.850000X-0.850000X0.850000X-0.850000X-0.850000X0*%
%ADD39RoundRect,0.200000X0.525000X0.750000X-0.525000X0.750000X-0.525000X-0.750000X0.525000X-0.750000X0*%
%ADD40O,1.450000X1.900000*%
%ADD41RoundRect,0.200000X1.000000X0.950000X-1.000000X0.950000X-1.000000X-0.950000X1.000000X-0.950000X0*%
%ADD42C,2.300000*%
G04 APERTURE END LIST*
D10*
G36*
X121032800Y-87162141D02*
G01*
X120951515Y-87162141D01*
X120894472Y-87133619D01*
X120865952Y-87076579D01*
X120865952Y-86921514D01*
X120894473Y-86864471D01*
X120951513Y-86835951D01*
X120967562Y-86835951D01*
X121032800Y-87162141D01*
G37*
G36*
X121096904Y-85514036D02*
G01*
X120694789Y-85379997D01*
X121096904Y-85245960D01*
X121096904Y-85514036D01*
G37*
G36*
X121382619Y-83492940D02*
G01*
X121382619Y-83648006D01*
X121348360Y-83716523D01*
X121317951Y-83746931D01*
X121249437Y-83781188D01*
X120999134Y-83781188D01*
X120930616Y-83746929D01*
X120900209Y-83716522D01*
X120865952Y-83648007D01*
X120865952Y-83492941D01*
X120884924Y-83454998D01*
X121363647Y-83454998D01*
X121382619Y-83492940D01*
G37*
G36*
X121032800Y-82876426D02*
G01*
X120951515Y-82876426D01*
X120894472Y-82847904D01*
X120865952Y-82790864D01*
X120865952Y-82635799D01*
X120894473Y-82578756D01*
X120951513Y-82550236D01*
X120967562Y-82550236D01*
X121032800Y-82876426D01*
G37*
G36*
X121317954Y-78489256D02*
G01*
X121348360Y-78519660D01*
X121382619Y-78588177D01*
X121382619Y-78695624D01*
X121348360Y-78764141D01*
X121317951Y-78794549D01*
X121249437Y-78828806D01*
X120999134Y-78828806D01*
X120930616Y-78794547D01*
X120900209Y-78764140D01*
X120865952Y-78695625D01*
X120865952Y-78588178D01*
X120900211Y-78519660D01*
X120930616Y-78489255D01*
X120999132Y-78454997D01*
X121249436Y-78454997D01*
X121317954Y-78489256D01*
G37*
G36*
X121947857Y-90747857D02*
G01*
X119837143Y-90747857D01*
X119837143Y-90153028D01*
X120380249Y-90153028D01*
X120398545Y-90193092D01*
X120435597Y-90216904D01*
X121452259Y-90216904D01*
X121468743Y-90219274D01*
X121483895Y-90212354D01*
X121499879Y-90207661D01*
X121503615Y-90203348D01*
X121508807Y-90200978D01*
X121517814Y-90186961D01*
X121528721Y-90174375D01*
X121529532Y-90168728D01*
X121532619Y-90163926D01*
X121532619Y-90147263D01*
X121534989Y-90130780D01*
X121532619Y-90125590D01*
X121532619Y-89654932D01*
X121523376Y-89623454D01*
X121490090Y-89594612D01*
X121446495Y-89588344D01*
X121406431Y-89606640D01*
X121382619Y-89643692D01*
X121382619Y-90066904D01*
X120446837Y-90066904D01*
X120415359Y-90076147D01*
X120386517Y-90109433D01*
X120380249Y-90153028D01*
X119837143Y-90153028D01*
X119837143Y-89326804D01*
X120379652Y-89326804D01*
X120381457Y-89335101D01*
X120380249Y-89343504D01*
X120383776Y-89351227D01*
X120384382Y-89359696D01*
X120387800Y-89364262D01*
X120389014Y-89369841D01*
X120395018Y-89375845D01*
X120398545Y-89383568D01*
X120405688Y-89388158D01*
X120410776Y-89394955D01*
X120416121Y-89396948D01*
X120448415Y-89429242D01*
X120458395Y-89442574D01*
X120474004Y-89448396D01*
X120488623Y-89456378D01*
X120494313Y-89455971D01*
X120499662Y-89457966D01*
X120515945Y-89454423D01*
X120532554Y-89453236D01*
X120537120Y-89449817D01*
X120542699Y-89448604D01*
X120554482Y-89436820D01*
X120567812Y-89426842D01*
X120569805Y-89421497D01*
X120592354Y-89398948D01*
X120595117Y-89398137D01*
X120604259Y-89387586D01*
X120615431Y-89379223D01*
X120618397Y-89371268D01*
X120623959Y-89364851D01*
X120625167Y-89356446D01*
X120629236Y-89348995D01*
X120628842Y-89343504D01*
X120713582Y-89343504D01*
X120731878Y-89383568D01*
X120768930Y-89407380D01*
X121468401Y-89407380D01*
X121499879Y-89398137D01*
X121528721Y-89364851D01*
X121534989Y-89321256D01*
X121516693Y-89281192D01*
X121479641Y-89257380D01*
X120780170Y-89257380D01*
X120748692Y-89266623D01*
X120719850Y-89299909D01*
X120713582Y-89343504D01*
X120628842Y-89343504D01*
X120628828Y-89343304D01*
X120630824Y-89337956D01*
X120629018Y-89329658D01*
X120630227Y-89321256D01*
X120626699Y-89313531D01*
X120626094Y-89305064D01*
X120622675Y-89300497D01*
X120621462Y-89294919D01*
X120615457Y-89288914D01*
X120611931Y-89281192D01*
X120604786Y-89276600D01*
X120599700Y-89269806D01*
X120594355Y-89267812D01*
X120562059Y-89235516D01*
X120552081Y-89222187D01*
X120536477Y-89216366D01*
X120521853Y-89208381D01*
X120516160Y-89208788D01*
X120510814Y-89206794D01*
X120494533Y-89210335D01*
X120477922Y-89211524D01*
X120473355Y-89214942D01*
X120467777Y-89216156D01*
X120455994Y-89227938D01*
X120442663Y-89237918D01*
X120440669Y-89243263D01*
X120418121Y-89265811D01*
X120415359Y-89266623D01*
X120406218Y-89277172D01*
X120395044Y-89285537D01*
X120392076Y-89293492D01*
X120386517Y-89299909D01*
X120385308Y-89308311D01*
X120381239Y-89315765D01*
X120381646Y-89321457D01*
X120379652Y-89326804D01*
X119837143Y-89326804D01*
X119837143Y-88867314D01*
X120380249Y-88867314D01*
X120398545Y-88907378D01*
X120435597Y-88931190D01*
X120715952Y-88931190D01*
X120715952Y-89009829D01*
X120725195Y-89041307D01*
X120758481Y-89070149D01*
X120802076Y-89076417D01*
X120842140Y-89058121D01*
X120865952Y-89021069D01*
X120865952Y-88931190D01*
X121310720Y-88931190D01*
X121328605Y-88933121D01*
X121342318Y-88926264D01*
X121357021Y-88921947D01*
X121361659Y-88916593D01*
X121426451Y-88884197D01*
X121429365Y-88884300D01*
X121445969Y-88874438D01*
X121453184Y-88870831D01*
X121455198Y-88868956D01*
X121467234Y-88861809D01*
X121471016Y-88854244D01*
X121477206Y-88848487D01*
X121480671Y-88834933D01*
X121522897Y-88750481D01*
X121532619Y-88735355D01*
X121532619Y-88720025D01*
X121535333Y-88704942D01*
X121532619Y-88698398D01*
X121532619Y-88607313D01*
X121523376Y-88575835D01*
X121490090Y-88546993D01*
X121446495Y-88540725D01*
X121406431Y-88559021D01*
X121382619Y-88596073D01*
X121382619Y-88695627D01*
X121354098Y-88752668D01*
X121297057Y-88781190D01*
X120865952Y-88781190D01*
X120865952Y-88607313D01*
X120856709Y-88575835D01*
X120823423Y-88546993D01*
X120779828Y-88540725D01*
X120739764Y-88559021D01*
X120715952Y-88596073D01*
X120715952Y-88781190D01*
X120446837Y-88781190D01*
X120415359Y-88790433D01*
X120386517Y-88823719D01*
X120380249Y-88867314D01*
X119837143Y-88867314D01*
X119837143Y-88295885D01*
X120380249Y-88295885D01*
X120398545Y-88335949D01*
X120435597Y-88359761D01*
X120715952Y-88359761D01*
X120715952Y-88438400D01*
X120725195Y-88469878D01*
X120758481Y-88498720D01*
X120802076Y-88504988D01*
X120842140Y-88486692D01*
X120865952Y-88449640D01*
X120865952Y-88359761D01*
X121310720Y-88359761D01*
X121328605Y-88361692D01*
X121342318Y-88354835D01*
X121357021Y-88350518D01*
X121361659Y-88345164D01*
X121426451Y-88312768D01*
X121429365Y-88312871D01*
X121445969Y-88303009D01*
X121453184Y-88299402D01*
X121455198Y-88297527D01*
X121467234Y-88290380D01*
X121471016Y-88282815D01*
X121477206Y-88277058D01*
X121480671Y-88263504D01*
X121522897Y-88179052D01*
X121532619Y-88163926D01*
X121532619Y-88148596D01*
X121535333Y-88133513D01*
X121532619Y-88126969D01*
X121532619Y-88035884D01*
X121523376Y-88004406D01*
X121490090Y-87975564D01*
X121446495Y-87969296D01*
X121406431Y-87987592D01*
X121382619Y-88024644D01*
X121382619Y-88124198D01*
X121354098Y-88181239D01*
X121297057Y-88209761D01*
X120865952Y-88209761D01*
X120865952Y-88035884D01*
X120856709Y-88004406D01*
X120823423Y-87975564D01*
X120779828Y-87969296D01*
X120739764Y-87987592D01*
X120715952Y-88024644D01*
X120715952Y-88209761D01*
X120446837Y-88209761D01*
X120415359Y-88219004D01*
X120386517Y-88252290D01*
X120380249Y-88295885D01*
X119837143Y-88295885D01*
X119837143Y-87724456D01*
X120380249Y-87724456D01*
X120398545Y-87764520D01*
X120435597Y-87788332D01*
X121310720Y-87788332D01*
X121328605Y-87790263D01*
X121342318Y-87783406D01*
X121357021Y-87779089D01*
X121361659Y-87773735D01*
X121426451Y-87741339D01*
X121429365Y-87741442D01*
X121445969Y-87731580D01*
X121453184Y-87727973D01*
X121455198Y-87726098D01*
X121467234Y-87718951D01*
X121471016Y-87711386D01*
X121477206Y-87705629D01*
X121480671Y-87692075D01*
X121529523Y-87594373D01*
X121535333Y-87562084D01*
X121518460Y-87521401D01*
X121482270Y-87496299D01*
X121438254Y-87494746D01*
X121400385Y-87517237D01*
X121354098Y-87609810D01*
X121297057Y-87638332D01*
X120446837Y-87638332D01*
X120415359Y-87647575D01*
X120386517Y-87680861D01*
X120380249Y-87724456D01*
X119837143Y-87724456D01*
X119837143Y-86912199D01*
X120713238Y-86912199D01*
X120715952Y-86918742D01*
X120715952Y-87090243D01*
X120714021Y-87108128D01*
X120720877Y-87121841D01*
X120725195Y-87136544D01*
X120730548Y-87141182D01*
X120762944Y-87205973D01*
X120762842Y-87208887D01*
X120772703Y-87225491D01*
X120776311Y-87232706D01*
X120778185Y-87234720D01*
X120785333Y-87246756D01*
X120792897Y-87250538D01*
X120798655Y-87256728D01*
X120812208Y-87260193D01*
X120896660Y-87302419D01*
X120911787Y-87312141D01*
X120927117Y-87312141D01*
X120942200Y-87314855D01*
X120948744Y-87312141D01*
X121104472Y-87312141D01*
X121106389Y-87313230D01*
X121126319Y-87312141D01*
X121310720Y-87312141D01*
X121328605Y-87314072D01*
X121342318Y-87307215D01*
X121357021Y-87302898D01*
X121361659Y-87297544D01*
X121426451Y-87265148D01*
X121429365Y-87265251D01*
X121445969Y-87255389D01*
X121453184Y-87251782D01*
X121455198Y-87249907D01*
X121467234Y-87242760D01*
X121471016Y-87235195D01*
X121477206Y-87229438D01*
X121480671Y-87215884D01*
X121522897Y-87131432D01*
X121532619Y-87116306D01*
X121532619Y-87100976D01*
X121535333Y-87085893D01*
X121532619Y-87079349D01*
X121532619Y-86907838D01*
X121534549Y-86889964D01*
X121527694Y-86876254D01*
X121523376Y-86861548D01*
X121518021Y-86856908D01*
X121472260Y-86765385D01*
X121449916Y-86741364D01*
X121407245Y-86730453D01*
X121365449Y-86744343D01*
X121337797Y-86778625D01*
X121333069Y-86822414D01*
X121382619Y-86921512D01*
X121382619Y-87076578D01*
X121354098Y-87133619D01*
X121297057Y-87162141D01*
X121185770Y-87162141D01*
X121105116Y-86758872D01*
X121106417Y-86749827D01*
X121100884Y-86737711D01*
X121100476Y-86735670D01*
X121096420Y-86727936D01*
X121088121Y-86709763D01*
X121086263Y-86708569D01*
X121085239Y-86706616D01*
X121067885Y-86696758D01*
X121051069Y-86685951D01*
X121048860Y-86685951D01*
X121046943Y-86684862D01*
X121027013Y-86685951D01*
X120937840Y-86685951D01*
X120919965Y-86684021D01*
X120906255Y-86690875D01*
X120891549Y-86695194D01*
X120886909Y-86700548D01*
X120822118Y-86732943D01*
X120819206Y-86732841D01*
X120802605Y-86742700D01*
X120795386Y-86746310D01*
X120793369Y-86748185D01*
X120781337Y-86755332D01*
X120777554Y-86762896D01*
X120771365Y-86768654D01*
X120767899Y-86782207D01*
X120725675Y-86866656D01*
X120715952Y-86881786D01*
X120715952Y-86897116D01*
X120713238Y-86912199D01*
X119837143Y-86912199D01*
X119837143Y-85371678D01*
X120379897Y-85371678D01*
X120383334Y-85390679D01*
X120385389Y-85409878D01*
X120387218Y-85412149D01*
X120387737Y-85415018D01*
X120400897Y-85429140D01*
X120413010Y-85444185D01*
X120415776Y-85445107D01*
X120417764Y-85447240D01*
X120436475Y-85452006D01*
X121134052Y-85684532D01*
X121139433Y-85689195D01*
X121154567Y-85691370D01*
X121444130Y-85787892D01*
X121476916Y-85789077D01*
X121514804Y-85766620D01*
X121534536Y-85727244D01*
X121529848Y-85683450D01*
X121502228Y-85649144D01*
X121246904Y-85564036D01*
X121246904Y-85195960D01*
X121491564Y-85114407D01*
X121518504Y-85095684D01*
X121535340Y-85054985D01*
X121527500Y-85011645D01*
X121497474Y-84979423D01*
X121454793Y-84968550D01*
X121165016Y-85065142D01*
X121160780Y-85064533D01*
X121144392Y-85072016D01*
X120446769Y-85304557D01*
X120438322Y-85304252D01*
X120426289Y-85311383D01*
X120423673Y-85312256D01*
X120417035Y-85316868D01*
X120400434Y-85326709D01*
X120399128Y-85329314D01*
X120396733Y-85330979D01*
X120389347Y-85348832D01*
X120380702Y-85366085D01*
X120381012Y-85368982D01*
X120379897Y-85371678D01*
X119837143Y-85371678D01*
X119837143Y-84436008D01*
X120713238Y-84436008D01*
X120715952Y-84442551D01*
X120715952Y-84566433D01*
X120714021Y-84584318D01*
X120720877Y-84598031D01*
X120725195Y-84612734D01*
X120730548Y-84617372D01*
X120746762Y-84649800D01*
X120719850Y-84680860D01*
X120713582Y-84724455D01*
X120731878Y-84764519D01*
X120768930Y-84788331D01*
X120867049Y-84788331D01*
X120869575Y-84789710D01*
X120888856Y-84788331D01*
X121468401Y-84788331D01*
X121499879Y-84779088D01*
X121528721Y-84745802D01*
X121534989Y-84702207D01*
X121516693Y-84662143D01*
X121479641Y-84638331D01*
X120917256Y-84638331D01*
X120900209Y-84621284D01*
X120865952Y-84552769D01*
X120865952Y-84445323D01*
X120894473Y-84388280D01*
X120951513Y-84359760D01*
X121468401Y-84359760D01*
X121499879Y-84350517D01*
X121528721Y-84317231D01*
X121534989Y-84273636D01*
X121516693Y-84233572D01*
X121479641Y-84209760D01*
X120937840Y-84209760D01*
X120919965Y-84207830D01*
X120906255Y-84214684D01*
X120891549Y-84219003D01*
X120886909Y-84224357D01*
X120822118Y-84256752D01*
X120819206Y-84256650D01*
X120802605Y-84266509D01*
X120795386Y-84270119D01*
X120793369Y-84271994D01*
X120781337Y-84279141D01*
X120777554Y-84286705D01*
X120771365Y-84292463D01*
X120767899Y-84306016D01*
X120725675Y-84390465D01*
X120715952Y-84405595D01*
X120715952Y-84420925D01*
X120713238Y-84436008D01*
X119837143Y-84436008D01*
X119837143Y-83483627D01*
X120713238Y-83483627D01*
X120715952Y-83490170D01*
X120715952Y-83661671D01*
X120714021Y-83679556D01*
X120720877Y-83693269D01*
X120725195Y-83707972D01*
X120730548Y-83712610D01*
X120767283Y-83786079D01*
X120769966Y-83798411D01*
X120784593Y-83813038D01*
X120798655Y-83828156D01*
X120800073Y-83828518D01*
X120826508Y-83854953D01*
X120832952Y-83865803D01*
X120851461Y-83875057D01*
X120869575Y-83884948D01*
X120871033Y-83884843D01*
X120944279Y-83921466D01*
X120959406Y-83931188D01*
X120974736Y-83931188D01*
X120989819Y-83933902D01*
X120996363Y-83931188D01*
X121263102Y-83931188D01*
X121280986Y-83933119D01*
X121294699Y-83926262D01*
X121309402Y-83921945D01*
X121314040Y-83916591D01*
X121387509Y-83879856D01*
X121399840Y-83877174D01*
X121414460Y-83862554D01*
X121429586Y-83848485D01*
X121429948Y-83847066D01*
X121456383Y-83820632D01*
X121467234Y-83814188D01*
X121476489Y-83795676D01*
X121486379Y-83777566D01*
X121486274Y-83776106D01*
X121522897Y-83702860D01*
X121532619Y-83687734D01*
X121532619Y-83672404D01*
X121535333Y-83657321D01*
X121532619Y-83650777D01*
X121532619Y-83479266D01*
X121534549Y-83461392D01*
X121531352Y-83454998D01*
X121582770Y-83454998D01*
X121651287Y-83489257D01*
X121681693Y-83519662D01*
X121715951Y-83588178D01*
X121715952Y-83695625D01*
X121671429Y-83784672D01*
X121665619Y-83816960D01*
X121682492Y-83857643D01*
X121718682Y-83882746D01*
X121762698Y-83884298D01*
X121800567Y-83861807D01*
X121856230Y-83750479D01*
X121865952Y-83735353D01*
X121865952Y-83720023D01*
X121868666Y-83704940D01*
X121865952Y-83698396D01*
X121865952Y-83574504D01*
X121867882Y-83556630D01*
X121861027Y-83542920D01*
X121856709Y-83528214D01*
X121851354Y-83523574D01*
X121814620Y-83450105D01*
X121811938Y-83437775D01*
X121797318Y-83423155D01*
X121783249Y-83408030D01*
X121781830Y-83407667D01*
X121755395Y-83381232D01*
X121748952Y-83370383D01*
X121730451Y-83361132D01*
X121712329Y-83351237D01*
X121710868Y-83351341D01*
X121637627Y-83314721D01*
X121622498Y-83304998D01*
X121607168Y-83304998D01*
X121592085Y-83302284D01*
X121585541Y-83304998D01*
X121419435Y-83304998D01*
X121407245Y-83301881D01*
X121397866Y-83304998D01*
X120839868Y-83304998D01*
X120819206Y-83304269D01*
X120817979Y-83304998D01*
X120780170Y-83304998D01*
X120748692Y-83314241D01*
X120719850Y-83347527D01*
X120713582Y-83391122D01*
X120730563Y-83428307D01*
X120725675Y-83438084D01*
X120715952Y-83453214D01*
X120715952Y-83468544D01*
X120713238Y-83483627D01*
X119837143Y-83483627D01*
X119837143Y-82626484D01*
X120713238Y-82626484D01*
X120715952Y-82633027D01*
X120715952Y-82804528D01*
X120714021Y-82822413D01*
X120720877Y-82836126D01*
X120725195Y-82850829D01*
X120730548Y-82855467D01*
X120762944Y-82920258D01*
X120762842Y-82923172D01*
X120772703Y-82939776D01*
X120776311Y-82946991D01*
X120778185Y-82949005D01*
X120785333Y-82961041D01*
X120792897Y-82964823D01*
X120798655Y-82971013D01*
X120812208Y-82974478D01*
X120896660Y-83016704D01*
X120911787Y-83026426D01*
X120927117Y-83026426D01*
X120942200Y-83029140D01*
X120948744Y-83026426D01*
X121104472Y-83026426D01*
X121106389Y-83027515D01*
X121126319Y-83026426D01*
X121310720Y-83026426D01*
X121328605Y-83028357D01*
X121342318Y-83021500D01*
X121357021Y-83017183D01*
X121361659Y-83011829D01*
X121426451Y-82979433D01*
X121429365Y-82979536D01*
X121445969Y-82969674D01*
X121453184Y-82966067D01*
X121455198Y-82964192D01*
X121467234Y-82957045D01*
X121471016Y-82949480D01*
X121477206Y-82943723D01*
X121480671Y-82930169D01*
X121522897Y-82845717D01*
X121532619Y-82830591D01*
X121532619Y-82815261D01*
X121535333Y-82800178D01*
X121532619Y-82793634D01*
X121532619Y-82622123D01*
X121534549Y-82604249D01*
X121527694Y-82590539D01*
X121523376Y-82575833D01*
X121518021Y-82571193D01*
X121472260Y-82479670D01*
X121449916Y-82455649D01*
X121407245Y-82444738D01*
X121365449Y-82458628D01*
X121337797Y-82492910D01*
X121333069Y-82536699D01*
X121382619Y-82635797D01*
X121382619Y-82790863D01*
X121354098Y-82847904D01*
X121297057Y-82876426D01*
X121185770Y-82876426D01*
X121105116Y-82473157D01*
X121106417Y-82464112D01*
X121100884Y-82451996D01*
X121100476Y-82449955D01*
X121096420Y-82442221D01*
X121088121Y-82424048D01*
X121086263Y-82422854D01*
X121085239Y-82420901D01*
X121067885Y-82411043D01*
X121051069Y-82400236D01*
X121048860Y-82400236D01*
X121046943Y-82399147D01*
X121027013Y-82400236D01*
X120937840Y-82400236D01*
X120919965Y-82398306D01*
X120906255Y-82405160D01*
X120891549Y-82409479D01*
X120886909Y-82414833D01*
X120822118Y-82447228D01*
X120819206Y-82447126D01*
X120802605Y-82456985D01*
X120795386Y-82460595D01*
X120793369Y-82462470D01*
X120781337Y-82469617D01*
X120777554Y-82477181D01*
X120771365Y-82482939D01*
X120767899Y-82496492D01*
X120725675Y-82580941D01*
X120715952Y-82596071D01*
X120715952Y-82611401D01*
X120713238Y-82626484D01*
X119837143Y-82626484D01*
X119837143Y-82057788D01*
X120380249Y-82057788D01*
X120398545Y-82097852D01*
X120435597Y-82121664D01*
X121310720Y-82121664D01*
X121328605Y-82123595D01*
X121342318Y-82116738D01*
X121357021Y-82112421D01*
X121361659Y-82107067D01*
X121426451Y-82074671D01*
X121429365Y-82074774D01*
X121445969Y-82064912D01*
X121453184Y-82061305D01*
X121455198Y-82059430D01*
X121467234Y-82052283D01*
X121471016Y-82044718D01*
X121477206Y-82038961D01*
X121480671Y-82025407D01*
X121529523Y-81927705D01*
X121535333Y-81895416D01*
X121518460Y-81854733D01*
X121482270Y-81829631D01*
X121438254Y-81828078D01*
X121400385Y-81850569D01*
X121354098Y-81943142D01*
X121297057Y-81971664D01*
X120446837Y-81971664D01*
X120415359Y-81980907D01*
X120386517Y-82014193D01*
X120380249Y-82057788D01*
X119837143Y-82057788D01*
X119837143Y-80478060D01*
X120379504Y-80478060D01*
X120386041Y-80497672D01*
X120391862Y-80517495D01*
X120392968Y-80518453D01*
X120432810Y-80637979D01*
X120436633Y-80655553D01*
X120447473Y-80666393D01*
X120456219Y-80678977D01*
X120462764Y-80681684D01*
X120540794Y-80759714D01*
X120547238Y-80770564D01*
X120565739Y-80779814D01*
X120583861Y-80789710D01*
X120585321Y-80789605D01*
X120650224Y-80822057D01*
X120656159Y-80828369D01*
X120669536Y-80831713D01*
X120671816Y-80832853D01*
X120679948Y-80834316D01*
X120856026Y-80878335D01*
X120864168Y-80883568D01*
X120876956Y-80883568D01*
X120878460Y-80883944D01*
X120887706Y-80883568D01*
X121016704Y-80883568D01*
X121025873Y-80886670D01*
X121038281Y-80883568D01*
X121039829Y-80883568D01*
X121048698Y-80880963D01*
X121224753Y-80836949D01*
X121233367Y-80837880D01*
X121245700Y-80831713D01*
X121248173Y-80831095D01*
X121255300Y-80826912D01*
X121339890Y-80784617D01*
X121352222Y-80781935D01*
X121366851Y-80767305D01*
X121381967Y-80753246D01*
X121382329Y-80751827D01*
X121460178Y-80673979D01*
X121474187Y-80662701D01*
X121479034Y-80648159D01*
X121486380Y-80634707D01*
X121485874Y-80627638D01*
X121525797Y-80507871D01*
X121532619Y-80497257D01*
X121532619Y-80476577D01*
X121533365Y-80455938D01*
X121532618Y-80454679D01*
X121532619Y-80389398D01*
X121535734Y-80377171D01*
X121529194Y-80357551D01*
X121523376Y-80337737D01*
X121522269Y-80336778D01*
X121482426Y-80217246D01*
X121478604Y-80199678D01*
X121467766Y-80188840D01*
X121459019Y-80176254D01*
X121452470Y-80173545D01*
X121407788Y-80128863D01*
X121378994Y-80113141D01*
X121335063Y-80116284D01*
X121299805Y-80142679D01*
X121284413Y-80183946D01*
X121293775Y-80226983D01*
X121344447Y-80277653D01*
X121382619Y-80392167D01*
X121382619Y-80463064D01*
X121344447Y-80577579D01*
X121270333Y-80651691D01*
X121193347Y-80690184D01*
X121019813Y-80733568D01*
X120895424Y-80733568D01*
X120721891Y-80690184D01*
X120644902Y-80651690D01*
X120570790Y-80577578D01*
X120532619Y-80463063D01*
X120532618Y-80392167D01*
X120570790Y-80277653D01*
X120613514Y-80234930D01*
X120629236Y-80206136D01*
X120626094Y-80162205D01*
X120599700Y-80126947D01*
X120558433Y-80111554D01*
X120515396Y-80120916D01*
X120455058Y-80181253D01*
X120441051Y-80192531D01*
X120436203Y-80207072D01*
X120428858Y-80220525D01*
X120429363Y-80227592D01*
X120389441Y-80347359D01*
X120382619Y-80357975D01*
X120382619Y-80378654D01*
X120381873Y-80399294D01*
X120382619Y-80400552D01*
X120382619Y-80465832D01*
X120379504Y-80478060D01*
X119837143Y-80478060D01*
X119837143Y-79772073D01*
X120380249Y-79772073D01*
X120398545Y-79812137D01*
X120435597Y-79835949D01*
X120867049Y-79835949D01*
X120869575Y-79837328D01*
X120888856Y-79835949D01*
X121468401Y-79835949D01*
X121499879Y-79826706D01*
X121528721Y-79793420D01*
X121534989Y-79749825D01*
X121516693Y-79709761D01*
X121479641Y-79685949D01*
X120917256Y-79685949D01*
X120900209Y-79668902D01*
X120865952Y-79600387D01*
X120865952Y-79492940D01*
X120894473Y-79435898D01*
X120951513Y-79407378D01*
X121468401Y-79407378D01*
X121499879Y-79398135D01*
X121528721Y-79364849D01*
X121534989Y-79321254D01*
X121516693Y-79281190D01*
X121479641Y-79257378D01*
X120937840Y-79257378D01*
X120919965Y-79255448D01*
X120906255Y-79262302D01*
X120891549Y-79266621D01*
X120886909Y-79271975D01*
X120822118Y-79304370D01*
X120819206Y-79304268D01*
X120802605Y-79314127D01*
X120795386Y-79317737D01*
X120793369Y-79319612D01*
X120781337Y-79326759D01*
X120777554Y-79334323D01*
X120771365Y-79340081D01*
X120767899Y-79353634D01*
X120725675Y-79438083D01*
X120715952Y-79453213D01*
X120715952Y-79468543D01*
X120713238Y-79483626D01*
X120715952Y-79490169D01*
X120715952Y-79614051D01*
X120714021Y-79631936D01*
X120720877Y-79645649D01*
X120725195Y-79660352D01*
X120730548Y-79664990D01*
X120741028Y-79685949D01*
X120446837Y-79685949D01*
X120415359Y-79695192D01*
X120386517Y-79728478D01*
X120380249Y-79772073D01*
X119837143Y-79772073D01*
X119837143Y-78578864D01*
X120713238Y-78578864D01*
X120715952Y-78585407D01*
X120715952Y-78709289D01*
X120714021Y-78727174D01*
X120720877Y-78740887D01*
X120725195Y-78755590D01*
X120730548Y-78760228D01*
X120767283Y-78833697D01*
X120769966Y-78846029D01*
X120784593Y-78860656D01*
X120798655Y-78875774D01*
X120800073Y-78876136D01*
X120826508Y-78902571D01*
X120832952Y-78913421D01*
X120851461Y-78922675D01*
X120869575Y-78932566D01*
X120871033Y-78932461D01*
X120944279Y-78969084D01*
X120959406Y-78978806D01*
X120974736Y-78978806D01*
X120989819Y-78981520D01*
X120996363Y-78978806D01*
X121263102Y-78978806D01*
X121280986Y-78980737D01*
X121294699Y-78973880D01*
X121309402Y-78969563D01*
X121314040Y-78964209D01*
X121387509Y-78927474D01*
X121399840Y-78924792D01*
X121414460Y-78910172D01*
X121429586Y-78896103D01*
X121429948Y-78894684D01*
X121456383Y-78868250D01*
X121467234Y-78861806D01*
X121476489Y-78843294D01*
X121486379Y-78825184D01*
X121486274Y-78823724D01*
X121522897Y-78750478D01*
X121532619Y-78735352D01*
X121532619Y-78720022D01*
X121535333Y-78704939D01*
X121532619Y-78698395D01*
X121532618Y-78574503D01*
X121534549Y-78556629D01*
X121527694Y-78542919D01*
X121523376Y-78528213D01*
X121518021Y-78523573D01*
X121481286Y-78450103D01*
X121478604Y-78437773D01*
X121463988Y-78423157D01*
X121449916Y-78408029D01*
X121448496Y-78407666D01*
X121422061Y-78381231D01*
X121415618Y-78370382D01*
X121397119Y-78361132D01*
X121378994Y-78351236D01*
X121377534Y-78351340D01*
X121304293Y-78314720D01*
X121289164Y-78304997D01*
X121273834Y-78304997D01*
X121258751Y-78302283D01*
X121252207Y-78304997D01*
X120985459Y-78304997D01*
X120967584Y-78303067D01*
X120953874Y-78309921D01*
X120939168Y-78314240D01*
X120934528Y-78319594D01*
X120861059Y-78356328D01*
X120848729Y-78359011D01*
X120834109Y-78373630D01*
X120818984Y-78387700D01*
X120818621Y-78389118D01*
X120792186Y-78415553D01*
X120781337Y-78421997D01*
X120772086Y-78440497D01*
X120762191Y-78458620D01*
X120762295Y-78460080D01*
X120725675Y-78533321D01*
X120715952Y-78548451D01*
X120715952Y-78563781D01*
X120713238Y-78578864D01*
X119837143Y-78578864D01*
X119837143Y-77962549D01*
X120713582Y-77962549D01*
X120731878Y-78002613D01*
X120768930Y-78026425D01*
X120974736Y-78026425D01*
X120989819Y-78029139D01*
X120996363Y-78026425D01*
X121468401Y-78026425D01*
X121499879Y-78017182D01*
X121528721Y-77983896D01*
X121534989Y-77940301D01*
X121516693Y-77900237D01*
X121479641Y-77876425D01*
X120999134Y-77876425D01*
X120930616Y-77842166D01*
X120900209Y-77811759D01*
X120865951Y-77743244D01*
X120865952Y-77654929D01*
X120856709Y-77623451D01*
X120823423Y-77594609D01*
X120779828Y-77588341D01*
X120739764Y-77606637D01*
X120715952Y-77643689D01*
X120715952Y-77756908D01*
X120714021Y-77774793D01*
X120720877Y-77788506D01*
X120725195Y-77803209D01*
X120730548Y-77807847D01*
X120766800Y-77880350D01*
X120748692Y-77885668D01*
X120719850Y-77918954D01*
X120713582Y-77962549D01*
X119837143Y-77962549D01*
X119837143Y-77343501D01*
X120713582Y-77343501D01*
X120731878Y-77383565D01*
X120768930Y-77407377D01*
X121310720Y-77407377D01*
X121328605Y-77409308D01*
X121342318Y-77402451D01*
X121357021Y-77398134D01*
X121361659Y-77392780D01*
X121426451Y-77360384D01*
X121429365Y-77360487D01*
X121445969Y-77350625D01*
X121453184Y-77347018D01*
X121455198Y-77345143D01*
X121467234Y-77337996D01*
X121471016Y-77330431D01*
X121477206Y-77324674D01*
X121480671Y-77311120D01*
X121522897Y-77226668D01*
X121532619Y-77211542D01*
X121532619Y-77196212D01*
X121535333Y-77181129D01*
X121532619Y-77174585D01*
X121532618Y-77050693D01*
X121534549Y-77032819D01*
X121527694Y-77019109D01*
X121523376Y-77004403D01*
X121518021Y-76999763D01*
X121501808Y-76967336D01*
X121528721Y-76936277D01*
X121534989Y-76892682D01*
X121516693Y-76852618D01*
X121479641Y-76828806D01*
X121381521Y-76828806D01*
X121378994Y-76827426D01*
X121359705Y-76828806D01*
X120780170Y-76828806D01*
X120748692Y-76838049D01*
X120719850Y-76871335D01*
X120713582Y-76914930D01*
X120731878Y-76954994D01*
X120768930Y-76978806D01*
X121331315Y-76978806D01*
X121348360Y-76995850D01*
X121382619Y-77064367D01*
X121382619Y-77171814D01*
X121354098Y-77228855D01*
X121297057Y-77257377D01*
X120780170Y-77257377D01*
X120748692Y-77266620D01*
X120719850Y-77299906D01*
X120713582Y-77343501D01*
X119837143Y-77343501D01*
X119837143Y-76197911D01*
X120713238Y-76197911D01*
X120715952Y-76204454D01*
X120715952Y-76328336D01*
X120714021Y-76346221D01*
X120720877Y-76359934D01*
X120725195Y-76374637D01*
X120730548Y-76379275D01*
X120762944Y-76444066D01*
X120762842Y-76446980D01*
X120772703Y-76463584D01*
X120776311Y-76470799D01*
X120778185Y-76472813D01*
X120785333Y-76484849D01*
X120792897Y-76488631D01*
X120798655Y-76494821D01*
X120812208Y-76498286D01*
X120896660Y-76540512D01*
X120911787Y-76550234D01*
X120927117Y-76550234D01*
X120942200Y-76552948D01*
X120948744Y-76550234D01*
X120977388Y-76550234D01*
X120995272Y-76552165D01*
X121008985Y-76545308D01*
X121023688Y-76540991D01*
X121028326Y-76535637D01*
X121093117Y-76503241D01*
X121096031Y-76503344D01*
X121112635Y-76493482D01*
X121119850Y-76489875D01*
X121121864Y-76488000D01*
X121133900Y-76480853D01*
X121137682Y-76473288D01*
X121143872Y-76467531D01*
X121147337Y-76453977D01*
X121189563Y-76369525D01*
X121199285Y-76354399D01*
X121199285Y-76339069D01*
X121201999Y-76323986D01*
X121199285Y-76317442D01*
X121199285Y-76207226D01*
X121227806Y-76150183D01*
X121284846Y-76121663D01*
X121297056Y-76121663D01*
X121354098Y-76150183D01*
X121382619Y-76207224D01*
X121382619Y-76362290D01*
X121338096Y-76451337D01*
X121332286Y-76483625D01*
X121349159Y-76524308D01*
X121385349Y-76549411D01*
X121429365Y-76550963D01*
X121467234Y-76528472D01*
X121522897Y-76417144D01*
X121532619Y-76402018D01*
X121532619Y-76386688D01*
X121535333Y-76371605D01*
X121532619Y-76365061D01*
X121532619Y-76193550D01*
X121534549Y-76175676D01*
X121527694Y-76161966D01*
X121523376Y-76147260D01*
X121518021Y-76142620D01*
X121485626Y-76077829D01*
X121485729Y-76074916D01*
X121475868Y-76058313D01*
X121472260Y-76051097D01*
X121470384Y-76049081D01*
X121463238Y-76037048D01*
X121455673Y-76033265D01*
X121449916Y-76027076D01*
X121436362Y-76023610D01*
X121351912Y-75981385D01*
X121336783Y-75971663D01*
X121321453Y-75971663D01*
X121306370Y-75968949D01*
X121299826Y-75971663D01*
X121271173Y-75971663D01*
X121253298Y-75969733D01*
X121239588Y-75976587D01*
X121224882Y-75980906D01*
X121220242Y-75986260D01*
X121155451Y-76018655D01*
X121152539Y-76018553D01*
X121135938Y-76028412D01*
X121128719Y-76032022D01*
X121126702Y-76033897D01*
X121114670Y-76041044D01*
X121110887Y-76048608D01*
X121104698Y-76054366D01*
X121101232Y-76067919D01*
X121059008Y-76152368D01*
X121049285Y-76167498D01*
X121049285Y-76182828D01*
X121046571Y-76197911D01*
X121049285Y-76204454D01*
X121049285Y-76314671D01*
X121020763Y-76371713D01*
X120963723Y-76400234D01*
X120951515Y-76400234D01*
X120894472Y-76371712D01*
X120865952Y-76314672D01*
X120865952Y-76207226D01*
X120910475Y-76118180D01*
X120916285Y-76085891D01*
X120899412Y-76045208D01*
X120863222Y-76020106D01*
X120819206Y-76018553D01*
X120781337Y-76041044D01*
X120725675Y-76152368D01*
X120715952Y-76167498D01*
X120715952Y-76182828D01*
X120713238Y-76197911D01*
X119837143Y-76197911D01*
X119837143Y-75313330D01*
X121947857Y-75313330D01*
X121947857Y-90747857D01*
G37*
%TO.C,R15*%
X153453330Y-75408807D02*
X153119997Y-74932616D01*
X152881902Y-75408807D02*
X152881902Y-74408807D01*
X152881902Y-74408807D02*
X153262854Y-74408807D01*
X153262854Y-74408807D02*
X153358092Y-74456426D01*
X153358092Y-74456426D02*
X153405711Y-74504045D01*
X153405711Y-74504045D02*
X153453330Y-74599283D01*
X153453330Y-74599283D02*
X153453330Y-74742140D01*
X153453330Y-74742140D02*
X153405711Y-74837378D01*
X153405711Y-74837378D02*
X153358092Y-74884997D01*
X153358092Y-74884997D02*
X153262854Y-74932616D01*
X153262854Y-74932616D02*
X152881902Y-74932616D01*
X154405711Y-75408807D02*
X153834283Y-75408807D01*
X154119997Y-75408807D02*
X154119997Y-74408807D01*
X154119997Y-74408807D02*
X154024759Y-74551664D01*
X154024759Y-74551664D02*
X153929521Y-74646902D01*
X153929521Y-74646902D02*
X153834283Y-74694521D01*
X155310473Y-74408807D02*
X154834283Y-74408807D01*
X154834283Y-74408807D02*
X154786664Y-74884997D01*
X154786664Y-74884997D02*
X154834283Y-74837378D01*
X154834283Y-74837378D02*
X154929521Y-74789759D01*
X154929521Y-74789759D02*
X155167616Y-74789759D01*
X155167616Y-74789759D02*
X155262854Y-74837378D01*
X155262854Y-74837378D02*
X155310473Y-74884997D01*
X155310473Y-74884997D02*
X155358092Y-74980235D01*
X155358092Y-74980235D02*
X155358092Y-75218330D01*
X155358092Y-75218330D02*
X155310473Y-75313568D01*
X155310473Y-75313568D02*
X155262854Y-75361188D01*
X155262854Y-75361188D02*
X155167616Y-75408807D01*
X155167616Y-75408807D02*
X154929521Y-75408807D01*
X154929521Y-75408807D02*
X154834283Y-75361188D01*
X154834283Y-75361188D02*
X154786664Y-75313568D01*
%TO.C,R16*%
X167367142Y-81962619D02*
X167033809Y-81486428D01*
X166795714Y-81962619D02*
X166795714Y-80962619D01*
X166795714Y-80962619D02*
X167176666Y-80962619D01*
X167176666Y-80962619D02*
X167271904Y-81010238D01*
X167271904Y-81010238D02*
X167319523Y-81057857D01*
X167319523Y-81057857D02*
X167367142Y-81153095D01*
X167367142Y-81153095D02*
X167367142Y-81295952D01*
X167367142Y-81295952D02*
X167319523Y-81391190D01*
X167319523Y-81391190D02*
X167271904Y-81438809D01*
X167271904Y-81438809D02*
X167176666Y-81486428D01*
X167176666Y-81486428D02*
X166795714Y-81486428D01*
X168319523Y-81962619D02*
X167748095Y-81962619D01*
X168033809Y-81962619D02*
X168033809Y-80962619D01*
X168033809Y-80962619D02*
X167938571Y-81105476D01*
X167938571Y-81105476D02*
X167843333Y-81200714D01*
X167843333Y-81200714D02*
X167748095Y-81248333D01*
X169176666Y-80962619D02*
X168986190Y-80962619D01*
X168986190Y-80962619D02*
X168890952Y-81010238D01*
X168890952Y-81010238D02*
X168843333Y-81057857D01*
X168843333Y-81057857D02*
X168748095Y-81200714D01*
X168748095Y-81200714D02*
X168700476Y-81391190D01*
X168700476Y-81391190D02*
X168700476Y-81772142D01*
X168700476Y-81772142D02*
X168748095Y-81867380D01*
X168748095Y-81867380D02*
X168795714Y-81915000D01*
X168795714Y-81915000D02*
X168890952Y-81962619D01*
X168890952Y-81962619D02*
X169081428Y-81962619D01*
X169081428Y-81962619D02*
X169176666Y-81915000D01*
X169176666Y-81915000D02*
X169224285Y-81867380D01*
X169224285Y-81867380D02*
X169271904Y-81772142D01*
X169271904Y-81772142D02*
X169271904Y-81534047D01*
X169271904Y-81534047D02*
X169224285Y-81438809D01*
X169224285Y-81438809D02*
X169176666Y-81391190D01*
X169176666Y-81391190D02*
X169081428Y-81343571D01*
X169081428Y-81343571D02*
X168890952Y-81343571D01*
X168890952Y-81343571D02*
X168795714Y-81391190D01*
X168795714Y-81391190D02*
X168748095Y-81438809D01*
X168748095Y-81438809D02*
X168700476Y-81534047D01*
%TO.C,C11*%
X126277380Y-68332857D02*
X126325000Y-68380476D01*
X126325000Y-68380476D02*
X126372619Y-68523333D01*
X126372619Y-68523333D02*
X126372619Y-68618571D01*
X126372619Y-68618571D02*
X126325000Y-68761428D01*
X126325000Y-68761428D02*
X126229761Y-68856666D01*
X126229761Y-68856666D02*
X126134523Y-68904285D01*
X126134523Y-68904285D02*
X125944047Y-68951904D01*
X125944047Y-68951904D02*
X125801190Y-68951904D01*
X125801190Y-68951904D02*
X125610714Y-68904285D01*
X125610714Y-68904285D02*
X125515476Y-68856666D01*
X125515476Y-68856666D02*
X125420238Y-68761428D01*
X125420238Y-68761428D02*
X125372619Y-68618571D01*
X125372619Y-68618571D02*
X125372619Y-68523333D01*
X125372619Y-68523333D02*
X125420238Y-68380476D01*
X125420238Y-68380476D02*
X125467857Y-68332857D01*
X126372619Y-67380476D02*
X126372619Y-67951904D01*
X126372619Y-67666190D02*
X125372619Y-67666190D01*
X125372619Y-67666190D02*
X125515476Y-67761428D01*
X125515476Y-67761428D02*
X125610714Y-67856666D01*
X125610714Y-67856666D02*
X125658333Y-67951904D01*
X126372619Y-66428095D02*
X126372619Y-66999523D01*
X126372619Y-66713809D02*
X125372619Y-66713809D01*
X125372619Y-66713809D02*
X125515476Y-66809047D01*
X125515476Y-66809047D02*
X125610714Y-66904285D01*
X125610714Y-66904285D02*
X125658333Y-66999523D01*
%TO.C,J2*%
X147930003Y-120606431D02*
X147930003Y-119606431D01*
X148406193Y-120606431D02*
X148406193Y-119606431D01*
X148406193Y-119606431D02*
X148977621Y-120606431D01*
X148977621Y-120606431D02*
X148977621Y-119606431D01*
%TO.C,R7*%
X127087145Y-89556431D02*
X126753812Y-89080240D01*
X126515717Y-89556431D02*
X126515717Y-88556431D01*
X126515717Y-88556431D02*
X126896669Y-88556431D01*
X126896669Y-88556431D02*
X126991907Y-88604050D01*
X126991907Y-88604050D02*
X127039526Y-88651669D01*
X127039526Y-88651669D02*
X127087145Y-88746907D01*
X127087145Y-88746907D02*
X127087145Y-88889764D01*
X127087145Y-88889764D02*
X127039526Y-88985002D01*
X127039526Y-88985002D02*
X126991907Y-89032621D01*
X126991907Y-89032621D02*
X126896669Y-89080240D01*
X126896669Y-89080240D02*
X126515717Y-89080240D01*
X127420479Y-88556431D02*
X128087145Y-88556431D01*
X128087145Y-88556431D02*
X127658574Y-89556431D01*
%TO.C,J4*%
X144426669Y-106646431D02*
X144760002Y-107646431D01*
X144760002Y-107646431D02*
X145093335Y-106646431D01*
X145426669Y-107265478D02*
X146188574Y-107265478D01*
X145807621Y-107646431D02*
X145807621Y-106884526D01*
X147950478Y-106694050D02*
X147855240Y-106646431D01*
X147855240Y-106646431D02*
X147712383Y-106646431D01*
X147712383Y-106646431D02*
X147569526Y-106694050D01*
X147569526Y-106694050D02*
X147474288Y-106789288D01*
X147474288Y-106789288D02*
X147426669Y-106884526D01*
X147426669Y-106884526D02*
X147379050Y-107075002D01*
X147379050Y-107075002D02*
X147379050Y-107217859D01*
X147379050Y-107217859D02*
X147426669Y-107408335D01*
X147426669Y-107408335D02*
X147474288Y-107503573D01*
X147474288Y-107503573D02*
X147569526Y-107598812D01*
X147569526Y-107598812D02*
X147712383Y-107646431D01*
X147712383Y-107646431D02*
X147807621Y-107646431D01*
X147807621Y-107646431D02*
X147950478Y-107598812D01*
X147950478Y-107598812D02*
X147998097Y-107551192D01*
X147998097Y-107551192D02*
X147998097Y-107217859D01*
X147998097Y-107217859D02*
X147807621Y-107217859D01*
X148426669Y-107646431D02*
X148426669Y-106646431D01*
X148426669Y-106646431D02*
X148998097Y-107646431D01*
X148998097Y-107646431D02*
X148998097Y-106646431D01*
X149474288Y-107646431D02*
X149474288Y-106646431D01*
X149474288Y-106646431D02*
X149712383Y-106646431D01*
X149712383Y-106646431D02*
X149855240Y-106694050D01*
X149855240Y-106694050D02*
X149950478Y-106789288D01*
X149950478Y-106789288D02*
X149998097Y-106884526D01*
X149998097Y-106884526D02*
X150045716Y-107075002D01*
X150045716Y-107075002D02*
X150045716Y-107217859D01*
X150045716Y-107217859D02*
X149998097Y-107408335D01*
X149998097Y-107408335D02*
X149950478Y-107503573D01*
X149950478Y-107503573D02*
X149855240Y-107598812D01*
X149855240Y-107598812D02*
X149712383Y-107646431D01*
X149712383Y-107646431D02*
X149474288Y-107646431D01*
%TO.C,C9*%
X152753333Y-69767380D02*
X152705714Y-69815000D01*
X152705714Y-69815000D02*
X152562857Y-69862619D01*
X152562857Y-69862619D02*
X152467619Y-69862619D01*
X152467619Y-69862619D02*
X152324762Y-69815000D01*
X152324762Y-69815000D02*
X152229524Y-69719761D01*
X152229524Y-69719761D02*
X152181905Y-69624523D01*
X152181905Y-69624523D02*
X152134286Y-69434047D01*
X152134286Y-69434047D02*
X152134286Y-69291190D01*
X152134286Y-69291190D02*
X152181905Y-69100714D01*
X152181905Y-69100714D02*
X152229524Y-69005476D01*
X152229524Y-69005476D02*
X152324762Y-68910238D01*
X152324762Y-68910238D02*
X152467619Y-68862619D01*
X152467619Y-68862619D02*
X152562857Y-68862619D01*
X152562857Y-68862619D02*
X152705714Y-68910238D01*
X152705714Y-68910238D02*
X152753333Y-68957857D01*
X153229524Y-69862619D02*
X153420000Y-69862619D01*
X153420000Y-69862619D02*
X153515238Y-69815000D01*
X153515238Y-69815000D02*
X153562857Y-69767380D01*
X153562857Y-69767380D02*
X153658095Y-69624523D01*
X153658095Y-69624523D02*
X153705714Y-69434047D01*
X153705714Y-69434047D02*
X153705714Y-69053095D01*
X153705714Y-69053095D02*
X153658095Y-68957857D01*
X153658095Y-68957857D02*
X153610476Y-68910238D01*
X153610476Y-68910238D02*
X153515238Y-68862619D01*
X153515238Y-68862619D02*
X153324762Y-68862619D01*
X153324762Y-68862619D02*
X153229524Y-68910238D01*
X153229524Y-68910238D02*
X153181905Y-68957857D01*
X153181905Y-68957857D02*
X153134286Y-69053095D01*
X153134286Y-69053095D02*
X153134286Y-69291190D01*
X153134286Y-69291190D02*
X153181905Y-69386428D01*
X153181905Y-69386428D02*
X153229524Y-69434047D01*
X153229524Y-69434047D02*
X153324762Y-69481666D01*
X153324762Y-69481666D02*
X153515238Y-69481666D01*
X153515238Y-69481666D02*
X153610476Y-69434047D01*
X153610476Y-69434047D02*
X153658095Y-69386428D01*
X153658095Y-69386428D02*
X153705714Y-69291190D01*
%TO.C,R13*%
X128910954Y-77336431D02*
X128577621Y-76860240D01*
X128339526Y-77336431D02*
X128339526Y-76336431D01*
X128339526Y-76336431D02*
X128720478Y-76336431D01*
X128720478Y-76336431D02*
X128815716Y-76384050D01*
X128815716Y-76384050D02*
X128863335Y-76431669D01*
X128863335Y-76431669D02*
X128910954Y-76526907D01*
X128910954Y-76526907D02*
X128910954Y-76669764D01*
X128910954Y-76669764D02*
X128863335Y-76765002D01*
X128863335Y-76765002D02*
X128815716Y-76812621D01*
X128815716Y-76812621D02*
X128720478Y-76860240D01*
X128720478Y-76860240D02*
X128339526Y-76860240D01*
X129863335Y-77336431D02*
X129291907Y-77336431D01*
X129577621Y-77336431D02*
X129577621Y-76336431D01*
X129577621Y-76336431D02*
X129482383Y-76479288D01*
X129482383Y-76479288D02*
X129387145Y-76574526D01*
X129387145Y-76574526D02*
X129291907Y-76622145D01*
X130196669Y-76336431D02*
X130815716Y-76336431D01*
X130815716Y-76336431D02*
X130482383Y-76717383D01*
X130482383Y-76717383D02*
X130625240Y-76717383D01*
X130625240Y-76717383D02*
X130720478Y-76765002D01*
X130720478Y-76765002D02*
X130768097Y-76812621D01*
X130768097Y-76812621D02*
X130815716Y-76907859D01*
X130815716Y-76907859D02*
X130815716Y-77145954D01*
X130815716Y-77145954D02*
X130768097Y-77241192D01*
X130768097Y-77241192D02*
X130720478Y-77288812D01*
X130720478Y-77288812D02*
X130625240Y-77336431D01*
X130625240Y-77336431D02*
X130339526Y-77336431D01*
X130339526Y-77336431D02*
X130244288Y-77288812D01*
X130244288Y-77288812D02*
X130196669Y-77241192D01*
%TO.C,C2*%
X136703333Y-92487380D02*
X136655714Y-92535000D01*
X136655714Y-92535000D02*
X136512857Y-92582619D01*
X136512857Y-92582619D02*
X136417619Y-92582619D01*
X136417619Y-92582619D02*
X136274762Y-92535000D01*
X136274762Y-92535000D02*
X136179524Y-92439761D01*
X136179524Y-92439761D02*
X136131905Y-92344523D01*
X136131905Y-92344523D02*
X136084286Y-92154047D01*
X136084286Y-92154047D02*
X136084286Y-92011190D01*
X136084286Y-92011190D02*
X136131905Y-91820714D01*
X136131905Y-91820714D02*
X136179524Y-91725476D01*
X136179524Y-91725476D02*
X136274762Y-91630238D01*
X136274762Y-91630238D02*
X136417619Y-91582619D01*
X136417619Y-91582619D02*
X136512857Y-91582619D01*
X136512857Y-91582619D02*
X136655714Y-91630238D01*
X136655714Y-91630238D02*
X136703333Y-91677857D01*
X137084286Y-91677857D02*
X137131905Y-91630238D01*
X137131905Y-91630238D02*
X137227143Y-91582619D01*
X137227143Y-91582619D02*
X137465238Y-91582619D01*
X137465238Y-91582619D02*
X137560476Y-91630238D01*
X137560476Y-91630238D02*
X137608095Y-91677857D01*
X137608095Y-91677857D02*
X137655714Y-91773095D01*
X137655714Y-91773095D02*
X137655714Y-91868333D01*
X137655714Y-91868333D02*
X137608095Y-92011190D01*
X137608095Y-92011190D02*
X137036667Y-92582619D01*
X137036667Y-92582619D02*
X137655714Y-92582619D01*
%TO.C,C13*%
X172231192Y-66706669D02*
X172278812Y-66754288D01*
X172278812Y-66754288D02*
X172326431Y-66897145D01*
X172326431Y-66897145D02*
X172326431Y-66992383D01*
X172326431Y-66992383D02*
X172278812Y-67135240D01*
X172278812Y-67135240D02*
X172183573Y-67230478D01*
X172183573Y-67230478D02*
X172088335Y-67278097D01*
X172088335Y-67278097D02*
X171897859Y-67325716D01*
X171897859Y-67325716D02*
X171755002Y-67325716D01*
X171755002Y-67325716D02*
X171564526Y-67278097D01*
X171564526Y-67278097D02*
X171469288Y-67230478D01*
X171469288Y-67230478D02*
X171374050Y-67135240D01*
X171374050Y-67135240D02*
X171326431Y-66992383D01*
X171326431Y-66992383D02*
X171326431Y-66897145D01*
X171326431Y-66897145D02*
X171374050Y-66754288D01*
X171374050Y-66754288D02*
X171421669Y-66706669D01*
X172326431Y-65754288D02*
X172326431Y-66325716D01*
X172326431Y-66040002D02*
X171326431Y-66040002D01*
X171326431Y-66040002D02*
X171469288Y-66135240D01*
X171469288Y-66135240D02*
X171564526Y-66230478D01*
X171564526Y-66230478D02*
X171612145Y-66325716D01*
X171326431Y-65420954D02*
X171326431Y-64801907D01*
X171326431Y-64801907D02*
X171707383Y-65135240D01*
X171707383Y-65135240D02*
X171707383Y-64992383D01*
X171707383Y-64992383D02*
X171755002Y-64897145D01*
X171755002Y-64897145D02*
X171802621Y-64849526D01*
X171802621Y-64849526D02*
X171897859Y-64801907D01*
X171897859Y-64801907D02*
X172135954Y-64801907D01*
X172135954Y-64801907D02*
X172231192Y-64849526D01*
X172231192Y-64849526D02*
X172278812Y-64897145D01*
X172278812Y-64897145D02*
X172326431Y-64992383D01*
X172326431Y-64992383D02*
X172326431Y-65278097D01*
X172326431Y-65278097D02*
X172278812Y-65373335D01*
X172278812Y-65373335D02*
X172231192Y-65420954D01*
%TO.C,R14*%
X161822619Y-72832857D02*
X161346428Y-73166190D01*
X161822619Y-73404285D02*
X160822619Y-73404285D01*
X160822619Y-73404285D02*
X160822619Y-73023333D01*
X160822619Y-73023333D02*
X160870238Y-72928095D01*
X160870238Y-72928095D02*
X160917857Y-72880476D01*
X160917857Y-72880476D02*
X161013095Y-72832857D01*
X161013095Y-72832857D02*
X161155952Y-72832857D01*
X161155952Y-72832857D02*
X161251190Y-72880476D01*
X161251190Y-72880476D02*
X161298809Y-72928095D01*
X161298809Y-72928095D02*
X161346428Y-73023333D01*
X161346428Y-73023333D02*
X161346428Y-73404285D01*
X161822619Y-71880476D02*
X161822619Y-72451904D01*
X161822619Y-72166190D02*
X160822619Y-72166190D01*
X160822619Y-72166190D02*
X160965476Y-72261428D01*
X160965476Y-72261428D02*
X161060714Y-72356666D01*
X161060714Y-72356666D02*
X161108333Y-72451904D01*
X161155952Y-71023333D02*
X161822619Y-71023333D01*
X160775000Y-71261428D02*
X161489285Y-71499523D01*
X161489285Y-71499523D02*
X161489285Y-70880476D01*
%TO.C,R2*%
X135702619Y-129946666D02*
X135226428Y-130279999D01*
X135702619Y-130518094D02*
X134702619Y-130518094D01*
X134702619Y-130518094D02*
X134702619Y-130137142D01*
X134702619Y-130137142D02*
X134750238Y-130041904D01*
X134750238Y-130041904D02*
X134797857Y-129994285D01*
X134797857Y-129994285D02*
X134893095Y-129946666D01*
X134893095Y-129946666D02*
X135035952Y-129946666D01*
X135035952Y-129946666D02*
X135131190Y-129994285D01*
X135131190Y-129994285D02*
X135178809Y-130041904D01*
X135178809Y-130041904D02*
X135226428Y-130137142D01*
X135226428Y-130137142D02*
X135226428Y-130518094D01*
X134797857Y-129565713D02*
X134750238Y-129518094D01*
X134750238Y-129518094D02*
X134702619Y-129422856D01*
X134702619Y-129422856D02*
X134702619Y-129184761D01*
X134702619Y-129184761D02*
X134750238Y-129089523D01*
X134750238Y-129089523D02*
X134797857Y-129041904D01*
X134797857Y-129041904D02*
X134893095Y-128994285D01*
X134893095Y-128994285D02*
X134988333Y-128994285D01*
X134988333Y-128994285D02*
X135131190Y-129041904D01*
X135131190Y-129041904D02*
X135702619Y-129613332D01*
X135702619Y-129613332D02*
X135702619Y-128994285D01*
%TO.C,C1*%
X163571192Y-127500478D02*
X163618812Y-127548097D01*
X163618812Y-127548097D02*
X163666431Y-127690954D01*
X163666431Y-127690954D02*
X163666431Y-127786192D01*
X163666431Y-127786192D02*
X163618812Y-127929049D01*
X163618812Y-127929049D02*
X163523573Y-128024287D01*
X163523573Y-128024287D02*
X163428335Y-128071906D01*
X163428335Y-128071906D02*
X163237859Y-128119525D01*
X163237859Y-128119525D02*
X163095002Y-128119525D01*
X163095002Y-128119525D02*
X162904526Y-128071906D01*
X162904526Y-128071906D02*
X162809288Y-128024287D01*
X162809288Y-128024287D02*
X162714050Y-127929049D01*
X162714050Y-127929049D02*
X162666431Y-127786192D01*
X162666431Y-127786192D02*
X162666431Y-127690954D01*
X162666431Y-127690954D02*
X162714050Y-127548097D01*
X162714050Y-127548097D02*
X162761669Y-127500478D01*
X163666431Y-126548097D02*
X163666431Y-127119525D01*
X163666431Y-126833811D02*
X162666431Y-126833811D01*
X162666431Y-126833811D02*
X162809288Y-126929049D01*
X162809288Y-126929049D02*
X162904526Y-127024287D01*
X162904526Y-127024287D02*
X162952145Y-127119525D01*
X171666431Y-128095716D02*
X171666431Y-128000478D01*
X171666431Y-128000478D02*
X171714050Y-127905240D01*
X171714050Y-127905240D02*
X171761669Y-127857621D01*
X171761669Y-127857621D02*
X171856907Y-127810002D01*
X171856907Y-127810002D02*
X172047383Y-127762383D01*
X172047383Y-127762383D02*
X172285478Y-127762383D01*
X172285478Y-127762383D02*
X172475954Y-127810002D01*
X172475954Y-127810002D02*
X172571192Y-127857621D01*
X172571192Y-127857621D02*
X172618812Y-127905240D01*
X172618812Y-127905240D02*
X172666431Y-128000478D01*
X172666431Y-128000478D02*
X172666431Y-128095716D01*
X172666431Y-128095716D02*
X172618812Y-128190954D01*
X172618812Y-128190954D02*
X172571192Y-128238573D01*
X172571192Y-128238573D02*
X172475954Y-128286192D01*
X172475954Y-128286192D02*
X172285478Y-128333811D01*
X172285478Y-128333811D02*
X172047383Y-128333811D01*
X172047383Y-128333811D02*
X171856907Y-128286192D01*
X171856907Y-128286192D02*
X171761669Y-128238573D01*
X171761669Y-128238573D02*
X171714050Y-128190954D01*
X171714050Y-128190954D02*
X171666431Y-128095716D01*
X172571192Y-127333811D02*
X172618812Y-127286192D01*
X172618812Y-127286192D02*
X172666431Y-127333811D01*
X172666431Y-127333811D02*
X172618812Y-127381430D01*
X172618812Y-127381430D02*
X172571192Y-127333811D01*
X172571192Y-127333811D02*
X172666431Y-127333811D01*
X172666431Y-126333812D02*
X172666431Y-126905240D01*
X172666431Y-126619526D02*
X171666431Y-126619526D01*
X171666431Y-126619526D02*
X171809288Y-126714764D01*
X171809288Y-126714764D02*
X171904526Y-126810002D01*
X171904526Y-126810002D02*
X171952145Y-126905240D01*
%TO.C,REF\u002A\u002A*%
X115780478Y-147916431D02*
X115447145Y-147440240D01*
X115209050Y-147916431D02*
X115209050Y-146916431D01*
X115209050Y-146916431D02*
X115590002Y-146916431D01*
X115590002Y-146916431D02*
X115685240Y-146964050D01*
X115685240Y-146964050D02*
X115732859Y-147011669D01*
X115732859Y-147011669D02*
X115780478Y-147106907D01*
X115780478Y-147106907D02*
X115780478Y-147249764D01*
X115780478Y-147249764D02*
X115732859Y-147345002D01*
X115732859Y-147345002D02*
X115685240Y-147392621D01*
X115685240Y-147392621D02*
X115590002Y-147440240D01*
X115590002Y-147440240D02*
X115209050Y-147440240D01*
X116209050Y-147392621D02*
X116542383Y-147392621D01*
X116685240Y-147916431D02*
X116209050Y-147916431D01*
X116209050Y-147916431D02*
X116209050Y-146916431D01*
X116209050Y-146916431D02*
X116685240Y-146916431D01*
X117447145Y-147392621D02*
X117113812Y-147392621D01*
X117113812Y-147916431D02*
X117113812Y-146916431D01*
X117113812Y-146916431D02*
X117590002Y-146916431D01*
X118113812Y-146916431D02*
X118113812Y-147154526D01*
X117875717Y-147059288D02*
X118113812Y-147154526D01*
X118113812Y-147154526D02*
X118351907Y-147059288D01*
X117970955Y-147345002D02*
X118113812Y-147154526D01*
X118113812Y-147154526D02*
X118256669Y-147345002D01*
X118875717Y-146916431D02*
X118875717Y-147154526D01*
X118637622Y-147059288D02*
X118875717Y-147154526D01*
X118875717Y-147154526D02*
X119113812Y-147059288D01*
X118732860Y-147345002D02*
X118875717Y-147154526D01*
X118875717Y-147154526D02*
X119018574Y-147345002D01*
%TO.C,R5*%
X147887145Y-91556431D02*
X147553812Y-91080240D01*
X147315717Y-91556431D02*
X147315717Y-90556431D01*
X147315717Y-90556431D02*
X147696669Y-90556431D01*
X147696669Y-90556431D02*
X147791907Y-90604050D01*
X147791907Y-90604050D02*
X147839526Y-90651669D01*
X147839526Y-90651669D02*
X147887145Y-90746907D01*
X147887145Y-90746907D02*
X147887145Y-90889764D01*
X147887145Y-90889764D02*
X147839526Y-90985002D01*
X147839526Y-90985002D02*
X147791907Y-91032621D01*
X147791907Y-91032621D02*
X147696669Y-91080240D01*
X147696669Y-91080240D02*
X147315717Y-91080240D01*
X148791907Y-90556431D02*
X148315717Y-90556431D01*
X148315717Y-90556431D02*
X148268098Y-91032621D01*
X148268098Y-91032621D02*
X148315717Y-90985002D01*
X148315717Y-90985002D02*
X148410955Y-90937383D01*
X148410955Y-90937383D02*
X148649050Y-90937383D01*
X148649050Y-90937383D02*
X148744288Y-90985002D01*
X148744288Y-90985002D02*
X148791907Y-91032621D01*
X148791907Y-91032621D02*
X148839526Y-91127859D01*
X148839526Y-91127859D02*
X148839526Y-91365954D01*
X148839526Y-91365954D02*
X148791907Y-91461192D01*
X148791907Y-91461192D02*
X148744288Y-91508812D01*
X148744288Y-91508812D02*
X148649050Y-91556431D01*
X148649050Y-91556431D02*
X148410955Y-91556431D01*
X148410955Y-91556431D02*
X148315717Y-91508812D01*
X148315717Y-91508812D02*
X148268098Y-91461192D01*
%TO.C,C14*%
X172237380Y-75322857D02*
X172285000Y-75370476D01*
X172285000Y-75370476D02*
X172332619Y-75513333D01*
X172332619Y-75513333D02*
X172332619Y-75608571D01*
X172332619Y-75608571D02*
X172285000Y-75751428D01*
X172285000Y-75751428D02*
X172189761Y-75846666D01*
X172189761Y-75846666D02*
X172094523Y-75894285D01*
X172094523Y-75894285D02*
X171904047Y-75941904D01*
X171904047Y-75941904D02*
X171761190Y-75941904D01*
X171761190Y-75941904D02*
X171570714Y-75894285D01*
X171570714Y-75894285D02*
X171475476Y-75846666D01*
X171475476Y-75846666D02*
X171380238Y-75751428D01*
X171380238Y-75751428D02*
X171332619Y-75608571D01*
X171332619Y-75608571D02*
X171332619Y-75513333D01*
X171332619Y-75513333D02*
X171380238Y-75370476D01*
X171380238Y-75370476D02*
X171427857Y-75322857D01*
X172332619Y-74370476D02*
X172332619Y-74941904D01*
X172332619Y-74656190D02*
X171332619Y-74656190D01*
X171332619Y-74656190D02*
X171475476Y-74751428D01*
X171475476Y-74751428D02*
X171570714Y-74846666D01*
X171570714Y-74846666D02*
X171618333Y-74941904D01*
X171665952Y-73513333D02*
X172332619Y-73513333D01*
X171285000Y-73751428D02*
X171999285Y-73989523D01*
X171999285Y-73989523D02*
X171999285Y-73370476D01*
%TO.C,C7*%
X135343333Y-73827380D02*
X135295714Y-73875000D01*
X135295714Y-73875000D02*
X135152857Y-73922619D01*
X135152857Y-73922619D02*
X135057619Y-73922619D01*
X135057619Y-73922619D02*
X134914762Y-73875000D01*
X134914762Y-73875000D02*
X134819524Y-73779761D01*
X134819524Y-73779761D02*
X134771905Y-73684523D01*
X134771905Y-73684523D02*
X134724286Y-73494047D01*
X134724286Y-73494047D02*
X134724286Y-73351190D01*
X134724286Y-73351190D02*
X134771905Y-73160714D01*
X134771905Y-73160714D02*
X134819524Y-73065476D01*
X134819524Y-73065476D02*
X134914762Y-72970238D01*
X134914762Y-72970238D02*
X135057619Y-72922619D01*
X135057619Y-72922619D02*
X135152857Y-72922619D01*
X135152857Y-72922619D02*
X135295714Y-72970238D01*
X135295714Y-72970238D02*
X135343333Y-73017857D01*
X135676667Y-72922619D02*
X136343333Y-72922619D01*
X136343333Y-72922619D02*
X135914762Y-73922619D01*
%TO.C,R20*%
X172172619Y-88372857D02*
X171696428Y-88706190D01*
X172172619Y-88944285D02*
X171172619Y-88944285D01*
X171172619Y-88944285D02*
X171172619Y-88563333D01*
X171172619Y-88563333D02*
X171220238Y-88468095D01*
X171220238Y-88468095D02*
X171267857Y-88420476D01*
X171267857Y-88420476D02*
X171363095Y-88372857D01*
X171363095Y-88372857D02*
X171505952Y-88372857D01*
X171505952Y-88372857D02*
X171601190Y-88420476D01*
X171601190Y-88420476D02*
X171648809Y-88468095D01*
X171648809Y-88468095D02*
X171696428Y-88563333D01*
X171696428Y-88563333D02*
X171696428Y-88944285D01*
X171267857Y-87991904D02*
X171220238Y-87944285D01*
X171220238Y-87944285D02*
X171172619Y-87849047D01*
X171172619Y-87849047D02*
X171172619Y-87610952D01*
X171172619Y-87610952D02*
X171220238Y-87515714D01*
X171220238Y-87515714D02*
X171267857Y-87468095D01*
X171267857Y-87468095D02*
X171363095Y-87420476D01*
X171363095Y-87420476D02*
X171458333Y-87420476D01*
X171458333Y-87420476D02*
X171601190Y-87468095D01*
X171601190Y-87468095D02*
X172172619Y-88039523D01*
X172172619Y-88039523D02*
X172172619Y-87420476D01*
X171172619Y-86801428D02*
X171172619Y-86706190D01*
X171172619Y-86706190D02*
X171220238Y-86610952D01*
X171220238Y-86610952D02*
X171267857Y-86563333D01*
X171267857Y-86563333D02*
X171363095Y-86515714D01*
X171363095Y-86515714D02*
X171553571Y-86468095D01*
X171553571Y-86468095D02*
X171791666Y-86468095D01*
X171791666Y-86468095D02*
X171982142Y-86515714D01*
X171982142Y-86515714D02*
X172077380Y-86563333D01*
X172077380Y-86563333D02*
X172125000Y-86610952D01*
X172125000Y-86610952D02*
X172172619Y-86706190D01*
X172172619Y-86706190D02*
X172172619Y-86801428D01*
X172172619Y-86801428D02*
X172125000Y-86896666D01*
X172125000Y-86896666D02*
X172077380Y-86944285D01*
X172077380Y-86944285D02*
X171982142Y-86991904D01*
X171982142Y-86991904D02*
X171791666Y-87039523D01*
X171791666Y-87039523D02*
X171553571Y-87039523D01*
X171553571Y-87039523D02*
X171363095Y-86991904D01*
X171363095Y-86991904D02*
X171267857Y-86944285D01*
X171267857Y-86944285D02*
X171220238Y-86896666D01*
X171220238Y-86896666D02*
X171172619Y-86801428D01*
%TO.C,R9*%
X127167145Y-84956431D02*
X126833812Y-84480240D01*
X126595717Y-84956431D02*
X126595717Y-83956431D01*
X126595717Y-83956431D02*
X126976669Y-83956431D01*
X126976669Y-83956431D02*
X127071907Y-84004050D01*
X127071907Y-84004050D02*
X127119526Y-84051669D01*
X127119526Y-84051669D02*
X127167145Y-84146907D01*
X127167145Y-84146907D02*
X127167145Y-84289764D01*
X127167145Y-84289764D02*
X127119526Y-84385002D01*
X127119526Y-84385002D02*
X127071907Y-84432621D01*
X127071907Y-84432621D02*
X126976669Y-84480240D01*
X126976669Y-84480240D02*
X126595717Y-84480240D01*
X127643336Y-84956431D02*
X127833812Y-84956431D01*
X127833812Y-84956431D02*
X127929050Y-84908812D01*
X127929050Y-84908812D02*
X127976669Y-84861192D01*
X127976669Y-84861192D02*
X128071907Y-84718335D01*
X128071907Y-84718335D02*
X128119526Y-84527859D01*
X128119526Y-84527859D02*
X128119526Y-84146907D01*
X128119526Y-84146907D02*
X128071907Y-84051669D01*
X128071907Y-84051669D02*
X128024288Y-84004050D01*
X128024288Y-84004050D02*
X127929050Y-83956431D01*
X127929050Y-83956431D02*
X127738574Y-83956431D01*
X127738574Y-83956431D02*
X127643336Y-84004050D01*
X127643336Y-84004050D02*
X127595717Y-84051669D01*
X127595717Y-84051669D02*
X127548098Y-84146907D01*
X127548098Y-84146907D02*
X127548098Y-84385002D01*
X127548098Y-84385002D02*
X127595717Y-84480240D01*
X127595717Y-84480240D02*
X127643336Y-84527859D01*
X127643336Y-84527859D02*
X127738574Y-84575478D01*
X127738574Y-84575478D02*
X127929050Y-84575478D01*
X127929050Y-84575478D02*
X128024288Y-84527859D01*
X128024288Y-84527859D02*
X128071907Y-84480240D01*
X128071907Y-84480240D02*
X128119526Y-84385002D01*
%TO.C,U2*%
X154182548Y-88481833D02*
X154992071Y-88481833D01*
X154992071Y-88481833D02*
X155087309Y-88434214D01*
X155087309Y-88434214D02*
X155134929Y-88386595D01*
X155134929Y-88386595D02*
X155182548Y-88291357D01*
X155182548Y-88291357D02*
X155182548Y-88100881D01*
X155182548Y-88100881D02*
X155134929Y-88005643D01*
X155134929Y-88005643D02*
X155087309Y-87958024D01*
X155087309Y-87958024D02*
X154992071Y-87910405D01*
X154992071Y-87910405D02*
X154182548Y-87910405D01*
X154277786Y-87481833D02*
X154230167Y-87434214D01*
X154230167Y-87434214D02*
X154182548Y-87338976D01*
X154182548Y-87338976D02*
X154182548Y-87100881D01*
X154182548Y-87100881D02*
X154230167Y-87005643D01*
X154230167Y-87005643D02*
X154277786Y-86958024D01*
X154277786Y-86958024D02*
X154373024Y-86910405D01*
X154373024Y-86910405D02*
X154468262Y-86910405D01*
X154468262Y-86910405D02*
X154611119Y-86958024D01*
X154611119Y-86958024D02*
X155182548Y-87529452D01*
X155182548Y-87529452D02*
X155182548Y-86910405D01*
%TO.C,C12*%
X152150954Y-57131192D02*
X152103335Y-57178812D01*
X152103335Y-57178812D02*
X151960478Y-57226431D01*
X151960478Y-57226431D02*
X151865240Y-57226431D01*
X151865240Y-57226431D02*
X151722383Y-57178812D01*
X151722383Y-57178812D02*
X151627145Y-57083573D01*
X151627145Y-57083573D02*
X151579526Y-56988335D01*
X151579526Y-56988335D02*
X151531907Y-56797859D01*
X151531907Y-56797859D02*
X151531907Y-56655002D01*
X151531907Y-56655002D02*
X151579526Y-56464526D01*
X151579526Y-56464526D02*
X151627145Y-56369288D01*
X151627145Y-56369288D02*
X151722383Y-56274050D01*
X151722383Y-56274050D02*
X151865240Y-56226431D01*
X151865240Y-56226431D02*
X151960478Y-56226431D01*
X151960478Y-56226431D02*
X152103335Y-56274050D01*
X152103335Y-56274050D02*
X152150954Y-56321669D01*
X153103335Y-57226431D02*
X152531907Y-57226431D01*
X152817621Y-57226431D02*
X152817621Y-56226431D01*
X152817621Y-56226431D02*
X152722383Y-56369288D01*
X152722383Y-56369288D02*
X152627145Y-56464526D01*
X152627145Y-56464526D02*
X152531907Y-56512145D01*
X153484288Y-56321669D02*
X153531907Y-56274050D01*
X153531907Y-56274050D02*
X153627145Y-56226431D01*
X153627145Y-56226431D02*
X153865240Y-56226431D01*
X153865240Y-56226431D02*
X153960478Y-56274050D01*
X153960478Y-56274050D02*
X154008097Y-56321669D01*
X154008097Y-56321669D02*
X154055716Y-56416907D01*
X154055716Y-56416907D02*
X154055716Y-56512145D01*
X154055716Y-56512145D02*
X154008097Y-56655002D01*
X154008097Y-56655002D02*
X153436669Y-57226431D01*
X153436669Y-57226431D02*
X154055716Y-57226431D01*
%TO.C,RV2*%
X124126431Y-53634050D02*
X123650240Y-53967383D01*
X124126431Y-54205478D02*
X123126431Y-54205478D01*
X123126431Y-54205478D02*
X123126431Y-53824526D01*
X123126431Y-53824526D02*
X123174050Y-53729288D01*
X123174050Y-53729288D02*
X123221669Y-53681669D01*
X123221669Y-53681669D02*
X123316907Y-53634050D01*
X123316907Y-53634050D02*
X123459764Y-53634050D01*
X123459764Y-53634050D02*
X123555002Y-53681669D01*
X123555002Y-53681669D02*
X123602621Y-53729288D01*
X123602621Y-53729288D02*
X123650240Y-53824526D01*
X123650240Y-53824526D02*
X123650240Y-54205478D01*
X123126431Y-53348335D02*
X124126431Y-53015002D01*
X124126431Y-53015002D02*
X123126431Y-52681669D01*
X123221669Y-52395954D02*
X123174050Y-52348335D01*
X123174050Y-52348335D02*
X123126431Y-52253097D01*
X123126431Y-52253097D02*
X123126431Y-52015002D01*
X123126431Y-52015002D02*
X123174050Y-51919764D01*
X123174050Y-51919764D02*
X123221669Y-51872145D01*
X123221669Y-51872145D02*
X123316907Y-51824526D01*
X123316907Y-51824526D02*
X123412145Y-51824526D01*
X123412145Y-51824526D02*
X123555002Y-51872145D01*
X123555002Y-51872145D02*
X124126431Y-52443573D01*
X124126431Y-52443573D02*
X124126431Y-51824526D01*
%TO.C,JOVGI1*%
X145841907Y-105346431D02*
X146032383Y-105346431D01*
X146032383Y-105346431D02*
X146127621Y-105394050D01*
X146127621Y-105394050D02*
X146222859Y-105489288D01*
X146222859Y-105489288D02*
X146270478Y-105679764D01*
X146270478Y-105679764D02*
X146270478Y-106013097D01*
X146270478Y-106013097D02*
X146222859Y-106203573D01*
X146222859Y-106203573D02*
X146127621Y-106298812D01*
X146127621Y-106298812D02*
X146032383Y-106346431D01*
X146032383Y-106346431D02*
X145841907Y-106346431D01*
X145841907Y-106346431D02*
X145746669Y-106298812D01*
X145746669Y-106298812D02*
X145651431Y-106203573D01*
X145651431Y-106203573D02*
X145603812Y-106013097D01*
X145603812Y-106013097D02*
X145603812Y-105679764D01*
X145603812Y-105679764D02*
X145651431Y-105489288D01*
X145651431Y-105489288D02*
X145746669Y-105394050D01*
X145746669Y-105394050D02*
X145841907Y-105346431D01*
X146556193Y-105346431D02*
X146889526Y-106346431D01*
X146889526Y-106346431D02*
X147222859Y-105346431D01*
X148080002Y-105394050D02*
X147984764Y-105346431D01*
X147984764Y-105346431D02*
X147841907Y-105346431D01*
X147841907Y-105346431D02*
X147699050Y-105394050D01*
X147699050Y-105394050D02*
X147603812Y-105489288D01*
X147603812Y-105489288D02*
X147556193Y-105584526D01*
X147556193Y-105584526D02*
X147508574Y-105775002D01*
X147508574Y-105775002D02*
X147508574Y-105917859D01*
X147508574Y-105917859D02*
X147556193Y-106108335D01*
X147556193Y-106108335D02*
X147603812Y-106203573D01*
X147603812Y-106203573D02*
X147699050Y-106298812D01*
X147699050Y-106298812D02*
X147841907Y-106346431D01*
X147841907Y-106346431D02*
X147937145Y-106346431D01*
X147937145Y-106346431D02*
X148080002Y-106298812D01*
X148080002Y-106298812D02*
X148127621Y-106251192D01*
X148127621Y-106251192D02*
X148127621Y-105917859D01*
X148127621Y-105917859D02*
X147937145Y-105917859D01*
X148556193Y-106346431D02*
X148556193Y-105346431D01*
%TO.C,R18*%
X134217142Y-64462619D02*
X133883809Y-63986428D01*
X133645714Y-64462619D02*
X133645714Y-63462619D01*
X133645714Y-63462619D02*
X134026666Y-63462619D01*
X134026666Y-63462619D02*
X134121904Y-63510238D01*
X134121904Y-63510238D02*
X134169523Y-63557857D01*
X134169523Y-63557857D02*
X134217142Y-63653095D01*
X134217142Y-63653095D02*
X134217142Y-63795952D01*
X134217142Y-63795952D02*
X134169523Y-63891190D01*
X134169523Y-63891190D02*
X134121904Y-63938809D01*
X134121904Y-63938809D02*
X134026666Y-63986428D01*
X134026666Y-63986428D02*
X133645714Y-63986428D01*
X135169523Y-64462619D02*
X134598095Y-64462619D01*
X134883809Y-64462619D02*
X134883809Y-63462619D01*
X134883809Y-63462619D02*
X134788571Y-63605476D01*
X134788571Y-63605476D02*
X134693333Y-63700714D01*
X134693333Y-63700714D02*
X134598095Y-63748333D01*
X135740952Y-63891190D02*
X135645714Y-63843571D01*
X135645714Y-63843571D02*
X135598095Y-63795952D01*
X135598095Y-63795952D02*
X135550476Y-63700714D01*
X135550476Y-63700714D02*
X135550476Y-63653095D01*
X135550476Y-63653095D02*
X135598095Y-63557857D01*
X135598095Y-63557857D02*
X135645714Y-63510238D01*
X135645714Y-63510238D02*
X135740952Y-63462619D01*
X135740952Y-63462619D02*
X135931428Y-63462619D01*
X135931428Y-63462619D02*
X136026666Y-63510238D01*
X136026666Y-63510238D02*
X136074285Y-63557857D01*
X136074285Y-63557857D02*
X136121904Y-63653095D01*
X136121904Y-63653095D02*
X136121904Y-63700714D01*
X136121904Y-63700714D02*
X136074285Y-63795952D01*
X136074285Y-63795952D02*
X136026666Y-63843571D01*
X136026666Y-63843571D02*
X135931428Y-63891190D01*
X135931428Y-63891190D02*
X135740952Y-63891190D01*
X135740952Y-63891190D02*
X135645714Y-63938809D01*
X135645714Y-63938809D02*
X135598095Y-63986428D01*
X135598095Y-63986428D02*
X135550476Y-64081666D01*
X135550476Y-64081666D02*
X135550476Y-64272142D01*
X135550476Y-64272142D02*
X135598095Y-64367380D01*
X135598095Y-64367380D02*
X135645714Y-64415000D01*
X135645714Y-64415000D02*
X135740952Y-64462619D01*
X135740952Y-64462619D02*
X135931428Y-64462619D01*
X135931428Y-64462619D02*
X136026666Y-64415000D01*
X136026666Y-64415000D02*
X136074285Y-64367380D01*
X136074285Y-64367380D02*
X136121904Y-64272142D01*
X136121904Y-64272142D02*
X136121904Y-64081666D01*
X136121904Y-64081666D02*
X136074285Y-63986428D01*
X136074285Y-63986428D02*
X136026666Y-63938809D01*
X136026666Y-63938809D02*
X135931428Y-63891190D01*
%TO.C,R3*%
X154752619Y-93476666D02*
X154276428Y-93809999D01*
X154752619Y-94048094D02*
X153752619Y-94048094D01*
X153752619Y-94048094D02*
X153752619Y-93667142D01*
X153752619Y-93667142D02*
X153800238Y-93571904D01*
X153800238Y-93571904D02*
X153847857Y-93524285D01*
X153847857Y-93524285D02*
X153943095Y-93476666D01*
X153943095Y-93476666D02*
X154085952Y-93476666D01*
X154085952Y-93476666D02*
X154181190Y-93524285D01*
X154181190Y-93524285D02*
X154228809Y-93571904D01*
X154228809Y-93571904D02*
X154276428Y-93667142D01*
X154276428Y-93667142D02*
X154276428Y-94048094D01*
X153752619Y-93143332D02*
X153752619Y-92524285D01*
X153752619Y-92524285D02*
X154133571Y-92857618D01*
X154133571Y-92857618D02*
X154133571Y-92714761D01*
X154133571Y-92714761D02*
X154181190Y-92619523D01*
X154181190Y-92619523D02*
X154228809Y-92571904D01*
X154228809Y-92571904D02*
X154324047Y-92524285D01*
X154324047Y-92524285D02*
X154562142Y-92524285D01*
X154562142Y-92524285D02*
X154657380Y-92571904D01*
X154657380Y-92571904D02*
X154705000Y-92619523D01*
X154705000Y-92619523D02*
X154752619Y-92714761D01*
X154752619Y-92714761D02*
X154752619Y-93000475D01*
X154752619Y-93000475D02*
X154705000Y-93095713D01*
X154705000Y-93095713D02*
X154657380Y-93143332D01*
%TO.C,R17*%
X154682619Y-82412857D02*
X154206428Y-82746190D01*
X154682619Y-82984285D02*
X153682619Y-82984285D01*
X153682619Y-82984285D02*
X153682619Y-82603333D01*
X153682619Y-82603333D02*
X153730238Y-82508095D01*
X153730238Y-82508095D02*
X153777857Y-82460476D01*
X153777857Y-82460476D02*
X153873095Y-82412857D01*
X153873095Y-82412857D02*
X154015952Y-82412857D01*
X154015952Y-82412857D02*
X154111190Y-82460476D01*
X154111190Y-82460476D02*
X154158809Y-82508095D01*
X154158809Y-82508095D02*
X154206428Y-82603333D01*
X154206428Y-82603333D02*
X154206428Y-82984285D01*
X154682619Y-81460476D02*
X154682619Y-82031904D01*
X154682619Y-81746190D02*
X153682619Y-81746190D01*
X153682619Y-81746190D02*
X153825476Y-81841428D01*
X153825476Y-81841428D02*
X153920714Y-81936666D01*
X153920714Y-81936666D02*
X153968333Y-82031904D01*
X153682619Y-81127142D02*
X153682619Y-80460476D01*
X153682619Y-80460476D02*
X154682619Y-80889047D01*
%TO.C,R3*%
X132422619Y-132676666D02*
X131946428Y-133009999D01*
X132422619Y-133248094D02*
X131422619Y-133248094D01*
X131422619Y-133248094D02*
X131422619Y-132867142D01*
X131422619Y-132867142D02*
X131470238Y-132771904D01*
X131470238Y-132771904D02*
X131517857Y-132724285D01*
X131517857Y-132724285D02*
X131613095Y-132676666D01*
X131613095Y-132676666D02*
X131755952Y-132676666D01*
X131755952Y-132676666D02*
X131851190Y-132724285D01*
X131851190Y-132724285D02*
X131898809Y-132771904D01*
X131898809Y-132771904D02*
X131946428Y-132867142D01*
X131946428Y-132867142D02*
X131946428Y-133248094D01*
X131422619Y-132343332D02*
X131422619Y-131724285D01*
X131422619Y-131724285D02*
X131803571Y-132057618D01*
X131803571Y-132057618D02*
X131803571Y-131914761D01*
X131803571Y-131914761D02*
X131851190Y-131819523D01*
X131851190Y-131819523D02*
X131898809Y-131771904D01*
X131898809Y-131771904D02*
X131994047Y-131724285D01*
X131994047Y-131724285D02*
X132232142Y-131724285D01*
X132232142Y-131724285D02*
X132327380Y-131771904D01*
X132327380Y-131771904D02*
X132375000Y-131819523D01*
X132375000Y-131819523D02*
X132422619Y-131914761D01*
X132422619Y-131914761D02*
X132422619Y-132200475D01*
X132422619Y-132200475D02*
X132375000Y-132295713D01*
X132375000Y-132295713D02*
X132327380Y-132343332D01*
%TO.C,C2*%
X161987145Y-138051192D02*
X161939526Y-138098812D01*
X161939526Y-138098812D02*
X161796669Y-138146431D01*
X161796669Y-138146431D02*
X161701431Y-138146431D01*
X161701431Y-138146431D02*
X161558574Y-138098812D01*
X161558574Y-138098812D02*
X161463336Y-138003573D01*
X161463336Y-138003573D02*
X161415717Y-137908335D01*
X161415717Y-137908335D02*
X161368098Y-137717859D01*
X161368098Y-137717859D02*
X161368098Y-137575002D01*
X161368098Y-137575002D02*
X161415717Y-137384526D01*
X161415717Y-137384526D02*
X161463336Y-137289288D01*
X161463336Y-137289288D02*
X161558574Y-137194050D01*
X161558574Y-137194050D02*
X161701431Y-137146431D01*
X161701431Y-137146431D02*
X161796669Y-137146431D01*
X161796669Y-137146431D02*
X161939526Y-137194050D01*
X161939526Y-137194050D02*
X161987145Y-137241669D01*
X162368098Y-137241669D02*
X162415717Y-137194050D01*
X162415717Y-137194050D02*
X162510955Y-137146431D01*
X162510955Y-137146431D02*
X162749050Y-137146431D01*
X162749050Y-137146431D02*
X162844288Y-137194050D01*
X162844288Y-137194050D02*
X162891907Y-137241669D01*
X162891907Y-137241669D02*
X162939526Y-137336907D01*
X162939526Y-137336907D02*
X162939526Y-137432145D01*
X162939526Y-137432145D02*
X162891907Y-137575002D01*
X162891907Y-137575002D02*
X162320479Y-138146431D01*
X162320479Y-138146431D02*
X162939526Y-138146431D01*
X161987145Y-139646431D02*
X161415717Y-139646431D01*
X161701431Y-139646431D02*
X161701431Y-138646431D01*
X161701431Y-138646431D02*
X161606193Y-138789288D01*
X161606193Y-138789288D02*
X161510955Y-138884526D01*
X161510955Y-138884526D02*
X161415717Y-138932145D01*
X162606193Y-138646431D02*
X162701431Y-138646431D01*
X162701431Y-138646431D02*
X162796669Y-138694050D01*
X162796669Y-138694050D02*
X162844288Y-138741669D01*
X162844288Y-138741669D02*
X162891907Y-138836907D01*
X162891907Y-138836907D02*
X162939526Y-139027383D01*
X162939526Y-139027383D02*
X162939526Y-139265478D01*
X162939526Y-139265478D02*
X162891907Y-139455954D01*
X162891907Y-139455954D02*
X162844288Y-139551192D01*
X162844288Y-139551192D02*
X162796669Y-139598812D01*
X162796669Y-139598812D02*
X162701431Y-139646431D01*
X162701431Y-139646431D02*
X162606193Y-139646431D01*
X162606193Y-139646431D02*
X162510955Y-139598812D01*
X162510955Y-139598812D02*
X162463336Y-139551192D01*
X162463336Y-139551192D02*
X162415717Y-139455954D01*
X162415717Y-139455954D02*
X162368098Y-139265478D01*
X162368098Y-139265478D02*
X162368098Y-139027383D01*
X162368098Y-139027383D02*
X162415717Y-138836907D01*
X162415717Y-138836907D02*
X162463336Y-138741669D01*
X162463336Y-138741669D02*
X162510955Y-138694050D01*
X162510955Y-138694050D02*
X162606193Y-138646431D01*
X163558574Y-138646431D02*
X163653812Y-138646431D01*
X163653812Y-138646431D02*
X163749050Y-138694050D01*
X163749050Y-138694050D02*
X163796669Y-138741669D01*
X163796669Y-138741669D02*
X163844288Y-138836907D01*
X163844288Y-138836907D02*
X163891907Y-139027383D01*
X163891907Y-139027383D02*
X163891907Y-139265478D01*
X163891907Y-139265478D02*
X163844288Y-139455954D01*
X163844288Y-139455954D02*
X163796669Y-139551192D01*
X163796669Y-139551192D02*
X163749050Y-139598812D01*
X163749050Y-139598812D02*
X163653812Y-139646431D01*
X163653812Y-139646431D02*
X163558574Y-139646431D01*
X163558574Y-139646431D02*
X163463336Y-139598812D01*
X163463336Y-139598812D02*
X163415717Y-139551192D01*
X163415717Y-139551192D02*
X163368098Y-139455954D01*
X163368098Y-139455954D02*
X163320479Y-139265478D01*
X163320479Y-139265478D02*
X163320479Y-139027383D01*
X163320479Y-139027383D02*
X163368098Y-138836907D01*
X163368098Y-138836907D02*
X163415717Y-138741669D01*
X163415717Y-138741669D02*
X163463336Y-138694050D01*
X163463336Y-138694050D02*
X163558574Y-138646431D01*
%TO.C,C5*%
X138027380Y-86426666D02*
X138075000Y-86474285D01*
X138075000Y-86474285D02*
X138122619Y-86617142D01*
X138122619Y-86617142D02*
X138122619Y-86712380D01*
X138122619Y-86712380D02*
X138075000Y-86855237D01*
X138075000Y-86855237D02*
X137979761Y-86950475D01*
X137979761Y-86950475D02*
X137884523Y-86998094D01*
X137884523Y-86998094D02*
X137694047Y-87045713D01*
X137694047Y-87045713D02*
X137551190Y-87045713D01*
X137551190Y-87045713D02*
X137360714Y-86998094D01*
X137360714Y-86998094D02*
X137265476Y-86950475D01*
X137265476Y-86950475D02*
X137170238Y-86855237D01*
X137170238Y-86855237D02*
X137122619Y-86712380D01*
X137122619Y-86712380D02*
X137122619Y-86617142D01*
X137122619Y-86617142D02*
X137170238Y-86474285D01*
X137170238Y-86474285D02*
X137217857Y-86426666D01*
X137122619Y-85521904D02*
X137122619Y-85998094D01*
X137122619Y-85998094D02*
X137598809Y-86045713D01*
X137598809Y-86045713D02*
X137551190Y-85998094D01*
X137551190Y-85998094D02*
X137503571Y-85902856D01*
X137503571Y-85902856D02*
X137503571Y-85664761D01*
X137503571Y-85664761D02*
X137551190Y-85569523D01*
X137551190Y-85569523D02*
X137598809Y-85521904D01*
X137598809Y-85521904D02*
X137694047Y-85474285D01*
X137694047Y-85474285D02*
X137932142Y-85474285D01*
X137932142Y-85474285D02*
X138027380Y-85521904D01*
X138027380Y-85521904D02*
X138075000Y-85569523D01*
X138075000Y-85569523D02*
X138122619Y-85664761D01*
X138122619Y-85664761D02*
X138122619Y-85902856D01*
X138122619Y-85902856D02*
X138075000Y-85998094D01*
X138075000Y-85998094D02*
X138027380Y-86045713D01*
%TO.C,C8*%
X135283333Y-70577380D02*
X135235714Y-70625000D01*
X135235714Y-70625000D02*
X135092857Y-70672619D01*
X135092857Y-70672619D02*
X134997619Y-70672619D01*
X134997619Y-70672619D02*
X134854762Y-70625000D01*
X134854762Y-70625000D02*
X134759524Y-70529761D01*
X134759524Y-70529761D02*
X134711905Y-70434523D01*
X134711905Y-70434523D02*
X134664286Y-70244047D01*
X134664286Y-70244047D02*
X134664286Y-70101190D01*
X134664286Y-70101190D02*
X134711905Y-69910714D01*
X134711905Y-69910714D02*
X134759524Y-69815476D01*
X134759524Y-69815476D02*
X134854762Y-69720238D01*
X134854762Y-69720238D02*
X134997619Y-69672619D01*
X134997619Y-69672619D02*
X135092857Y-69672619D01*
X135092857Y-69672619D02*
X135235714Y-69720238D01*
X135235714Y-69720238D02*
X135283333Y-69767857D01*
X135854762Y-70101190D02*
X135759524Y-70053571D01*
X135759524Y-70053571D02*
X135711905Y-70005952D01*
X135711905Y-70005952D02*
X135664286Y-69910714D01*
X135664286Y-69910714D02*
X135664286Y-69863095D01*
X135664286Y-69863095D02*
X135711905Y-69767857D01*
X135711905Y-69767857D02*
X135759524Y-69720238D01*
X135759524Y-69720238D02*
X135854762Y-69672619D01*
X135854762Y-69672619D02*
X136045238Y-69672619D01*
X136045238Y-69672619D02*
X136140476Y-69720238D01*
X136140476Y-69720238D02*
X136188095Y-69767857D01*
X136188095Y-69767857D02*
X136235714Y-69863095D01*
X136235714Y-69863095D02*
X136235714Y-69910714D01*
X136235714Y-69910714D02*
X136188095Y-70005952D01*
X136188095Y-70005952D02*
X136140476Y-70053571D01*
X136140476Y-70053571D02*
X136045238Y-70101190D01*
X136045238Y-70101190D02*
X135854762Y-70101190D01*
X135854762Y-70101190D02*
X135759524Y-70148809D01*
X135759524Y-70148809D02*
X135711905Y-70196428D01*
X135711905Y-70196428D02*
X135664286Y-70291666D01*
X135664286Y-70291666D02*
X135664286Y-70482142D01*
X135664286Y-70482142D02*
X135711905Y-70577380D01*
X135711905Y-70577380D02*
X135759524Y-70625000D01*
X135759524Y-70625000D02*
X135854762Y-70672619D01*
X135854762Y-70672619D02*
X136045238Y-70672619D01*
X136045238Y-70672619D02*
X136140476Y-70625000D01*
X136140476Y-70625000D02*
X136188095Y-70577380D01*
X136188095Y-70577380D02*
X136235714Y-70482142D01*
X136235714Y-70482142D02*
X136235714Y-70291666D01*
X136235714Y-70291666D02*
X136188095Y-70196428D01*
X136188095Y-70196428D02*
X136140476Y-70148809D01*
X136140476Y-70148809D02*
X136045238Y-70101190D01*
%TO.C,J1*%
X142986431Y-56967145D02*
X143700716Y-56967145D01*
X143700716Y-56967145D02*
X143843573Y-57014764D01*
X143843573Y-57014764D02*
X143938812Y-57110002D01*
X143938812Y-57110002D02*
X143986431Y-57252859D01*
X143986431Y-57252859D02*
X143986431Y-57348097D01*
X143986431Y-55967145D02*
X143986431Y-56538573D01*
X143986431Y-56252859D02*
X142986431Y-56252859D01*
X142986431Y-56252859D02*
X143129288Y-56348097D01*
X143129288Y-56348097D02*
X143224526Y-56443335D01*
X143224526Y-56443335D02*
X143272145Y-56538573D01*
X144462857Y-58142619D02*
X144796190Y-59142619D01*
X144796190Y-59142619D02*
X145129523Y-58142619D01*
X145462857Y-58761666D02*
X146224762Y-58761666D01*
X145843809Y-59142619D02*
X145843809Y-58380714D01*
X147986666Y-58190238D02*
X147891428Y-58142619D01*
X147891428Y-58142619D02*
X147748571Y-58142619D01*
X147748571Y-58142619D02*
X147605714Y-58190238D01*
X147605714Y-58190238D02*
X147510476Y-58285476D01*
X147510476Y-58285476D02*
X147462857Y-58380714D01*
X147462857Y-58380714D02*
X147415238Y-58571190D01*
X147415238Y-58571190D02*
X147415238Y-58714047D01*
X147415238Y-58714047D02*
X147462857Y-58904523D01*
X147462857Y-58904523D02*
X147510476Y-58999761D01*
X147510476Y-58999761D02*
X147605714Y-59095000D01*
X147605714Y-59095000D02*
X147748571Y-59142619D01*
X147748571Y-59142619D02*
X147843809Y-59142619D01*
X147843809Y-59142619D02*
X147986666Y-59095000D01*
X147986666Y-59095000D02*
X148034285Y-59047380D01*
X148034285Y-59047380D02*
X148034285Y-58714047D01*
X148034285Y-58714047D02*
X147843809Y-58714047D01*
X148462857Y-59142619D02*
X148462857Y-58142619D01*
X148462857Y-58142619D02*
X149034285Y-59142619D01*
X149034285Y-59142619D02*
X149034285Y-58142619D01*
X149510476Y-59142619D02*
X149510476Y-58142619D01*
X149510476Y-58142619D02*
X149748571Y-58142619D01*
X149748571Y-58142619D02*
X149891428Y-58190238D01*
X149891428Y-58190238D02*
X149986666Y-58285476D01*
X149986666Y-58285476D02*
X150034285Y-58380714D01*
X150034285Y-58380714D02*
X150081904Y-58571190D01*
X150081904Y-58571190D02*
X150081904Y-58714047D01*
X150081904Y-58714047D02*
X150034285Y-58904523D01*
X150034285Y-58904523D02*
X149986666Y-58999761D01*
X149986666Y-58999761D02*
X149891428Y-59095000D01*
X149891428Y-59095000D02*
X149748571Y-59142619D01*
X149748571Y-59142619D02*
X149510476Y-59142619D01*
%TO.C,U1*%
X143461907Y-88871431D02*
X143461907Y-89680954D01*
X143461907Y-89680954D02*
X143509526Y-89776192D01*
X143509526Y-89776192D02*
X143557145Y-89823812D01*
X143557145Y-89823812D02*
X143652383Y-89871431D01*
X143652383Y-89871431D02*
X143842859Y-89871431D01*
X143842859Y-89871431D02*
X143938097Y-89823812D01*
X143938097Y-89823812D02*
X143985716Y-89776192D01*
X143985716Y-89776192D02*
X144033335Y-89680954D01*
X144033335Y-89680954D02*
X144033335Y-88871431D01*
X145033335Y-89871431D02*
X144461907Y-89871431D01*
X144747621Y-89871431D02*
X144747621Y-88871431D01*
X144747621Y-88871431D02*
X144652383Y-89014288D01*
X144652383Y-89014288D02*
X144557145Y-89109526D01*
X144557145Y-89109526D02*
X144461907Y-89157145D01*
%TO.C,R4*%
X165657145Y-94176431D02*
X165323812Y-93700240D01*
X165085717Y-94176431D02*
X165085717Y-93176431D01*
X165085717Y-93176431D02*
X165466669Y-93176431D01*
X165466669Y-93176431D02*
X165561907Y-93224050D01*
X165561907Y-93224050D02*
X165609526Y-93271669D01*
X165609526Y-93271669D02*
X165657145Y-93366907D01*
X165657145Y-93366907D02*
X165657145Y-93509764D01*
X165657145Y-93509764D02*
X165609526Y-93605002D01*
X165609526Y-93605002D02*
X165561907Y-93652621D01*
X165561907Y-93652621D02*
X165466669Y-93700240D01*
X165466669Y-93700240D02*
X165085717Y-93700240D01*
X166514288Y-93509764D02*
X166514288Y-94176431D01*
X166276193Y-93128812D02*
X166038098Y-93843097D01*
X166038098Y-93843097D02*
X166657145Y-93843097D01*
%TO.C,J3*%
X143953812Y-119776431D02*
X144144288Y-119776431D01*
X144144288Y-119776431D02*
X144239526Y-119824050D01*
X144239526Y-119824050D02*
X144334764Y-119919288D01*
X144334764Y-119919288D02*
X144382383Y-120109764D01*
X144382383Y-120109764D02*
X144382383Y-120443097D01*
X144382383Y-120443097D02*
X144334764Y-120633573D01*
X144334764Y-120633573D02*
X144239526Y-120728812D01*
X144239526Y-120728812D02*
X144144288Y-120776431D01*
X144144288Y-120776431D02*
X143953812Y-120776431D01*
X143953812Y-120776431D02*
X143858574Y-120728812D01*
X143858574Y-120728812D02*
X143763336Y-120633573D01*
X143763336Y-120633573D02*
X143715717Y-120443097D01*
X143715717Y-120443097D02*
X143715717Y-120109764D01*
X143715717Y-120109764D02*
X143763336Y-119919288D01*
X143763336Y-119919288D02*
X143858574Y-119824050D01*
X143858574Y-119824050D02*
X143953812Y-119776431D01*
X144810955Y-119776431D02*
X144810955Y-120585954D01*
X144810955Y-120585954D02*
X144858574Y-120681192D01*
X144858574Y-120681192D02*
X144906193Y-120728812D01*
X144906193Y-120728812D02*
X145001431Y-120776431D01*
X145001431Y-120776431D02*
X145191907Y-120776431D01*
X145191907Y-120776431D02*
X145287145Y-120728812D01*
X145287145Y-120728812D02*
X145334764Y-120681192D01*
X145334764Y-120681192D02*
X145382383Y-120585954D01*
X145382383Y-120585954D02*
X145382383Y-119776431D01*
X145715717Y-119776431D02*
X146287145Y-119776431D01*
X146001431Y-120776431D02*
X146001431Y-119776431D01*
%TO.C,R12*%
X129010954Y-79896431D02*
X128677621Y-79420240D01*
X128439526Y-79896431D02*
X128439526Y-78896431D01*
X128439526Y-78896431D02*
X128820478Y-78896431D01*
X128820478Y-78896431D02*
X128915716Y-78944050D01*
X128915716Y-78944050D02*
X128963335Y-78991669D01*
X128963335Y-78991669D02*
X129010954Y-79086907D01*
X129010954Y-79086907D02*
X129010954Y-79229764D01*
X129010954Y-79229764D02*
X128963335Y-79325002D01*
X128963335Y-79325002D02*
X128915716Y-79372621D01*
X128915716Y-79372621D02*
X128820478Y-79420240D01*
X128820478Y-79420240D02*
X128439526Y-79420240D01*
X129963335Y-79896431D02*
X129391907Y-79896431D01*
X129677621Y-79896431D02*
X129677621Y-78896431D01*
X129677621Y-78896431D02*
X129582383Y-79039288D01*
X129582383Y-79039288D02*
X129487145Y-79134526D01*
X129487145Y-79134526D02*
X129391907Y-79182145D01*
X130344288Y-78991669D02*
X130391907Y-78944050D01*
X130391907Y-78944050D02*
X130487145Y-78896431D01*
X130487145Y-78896431D02*
X130725240Y-78896431D01*
X130725240Y-78896431D02*
X130820478Y-78944050D01*
X130820478Y-78944050D02*
X130868097Y-78991669D01*
X130868097Y-78991669D02*
X130915716Y-79086907D01*
X130915716Y-79086907D02*
X130915716Y-79182145D01*
X130915716Y-79182145D02*
X130868097Y-79325002D01*
X130868097Y-79325002D02*
X130296669Y-79896431D01*
X130296669Y-79896431D02*
X130915716Y-79896431D01*
%TO.C,RV1*%
X157246431Y-53764050D02*
X156770240Y-54097383D01*
X157246431Y-54335478D02*
X156246431Y-54335478D01*
X156246431Y-54335478D02*
X156246431Y-53954526D01*
X156246431Y-53954526D02*
X156294050Y-53859288D01*
X156294050Y-53859288D02*
X156341669Y-53811669D01*
X156341669Y-53811669D02*
X156436907Y-53764050D01*
X156436907Y-53764050D02*
X156579764Y-53764050D01*
X156579764Y-53764050D02*
X156675002Y-53811669D01*
X156675002Y-53811669D02*
X156722621Y-53859288D01*
X156722621Y-53859288D02*
X156770240Y-53954526D01*
X156770240Y-53954526D02*
X156770240Y-54335478D01*
X156246431Y-53478335D02*
X157246431Y-53145002D01*
X157246431Y-53145002D02*
X156246431Y-52811669D01*
X157246431Y-51954526D02*
X157246431Y-52525954D01*
X157246431Y-52240240D02*
X156246431Y-52240240D01*
X156246431Y-52240240D02*
X156389288Y-52335478D01*
X156389288Y-52335478D02*
X156484526Y-52430716D01*
X156484526Y-52430716D02*
X156532145Y-52525954D01*
%TO.C,R11*%
X126630954Y-82516431D02*
X126297621Y-82040240D01*
X126059526Y-82516431D02*
X126059526Y-81516431D01*
X126059526Y-81516431D02*
X126440478Y-81516431D01*
X126440478Y-81516431D02*
X126535716Y-81564050D01*
X126535716Y-81564050D02*
X126583335Y-81611669D01*
X126583335Y-81611669D02*
X126630954Y-81706907D01*
X126630954Y-81706907D02*
X126630954Y-81849764D01*
X126630954Y-81849764D02*
X126583335Y-81945002D01*
X126583335Y-81945002D02*
X126535716Y-81992621D01*
X126535716Y-81992621D02*
X126440478Y-82040240D01*
X126440478Y-82040240D02*
X126059526Y-82040240D01*
X127583335Y-82516431D02*
X127011907Y-82516431D01*
X127297621Y-82516431D02*
X127297621Y-81516431D01*
X127297621Y-81516431D02*
X127202383Y-81659288D01*
X127202383Y-81659288D02*
X127107145Y-81754526D01*
X127107145Y-81754526D02*
X127011907Y-81802145D01*
X128535716Y-82516431D02*
X127964288Y-82516431D01*
X128250002Y-82516431D02*
X128250002Y-81516431D01*
X128250002Y-81516431D02*
X128154764Y-81659288D01*
X128154764Y-81659288D02*
X128059526Y-81754526D01*
X128059526Y-81754526D02*
X127964288Y-81802145D01*
%TO.C,R19*%
X167892619Y-88202857D02*
X167416428Y-88536190D01*
X167892619Y-88774285D02*
X166892619Y-88774285D01*
X166892619Y-88774285D02*
X166892619Y-88393333D01*
X166892619Y-88393333D02*
X166940238Y-88298095D01*
X166940238Y-88298095D02*
X166987857Y-88250476D01*
X166987857Y-88250476D02*
X167083095Y-88202857D01*
X167083095Y-88202857D02*
X167225952Y-88202857D01*
X167225952Y-88202857D02*
X167321190Y-88250476D01*
X167321190Y-88250476D02*
X167368809Y-88298095D01*
X167368809Y-88298095D02*
X167416428Y-88393333D01*
X167416428Y-88393333D02*
X167416428Y-88774285D01*
X167892619Y-87250476D02*
X167892619Y-87821904D01*
X167892619Y-87536190D02*
X166892619Y-87536190D01*
X166892619Y-87536190D02*
X167035476Y-87631428D01*
X167035476Y-87631428D02*
X167130714Y-87726666D01*
X167130714Y-87726666D02*
X167178333Y-87821904D01*
X167892619Y-86774285D02*
X167892619Y-86583809D01*
X167892619Y-86583809D02*
X167845000Y-86488571D01*
X167845000Y-86488571D02*
X167797380Y-86440952D01*
X167797380Y-86440952D02*
X167654523Y-86345714D01*
X167654523Y-86345714D02*
X167464047Y-86298095D01*
X167464047Y-86298095D02*
X167083095Y-86298095D01*
X167083095Y-86298095D02*
X166987857Y-86345714D01*
X166987857Y-86345714D02*
X166940238Y-86393333D01*
X166940238Y-86393333D02*
X166892619Y-86488571D01*
X166892619Y-86488571D02*
X166892619Y-86679047D01*
X166892619Y-86679047D02*
X166940238Y-86774285D01*
X166940238Y-86774285D02*
X166987857Y-86821904D01*
X166987857Y-86821904D02*
X167083095Y-86869523D01*
X167083095Y-86869523D02*
X167321190Y-86869523D01*
X167321190Y-86869523D02*
X167416428Y-86821904D01*
X167416428Y-86821904D02*
X167464047Y-86774285D01*
X167464047Y-86774285D02*
X167511666Y-86679047D01*
X167511666Y-86679047D02*
X167511666Y-86488571D01*
X167511666Y-86488571D02*
X167464047Y-86393333D01*
X167464047Y-86393333D02*
X167416428Y-86345714D01*
X167416428Y-86345714D02*
X167321190Y-86298095D01*
%TO.C,R10*%
X134822619Y-86202857D02*
X134346428Y-86536190D01*
X134822619Y-86774285D02*
X133822619Y-86774285D01*
X133822619Y-86774285D02*
X133822619Y-86393333D01*
X133822619Y-86393333D02*
X133870238Y-86298095D01*
X133870238Y-86298095D02*
X133917857Y-86250476D01*
X133917857Y-86250476D02*
X134013095Y-86202857D01*
X134013095Y-86202857D02*
X134155952Y-86202857D01*
X134155952Y-86202857D02*
X134251190Y-86250476D01*
X134251190Y-86250476D02*
X134298809Y-86298095D01*
X134298809Y-86298095D02*
X134346428Y-86393333D01*
X134346428Y-86393333D02*
X134346428Y-86774285D01*
X134822619Y-85250476D02*
X134822619Y-85821904D01*
X134822619Y-85536190D02*
X133822619Y-85536190D01*
X133822619Y-85536190D02*
X133965476Y-85631428D01*
X133965476Y-85631428D02*
X134060714Y-85726666D01*
X134060714Y-85726666D02*
X134108333Y-85821904D01*
X133822619Y-84631428D02*
X133822619Y-84536190D01*
X133822619Y-84536190D02*
X133870238Y-84440952D01*
X133870238Y-84440952D02*
X133917857Y-84393333D01*
X133917857Y-84393333D02*
X134013095Y-84345714D01*
X134013095Y-84345714D02*
X134203571Y-84298095D01*
X134203571Y-84298095D02*
X134441666Y-84298095D01*
X134441666Y-84298095D02*
X134632142Y-84345714D01*
X134632142Y-84345714D02*
X134727380Y-84393333D01*
X134727380Y-84393333D02*
X134775000Y-84440952D01*
X134775000Y-84440952D02*
X134822619Y-84536190D01*
X134822619Y-84536190D02*
X134822619Y-84631428D01*
X134822619Y-84631428D02*
X134775000Y-84726666D01*
X134775000Y-84726666D02*
X134727380Y-84774285D01*
X134727380Y-84774285D02*
X134632142Y-84821904D01*
X134632142Y-84821904D02*
X134441666Y-84869523D01*
X134441666Y-84869523D02*
X134203571Y-84869523D01*
X134203571Y-84869523D02*
X134013095Y-84821904D01*
X134013095Y-84821904D02*
X133917857Y-84774285D01*
X133917857Y-84774285D02*
X133870238Y-84726666D01*
X133870238Y-84726666D02*
X133822619Y-84631428D01*
%TO.C,C3*%
X142617380Y-92606666D02*
X142665000Y-92654285D01*
X142665000Y-92654285D02*
X142712619Y-92797142D01*
X142712619Y-92797142D02*
X142712619Y-92892380D01*
X142712619Y-92892380D02*
X142665000Y-93035237D01*
X142665000Y-93035237D02*
X142569761Y-93130475D01*
X142569761Y-93130475D02*
X142474523Y-93178094D01*
X142474523Y-93178094D02*
X142284047Y-93225713D01*
X142284047Y-93225713D02*
X142141190Y-93225713D01*
X142141190Y-93225713D02*
X141950714Y-93178094D01*
X141950714Y-93178094D02*
X141855476Y-93130475D01*
X141855476Y-93130475D02*
X141760238Y-93035237D01*
X141760238Y-93035237D02*
X141712619Y-92892380D01*
X141712619Y-92892380D02*
X141712619Y-92797142D01*
X141712619Y-92797142D02*
X141760238Y-92654285D01*
X141760238Y-92654285D02*
X141807857Y-92606666D01*
X141712619Y-92273332D02*
X141712619Y-91654285D01*
X141712619Y-91654285D02*
X142093571Y-91987618D01*
X142093571Y-91987618D02*
X142093571Y-91844761D01*
X142093571Y-91844761D02*
X142141190Y-91749523D01*
X142141190Y-91749523D02*
X142188809Y-91701904D01*
X142188809Y-91701904D02*
X142284047Y-91654285D01*
X142284047Y-91654285D02*
X142522142Y-91654285D01*
X142522142Y-91654285D02*
X142617380Y-91701904D01*
X142617380Y-91701904D02*
X142665000Y-91749523D01*
X142665000Y-91749523D02*
X142712619Y-91844761D01*
X142712619Y-91844761D02*
X142712619Y-92130475D01*
X142712619Y-92130475D02*
X142665000Y-92225713D01*
X142665000Y-92225713D02*
X142617380Y-92273332D01*
%TO.C,JOVGI2*%
X145841907Y-95546431D02*
X146032383Y-95546431D01*
X146032383Y-95546431D02*
X146127621Y-95594050D01*
X146127621Y-95594050D02*
X146222859Y-95689288D01*
X146222859Y-95689288D02*
X146270478Y-95879764D01*
X146270478Y-95879764D02*
X146270478Y-96213097D01*
X146270478Y-96213097D02*
X146222859Y-96403573D01*
X146222859Y-96403573D02*
X146127621Y-96498812D01*
X146127621Y-96498812D02*
X146032383Y-96546431D01*
X146032383Y-96546431D02*
X145841907Y-96546431D01*
X145841907Y-96546431D02*
X145746669Y-96498812D01*
X145746669Y-96498812D02*
X145651431Y-96403573D01*
X145651431Y-96403573D02*
X145603812Y-96213097D01*
X145603812Y-96213097D02*
X145603812Y-95879764D01*
X145603812Y-95879764D02*
X145651431Y-95689288D01*
X145651431Y-95689288D02*
X145746669Y-95594050D01*
X145746669Y-95594050D02*
X145841907Y-95546431D01*
X146556193Y-95546431D02*
X146889526Y-96546431D01*
X146889526Y-96546431D02*
X147222859Y-95546431D01*
X148080002Y-95594050D02*
X147984764Y-95546431D01*
X147984764Y-95546431D02*
X147841907Y-95546431D01*
X147841907Y-95546431D02*
X147699050Y-95594050D01*
X147699050Y-95594050D02*
X147603812Y-95689288D01*
X147603812Y-95689288D02*
X147556193Y-95784526D01*
X147556193Y-95784526D02*
X147508574Y-95975002D01*
X147508574Y-95975002D02*
X147508574Y-96117859D01*
X147508574Y-96117859D02*
X147556193Y-96308335D01*
X147556193Y-96308335D02*
X147603812Y-96403573D01*
X147603812Y-96403573D02*
X147699050Y-96498812D01*
X147699050Y-96498812D02*
X147841907Y-96546431D01*
X147841907Y-96546431D02*
X147937145Y-96546431D01*
X147937145Y-96546431D02*
X148080002Y-96498812D01*
X148080002Y-96498812D02*
X148127621Y-96451192D01*
X148127621Y-96451192D02*
X148127621Y-96117859D01*
X148127621Y-96117859D02*
X147937145Y-96117859D01*
X148556193Y-96546431D02*
X148556193Y-95546431D01*
%TO.C,U3*%
X144951907Y-64146431D02*
X144951907Y-64955954D01*
X144951907Y-64955954D02*
X144999526Y-65051192D01*
X144999526Y-65051192D02*
X145047145Y-65098812D01*
X145047145Y-65098812D02*
X145142383Y-65146431D01*
X145142383Y-65146431D02*
X145332859Y-65146431D01*
X145332859Y-65146431D02*
X145428097Y-65098812D01*
X145428097Y-65098812D02*
X145475716Y-65051192D01*
X145475716Y-65051192D02*
X145523335Y-64955954D01*
X145523335Y-64955954D02*
X145523335Y-64146431D01*
X145904288Y-64146431D02*
X146523335Y-64146431D01*
X146523335Y-64146431D02*
X146190002Y-64527383D01*
X146190002Y-64527383D02*
X146332859Y-64527383D01*
X146332859Y-64527383D02*
X146428097Y-64575002D01*
X146428097Y-64575002D02*
X146475716Y-64622621D01*
X146475716Y-64622621D02*
X146523335Y-64717859D01*
X146523335Y-64717859D02*
X146523335Y-64955954D01*
X146523335Y-64955954D02*
X146475716Y-65051192D01*
X146475716Y-65051192D02*
X146428097Y-65098812D01*
X146428097Y-65098812D02*
X146332859Y-65146431D01*
X146332859Y-65146431D02*
X146047145Y-65146431D01*
X146047145Y-65146431D02*
X145951907Y-65098812D01*
X145951907Y-65098812D02*
X145904288Y-65051192D01*
%TO.C,R2*%
X161423262Y-96462548D02*
X161089929Y-95986357D01*
X160851834Y-96462548D02*
X160851834Y-95462548D01*
X160851834Y-95462548D02*
X161232786Y-95462548D01*
X161232786Y-95462548D02*
X161328024Y-95510167D01*
X161328024Y-95510167D02*
X161375643Y-95557786D01*
X161375643Y-95557786D02*
X161423262Y-95653024D01*
X161423262Y-95653024D02*
X161423262Y-95795881D01*
X161423262Y-95795881D02*
X161375643Y-95891119D01*
X161375643Y-95891119D02*
X161328024Y-95938738D01*
X161328024Y-95938738D02*
X161232786Y-95986357D01*
X161232786Y-95986357D02*
X160851834Y-95986357D01*
X161804215Y-95557786D02*
X161851834Y-95510167D01*
X161851834Y-95510167D02*
X161947072Y-95462548D01*
X161947072Y-95462548D02*
X162185167Y-95462548D01*
X162185167Y-95462548D02*
X162280405Y-95510167D01*
X162280405Y-95510167D02*
X162328024Y-95557786D01*
X162328024Y-95557786D02*
X162375643Y-95653024D01*
X162375643Y-95653024D02*
X162375643Y-95748262D01*
X162375643Y-95748262D02*
X162328024Y-95891119D01*
X162328024Y-95891119D02*
X161756596Y-96462548D01*
X161756596Y-96462548D02*
X162375643Y-96462548D01*
%TO.C,C10*%
X152427142Y-72777380D02*
X152379523Y-72825000D01*
X152379523Y-72825000D02*
X152236666Y-72872619D01*
X152236666Y-72872619D02*
X152141428Y-72872619D01*
X152141428Y-72872619D02*
X151998571Y-72825000D01*
X151998571Y-72825000D02*
X151903333Y-72729761D01*
X151903333Y-72729761D02*
X151855714Y-72634523D01*
X151855714Y-72634523D02*
X151808095Y-72444047D01*
X151808095Y-72444047D02*
X151808095Y-72301190D01*
X151808095Y-72301190D02*
X151855714Y-72110714D01*
X151855714Y-72110714D02*
X151903333Y-72015476D01*
X151903333Y-72015476D02*
X151998571Y-71920238D01*
X151998571Y-71920238D02*
X152141428Y-71872619D01*
X152141428Y-71872619D02*
X152236666Y-71872619D01*
X152236666Y-71872619D02*
X152379523Y-71920238D01*
X152379523Y-71920238D02*
X152427142Y-71967857D01*
X153379523Y-72872619D02*
X152808095Y-72872619D01*
X153093809Y-72872619D02*
X153093809Y-71872619D01*
X153093809Y-71872619D02*
X152998571Y-72015476D01*
X152998571Y-72015476D02*
X152903333Y-72110714D01*
X152903333Y-72110714D02*
X152808095Y-72158333D01*
X153998571Y-71872619D02*
X154093809Y-71872619D01*
X154093809Y-71872619D02*
X154189047Y-71920238D01*
X154189047Y-71920238D02*
X154236666Y-71967857D01*
X154236666Y-71967857D02*
X154284285Y-72063095D01*
X154284285Y-72063095D02*
X154331904Y-72253571D01*
X154331904Y-72253571D02*
X154331904Y-72491666D01*
X154331904Y-72491666D02*
X154284285Y-72682142D01*
X154284285Y-72682142D02*
X154236666Y-72777380D01*
X154236666Y-72777380D02*
X154189047Y-72825000D01*
X154189047Y-72825000D02*
X154093809Y-72872619D01*
X154093809Y-72872619D02*
X153998571Y-72872619D01*
X153998571Y-72872619D02*
X153903333Y-72825000D01*
X153903333Y-72825000D02*
X153855714Y-72777380D01*
X153855714Y-72777380D02*
X153808095Y-72682142D01*
X153808095Y-72682142D02*
X153760476Y-72491666D01*
X153760476Y-72491666D02*
X153760476Y-72253571D01*
X153760476Y-72253571D02*
X153808095Y-72063095D01*
X153808095Y-72063095D02*
X153855714Y-71967857D01*
X153855714Y-71967857D02*
X153903333Y-71920238D01*
X153903333Y-71920238D02*
X153998571Y-71872619D01*
%TO.C,C4*%
X136673333Y-95617380D02*
X136625714Y-95665000D01*
X136625714Y-95665000D02*
X136482857Y-95712619D01*
X136482857Y-95712619D02*
X136387619Y-95712619D01*
X136387619Y-95712619D02*
X136244762Y-95665000D01*
X136244762Y-95665000D02*
X136149524Y-95569761D01*
X136149524Y-95569761D02*
X136101905Y-95474523D01*
X136101905Y-95474523D02*
X136054286Y-95284047D01*
X136054286Y-95284047D02*
X136054286Y-95141190D01*
X136054286Y-95141190D02*
X136101905Y-94950714D01*
X136101905Y-94950714D02*
X136149524Y-94855476D01*
X136149524Y-94855476D02*
X136244762Y-94760238D01*
X136244762Y-94760238D02*
X136387619Y-94712619D01*
X136387619Y-94712619D02*
X136482857Y-94712619D01*
X136482857Y-94712619D02*
X136625714Y-94760238D01*
X136625714Y-94760238D02*
X136673333Y-94807857D01*
X137530476Y-95045952D02*
X137530476Y-95712619D01*
X137292381Y-94665000D02*
X137054286Y-95379285D01*
X137054286Y-95379285D02*
X137673333Y-95379285D01*
%TO.C,R1*%
X160072619Y-130276666D02*
X159596428Y-130609999D01*
X160072619Y-130848094D02*
X159072619Y-130848094D01*
X159072619Y-130848094D02*
X159072619Y-130467142D01*
X159072619Y-130467142D02*
X159120238Y-130371904D01*
X159120238Y-130371904D02*
X159167857Y-130324285D01*
X159167857Y-130324285D02*
X159263095Y-130276666D01*
X159263095Y-130276666D02*
X159405952Y-130276666D01*
X159405952Y-130276666D02*
X159501190Y-130324285D01*
X159501190Y-130324285D02*
X159548809Y-130371904D01*
X159548809Y-130371904D02*
X159596428Y-130467142D01*
X159596428Y-130467142D02*
X159596428Y-130848094D01*
X160072619Y-129324285D02*
X160072619Y-129895713D01*
X160072619Y-129609999D02*
X159072619Y-129609999D01*
X159072619Y-129609999D02*
X159215476Y-129705237D01*
X159215476Y-129705237D02*
X159310714Y-129800475D01*
X159310714Y-129800475D02*
X159358333Y-129895713D01*
%TO.C,C6*%
X138187380Y-78996666D02*
X138235000Y-79044285D01*
X138235000Y-79044285D02*
X138282619Y-79187142D01*
X138282619Y-79187142D02*
X138282619Y-79282380D01*
X138282619Y-79282380D02*
X138235000Y-79425237D01*
X138235000Y-79425237D02*
X138139761Y-79520475D01*
X138139761Y-79520475D02*
X138044523Y-79568094D01*
X138044523Y-79568094D02*
X137854047Y-79615713D01*
X137854047Y-79615713D02*
X137711190Y-79615713D01*
X137711190Y-79615713D02*
X137520714Y-79568094D01*
X137520714Y-79568094D02*
X137425476Y-79520475D01*
X137425476Y-79520475D02*
X137330238Y-79425237D01*
X137330238Y-79425237D02*
X137282619Y-79282380D01*
X137282619Y-79282380D02*
X137282619Y-79187142D01*
X137282619Y-79187142D02*
X137330238Y-79044285D01*
X137330238Y-79044285D02*
X137377857Y-78996666D01*
X137282619Y-78139523D02*
X137282619Y-78329999D01*
X137282619Y-78329999D02*
X137330238Y-78425237D01*
X137330238Y-78425237D02*
X137377857Y-78472856D01*
X137377857Y-78472856D02*
X137520714Y-78568094D01*
X137520714Y-78568094D02*
X137711190Y-78615713D01*
X137711190Y-78615713D02*
X138092142Y-78615713D01*
X138092142Y-78615713D02*
X138187380Y-78568094D01*
X138187380Y-78568094D02*
X138235000Y-78520475D01*
X138235000Y-78520475D02*
X138282619Y-78425237D01*
X138282619Y-78425237D02*
X138282619Y-78234761D01*
X138282619Y-78234761D02*
X138235000Y-78139523D01*
X138235000Y-78139523D02*
X138187380Y-78091904D01*
X138187380Y-78091904D02*
X138092142Y-78044285D01*
X138092142Y-78044285D02*
X137854047Y-78044285D01*
X137854047Y-78044285D02*
X137758809Y-78091904D01*
X137758809Y-78091904D02*
X137711190Y-78139523D01*
X137711190Y-78139523D02*
X137663571Y-78234761D01*
X137663571Y-78234761D02*
X137663571Y-78425237D01*
X137663571Y-78425237D02*
X137711190Y-78520475D01*
X137711190Y-78520475D02*
X137758809Y-78568094D01*
X137758809Y-78568094D02*
X137854047Y-78615713D01*
%TO.C,C15*%
X159117142Y-81887380D02*
X159069523Y-81935000D01*
X159069523Y-81935000D02*
X158926666Y-81982619D01*
X158926666Y-81982619D02*
X158831428Y-81982619D01*
X158831428Y-81982619D02*
X158688571Y-81935000D01*
X158688571Y-81935000D02*
X158593333Y-81839761D01*
X158593333Y-81839761D02*
X158545714Y-81744523D01*
X158545714Y-81744523D02*
X158498095Y-81554047D01*
X158498095Y-81554047D02*
X158498095Y-81411190D01*
X158498095Y-81411190D02*
X158545714Y-81220714D01*
X158545714Y-81220714D02*
X158593333Y-81125476D01*
X158593333Y-81125476D02*
X158688571Y-81030238D01*
X158688571Y-81030238D02*
X158831428Y-80982619D01*
X158831428Y-80982619D02*
X158926666Y-80982619D01*
X158926666Y-80982619D02*
X159069523Y-81030238D01*
X159069523Y-81030238D02*
X159117142Y-81077857D01*
X160069523Y-81982619D02*
X159498095Y-81982619D01*
X159783809Y-81982619D02*
X159783809Y-80982619D01*
X159783809Y-80982619D02*
X159688571Y-81125476D01*
X159688571Y-81125476D02*
X159593333Y-81220714D01*
X159593333Y-81220714D02*
X159498095Y-81268333D01*
X160974285Y-80982619D02*
X160498095Y-80982619D01*
X160498095Y-80982619D02*
X160450476Y-81458809D01*
X160450476Y-81458809D02*
X160498095Y-81411190D01*
X160498095Y-81411190D02*
X160593333Y-81363571D01*
X160593333Y-81363571D02*
X160831428Y-81363571D01*
X160831428Y-81363571D02*
X160926666Y-81411190D01*
X160926666Y-81411190D02*
X160974285Y-81458809D01*
X160974285Y-81458809D02*
X161021904Y-81554047D01*
X161021904Y-81554047D02*
X161021904Y-81792142D01*
X161021904Y-81792142D02*
X160974285Y-81887380D01*
X160974285Y-81887380D02*
X160926666Y-81935000D01*
X160926666Y-81935000D02*
X160831428Y-81982619D01*
X160831428Y-81982619D02*
X160593333Y-81982619D01*
X160593333Y-81982619D02*
X160498095Y-81935000D01*
X160498095Y-81935000D02*
X160450476Y-81887380D01*
%TO.C,R8*%
X127107145Y-87196431D02*
X126773812Y-86720240D01*
X126535717Y-87196431D02*
X126535717Y-86196431D01*
X126535717Y-86196431D02*
X126916669Y-86196431D01*
X126916669Y-86196431D02*
X127011907Y-86244050D01*
X127011907Y-86244050D02*
X127059526Y-86291669D01*
X127059526Y-86291669D02*
X127107145Y-86386907D01*
X127107145Y-86386907D02*
X127107145Y-86529764D01*
X127107145Y-86529764D02*
X127059526Y-86625002D01*
X127059526Y-86625002D02*
X127011907Y-86672621D01*
X127011907Y-86672621D02*
X126916669Y-86720240D01*
X126916669Y-86720240D02*
X126535717Y-86720240D01*
X127678574Y-86625002D02*
X127583336Y-86577383D01*
X127583336Y-86577383D02*
X127535717Y-86529764D01*
X127535717Y-86529764D02*
X127488098Y-86434526D01*
X127488098Y-86434526D02*
X127488098Y-86386907D01*
X127488098Y-86386907D02*
X127535717Y-86291669D01*
X127535717Y-86291669D02*
X127583336Y-86244050D01*
X127583336Y-86244050D02*
X127678574Y-86196431D01*
X127678574Y-86196431D02*
X127869050Y-86196431D01*
X127869050Y-86196431D02*
X127964288Y-86244050D01*
X127964288Y-86244050D02*
X128011907Y-86291669D01*
X128011907Y-86291669D02*
X128059526Y-86386907D01*
X128059526Y-86386907D02*
X128059526Y-86434526D01*
X128059526Y-86434526D02*
X128011907Y-86529764D01*
X128011907Y-86529764D02*
X127964288Y-86577383D01*
X127964288Y-86577383D02*
X127869050Y-86625002D01*
X127869050Y-86625002D02*
X127678574Y-86625002D01*
X127678574Y-86625002D02*
X127583336Y-86672621D01*
X127583336Y-86672621D02*
X127535717Y-86720240D01*
X127535717Y-86720240D02*
X127488098Y-86815478D01*
X127488098Y-86815478D02*
X127488098Y-87005954D01*
X127488098Y-87005954D02*
X127535717Y-87101192D01*
X127535717Y-87101192D02*
X127583336Y-87148812D01*
X127583336Y-87148812D02*
X127678574Y-87196431D01*
X127678574Y-87196431D02*
X127869050Y-87196431D01*
X127869050Y-87196431D02*
X127964288Y-87148812D01*
X127964288Y-87148812D02*
X128011907Y-87101192D01*
X128011907Y-87101192D02*
X128059526Y-87005954D01*
X128059526Y-87005954D02*
X128059526Y-86815478D01*
X128059526Y-86815478D02*
X128011907Y-86720240D01*
X128011907Y-86720240D02*
X127964288Y-86672621D01*
X127964288Y-86672621D02*
X127869050Y-86625002D01*
%TO.C,R6*%
X135609521Y-99618807D02*
X135276188Y-99142616D01*
X135038093Y-99618807D02*
X135038093Y-98618807D01*
X135038093Y-98618807D02*
X135419045Y-98618807D01*
X135419045Y-98618807D02*
X135514283Y-98666426D01*
X135514283Y-98666426D02*
X135561902Y-98714045D01*
X135561902Y-98714045D02*
X135609521Y-98809283D01*
X135609521Y-98809283D02*
X135609521Y-98952140D01*
X135609521Y-98952140D02*
X135561902Y-99047378D01*
X135561902Y-99047378D02*
X135514283Y-99094997D01*
X135514283Y-99094997D02*
X135419045Y-99142616D01*
X135419045Y-99142616D02*
X135038093Y-99142616D01*
X136466664Y-98618807D02*
X136276188Y-98618807D01*
X136276188Y-98618807D02*
X136180950Y-98666426D01*
X136180950Y-98666426D02*
X136133331Y-98714045D01*
X136133331Y-98714045D02*
X136038093Y-98856902D01*
X136038093Y-98856902D02*
X135990474Y-99047378D01*
X135990474Y-99047378D02*
X135990474Y-99428330D01*
X135990474Y-99428330D02*
X136038093Y-99523568D01*
X136038093Y-99523568D02*
X136085712Y-99571188D01*
X136085712Y-99571188D02*
X136180950Y-99618807D01*
X136180950Y-99618807D02*
X136371426Y-99618807D01*
X136371426Y-99618807D02*
X136466664Y-99571188D01*
X136466664Y-99571188D02*
X136514283Y-99523568D01*
X136514283Y-99523568D02*
X136561902Y-99428330D01*
X136561902Y-99428330D02*
X136561902Y-99190235D01*
X136561902Y-99190235D02*
X136514283Y-99094997D01*
X136514283Y-99094997D02*
X136466664Y-99047378D01*
X136466664Y-99047378D02*
X136371426Y-98999759D01*
X136371426Y-98999759D02*
X136180950Y-98999759D01*
X136180950Y-98999759D02*
X136085712Y-99047378D01*
X136085712Y-99047378D02*
X136038093Y-99094997D01*
X136038093Y-99094997D02*
X135990474Y-99190235D01*
%TO.C,R1*%
X161503262Y-98802548D02*
X161169929Y-98326357D01*
X160931834Y-98802548D02*
X160931834Y-97802548D01*
X160931834Y-97802548D02*
X161312786Y-97802548D01*
X161312786Y-97802548D02*
X161408024Y-97850167D01*
X161408024Y-97850167D02*
X161455643Y-97897786D01*
X161455643Y-97897786D02*
X161503262Y-97993024D01*
X161503262Y-97993024D02*
X161503262Y-98135881D01*
X161503262Y-98135881D02*
X161455643Y-98231119D01*
X161455643Y-98231119D02*
X161408024Y-98278738D01*
X161408024Y-98278738D02*
X161312786Y-98326357D01*
X161312786Y-98326357D02*
X160931834Y-98326357D01*
X162455643Y-98802548D02*
X161884215Y-98802548D01*
X162169929Y-98802548D02*
X162169929Y-97802548D01*
X162169929Y-97802548D02*
X162074691Y-97945405D01*
X162074691Y-97945405D02*
X161979453Y-98040643D01*
X161979453Y-98040643D02*
X161884215Y-98088262D01*
%TO.C,C1*%
X163203404Y-101167451D02*
X163155785Y-101215071D01*
X163155785Y-101215071D02*
X163012928Y-101262690D01*
X163012928Y-101262690D02*
X162917690Y-101262690D01*
X162917690Y-101262690D02*
X162774833Y-101215071D01*
X162774833Y-101215071D02*
X162679595Y-101119832D01*
X162679595Y-101119832D02*
X162631976Y-101024594D01*
X162631976Y-101024594D02*
X162584357Y-100834118D01*
X162584357Y-100834118D02*
X162584357Y-100691261D01*
X162584357Y-100691261D02*
X162631976Y-100500785D01*
X162631976Y-100500785D02*
X162679595Y-100405547D01*
X162679595Y-100405547D02*
X162774833Y-100310309D01*
X162774833Y-100310309D02*
X162917690Y-100262690D01*
X162917690Y-100262690D02*
X163012928Y-100262690D01*
X163012928Y-100262690D02*
X163155785Y-100310309D01*
X163155785Y-100310309D02*
X163203404Y-100357928D01*
X164155785Y-101262690D02*
X163584357Y-101262690D01*
X163870071Y-101262690D02*
X163870071Y-100262690D01*
X163870071Y-100262690D02*
X163774833Y-100405547D01*
X163774833Y-100405547D02*
X163679595Y-100500785D01*
X163679595Y-100500785D02*
X163584357Y-100548404D01*
%TO.C,D1*%
X126465717Y-132796431D02*
X126465717Y-131796431D01*
X126465717Y-131796431D02*
X126703812Y-131796431D01*
X126703812Y-131796431D02*
X126846669Y-131844050D01*
X126846669Y-131844050D02*
X126941907Y-131939288D01*
X126941907Y-131939288D02*
X126989526Y-132034526D01*
X126989526Y-132034526D02*
X127037145Y-132225002D01*
X127037145Y-132225002D02*
X127037145Y-132367859D01*
X127037145Y-132367859D02*
X126989526Y-132558335D01*
X126989526Y-132558335D02*
X126941907Y-132653573D01*
X126941907Y-132653573D02*
X126846669Y-132748812D01*
X126846669Y-132748812D02*
X126703812Y-132796431D01*
X126703812Y-132796431D02*
X126465717Y-132796431D01*
X127989526Y-132796431D02*
X127418098Y-132796431D01*
X127703812Y-132796431D02*
X127703812Y-131796431D01*
X127703812Y-131796431D02*
X127608574Y-131939288D01*
X127608574Y-131939288D02*
X127513336Y-132034526D01*
X127513336Y-132034526D02*
X127418098Y-132082145D01*
D11*
%TO.C,R15*%
X156910000Y-74920000D02*
X155960000Y-74920000D01*
X155960000Y-75840000D02*
X155960000Y-74000000D01*
X155960000Y-74000000D02*
X152120000Y-74000000D01*
X152120000Y-75840000D02*
X155960000Y-75840000D01*
X152120000Y-74000000D02*
X152120000Y-75840000D01*
X151170000Y-74920000D02*
X152120000Y-74920000D01*
%TO.C,R16*%
X165353812Y-81513812D02*
X166303812Y-81513812D01*
X166303812Y-80593812D02*
X166303812Y-82433812D01*
X166303812Y-82433812D02*
X170143812Y-82433812D01*
X170143812Y-80593812D02*
X166303812Y-80593812D01*
X170143812Y-82433812D02*
X170143812Y-80593812D01*
X171093812Y-81513812D02*
X170143812Y-81513812D01*
%TO.C,C11*%
X129359698Y-67545000D02*
X128559698Y-67545000D01*
X128959698Y-67945000D02*
X128959698Y-67145000D01*
X124950000Y-69310000D02*
X124950000Y-61150000D01*
X124910000Y-69310000D02*
X124910000Y-61150000D01*
X124870000Y-69310000D02*
X124870000Y-61150000D01*
X124830000Y-69309000D02*
X124830000Y-61151000D01*
X124790000Y-69307000D02*
X124790000Y-61153000D01*
X124750000Y-69306000D02*
X124750000Y-61154000D01*
X124710000Y-69304000D02*
X124710000Y-66270000D01*
X124710000Y-64190000D02*
X124710000Y-61156000D01*
X124670000Y-69301000D02*
X124670000Y-66270000D01*
X124670000Y-64190000D02*
X124670000Y-61159000D01*
X124630000Y-69298000D02*
X124630000Y-66270000D01*
X124630000Y-64190000D02*
X124630000Y-61162000D01*
X124590000Y-69295000D02*
X124590000Y-66270000D01*
X124590000Y-64190000D02*
X124590000Y-61165000D01*
X124550000Y-69291000D02*
X124550000Y-66270000D01*
X124550000Y-64190000D02*
X124550000Y-61169000D01*
X124510000Y-69287000D02*
X124510000Y-66270000D01*
X124510000Y-64190000D02*
X124510000Y-61173000D01*
X124470000Y-69282000D02*
X124470000Y-66270000D01*
X124470000Y-64190000D02*
X124470000Y-61178000D01*
X124430000Y-69278000D02*
X124430000Y-66270000D01*
X124430000Y-64190000D02*
X124430000Y-61182000D01*
X124390000Y-69272000D02*
X124390000Y-66270000D01*
X124390000Y-64190000D02*
X124390000Y-61188000D01*
X124350000Y-69267000D02*
X124350000Y-66270000D01*
X124350000Y-64190000D02*
X124350000Y-61193000D01*
X124310000Y-69260000D02*
X124310000Y-66270000D01*
X124310000Y-64190000D02*
X124310000Y-61200000D01*
X124270000Y-69254000D02*
X124270000Y-66270000D01*
X124270000Y-64190000D02*
X124270000Y-61206000D01*
X124229000Y-69247000D02*
X124229000Y-66270000D01*
X124229000Y-64190000D02*
X124229000Y-61213000D01*
X124189000Y-69240000D02*
X124189000Y-66270000D01*
X124189000Y-64190000D02*
X124189000Y-61220000D01*
X124149000Y-69232000D02*
X124149000Y-66270000D01*
X124149000Y-64190000D02*
X124149000Y-61228000D01*
X124109000Y-69224000D02*
X124109000Y-66270000D01*
X124109000Y-64190000D02*
X124109000Y-61236000D01*
X124069000Y-69215000D02*
X124069000Y-66270000D01*
X124069000Y-64190000D02*
X124069000Y-61245000D01*
X124029000Y-69206000D02*
X124029000Y-66270000D01*
X124029000Y-64190000D02*
X124029000Y-61254000D01*
X123989000Y-69197000D02*
X123989000Y-66270000D01*
X123989000Y-64190000D02*
X123989000Y-61263000D01*
X123949000Y-69187000D02*
X123949000Y-66270000D01*
X123949000Y-64190000D02*
X123949000Y-61273000D01*
X123909000Y-69177000D02*
X123909000Y-66270000D01*
X123909000Y-64190000D02*
X123909000Y-61283000D01*
X123869000Y-69166000D02*
X123869000Y-66270000D01*
X123869000Y-64190000D02*
X123869000Y-61294000D01*
X123829000Y-69155000D02*
X123829000Y-66270000D01*
X123829000Y-64190000D02*
X123829000Y-61305000D01*
X123789000Y-69144000D02*
X123789000Y-66270000D01*
X123789000Y-64190000D02*
X123789000Y-61316000D01*
X123749000Y-69132000D02*
X123749000Y-66270000D01*
X123749000Y-64190000D02*
X123749000Y-61328000D01*
X123709000Y-69119000D02*
X123709000Y-66270000D01*
X123709000Y-64190000D02*
X123709000Y-61341000D01*
X123669000Y-69107000D02*
X123669000Y-66270000D01*
X123669000Y-64190000D02*
X123669000Y-61353000D01*
X123629000Y-69093000D02*
X123629000Y-66270000D01*
X123629000Y-64190000D02*
X123629000Y-61367000D01*
X123589000Y-69080000D02*
X123589000Y-66270000D01*
X123589000Y-64190000D02*
X123589000Y-61380000D01*
X123549000Y-69065000D02*
X123549000Y-66270000D01*
X123549000Y-64190000D02*
X123549000Y-61395000D01*
X123509000Y-69051000D02*
X123509000Y-66270000D01*
X123509000Y-64190000D02*
X123509000Y-61409000D01*
X123469000Y-69035000D02*
X123469000Y-66270000D01*
X123469000Y-64190000D02*
X123469000Y-61425000D01*
X123429000Y-69020000D02*
X123429000Y-66270000D01*
X123429000Y-64190000D02*
X123429000Y-61440000D01*
X123389000Y-69004000D02*
X123389000Y-66270000D01*
X123389000Y-64190000D02*
X123389000Y-61456000D01*
X123349000Y-68987000D02*
X123349000Y-66270000D01*
X123349000Y-64190000D02*
X123349000Y-61473000D01*
X123309000Y-68970000D02*
X123309000Y-66270000D01*
X123309000Y-64190000D02*
X123309000Y-61490000D01*
X123269000Y-68952000D02*
X123269000Y-66270000D01*
X123269000Y-64190000D02*
X123269000Y-61508000D01*
X123229000Y-68934000D02*
X123229000Y-66270000D01*
X123229000Y-64190000D02*
X123229000Y-61526000D01*
X123189000Y-68916000D02*
X123189000Y-66270000D01*
X123189000Y-64190000D02*
X123189000Y-61544000D01*
X123149000Y-68896000D02*
X123149000Y-66270000D01*
X123149000Y-64190000D02*
X123149000Y-61564000D01*
X123109000Y-68877000D02*
X123109000Y-66270000D01*
X123109000Y-64190000D02*
X123109000Y-61583000D01*
X123069000Y-68857000D02*
X123069000Y-66270000D01*
X123069000Y-64190000D02*
X123069000Y-61603000D01*
X123029000Y-68836000D02*
X123029000Y-66270000D01*
X123029000Y-64190000D02*
X123029000Y-61624000D01*
X122989000Y-68814000D02*
X122989000Y-66270000D01*
X122989000Y-64190000D02*
X122989000Y-61646000D01*
X122949000Y-68792000D02*
X122949000Y-66270000D01*
X122949000Y-64190000D02*
X122949000Y-61668000D01*
X122909000Y-68770000D02*
X122909000Y-66270000D01*
X122909000Y-64190000D02*
X122909000Y-61690000D01*
X122869000Y-68747000D02*
X122869000Y-66270000D01*
X122869000Y-64190000D02*
X122869000Y-61713000D01*
X122829000Y-68723000D02*
X122829000Y-66270000D01*
X122829000Y-64190000D02*
X122829000Y-61737000D01*
X122789000Y-68699000D02*
X122789000Y-66270000D01*
X122789000Y-64190000D02*
X122789000Y-61761000D01*
X122749000Y-68674000D02*
X122749000Y-66270000D01*
X122749000Y-64190000D02*
X122749000Y-61786000D01*
X122709000Y-68648000D02*
X122709000Y-66270000D01*
X122709000Y-64190000D02*
X122709000Y-61812000D01*
X122669000Y-68622000D02*
X122669000Y-66270000D01*
X122669000Y-64190000D02*
X122669000Y-61838000D01*
X122629000Y-68595000D02*
X122629000Y-61865000D01*
X122589000Y-68568000D02*
X122589000Y-61892000D01*
X122549000Y-68539000D02*
X122549000Y-61921000D01*
X122509000Y-68510000D02*
X122509000Y-61950000D01*
X122469000Y-68480000D02*
X122469000Y-61980000D01*
X122429000Y-68450000D02*
X122429000Y-62010000D01*
X122389000Y-68419000D02*
X122389000Y-62041000D01*
X122349000Y-68386000D02*
X122349000Y-62074000D01*
X122309000Y-68354000D02*
X122309000Y-62106000D01*
X122269000Y-68320000D02*
X122269000Y-62140000D01*
X122229000Y-68285000D02*
X122229000Y-62175000D01*
X122189000Y-68249000D02*
X122189000Y-62211000D01*
X122149000Y-68213000D02*
X122149000Y-62247000D01*
X122109000Y-68175000D02*
X122109000Y-62285000D01*
X122069000Y-68137000D02*
X122069000Y-62323000D01*
X122029000Y-68097000D02*
X122029000Y-62363000D01*
X121989000Y-68056000D02*
X121989000Y-62404000D01*
X121949000Y-68014000D02*
X121949000Y-62446000D01*
X121909000Y-67971000D02*
X121909000Y-62489000D01*
X121869000Y-67927000D02*
X121869000Y-62533000D01*
X121829000Y-67881000D02*
X121829000Y-62579000D01*
X121789000Y-67834000D02*
X121789000Y-62626000D01*
X121749000Y-67786000D02*
X121749000Y-62674000D01*
X121709000Y-67735000D02*
X121709000Y-62725000D01*
X121669000Y-67684000D02*
X121669000Y-62776000D01*
X121629000Y-67630000D02*
X121629000Y-62830000D01*
X121589000Y-67575000D02*
X121589000Y-62885000D01*
X121549000Y-67517000D02*
X121549000Y-62943000D01*
X121509000Y-67458000D02*
X121509000Y-63002000D01*
X121469000Y-67396000D02*
X121469000Y-63064000D01*
X121429000Y-67332000D02*
X121429000Y-63128000D01*
X121389000Y-67264000D02*
X121389000Y-63196000D01*
X121349000Y-67194000D02*
X121349000Y-63266000D01*
X121309000Y-67120000D02*
X121309000Y-63340000D01*
X121269000Y-67043000D02*
X121269000Y-63417000D01*
X121229000Y-66961000D02*
X121229000Y-63499000D01*
X121189000Y-66875000D02*
X121189000Y-63585000D01*
X121149000Y-66782000D02*
X121149000Y-63678000D01*
X121109000Y-66683000D02*
X121109000Y-63777000D01*
X121069000Y-66576000D02*
X121069000Y-63884000D01*
X121029000Y-66459000D02*
X121029000Y-64001000D01*
X120989000Y-66328000D02*
X120989000Y-64132000D01*
X120949000Y-66178000D02*
X120949000Y-64282000D01*
X120909000Y-65998000D02*
X120909000Y-64462000D01*
X120869000Y-65763000D02*
X120869000Y-64697000D01*
X129070000Y-65230000D02*
G75*
G03*
X129070000Y-65230000I-4120000J0D01*
G01*
%TO.C,J2*%
X171453812Y-105723812D02*
X171453812Y-124013812D01*
X168903812Y-105723812D02*
X171453812Y-105723812D01*
X162563812Y-105723812D02*
X165993812Y-105723812D01*
X156213812Y-105723812D02*
X159643812Y-105723812D01*
X150843812Y-105723812D02*
X153293812Y-105723812D01*
X150843812Y-105723812D02*
X150843812Y-124013812D01*
X174453812Y-109023812D02*
X171453812Y-109023812D01*
X174453812Y-109023812D02*
X174453812Y-120723812D01*
X150813812Y-110613812D02*
X147593812Y-110613812D01*
X147573812Y-110613812D02*
X147573812Y-119093812D01*
X150813812Y-119123812D02*
X147593812Y-119123812D01*
X174453812Y-120723812D02*
X171453812Y-120723812D01*
X171453812Y-124013812D02*
X168903812Y-124013812D01*
X165993812Y-124013812D02*
X162563812Y-124013812D01*
X159643812Y-124013812D02*
X156213812Y-124013812D01*
X150843812Y-124013812D02*
X153293812Y-124013812D01*
%TO.C,R7*%
X130073812Y-89153812D02*
X129123812Y-89153812D01*
X129123812Y-90073812D02*
X129123812Y-88233812D01*
X129123812Y-88233812D02*
X125283812Y-88233812D01*
X125283812Y-90073812D02*
X129123812Y-90073812D01*
X125283812Y-88233812D02*
X125283812Y-90073812D01*
X124333812Y-89153812D02*
X125283812Y-89153812D01*
%TO.C,J4*%
X149673812Y-107813812D02*
X149673812Y-109143812D01*
X148343812Y-107813812D02*
X149673812Y-107813812D01*
X147073812Y-107813812D02*
X144473812Y-107813812D01*
X147073812Y-107813812D02*
X147073812Y-110473812D01*
X144473812Y-107813812D02*
X144473812Y-110473812D01*
X147073812Y-110473812D02*
X144473812Y-110473812D01*
%TO.C,C9*%
X156710000Y-70690000D02*
X156710000Y-67950000D01*
X156710000Y-70690000D02*
X149470000Y-70690000D01*
X156710000Y-67950000D02*
X149470000Y-67950000D01*
X149470000Y-70690000D02*
X149470000Y-67950000D01*
%TO.C,R13*%
X126903812Y-76833812D02*
X127853812Y-76833812D01*
X127853812Y-75913812D02*
X127853812Y-77753812D01*
X127853812Y-77753812D02*
X131693812Y-77753812D01*
X131693812Y-75913812D02*
X127853812Y-75913812D01*
X131693812Y-77753812D02*
X131693812Y-75913812D01*
X132643812Y-76833812D02*
X131693812Y-76833812D01*
%TO.C,C2*%
X133180000Y-90740000D02*
X133180000Y-93480000D01*
X133180000Y-90740000D02*
X140420000Y-90740000D01*
X133180000Y-93480000D02*
X140420000Y-93480000D01*
X140420000Y-90740000D02*
X140420000Y-93480000D01*
%TO.C,C13*%
X168928812Y-61654114D02*
X168928812Y-62454114D01*
X169328812Y-62054114D02*
X168528812Y-62054114D01*
X170693812Y-66063812D02*
X162533812Y-66063812D01*
X170693812Y-66103812D02*
X162533812Y-66103812D01*
X170693812Y-66143812D02*
X162533812Y-66143812D01*
X170692812Y-66183812D02*
X162534812Y-66183812D01*
X170690812Y-66223812D02*
X162536812Y-66223812D01*
X170689812Y-66263812D02*
X162537812Y-66263812D01*
X170687812Y-66303812D02*
X167653812Y-66303812D01*
X165573812Y-66303812D02*
X162539812Y-66303812D01*
X170684812Y-66343812D02*
X167653812Y-66343812D01*
X165573812Y-66343812D02*
X162542812Y-66343812D01*
X170681812Y-66383812D02*
X167653812Y-66383812D01*
X165573812Y-66383812D02*
X162545812Y-66383812D01*
X170678812Y-66423812D02*
X167653812Y-66423812D01*
X165573812Y-66423812D02*
X162548812Y-66423812D01*
X170674812Y-66463812D02*
X167653812Y-66463812D01*
X165573812Y-66463812D02*
X162552812Y-66463812D01*
X170670812Y-66503812D02*
X167653812Y-66503812D01*
X165573812Y-66503812D02*
X162556812Y-66503812D01*
X170665812Y-66543812D02*
X167653812Y-66543812D01*
X165573812Y-66543812D02*
X162561812Y-66543812D01*
X170661812Y-66583812D02*
X167653812Y-66583812D01*
X165573812Y-66583812D02*
X162565812Y-66583812D01*
X170655812Y-66623812D02*
X167653812Y-66623812D01*
X165573812Y-66623812D02*
X162571812Y-66623812D01*
X170650812Y-66663812D02*
X167653812Y-66663812D01*
X165573812Y-66663812D02*
X162576812Y-66663812D01*
X170643812Y-66703812D02*
X167653812Y-66703812D01*
X165573812Y-66703812D02*
X162583812Y-66703812D01*
X170637812Y-66743812D02*
X167653812Y-66743812D01*
X165573812Y-66743812D02*
X162589812Y-66743812D01*
X170630812Y-66784812D02*
X167653812Y-66784812D01*
X165573812Y-66784812D02*
X162596812Y-66784812D01*
X170623812Y-66824812D02*
X167653812Y-66824812D01*
X165573812Y-66824812D02*
X162603812Y-66824812D01*
X170615812Y-66864812D02*
X167653812Y-66864812D01*
X165573812Y-66864812D02*
X162611812Y-66864812D01*
X170607812Y-66904812D02*
X167653812Y-66904812D01*
X165573812Y-66904812D02*
X162619812Y-66904812D01*
X170598812Y-66944812D02*
X167653812Y-66944812D01*
X165573812Y-66944812D02*
X162628812Y-66944812D01*
X170589812Y-66984812D02*
X167653812Y-66984812D01*
X165573812Y-66984812D02*
X162637812Y-66984812D01*
X170580812Y-67024812D02*
X167653812Y-67024812D01*
X165573812Y-67024812D02*
X162646812Y-67024812D01*
X170570812Y-67064812D02*
X167653812Y-67064812D01*
X165573812Y-67064812D02*
X162656812Y-67064812D01*
X170560812Y-67104812D02*
X167653812Y-67104812D01*
X165573812Y-67104812D02*
X162666812Y-67104812D01*
X170549812Y-67144812D02*
X167653812Y-67144812D01*
X165573812Y-67144812D02*
X162677812Y-67144812D01*
X170538812Y-67184812D02*
X167653812Y-67184812D01*
X165573812Y-67184812D02*
X162688812Y-67184812D01*
X170527812Y-67224812D02*
X167653812Y-67224812D01*
X165573812Y-67224812D02*
X162699812Y-67224812D01*
X170515812Y-67264812D02*
X167653812Y-67264812D01*
X165573812Y-67264812D02*
X162711812Y-67264812D01*
X170502812Y-67304812D02*
X167653812Y-67304812D01*
X165573812Y-67304812D02*
X162724812Y-67304812D01*
X170490812Y-67344812D02*
X167653812Y-67344812D01*
X165573812Y-67344812D02*
X162736812Y-67344812D01*
X170476812Y-67384812D02*
X167653812Y-67384812D01*
X165573812Y-67384812D02*
X162750812Y-67384812D01*
X170463812Y-67424812D02*
X167653812Y-67424812D01*
X165573812Y-67424812D02*
X162763812Y-67424812D01*
X170448812Y-67464812D02*
X167653812Y-67464812D01*
X165573812Y-67464812D02*
X162778812Y-67464812D01*
X170434812Y-67504812D02*
X167653812Y-67504812D01*
X165573812Y-67504812D02*
X162792812Y-67504812D01*
X170418812Y-67544812D02*
X167653812Y-67544812D01*
X165573812Y-67544812D02*
X162808812Y-67544812D01*
X170403812Y-67584812D02*
X167653812Y-67584812D01*
X165573812Y-67584812D02*
X162823812Y-67584812D01*
X170387812Y-67624812D02*
X167653812Y-67624812D01*
X165573812Y-67624812D02*
X162839812Y-67624812D01*
X170370812Y-67664812D02*
X167653812Y-67664812D01*
X165573812Y-67664812D02*
X162856812Y-67664812D01*
X170353812Y-67704812D02*
X167653812Y-67704812D01*
X165573812Y-67704812D02*
X162873812Y-67704812D01*
X170335812Y-67744812D02*
X167653812Y-67744812D01*
X165573812Y-67744812D02*
X162891812Y-67744812D01*
X170317812Y-67784812D02*
X167653812Y-67784812D01*
X165573812Y-67784812D02*
X162909812Y-67784812D01*
X170299812Y-67824812D02*
X167653812Y-67824812D01*
X165573812Y-67824812D02*
X162927812Y-67824812D01*
X170279812Y-67864812D02*
X167653812Y-67864812D01*
X165573812Y-67864812D02*
X162947812Y-67864812D01*
X170260812Y-67904812D02*
X167653812Y-67904812D01*
X165573812Y-67904812D02*
X162966812Y-67904812D01*
X170240812Y-67944812D02*
X167653812Y-67944812D01*
X165573812Y-67944812D02*
X162986812Y-67944812D01*
X170219812Y-67984812D02*
X167653812Y-67984812D01*
X165573812Y-67984812D02*
X163007812Y-67984812D01*
X170197812Y-68024812D02*
X167653812Y-68024812D01*
X165573812Y-68024812D02*
X163029812Y-68024812D01*
X170175812Y-68064812D02*
X167653812Y-68064812D01*
X165573812Y-68064812D02*
X163051812Y-68064812D01*
X170153812Y-68104812D02*
X167653812Y-68104812D01*
X165573812Y-68104812D02*
X163073812Y-68104812D01*
X170130812Y-68144812D02*
X167653812Y-68144812D01*
X165573812Y-68144812D02*
X163096812Y-68144812D01*
X170106812Y-68184812D02*
X167653812Y-68184812D01*
X165573812Y-68184812D02*
X163120812Y-68184812D01*
X170082812Y-68224812D02*
X167653812Y-68224812D01*
X165573812Y-68224812D02*
X163144812Y-68224812D01*
X170057812Y-68264812D02*
X167653812Y-68264812D01*
X165573812Y-68264812D02*
X163169812Y-68264812D01*
X170031812Y-68304812D02*
X167653812Y-68304812D01*
X165573812Y-68304812D02*
X163195812Y-68304812D01*
X170005812Y-68344812D02*
X167653812Y-68344812D01*
X165573812Y-68344812D02*
X163221812Y-68344812D01*
X169978812Y-68384812D02*
X163248812Y-68384812D01*
X169951812Y-68424812D02*
X163275812Y-68424812D01*
X169922812Y-68464812D02*
X163304812Y-68464812D01*
X169893812Y-68504812D02*
X163333812Y-68504812D01*
X169863812Y-68544812D02*
X163363812Y-68544812D01*
X169833812Y-68584812D02*
X163393812Y-68584812D01*
X169802812Y-68624812D02*
X163424812Y-68624812D01*
X169769812Y-68664812D02*
X163457812Y-68664812D01*
X169737812Y-68704812D02*
X163489812Y-68704812D01*
X169703812Y-68744812D02*
X163523812Y-68744812D01*
X169668812Y-68784812D02*
X163558812Y-68784812D01*
X169632812Y-68824812D02*
X163594812Y-68824812D01*
X169596812Y-68864812D02*
X163630812Y-68864812D01*
X169558812Y-68904812D02*
X163668812Y-68904812D01*
X169520812Y-68944812D02*
X163706812Y-68944812D01*
X169480812Y-68984812D02*
X163746812Y-68984812D01*
X169439812Y-69024812D02*
X163787812Y-69024812D01*
X169397812Y-69064812D02*
X163829812Y-69064812D01*
X169354812Y-69104812D02*
X163872812Y-69104812D01*
X169310812Y-69144812D02*
X163916812Y-69144812D01*
X169264812Y-69184812D02*
X163962812Y-69184812D01*
X169217812Y-69224812D02*
X164009812Y-69224812D01*
X169169812Y-69264812D02*
X164057812Y-69264812D01*
X169118812Y-69304812D02*
X164108812Y-69304812D01*
X169067812Y-69344812D02*
X164159812Y-69344812D01*
X169013812Y-69384812D02*
X164213812Y-69384812D01*
X168958812Y-69424812D02*
X164268812Y-69424812D01*
X168900812Y-69464812D02*
X164326812Y-69464812D01*
X168841812Y-69504812D02*
X164385812Y-69504812D01*
X168779812Y-69544812D02*
X164447812Y-69544812D01*
X168715812Y-69584812D02*
X164511812Y-69584812D01*
X168647812Y-69624812D02*
X164579812Y-69624812D01*
X168577812Y-69664812D02*
X164649812Y-69664812D01*
X168503812Y-69704812D02*
X164723812Y-69704812D01*
X168426812Y-69744812D02*
X164800812Y-69744812D01*
X168344812Y-69784812D02*
X164882812Y-69784812D01*
X168258812Y-69824812D02*
X164968812Y-69824812D01*
X168165812Y-69864812D02*
X165061812Y-69864812D01*
X168066812Y-69904812D02*
X165160812Y-69904812D01*
X167959812Y-69944812D02*
X165267812Y-69944812D01*
X167842812Y-69984812D02*
X165384812Y-69984812D01*
X167711812Y-70024812D02*
X165515812Y-70024812D01*
X167561812Y-70064812D02*
X165665812Y-70064812D01*
X167381812Y-70104812D02*
X165845812Y-70104812D01*
X167146812Y-70144812D02*
X166080812Y-70144812D01*
X170733812Y-66063812D02*
G75*
G03*
X170733812Y-66063812I-4120000J0D01*
G01*
%TO.C,R14*%
X161333812Y-69213812D02*
X161333812Y-70163812D01*
X162253812Y-70163812D02*
X160413812Y-70163812D01*
X160413812Y-70163812D02*
X160413812Y-74003812D01*
X162253812Y-74003812D02*
X162253812Y-70163812D01*
X160413812Y-74003812D02*
X162253812Y-74003812D01*
X161333812Y-74953812D02*
X161333812Y-74003812D01*
D10*
%TO.C,R2*%
X136473812Y-128623812D02*
X136473812Y-133703812D01*
X133933812Y-128623812D02*
X136473812Y-128623812D01*
X136473812Y-133703812D02*
X133933812Y-133703812D01*
X133933812Y-133703812D02*
X133933812Y-128623812D01*
%TO.C,C1*%
X164253812Y-125583812D02*
X171253812Y-125583812D01*
X164253812Y-129083812D02*
X164253812Y-125583812D01*
X171253812Y-125583812D02*
X171253812Y-129083812D01*
X171253812Y-129083812D02*
X164253812Y-129083812D01*
D11*
%TO.C,R5*%
X151263812Y-91043812D02*
X150313812Y-91043812D01*
X150313812Y-91963812D02*
X150313812Y-90123812D01*
X150313812Y-90123812D02*
X146473812Y-90123812D01*
X146473812Y-91963812D02*
X150313812Y-91963812D01*
X146473812Y-90123812D02*
X146473812Y-91963812D01*
X145523812Y-91043812D02*
X146473812Y-91043812D01*
%TO.C,C14*%
X171156161Y-76998812D02*
X170356161Y-76998812D01*
X170756161Y-77398812D02*
X170756161Y-76598812D01*
X166746463Y-78763812D02*
X166746463Y-70603812D01*
X166706463Y-78763812D02*
X166706463Y-70603812D01*
X166666463Y-78763812D02*
X166666463Y-70603812D01*
X166626463Y-78762812D02*
X166626463Y-70604812D01*
X166586463Y-78760812D02*
X166586463Y-70606812D01*
X166546463Y-78759812D02*
X166546463Y-70607812D01*
X166506463Y-78757812D02*
X166506463Y-75723812D01*
X166506463Y-73643812D02*
X166506463Y-70609812D01*
X166466463Y-78754812D02*
X166466463Y-75723812D01*
X166466463Y-73643812D02*
X166466463Y-70612812D01*
X166426463Y-78751812D02*
X166426463Y-75723812D01*
X166426463Y-73643812D02*
X166426463Y-70615812D01*
X166386463Y-78748812D02*
X166386463Y-75723812D01*
X166386463Y-73643812D02*
X166386463Y-70618812D01*
X166346463Y-78744812D02*
X166346463Y-75723812D01*
X166346463Y-73643812D02*
X166346463Y-70622812D01*
X166306463Y-78740812D02*
X166306463Y-75723812D01*
X166306463Y-73643812D02*
X166306463Y-70626812D01*
X166266463Y-78735812D02*
X166266463Y-75723812D01*
X166266463Y-73643812D02*
X166266463Y-70631812D01*
X166226463Y-78731812D02*
X166226463Y-75723812D01*
X166226463Y-73643812D02*
X166226463Y-70635812D01*
X166186463Y-78725812D02*
X166186463Y-75723812D01*
X166186463Y-73643812D02*
X166186463Y-70641812D01*
X166146463Y-78720812D02*
X166146463Y-75723812D01*
X166146463Y-73643812D02*
X166146463Y-70646812D01*
X166106463Y-78713812D02*
X166106463Y-75723812D01*
X166106463Y-73643812D02*
X166106463Y-70653812D01*
X166066463Y-78707812D02*
X166066463Y-75723812D01*
X166066463Y-73643812D02*
X166066463Y-70659812D01*
X166025463Y-78700812D02*
X166025463Y-75723812D01*
X166025463Y-73643812D02*
X166025463Y-70666812D01*
X165985463Y-78693812D02*
X165985463Y-75723812D01*
X165985463Y-73643812D02*
X165985463Y-70673812D01*
X165945463Y-78685812D02*
X165945463Y-75723812D01*
X165945463Y-73643812D02*
X165945463Y-70681812D01*
X165905463Y-78677812D02*
X165905463Y-75723812D01*
X165905463Y-73643812D02*
X165905463Y-70689812D01*
X165865463Y-78668812D02*
X165865463Y-75723812D01*
X165865463Y-73643812D02*
X165865463Y-70698812D01*
X165825463Y-78659812D02*
X165825463Y-75723812D01*
X165825463Y-73643812D02*
X165825463Y-70707812D01*
X165785463Y-78650812D02*
X165785463Y-75723812D01*
X165785463Y-73643812D02*
X165785463Y-70716812D01*
X165745463Y-78640812D02*
X165745463Y-75723812D01*
X165745463Y-73643812D02*
X165745463Y-70726812D01*
X165705463Y-78630812D02*
X165705463Y-75723812D01*
X165705463Y-73643812D02*
X165705463Y-70736812D01*
X165665463Y-78619812D02*
X165665463Y-75723812D01*
X165665463Y-73643812D02*
X165665463Y-70747812D01*
X165625463Y-78608812D02*
X165625463Y-75723812D01*
X165625463Y-73643812D02*
X165625463Y-70758812D01*
X165585463Y-78597812D02*
X165585463Y-75723812D01*
X165585463Y-73643812D02*
X165585463Y-70769812D01*
X165545463Y-78585812D02*
X165545463Y-75723812D01*
X165545463Y-73643812D02*
X165545463Y-70781812D01*
X165505463Y-78572812D02*
X165505463Y-75723812D01*
X165505463Y-73643812D02*
X165505463Y-70794812D01*
X165465463Y-78560812D02*
X165465463Y-75723812D01*
X165465463Y-73643812D02*
X165465463Y-70806812D01*
X165425463Y-78546812D02*
X165425463Y-75723812D01*
X165425463Y-73643812D02*
X165425463Y-70820812D01*
X165385463Y-78533812D02*
X165385463Y-75723812D01*
X165385463Y-73643812D02*
X165385463Y-70833812D01*
X165345463Y-78518812D02*
X165345463Y-75723812D01*
X165345463Y-73643812D02*
X165345463Y-70848812D01*
X165305463Y-78504812D02*
X165305463Y-75723812D01*
X165305463Y-73643812D02*
X165305463Y-70862812D01*
X165265463Y-78488812D02*
X165265463Y-75723812D01*
X165265463Y-73643812D02*
X165265463Y-70878812D01*
X165225463Y-78473812D02*
X165225463Y-75723812D01*
X165225463Y-73643812D02*
X165225463Y-70893812D01*
X165185463Y-78457812D02*
X165185463Y-75723812D01*
X165185463Y-73643812D02*
X165185463Y-70909812D01*
X165145463Y-78440812D02*
X165145463Y-75723812D01*
X165145463Y-73643812D02*
X165145463Y-70926812D01*
X165105463Y-78423812D02*
X165105463Y-75723812D01*
X165105463Y-73643812D02*
X165105463Y-70943812D01*
X165065463Y-78405812D02*
X165065463Y-75723812D01*
X165065463Y-73643812D02*
X165065463Y-70961812D01*
X165025463Y-78387812D02*
X165025463Y-75723812D01*
X165025463Y-73643812D02*
X165025463Y-70979812D01*
X164985463Y-78369812D02*
X164985463Y-75723812D01*
X164985463Y-73643812D02*
X164985463Y-70997812D01*
X164945463Y-78349812D02*
X164945463Y-75723812D01*
X164945463Y-73643812D02*
X164945463Y-71017812D01*
X164905463Y-78330812D02*
X164905463Y-75723812D01*
X164905463Y-73643812D02*
X164905463Y-71036812D01*
X164865463Y-78310812D02*
X164865463Y-75723812D01*
X164865463Y-73643812D02*
X164865463Y-71056812D01*
X164825463Y-78289812D02*
X164825463Y-75723812D01*
X164825463Y-73643812D02*
X164825463Y-71077812D01*
X164785463Y-78267812D02*
X164785463Y-75723812D01*
X164785463Y-73643812D02*
X164785463Y-71099812D01*
X164745463Y-78245812D02*
X164745463Y-75723812D01*
X164745463Y-73643812D02*
X164745463Y-71121812D01*
X164705463Y-78223812D02*
X164705463Y-75723812D01*
X164705463Y-73643812D02*
X164705463Y-71143812D01*
X164665463Y-78200812D02*
X164665463Y-75723812D01*
X164665463Y-73643812D02*
X164665463Y-71166812D01*
X164625463Y-78176812D02*
X164625463Y-75723812D01*
X164625463Y-73643812D02*
X164625463Y-71190812D01*
X164585463Y-78152812D02*
X164585463Y-75723812D01*
X164585463Y-73643812D02*
X164585463Y-71214812D01*
X164545463Y-78127812D02*
X164545463Y-75723812D01*
X164545463Y-73643812D02*
X164545463Y-71239812D01*
X164505463Y-78101812D02*
X164505463Y-75723812D01*
X164505463Y-73643812D02*
X164505463Y-71265812D01*
X164465463Y-78075812D02*
X164465463Y-75723812D01*
X164465463Y-73643812D02*
X164465463Y-71291812D01*
X164425463Y-78048812D02*
X164425463Y-71318812D01*
X164385463Y-78021812D02*
X164385463Y-71345812D01*
X164345463Y-77992812D02*
X164345463Y-71374812D01*
X164305463Y-77963812D02*
X164305463Y-71403812D01*
X164265463Y-77933812D02*
X164265463Y-71433812D01*
X164225463Y-77903812D02*
X164225463Y-71463812D01*
X164185463Y-77872812D02*
X164185463Y-71494812D01*
X164145463Y-77839812D02*
X164145463Y-71527812D01*
X164105463Y-77807812D02*
X164105463Y-71559812D01*
X164065463Y-77773812D02*
X164065463Y-71593812D01*
X164025463Y-77738812D02*
X164025463Y-71628812D01*
X163985463Y-77702812D02*
X163985463Y-71664812D01*
X163945463Y-77666812D02*
X163945463Y-71700812D01*
X163905463Y-77628812D02*
X163905463Y-71738812D01*
X163865463Y-77590812D02*
X163865463Y-71776812D01*
X163825463Y-77550812D02*
X163825463Y-71816812D01*
X163785463Y-77509812D02*
X163785463Y-71857812D01*
X163745463Y-77467812D02*
X163745463Y-71899812D01*
X163705463Y-77424812D02*
X163705463Y-71942812D01*
X163665463Y-77380812D02*
X163665463Y-71986812D01*
X163625463Y-77334812D02*
X163625463Y-72032812D01*
X163585463Y-77287812D02*
X163585463Y-72079812D01*
X163545463Y-77239812D02*
X163545463Y-72127812D01*
X163505463Y-77188812D02*
X163505463Y-72178812D01*
X163465463Y-77137812D02*
X163465463Y-72229812D01*
X163425463Y-77083812D02*
X163425463Y-72283812D01*
X163385463Y-77028812D02*
X163385463Y-72338812D01*
X163345463Y-76970812D02*
X163345463Y-72396812D01*
X163305463Y-76911812D02*
X163305463Y-72455812D01*
X163265463Y-76849812D02*
X163265463Y-72517812D01*
X163225463Y-76785812D02*
X163225463Y-72581812D01*
X163185463Y-76717812D02*
X163185463Y-72649812D01*
X163145463Y-76647812D02*
X163145463Y-72719812D01*
X163105463Y-76573812D02*
X163105463Y-72793812D01*
X163065463Y-76496812D02*
X163065463Y-72870812D01*
X163025463Y-76414812D02*
X163025463Y-72952812D01*
X162985463Y-76328812D02*
X162985463Y-73038812D01*
X162945463Y-76235812D02*
X162945463Y-73131812D01*
X162905463Y-76136812D02*
X162905463Y-73230812D01*
X162865463Y-76029812D02*
X162865463Y-73337812D01*
X162825463Y-75912812D02*
X162825463Y-73454812D01*
X162785463Y-75781812D02*
X162785463Y-73585812D01*
X162745463Y-75631812D02*
X162745463Y-73735812D01*
X162705463Y-75451812D02*
X162705463Y-73915812D01*
X162665463Y-75216812D02*
X162665463Y-74150812D01*
X170866463Y-74683812D02*
G75*
G03*
X170866463Y-74683812I-4120000J0D01*
G01*
%TO.C,C7*%
X138990000Y-74700000D02*
X138990000Y-71960000D01*
X138990000Y-74700000D02*
X131750000Y-74700000D01*
X138990000Y-71960000D02*
X131750000Y-71960000D01*
X131750000Y-74700000D02*
X131750000Y-71960000D01*
%TO.C,R20*%
X171753812Y-90743812D02*
X171753812Y-89793812D01*
X170833812Y-89793812D02*
X172673812Y-89793812D01*
X172673812Y-89793812D02*
X172673812Y-85953812D01*
X170833812Y-85953812D02*
X170833812Y-89793812D01*
X172673812Y-85953812D02*
X170833812Y-85953812D01*
X171753812Y-85003812D02*
X171753812Y-85953812D01*
%TO.C,R9*%
X130153812Y-84553812D02*
X129203812Y-84553812D01*
X129203812Y-85473812D02*
X129203812Y-83633812D01*
X129203812Y-83633812D02*
X125363812Y-83633812D01*
X125363812Y-85473812D02*
X129203812Y-85473812D01*
X125363812Y-83633812D02*
X125363812Y-85473812D01*
X124413812Y-84553812D02*
X125363812Y-84553812D01*
%TO.C,U2*%
X155719929Y-90369929D02*
X165999929Y-90369929D01*
X165999929Y-90369929D02*
X165999929Y-85069929D01*
X155719929Y-88719929D02*
X155719929Y-90369929D01*
X155719929Y-85069929D02*
X155719929Y-86719929D01*
X165999929Y-85069929D02*
X155719929Y-85069929D01*
X155719929Y-88719929D02*
G75*
G03*
X155719929Y-86719929I0J1000000D01*
G01*
%TO.C,C12*%
X148384114Y-59698812D02*
X149184114Y-59698812D01*
X148784114Y-59298812D02*
X148784114Y-60098812D01*
X152793812Y-57933812D02*
X152793812Y-66093812D01*
X152833812Y-57933812D02*
X152833812Y-66093812D01*
X152873812Y-57933812D02*
X152873812Y-66093812D01*
X152913812Y-57934812D02*
X152913812Y-66092812D01*
X152953812Y-57936812D02*
X152953812Y-66090812D01*
X152993812Y-57937812D02*
X152993812Y-66089812D01*
X153033812Y-57939812D02*
X153033812Y-60973812D01*
X153033812Y-63053812D02*
X153033812Y-66087812D01*
X153073812Y-57942812D02*
X153073812Y-60973812D01*
X153073812Y-63053812D02*
X153073812Y-66084812D01*
X153113812Y-57945812D02*
X153113812Y-60973812D01*
X153113812Y-63053812D02*
X153113812Y-66081812D01*
X153153812Y-57948812D02*
X153153812Y-60973812D01*
X153153812Y-63053812D02*
X153153812Y-66078812D01*
X153193812Y-57952812D02*
X153193812Y-60973812D01*
X153193812Y-63053812D02*
X153193812Y-66074812D01*
X153233812Y-57956812D02*
X153233812Y-60973812D01*
X153233812Y-63053812D02*
X153233812Y-66070812D01*
X153273812Y-57961812D02*
X153273812Y-60973812D01*
X153273812Y-63053812D02*
X153273812Y-66065812D01*
X153313812Y-57965812D02*
X153313812Y-60973812D01*
X153313812Y-63053812D02*
X153313812Y-66061812D01*
X153353812Y-57971812D02*
X153353812Y-60973812D01*
X153353812Y-63053812D02*
X153353812Y-66055812D01*
X153393812Y-57976812D02*
X153393812Y-60973812D01*
X153393812Y-63053812D02*
X153393812Y-66050812D01*
X153433812Y-57983812D02*
X153433812Y-60973812D01*
X153433812Y-63053812D02*
X153433812Y-66043812D01*
X153473812Y-57989812D02*
X153473812Y-60973812D01*
X153473812Y-63053812D02*
X153473812Y-66037812D01*
X153514812Y-57996812D02*
X153514812Y-60973812D01*
X153514812Y-63053812D02*
X153514812Y-66030812D01*
X153554812Y-58003812D02*
X153554812Y-60973812D01*
X153554812Y-63053812D02*
X153554812Y-66023812D01*
X153594812Y-58011812D02*
X153594812Y-60973812D01*
X153594812Y-63053812D02*
X153594812Y-66015812D01*
X153634812Y-58019812D02*
X153634812Y-60973812D01*
X153634812Y-63053812D02*
X153634812Y-66007812D01*
X153674812Y-58028812D02*
X153674812Y-60973812D01*
X153674812Y-63053812D02*
X153674812Y-65998812D01*
X153714812Y-58037812D02*
X153714812Y-60973812D01*
X153714812Y-63053812D02*
X153714812Y-65989812D01*
X153754812Y-58046812D02*
X153754812Y-60973812D01*
X153754812Y-63053812D02*
X153754812Y-65980812D01*
X153794812Y-58056812D02*
X153794812Y-60973812D01*
X153794812Y-63053812D02*
X153794812Y-65970812D01*
X153834812Y-58066812D02*
X153834812Y-60973812D01*
X153834812Y-63053812D02*
X153834812Y-65960812D01*
X153874812Y-58077812D02*
X153874812Y-60973812D01*
X153874812Y-63053812D02*
X153874812Y-65949812D01*
X153914812Y-58088812D02*
X153914812Y-60973812D01*
X153914812Y-63053812D02*
X153914812Y-65938812D01*
X153954812Y-58099812D02*
X153954812Y-60973812D01*
X153954812Y-63053812D02*
X153954812Y-65927812D01*
X153994812Y-58111812D02*
X153994812Y-60973812D01*
X153994812Y-63053812D02*
X153994812Y-65915812D01*
X154034812Y-58124812D02*
X154034812Y-60973812D01*
X154034812Y-63053812D02*
X154034812Y-65902812D01*
X154074812Y-58136812D02*
X154074812Y-60973812D01*
X154074812Y-63053812D02*
X154074812Y-65890812D01*
X154114812Y-58150812D02*
X154114812Y-60973812D01*
X154114812Y-63053812D02*
X154114812Y-65876812D01*
X154154812Y-58163812D02*
X154154812Y-60973812D01*
X154154812Y-63053812D02*
X154154812Y-65863812D01*
X154194812Y-58178812D02*
X154194812Y-60973812D01*
X154194812Y-63053812D02*
X154194812Y-65848812D01*
X154234812Y-58192812D02*
X154234812Y-60973812D01*
X154234812Y-63053812D02*
X154234812Y-65834812D01*
X154274812Y-58208812D02*
X154274812Y-60973812D01*
X154274812Y-63053812D02*
X154274812Y-65818812D01*
X154314812Y-58223812D02*
X154314812Y-60973812D01*
X154314812Y-63053812D02*
X154314812Y-65803812D01*
X154354812Y-58239812D02*
X154354812Y-60973812D01*
X154354812Y-63053812D02*
X154354812Y-65787812D01*
X154394812Y-58256812D02*
X154394812Y-60973812D01*
X154394812Y-63053812D02*
X154394812Y-65770812D01*
X154434812Y-58273812D02*
X154434812Y-60973812D01*
X154434812Y-63053812D02*
X154434812Y-65753812D01*
X154474812Y-58291812D02*
X154474812Y-60973812D01*
X154474812Y-63053812D02*
X154474812Y-65735812D01*
X154514812Y-58309812D02*
X154514812Y-60973812D01*
X154514812Y-63053812D02*
X154514812Y-65717812D01*
X154554812Y-58327812D02*
X154554812Y-60973812D01*
X154554812Y-63053812D02*
X154554812Y-65699812D01*
X154594812Y-58347812D02*
X154594812Y-60973812D01*
X154594812Y-63053812D02*
X154594812Y-65679812D01*
X154634812Y-58366812D02*
X154634812Y-60973812D01*
X154634812Y-63053812D02*
X154634812Y-65660812D01*
X154674812Y-58386812D02*
X154674812Y-60973812D01*
X154674812Y-63053812D02*
X154674812Y-65640812D01*
X154714812Y-58407812D02*
X154714812Y-60973812D01*
X154714812Y-63053812D02*
X154714812Y-65619812D01*
X154754812Y-58429812D02*
X154754812Y-60973812D01*
X154754812Y-63053812D02*
X154754812Y-65597812D01*
X154794812Y-58451812D02*
X154794812Y-60973812D01*
X154794812Y-63053812D02*
X154794812Y-65575812D01*
X154834812Y-58473812D02*
X154834812Y-60973812D01*
X154834812Y-63053812D02*
X154834812Y-65553812D01*
X154874812Y-58496812D02*
X154874812Y-60973812D01*
X154874812Y-63053812D02*
X154874812Y-65530812D01*
X154914812Y-58520812D02*
X154914812Y-60973812D01*
X154914812Y-63053812D02*
X154914812Y-65506812D01*
X154954812Y-58544812D02*
X154954812Y-60973812D01*
X154954812Y-63053812D02*
X154954812Y-65482812D01*
X154994812Y-58569812D02*
X154994812Y-60973812D01*
X154994812Y-63053812D02*
X154994812Y-65457812D01*
X155034812Y-58595812D02*
X155034812Y-60973812D01*
X155034812Y-63053812D02*
X155034812Y-65431812D01*
X155074812Y-58621812D02*
X155074812Y-60973812D01*
X155074812Y-63053812D02*
X155074812Y-65405812D01*
X155114812Y-58648812D02*
X155114812Y-65378812D01*
X155154812Y-58675812D02*
X155154812Y-65351812D01*
X155194812Y-58704812D02*
X155194812Y-65322812D01*
X155234812Y-58733812D02*
X155234812Y-65293812D01*
X155274812Y-58763812D02*
X155274812Y-65263812D01*
X155314812Y-58793812D02*
X155314812Y-65233812D01*
X155354812Y-58824812D02*
X155354812Y-65202812D01*
X155394812Y-58857812D02*
X155394812Y-65169812D01*
X155434812Y-58889812D02*
X155434812Y-65137812D01*
X155474812Y-58923812D02*
X155474812Y-65103812D01*
X155514812Y-58958812D02*
X155514812Y-65068812D01*
X155554812Y-58994812D02*
X155554812Y-65032812D01*
X155594812Y-59030812D02*
X155594812Y-64996812D01*
X155634812Y-59068812D02*
X155634812Y-64958812D01*
X155674812Y-59106812D02*
X155674812Y-64920812D01*
X155714812Y-59146812D02*
X155714812Y-64880812D01*
X155754812Y-59187812D02*
X155754812Y-64839812D01*
X155794812Y-59229812D02*
X155794812Y-64797812D01*
X155834812Y-59272812D02*
X155834812Y-64754812D01*
X155874812Y-59316812D02*
X155874812Y-64710812D01*
X155914812Y-59362812D02*
X155914812Y-64664812D01*
X155954812Y-59409812D02*
X155954812Y-64617812D01*
X155994812Y-59457812D02*
X155994812Y-64569812D01*
X156034812Y-59508812D02*
X156034812Y-64518812D01*
X156074812Y-59559812D02*
X156074812Y-64467812D01*
X156114812Y-59613812D02*
X156114812Y-64413812D01*
X156154812Y-59668812D02*
X156154812Y-64358812D01*
X156194812Y-59726812D02*
X156194812Y-64300812D01*
X156234812Y-59785812D02*
X156234812Y-64241812D01*
X156274812Y-59847812D02*
X156274812Y-64179812D01*
X156314812Y-59911812D02*
X156314812Y-64115812D01*
X156354812Y-59979812D02*
X156354812Y-64047812D01*
X156394812Y-60049812D02*
X156394812Y-63977812D01*
X156434812Y-60123812D02*
X156434812Y-63903812D01*
X156474812Y-60200812D02*
X156474812Y-63826812D01*
X156514812Y-60282812D02*
X156514812Y-63744812D01*
X156554812Y-60368812D02*
X156554812Y-63658812D01*
X156594812Y-60461812D02*
X156594812Y-63565812D01*
X156634812Y-60560812D02*
X156634812Y-63466812D01*
X156674812Y-60667812D02*
X156674812Y-63359812D01*
X156714812Y-60784812D02*
X156714812Y-63242812D01*
X156754812Y-60915812D02*
X156754812Y-63111812D01*
X156794812Y-61065812D02*
X156794812Y-62961812D01*
X156834812Y-61245812D02*
X156834812Y-62781812D01*
X156874812Y-61480812D02*
X156874812Y-62546812D01*
X156913812Y-62013812D02*
G75*
G03*
X156913812Y-62013812I-4120000J0D01*
G01*
%TO.C,RV2*%
X125923812Y-58868812D02*
X125923812Y-54148812D01*
X127113812Y-58868812D02*
X125933812Y-58868812D01*
X130013812Y-58868812D02*
X129483812Y-58868812D01*
X132463812Y-58868812D02*
X131633812Y-58868812D01*
X135673812Y-58868812D02*
X134183812Y-58868812D01*
X135673812Y-58868812D02*
X135673812Y-54148812D01*
X125933812Y-50338812D02*
X125933812Y-47278812D01*
X135673812Y-50338812D02*
X135673812Y-47278812D01*
X135673812Y-47278812D02*
X125933812Y-47278812D01*
%TO.C,JOVGI1*%
X152233812Y-102353812D02*
X152233812Y-103683812D01*
X150903812Y-102353812D02*
X152233812Y-102353812D01*
X149633812Y-102353812D02*
X141953812Y-102353812D01*
X149633812Y-102353812D02*
X149633812Y-105013812D01*
X141953812Y-102353812D02*
X141953812Y-105013812D01*
X149633812Y-105013812D02*
X141953812Y-105013812D01*
%TO.C,R18*%
X137793812Y-63893812D02*
X136843812Y-63893812D01*
X136843812Y-64813812D02*
X136843812Y-62973812D01*
X136843812Y-62973812D02*
X133003812Y-62973812D01*
X133003812Y-64813812D02*
X136843812Y-64813812D01*
X133003812Y-62973812D02*
X133003812Y-64813812D01*
X132053812Y-63893812D02*
X133003812Y-63893812D01*
%TO.C,R3*%
X154319929Y-96289929D02*
X154319929Y-95339929D01*
X153399929Y-95339929D02*
X155239929Y-95339929D01*
X155239929Y-95339929D02*
X155239929Y-91499929D01*
X153399929Y-91499929D02*
X153399929Y-95339929D01*
X155239929Y-91499929D02*
X153399929Y-91499929D01*
X154319929Y-90549929D02*
X154319929Y-91499929D01*
%TO.C,R17*%
X154303812Y-84853812D02*
X154303812Y-83903812D01*
X153383812Y-83903812D02*
X155223812Y-83903812D01*
X155223812Y-83903812D02*
X155223812Y-80063812D01*
X153383812Y-80063812D02*
X153383812Y-83903812D01*
X155223812Y-80063812D02*
X153383812Y-80063812D01*
X154303812Y-79113812D02*
X154303812Y-80063812D01*
D10*
%TO.C,R3*%
X130683812Y-133683812D02*
X130683812Y-128603812D01*
X133223812Y-133683812D02*
X130683812Y-133683812D01*
X130683812Y-128603812D02*
X133223812Y-128603812D01*
X133223812Y-128603812D02*
X133223812Y-133683812D01*
D11*
%TO.C,C2*%
X166203812Y-130333812D02*
X166203812Y-131533812D01*
X166853812Y-130933812D02*
X165553812Y-130933812D01*
X170253812Y-133783812D02*
X162153812Y-133783812D01*
X170253812Y-133823812D02*
X162153812Y-133823812D01*
X170253812Y-133863812D02*
X162153812Y-133863812D01*
X170252812Y-133903812D02*
X162154812Y-133903812D01*
X170250812Y-133943812D02*
X162156812Y-133943812D01*
X170249812Y-133983812D02*
X162157812Y-133983812D01*
X170246812Y-134023812D02*
X162160812Y-134023812D01*
X170244812Y-134063812D02*
X167183812Y-134063812D01*
X165223812Y-134063812D02*
X162162812Y-134063812D01*
X170241812Y-134103812D02*
X167183812Y-134103812D01*
X165223812Y-134103812D02*
X162165812Y-134103812D01*
X170238812Y-134143812D02*
X167183812Y-134143812D01*
X165223812Y-134143812D02*
X162168812Y-134143812D01*
X170234812Y-134183812D02*
X167183812Y-134183812D01*
X165223812Y-134183812D02*
X162172812Y-134183812D01*
X170230812Y-134223812D02*
X167183812Y-134223812D01*
X165223812Y-134223812D02*
X162176812Y-134223812D01*
X170225812Y-134263812D02*
X167183812Y-134263812D01*
X165223812Y-134263812D02*
X162181812Y-134263812D01*
X170220812Y-134303812D02*
X167183812Y-134303812D01*
X165223812Y-134303812D02*
X162186812Y-134303812D01*
X170215812Y-134343812D02*
X167183812Y-134343812D01*
X165223812Y-134343812D02*
X162191812Y-134343812D01*
X170209812Y-134383812D02*
X167183812Y-134383812D01*
X165223812Y-134383812D02*
X162197812Y-134383812D01*
X170203812Y-134423812D02*
X167183812Y-134423812D01*
X165223812Y-134423812D02*
X162203812Y-134423812D01*
X170197812Y-134463812D02*
X167183812Y-134463812D01*
X165223812Y-134463812D02*
X162209812Y-134463812D01*
X170190812Y-134504812D02*
X167183812Y-134504812D01*
X165223812Y-134504812D02*
X162216812Y-134504812D01*
X170182812Y-134544812D02*
X167183812Y-134544812D01*
X165223812Y-134544812D02*
X162224812Y-134544812D01*
X170174812Y-134584812D02*
X167183812Y-134584812D01*
X165223812Y-134584812D02*
X162232812Y-134584812D01*
X170166812Y-134624812D02*
X167183812Y-134624812D01*
X165223812Y-134624812D02*
X162240812Y-134624812D01*
X170158812Y-134664812D02*
X167183812Y-134664812D01*
X165223812Y-134664812D02*
X162248812Y-134664812D01*
X170149812Y-134704812D02*
X167183812Y-134704812D01*
X165223812Y-134704812D02*
X162257812Y-134704812D01*
X170139812Y-134744812D02*
X167183812Y-134744812D01*
X165223812Y-134744812D02*
X162267812Y-134744812D01*
X170129812Y-134784812D02*
X167183812Y-134784812D01*
X165223812Y-134784812D02*
X162277812Y-134784812D01*
X170119812Y-134824812D02*
X167183812Y-134824812D01*
X165223812Y-134824812D02*
X162287812Y-134824812D01*
X170108812Y-134864812D02*
X167183812Y-134864812D01*
X165223812Y-134864812D02*
X162298812Y-134864812D01*
X170097812Y-134904812D02*
X167183812Y-134904812D01*
X165223812Y-134904812D02*
X162309812Y-134904812D01*
X170086812Y-134944812D02*
X167183812Y-134944812D01*
X165223812Y-134944812D02*
X162320812Y-134944812D01*
X170073812Y-134984812D02*
X167183812Y-134984812D01*
X165223812Y-134984812D02*
X162333812Y-134984812D01*
X170061812Y-135024812D02*
X167183812Y-135024812D01*
X165223812Y-135024812D02*
X162345812Y-135024812D01*
X170048812Y-135064812D02*
X167183812Y-135064812D01*
X165223812Y-135064812D02*
X162358812Y-135064812D01*
X170035812Y-135104812D02*
X167183812Y-135104812D01*
X165223812Y-135104812D02*
X162371812Y-135104812D01*
X170021812Y-135144812D02*
X167183812Y-135144812D01*
X165223812Y-135144812D02*
X162385812Y-135144812D01*
X170006812Y-135184812D02*
X167183812Y-135184812D01*
X165223812Y-135184812D02*
X162400812Y-135184812D01*
X169992812Y-135224812D02*
X167183812Y-135224812D01*
X165223812Y-135224812D02*
X162414812Y-135224812D01*
X169976812Y-135264812D02*
X167183812Y-135264812D01*
X165223812Y-135264812D02*
X162430812Y-135264812D01*
X169961812Y-135304812D02*
X167183812Y-135304812D01*
X165223812Y-135304812D02*
X162445812Y-135304812D01*
X169944812Y-135344812D02*
X167183812Y-135344812D01*
X165223812Y-135344812D02*
X162462812Y-135344812D01*
X169928812Y-135384812D02*
X167183812Y-135384812D01*
X165223812Y-135384812D02*
X162478812Y-135384812D01*
X169910812Y-135424812D02*
X167183812Y-135424812D01*
X165223812Y-135424812D02*
X162496812Y-135424812D01*
X169893812Y-135464812D02*
X167183812Y-135464812D01*
X165223812Y-135464812D02*
X162513812Y-135464812D01*
X169874812Y-135504812D02*
X167183812Y-135504812D01*
X165223812Y-135504812D02*
X162532812Y-135504812D01*
X169855812Y-135544812D02*
X167183812Y-135544812D01*
X165223812Y-135544812D02*
X162551812Y-135544812D01*
X169836812Y-135584812D02*
X167183812Y-135584812D01*
X165223812Y-135584812D02*
X162570812Y-135584812D01*
X169816812Y-135624812D02*
X167183812Y-135624812D01*
X165223812Y-135624812D02*
X162590812Y-135624812D01*
X169796812Y-135664812D02*
X167183812Y-135664812D01*
X165223812Y-135664812D02*
X162610812Y-135664812D01*
X169775812Y-135704812D02*
X167183812Y-135704812D01*
X165223812Y-135704812D02*
X162631812Y-135704812D01*
X169753812Y-135744812D02*
X167183812Y-135744812D01*
X165223812Y-135744812D02*
X162653812Y-135744812D01*
X169731812Y-135784812D02*
X167183812Y-135784812D01*
X165223812Y-135784812D02*
X162675812Y-135784812D01*
X169708812Y-135824812D02*
X167183812Y-135824812D01*
X165223812Y-135824812D02*
X162698812Y-135824812D01*
X169685812Y-135864812D02*
X167183812Y-135864812D01*
X165223812Y-135864812D02*
X162721812Y-135864812D01*
X169661812Y-135904812D02*
X167183812Y-135904812D01*
X165223812Y-135904812D02*
X162745812Y-135904812D01*
X169637812Y-135944812D02*
X167183812Y-135944812D01*
X165223812Y-135944812D02*
X162769812Y-135944812D01*
X169611812Y-135984812D02*
X167183812Y-135984812D01*
X165223812Y-135984812D02*
X162795812Y-135984812D01*
X169586812Y-136024812D02*
X162820812Y-136024812D01*
X169559812Y-136064812D02*
X162847812Y-136064812D01*
X169532812Y-136104812D02*
X162874812Y-136104812D01*
X169504812Y-136144812D02*
X162902812Y-136144812D01*
X169475812Y-136184812D02*
X162931812Y-136184812D01*
X169446812Y-136224812D02*
X162960812Y-136224812D01*
X169416812Y-136264812D02*
X162990812Y-136264812D01*
X169385812Y-136304812D02*
X163021812Y-136304812D01*
X169353812Y-136344812D02*
X163053812Y-136344812D01*
X169321812Y-136384812D02*
X163085812Y-136384812D01*
X169287812Y-136424812D02*
X163119812Y-136424812D01*
X169253812Y-136464812D02*
X163153812Y-136464812D01*
X169218812Y-136504812D02*
X163188812Y-136504812D01*
X169182812Y-136544812D02*
X163224812Y-136544812D01*
X169145812Y-136584812D02*
X163261812Y-136584812D01*
X169107812Y-136624812D02*
X163299812Y-136624812D01*
X169068812Y-136664812D02*
X163338812Y-136664812D01*
X169027812Y-136704812D02*
X163379812Y-136704812D01*
X168986812Y-136744812D02*
X163420812Y-136744812D01*
X168943812Y-136784812D02*
X163463812Y-136784812D01*
X168900812Y-136824812D02*
X163506812Y-136824812D01*
X168855812Y-136864812D02*
X163551812Y-136864812D01*
X168808812Y-136904812D02*
X163598812Y-136904812D01*
X168760812Y-136944812D02*
X163646812Y-136944812D01*
X168711812Y-136984812D02*
X163695812Y-136984812D01*
X168660812Y-137024812D02*
X163746812Y-137024812D01*
X168607812Y-137064812D02*
X163799812Y-137064812D01*
X168552812Y-137104812D02*
X163854812Y-137104812D01*
X168496812Y-137144812D02*
X163910812Y-137144812D01*
X168437812Y-137184812D02*
X163969812Y-137184812D01*
X168376812Y-137224812D02*
X164030812Y-137224812D01*
X168312812Y-137264812D02*
X164094812Y-137264812D01*
X168246812Y-137304812D02*
X164160812Y-137304812D01*
X168177812Y-137344812D02*
X164229812Y-137344812D01*
X168105812Y-137384812D02*
X164301812Y-137384812D01*
X168029812Y-137424812D02*
X164377812Y-137424812D01*
X167948812Y-137464812D02*
X164458812Y-137464812D01*
X167863812Y-137504812D02*
X164543812Y-137504812D01*
X167773812Y-137544812D02*
X164633812Y-137544812D01*
X167676812Y-137584812D02*
X164730812Y-137584812D01*
X167572812Y-137624812D02*
X164834812Y-137624812D01*
X167457812Y-137664812D02*
X164949812Y-137664812D01*
X167330812Y-137704812D02*
X165076812Y-137704812D01*
X167186812Y-137744812D02*
X165220812Y-137744812D01*
X167017812Y-137784812D02*
X165389812Y-137784812D01*
X166801812Y-137824812D02*
X165605812Y-137824812D01*
X166449812Y-137864812D02*
X165957812Y-137864812D01*
X170293812Y-133783812D02*
G75*
G03*
X170293812Y-133783812I-4090000J0D01*
G01*
%TO.C,C5*%
X136390000Y-89960000D02*
X139130000Y-89960000D01*
X136390000Y-89960000D02*
X136390000Y-82720000D01*
X139130000Y-89960000D02*
X139130000Y-82720000D01*
X136390000Y-82720000D02*
X139130000Y-82720000D01*
%TO.C,C8*%
X131730000Y-68740000D02*
X131730000Y-71480000D01*
X131730000Y-68740000D02*
X138970000Y-68740000D01*
X131730000Y-71480000D02*
X138970000Y-71480000D01*
X138970000Y-68740000D02*
X138970000Y-71480000D01*
D10*
%TO.C,SW1*%
X156453812Y-143508812D02*
X156453812Y-126208812D01*
X156453812Y-143508812D02*
X138453812Y-143508812D01*
X138453812Y-143508812D02*
X138453812Y-126208812D01*
X138453812Y-126208812D02*
X156353812Y-126208812D01*
D11*
%TO.C,J1*%
X144523812Y-57963812D02*
X144523812Y-56633812D01*
X145853812Y-57963812D02*
X144523812Y-57963812D01*
X147123812Y-57963812D02*
X149723812Y-57963812D01*
X147123812Y-57963812D02*
X147123812Y-55303812D01*
X149723812Y-57963812D02*
X149723812Y-55303812D01*
X147123812Y-55303812D02*
X149723812Y-55303812D01*
%TO.C,U1*%
X146873812Y-88408812D02*
X146873812Y-67968812D01*
X146873812Y-67968812D02*
X141573812Y-67968812D01*
X145223812Y-88408812D02*
X146873812Y-88408812D01*
X141573812Y-88408812D02*
X143223812Y-88408812D01*
X141573812Y-67968812D02*
X141573812Y-88408812D01*
X145223812Y-88408812D02*
G75*
G03*
X143223812Y-88408812I-1000000J0D01*
G01*
%TO.C,R4*%
X168699929Y-93769929D02*
X167749929Y-93769929D01*
X167749929Y-94689929D02*
X167749929Y-92849929D01*
X167749929Y-92849929D02*
X163909929Y-92849929D01*
X163909929Y-94689929D02*
X167749929Y-94689929D01*
X163909929Y-92849929D02*
X163909929Y-94689929D01*
X162959929Y-93769929D02*
X163909929Y-93769929D01*
%TO.C,J3*%
X122453812Y-124203812D02*
X122453812Y-105913812D01*
X125003812Y-124203812D02*
X122453812Y-124203812D01*
X131343812Y-124203812D02*
X127913812Y-124203812D01*
X137693812Y-124203812D02*
X134263812Y-124203812D01*
X143063812Y-124203812D02*
X140613812Y-124203812D01*
X143063812Y-124203812D02*
X143063812Y-105913812D01*
X119453812Y-120903812D02*
X122453812Y-120903812D01*
X119453812Y-120903812D02*
X119453812Y-109203812D01*
X143093812Y-119313812D02*
X146313812Y-119313812D01*
X146333812Y-119313812D02*
X146333812Y-110833812D01*
X143093812Y-110803812D02*
X146313812Y-110803812D01*
X119453812Y-109203812D02*
X122453812Y-109203812D01*
X122453812Y-105913812D02*
X125003812Y-105913812D01*
X127913812Y-105913812D02*
X131343812Y-105913812D01*
X134263812Y-105913812D02*
X137693812Y-105913812D01*
X143063812Y-105913812D02*
X140613812Y-105913812D01*
%TO.C,R12*%
X126903812Y-79463812D02*
X127853812Y-79463812D01*
X127853812Y-78543812D02*
X127853812Y-80383812D01*
X127853812Y-80383812D02*
X131693812Y-80383812D01*
X131693812Y-78543812D02*
X127853812Y-78543812D01*
X131693812Y-80383812D02*
X131693812Y-78543812D01*
X132643812Y-79463812D02*
X131693812Y-79463812D01*
%TO.C,RV1*%
X159043812Y-58998812D02*
X159043812Y-54278812D01*
X160233812Y-58998812D02*
X159053812Y-58998812D01*
X163133812Y-58998812D02*
X162603812Y-58998812D01*
X165583812Y-58998812D02*
X164753812Y-58998812D01*
X168793812Y-58998812D02*
X167303812Y-58998812D01*
X168793812Y-58998812D02*
X168793812Y-54278812D01*
X159053812Y-50468812D02*
X159053812Y-47408812D01*
X168793812Y-50468812D02*
X168793812Y-47408812D01*
X168793812Y-47408812D02*
X159053812Y-47408812D01*
%TO.C,R11*%
X124463812Y-82053812D02*
X125413812Y-82053812D01*
X125413812Y-81133812D02*
X125413812Y-82973812D01*
X125413812Y-82973812D02*
X129253812Y-82973812D01*
X129253812Y-81133812D02*
X125413812Y-81133812D01*
X129253812Y-82973812D02*
X129253812Y-81133812D01*
X130203812Y-82053812D02*
X129253812Y-82053812D01*
%TO.C,R19*%
X167383812Y-84853812D02*
X167383812Y-85803812D01*
X168303812Y-85803812D02*
X166463812Y-85803812D01*
X166463812Y-85803812D02*
X166463812Y-89643812D01*
X168303812Y-89643812D02*
X168303812Y-85803812D01*
X166463812Y-89643812D02*
X168303812Y-89643812D01*
X167383812Y-90593812D02*
X167383812Y-89643812D01*
%TO.C,R10*%
X134430000Y-82560000D02*
X134430000Y-83510000D01*
X135350000Y-83510000D02*
X133510000Y-83510000D01*
X133510000Y-83510000D02*
X133510000Y-87350000D01*
X135350000Y-87350000D02*
X135350000Y-83510000D01*
X133510000Y-87350000D02*
X135350000Y-87350000D01*
X134430000Y-88300000D02*
X134430000Y-87350000D01*
%TO.C,C3*%
X143450000Y-88950000D02*
X140710000Y-88950000D01*
X143450000Y-88950000D02*
X143450000Y-96190000D01*
X140710000Y-88950000D02*
X140710000Y-96190000D01*
X143450000Y-96190000D02*
X140710000Y-96190000D01*
%TO.C,JOVGI2*%
X152233812Y-96803812D02*
X152233812Y-98133812D01*
X150903812Y-96803812D02*
X152233812Y-96803812D01*
X149633812Y-96803812D02*
X141953812Y-96803812D01*
X149633812Y-96803812D02*
X149633812Y-99463812D01*
X141953812Y-96803812D02*
X141953812Y-99463812D01*
X149633812Y-99463812D02*
X141953812Y-99463812D01*
%TO.C,U3*%
X147513812Y-59273812D02*
X143913812Y-59273812D01*
X145713812Y-63723812D02*
G75*
G03*
X147552290Y-59285334I0J2600000D01*
G01*
X143875334Y-59285334D02*
G75*
G03*
X145713812Y-63723812I1838478J-1838478D01*
G01*
%TO.C,R2*%
X158729929Y-95909929D02*
X159679929Y-95909929D01*
X159679929Y-94989929D02*
X159679929Y-96829929D01*
X159679929Y-96829929D02*
X163519929Y-96829929D01*
X163519929Y-94989929D02*
X159679929Y-94989929D01*
X163519929Y-96829929D02*
X163519929Y-94989929D01*
X164469929Y-95909929D02*
X163519929Y-95909929D01*
%TO.C,C10*%
X156730000Y-73700000D02*
X156730000Y-70960000D01*
X156730000Y-73700000D02*
X149490000Y-73700000D01*
X156730000Y-70960000D02*
X149490000Y-70960000D01*
X149490000Y-73700000D02*
X149490000Y-70960000D01*
%TO.C,C4*%
X133260000Y-93800000D02*
X133260000Y-96540000D01*
X133260000Y-93800000D02*
X140500000Y-93800000D01*
X133260000Y-96540000D02*
X140500000Y-96540000D01*
X140500000Y-93800000D02*
X140500000Y-96540000D01*
D10*
%TO.C,R1*%
X160973812Y-128603812D02*
X160973812Y-133683812D01*
X158433812Y-128603812D02*
X160973812Y-128603812D01*
X160973812Y-133683812D02*
X158433812Y-133683812D01*
X158433812Y-133683812D02*
X158433812Y-128603812D01*
D11*
%TO.C,C6*%
X136370000Y-82450000D02*
X139110000Y-82450000D01*
X136370000Y-82450000D02*
X136370000Y-75210000D01*
X139110000Y-82450000D02*
X139110000Y-75210000D01*
X136370000Y-75210000D02*
X139110000Y-75210000D01*
%TO.C,C15*%
X163433812Y-82853812D02*
X163433812Y-80113812D01*
X163433812Y-82853812D02*
X156193812Y-82853812D01*
X163433812Y-80113812D02*
X156193812Y-80113812D01*
X156193812Y-82853812D02*
X156193812Y-80113812D01*
%TO.C,R8*%
X130093812Y-86793812D02*
X129143812Y-86793812D01*
X129143812Y-87713812D02*
X129143812Y-85873812D01*
X129143812Y-85873812D02*
X125303812Y-85873812D01*
X125303812Y-87713812D02*
X129143812Y-87713812D01*
X125303812Y-85873812D02*
X125303812Y-87713812D01*
X124353812Y-86793812D02*
X125303812Y-86793812D01*
%TO.C,R6*%
X133440000Y-99280000D02*
X134390000Y-99280000D01*
X134390000Y-98360000D02*
X134390000Y-100200000D01*
X134390000Y-100200000D02*
X138230000Y-100200000D01*
X138230000Y-98360000D02*
X134390000Y-98360000D01*
X138230000Y-100200000D02*
X138230000Y-98360000D01*
X139180000Y-99280000D02*
X138230000Y-99280000D01*
%TO.C,R1*%
X158789929Y-98369929D02*
X159739929Y-98369929D01*
X159739929Y-97449929D02*
X159739929Y-99289929D01*
X159739929Y-99289929D02*
X163579929Y-99289929D01*
X163579929Y-97449929D02*
X159739929Y-97449929D01*
X163579929Y-99289929D02*
X163579929Y-97449929D01*
X164529929Y-98369929D02*
X163579929Y-98369929D01*
%TO.C,C1*%
X159710000Y-99570000D02*
X159710000Y-102310000D01*
X159710000Y-99570000D02*
X166950000Y-99570000D01*
X159710000Y-102310000D02*
X166950000Y-102310000D01*
X166950000Y-99570000D02*
X166950000Y-102310000D01*
D10*
%TO.C,D1*%
X128203812Y-131103812D02*
X125203812Y-131103812D01*
X128228715Y-131088699D02*
G75*
G03*
X125203812Y-131103811I-1524903J2484887D01*
G01*
X129221748Y-128603812D02*
G75*
G03*
X129221748Y-128603812I-2517936J0D01*
G01*
%TD*%
D12*
%TO.C,R2*%
X135203812Y-127353812D03*
X135203812Y-134973812D03*
%TD*%
D13*
%TO.C,C1*%
X165253812Y-127333812D03*
D14*
X170253812Y-127333812D03*
%TD*%
D12*
%TO.C,R3*%
X131953812Y-134953812D03*
X131953812Y-127333812D03*
%TD*%
D15*
%TO.C,SW1*%
X152753812Y-130158812D03*
D16*
X147453812Y-130158812D03*
X142153812Y-130158812D03*
X152753812Y-134858812D03*
X147453812Y-134883812D03*
X142153812Y-134858812D03*
X152753812Y-139558812D03*
X147453812Y-139558812D03*
X142153812Y-139558812D03*
%TD*%
D12*
%TO.C,R1*%
X159703812Y-127333812D03*
X159703812Y-134953812D03*
%TD*%
D17*
%TO.C,D1*%
X126703812Y-129873812D03*
D18*
X126703812Y-127333812D03*
%TD*%
%LPC*%
D19*
%TO.C,R15*%
X157850000Y-74920000D03*
D20*
X150230000Y-74920000D03*
%TD*%
D19*
%TO.C,R16*%
X164413812Y-81513812D03*
D20*
X172033812Y-81513812D03*
%TD*%
D21*
%TO.C,C11*%
X126200000Y-65230000D03*
D22*
X123700000Y-65230000D03*
%TD*%
D23*
%TO.C,J2*%
X167453812Y-106863812D03*
X154753812Y-106863812D03*
X161103812Y-106863812D03*
X167453812Y-123093812D03*
X154753812Y-123093812D03*
X161103812Y-123093812D03*
%TD*%
D19*
%TO.C,R7*%
X131013812Y-89153812D03*
D20*
X123393812Y-89153812D03*
%TD*%
D24*
%TO.C,J4*%
X148343812Y-109143812D03*
D25*
X145803812Y-109143812D03*
%TD*%
D22*
%TO.C,C9*%
X155590000Y-69320000D03*
X150590000Y-69320000D03*
%TD*%
D19*
%TO.C,R13*%
X125963812Y-76833812D03*
D20*
X133583812Y-76833812D03*
%TD*%
D22*
%TO.C,C2*%
X134300000Y-92110000D03*
X139300000Y-92110000D03*
%TD*%
D26*
%TO.C,C13*%
X166613812Y-64813812D03*
D22*
X166613812Y-67313812D03*
%TD*%
D19*
%TO.C,R14*%
X161333812Y-68273812D03*
D20*
X161333812Y-75893812D03*
%TD*%
D27*
%TO.C,R2*%
X135203812Y-127353812D03*
X135203812Y-134973812D03*
%TD*%
D28*
%TO.C,C1*%
X165253812Y-127333812D03*
D29*
X170253812Y-127333812D03*
%TD*%
D19*
%TO.C,R5*%
X152203812Y-91043812D03*
D20*
X144583812Y-91043812D03*
%TD*%
D21*
%TO.C,C14*%
X167996463Y-74683812D03*
D22*
X165496463Y-74683812D03*
%TD*%
%TO.C,C7*%
X137870000Y-73330000D03*
X132870000Y-73330000D03*
%TD*%
D19*
%TO.C,R20*%
X171753812Y-91683812D03*
D20*
X171753812Y-84063812D03*
%TD*%
D19*
%TO.C,R9*%
X131093812Y-84553812D03*
D20*
X123473812Y-84553812D03*
%TD*%
D30*
%TO.C,U2*%
X157049929Y-91529929D03*
D31*
X159589929Y-91529929D03*
X162129929Y-91529929D03*
X164669929Y-91529929D03*
X164669929Y-83909929D03*
X162129929Y-83909929D03*
X159589929Y-83909929D03*
X157049929Y-83909929D03*
%TD*%
D32*
%TO.C,C12*%
X151543812Y-62013812D03*
D22*
X154043812Y-62013812D03*
%TD*%
D33*
%TO.C,RV2*%
X126003812Y-52248812D03*
X135603812Y-52248812D03*
D34*
X128303812Y-59748812D03*
D35*
X130803812Y-59748812D03*
X133303812Y-59748812D03*
%TD*%
D24*
%TO.C,JOVGI1*%
X150903812Y-103683812D03*
D25*
X148363812Y-103683812D03*
X145823812Y-103683812D03*
X143283812Y-103683812D03*
%TD*%
D19*
%TO.C,R18*%
X138733812Y-63893812D03*
D20*
X131113812Y-63893812D03*
%TD*%
D19*
%TO.C,R3*%
X154319929Y-97229929D03*
D20*
X154319929Y-89609929D03*
%TD*%
D19*
%TO.C,R17*%
X154303812Y-85793812D03*
D20*
X154303812Y-78173812D03*
%TD*%
D27*
%TO.C,R3*%
X131953812Y-134953812D03*
X131953812Y-127333812D03*
%TD*%
D26*
%TO.C,C2*%
X166203812Y-132533812D03*
D22*
X166203812Y-135033812D03*
%TD*%
%TO.C,C5*%
X137760000Y-88840000D03*
X137760000Y-83840000D03*
%TD*%
%TO.C,C8*%
X132850000Y-70110000D03*
X137850000Y-70110000D03*
%TD*%
D36*
%TO.C,SW1*%
X152753812Y-130158812D03*
D37*
X147453812Y-130158812D03*
X142153812Y-130158812D03*
X152753812Y-134858812D03*
X147453812Y-134883812D03*
X142153812Y-134858812D03*
X152753812Y-139558812D03*
X147453812Y-139558812D03*
X142153812Y-139558812D03*
%TD*%
D38*
%TO.C,J1*%
X145853812Y-56633812D03*
D25*
X148393812Y-56633812D03*
%TD*%
D21*
%TO.C,U1*%
X148033812Y-87078812D03*
D31*
X148033812Y-84538812D03*
X148033812Y-81998812D03*
X148033812Y-79458812D03*
X148033812Y-76918812D03*
X148033812Y-74378812D03*
X148033812Y-71838812D03*
X148033812Y-69298812D03*
X140413812Y-69298812D03*
X140413812Y-71838812D03*
X140413812Y-74378812D03*
X140413812Y-76918812D03*
X140413812Y-79458812D03*
X140413812Y-81998812D03*
X140413812Y-84538812D03*
X140413812Y-87078812D03*
%TD*%
D19*
%TO.C,R4*%
X169639929Y-93769929D03*
D20*
X162019929Y-93769929D03*
%TD*%
D23*
%TO.C,J3*%
X126453812Y-123063812D03*
X139153812Y-123063812D03*
X132803812Y-123063812D03*
X126453812Y-106833812D03*
X139153812Y-106833812D03*
X132803812Y-106833812D03*
%TD*%
D19*
%TO.C,R12*%
X125963812Y-79463812D03*
D20*
X133583812Y-79463812D03*
%TD*%
D33*
%TO.C,RV1*%
X159123812Y-52378812D03*
X168723812Y-52378812D03*
D34*
X161423812Y-59878812D03*
D35*
X163923812Y-59878812D03*
X166423812Y-59878812D03*
%TD*%
D19*
%TO.C,R11*%
X123523812Y-82053812D03*
D20*
X131143812Y-82053812D03*
%TD*%
D19*
%TO.C,R19*%
X167383812Y-83913812D03*
D20*
X167383812Y-91533812D03*
%TD*%
D19*
%TO.C,R10*%
X134430000Y-81620000D03*
D20*
X134430000Y-89240000D03*
%TD*%
D22*
%TO.C,C3*%
X142080000Y-90070000D03*
X142080000Y-95070000D03*
%TD*%
D24*
%TO.C,JOVGI2*%
X150903812Y-98133812D03*
D25*
X148363812Y-98133812D03*
X145823812Y-98133812D03*
X143283812Y-98133812D03*
%TD*%
D39*
%TO.C,U3*%
X146983812Y-61123812D03*
D40*
X145713812Y-61123812D03*
X144443812Y-61123812D03*
%TD*%
D19*
%TO.C,R2*%
X157789929Y-95909929D03*
D20*
X165409929Y-95909929D03*
%TD*%
D22*
%TO.C,C10*%
X155610000Y-72330000D03*
X150610000Y-72330000D03*
%TD*%
%TO.C,C4*%
X134380000Y-95170000D03*
X139380000Y-95170000D03*
%TD*%
D27*
%TO.C,R1*%
X159703812Y-127333812D03*
X159703812Y-134953812D03*
%TD*%
D22*
%TO.C,C6*%
X137740000Y-81330000D03*
X137740000Y-76330000D03*
%TD*%
%TO.C,C15*%
X162313812Y-81483812D03*
X157313812Y-81483812D03*
%TD*%
D19*
%TO.C,R8*%
X131033812Y-86793812D03*
D20*
X123413812Y-86793812D03*
%TD*%
D19*
%TO.C,R6*%
X132500000Y-99280000D03*
D20*
X140120000Y-99280000D03*
%TD*%
D19*
%TO.C,R1*%
X157849929Y-98369929D03*
D20*
X165469929Y-98369929D03*
%TD*%
D22*
%TO.C,C1*%
X160830000Y-100940000D03*
X165830000Y-100940000D03*
%TD*%
D41*
%TO.C,D1*%
X126703812Y-129873812D03*
D42*
X126703812Y-127333812D03*
%TD*%
%LPD*%
M02*
