%TF.GenerationSoftware,KiCad,Pcbnew,6.0.0-d3dd2cf0fa~116~ubuntu20.04.1*%
%TF.CreationDate,2022-01-03T11:44:46+00:00*%
%TF.ProjectId,peppermill,70657070-6572-46d6-996c-6c2e6b696361,rev?*%
%TF.SameCoordinates,Original*%
%TF.FileFunction,Soldermask,Top*%
%TF.FilePolarity,Negative*%
%FSLAX46Y46*%
G04 Gerber Fmt 4.6, Leading zero omitted, Abs format (unit mm)*
G04 Created by KiCad (PCBNEW 6.0.0-d3dd2cf0fa~116~ubuntu20.04.1) date 2022-01-03 11:44:46*
%MOMM*%
%LPD*%
G01*
G04 APERTURE LIST*
G04 Aperture macros list*
%AMRoundRect*
0 Rectangle with rounded corners*
0 $1 Rounding radius*
0 $2 $3 $4 $5 $6 $7 $8 $9 X,Y pos of 4 corners*
0 Add a 4 corners polygon primitive as box body*
4,1,4,$2,$3,$4,$5,$6,$7,$8,$9,$2,$3,0*
0 Add four circle primitives for the rounded corners*
1,1,$1+$1,$2,$3*
1,1,$1+$1,$4,$5*
1,1,$1+$1,$6,$7*
1,1,$1+$1,$8,$9*
0 Add four rect primitives between the rounded corners*
20,1,$1+$1,$2,$3,$4,$5,0*
20,1,$1+$1,$4,$5,$6,$7,0*
20,1,$1+$1,$6,$7,$8,$9,0*
20,1,$1+$1,$8,$9,$2,$3,0*%
G04 Aperture macros list end*
%ADD10RoundRect,0.200000X1.300000X0.750000X-1.300000X0.750000X-1.300000X-0.750000X1.300000X-0.750000X0*%
%ADD11O,3.000000X1.900000*%
%ADD12C,3.400000*%
%ADD13RoundRect,0.200000X0.850000X-0.850000X0.850000X0.850000X-0.850000X0.850000X-0.850000X-0.850000X0*%
%ADD14O,2.100000X2.100000*%
%ADD15RoundRect,0.200000X-0.800000X0.800000X-0.800000X-0.800000X0.800000X-0.800000X0.800000X0.800000X0*%
%ADD16C,2.000000*%
%ADD17RoundRect,0.200000X1.000000X0.950000X-1.000000X0.950000X-1.000000X-0.950000X1.000000X-0.950000X0*%
%ADD18C,2.300000*%
%ADD19C,2.398980*%
%ADD20RoundRect,0.200000X-0.650000X-0.650000X0.650000X-0.650000X0.650000X0.650000X-0.650000X0.650000X0*%
%ADD21C,1.700000*%
%ADD22O,2.000000X2.000000*%
%ADD23O,4.400000X4.400000*%
%ADD24RoundRect,0.200000X-0.900000X0.900000X-0.900000X-0.900000X0.900000X-0.900000X0.900000X0.900000X0*%
%ADD25C,2.200000*%
%ADD26C,3.800000*%
%ADD27RoundRect,0.200000X0.900000X-0.900000X0.900000X0.900000X-0.900000X0.900000X-0.900000X-0.900000X0*%
%ADD28RoundRect,0.200000X0.750000X0.750000X-0.750000X0.750000X-0.750000X-0.750000X0.750000X-0.750000X0*%
%ADD29C,1.900000*%
%ADD30C,4.400000*%
%ADD31RoundRect,0.200000X-0.525000X-0.750000X0.525000X-0.750000X0.525000X0.750000X-0.525000X0.750000X0*%
%ADD32O,1.450000X1.900000*%
G04 APERTURE END LIST*
D10*
%TO.C,SW1*%
X148550000Y-137825000D03*
D11*
X143250000Y-137825000D03*
X137950000Y-137825000D03*
X148550000Y-142525000D03*
X143250000Y-142550000D03*
X137950000Y-142525000D03*
X148550000Y-147225000D03*
X143250000Y-147225000D03*
X137950000Y-147225000D03*
%TD*%
D12*
%TO.C,J3*%
X122250000Y-130730000D03*
X134950000Y-130730000D03*
X128600000Y-130730000D03*
X122250000Y-114500000D03*
X134950000Y-114500000D03*
X128600000Y-114500000D03*
%TD*%
D13*
%TO.C,J2*%
X141650000Y-64300000D03*
D14*
X144190000Y-64300000D03*
%TD*%
D15*
%TO.C,C2*%
X162000000Y-140200000D03*
D16*
X162000000Y-142700000D03*
%TD*%
D17*
%TO.C,D1*%
X122500000Y-137540000D03*
D18*
X122500000Y-135000000D03*
%TD*%
D19*
%TO.C,R1*%
X155473400Y-142570200D03*
X155473400Y-134950200D03*
%TD*%
%TO.C,R3*%
X131000000Y-135020000D03*
X131000000Y-142640000D03*
%TD*%
%TO.C,R2*%
X127750000Y-142620000D03*
X127750000Y-135000000D03*
%TD*%
D20*
%TO.C,C1*%
X161050000Y-135000000D03*
D21*
X166050000Y-135000000D03*
%TD*%
D12*
%TO.C,J1*%
X163250000Y-114530000D03*
X150550000Y-114530000D03*
X156900000Y-114530000D03*
X163250000Y-130760000D03*
X150550000Y-130760000D03*
X156900000Y-130760000D03*
%TD*%
D16*
%TO.C,FXC4*%
X137809600Y-92329000D03*
X142809600Y-92329000D03*
%TD*%
%TO.C,FXC1*%
X146685000Y-109067600D03*
X146685000Y-104067600D03*
%TD*%
%TO.C,FXR2*%
X136017000Y-104495600D03*
D22*
X143637000Y-104495600D03*
%TD*%
D23*
%TO.C,RV2*%
X145843800Y-70789600D03*
X145843800Y-80289600D03*
D24*
X138343800Y-73039600D03*
D25*
X138343800Y-75539600D03*
X138343800Y-78039600D03*
%TD*%
D26*
%TO.C,TP1*%
X136448800Y-81711800D03*
%TD*%
D16*
%TO.C,FXC2*%
X133121400Y-74621400D03*
X133121400Y-69621400D03*
%TD*%
D15*
%TO.C,FXC3*%
X145237200Y-85630406D03*
D16*
X145237200Y-88130406D03*
%TD*%
D27*
%TO.C,D2*%
X152831800Y-100914200D03*
D25*
X152831800Y-98374200D03*
%TD*%
D16*
%TO.C,FXR7*%
X156210000Y-84302600D03*
D22*
X156210000Y-91922600D03*
%TD*%
D28*
%TO.C,Q2*%
X139018600Y-86995000D03*
D29*
X136478600Y-86995000D03*
X133938600Y-86995000D03*
%TD*%
D16*
%TO.C,FXC5*%
X155234000Y-70231000D03*
X160234000Y-70231000D03*
%TD*%
%TO.C,FXR4*%
X145338800Y-94970600D03*
D22*
X152958800Y-94970600D03*
%TD*%
D16*
%TO.C,FXR1*%
X156946600Y-104521000D03*
D22*
X149326600Y-104521000D03*
%TD*%
D16*
%TO.C,FXR3*%
X135890000Y-107823000D03*
D22*
X143510000Y-107823000D03*
%TD*%
D30*
%TO.C,RV3*%
X153359400Y-60111600D03*
X162159400Y-60111600D03*
D25*
X160259400Y-67111600D03*
X157759400Y-67111600D03*
X155259400Y-67111600D03*
%TD*%
D30*
%TO.C,RV1*%
X130434800Y-60111600D03*
X121634800Y-60111600D03*
D25*
X128534800Y-67111600D03*
X126034800Y-67111600D03*
X123534800Y-67111600D03*
%TD*%
D16*
%TO.C,FXR6*%
X152882600Y-87655400D03*
D22*
X152882600Y-80035400D03*
%TD*%
D16*
%TO.C,FXR5*%
X129844800Y-70154800D03*
D22*
X122224800Y-70154800D03*
%TD*%
D31*
%TO.C,Q1*%
X145364200Y-100863400D03*
D32*
X146634200Y-100863400D03*
X147904200Y-100863400D03*
%TD*%
M02*
