%TF.GenerationSoftware,KiCad,Pcbnew,7.0.2-6a45011f42~172~ubuntu22.04.1*%
%TF.CreationDate,2023-05-21T10:08:46+01:00*%
%TF.ProjectId,Rebote2.5-offboard,5265626f-7465-4322-9e35-2d6f6666626f,rev?*%
%TF.SameCoordinates,Original*%
%TF.FileFunction,Legend,Bot*%
%TF.FilePolarity,Positive*%
%FSLAX46Y46*%
G04 Gerber Fmt 4.6, Leading zero omitted, Abs format (unit mm)*
G04 Created by KiCad (PCBNEW 7.0.2-6a45011f42~172~ubuntu22.04.1) date 2023-05-21 10:08:46*
%MOMM*%
%LPD*%
G01*
G04 APERTURE LIST*
G04 Aperture macros list*
%AMRoundRect*
0 Rectangle with rounded corners*
0 $1 Rounding radius*
0 $2 $3 $4 $5 $6 $7 $8 $9 X,Y pos of 4 corners*
0 Add a 4 corners polygon primitive as box body*
4,1,4,$2,$3,$4,$5,$6,$7,$8,$9,$2,$3,0*
0 Add four circle primitives for the rounded corners*
1,1,$1+$1,$2,$3*
1,1,$1+$1,$4,$5*
1,1,$1+$1,$6,$7*
1,1,$1+$1,$8,$9*
0 Add four rect primitives between the rounded corners*
20,1,$1+$1,$2,$3,$4,$5,0*
20,1,$1+$1,$4,$5,$6,$7,0*
20,1,$1+$1,$6,$7,$8,$9,0*
20,1,$1+$1,$8,$9,$2,$3,0*%
G04 Aperture macros list end*
%ADD10C,0.300000*%
%ADD11C,1.998980*%
%ADD12RoundRect,0.450000X-0.620000X-0.845000X0.620000X-0.845000X0.620000X0.845000X-0.620000X0.845000X0*%
%ADD13O,2.140000X2.590000*%
%ADD14RoundRect,0.200000X1.300000X0.750000X-1.300000X0.750000X-1.300000X-0.750000X1.300000X-0.750000X0*%
%ADD15O,3.000000X1.900000*%
%ADD16C,3.400000*%
%ADD17RoundRect,0.200000X0.850000X-0.850000X0.850000X0.850000X-0.850000X0.850000X-0.850000X-0.850000X0*%
%ADD18O,2.100000X2.100000*%
%ADD19RoundRect,0.200000X-0.800000X0.800000X-0.800000X-0.800000X0.800000X-0.800000X0.800000X0.800000X0*%
%ADD20C,2.000000*%
%ADD21RoundRect,0.200000X1.000000X0.950000X-1.000000X0.950000X-1.000000X-0.950000X1.000000X-0.950000X0*%
%ADD22C,2.300000*%
%ADD23C,2.398980*%
%ADD24RoundRect,0.200000X-0.650000X-0.650000X0.650000X-0.650000X0.650000X0.650000X-0.650000X0.650000X0*%
%ADD25C,1.700000*%
%ADD26O,2.000000X2.000000*%
%ADD27O,3.120000X3.640000*%
%ADD28RoundRect,0.200000X0.900000X0.900000X-0.900000X0.900000X-0.900000X-0.900000X0.900000X-0.900000X0*%
%ADD29C,2.200000*%
%ADD30RoundRect,0.200000X0.800000X-0.800000X0.800000X0.800000X-0.800000X0.800000X-0.800000X-0.800000X0*%
%ADD31RoundRect,0.200000X0.525000X0.750000X-0.525000X0.750000X-0.525000X-0.750000X0.525000X-0.750000X0*%
%ADD32O,1.450000X1.900000*%
%ADD33RoundRect,0.200000X0.800000X0.800000X-0.800000X0.800000X-0.800000X-0.800000X0.800000X-0.800000X0*%
%ADD34RoundRect,0.200000X-0.800000X-0.800000X0.800000X-0.800000X0.800000X0.800000X-0.800000X0.800000X0*%
G04 APERTURE END LIST*
D10*
G36*
X141440907Y-122477890D02*
G01*
X141482418Y-122481651D01*
X141523087Y-122487919D01*
X141562915Y-122496694D01*
X141601901Y-122507977D01*
X141640046Y-122521767D01*
X141677350Y-122538065D01*
X141713811Y-122556870D01*
X141749432Y-122578182D01*
X141784211Y-122602001D01*
X141818148Y-122628328D01*
X141851244Y-122657162D01*
X141883498Y-122688503D01*
X141914911Y-122722352D01*
X141945482Y-122758708D01*
X141975212Y-122797571D01*
X141996346Y-122826542D01*
X142016334Y-122856029D01*
X142035175Y-122886031D01*
X142052870Y-122916548D01*
X142069419Y-122947580D01*
X142084821Y-122979127D01*
X142099077Y-123011190D01*
X142112187Y-123043768D01*
X142124150Y-123076861D01*
X142134967Y-123110469D01*
X142141542Y-123133161D01*
X140944263Y-123147083D01*
X140953789Y-123125833D01*
X140945946Y-123083667D01*
X140940187Y-123042715D01*
X140936512Y-123002975D01*
X140934921Y-122964450D01*
X140935413Y-122927138D01*
X140937989Y-122891040D01*
X140942649Y-122856155D01*
X140949392Y-122822484D01*
X140958219Y-122790026D01*
X140969130Y-122758782D01*
X140982125Y-122728752D01*
X140997203Y-122699935D01*
X141014365Y-122672332D01*
X141033610Y-122645942D01*
X141054940Y-122620766D01*
X141078353Y-122596803D01*
X141102956Y-122575328D01*
X141128679Y-122555965D01*
X141155523Y-122538715D01*
X141183488Y-122523576D01*
X141212573Y-122510550D01*
X141242779Y-122499637D01*
X141274105Y-122490835D01*
X141306552Y-122484146D01*
X141340119Y-122479570D01*
X141374807Y-122477105D01*
X141398555Y-122476636D01*
X141440907Y-122477890D01*
G37*
G36*
X145236756Y-122478113D02*
G01*
X145281959Y-122482544D01*
X145326034Y-122489928D01*
X145368982Y-122500266D01*
X145410802Y-122513559D01*
X145451494Y-122529805D01*
X145491059Y-122549004D01*
X145529495Y-122571158D01*
X145566804Y-122596265D01*
X145602986Y-122624327D01*
X145638039Y-122655342D01*
X145671965Y-122689310D01*
X145704763Y-122726233D01*
X145736434Y-122766109D01*
X145766977Y-122808940D01*
X145796392Y-122854724D01*
X145811164Y-122880095D01*
X145825438Y-122906015D01*
X145839213Y-122932485D01*
X145852491Y-122959504D01*
X145865271Y-122987073D01*
X145877553Y-123015191D01*
X145889337Y-123043859D01*
X145900622Y-123073077D01*
X145911410Y-123102844D01*
X145921700Y-123133161D01*
X145931491Y-123164027D01*
X145940785Y-123195443D01*
X145949581Y-123227408D01*
X145957878Y-123259923D01*
X145965678Y-123292987D01*
X145972979Y-123326601D01*
X145979929Y-123361595D01*
X145986123Y-123395867D01*
X145991561Y-123429418D01*
X145996243Y-123462247D01*
X146000170Y-123494356D01*
X146003342Y-123525743D01*
X146005757Y-123556409D01*
X146007418Y-123586353D01*
X146008471Y-123644079D01*
X146006502Y-123698919D01*
X146001510Y-123750874D01*
X145993496Y-123799944D01*
X145982459Y-123846128D01*
X145968400Y-123889428D01*
X145951318Y-123929843D01*
X145931214Y-123967372D01*
X145908087Y-124002016D01*
X145881938Y-124033776D01*
X145852766Y-124062650D01*
X145820572Y-124088639D01*
X145793278Y-124106842D01*
X145764152Y-124122619D01*
X145733194Y-124135968D01*
X145700404Y-124146891D01*
X145665783Y-124155386D01*
X145629330Y-124161454D01*
X145591045Y-124165094D01*
X145561129Y-124166232D01*
X145550928Y-124166308D01*
X145506014Y-124164877D01*
X145462130Y-124160584D01*
X145419277Y-124153428D01*
X145377454Y-124143410D01*
X145336662Y-124130530D01*
X145296900Y-124114788D01*
X145258168Y-124096184D01*
X145220467Y-124074717D01*
X145183796Y-124050388D01*
X145148156Y-124023197D01*
X145113546Y-123993144D01*
X145079966Y-123960228D01*
X145047417Y-123924450D01*
X145015898Y-123885810D01*
X144985410Y-123844308D01*
X144955952Y-123799944D01*
X144940201Y-123775091D01*
X144925006Y-123749626D01*
X144910365Y-123723548D01*
X144896280Y-123696858D01*
X144882751Y-123669555D01*
X144869776Y-123641640D01*
X144857357Y-123613112D01*
X144845493Y-123583972D01*
X144834185Y-123554219D01*
X144823431Y-123523854D01*
X144813233Y-123492876D01*
X144803590Y-123461286D01*
X144794503Y-123429083D01*
X144785970Y-123396267D01*
X144777993Y-123362840D01*
X144770572Y-123328799D01*
X144763187Y-123291560D01*
X144756604Y-123255131D01*
X144750822Y-123219512D01*
X144745842Y-123184704D01*
X144741663Y-123150705D01*
X144738286Y-123117516D01*
X144735710Y-123085137D01*
X144733935Y-123053568D01*
X144732962Y-123022809D01*
X144732790Y-122992860D01*
X144734851Y-122935393D01*
X144740118Y-122881165D01*
X144748590Y-122830177D01*
X144760268Y-122782430D01*
X144775151Y-122737922D01*
X144793241Y-122696655D01*
X144814535Y-122658627D01*
X144839036Y-122623840D01*
X144866742Y-122592293D01*
X144897654Y-122563985D01*
X144931772Y-122538918D01*
X144959696Y-122524321D01*
X144988879Y-122511670D01*
X145019322Y-122500965D01*
X145051024Y-122492206D01*
X145083985Y-122485394D01*
X145118206Y-122480529D01*
X145153686Y-122477609D01*
X145190425Y-122476636D01*
X145236756Y-122478113D01*
G37*
G36*
X147739562Y-122477995D02*
G01*
X147779785Y-122482074D01*
X147819223Y-122488872D01*
X147857878Y-122498389D01*
X147895748Y-122510625D01*
X147932833Y-122525580D01*
X147969135Y-122543254D01*
X148004652Y-122563647D01*
X148039385Y-122586760D01*
X148073334Y-122612591D01*
X148106499Y-122641142D01*
X148138879Y-122672412D01*
X148170475Y-122706401D01*
X148201287Y-122743109D01*
X148231314Y-122782536D01*
X148260558Y-122824682D01*
X148278183Y-122851719D01*
X148295156Y-122879339D01*
X148311477Y-122907543D01*
X148327144Y-122936331D01*
X148342160Y-122965704D01*
X148356522Y-122995660D01*
X148370232Y-123026200D01*
X148383290Y-123057323D01*
X148395695Y-123089031D01*
X148407447Y-123121323D01*
X148418547Y-123154198D01*
X148428994Y-123187657D01*
X148438788Y-123221701D01*
X148447930Y-123256328D01*
X148456420Y-123291539D01*
X148464256Y-123327334D01*
X148470701Y-123359594D01*
X148476481Y-123391253D01*
X148481595Y-123422311D01*
X148486044Y-123452768D01*
X148489827Y-123482624D01*
X148492944Y-123511878D01*
X148497183Y-123568585D01*
X148498760Y-123622887D01*
X148497676Y-123674784D01*
X148493929Y-123724278D01*
X148487520Y-123771367D01*
X148478450Y-123816052D01*
X148466718Y-123858333D01*
X148452324Y-123898209D01*
X148435268Y-123935682D01*
X148415550Y-123970750D01*
X148393170Y-124003413D01*
X148368129Y-124033673D01*
X148340425Y-124061528D01*
X148311826Y-124086086D01*
X148281349Y-124107369D01*
X148248994Y-124125378D01*
X148214762Y-124140113D01*
X148178652Y-124151573D01*
X148140665Y-124159759D01*
X148110942Y-124163750D01*
X148080163Y-124165899D01*
X148059057Y-124166308D01*
X148016971Y-124165026D01*
X147975710Y-124161179D01*
X147935272Y-124154767D01*
X147895659Y-124145792D01*
X147856870Y-124134251D01*
X147818906Y-124120146D01*
X147781765Y-124103476D01*
X147745450Y-124084242D01*
X147709958Y-124062444D01*
X147675291Y-124038080D01*
X147641448Y-124011153D01*
X147608429Y-123981660D01*
X147576235Y-123949603D01*
X147544865Y-123914982D01*
X147514320Y-123877796D01*
X147484598Y-123838046D01*
X147465633Y-123811069D01*
X147447389Y-123783446D01*
X147429867Y-123755176D01*
X147413066Y-123726259D01*
X147396986Y-123696695D01*
X147381627Y-123666484D01*
X147366990Y-123635626D01*
X147353073Y-123604122D01*
X147339879Y-123571971D01*
X147327405Y-123539172D01*
X147315653Y-123505727D01*
X147304622Y-123471635D01*
X147294312Y-123436897D01*
X147284724Y-123401511D01*
X147275856Y-123365479D01*
X147267711Y-123328799D01*
X147261182Y-123295995D01*
X147255334Y-123263801D01*
X147250168Y-123232219D01*
X147245683Y-123201247D01*
X147241879Y-123170887D01*
X147238756Y-123141138D01*
X147234555Y-123083473D01*
X147233078Y-123028252D01*
X147234326Y-122975475D01*
X147238298Y-122925143D01*
X147244996Y-122877255D01*
X147254418Y-122831812D01*
X147266566Y-122788813D01*
X147281438Y-122748258D01*
X147299035Y-122710147D01*
X147319357Y-122674481D01*
X147342403Y-122641259D01*
X147368175Y-122610482D01*
X147396671Y-122582149D01*
X147419494Y-122563293D01*
X147443451Y-122546291D01*
X147477156Y-122526507D01*
X147503758Y-122513833D01*
X147531493Y-122503014D01*
X147560361Y-122494050D01*
X147590363Y-122486940D01*
X147621498Y-122481685D01*
X147653767Y-122478285D01*
X147687169Y-122476739D01*
X147698555Y-122476636D01*
X147739562Y-122477995D01*
G37*
G36*
X150057795Y-122477890D02*
G01*
X150099306Y-122481651D01*
X150139975Y-122487919D01*
X150179803Y-122496694D01*
X150218789Y-122507977D01*
X150256934Y-122521767D01*
X150294237Y-122538065D01*
X150330699Y-122556870D01*
X150366319Y-122578182D01*
X150401098Y-122602001D01*
X150435036Y-122628328D01*
X150468131Y-122657162D01*
X150500386Y-122688503D01*
X150531799Y-122722352D01*
X150562370Y-122758708D01*
X150592100Y-122797571D01*
X150613234Y-122826542D01*
X150633222Y-122856029D01*
X150652063Y-122886031D01*
X150669758Y-122916548D01*
X150686306Y-122947580D01*
X150701709Y-122979127D01*
X150715965Y-123011190D01*
X150729074Y-123043768D01*
X150741038Y-123076861D01*
X150751855Y-123110469D01*
X150758429Y-123133161D01*
X149561151Y-123147083D01*
X149570676Y-123125833D01*
X149562834Y-123083667D01*
X149557075Y-123042715D01*
X149553400Y-123002975D01*
X149551809Y-122964450D01*
X149552301Y-122927138D01*
X149554877Y-122891040D01*
X149559537Y-122856155D01*
X149566280Y-122822484D01*
X149575107Y-122790026D01*
X149586018Y-122758782D01*
X149599012Y-122728752D01*
X149614091Y-122699935D01*
X149631252Y-122672332D01*
X149650498Y-122645942D01*
X149671827Y-122620766D01*
X149695240Y-122596803D01*
X149719843Y-122575328D01*
X149745567Y-122555965D01*
X149772411Y-122538715D01*
X149800375Y-122523576D01*
X149829461Y-122510550D01*
X149859666Y-122499637D01*
X149890993Y-122490835D01*
X149923439Y-122484146D01*
X149957007Y-122479570D01*
X149991695Y-122477105D01*
X150015443Y-122476636D01*
X150057795Y-122477890D01*
G37*
G36*
X153562581Y-122806364D02*
G01*
X152634947Y-122806364D01*
X152604057Y-122806018D01*
X152573853Y-122804981D01*
X152544334Y-122803253D01*
X152487353Y-122797723D01*
X152433114Y-122789429D01*
X152381617Y-122778369D01*
X152332862Y-122764545D01*
X152286849Y-122747955D01*
X152243578Y-122728601D01*
X152203049Y-122706482D01*
X152165262Y-122681597D01*
X152130217Y-122653948D01*
X152097914Y-122623534D01*
X152068353Y-122590356D01*
X152041534Y-122554412D01*
X152017457Y-122515703D01*
X151996122Y-122474230D01*
X151986482Y-122452456D01*
X151975577Y-122424532D01*
X151965394Y-122395166D01*
X151955931Y-122364357D01*
X151947190Y-122332105D01*
X151939170Y-122298411D01*
X151936657Y-122286859D01*
X151930389Y-122253781D01*
X151925506Y-122221772D01*
X151922008Y-122190835D01*
X151919896Y-122160967D01*
X151919325Y-122118174D01*
X151921871Y-122077788D01*
X151927534Y-122039812D01*
X151936313Y-122004244D01*
X151948210Y-121971084D01*
X151963224Y-121940333D01*
X151981355Y-121911991D01*
X152002602Y-121886057D01*
X152024367Y-121865891D01*
X152049546Y-121847709D01*
X152078137Y-121831510D01*
X152110142Y-121817295D01*
X152145560Y-121805063D01*
X152184391Y-121794815D01*
X152226635Y-121786550D01*
X152256694Y-121782142D01*
X152288270Y-121778616D01*
X152321363Y-121775971D01*
X152355973Y-121774208D01*
X152392100Y-121773327D01*
X152410732Y-121773217D01*
X153347892Y-121773217D01*
X153562581Y-122806364D01*
G37*
G36*
X155210517Y-125418571D02*
G01*
X131122008Y-125418571D01*
X131122008Y-121398060D01*
X132000579Y-121398060D01*
X132087773Y-121820111D01*
X133312163Y-121820111D01*
X133575212Y-122577752D01*
X133546338Y-122559829D01*
X133516869Y-122543062D01*
X133486804Y-122527452D01*
X133456144Y-122512998D01*
X133424889Y-122499700D01*
X133393038Y-122487558D01*
X133360592Y-122476573D01*
X133327550Y-122466744D01*
X133293913Y-122458072D01*
X133259681Y-122450555D01*
X133224854Y-122444196D01*
X133189431Y-122438992D01*
X133153413Y-122434945D01*
X133116799Y-122432054D01*
X133079590Y-122430319D01*
X133041786Y-122429741D01*
X133010219Y-122430113D01*
X132979266Y-122431230D01*
X132948928Y-122433090D01*
X132919203Y-122435695D01*
X132861595Y-122443136D01*
X132806443Y-122453555D01*
X132753746Y-122466950D01*
X132703506Y-122483322D01*
X132655721Y-122502671D01*
X132610392Y-122524996D01*
X132567519Y-122550298D01*
X132527101Y-122578577D01*
X132489140Y-122609832D01*
X132453634Y-122644064D01*
X132420584Y-122681273D01*
X132389990Y-122721459D01*
X132361851Y-122764621D01*
X132336168Y-122810760D01*
X132319711Y-122844013D01*
X132304959Y-122878194D01*
X132291913Y-122913302D01*
X132280573Y-122949337D01*
X132270938Y-122986300D01*
X132263010Y-123024190D01*
X132256788Y-123063008D01*
X132252271Y-123102752D01*
X132249460Y-123143425D01*
X132248355Y-123185024D01*
X132248957Y-123227551D01*
X132251263Y-123271005D01*
X132255276Y-123315387D01*
X132260995Y-123360696D01*
X132268420Y-123406932D01*
X132277550Y-123454096D01*
X132285005Y-123488252D01*
X132293081Y-123521936D01*
X132301777Y-123555148D01*
X132311095Y-123587887D01*
X132321034Y-123620155D01*
X132331595Y-123651950D01*
X132342776Y-123683272D01*
X132354578Y-123714123D01*
X132367002Y-123744501D01*
X132380046Y-123774407D01*
X132393712Y-123803841D01*
X132407999Y-123832802D01*
X132422907Y-123861291D01*
X132438436Y-123889308D01*
X132454586Y-123916853D01*
X132471357Y-123943925D01*
X132488749Y-123970525D01*
X132506762Y-123996653D01*
X132525397Y-124022308D01*
X132544653Y-124047491D01*
X132564529Y-124072202D01*
X132585027Y-124096441D01*
X132606146Y-124120208D01*
X132627886Y-124143502D01*
X132650247Y-124166324D01*
X132673229Y-124188673D01*
X132696833Y-124210551D01*
X132721057Y-124231956D01*
X132745902Y-124252889D01*
X132771369Y-124273349D01*
X132797457Y-124293338D01*
X132824166Y-124312854D01*
X132864360Y-124340360D01*
X132905075Y-124366091D01*
X132946311Y-124390048D01*
X132988068Y-124412230D01*
X133030346Y-124432638D01*
X133073144Y-124451271D01*
X133116464Y-124468129D01*
X133160305Y-124483213D01*
X133204666Y-124496522D01*
X133249549Y-124508057D01*
X133294952Y-124517817D01*
X133340877Y-124525803D01*
X133387322Y-124532014D01*
X133434288Y-124536450D01*
X133481775Y-124539112D01*
X133529783Y-124540000D01*
X133559341Y-124539713D01*
X133616923Y-124537424D01*
X133672461Y-124532844D01*
X133725956Y-124525975D01*
X133777407Y-124516816D01*
X133826815Y-124505367D01*
X133874179Y-124491628D01*
X133919500Y-124475600D01*
X133962776Y-124457281D01*
X134004010Y-124436673D01*
X134043199Y-124413776D01*
X134080345Y-124388588D01*
X134115447Y-124361111D01*
X134148506Y-124331344D01*
X134179521Y-124299287D01*
X134208492Y-124264940D01*
X134222212Y-124246908D01*
X134240575Y-124221547D01*
X134257380Y-124195840D01*
X134271304Y-124172170D01*
X134286612Y-124142675D01*
X134300387Y-124109418D01*
X134312630Y-124072401D01*
X134312984Y-124071053D01*
X136043775Y-124071053D01*
X136141228Y-124540000D01*
X136647543Y-124540000D01*
X136550090Y-124071053D01*
X136043775Y-124071053D01*
X134312984Y-124071053D01*
X134323340Y-124031623D01*
X134329628Y-124002348D01*
X134335235Y-123971402D01*
X134340161Y-123938784D01*
X134344406Y-123904495D01*
X134347969Y-123868534D01*
X134350851Y-123830901D01*
X134353052Y-123791597D01*
X134354572Y-123750622D01*
X134355411Y-123707975D01*
X134355568Y-123663656D01*
X133940844Y-123663656D01*
X133938912Y-123694581D01*
X133936138Y-123724524D01*
X133928067Y-123781465D01*
X133916629Y-123834479D01*
X133901826Y-123883566D01*
X133883657Y-123928726D01*
X133862121Y-123969960D01*
X133837220Y-124007266D01*
X133808953Y-124040645D01*
X133777319Y-124070097D01*
X133742320Y-124095623D01*
X133703955Y-124117221D01*
X133662224Y-124134892D01*
X133617127Y-124148637D01*
X133568664Y-124158454D01*
X133516834Y-124164344D01*
X133461639Y-124166308D01*
X133411270Y-124165017D01*
X133362378Y-124161144D01*
X133314962Y-124154690D01*
X133269023Y-124145654D01*
X133224562Y-124134036D01*
X133181577Y-124119837D01*
X133140069Y-124103056D01*
X133100038Y-124083693D01*
X133061484Y-124061748D01*
X133024407Y-124037222D01*
X132988806Y-124010114D01*
X132954683Y-123980424D01*
X132922036Y-123948152D01*
X132890867Y-123913299D01*
X132861174Y-123875864D01*
X132832958Y-123835847D01*
X132815057Y-123807428D01*
X132798174Y-123778222D01*
X132782308Y-123748231D01*
X132767459Y-123717454D01*
X132753628Y-123685892D01*
X132740815Y-123653544D01*
X132729019Y-123620410D01*
X132718241Y-123586491D01*
X132708480Y-123551786D01*
X132699736Y-123516295D01*
X132694473Y-123492198D01*
X132684421Y-123438033D01*
X132677162Y-123385998D01*
X132672697Y-123336092D01*
X132671025Y-123288316D01*
X132672147Y-123242669D01*
X132676063Y-123199152D01*
X132682772Y-123157764D01*
X132692274Y-123118506D01*
X132704571Y-123081377D01*
X132719660Y-123046378D01*
X132737543Y-123013508D01*
X132758220Y-122982768D01*
X132781690Y-122954157D01*
X132807954Y-122927676D01*
X132837011Y-122903324D01*
X132868862Y-122881102D01*
X132899350Y-122862898D01*
X132931831Y-122847122D01*
X132966303Y-122833772D01*
X133002768Y-122822850D01*
X133031424Y-122816251D01*
X133061200Y-122811018D01*
X133092097Y-122807149D01*
X133124115Y-122804646D01*
X133157253Y-122803509D01*
X133168548Y-122803433D01*
X133200905Y-122804120D01*
X133232948Y-122806181D01*
X133264676Y-122809615D01*
X133296089Y-122814424D01*
X133327187Y-122820606D01*
X133357970Y-122828162D01*
X133388438Y-122837093D01*
X133418592Y-122847397D01*
X133448430Y-122859074D01*
X133477954Y-122872126D01*
X133507163Y-122886552D01*
X133536057Y-122902351D01*
X133564636Y-122919525D01*
X133592901Y-122938072D01*
X133620850Y-122957993D01*
X133648485Y-122979288D01*
X133758394Y-123082602D01*
X134141612Y-123082602D01*
X133841243Y-122205160D01*
X136860263Y-122205160D01*
X136862338Y-122251413D01*
X136866778Y-122298766D01*
X136873581Y-122347218D01*
X136882749Y-122396769D01*
X136890683Y-122432051D01*
X136899739Y-122466916D01*
X136909917Y-122501363D01*
X136921217Y-122535392D01*
X136933639Y-122569003D01*
X136947183Y-122602196D01*
X136961849Y-122634971D01*
X136977637Y-122667329D01*
X136994547Y-122699268D01*
X137012579Y-122730790D01*
X137031733Y-122761893D01*
X137052009Y-122792579D01*
X137073407Y-122822847D01*
X137095927Y-122852697D01*
X137119569Y-122882130D01*
X137144333Y-122911144D01*
X137170219Y-122939740D01*
X137197227Y-122967919D01*
X137225357Y-122995680D01*
X137254609Y-123023022D01*
X137284983Y-123049947D01*
X137316478Y-123076454D01*
X137349096Y-123102544D01*
X137382836Y-123128215D01*
X137417698Y-123153468D01*
X137453682Y-123178304D01*
X137490788Y-123202721D01*
X137529016Y-123226721D01*
X137568365Y-123250303D01*
X137608837Y-123273467D01*
X137650431Y-123296213D01*
X137693147Y-123318541D01*
X138147438Y-123544954D01*
X138197313Y-123572451D01*
X138245086Y-123599806D01*
X138290758Y-123627017D01*
X138334330Y-123654085D01*
X138375801Y-123681010D01*
X138415171Y-123707792D01*
X138452440Y-123734430D01*
X138487608Y-123760926D01*
X138520675Y-123787278D01*
X138551641Y-123813488D01*
X138580507Y-123839554D01*
X138607271Y-123865477D01*
X138631935Y-123891257D01*
X138654498Y-123916894D01*
X138674960Y-123942388D01*
X138693321Y-123967739D01*
X138709761Y-123993237D01*
X138727553Y-124022844D01*
X138743232Y-124051369D01*
X138756799Y-124078812D01*
X138769957Y-124109461D01*
X138773189Y-124117948D01*
X137241053Y-124117948D01*
X137328248Y-124540000D01*
X139347648Y-124540000D01*
X139339958Y-124504238D01*
X139331908Y-124469036D01*
X139323500Y-124434394D01*
X139314732Y-124400312D01*
X139305605Y-124366789D01*
X139296119Y-124333825D01*
X139286274Y-124301421D01*
X139276069Y-124269577D01*
X139265506Y-124238292D01*
X139254583Y-124207567D01*
X139243301Y-124177401D01*
X139231659Y-124147795D01*
X139219659Y-124118749D01*
X139207299Y-124090262D01*
X139194580Y-124062334D01*
X139181502Y-124034966D01*
X139168064Y-124008158D01*
X139154268Y-123981909D01*
X139140112Y-123956220D01*
X139110722Y-123906521D01*
X139079896Y-123859059D01*
X139047633Y-123813836D01*
X139013934Y-123770851D01*
X138978797Y-123730105D01*
X138942224Y-123691596D01*
X138923398Y-123673182D01*
X138888928Y-123641010D01*
X138853296Y-123609159D01*
X138816503Y-123577629D01*
X138778547Y-123546420D01*
X138739429Y-123515531D01*
X138699149Y-123484962D01*
X138657707Y-123454714D01*
X138615102Y-123424787D01*
X138571336Y-123395180D01*
X138526408Y-123365894D01*
X138480318Y-123336928D01*
X138433065Y-123308283D01*
X138384651Y-123279958D01*
X138335074Y-123251954D01*
X138284336Y-123224271D01*
X138232435Y-123196908D01*
X137803056Y-122977822D01*
X137775983Y-122963282D01*
X137749627Y-122948513D01*
X137723988Y-122933515D01*
X137674861Y-122902832D01*
X137628602Y-122871233D01*
X137603270Y-122852251D01*
X140538286Y-122852251D01*
X140538375Y-122891618D01*
X140539602Y-122933057D01*
X140541310Y-122964450D01*
X140541970Y-122976569D01*
X140545476Y-123022152D01*
X140550121Y-123069808D01*
X140555906Y-123119537D01*
X140562829Y-123171337D01*
X140570892Y-123225210D01*
X140580094Y-123281155D01*
X140590436Y-123339172D01*
X140596033Y-123368958D01*
X140601916Y-123399261D01*
X140608083Y-123430083D01*
X140614535Y-123461423D01*
X142219944Y-123461423D01*
X142226481Y-123495315D01*
X142231988Y-123528296D01*
X142236464Y-123560367D01*
X142239911Y-123591528D01*
X142242326Y-123621779D01*
X142243712Y-123651120D01*
X142243858Y-123693424D01*
X142241685Y-123733680D01*
X142237194Y-123771889D01*
X142230385Y-123808049D01*
X142221257Y-123842162D01*
X142209811Y-123874227D01*
X142200893Y-123894466D01*
X142185397Y-123927384D01*
X142168218Y-123958179D01*
X142149356Y-123986850D01*
X142128811Y-124013397D01*
X142106583Y-124037820D01*
X142082672Y-124060120D01*
X142057078Y-124080295D01*
X142029801Y-124098347D01*
X142000841Y-124114276D01*
X141970198Y-124128080D01*
X141937872Y-124139761D01*
X141903863Y-124149318D01*
X141868171Y-124156751D01*
X141830796Y-124162060D01*
X141791738Y-124165246D01*
X141750997Y-124166308D01*
X141699661Y-124164596D01*
X141649698Y-124159462D01*
X141601109Y-124150903D01*
X141553893Y-124138922D01*
X141508052Y-124123518D01*
X141463585Y-124104690D01*
X141420491Y-124082439D01*
X141378771Y-124056765D01*
X141338425Y-124027668D01*
X141299453Y-123995147D01*
X141261855Y-123959203D01*
X141225631Y-123919836D01*
X141190781Y-123877046D01*
X141157304Y-123830833D01*
X141125201Y-123781196D01*
X141109665Y-123755094D01*
X141094473Y-123728136D01*
X140710523Y-123728136D01*
X140724153Y-123762037D01*
X140738301Y-123795230D01*
X140752965Y-123827714D01*
X140768145Y-123859489D01*
X140783842Y-123890557D01*
X140800056Y-123920915D01*
X140816786Y-123950566D01*
X140834033Y-123979508D01*
X140851797Y-124007742D01*
X140870077Y-124035267D01*
X140888874Y-124062084D01*
X140908188Y-124088192D01*
X140928018Y-124113592D01*
X140948365Y-124138284D01*
X140969228Y-124162267D01*
X140990608Y-124185542D01*
X141012505Y-124208109D01*
X141034918Y-124229967D01*
X141057848Y-124251116D01*
X141081295Y-124271558D01*
X141105258Y-124291290D01*
X141129738Y-124310315D01*
X141154735Y-124328631D01*
X141180248Y-124346239D01*
X141206277Y-124363138D01*
X141232824Y-124379329D01*
X141259887Y-124394811D01*
X141287466Y-124409585D01*
X141315563Y-124423651D01*
X141344176Y-124437008D01*
X141373305Y-124449657D01*
X141402951Y-124461598D01*
X141441495Y-124475609D01*
X141480463Y-124488242D01*
X141519857Y-124499497D01*
X141559675Y-124509374D01*
X141599919Y-124517872D01*
X141640587Y-124524993D01*
X141681681Y-124530735D01*
X141723200Y-124535099D01*
X141765143Y-124538085D01*
X141807512Y-124539693D01*
X141835994Y-124540000D01*
X141871956Y-124539529D01*
X141907117Y-124538119D01*
X141941479Y-124535768D01*
X141975041Y-124532478D01*
X142007802Y-124528247D01*
X142039764Y-124523075D01*
X142070926Y-124516964D01*
X142101287Y-124509912D01*
X142130849Y-124501920D01*
X142159611Y-124492988D01*
X142187573Y-124483115D01*
X142241096Y-124460549D01*
X142291420Y-124434223D01*
X142338543Y-124404135D01*
X142382467Y-124370286D01*
X142423191Y-124332677D01*
X142460714Y-124291306D01*
X142495038Y-124246175D01*
X142526162Y-124197282D01*
X142540524Y-124171426D01*
X142554086Y-124144629D01*
X142566848Y-124116892D01*
X142578810Y-124088214D01*
X142589972Y-124058597D01*
X142601867Y-124020979D01*
X142612274Y-123982313D01*
X142621193Y-123942600D01*
X142628623Y-123901839D01*
X142634565Y-123860030D01*
X142639019Y-123817174D01*
X142641984Y-123773271D01*
X142643461Y-123728319D01*
X142643449Y-123682321D01*
X142641950Y-123635274D01*
X142638961Y-123587180D01*
X142634485Y-123538039D01*
X142628520Y-123487850D01*
X142621067Y-123436613D01*
X142612125Y-123384329D01*
X142601695Y-123330997D01*
X142592543Y-123288658D01*
X142582762Y-123247003D01*
X142572352Y-123206031D01*
X142561315Y-123165744D01*
X142549649Y-123126141D01*
X142537355Y-123087222D01*
X142524433Y-123048987D01*
X142510883Y-123011436D01*
X142496704Y-122974569D01*
X142481897Y-122938387D01*
X142466462Y-122902888D01*
X142450398Y-122868073D01*
X142433706Y-122833943D01*
X142416386Y-122800496D01*
X142398438Y-122767734D01*
X142379862Y-122735655D01*
X142360657Y-122704261D01*
X142340824Y-122673551D01*
X142320363Y-122643525D01*
X142299273Y-122614183D01*
X142277555Y-122585525D01*
X142255209Y-122557551D01*
X142232235Y-122530261D01*
X142208632Y-122503655D01*
X142184401Y-122477734D01*
X142159542Y-122452496D01*
X142134055Y-122427942D01*
X142107939Y-122404073D01*
X142081195Y-122380887D01*
X142053823Y-122358386D01*
X142025823Y-122336569D01*
X141997194Y-122315436D01*
X141959221Y-122289704D01*
X141920773Y-122265633D01*
X141881850Y-122243222D01*
X141842451Y-122222471D01*
X141802577Y-122203380D01*
X141762229Y-122185949D01*
X141721405Y-122170178D01*
X141680106Y-122156067D01*
X141654293Y-122148374D01*
X142720397Y-122148374D01*
X142788541Y-122476636D01*
X143155638Y-122476636D01*
X143470711Y-123992651D01*
X143476653Y-124026437D01*
X143479458Y-124056353D01*
X143478553Y-124088306D01*
X143470997Y-124118668D01*
X143453260Y-124143087D01*
X143430411Y-124154584D01*
X143399853Y-124162175D01*
X143369600Y-124165381D01*
X143337355Y-124166308D01*
X143304772Y-124165718D01*
X143272511Y-124163947D01*
X143240572Y-124160995D01*
X143208955Y-124156863D01*
X143177661Y-124151550D01*
X143146688Y-124145056D01*
X143134389Y-124142128D01*
X143209860Y-124507027D01*
X143245065Y-124512919D01*
X143279240Y-124518232D01*
X143312385Y-124522966D01*
X143344499Y-124527120D01*
X143375583Y-124530694D01*
X143405636Y-124533688D01*
X143444104Y-124536780D01*
X143480741Y-124538840D01*
X143515545Y-124539871D01*
X143532260Y-124540000D01*
X143581453Y-124538720D01*
X143627366Y-124534882D01*
X143669999Y-124528485D01*
X143709352Y-124519529D01*
X143745424Y-124508014D01*
X143778217Y-124493941D01*
X143807729Y-124477308D01*
X143833961Y-124458117D01*
X143856914Y-124436367D01*
X143876586Y-124412058D01*
X143892978Y-124385191D01*
X143906089Y-124355764D01*
X143915921Y-124323779D01*
X143922473Y-124289235D01*
X143925744Y-124252132D01*
X143925736Y-124212470D01*
X143918866Y-124182331D01*
X143912455Y-124151877D01*
X143911081Y-124145059D01*
X143660974Y-122941054D01*
X144320241Y-122941054D01*
X144320676Y-122982585D01*
X144321059Y-122992860D01*
X144322256Y-123024952D01*
X144324981Y-123068154D01*
X144328851Y-123112192D01*
X144333866Y-123157066D01*
X144340025Y-123202776D01*
X144347329Y-123249321D01*
X144355779Y-123296702D01*
X144365373Y-123344919D01*
X144375052Y-123389529D01*
X144385406Y-123433325D01*
X144396433Y-123476306D01*
X144408134Y-123518473D01*
X144420510Y-123559826D01*
X144433560Y-123600364D01*
X144447283Y-123640088D01*
X144461681Y-123678998D01*
X144476753Y-123717093D01*
X144492498Y-123754374D01*
X144508918Y-123790841D01*
X144526012Y-123826494D01*
X144543780Y-123861332D01*
X144562222Y-123895356D01*
X144581338Y-123928565D01*
X144601128Y-123960961D01*
X144621592Y-123992542D01*
X144642731Y-124023309D01*
X144664543Y-124053261D01*
X144687029Y-124082399D01*
X144710190Y-124110723D01*
X144734024Y-124138232D01*
X144758533Y-124164928D01*
X144783715Y-124190809D01*
X144809572Y-124215875D01*
X144836102Y-124240127D01*
X144863307Y-124263565D01*
X144891186Y-124286189D01*
X144919739Y-124307999D01*
X144948965Y-124328994D01*
X144978866Y-124349175D01*
X145009441Y-124368541D01*
X145043756Y-124389304D01*
X145078558Y-124408727D01*
X145113846Y-124426810D01*
X145149621Y-124443554D01*
X145185883Y-124458959D01*
X145222631Y-124473024D01*
X145259866Y-124485749D01*
X145297587Y-124497135D01*
X145335795Y-124507181D01*
X145374489Y-124515888D01*
X145413670Y-124523256D01*
X145453337Y-124529283D01*
X145493491Y-124533972D01*
X145534132Y-124537320D01*
X145575259Y-124539330D01*
X145616873Y-124540000D01*
X145655065Y-124539488D01*
X145692336Y-124537953D01*
X145728687Y-124535395D01*
X145764117Y-124531814D01*
X145798628Y-124527209D01*
X145832218Y-124521581D01*
X145864888Y-124514930D01*
X145896638Y-124507256D01*
X145927468Y-124498558D01*
X145957377Y-124488837D01*
X145986367Y-124478093D01*
X146014436Y-124466326D01*
X146041585Y-124453535D01*
X146067813Y-124439722D01*
X146093122Y-124424885D01*
X146140978Y-124392141D01*
X146185154Y-124355304D01*
X146225648Y-124314374D01*
X146262462Y-124269351D01*
X146279489Y-124245305D01*
X146295595Y-124220236D01*
X146310781Y-124194143D01*
X146325047Y-124167027D01*
X146338393Y-124138888D01*
X146350819Y-124109725D01*
X146362324Y-124079540D01*
X146372910Y-124048331D01*
X146382575Y-124016099D01*
X146392183Y-123979288D01*
X146400492Y-123941578D01*
X146407502Y-123902969D01*
X146413212Y-123863462D01*
X146417622Y-123823056D01*
X146420734Y-123781751D01*
X146422545Y-123739548D01*
X146423058Y-123696446D01*
X146422271Y-123652445D01*
X146420184Y-123607545D01*
X146416798Y-123561747D01*
X146412113Y-123515050D01*
X146406128Y-123467454D01*
X146398843Y-123418959D01*
X146390260Y-123369566D01*
X146380376Y-123319274D01*
X146370276Y-123272861D01*
X146359485Y-123227319D01*
X146348002Y-123182649D01*
X146335829Y-123138851D01*
X146322964Y-123095924D01*
X146309408Y-123053869D01*
X146295160Y-123012685D01*
X146280221Y-122972373D01*
X146264592Y-122932932D01*
X146253357Y-122906381D01*
X146811221Y-122906381D01*
X146811312Y-122951885D01*
X146812869Y-122998453D01*
X146814760Y-123028252D01*
X146815892Y-123046086D01*
X146820380Y-123094784D01*
X146826333Y-123144547D01*
X146833752Y-123195374D01*
X146842636Y-123247266D01*
X146852986Y-123300223D01*
X146862311Y-123343283D01*
X146872243Y-123385634D01*
X146882782Y-123427278D01*
X146893927Y-123468212D01*
X146905680Y-123508439D01*
X146918039Y-123547957D01*
X146931005Y-123586766D01*
X146944577Y-123624867D01*
X146958757Y-123662260D01*
X146973543Y-123698944D01*
X146988936Y-123734920D01*
X147004936Y-123770188D01*
X147021542Y-123804747D01*
X147038756Y-123838598D01*
X147056576Y-123871740D01*
X147075003Y-123904174D01*
X147094037Y-123935900D01*
X147113677Y-123966917D01*
X147133925Y-123997226D01*
X147154779Y-124026826D01*
X147176240Y-124055718D01*
X147198307Y-124083902D01*
X147220982Y-124111377D01*
X147244263Y-124138144D01*
X147268151Y-124164202D01*
X147292646Y-124189552D01*
X147317748Y-124214194D01*
X147343456Y-124238127D01*
X147369772Y-124261352D01*
X147396694Y-124283868D01*
X147424223Y-124305676D01*
X147452358Y-124326775D01*
X147488113Y-124352596D01*
X147524303Y-124376750D01*
X147560928Y-124399238D01*
X147597988Y-124420061D01*
X147635483Y-124439218D01*
X147673413Y-124456709D01*
X147711778Y-124472534D01*
X147750579Y-124486693D01*
X147789814Y-124499187D01*
X147829484Y-124510015D01*
X147869590Y-124519177D01*
X147910130Y-124526673D01*
X147951106Y-124532503D01*
X147992517Y-124536668D01*
X148034362Y-124539167D01*
X148076643Y-124540000D01*
X148132751Y-124538720D01*
X148186403Y-124534882D01*
X148237600Y-124528485D01*
X148286341Y-124519529D01*
X148332626Y-124508014D01*
X148376455Y-124493941D01*
X148417828Y-124477308D01*
X148456746Y-124458117D01*
X148493208Y-124436367D01*
X148527214Y-124412058D01*
X148558764Y-124385191D01*
X148587858Y-124355764D01*
X148614497Y-124323779D01*
X148638680Y-124289235D01*
X148660407Y-124252132D01*
X148679678Y-124212470D01*
X148728039Y-124446210D01*
X149105394Y-124446210D01*
X148774187Y-122852251D01*
X149155174Y-122852251D01*
X149155262Y-122891618D01*
X149156490Y-122933057D01*
X149158198Y-122964450D01*
X149158857Y-122976569D01*
X149162363Y-123022152D01*
X149167009Y-123069808D01*
X149172793Y-123119537D01*
X149179717Y-123171337D01*
X149187780Y-123225210D01*
X149196982Y-123281155D01*
X149207323Y-123339172D01*
X149212921Y-123368958D01*
X149218804Y-123399261D01*
X149224971Y-123430083D01*
X149231423Y-123461423D01*
X150836831Y-123461423D01*
X150843369Y-123495315D01*
X150848876Y-123528296D01*
X150853352Y-123560367D01*
X150856798Y-123591528D01*
X150859214Y-123621779D01*
X150860599Y-123651120D01*
X150860745Y-123693424D01*
X150858573Y-123733680D01*
X150854082Y-123771889D01*
X150847273Y-123808049D01*
X150838145Y-123842162D01*
X150826699Y-123874227D01*
X150817780Y-123894466D01*
X150802284Y-123927384D01*
X150785105Y-123958179D01*
X150766243Y-123986850D01*
X150745698Y-124013397D01*
X150723470Y-124037820D01*
X150699559Y-124060120D01*
X150673965Y-124080295D01*
X150646688Y-124098347D01*
X150617728Y-124114276D01*
X150587085Y-124128080D01*
X150554759Y-124139761D01*
X150520751Y-124149318D01*
X150485059Y-124156751D01*
X150447684Y-124162060D01*
X150408626Y-124165246D01*
X150367885Y-124166308D01*
X150316548Y-124164596D01*
X150266585Y-124159462D01*
X150217996Y-124150903D01*
X150170781Y-124138922D01*
X150124940Y-124123518D01*
X150080472Y-124104690D01*
X150037379Y-124082439D01*
X149995659Y-124056765D01*
X149955313Y-124027668D01*
X149916341Y-123995147D01*
X149878743Y-123959203D01*
X149842519Y-123919836D01*
X149807668Y-123877046D01*
X149774192Y-123830833D01*
X149742089Y-123781196D01*
X149726553Y-123755094D01*
X149711360Y-123728136D01*
X149327411Y-123728136D01*
X149341041Y-123762037D01*
X149355188Y-123795230D01*
X149369852Y-123827714D01*
X149385033Y-123859489D01*
X149400730Y-123890557D01*
X149416944Y-123920915D01*
X149433674Y-123950566D01*
X149450921Y-123979508D01*
X149468685Y-124007742D01*
X149486965Y-124035267D01*
X149505762Y-124062084D01*
X149525075Y-124088192D01*
X149544906Y-124113592D01*
X149565252Y-124138284D01*
X149586116Y-124162267D01*
X149607496Y-124185542D01*
X149629393Y-124208109D01*
X149651806Y-124229967D01*
X149674736Y-124251116D01*
X149698183Y-124271558D01*
X149722146Y-124291290D01*
X149746626Y-124310315D01*
X149771622Y-124328631D01*
X149797135Y-124346239D01*
X149823165Y-124363138D01*
X149849711Y-124379329D01*
X149876774Y-124394811D01*
X149904354Y-124409585D01*
X149932450Y-124423651D01*
X149961063Y-124437008D01*
X149990193Y-124449657D01*
X150019839Y-124461598D01*
X150058382Y-124475609D01*
X150097351Y-124488242D01*
X150136744Y-124499497D01*
X150176563Y-124509374D01*
X150216806Y-124517872D01*
X150257475Y-124524993D01*
X150298569Y-124530735D01*
X150340087Y-124535099D01*
X150382031Y-124538085D01*
X150424400Y-124539693D01*
X150452882Y-124540000D01*
X150488843Y-124539529D01*
X150524005Y-124538119D01*
X150558367Y-124535768D01*
X150591928Y-124532478D01*
X150624690Y-124528247D01*
X150656652Y-124523075D01*
X150687813Y-124516964D01*
X150718175Y-124509912D01*
X150747737Y-124501920D01*
X150776499Y-124492988D01*
X150804460Y-124483115D01*
X150857984Y-124460549D01*
X150908307Y-124434223D01*
X150955431Y-124404135D01*
X150999355Y-124370286D01*
X151040078Y-124332677D01*
X151077602Y-124291306D01*
X151111926Y-124246175D01*
X151143050Y-124197282D01*
X151157412Y-124171426D01*
X151170973Y-124144629D01*
X151183735Y-124116892D01*
X151195697Y-124088214D01*
X151206859Y-124058597D01*
X151218755Y-124020979D01*
X151229162Y-123982313D01*
X151238080Y-123942600D01*
X151245511Y-123901839D01*
X151251453Y-123860030D01*
X151255906Y-123817174D01*
X151258872Y-123773271D01*
X151260348Y-123728319D01*
X151260337Y-123682321D01*
X151258837Y-123635274D01*
X151255849Y-123587180D01*
X151251372Y-123538039D01*
X151245408Y-123487850D01*
X151237954Y-123436613D01*
X151229013Y-123384329D01*
X151218583Y-123330997D01*
X151209430Y-123288658D01*
X151199649Y-123247003D01*
X151189240Y-123206031D01*
X151178203Y-123165744D01*
X151166537Y-123126141D01*
X151154243Y-123087222D01*
X151141321Y-123048987D01*
X151127770Y-123011436D01*
X151113592Y-122974569D01*
X151098785Y-122938387D01*
X151083349Y-122902888D01*
X151067286Y-122868073D01*
X151050594Y-122833943D01*
X151033274Y-122800496D01*
X151015326Y-122767734D01*
X150996749Y-122735655D01*
X150977545Y-122704261D01*
X150957711Y-122673551D01*
X150937250Y-122643525D01*
X150916161Y-122614183D01*
X150894443Y-122585525D01*
X150872097Y-122557551D01*
X150849122Y-122530261D01*
X150825520Y-122503655D01*
X150801289Y-122477734D01*
X150776430Y-122452496D01*
X150750943Y-122427942D01*
X150724827Y-122404073D01*
X150698083Y-122380887D01*
X150670711Y-122358386D01*
X150642710Y-122336569D01*
X150614082Y-122315436D01*
X150576109Y-122289704D01*
X150537661Y-122265633D01*
X150498737Y-122243222D01*
X150459339Y-122222471D01*
X150419465Y-122203380D01*
X150379116Y-122185949D01*
X150338293Y-122170178D01*
X150296994Y-122156067D01*
X150255219Y-122143617D01*
X150212970Y-122132826D01*
X150170246Y-122123695D01*
X150127046Y-122116225D01*
X150083372Y-122110415D01*
X150039222Y-122106265D01*
X149994597Y-122103774D01*
X149949497Y-122102944D01*
X149918916Y-122103302D01*
X149888907Y-122104375D01*
X149859468Y-122106164D01*
X149802304Y-122111889D01*
X149747424Y-122120475D01*
X149694827Y-122131924D01*
X149644515Y-122146235D01*
X149596487Y-122163409D01*
X149550743Y-122183444D01*
X149507283Y-122206342D01*
X149466107Y-122232102D01*
X149427215Y-122260724D01*
X149390608Y-122292209D01*
X149356284Y-122326555D01*
X149324244Y-122363764D01*
X149294489Y-122403835D01*
X149267017Y-122446769D01*
X149254138Y-122469309D01*
X149239140Y-122497519D01*
X149225286Y-122526461D01*
X149212578Y-122556137D01*
X149201015Y-122586545D01*
X149190596Y-122617686D01*
X149181323Y-122649560D01*
X149173194Y-122682166D01*
X149166210Y-122715505D01*
X149161742Y-122746583D01*
X149158414Y-122779734D01*
X149156224Y-122814956D01*
X149155174Y-122852251D01*
X148774187Y-122852251D01*
X148596793Y-121998531D01*
X151442477Y-121998531D01*
X151442626Y-122036907D01*
X151443835Y-122066531D01*
X151445983Y-122096876D01*
X151448101Y-122118174D01*
X151449073Y-122127943D01*
X151453102Y-122159731D01*
X151458071Y-122192240D01*
X151463981Y-122225470D01*
X151468443Y-122248025D01*
X151480513Y-122300080D01*
X151494741Y-122350549D01*
X151511128Y-122399433D01*
X151529672Y-122446731D01*
X151550374Y-122492444D01*
X151573235Y-122536571D01*
X151598254Y-122579112D01*
X151625430Y-122620068D01*
X151654765Y-122659437D01*
X151686258Y-122697222D01*
X151719909Y-122733420D01*
X151755719Y-122768033D01*
X151793686Y-122801060D01*
X151833812Y-122832502D01*
X151876095Y-122862357D01*
X151920537Y-122890628D01*
X151949520Y-122906824D01*
X151977395Y-122921983D01*
X152004160Y-122936105D01*
X152034815Y-122951681D01*
X152063872Y-122965763D01*
X152086866Y-122976357D01*
X152050968Y-122995475D01*
X152017735Y-123016010D01*
X151987169Y-123037962D01*
X151959268Y-123061330D01*
X151934034Y-123086116D01*
X151911466Y-123112318D01*
X151891565Y-123139937D01*
X151874329Y-123168973D01*
X151859760Y-123199425D01*
X151847856Y-123231295D01*
X151841402Y-123253328D01*
X151835276Y-123286449D01*
X151831184Y-123323164D01*
X151829128Y-123363471D01*
X151829106Y-123407373D01*
X151830222Y-123438637D01*
X151832243Y-123471498D01*
X151835168Y-123505956D01*
X151838998Y-123542012D01*
X151843732Y-123579664D01*
X151849371Y-123618914D01*
X151855914Y-123659761D01*
X151863361Y-123702205D01*
X151871713Y-123746246D01*
X151880969Y-123791884D01*
X151890847Y-123841105D01*
X151899597Y-123888020D01*
X151907219Y-123932628D01*
X151913713Y-123974928D01*
X151919080Y-124014922D01*
X151923319Y-124052609D01*
X151926430Y-124087989D01*
X151928414Y-124121062D01*
X151929269Y-124151828D01*
X151928439Y-124193651D01*
X151925071Y-124230284D01*
X151919165Y-124261727D01*
X151907344Y-124295575D01*
X151903684Y-124302595D01*
X151885778Y-124329157D01*
X151865978Y-124352098D01*
X151842321Y-124374758D01*
X151818974Y-124393958D01*
X151801835Y-124406643D01*
X151829678Y-124540000D01*
X152346252Y-124540000D01*
X152352208Y-124510739D01*
X152357254Y-124480843D01*
X152361390Y-124450312D01*
X152364616Y-124419145D01*
X152366932Y-124387343D01*
X152368337Y-124354905D01*
X152368832Y-124321832D01*
X152368417Y-124288124D01*
X152367092Y-124253780D01*
X152364857Y-124218801D01*
X152361711Y-124183186D01*
X152357655Y-124146936D01*
X152352689Y-124110051D01*
X152346813Y-124072530D01*
X152340027Y-124034374D01*
X152332330Y-123995582D01*
X152273712Y-123716413D01*
X152263617Y-123661587D01*
X152256596Y-123609766D01*
X152252649Y-123560951D01*
X152251776Y-123515141D01*
X152253977Y-123472337D01*
X152259252Y-123432538D01*
X152267601Y-123395744D01*
X152279024Y-123361955D01*
X152293521Y-123331172D01*
X152311093Y-123303394D01*
X152331738Y-123278622D01*
X152355457Y-123256854D01*
X152382250Y-123238093D01*
X152412118Y-123222336D01*
X152445059Y-123209585D01*
X152481074Y-123199839D01*
X152512831Y-123192130D01*
X152546550Y-123186315D01*
X152577016Y-123182837D01*
X152608924Y-123180751D01*
X152642274Y-123180055D01*
X153640251Y-123180055D01*
X153923084Y-124540000D01*
X154331946Y-124540000D01*
X153679085Y-121399525D01*
X152253196Y-121399525D01*
X152207911Y-121400039D01*
X152163923Y-121401580D01*
X152121231Y-121404149D01*
X152079837Y-121407745D01*
X152039738Y-121412369D01*
X152000937Y-121418021D01*
X151963432Y-121424700D01*
X151927223Y-121432406D01*
X151892311Y-121441140D01*
X151858696Y-121450902D01*
X151826377Y-121461691D01*
X151795355Y-121473508D01*
X151765629Y-121486352D01*
X151737200Y-121500224D01*
X151710068Y-121515123D01*
X151684232Y-121531050D01*
X151659693Y-121548004D01*
X151636450Y-121565986D01*
X151593854Y-121605032D01*
X151556445Y-121648189D01*
X151524222Y-121695456D01*
X151497186Y-121746833D01*
X151485612Y-121774062D01*
X151475336Y-121802320D01*
X151466355Y-121831604D01*
X151458672Y-121861917D01*
X151452285Y-121893257D01*
X151447194Y-121925624D01*
X151444000Y-121961436D01*
X151442477Y-121998531D01*
X148596793Y-121998531D01*
X148452533Y-121304270D01*
X148043670Y-121304270D01*
X148272281Y-122403363D01*
X148238862Y-122366984D01*
X148204000Y-122332952D01*
X148167696Y-122301268D01*
X148129949Y-122271930D01*
X148090759Y-122244939D01*
X148050127Y-122220295D01*
X148008053Y-122197999D01*
X147964535Y-122178049D01*
X147919576Y-122160446D01*
X147873173Y-122145191D01*
X147825328Y-122132282D01*
X147776041Y-122121721D01*
X147725311Y-122113506D01*
X147673138Y-122107638D01*
X147619523Y-122104118D01*
X147564466Y-122102944D01*
X147530552Y-122103411D01*
X147497412Y-122104811D01*
X147465047Y-122107143D01*
X147433456Y-122110409D01*
X147402639Y-122114608D01*
X147372597Y-122119740D01*
X147343328Y-122125805D01*
X147314834Y-122132803D01*
X147260169Y-122149599D01*
X147208600Y-122170126D01*
X147160128Y-122194387D01*
X147114754Y-122222379D01*
X147072476Y-122254104D01*
X147033295Y-122289561D01*
X146997211Y-122328751D01*
X146964224Y-122371673D01*
X146934333Y-122418327D01*
X146907540Y-122468713D01*
X146883844Y-122522832D01*
X146873157Y-122551291D01*
X146863244Y-122580683D01*
X146851612Y-122617669D01*
X146841446Y-122655719D01*
X146832745Y-122694834D01*
X146825509Y-122735014D01*
X146819739Y-122776259D01*
X146815434Y-122818568D01*
X146812595Y-122861942D01*
X146811221Y-122906381D01*
X146253357Y-122906381D01*
X146248271Y-122894363D01*
X146231258Y-122856665D01*
X146213555Y-122819839D01*
X146195160Y-122783885D01*
X146176074Y-122748802D01*
X146156297Y-122714590D01*
X146135828Y-122681250D01*
X146114668Y-122648782D01*
X146092818Y-122617185D01*
X146070275Y-122586460D01*
X146047042Y-122556606D01*
X146023118Y-122527624D01*
X145998502Y-122499514D01*
X145973195Y-122472275D01*
X145947196Y-122445907D01*
X145920507Y-122420411D01*
X145893126Y-122395787D01*
X145865054Y-122372034D01*
X145836291Y-122349153D01*
X145806837Y-122327143D01*
X145776691Y-122306005D01*
X145745854Y-122285738D01*
X145714326Y-122266343D01*
X145680767Y-122246556D01*
X145646766Y-122228046D01*
X145612325Y-122210813D01*
X145577443Y-122194856D01*
X145542121Y-122180176D01*
X145506357Y-122166772D01*
X145470153Y-122154645D01*
X145433508Y-122143794D01*
X145396422Y-122134220D01*
X145358896Y-122125922D01*
X145320928Y-122118901D01*
X145282520Y-122113157D01*
X145243671Y-122108689D01*
X145204381Y-122105497D01*
X145164651Y-122103583D01*
X145124480Y-122102944D01*
X145084549Y-122103502D01*
X145045631Y-122105174D01*
X145007727Y-122107961D01*
X144970836Y-122111863D01*
X144934958Y-122116880D01*
X144900093Y-122123011D01*
X144866241Y-122130258D01*
X144833403Y-122138619D01*
X144801578Y-122148095D01*
X144770766Y-122158686D01*
X144740968Y-122170392D01*
X144712182Y-122183212D01*
X144684410Y-122197148D01*
X144657651Y-122212198D01*
X144631906Y-122228363D01*
X144607173Y-122245643D01*
X144583454Y-122264038D01*
X144560748Y-122283548D01*
X144539055Y-122304172D01*
X144518376Y-122325911D01*
X144498709Y-122348765D01*
X144480056Y-122372734D01*
X144462416Y-122397818D01*
X144445790Y-122424017D01*
X144430176Y-122451330D01*
X144415576Y-122479759D01*
X144401989Y-122509302D01*
X144389415Y-122539960D01*
X144377855Y-122571732D01*
X144367308Y-122604620D01*
X144357774Y-122638623D01*
X144349253Y-122673740D01*
X144341674Y-122709420D01*
X144335239Y-122745937D01*
X144329950Y-122783289D01*
X144325806Y-122821476D01*
X144322806Y-122860500D01*
X144320951Y-122900359D01*
X144320241Y-122941054D01*
X143660974Y-122941054D01*
X143564501Y-122476636D01*
X143845136Y-122476636D01*
X143776992Y-122148374D01*
X143496357Y-122148374D01*
X143373991Y-121562191D01*
X142965129Y-121562191D01*
X143087494Y-122148374D01*
X142720397Y-122148374D01*
X141654293Y-122148374D01*
X141638332Y-122143617D01*
X141596083Y-122132826D01*
X141553358Y-122123695D01*
X141510159Y-122116225D01*
X141466484Y-122110415D01*
X141422334Y-122106265D01*
X141377709Y-122103774D01*
X141332609Y-122102944D01*
X141302029Y-122103302D01*
X141272019Y-122104375D01*
X141242580Y-122106164D01*
X141185416Y-122111889D01*
X141130536Y-122120475D01*
X141077940Y-122131924D01*
X141027628Y-122146235D01*
X140979600Y-122163409D01*
X140933856Y-122183444D01*
X140890396Y-122206342D01*
X140849220Y-122232102D01*
X140810328Y-122260724D01*
X140773720Y-122292209D01*
X140739396Y-122326555D01*
X140707357Y-122363764D01*
X140677601Y-122403835D01*
X140650129Y-122446769D01*
X140637250Y-122469309D01*
X140622252Y-122497519D01*
X140608399Y-122526461D01*
X140595691Y-122556137D01*
X140584127Y-122586545D01*
X140573709Y-122617686D01*
X140564435Y-122649560D01*
X140556306Y-122682166D01*
X140549323Y-122715505D01*
X140544855Y-122746583D01*
X140541526Y-122779734D01*
X140539336Y-122814956D01*
X140538286Y-122852251D01*
X137603270Y-122852251D01*
X137585210Y-122838718D01*
X137544687Y-122805288D01*
X137507032Y-122770941D01*
X137472244Y-122735678D01*
X137440325Y-122699500D01*
X137411273Y-122662406D01*
X137385089Y-122624395D01*
X137361774Y-122585469D01*
X137341326Y-122545627D01*
X137323746Y-122504869D01*
X137309035Y-122463195D01*
X137297191Y-122420605D01*
X137292344Y-122398967D01*
X137285767Y-122363137D01*
X137281239Y-122328373D01*
X137278760Y-122294673D01*
X137278331Y-122262038D01*
X137279951Y-122230468D01*
X137283620Y-122199962D01*
X137289339Y-122170521D01*
X137297107Y-122142145D01*
X137312602Y-122101578D01*
X137332707Y-122063406D01*
X137357424Y-122027629D01*
X137376463Y-122005109D01*
X137397552Y-121983654D01*
X137420691Y-121963264D01*
X137433028Y-121953468D01*
X137462749Y-121932860D01*
X137494394Y-121915000D01*
X137527962Y-121899887D01*
X137563454Y-121887522D01*
X137600869Y-121877905D01*
X137630192Y-121872496D01*
X137660598Y-121868632D01*
X137692085Y-121866313D01*
X137724654Y-121865540D01*
X137761207Y-121866442D01*
X137797045Y-121869147D01*
X137832168Y-121873655D01*
X137866574Y-121879966D01*
X137900266Y-121888080D01*
X137933241Y-121897998D01*
X137965501Y-121909719D01*
X137997046Y-121923243D01*
X138027875Y-121938570D01*
X138057988Y-121955700D01*
X138087386Y-121974634D01*
X138116068Y-121995371D01*
X138144035Y-122017911D01*
X138171286Y-122042254D01*
X138197822Y-122068400D01*
X138223642Y-122096350D01*
X138263942Y-122144710D01*
X138283601Y-122171026D01*
X138302462Y-122200240D01*
X138320524Y-122232352D01*
X138337788Y-122267362D01*
X138354253Y-122305270D01*
X138369919Y-122346076D01*
X138379919Y-122374890D01*
X138389565Y-122404992D01*
X138398856Y-122436382D01*
X138407792Y-122469060D01*
X138416373Y-122503026D01*
X138424599Y-122538280D01*
X138432470Y-122574822D01*
X138841332Y-122574822D01*
X138829159Y-122518636D01*
X138816088Y-122464202D01*
X138802117Y-122411520D01*
X138787248Y-122360590D01*
X138771480Y-122311411D01*
X138754813Y-122263984D01*
X138737248Y-122218309D01*
X138718784Y-122174385D01*
X138699421Y-122132213D01*
X138679159Y-122091793D01*
X138657999Y-122053125D01*
X138635939Y-122016208D01*
X138612982Y-121981042D01*
X138589125Y-121947629D01*
X138564370Y-121915967D01*
X138538715Y-121886057D01*
X138516416Y-121861804D01*
X138493756Y-121838321D01*
X138470735Y-121815607D01*
X138447353Y-121793664D01*
X138423611Y-121772491D01*
X138399509Y-121752088D01*
X138375045Y-121732454D01*
X138350221Y-121713591D01*
X138325036Y-121695497D01*
X138299491Y-121678174D01*
X138273585Y-121661620D01*
X138247318Y-121645836D01*
X138220691Y-121630822D01*
X138193703Y-121616579D01*
X138166355Y-121603105D01*
X138138646Y-121590401D01*
X138110576Y-121578467D01*
X138082145Y-121567303D01*
X138053354Y-121556908D01*
X138024203Y-121547284D01*
X137994690Y-121538430D01*
X137964817Y-121530346D01*
X137934584Y-121523031D01*
X137903989Y-121516487D01*
X137873034Y-121510712D01*
X137841719Y-121505708D01*
X137810043Y-121501473D01*
X137778006Y-121498008D01*
X137745608Y-121495313D01*
X137712850Y-121493389D01*
X137679732Y-121492234D01*
X137646252Y-121491849D01*
X137595290Y-121492802D01*
X137545903Y-121495661D01*
X137498089Y-121500427D01*
X137451850Y-121507099D01*
X137407185Y-121515677D01*
X137364094Y-121526161D01*
X137322578Y-121538552D01*
X137282636Y-121552848D01*
X137244268Y-121569051D01*
X137207474Y-121587161D01*
X137172254Y-121607176D01*
X137138609Y-121629098D01*
X137106537Y-121652926D01*
X137076040Y-121678660D01*
X137047118Y-121706301D01*
X137019769Y-121735847D01*
X136993474Y-121768912D01*
X136969543Y-121803075D01*
X136947976Y-121838338D01*
X136928773Y-121874699D01*
X136911935Y-121912160D01*
X136897461Y-121950720D01*
X136885351Y-121990379D01*
X136875605Y-122031137D01*
X136868223Y-122072994D01*
X136863206Y-122115950D01*
X136860552Y-122160006D01*
X136860263Y-122205160D01*
X133841243Y-122205160D01*
X133564954Y-121398060D01*
X132000579Y-121398060D01*
X131122008Y-121398060D01*
X131122008Y-120425699D01*
X155210517Y-120425699D01*
X155210517Y-125418571D01*
G37*
D11*
%TO.C,R22*%
X155500000Y-135000000D03*
X155500000Y-142620000D03*
%TD*%
%TO.C,R23*%
X131000000Y-135020000D03*
X131000000Y-142640000D03*
%TD*%
%TO.C,R24*%
X127750000Y-142620000D03*
X127750000Y-135000000D03*
%TD*%
%LPC*%
D12*
%TO.C,REF\u002A\u002A*%
X138760000Y-69800000D03*
D13*
X141300000Y-69800000D03*
X143840000Y-69800000D03*
X146380000Y-69800000D03*
X148920000Y-69800000D03*
%TD*%
D12*
%TO.C,REF\u002A\u002A*%
X137760000Y-39800000D03*
D13*
X140300000Y-39800000D03*
X142840000Y-39800000D03*
X145380000Y-39800000D03*
X147920000Y-39800000D03*
%TD*%
D14*
%TO.C,SW1*%
X148550000Y-137825000D03*
D15*
X143250000Y-137825000D03*
X137950000Y-137825000D03*
X148550000Y-142525000D03*
X143250000Y-142550000D03*
X137950000Y-142525000D03*
X148550000Y-147225000D03*
X143250000Y-147225000D03*
X137950000Y-147225000D03*
%TD*%
D16*
%TO.C,J3*%
X122250000Y-130730000D03*
X134950000Y-130730000D03*
X128600000Y-130730000D03*
X122250000Y-114500000D03*
X134950000Y-114500000D03*
X128600000Y-114500000D03*
%TD*%
D17*
%TO.C,J1*%
X118735000Y-63300000D03*
D18*
X121275000Y-63300000D03*
%TD*%
D19*
%TO.C,C24*%
X162000000Y-140200000D03*
D20*
X162000000Y-142700000D03*
%TD*%
D21*
%TO.C,D1*%
X122500000Y-137540000D03*
D22*
X122500000Y-135000000D03*
%TD*%
D23*
%TO.C,R22*%
X155500000Y-135000000D03*
X155500000Y-142620000D03*
%TD*%
%TO.C,R23*%
X131000000Y-135020000D03*
X131000000Y-142640000D03*
%TD*%
%TO.C,R24*%
X127750000Y-142620000D03*
X127750000Y-135000000D03*
%TD*%
D24*
%TO.C,C23*%
X161050000Y-135000000D03*
D25*
X166050000Y-135000000D03*
%TD*%
D16*
%TO.C,J2*%
X163250000Y-114530000D03*
X150550000Y-114530000D03*
X156900000Y-114530000D03*
X163250000Y-130760000D03*
X150550000Y-130760000D03*
X156900000Y-130760000D03*
%TD*%
D20*
%TO.C,R21*%
X133880000Y-71550000D03*
D26*
X126260000Y-71550000D03*
%TD*%
D20*
%TO.C,R18*%
X159010000Y-72050000D03*
D26*
X151390000Y-72050000D03*
%TD*%
D20*
%TO.C,R4*%
X136700000Y-111050000D03*
D26*
X144320000Y-111050000D03*
%TD*%
D27*
%TO.C,RV2*%
X138335000Y-27525000D03*
X147935000Y-27525000D03*
D28*
X140635000Y-35025000D03*
D29*
X143135000Y-35025000D03*
X145635000Y-35025000D03*
%TD*%
D30*
%TO.C,C8*%
X123760000Y-89255113D03*
D20*
X123760000Y-86755113D03*
%TD*%
D31*
%TO.C,U2*%
X128280000Y-92940000D03*
D32*
X127010000Y-92940000D03*
X125740000Y-92940000D03*
%TD*%
D20*
%TO.C,C18*%
X166510000Y-73550000D03*
X165260000Y-73550000D03*
X162760000Y-73550000D03*
X161510000Y-73550000D03*
%TD*%
%TO.C,C12*%
X147510000Y-91550000D03*
X148760000Y-91550000D03*
X151260000Y-91550000D03*
X152510000Y-91550000D03*
%TD*%
D27*
%TO.C,RV1*%
X154460000Y-27525000D03*
X164060000Y-27525000D03*
D28*
X156760000Y-35025000D03*
D29*
X159260000Y-35025000D03*
X161760000Y-35025000D03*
%TD*%
D20*
%TO.C,R20*%
X149070000Y-74050000D03*
D26*
X141450000Y-74050000D03*
%TD*%
D20*
%TO.C,R3*%
X154570000Y-110300000D03*
D26*
X146950000Y-110300000D03*
%TD*%
D33*
%TO.C,C16*%
X124260000Y-107800000D03*
D20*
X121760000Y-107800000D03*
%TD*%
%TO.C,C5*%
X167260000Y-104050000D03*
X167260000Y-102800000D03*
X167260000Y-100300000D03*
X167260000Y-99050000D03*
%TD*%
%TO.C,R14*%
X126450000Y-104800000D03*
D26*
X134070000Y-104800000D03*
%TD*%
D20*
%TO.C,C17*%
X166510000Y-77550000D03*
X165260000Y-77550000D03*
X162760000Y-77550000D03*
X161510000Y-77550000D03*
%TD*%
D34*
%TO.C,C3*%
X157804888Y-102550000D03*
D20*
X160304888Y-102550000D03*
%TD*%
%TO.C,C14*%
X128760000Y-101050000D03*
X130010000Y-101050000D03*
X132510000Y-101050000D03*
X133760000Y-101050000D03*
%TD*%
D33*
%TO.C,C21*%
X122510000Y-68050000D03*
D20*
X120010000Y-68050000D03*
%TD*%
%TO.C,R1*%
X118510000Y-83740000D03*
D26*
X118510000Y-91360000D03*
%TD*%
D20*
%TO.C,R6*%
X163760000Y-102610000D03*
D26*
X163760000Y-94990000D03*
%TD*%
D33*
%TO.C,C1*%
X124010000Y-101800000D03*
D20*
X121510000Y-101800000D03*
%TD*%
%TO.C,C9*%
X133760000Y-80550000D03*
X133760000Y-79300000D03*
X133760000Y-76800000D03*
X133760000Y-75550000D03*
%TD*%
%TO.C,C7*%
X133760000Y-83050000D03*
X133760000Y-84300000D03*
X133760000Y-86800000D03*
X133760000Y-88050000D03*
%TD*%
%TO.C,R10*%
X144320000Y-97300000D03*
D26*
X136700000Y-97300000D03*
%TD*%
D20*
%TO.C,C4*%
X148510000Y-106800000D03*
X149760000Y-106800000D03*
X152260000Y-106800000D03*
X153510000Y-106800000D03*
%TD*%
%TO.C,C26*%
X163260000Y-85800000D03*
X162010000Y-85800000D03*
X159510000Y-85800000D03*
X158260000Y-85800000D03*
%TD*%
%TO.C,R12*%
X157200000Y-106800000D03*
D26*
X164820000Y-106800000D03*
%TD*%
D20*
%TO.C,R2*%
X118510000Y-93860000D03*
D26*
X118510000Y-101480000D03*
%TD*%
D20*
%TO.C,R9*%
X130010000Y-74240000D03*
D26*
X130010000Y-81860000D03*
%TD*%
D30*
%TO.C,U3*%
X137470000Y-88420000D03*
D26*
X140010000Y-88420000D03*
X142550000Y-88420000D03*
X145090000Y-88420000D03*
X147630000Y-88420000D03*
X150170000Y-88420000D03*
X152710000Y-88420000D03*
X155250000Y-88420000D03*
X155250000Y-80800000D03*
X152710000Y-80800000D03*
X150170000Y-80800000D03*
X147630000Y-80800000D03*
X145090000Y-80800000D03*
X142550000Y-80800000D03*
X140010000Y-80800000D03*
X137470000Y-80800000D03*
%TD*%
D20*
%TO.C,R17*%
X118510000Y-103740000D03*
D26*
X118510000Y-111360000D03*
%TD*%
D19*
%TO.C,C11*%
X135010000Y-91050000D03*
D20*
X135010000Y-93550000D03*
%TD*%
%TO.C,R19*%
X159070000Y-75050000D03*
D26*
X151450000Y-75050000D03*
%TD*%
D20*
%TO.C,R7*%
X156570000Y-99050000D03*
D26*
X148950000Y-99050000D03*
%TD*%
D20*
%TO.C,C15*%
X167260000Y-96300000D03*
X167260000Y-95050000D03*
X167260000Y-92550000D03*
X167260000Y-91300000D03*
%TD*%
D34*
%TO.C,U1*%
X136710000Y-100500000D03*
D26*
X136710000Y-103040000D03*
X136710000Y-105580000D03*
X136710000Y-108120000D03*
X144330000Y-108120000D03*
X144330000Y-105580000D03*
X144330000Y-103040000D03*
X144330000Y-100500000D03*
%TD*%
D20*
%TO.C,R5*%
X146950000Y-103300000D03*
D26*
X154570000Y-103300000D03*
%TD*%
D19*
%TO.C,C22*%
X122510000Y-80050000D03*
D20*
X122510000Y-82550000D03*
%TD*%
%TO.C,R13*%
X134070000Y-111050000D03*
D26*
X126450000Y-111050000D03*
%TD*%
D27*
%TO.C,RV3*%
X122210000Y-27525000D03*
X131810000Y-27525000D03*
D28*
X124510000Y-35025000D03*
D29*
X127010000Y-35025000D03*
X129510000Y-35025000D03*
%TD*%
D20*
%TO.C,C2*%
X162010000Y-110300000D03*
X160760000Y-110300000D03*
X158260000Y-110300000D03*
X157010000Y-110300000D03*
%TD*%
%TO.C,C25*%
X163260000Y-81800000D03*
X162010000Y-81800000D03*
X159510000Y-81800000D03*
X158260000Y-81800000D03*
%TD*%
%TO.C,R11*%
X126700000Y-97300000D03*
D26*
X134320000Y-97300000D03*
%TD*%
D20*
%TO.C,C6*%
X123010000Y-77300000D03*
X123010000Y-76050000D03*
X123010000Y-73550000D03*
X123010000Y-72300000D03*
%TD*%
%TO.C,C13*%
X156010000Y-96300000D03*
X156010000Y-95050000D03*
X156010000Y-92550000D03*
X156010000Y-91300000D03*
%TD*%
%TO.C,C19*%
X146510000Y-77550000D03*
X145260000Y-77550000D03*
X142760000Y-77550000D03*
X141510000Y-77550000D03*
%TD*%
%TO.C,R15*%
X167260000Y-88860000D03*
D26*
X167260000Y-81240000D03*
%TD*%
D20*
%TO.C,C20*%
X119010000Y-77300000D03*
X119010000Y-76050000D03*
X119010000Y-73550000D03*
X119010000Y-72300000D03*
%TD*%
%TO.C,R16*%
X151450000Y-78050000D03*
D26*
X159070000Y-78050000D03*
%TD*%
D20*
%TO.C,R8*%
X126760000Y-74240000D03*
D26*
X126760000Y-81860000D03*
%TD*%
D30*
%TO.C,C10*%
X129010000Y-87505113D03*
D20*
X129010000Y-85005113D03*
%TD*%
%LPD*%
M02*
