M48
; DRILL file {KiCad 7.0.2-6a45011f42~172~ubuntu22.04.1} date Sun 21 May 2023 10:08:46 BST
; FORMAT={-:-/ absolute / inch / decimal}
; #@! TF.CreationDate,2023-05-21T10:08:46+01:00
; #@! TF.GenerationSoftware,Kicad,Pcbnew,7.0.2-6a45011f42~172~ubuntu22.04.1
; #@! TF.FileFunction,Plated,1,2,PTH
FMAT,2
INCH
; #@! TA.AperFunction,Plated,PTH,ComponentDrill
T1C0.0295
; #@! TA.AperFunction,Plated,PTH,ComponentDrill
T2C0.0315
; #@! TA.AperFunction,Plated,PTH,ComponentDrill
T3C0.0394
; #@! TA.AperFunction,Plated,PTH,ComponentDrill
T4C0.0394
; #@! TA.AperFunction,Plated,PTH,ComponentDrill
T5C0.0433
; #@! TA.AperFunction,Plated,PTH,ComponentDrill
T6C0.0469
; #@! TA.AperFunction,Plated,PTH,ComponentDrill
T7C0.0591
%
G90
G05
T1
X4.9504Y-3.6591
X5.0004Y-3.6591
X5.0504Y-3.6591
T2
X4.6657Y-3.2969
X4.6657Y-3.5969
X4.6657Y-3.6953
X4.6657Y-3.9953
X4.6657Y-4.0843
X4.6657Y-4.3843
X4.6854Y-2.8465
X4.6854Y-2.8957
X4.6854Y-2.9941
X4.6854Y-3.0433
X4.7248Y-2.6791
X4.7839Y-4.0079
X4.7937Y-4.2441
X4.8232Y-2.6791
X4.8232Y-3.1516
X4.8232Y-3.25
X4.8429Y-2.8465
X4.8429Y-2.8957
X4.8429Y-2.9941
X4.8429Y-3.0433
X4.8724Y-3.4156
X4.8724Y-3.514
X4.8823Y-4.0079
X4.8921Y-4.2441
X4.9709Y-2.8169
X4.9783Y-4.126
X4.9783Y-4.372
X4.9882Y-3.8307
X4.9906Y-2.9228
X4.9906Y-3.2228
X5.0693Y-3.9783
X5.0791Y-3.3467
X5.0791Y-3.4451
X5.1185Y-2.9228
X5.1185Y-3.2228
X5.1185Y-3.9783
X5.2169Y-3.9783
X5.2661Y-2.9744
X5.2661Y-3.0236
X5.2661Y-3.122
X5.2661Y-3.1713
X5.2661Y-3.2697
X5.2661Y-3.3189
X5.2661Y-3.4173
X5.2661Y-3.4665
X5.2661Y-3.9783
X5.2709Y-2.8169
X5.2783Y-4.126
X5.2783Y-4.372
X5.2882Y-3.8307
X5.3154Y-3.5846
X5.3154Y-3.6831
X5.3819Y-3.8307
X5.3819Y-4.372
X5.3823Y-3.9567
X5.3823Y-4.0567
X5.3823Y-4.1567
X5.3823Y-4.2567
X5.4122Y-3.1811
X5.4122Y-3.4811
X5.5122Y-3.1811
X5.5122Y-3.4811
X5.5689Y-2.9154
X5.5713Y-3.0531
X5.6122Y-3.1811
X5.6122Y-3.4811
X5.6205Y-3.0531
X5.6819Y-3.8307
X5.6819Y-4.372
X5.6823Y-3.9567
X5.6823Y-4.0567
X5.6823Y-4.1567
X5.6823Y-4.2567
X5.7122Y-3.1811
X5.7122Y-3.4811
X5.7189Y-3.0531
X5.7681Y-3.0531
X5.7854Y-4.0669
X5.7854Y-4.3425
X5.8075Y-3.6043
X5.8122Y-3.1811
X5.8122Y-3.4811
X5.8469Y-4.2047
X5.8567Y-3.6043
X5.8642Y-3.8996
X5.8689Y-2.9154
X5.8961Y-4.2047
X5.9122Y-3.1811
X5.9122Y-3.4811
X5.9551Y-3.6043
X5.9602Y-2.8366
X5.9626Y-2.9547
X5.9626Y-3.0728
X5.9945Y-4.2047
X6.0043Y-3.6043
X6.0122Y-3.1811
X6.0122Y-3.4811
X6.0437Y-4.2047
X6.0854Y-4.0669
X6.0854Y-4.3425
X6.1122Y-3.1811
X6.1122Y-3.4811
X6.1421Y-3.5945
X6.1421Y-3.6437
X6.1421Y-3.7421
X6.1421Y-3.7913
X6.1642Y-3.8996
X6.1815Y-4.3425
X6.189Y-4.2047
X6.2128Y-4.0374
X6.2307Y-3.2205
X6.2307Y-3.378
X6.2307Y-4.3425
X6.2602Y-2.8366
X6.2626Y-2.9547
X6.2626Y-3.0728
X6.2799Y-3.2205
X6.2799Y-3.378
X6.3112Y-4.0374
X6.3291Y-4.3425
X6.3406Y-5.315
X6.3587Y-2.8957
X6.3587Y-3.0531
X6.378Y-5.5197
X6.378Y-5.6181
X6.3783Y-3.2205
X6.3783Y-3.378
X6.3783Y-4.3425
X6.4079Y-2.8957
X6.4079Y-3.0531
X6.4276Y-3.2205
X6.4276Y-3.378
X6.4472Y-3.7398
X6.4472Y-4.0398
X6.489Y-4.2047
X6.5063Y-2.8957
X6.5063Y-3.0531
X6.5374Y-5.315
X6.5555Y-2.8957
X6.5555Y-3.0531
X6.585Y-3.1984
X6.585Y-3.4984
X6.585Y-3.5945
X6.585Y-3.6437
X6.585Y-3.7421
X6.585Y-3.7913
X6.585Y-3.8996
X6.585Y-3.9488
X6.585Y-4.0472
X6.585Y-4.0965
T3
X4.6746Y-2.4921
X4.7746Y-2.4921
X4.902Y-1.3789
X5.0004Y-1.3789
X5.0988Y-1.3789
X5.5368Y-1.3789
X5.6352Y-1.3789
X5.7337Y-1.3789
X6.1717Y-1.3789
X6.2701Y-1.3789
X6.3685Y-1.3789
T4
X4.8228Y-5.315
X4.8228Y-5.415
X5.0295Y-5.315
X5.0295Y-5.615
X5.1575Y-5.3157
X5.1575Y-5.6157
X6.122Y-5.315
X6.122Y-5.615
T6
X5.4236Y-1.5669
X5.463Y-2.748
X5.5236Y-1.5669
X5.563Y-2.748
X5.6236Y-1.5669
X5.663Y-2.748
X5.7236Y-1.5669
X5.763Y-2.748
X5.8236Y-1.5669
X5.863Y-2.748
T7
X4.813Y-4.5079
X4.813Y-5.1469
X5.063Y-4.5079
X5.063Y-5.1469
X5.313Y-4.5079
X5.313Y-5.1469
X5.9272Y-4.5091
X5.9272Y-5.148
X6.1772Y-4.5091
X6.1772Y-5.148
X6.4272Y-4.5091
X6.4272Y-5.148
T3
G00X5.4528Y-5.4262
M15
G01X5.4094Y-5.4262
M16
G05
G00X5.4528Y-5.6112
M15
G01X5.4094Y-5.6112
M16
G05
G00X5.4528Y-5.7963
M15
G01X5.4094Y-5.7963
M16
G05
G00X5.6614Y-5.4262
M15
G01X5.6181Y-5.4262
M16
G05
G00X5.6614Y-5.6122
M15
G01X5.6181Y-5.6122
M16
G05
G00X5.6614Y-5.7963
M15
G01X5.6181Y-5.7963
M16
G05
G00X5.8701Y-5.4262
M15
G01X5.8268Y-5.4262
M16
G05
G00X5.8701Y-5.6112
M15
G01X5.8268Y-5.6112
M16
G05
G00X5.8701Y-5.7963
M15
G01X5.8268Y-5.7963
M16
G05
T5
G00X4.8114Y-1.0974
M15
G01X4.8114Y-1.0699
M16
G05
G00X5.1894Y-1.0974
M15
G01X5.1894Y-1.0699
M16
G05
G00X5.4463Y-1.0974
M15
G01X5.4463Y-1.0699
M16
G05
G00X5.8242Y-1.0974
M15
G01X5.8242Y-1.0699
M16
G05
G00X6.0811Y-1.0974
M15
G01X6.0811Y-1.0699
M16
G05
G00X6.4591Y-1.0974
M15
G01X6.4591Y-1.0699
M16
G05
T0
M30
