%TF.GenerationSoftware,KiCad,Pcbnew,6.0.0-d3dd2cf0fa~116~ubuntu20.04.1*%
%TF.CreationDate,2022-01-03T11:44:46+00:00*%
%TF.ProjectId,peppermill,70657070-6572-46d6-996c-6c2e6b696361,rev?*%
%TF.SameCoordinates,Original*%
%TF.FileFunction,Legend,Top*%
%TF.FilePolarity,Positive*%
%FSLAX46Y46*%
G04 Gerber Fmt 4.6, Leading zero omitted, Abs format (unit mm)*
G04 Created by KiCad (PCBNEW 6.0.0-d3dd2cf0fa~116~ubuntu20.04.1) date 2022-01-03 11:44:46*
%MOMM*%
%LPD*%
G01*
G04 APERTURE LIST*
%ADD10C,0.150000*%
%ADD11C,0.120000*%
%ADD12R,2.600000X1.500000*%
%ADD13O,2.600000X1.500000*%
%ADD14R,2.000000X1.900000*%
%ADD15C,1.900000*%
%ADD16C,1.998980*%
%ADD17R,1.300000X1.300000*%
%ADD18C,1.300000*%
G04 APERTURE END LIST*
D10*
%TO.C,J3*%
X139750000Y-127432380D02*
X139940476Y-127432380D01*
X140035714Y-127480000D01*
X140130952Y-127575238D01*
X140178571Y-127765714D01*
X140178571Y-128099047D01*
X140130952Y-128289523D01*
X140035714Y-128384761D01*
X139940476Y-128432380D01*
X139750000Y-128432380D01*
X139654761Y-128384761D01*
X139559523Y-128289523D01*
X139511904Y-128099047D01*
X139511904Y-127765714D01*
X139559523Y-127575238D01*
X139654761Y-127480000D01*
X139750000Y-127432380D01*
X140607142Y-127432380D02*
X140607142Y-128241904D01*
X140654761Y-128337142D01*
X140702380Y-128384761D01*
X140797619Y-128432380D01*
X140988095Y-128432380D01*
X141083333Y-128384761D01*
X141130952Y-128337142D01*
X141178571Y-128241904D01*
X141178571Y-127432380D01*
X141511904Y-127432380D02*
X142083333Y-127432380D01*
X141797619Y-128432380D02*
X141797619Y-127432380D01*
%TO.C,J2*%
X138772380Y-64633333D02*
X139486666Y-64633333D01*
X139629523Y-64680952D01*
X139724761Y-64776190D01*
X139772380Y-64919047D01*
X139772380Y-65014285D01*
X138867619Y-64204761D02*
X138820000Y-64157142D01*
X138772380Y-64061904D01*
X138772380Y-63823809D01*
X138820000Y-63728571D01*
X138867619Y-63680952D01*
X138962857Y-63633333D01*
X139058095Y-63633333D01*
X139200952Y-63680952D01*
X139772380Y-64252380D01*
X139772380Y-63633333D01*
%TO.C,C2*%
X157783333Y-145707142D02*
X157735714Y-145754761D01*
X157592857Y-145802380D01*
X157497619Y-145802380D01*
X157354761Y-145754761D01*
X157259523Y-145659523D01*
X157211904Y-145564285D01*
X157164285Y-145373809D01*
X157164285Y-145230952D01*
X157211904Y-145040476D01*
X157259523Y-144945238D01*
X157354761Y-144850000D01*
X157497619Y-144802380D01*
X157592857Y-144802380D01*
X157735714Y-144850000D01*
X157783333Y-144897619D01*
X158164285Y-144897619D02*
X158211904Y-144850000D01*
X158307142Y-144802380D01*
X158545238Y-144802380D01*
X158640476Y-144850000D01*
X158688095Y-144897619D01*
X158735714Y-144992857D01*
X158735714Y-145088095D01*
X158688095Y-145230952D01*
X158116666Y-145802380D01*
X158735714Y-145802380D01*
X157783333Y-147302380D02*
X157211904Y-147302380D01*
X157497619Y-147302380D02*
X157497619Y-146302380D01*
X157402380Y-146445238D01*
X157307142Y-146540476D01*
X157211904Y-146588095D01*
X158402380Y-146302380D02*
X158497619Y-146302380D01*
X158592857Y-146350000D01*
X158640476Y-146397619D01*
X158688095Y-146492857D01*
X158735714Y-146683333D01*
X158735714Y-146921428D01*
X158688095Y-147111904D01*
X158640476Y-147207142D01*
X158592857Y-147254761D01*
X158497619Y-147302380D01*
X158402380Y-147302380D01*
X158307142Y-147254761D01*
X158259523Y-147207142D01*
X158211904Y-147111904D01*
X158164285Y-146921428D01*
X158164285Y-146683333D01*
X158211904Y-146492857D01*
X158259523Y-146397619D01*
X158307142Y-146350000D01*
X158402380Y-146302380D01*
X159354761Y-146302380D02*
X159450000Y-146302380D01*
X159545238Y-146350000D01*
X159592857Y-146397619D01*
X159640476Y-146492857D01*
X159688095Y-146683333D01*
X159688095Y-146921428D01*
X159640476Y-147111904D01*
X159592857Y-147207142D01*
X159545238Y-147254761D01*
X159450000Y-147302380D01*
X159354761Y-147302380D01*
X159259523Y-147254761D01*
X159211904Y-147207142D01*
X159164285Y-147111904D01*
X159116666Y-146921428D01*
X159116666Y-146683333D01*
X159164285Y-146492857D01*
X159211904Y-146397619D01*
X159259523Y-146350000D01*
X159354761Y-146302380D01*
%TO.C,D1*%
X122261904Y-140452380D02*
X122261904Y-139452380D01*
X122500000Y-139452380D01*
X122642857Y-139500000D01*
X122738095Y-139595238D01*
X122785714Y-139690476D01*
X122833333Y-139880952D01*
X122833333Y-140023809D01*
X122785714Y-140214285D01*
X122738095Y-140309523D01*
X122642857Y-140404761D01*
X122500000Y-140452380D01*
X122261904Y-140452380D01*
X123785714Y-140452380D02*
X123214285Y-140452380D01*
X123500000Y-140452380D02*
X123500000Y-139452380D01*
X123404761Y-139595238D01*
X123309523Y-139690476D01*
X123214285Y-139738095D01*
%TO.C,R1*%
X158075780Y-140586866D02*
X157599590Y-140920200D01*
X158075780Y-141158295D02*
X157075780Y-141158295D01*
X157075780Y-140777342D01*
X157123400Y-140682104D01*
X157171019Y-140634485D01*
X157266257Y-140586866D01*
X157409114Y-140586866D01*
X157504352Y-140634485D01*
X157551971Y-140682104D01*
X157599590Y-140777342D01*
X157599590Y-141158295D01*
X158075780Y-139634485D02*
X158075780Y-140205914D01*
X158075780Y-139920200D02*
X157075780Y-139920200D01*
X157218638Y-140015438D01*
X157313876Y-140110676D01*
X157361495Y-140205914D01*
X158075780Y-137705914D02*
X158075780Y-138277342D01*
X158075780Y-137991628D02*
X157075780Y-137991628D01*
X157218638Y-138086866D01*
X157313876Y-138182104D01*
X157361495Y-138277342D01*
X158075780Y-137277342D02*
X157075780Y-137277342D01*
X157790066Y-136944009D01*
X157075780Y-136610676D01*
X158075780Y-136610676D01*
%TO.C,R3*%
X133702380Y-134806666D02*
X133226190Y-135140000D01*
X133702380Y-135378095D02*
X132702380Y-135378095D01*
X132702380Y-134997142D01*
X132750000Y-134901904D01*
X132797619Y-134854285D01*
X132892857Y-134806666D01*
X133035714Y-134806666D01*
X133130952Y-134854285D01*
X133178571Y-134901904D01*
X133226190Y-134997142D01*
X133226190Y-135378095D01*
X132702380Y-134473333D02*
X132702380Y-133854285D01*
X133083333Y-134187619D01*
X133083333Y-134044761D01*
X133130952Y-133949523D01*
X133178571Y-133901904D01*
X133273809Y-133854285D01*
X133511904Y-133854285D01*
X133607142Y-133901904D01*
X133654761Y-133949523D01*
X133702380Y-134044761D01*
X133702380Y-134330476D01*
X133654761Y-134425714D01*
X133607142Y-134473333D01*
X133702380Y-137925714D02*
X133702380Y-138497142D01*
X133702380Y-138211428D02*
X132702380Y-138211428D01*
X132845238Y-138306666D01*
X132940476Y-138401904D01*
X132988095Y-138497142D01*
X133702380Y-137497142D02*
X132702380Y-137497142D01*
X133416666Y-137163809D01*
X132702380Y-136830476D01*
X133702380Y-136830476D01*
%TO.C,R2*%
X125952380Y-140036666D02*
X125476190Y-140370000D01*
X125952380Y-140608095D02*
X124952380Y-140608095D01*
X124952380Y-140227142D01*
X125000000Y-140131904D01*
X125047619Y-140084285D01*
X125142857Y-140036666D01*
X125285714Y-140036666D01*
X125380952Y-140084285D01*
X125428571Y-140131904D01*
X125476190Y-140227142D01*
X125476190Y-140608095D01*
X125047619Y-139655714D02*
X125000000Y-139608095D01*
X124952380Y-139512857D01*
X124952380Y-139274761D01*
X125000000Y-139179523D01*
X125047619Y-139131904D01*
X125142857Y-139084285D01*
X125238095Y-139084285D01*
X125380952Y-139131904D01*
X125952380Y-139703333D01*
X125952380Y-139084285D01*
X125952380Y-143084285D02*
X125952380Y-143655714D01*
X125952380Y-143370000D02*
X124952380Y-143370000D01*
X125095238Y-143465238D01*
X125190476Y-143560476D01*
X125238095Y-143655714D01*
X125952380Y-142655714D02*
X124952380Y-142655714D01*
X125952380Y-142084285D02*
X125380952Y-142512857D01*
X124952380Y-142084285D02*
X125523809Y-142655714D01*
%TO.C,C1*%
X159357142Y-135166666D02*
X159404761Y-135214285D01*
X159452380Y-135357142D01*
X159452380Y-135452380D01*
X159404761Y-135595238D01*
X159309523Y-135690476D01*
X159214285Y-135738095D01*
X159023809Y-135785714D01*
X158880952Y-135785714D01*
X158690476Y-135738095D01*
X158595238Y-135690476D01*
X158500000Y-135595238D01*
X158452380Y-135452380D01*
X158452380Y-135357142D01*
X158500000Y-135214285D01*
X158547619Y-135166666D01*
X159452380Y-134214285D02*
X159452380Y-134785714D01*
X159452380Y-134500000D02*
X158452380Y-134500000D01*
X158595238Y-134595238D01*
X158690476Y-134690476D01*
X158738095Y-134785714D01*
X167452380Y-135761904D02*
X167452380Y-135666666D01*
X167500000Y-135571428D01*
X167547619Y-135523809D01*
X167642857Y-135476190D01*
X167833333Y-135428571D01*
X168071428Y-135428571D01*
X168261904Y-135476190D01*
X168357142Y-135523809D01*
X168404761Y-135571428D01*
X168452380Y-135666666D01*
X168452380Y-135761904D01*
X168404761Y-135857142D01*
X168357142Y-135904761D01*
X168261904Y-135952380D01*
X168071428Y-136000000D01*
X167833333Y-136000000D01*
X167642857Y-135952380D01*
X167547619Y-135904761D01*
X167500000Y-135857142D01*
X167452380Y-135761904D01*
X168357142Y-135000000D02*
X168404761Y-134952380D01*
X168452380Y-135000000D01*
X168404761Y-135047619D01*
X168357142Y-135000000D01*
X168452380Y-135000000D01*
X168452380Y-134000000D02*
X168452380Y-134571428D01*
X168452380Y-134285714D02*
X167452380Y-134285714D01*
X167595238Y-134380952D01*
X167690476Y-134476190D01*
X167738095Y-134571428D01*
%TO.C,J1*%
X143726190Y-128262380D02*
X143726190Y-127262380D01*
X144202380Y-128262380D02*
X144202380Y-127262380D01*
X144773809Y-128262380D01*
X144773809Y-127262380D01*
%TO.C,FXC4*%
X139000076Y-89757571D02*
X138666742Y-89757571D01*
X138666742Y-90281380D02*
X138666742Y-89281380D01*
X139142933Y-89281380D01*
X139428647Y-89281380D02*
X140095314Y-90281380D01*
X140095314Y-89281380D02*
X139428647Y-90281380D01*
X141047695Y-90186142D02*
X141000076Y-90233761D01*
X140857219Y-90281380D01*
X140761980Y-90281380D01*
X140619123Y-90233761D01*
X140523885Y-90138523D01*
X140476266Y-90043285D01*
X140428647Y-89852809D01*
X140428647Y-89709952D01*
X140476266Y-89519476D01*
X140523885Y-89424238D01*
X140619123Y-89329000D01*
X140761980Y-89281380D01*
X140857219Y-89281380D01*
X141000076Y-89329000D01*
X141047695Y-89376619D01*
X141904838Y-89614714D02*
X141904838Y-90281380D01*
X141666742Y-89233761D02*
X141428647Y-89948047D01*
X142047695Y-89948047D01*
%TO.C,FXC1*%
X146613571Y-113312723D02*
X146613571Y-113646057D01*
X147137380Y-113646057D02*
X146137380Y-113646057D01*
X146137380Y-113169866D01*
X146137380Y-112884152D02*
X147137380Y-112217485D01*
X146137380Y-112217485D02*
X147137380Y-112884152D01*
X147042142Y-111265104D02*
X147089761Y-111312723D01*
X147137380Y-111455580D01*
X147137380Y-111550819D01*
X147089761Y-111693676D01*
X146994523Y-111788914D01*
X146899285Y-111836533D01*
X146708809Y-111884152D01*
X146565952Y-111884152D01*
X146375476Y-111836533D01*
X146280238Y-111788914D01*
X146185000Y-111693676D01*
X146137380Y-111550819D01*
X146137380Y-111455580D01*
X146185000Y-111312723D01*
X146232619Y-111265104D01*
X147137380Y-110312723D02*
X147137380Y-110884152D01*
X147137380Y-110598438D02*
X146137380Y-110598438D01*
X146280238Y-110693676D01*
X146375476Y-110788914D01*
X146423095Y-110884152D01*
%TO.C,FXR2*%
X138517476Y-102054171D02*
X138184142Y-102054171D01*
X138184142Y-102577980D02*
X138184142Y-101577980D01*
X138660333Y-101577980D01*
X138946047Y-101577980D02*
X139612714Y-102577980D01*
X139612714Y-101577980D02*
X138946047Y-102577980D01*
X140565095Y-102577980D02*
X140231761Y-102101790D01*
X139993666Y-102577980D02*
X139993666Y-101577980D01*
X140374619Y-101577980D01*
X140469857Y-101625600D01*
X140517476Y-101673219D01*
X140565095Y-101768457D01*
X140565095Y-101911314D01*
X140517476Y-102006552D01*
X140469857Y-102054171D01*
X140374619Y-102101790D01*
X139993666Y-102101790D01*
X140946047Y-101673219D02*
X140993666Y-101625600D01*
X141088904Y-101577980D01*
X141327000Y-101577980D01*
X141422238Y-101625600D01*
X141469857Y-101673219D01*
X141517476Y-101768457D01*
X141517476Y-101863695D01*
X141469857Y-102006552D01*
X140898428Y-102577980D01*
X141517476Y-102577980D01*
%TO.C,RV2*%
X152296180Y-76134838D02*
X151819990Y-76468171D01*
X152296180Y-76706266D02*
X151296180Y-76706266D01*
X151296180Y-76325314D01*
X151343800Y-76230076D01*
X151391419Y-76182457D01*
X151486657Y-76134838D01*
X151629514Y-76134838D01*
X151724752Y-76182457D01*
X151772371Y-76230076D01*
X151819990Y-76325314D01*
X151819990Y-76706266D01*
X151296180Y-75849123D02*
X152296180Y-75515790D01*
X151296180Y-75182457D01*
X151391419Y-74896742D02*
X151343800Y-74849123D01*
X151296180Y-74753885D01*
X151296180Y-74515790D01*
X151343800Y-74420552D01*
X151391419Y-74372933D01*
X151486657Y-74325314D01*
X151581895Y-74325314D01*
X151724752Y-74372933D01*
X152296180Y-74944361D01*
X152296180Y-74325314D01*
%TO.C,TP1*%
X135886895Y-83964180D02*
X136458323Y-83964180D01*
X136172609Y-84964180D02*
X136172609Y-83964180D01*
X136791657Y-84964180D02*
X136791657Y-83964180D01*
X137172609Y-83964180D01*
X137267847Y-84011800D01*
X137315466Y-84059419D01*
X137363085Y-84154657D01*
X137363085Y-84297514D01*
X137315466Y-84392752D01*
X137267847Y-84440371D01*
X137172609Y-84487990D01*
X136791657Y-84487990D01*
X138315466Y-84964180D02*
X137744038Y-84964180D01*
X138029752Y-84964180D02*
X138029752Y-83964180D01*
X137934514Y-84107038D01*
X137839276Y-84202276D01*
X137744038Y-84249895D01*
%TO.C,FXC2*%
X130549971Y-73430923D02*
X130549971Y-73764257D01*
X131073780Y-73764257D02*
X130073780Y-73764257D01*
X130073780Y-73288066D01*
X130073780Y-73002352D02*
X131073780Y-72335685D01*
X130073780Y-72335685D02*
X131073780Y-73002352D01*
X130978542Y-71383304D02*
X131026161Y-71430923D01*
X131073780Y-71573780D01*
X131073780Y-71669019D01*
X131026161Y-71811876D01*
X130930923Y-71907114D01*
X130835685Y-71954733D01*
X130645209Y-72002352D01*
X130502352Y-72002352D01*
X130311876Y-71954733D01*
X130216638Y-71907114D01*
X130121400Y-71811876D01*
X130073780Y-71669019D01*
X130073780Y-71573780D01*
X130121400Y-71430923D01*
X130169019Y-71383304D01*
X130169019Y-71002352D02*
X130121400Y-70954733D01*
X130073780Y-70859495D01*
X130073780Y-70621400D01*
X130121400Y-70526161D01*
X130169019Y-70478542D01*
X130264257Y-70430923D01*
X130359495Y-70430923D01*
X130502352Y-70478542D01*
X131073780Y-71049971D01*
X131073780Y-70430923D01*
%TO.C,FXC3*%
X150165771Y-88189929D02*
X150165771Y-88523263D01*
X150689580Y-88523263D02*
X149689580Y-88523263D01*
X149689580Y-88047072D01*
X149689580Y-87761358D02*
X150689580Y-87094691D01*
X149689580Y-87094691D02*
X150689580Y-87761358D01*
X150594342Y-86142310D02*
X150641961Y-86189929D01*
X150689580Y-86332786D01*
X150689580Y-86428025D01*
X150641961Y-86570882D01*
X150546723Y-86666120D01*
X150451485Y-86713739D01*
X150261009Y-86761358D01*
X150118152Y-86761358D01*
X149927676Y-86713739D01*
X149832438Y-86666120D01*
X149737200Y-86570882D01*
X149689580Y-86428025D01*
X149689580Y-86332786D01*
X149737200Y-86189929D01*
X149784819Y-86142310D01*
X149689580Y-85808977D02*
X149689580Y-85189929D01*
X150070533Y-85523263D01*
X150070533Y-85380406D01*
X150118152Y-85285167D01*
X150165771Y-85237548D01*
X150261009Y-85189929D01*
X150499104Y-85189929D01*
X150594342Y-85237548D01*
X150641961Y-85285167D01*
X150689580Y-85380406D01*
X150689580Y-85666120D01*
X150641961Y-85761358D01*
X150594342Y-85808977D01*
%TO.C,D2*%
X149324180Y-100382295D02*
X148324180Y-100382295D01*
X148324180Y-100144200D01*
X148371800Y-100001342D01*
X148467038Y-99906104D01*
X148562276Y-99858485D01*
X148752752Y-99810866D01*
X148895609Y-99810866D01*
X149086085Y-99858485D01*
X149181323Y-99906104D01*
X149276561Y-100001342D01*
X149324180Y-100144200D01*
X149324180Y-100382295D01*
X148419419Y-99429914D02*
X148371800Y-99382295D01*
X148324180Y-99287057D01*
X148324180Y-99048961D01*
X148371800Y-98953723D01*
X148419419Y-98906104D01*
X148514657Y-98858485D01*
X148609895Y-98858485D01*
X148752752Y-98906104D01*
X149324180Y-99477533D01*
X149324180Y-98858485D01*
%TO.C,FXR7*%
X158508571Y-89422123D02*
X158508571Y-89755457D01*
X159032380Y-89755457D02*
X158032380Y-89755457D01*
X158032380Y-89279266D01*
X158032380Y-88993552D02*
X159032380Y-88326885D01*
X158032380Y-88326885D02*
X159032380Y-88993552D01*
X159032380Y-87374504D02*
X158556190Y-87707838D01*
X159032380Y-87945933D02*
X158032380Y-87945933D01*
X158032380Y-87564980D01*
X158080000Y-87469742D01*
X158127619Y-87422123D01*
X158222857Y-87374504D01*
X158365714Y-87374504D01*
X158460952Y-87422123D01*
X158508571Y-87469742D01*
X158556190Y-87564980D01*
X158556190Y-87945933D01*
X158032380Y-87041171D02*
X158032380Y-86374504D01*
X159032380Y-86803076D01*
%TO.C,Q2*%
X136383361Y-91102619D02*
X136288123Y-91055000D01*
X136192885Y-90959761D01*
X136050028Y-90816904D01*
X135954790Y-90769285D01*
X135859552Y-90769285D01*
X135907171Y-91007380D02*
X135811933Y-90959761D01*
X135716695Y-90864523D01*
X135669076Y-90674047D01*
X135669076Y-90340714D01*
X135716695Y-90150238D01*
X135811933Y-90055000D01*
X135907171Y-90007380D01*
X136097647Y-90007380D01*
X136192885Y-90055000D01*
X136288123Y-90150238D01*
X136335742Y-90340714D01*
X136335742Y-90674047D01*
X136288123Y-90864523D01*
X136192885Y-90959761D01*
X136097647Y-91007380D01*
X135907171Y-91007380D01*
X136716695Y-90102619D02*
X136764314Y-90055000D01*
X136859552Y-90007380D01*
X137097647Y-90007380D01*
X137192885Y-90055000D01*
X137240504Y-90102619D01*
X137288123Y-90197857D01*
X137288123Y-90293095D01*
X137240504Y-90435952D01*
X136669076Y-91007380D01*
X137288123Y-91007380D01*
%TO.C,FXC5*%
X156424476Y-67659571D02*
X156091142Y-67659571D01*
X156091142Y-68183380D02*
X156091142Y-67183380D01*
X156567333Y-67183380D01*
X156853047Y-67183380D02*
X157519714Y-68183380D01*
X157519714Y-67183380D02*
X156853047Y-68183380D01*
X158472095Y-68088142D02*
X158424476Y-68135761D01*
X158281619Y-68183380D01*
X158186380Y-68183380D01*
X158043523Y-68135761D01*
X157948285Y-68040523D01*
X157900666Y-67945285D01*
X157853047Y-67754809D01*
X157853047Y-67611952D01*
X157900666Y-67421476D01*
X157948285Y-67326238D01*
X158043523Y-67231000D01*
X158186380Y-67183380D01*
X158281619Y-67183380D01*
X158424476Y-67231000D01*
X158472095Y-67278619D01*
X159376857Y-67183380D02*
X158900666Y-67183380D01*
X158853047Y-67659571D01*
X158900666Y-67611952D01*
X158995904Y-67564333D01*
X159234000Y-67564333D01*
X159329238Y-67611952D01*
X159376857Y-67659571D01*
X159424476Y-67754809D01*
X159424476Y-67992904D01*
X159376857Y-68088142D01*
X159329238Y-68135761D01*
X159234000Y-68183380D01*
X158995904Y-68183380D01*
X158900666Y-68135761D01*
X158853047Y-68088142D01*
%TO.C,FXR4*%
X147839276Y-92529171D02*
X147505942Y-92529171D01*
X147505942Y-93052980D02*
X147505942Y-92052980D01*
X147982133Y-92052980D01*
X148267847Y-92052980D02*
X148934514Y-93052980D01*
X148934514Y-92052980D02*
X148267847Y-93052980D01*
X149886895Y-93052980D02*
X149553561Y-92576790D01*
X149315466Y-93052980D02*
X149315466Y-92052980D01*
X149696419Y-92052980D01*
X149791657Y-92100600D01*
X149839276Y-92148219D01*
X149886895Y-92243457D01*
X149886895Y-92386314D01*
X149839276Y-92481552D01*
X149791657Y-92529171D01*
X149696419Y-92576790D01*
X149315466Y-92576790D01*
X150744038Y-92386314D02*
X150744038Y-93052980D01*
X150505942Y-92005361D02*
X150267847Y-92719647D01*
X150886895Y-92719647D01*
%TO.C,FXR1*%
X151801676Y-104601971D02*
X151468342Y-104601971D01*
X151468342Y-105125780D02*
X151468342Y-104125780D01*
X151944533Y-104125780D01*
X152230247Y-104125780D02*
X152896914Y-105125780D01*
X152896914Y-104125780D02*
X152230247Y-105125780D01*
X153849295Y-105125780D02*
X153515961Y-104649590D01*
X153277866Y-105125780D02*
X153277866Y-104125780D01*
X153658819Y-104125780D01*
X153754057Y-104173400D01*
X153801676Y-104221019D01*
X153849295Y-104316257D01*
X153849295Y-104459114D01*
X153801676Y-104554352D01*
X153754057Y-104601971D01*
X153658819Y-104649590D01*
X153277866Y-104649590D01*
X154801676Y-105125780D02*
X154230247Y-105125780D01*
X154515961Y-105125780D02*
X154515961Y-104125780D01*
X154420723Y-104268638D01*
X154325485Y-104363876D01*
X154230247Y-104411495D01*
%TO.C,FXR3*%
X138390476Y-105381571D02*
X138057142Y-105381571D01*
X138057142Y-105905380D02*
X138057142Y-104905380D01*
X138533333Y-104905380D01*
X138819047Y-104905380D02*
X139485714Y-105905380D01*
X139485714Y-104905380D02*
X138819047Y-105905380D01*
X140438095Y-105905380D02*
X140104761Y-105429190D01*
X139866666Y-105905380D02*
X139866666Y-104905380D01*
X140247619Y-104905380D01*
X140342857Y-104953000D01*
X140390476Y-105000619D01*
X140438095Y-105095857D01*
X140438095Y-105238714D01*
X140390476Y-105333952D01*
X140342857Y-105381571D01*
X140247619Y-105429190D01*
X139866666Y-105429190D01*
X140771428Y-104905380D02*
X141390476Y-104905380D01*
X141057142Y-105286333D01*
X141200000Y-105286333D01*
X141295238Y-105333952D01*
X141342857Y-105381571D01*
X141390476Y-105476809D01*
X141390476Y-105714904D01*
X141342857Y-105810142D01*
X141295238Y-105857761D01*
X141200000Y-105905380D01*
X140914285Y-105905380D01*
X140819047Y-105857761D01*
X140771428Y-105810142D01*
%TO.C,RV3*%
X150561780Y-61656838D02*
X150085590Y-61990171D01*
X150561780Y-62228266D02*
X149561780Y-62228266D01*
X149561780Y-61847314D01*
X149609400Y-61752076D01*
X149657019Y-61704457D01*
X149752257Y-61656838D01*
X149895114Y-61656838D01*
X149990352Y-61704457D01*
X150037971Y-61752076D01*
X150085590Y-61847314D01*
X150085590Y-62228266D01*
X149561780Y-61371123D02*
X150561780Y-61037790D01*
X149561780Y-60704457D01*
X149561780Y-60466361D02*
X149561780Y-59847314D01*
X149942733Y-60180647D01*
X149942733Y-60037790D01*
X149990352Y-59942552D01*
X150037971Y-59894933D01*
X150133209Y-59847314D01*
X150371304Y-59847314D01*
X150466542Y-59894933D01*
X150514161Y-59942552D01*
X150561780Y-60037790D01*
X150561780Y-60323504D01*
X150514161Y-60418742D01*
X150466542Y-60466361D01*
%TO.C,RV1*%
X118837180Y-61656838D02*
X118360990Y-61990171D01*
X118837180Y-62228266D02*
X117837180Y-62228266D01*
X117837180Y-61847314D01*
X117884800Y-61752076D01*
X117932419Y-61704457D01*
X118027657Y-61656838D01*
X118170514Y-61656838D01*
X118265752Y-61704457D01*
X118313371Y-61752076D01*
X118360990Y-61847314D01*
X118360990Y-62228266D01*
X117837180Y-61371123D02*
X118837180Y-61037790D01*
X117837180Y-60704457D01*
X118837180Y-59847314D02*
X118837180Y-60418742D01*
X118837180Y-60133028D02*
X117837180Y-60133028D01*
X117980038Y-60228266D01*
X118075276Y-60323504D01*
X118122895Y-60418742D01*
%TO.C,FXR6*%
X150441171Y-85154923D02*
X150441171Y-85488257D01*
X150964980Y-85488257D02*
X149964980Y-85488257D01*
X149964980Y-85012066D01*
X149964980Y-84726352D02*
X150964980Y-84059685D01*
X149964980Y-84059685D02*
X150964980Y-84726352D01*
X150964980Y-83107304D02*
X150488790Y-83440638D01*
X150964980Y-83678733D02*
X149964980Y-83678733D01*
X149964980Y-83297780D01*
X150012600Y-83202542D01*
X150060219Y-83154923D01*
X150155457Y-83107304D01*
X150298314Y-83107304D01*
X150393552Y-83154923D01*
X150441171Y-83202542D01*
X150488790Y-83297780D01*
X150488790Y-83678733D01*
X149964980Y-82250161D02*
X149964980Y-82440638D01*
X150012600Y-82535876D01*
X150060219Y-82583495D01*
X150203076Y-82678733D01*
X150393552Y-82726352D01*
X150774504Y-82726352D01*
X150869742Y-82678733D01*
X150917361Y-82631114D01*
X150964980Y-82535876D01*
X150964980Y-82345400D01*
X150917361Y-82250161D01*
X150869742Y-82202542D01*
X150774504Y-82154923D01*
X150536409Y-82154923D01*
X150441171Y-82202542D01*
X150393552Y-82250161D01*
X150345933Y-82345400D01*
X150345933Y-82535876D01*
X150393552Y-82631114D01*
X150441171Y-82678733D01*
X150536409Y-82726352D01*
%TO.C,FXR5*%
X124725276Y-72453371D02*
X124391942Y-72453371D01*
X124391942Y-72977180D02*
X124391942Y-71977180D01*
X124868133Y-71977180D01*
X125153847Y-71977180D02*
X125820514Y-72977180D01*
X125820514Y-71977180D02*
X125153847Y-72977180D01*
X126772895Y-72977180D02*
X126439561Y-72500990D01*
X126201466Y-72977180D02*
X126201466Y-71977180D01*
X126582419Y-71977180D01*
X126677657Y-72024800D01*
X126725276Y-72072419D01*
X126772895Y-72167657D01*
X126772895Y-72310514D01*
X126725276Y-72405752D01*
X126677657Y-72453371D01*
X126582419Y-72500990D01*
X126201466Y-72500990D01*
X127677657Y-71977180D02*
X127201466Y-71977180D01*
X127153847Y-72453371D01*
X127201466Y-72405752D01*
X127296704Y-72358133D01*
X127534800Y-72358133D01*
X127630038Y-72405752D01*
X127677657Y-72453371D01*
X127725276Y-72548609D01*
X127725276Y-72786704D01*
X127677657Y-72881942D01*
X127630038Y-72929561D01*
X127534800Y-72977180D01*
X127296704Y-72977180D01*
X127201466Y-72929561D01*
X127153847Y-72881942D01*
%TO.C,Q1*%
X146538961Y-97851019D02*
X146443723Y-97803400D01*
X146348485Y-97708161D01*
X146205628Y-97565304D01*
X146110390Y-97517685D01*
X146015152Y-97517685D01*
X146062771Y-97755780D02*
X145967533Y-97708161D01*
X145872295Y-97612923D01*
X145824676Y-97422447D01*
X145824676Y-97089114D01*
X145872295Y-96898638D01*
X145967533Y-96803400D01*
X146062771Y-96755780D01*
X146253247Y-96755780D01*
X146348485Y-96803400D01*
X146443723Y-96898638D01*
X146491342Y-97089114D01*
X146491342Y-97422447D01*
X146443723Y-97612923D01*
X146348485Y-97708161D01*
X146253247Y-97755780D01*
X146062771Y-97755780D01*
X147443723Y-97755780D02*
X146872295Y-97755780D01*
X147158009Y-97755780D02*
X147158009Y-96755780D01*
X147062771Y-96898638D01*
X146967533Y-96993876D01*
X146872295Y-97041495D01*
%TO.C,SW1*%
X152250000Y-151175000D02*
X134250000Y-151175000D01*
X134250000Y-151175000D02*
X134250000Y-133875000D01*
X134250000Y-133875000D02*
X152150000Y-133875000D01*
X152250000Y-151175000D02*
X152250000Y-133875000D01*
D11*
%TO.C,J3*%
X138860000Y-131870000D02*
X138860000Y-113580000D01*
X130060000Y-113580000D02*
X133490000Y-113580000D01*
X138890000Y-118470000D02*
X142110000Y-118470000D01*
X133490000Y-131870000D02*
X130060000Y-131870000D01*
X120800000Y-131870000D02*
X118250000Y-131870000D01*
X142130000Y-126980000D02*
X142130000Y-118500000D01*
X138860000Y-131870000D02*
X136410000Y-131870000D01*
X118250000Y-113580000D02*
X120800000Y-113580000D01*
X123710000Y-113580000D02*
X127140000Y-113580000D01*
X138890000Y-126980000D02*
X142110000Y-126980000D01*
X127140000Y-131870000D02*
X123710000Y-131870000D01*
X115250000Y-128570000D02*
X118250000Y-128570000D01*
X138860000Y-113580000D02*
X136410000Y-113580000D01*
X115250000Y-128570000D02*
X115250000Y-116870000D01*
X118250000Y-131870000D02*
X118250000Y-113580000D01*
X115250000Y-116870000D02*
X118250000Y-116870000D01*
%TO.C,J2*%
X142920000Y-62970000D02*
X145520000Y-62970000D01*
X140320000Y-65630000D02*
X140320000Y-64300000D01*
X142920000Y-65630000D02*
X142920000Y-62970000D01*
X142920000Y-65630000D02*
X145520000Y-65630000D01*
X141650000Y-65630000D02*
X140320000Y-65630000D01*
X145520000Y-65630000D02*
X145520000Y-62970000D01*
%TO.C,C2*%
X166038000Y-141770000D02*
X162980000Y-141770000D01*
X161020000Y-142891000D02*
X158211000Y-142891000D01*
X165971000Y-142251000D02*
X162980000Y-142251000D01*
X164557000Y-144611000D02*
X159443000Y-144611000D01*
X161020000Y-142291000D02*
X158037000Y-142291000D01*
X165987000Y-142171000D02*
X162980000Y-142171000D01*
X161020000Y-143371000D02*
X158428000Y-143371000D01*
X161020000Y-143331000D02*
X158407000Y-143331000D01*
X161020000Y-143491000D02*
X158495000Y-143491000D01*
X163127000Y-145371000D02*
X160873000Y-145371000D01*
X165301000Y-143811000D02*
X158699000Y-143811000D01*
X162650000Y-138600000D02*
X161350000Y-138600000D01*
X161020000Y-142771000D02*
X158168000Y-142771000D01*
X164457000Y-144691000D02*
X159543000Y-144691000D01*
X165946000Y-142371000D02*
X162980000Y-142371000D01*
X164173000Y-144891000D02*
X159827000Y-144891000D01*
X163660000Y-145171000D02*
X160340000Y-145171000D01*
X165858000Y-142691000D02*
X162980000Y-142691000D01*
X161020000Y-142611000D02*
X158117000Y-142611000D01*
X165528000Y-143451000D02*
X162980000Y-143451000D01*
X164979000Y-144211000D02*
X159021000Y-144211000D01*
X166047000Y-141610000D02*
X157953000Y-141610000D01*
X161020000Y-143651000D02*
X158592000Y-143651000D01*
X166050000Y-141450000D02*
X157950000Y-141450000D01*
X165979000Y-142211000D02*
X162980000Y-142211000D01*
X164824000Y-144371000D02*
X159176000Y-144371000D01*
X161020000Y-142931000D02*
X158227000Y-142931000D01*
X165690000Y-143131000D02*
X162980000Y-143131000D01*
X166031000Y-141850000D02*
X162980000Y-141850000D01*
X164652000Y-144531000D02*
X159348000Y-144531000D01*
X166022000Y-141930000D02*
X162980000Y-141930000D01*
X161020000Y-143291000D02*
X158387000Y-143291000D01*
X161020000Y-142050000D02*
X157994000Y-142050000D01*
X163826000Y-145091000D02*
X160174000Y-145091000D01*
X161020000Y-143211000D02*
X158348000Y-143211000D01*
X165505000Y-143491000D02*
X162980000Y-143491000D01*
X165883000Y-142611000D02*
X162980000Y-142611000D01*
X161020000Y-143131000D02*
X158310000Y-143131000D01*
X165613000Y-143291000D02*
X162980000Y-143291000D01*
X164865000Y-144331000D02*
X159135000Y-144331000D01*
X161020000Y-143531000D02*
X158518000Y-143531000D01*
X164783000Y-144411000D02*
X159217000Y-144411000D01*
X161020000Y-141850000D02*
X157969000Y-141850000D01*
X162814000Y-145451000D02*
X161186000Y-145451000D01*
X163254000Y-145331000D02*
X160746000Y-145331000D01*
X164508000Y-144651000D02*
X159492000Y-144651000D01*
X161020000Y-142811000D02*
X158182000Y-142811000D01*
X161020000Y-142531000D02*
X158095000Y-142531000D01*
X164043000Y-144971000D02*
X159957000Y-144971000D01*
X166049000Y-141570000D02*
X157951000Y-141570000D01*
X161020000Y-141970000D02*
X157983000Y-141970000D01*
X165550000Y-143411000D02*
X162980000Y-143411000D01*
X165955000Y-142331000D02*
X162980000Y-142331000D01*
X165243000Y-143891000D02*
X158757000Y-143891000D01*
X164740000Y-144451000D02*
X159260000Y-144451000D01*
X161020000Y-142451000D02*
X158074000Y-142451000D01*
X164234000Y-144851000D02*
X159766000Y-144851000D01*
X165356000Y-143731000D02*
X158644000Y-143731000D01*
X161020000Y-142171000D02*
X158013000Y-142171000D01*
X165593000Y-143331000D02*
X162980000Y-143331000D01*
X166000000Y-142090000D02*
X162980000Y-142090000D01*
X161020000Y-141770000D02*
X157962000Y-141770000D01*
X166050000Y-141530000D02*
X157950000Y-141530000D01*
X166043000Y-141690000D02*
X157957000Y-141690000D01*
X161020000Y-143571000D02*
X158542000Y-143571000D01*
X165150000Y-144011000D02*
X158850000Y-144011000D01*
X164605000Y-144571000D02*
X159395000Y-144571000D01*
X164109000Y-144931000D02*
X159891000Y-144931000D01*
X161020000Y-142010000D02*
X157988000Y-142010000D01*
X161020000Y-142251000D02*
X158029000Y-142251000D01*
X165050000Y-144131000D02*
X158950000Y-144131000D01*
X166041000Y-141730000D02*
X162980000Y-141730000D01*
X161020000Y-143051000D02*
X158275000Y-143051000D01*
X161020000Y-143171000D02*
X158329000Y-143171000D01*
X165652000Y-143211000D02*
X162980000Y-143211000D01*
X161020000Y-142851000D02*
X158197000Y-142851000D01*
X164404000Y-144731000D02*
X159596000Y-144731000D01*
X165994000Y-142130000D02*
X162980000Y-142130000D01*
X161020000Y-142571000D02*
X158106000Y-142571000D01*
X164293000Y-144811000D02*
X159707000Y-144811000D01*
X161020000Y-141930000D02*
X157978000Y-141930000D01*
X161020000Y-142411000D02*
X158064000Y-142411000D01*
X161020000Y-142731000D02*
X158155000Y-142731000D01*
X163473000Y-145251000D02*
X160527000Y-145251000D01*
X165084000Y-144091000D02*
X158916000Y-144091000D01*
X165758000Y-142971000D02*
X162980000Y-142971000D01*
X164904000Y-144291000D02*
X159096000Y-144291000D01*
X165916000Y-142491000D02*
X162980000Y-142491000D01*
X165408000Y-143651000D02*
X162980000Y-143651000D01*
X161020000Y-143411000D02*
X158450000Y-143411000D01*
X165272000Y-143851000D02*
X158728000Y-143851000D01*
X166035000Y-141810000D02*
X162980000Y-141810000D01*
X162598000Y-145491000D02*
X161402000Y-145491000D01*
X161020000Y-142691000D02*
X158142000Y-142691000D01*
X165725000Y-143051000D02*
X162980000Y-143051000D01*
X165329000Y-143771000D02*
X158671000Y-143771000D01*
X166050000Y-141490000D02*
X157950000Y-141490000D01*
X165118000Y-144051000D02*
X158882000Y-144051000D01*
X165213000Y-143931000D02*
X158787000Y-143931000D01*
X161020000Y-143091000D02*
X158293000Y-143091000D01*
X165905000Y-142531000D02*
X162980000Y-142531000D01*
X161020000Y-142491000D02*
X158084000Y-142491000D01*
X161020000Y-143451000D02*
X158472000Y-143451000D01*
X162246000Y-145531000D02*
X161754000Y-145531000D01*
X165818000Y-142811000D02*
X162980000Y-142811000D01*
X165832000Y-142771000D02*
X162980000Y-142771000D01*
X163570000Y-145211000D02*
X160430000Y-145211000D01*
X165845000Y-142731000D02*
X162980000Y-142731000D01*
X161020000Y-142971000D02*
X158242000Y-142971000D01*
X165434000Y-143611000D02*
X162980000Y-143611000D01*
X162983000Y-145411000D02*
X161017000Y-145411000D01*
X164697000Y-144491000D02*
X159303000Y-144491000D01*
X161020000Y-142651000D02*
X158130000Y-142651000D01*
X163369000Y-145291000D02*
X160631000Y-145291000D01*
X163745000Y-145131000D02*
X160255000Y-145131000D01*
X166017000Y-141970000D02*
X162980000Y-141970000D01*
X161020000Y-142371000D02*
X158054000Y-142371000D01*
X166046000Y-141650000D02*
X157954000Y-141650000D01*
X165383000Y-143691000D02*
X158617000Y-143691000D01*
X161020000Y-143251000D02*
X158367000Y-143251000D01*
X161020000Y-141810000D02*
X157965000Y-141810000D01*
X161020000Y-142331000D02*
X158045000Y-142331000D01*
X165926000Y-142451000D02*
X162980000Y-142451000D01*
X165870000Y-142651000D02*
X162980000Y-142651000D01*
X162000000Y-138000000D02*
X162000000Y-139200000D01*
X165936000Y-142411000D02*
X162980000Y-142411000D01*
X163902000Y-145051000D02*
X160098000Y-145051000D01*
X165458000Y-143571000D02*
X162980000Y-143571000D01*
X161020000Y-142090000D02*
X158000000Y-142090000D01*
X161020000Y-141730000D02*
X157959000Y-141730000D01*
X165572000Y-143371000D02*
X162980000Y-143371000D01*
X165482000Y-143531000D02*
X162980000Y-143531000D01*
X165963000Y-142291000D02*
X162980000Y-142291000D01*
X161020000Y-142211000D02*
X158021000Y-142211000D01*
X166006000Y-142050000D02*
X162980000Y-142050000D01*
X161020000Y-142130000D02*
X158006000Y-142130000D01*
X164942000Y-144251000D02*
X159058000Y-144251000D01*
X161020000Y-141890000D02*
X157973000Y-141890000D01*
X165789000Y-142891000D02*
X162980000Y-142891000D01*
X165707000Y-143091000D02*
X162980000Y-143091000D01*
X165773000Y-142931000D02*
X162980000Y-142931000D01*
X165633000Y-143251000D02*
X162980000Y-143251000D01*
X161020000Y-143011000D02*
X158259000Y-143011000D01*
X165671000Y-143171000D02*
X162980000Y-143171000D01*
X165741000Y-143011000D02*
X162980000Y-143011000D01*
X161020000Y-143611000D02*
X158566000Y-143611000D01*
X164349000Y-144771000D02*
X159651000Y-144771000D01*
X165803000Y-142851000D02*
X162980000Y-142851000D01*
X166027000Y-141890000D02*
X162980000Y-141890000D01*
X163974000Y-145011000D02*
X160026000Y-145011000D01*
X165015000Y-144171000D02*
X158985000Y-144171000D01*
X165182000Y-143971000D02*
X158818000Y-143971000D01*
X166012000Y-142010000D02*
X162980000Y-142010000D01*
X165894000Y-142571000D02*
X162980000Y-142571000D01*
X166090000Y-141450000D02*
G75*
G03*
X166090000Y-141450000I-4090000J0D01*
G01*
D10*
%TO.C,D1*%
X124000000Y-138770000D02*
X121000000Y-138770000D01*
X124024904Y-138754888D02*
G75*
G03*
X121000000Y-138770000I-1524904J2484888D01*
G01*
X125017936Y-136270000D02*
G75*
G03*
X125017936Y-136270000I-2517936J0D01*
G01*
%TO.C,R1*%
X156743400Y-141300200D02*
X154203400Y-141300200D01*
X154203400Y-141300200D02*
X154203400Y-136220200D01*
X156743400Y-136220200D02*
X156743400Y-141300200D01*
X154203400Y-136220200D02*
X156743400Y-136220200D01*
%TO.C,R3*%
X129730000Y-136290000D02*
X132270000Y-136290000D01*
X129730000Y-141370000D02*
X129730000Y-136290000D01*
X132270000Y-136290000D02*
X132270000Y-141370000D01*
X132270000Y-141370000D02*
X129730000Y-141370000D01*
%TO.C,R2*%
X129020000Y-141350000D02*
X126480000Y-141350000D01*
X126480000Y-136270000D02*
X129020000Y-136270000D01*
X126480000Y-141350000D02*
X126480000Y-136270000D01*
X129020000Y-136270000D02*
X129020000Y-141350000D01*
%TO.C,C1*%
X167050000Y-133250000D02*
X167050000Y-136750000D01*
X160050000Y-136750000D02*
X160050000Y-133250000D01*
X167050000Y-136750000D02*
X160050000Y-136750000D01*
X160050000Y-133250000D02*
X167050000Y-133250000D01*
D11*
%TO.C,J1*%
X152010000Y-113390000D02*
X155440000Y-113390000D01*
X155440000Y-131680000D02*
X152010000Y-131680000D01*
X146640000Y-131680000D02*
X149090000Y-131680000D01*
X170250000Y-116690000D02*
X167250000Y-116690000D01*
X170250000Y-116690000D02*
X170250000Y-128390000D01*
X170250000Y-128390000D02*
X167250000Y-128390000D01*
X164700000Y-113390000D02*
X167250000Y-113390000D01*
X158360000Y-113390000D02*
X161790000Y-113390000D01*
X161790000Y-131680000D02*
X158360000Y-131680000D01*
X167250000Y-113390000D02*
X167250000Y-131680000D01*
X167250000Y-131680000D02*
X164700000Y-131680000D01*
X146640000Y-113390000D02*
X146640000Y-131680000D01*
X143370000Y-118280000D02*
X143370000Y-126760000D01*
X146640000Y-113390000D02*
X149090000Y-113390000D01*
X146610000Y-118280000D02*
X143390000Y-118280000D01*
X146610000Y-126790000D02*
X143390000Y-126790000D01*
%TO.C,FXC4*%
X137689600Y-93699000D02*
X142929600Y-93699000D01*
X137689600Y-90959000D02*
X137689600Y-91274000D01*
X137689600Y-90959000D02*
X142929600Y-90959000D01*
X142929600Y-93384000D02*
X142929600Y-93699000D01*
X142929600Y-90959000D02*
X142929600Y-91274000D01*
X137689600Y-93384000D02*
X137689600Y-93699000D01*
%TO.C,FXC1*%
X145315000Y-109187600D02*
X145630000Y-109187600D01*
X148055000Y-109187600D02*
X148055000Y-103947600D01*
X147740000Y-103947600D02*
X148055000Y-103947600D01*
X145315000Y-109187600D02*
X145315000Y-103947600D01*
X147740000Y-109187600D02*
X148055000Y-109187600D01*
X145315000Y-103947600D02*
X145630000Y-103947600D01*
%TO.C,FXR2*%
X136557000Y-103455600D02*
X136557000Y-103125600D01*
X143097000Y-105865600D02*
X143097000Y-105535600D01*
X136557000Y-105535600D02*
X136557000Y-105865600D01*
X136557000Y-103125600D02*
X143097000Y-103125600D01*
X136557000Y-105865600D02*
X143097000Y-105865600D01*
X143097000Y-103125600D02*
X143097000Y-103455600D01*
%TO.C,RV2*%
X143593800Y-70069600D02*
X139223800Y-70069600D01*
X150813800Y-81009600D02*
X150813800Y-70069600D01*
X143593800Y-81009600D02*
X139223800Y-81009600D01*
X139223800Y-71889600D02*
X139223800Y-70069600D01*
X139223800Y-81009600D02*
X139223800Y-79189600D01*
X150813800Y-70069600D02*
X148093800Y-70069600D01*
X150813800Y-81009600D02*
X148093800Y-81009600D01*
%TO.C,TP1*%
X138348800Y-81711800D02*
G75*
G03*
X138348800Y-81711800I-1900000J0D01*
G01*
%TO.C,FXC2*%
X134491400Y-74741400D02*
X134491400Y-69501400D01*
X131751400Y-74741400D02*
X131751400Y-69501400D01*
X134176400Y-74741400D02*
X134491400Y-74741400D01*
X131751400Y-74741400D02*
X132066400Y-74741400D01*
X134176400Y-69501400D02*
X134491400Y-69501400D01*
X131751400Y-69501400D02*
X132066400Y-69501400D01*
%TO.C,FXC3*%
X148100200Y-89441406D02*
X142374200Y-89441406D01*
X147118200Y-90241406D02*
X143356200Y-90241406D01*
X144197200Y-87280406D02*
X141427200Y-87280406D01*
X148409200Y-89041406D02*
X146277200Y-89041406D01*
X147251200Y-90161406D02*
X143223200Y-90161406D01*
X147592200Y-89921406D02*
X142882200Y-89921406D01*
X147314200Y-90121406D02*
X143160200Y-90121406D01*
X148580200Y-88761406D02*
X146277200Y-88761406D01*
X148925200Y-87921406D02*
X146277200Y-87921406D01*
X149051200Y-87240406D02*
X146277200Y-87240406D01*
X148773200Y-88361406D02*
X146277200Y-88361406D01*
X144197200Y-88481406D02*
X141753200Y-88481406D01*
X144197200Y-88641406D02*
X141830200Y-88641406D01*
X144197200Y-87360406D02*
X141436200Y-87360406D01*
X148966200Y-87761406D02*
X146277200Y-87761406D01*
X148486200Y-88921406D02*
X146277200Y-88921406D01*
X144197200Y-87921406D02*
X141549200Y-87921406D01*
X148623200Y-88681406D02*
X146277200Y-88681406D01*
X144197200Y-88001406D02*
X141572200Y-88001406D01*
X147910200Y-89641406D02*
X142564200Y-89641406D01*
X144197200Y-88961406D02*
X142013200Y-88961406D01*
X147487200Y-90001406D02*
X142987200Y-90001406D01*
X144197200Y-87200406D02*
X141420200Y-87200406D01*
X144197200Y-88561406D02*
X141790200Y-88561406D01*
X144197200Y-88401406D02*
X141717200Y-88401406D01*
X148703200Y-88521406D02*
X146277200Y-88521406D01*
X144197200Y-87641406D02*
X141482200Y-87641406D01*
X148821200Y-88241406D02*
X146277200Y-88241406D01*
X148295200Y-89201406D02*
X142179200Y-89201406D01*
X144197200Y-87440406D02*
X141447200Y-87440406D01*
X148558200Y-88801406D02*
X146277200Y-88801406D01*
X148353200Y-89121406D02*
X146277200Y-89121406D01*
X148064200Y-89481406D02*
X142410200Y-89481406D01*
X144197200Y-88841406D02*
X141940200Y-88841406D01*
X149066200Y-87000406D02*
X141408200Y-87000406D01*
X149054200Y-87200406D02*
X146277200Y-87200406D01*
X148984200Y-87681406D02*
X146277200Y-87681406D01*
X149007200Y-87560406D02*
X146277200Y-87560406D01*
X144197200Y-88441406D02*
X141735200Y-88441406D01*
X147783200Y-89761406D02*
X142691200Y-89761406D01*
X148168200Y-89361406D02*
X142306200Y-89361406D01*
X148265200Y-89241406D02*
X142209200Y-89241406D01*
X147374200Y-90081406D02*
X143100200Y-90081406D01*
X147541200Y-89961406D02*
X142933200Y-89961406D01*
X146114200Y-90641406D02*
X144360200Y-90641406D01*
X148936200Y-87881406D02*
X146277200Y-87881406D01*
X144197200Y-87480406D02*
X141453200Y-87480406D01*
X147737200Y-89801406D02*
X142737200Y-89801406D01*
X149057200Y-87160406D02*
X146277200Y-87160406D01*
X148890200Y-88041406D02*
X146277200Y-88041406D01*
X144197200Y-87881406D02*
X141538200Y-87881406D01*
X148835200Y-88201406D02*
X146277200Y-88201406D01*
X149038200Y-87360406D02*
X146277200Y-87360406D01*
X144197200Y-88081406D02*
X141597200Y-88081406D01*
X144197200Y-87721406D02*
X141499200Y-87721406D01*
X148664200Y-88601406D02*
X146277200Y-88601406D01*
X147412200Y-82738195D02*
X147412200Y-83488195D01*
X148914200Y-87961406D02*
X146277200Y-87961406D01*
X148957200Y-87801406D02*
X146277200Y-87801406D01*
X144197200Y-87560406D02*
X141467200Y-87560406D01*
X144197200Y-89001406D02*
X142039200Y-89001406D01*
X147432200Y-90041406D02*
X143042200Y-90041406D01*
X144197200Y-88161406D02*
X141624200Y-88161406D01*
X148201200Y-89321406D02*
X142273200Y-89321406D01*
X148644200Y-88641406D02*
X146277200Y-88641406D01*
X144197200Y-87841406D02*
X141527200Y-87841406D01*
X148435200Y-89001406D02*
X146277200Y-89001406D01*
X148863200Y-88121406D02*
X146277200Y-88121406D01*
X148757200Y-88401406D02*
X146277200Y-88401406D01*
X147989200Y-89561406D02*
X142485200Y-89561406D01*
X148790200Y-88321406D02*
X146277200Y-88321406D01*
X148902200Y-88001406D02*
X146277200Y-88001406D01*
X144197200Y-88361406D02*
X141701200Y-88361406D01*
X145930200Y-90681406D02*
X144544200Y-90681406D01*
X144197200Y-87240406D02*
X141423200Y-87240406D01*
X144197200Y-87320406D02*
X141432200Y-87320406D01*
X144197200Y-87601406D02*
X141474200Y-87601406D01*
X146891200Y-90361406D02*
X143583200Y-90361406D01*
X149014200Y-87520406D02*
X146277200Y-87520406D01*
X149062200Y-87080406D02*
X141412200Y-87080406D01*
X148602200Y-88721406D02*
X146277200Y-88721406D01*
X146618200Y-90481406D02*
X143856200Y-90481406D01*
X144197200Y-88761406D02*
X141894200Y-88761406D01*
X144197200Y-89081406D02*
X142093200Y-89081406D01*
X144197200Y-88241406D02*
X141653200Y-88241406D01*
X149064200Y-87040406D02*
X141410200Y-87040406D01*
X146512200Y-90521406D02*
X143962200Y-90521406D01*
X149067200Y-86880406D02*
X141407200Y-86880406D01*
X149067200Y-86960406D02*
X141407200Y-86960406D01*
X144197200Y-88881406D02*
X141963200Y-88881406D01*
X148947200Y-87841406D02*
X146277200Y-87841406D01*
X146265200Y-90601406D02*
X144209200Y-90601406D01*
X149067200Y-86920406D02*
X141407200Y-86920406D01*
X147642200Y-89881406D02*
X142832200Y-89881406D01*
X149021200Y-87480406D02*
X146277200Y-87480406D01*
X149047200Y-87280406D02*
X146277200Y-87280406D01*
X144197200Y-87520406D02*
X141460200Y-87520406D01*
X144197200Y-88681406D02*
X141851200Y-88681406D01*
X148739200Y-88441406D02*
X146277200Y-88441406D01*
X147787200Y-83113195D02*
X147037200Y-83113195D01*
X144197200Y-88321406D02*
X141684200Y-88321406D01*
X149032200Y-87400406D02*
X146277200Y-87400406D01*
X144197200Y-87801406D02*
X141517200Y-87801406D01*
X144197200Y-87120406D02*
X141414200Y-87120406D01*
X146395200Y-90561406D02*
X144079200Y-90561406D01*
X148027200Y-89521406D02*
X142447200Y-89521406D01*
X147826200Y-89721406D02*
X142648200Y-89721406D01*
X144197200Y-87681406D02*
X141490200Y-87681406D01*
X148461200Y-88961406D02*
X146277200Y-88961406D01*
X147046200Y-90281406D02*
X143428200Y-90281406D01*
X144197200Y-87761406D02*
X141508200Y-87761406D01*
X144197200Y-89041406D02*
X142065200Y-89041406D01*
X149042200Y-87320406D02*
X146277200Y-87320406D01*
X148534200Y-88841406D02*
X146277200Y-88841406D01*
X144197200Y-88201406D02*
X141639200Y-88201406D01*
X146970200Y-90321406D02*
X143504200Y-90321406D01*
X148684200Y-88561406D02*
X146277200Y-88561406D01*
X148877200Y-88081406D02*
X146277200Y-88081406D01*
X149060200Y-87120406D02*
X146277200Y-87120406D01*
X148325200Y-89161406D02*
X146277200Y-89161406D01*
X149027200Y-87440406D02*
X146277200Y-87440406D01*
X144197200Y-87160406D02*
X141417200Y-87160406D01*
X144197200Y-87400406D02*
X141442200Y-87400406D01*
X144197200Y-88121406D02*
X141611200Y-88121406D01*
X146806200Y-90401406D02*
X143668200Y-90401406D01*
X144197200Y-88041406D02*
X141584200Y-88041406D01*
X147691200Y-89841406D02*
X142783200Y-89841406D01*
X144197200Y-88921406D02*
X141988200Y-88921406D01*
X144197200Y-89161406D02*
X142149200Y-89161406D01*
X147869200Y-89681406D02*
X142605200Y-89681406D01*
X148721200Y-88481406D02*
X146277200Y-88481406D01*
X149000200Y-87601406D02*
X146277200Y-87601406D01*
X148992200Y-87641406D02*
X146277200Y-87641406D01*
X144197200Y-88721406D02*
X141872200Y-88721406D01*
X148850200Y-88161406D02*
X146277200Y-88161406D01*
X147950200Y-89601406D02*
X142524200Y-89601406D01*
X144197200Y-87961406D02*
X141560200Y-87961406D01*
X148975200Y-87721406D02*
X146277200Y-87721406D01*
X144197200Y-88601406D02*
X141810200Y-88601406D01*
X148511200Y-88881406D02*
X146277200Y-88881406D01*
X145678200Y-90721406D02*
X144796200Y-90721406D01*
X148805200Y-88281406D02*
X146277200Y-88281406D01*
X147186200Y-90201406D02*
X143288200Y-90201406D01*
X144197200Y-88281406D02*
X141669200Y-88281406D01*
X148381200Y-89081406D02*
X146277200Y-89081406D01*
X148233200Y-89281406D02*
X142241200Y-89281406D01*
X144197200Y-89121406D02*
X142121200Y-89121406D01*
X144197200Y-88801406D02*
X141916200Y-88801406D01*
X148135200Y-89401406D02*
X142339200Y-89401406D01*
X144197200Y-88521406D02*
X141771200Y-88521406D01*
X146715200Y-90441406D02*
X143759200Y-90441406D01*
X149107200Y-86880406D02*
G75*
G03*
X149107200Y-86880406I-3870000J0D01*
G01*
%TO.C,D2*%
X151286800Y-102204200D02*
X154376800Y-102204200D01*
X154376630Y-102204200D02*
G75*
G03*
X152831338Y-96654200I-1544830J2560000D01*
G01*
X152832262Y-96654200D02*
G75*
G03*
X151286970Y-102204200I-462J-2990000D01*
G01*
X155331800Y-99644200D02*
G75*
G03*
X155331800Y-99644200I-2500000J0D01*
G01*
%TO.C,FXR7*%
X155170000Y-84842600D02*
X154840000Y-84842600D01*
X157250000Y-84842600D02*
X157580000Y-84842600D01*
X154840000Y-91382600D02*
X155170000Y-91382600D01*
X157580000Y-84842600D02*
X157580000Y-91382600D01*
X154840000Y-84842600D02*
X154840000Y-91382600D01*
X157580000Y-91382600D02*
X157250000Y-91382600D01*
%TO.C,Q2*%
X138418600Y-85295000D02*
X134568600Y-85295000D01*
X134568600Y-85295000D02*
G75*
G03*
X134176217Y-85882736I1909979J-1699985D01*
G01*
X138801231Y-85872955D02*
G75*
G03*
X138418600Y-85295000I-2322647J-1122056D01*
G01*
X136478600Y-89595000D02*
G75*
G03*
X138835000Y-88093807I-2J2600002D01*
G01*
X134122200Y-88093807D02*
G75*
G03*
X136478600Y-89595000I2356399J1098804D01*
G01*
%TO.C,FXC5*%
X160354000Y-71286000D02*
X160354000Y-71601000D01*
X155114000Y-71286000D02*
X155114000Y-71601000D01*
X155114000Y-68861000D02*
X160354000Y-68861000D01*
X155114000Y-68861000D02*
X155114000Y-69176000D01*
X160354000Y-68861000D02*
X160354000Y-69176000D01*
X155114000Y-71601000D02*
X160354000Y-71601000D01*
%TO.C,FXR4*%
X145878800Y-93600600D02*
X152418800Y-93600600D01*
X152418800Y-93600600D02*
X152418800Y-93930600D01*
X145878800Y-96010600D02*
X145878800Y-96340600D01*
X145878800Y-93930600D02*
X145878800Y-93600600D01*
X145878800Y-96340600D02*
X152418800Y-96340600D01*
X152418800Y-96340600D02*
X152418800Y-96010600D01*
%TO.C,FXR1*%
X149866600Y-105891000D02*
X149866600Y-105561000D01*
X156406600Y-103481000D02*
X156406600Y-103151000D01*
X156406600Y-105561000D02*
X156406600Y-105891000D01*
X156406600Y-103151000D02*
X149866600Y-103151000D01*
X149866600Y-103151000D02*
X149866600Y-103481000D01*
X156406600Y-105891000D02*
X149866600Y-105891000D01*
%TO.C,FXR3*%
X136430000Y-109193000D02*
X142970000Y-109193000D01*
X136430000Y-106453000D02*
X142970000Y-106453000D01*
X136430000Y-108863000D02*
X136430000Y-109193000D01*
X142970000Y-106453000D02*
X142970000Y-106783000D01*
X142970000Y-109193000D02*
X142970000Y-108863000D01*
X136430000Y-106783000D02*
X136430000Y-106453000D01*
%TO.C,RV3*%
X162779400Y-66231600D02*
X162779400Y-62294600D01*
X152738400Y-57927600D02*
X152738400Y-53991600D01*
X158630400Y-66231600D02*
X159389400Y-66231600D01*
X152738400Y-66231600D02*
X154388400Y-66231600D01*
X162779400Y-57927600D02*
X162779400Y-53991600D01*
X152738400Y-66231600D02*
X152738400Y-62294600D01*
X152738400Y-53991600D02*
X162779400Y-53991600D01*
X156130400Y-66231600D02*
X156889400Y-66231600D01*
X161129400Y-66231600D02*
X162779400Y-66231600D01*
%TO.C,RV1*%
X121013800Y-53991600D02*
X131054800Y-53991600D01*
X121013800Y-66231600D02*
X122663800Y-66231600D01*
X126905800Y-66231600D02*
X127664800Y-66231600D01*
X131054800Y-66231600D02*
X131054800Y-62294600D01*
X131054800Y-57927600D02*
X131054800Y-53991600D01*
X121013800Y-57927600D02*
X121013800Y-53991600D01*
X124405800Y-66231600D02*
X125164800Y-66231600D01*
X121013800Y-66231600D02*
X121013800Y-62294600D01*
X129404800Y-66231600D02*
X131054800Y-66231600D01*
%TO.C,FXR6*%
X154252600Y-87115400D02*
X154252600Y-80575400D01*
X154252600Y-80575400D02*
X153922600Y-80575400D01*
X151512600Y-87115400D02*
X151512600Y-80575400D01*
X151512600Y-80575400D02*
X151842600Y-80575400D01*
X153922600Y-87115400D02*
X154252600Y-87115400D01*
X151842600Y-87115400D02*
X151512600Y-87115400D01*
%TO.C,FXR5*%
X129304800Y-71194800D02*
X129304800Y-71524800D01*
X122764800Y-71524800D02*
X122764800Y-71194800D01*
X129304800Y-68784800D02*
X122764800Y-68784800D01*
X129304800Y-71524800D02*
X122764800Y-71524800D01*
X129304800Y-69114800D02*
X129304800Y-68784800D01*
X122764800Y-68784800D02*
X122764800Y-69114800D01*
%TO.C,Q1*%
X144834200Y-102713400D02*
X148434200Y-102713400D01*
X148472678Y-102701878D02*
G75*
G03*
X146634200Y-98263400I-1838478J1838478D01*
G01*
X146634200Y-98263399D02*
G75*
G03*
X144795722Y-102701878I0J-2600001D01*
G01*
%TD*%
D12*
%TO.C,SW1*%
X148550000Y-137825000D03*
D13*
X143250000Y-137825000D03*
X137950000Y-137825000D03*
X148550000Y-142525000D03*
X143250000Y-142550000D03*
X137950000Y-142525000D03*
X148550000Y-147225000D03*
X143250000Y-147225000D03*
X137950000Y-147225000D03*
%TD*%
D14*
%TO.C,D1*%
X122500000Y-137540000D03*
D15*
X122500000Y-135000000D03*
%TD*%
D16*
%TO.C,R1*%
X155473400Y-142570200D03*
X155473400Y-134950200D03*
%TD*%
%TO.C,R3*%
X131000000Y-135020000D03*
X131000000Y-142640000D03*
%TD*%
%TO.C,R2*%
X127750000Y-142620000D03*
X127750000Y-135000000D03*
%TD*%
D17*
%TO.C,C1*%
X161050000Y-135000000D03*
D18*
X166050000Y-135000000D03*
%TD*%
M02*
