M48
; DRILL file {KiCad 6.0.0-d3dd2cf0fa~116~ubuntu20.04.1} date Mon 03 Jan 2022 11:44:46 GMT
; FORMAT={-:-/ absolute / inch / decimal}
; #@! TF.CreationDate,2022-01-03T11:44:46+00:00
; #@! TF.GenerationSoftware,Kicad,Pcbnew,6.0.0-d3dd2cf0fa~116~ubuntu20.04.1
; #@! TF.FileFunction,Plated,1,2,PTH
FMAT,2
INCH
; #@! TA.AperFunction,Plated,PTH,ViaDrill
T1C0.0157
; #@! TA.AperFunction,Plated,PTH,ComponentDrill
T2C0.0295
; #@! TA.AperFunction,Plated,PTH,ComponentDrill
T3C0.0315
; #@! TA.AperFunction,Plated,PTH,ComponentDrill
T4C0.0354
; #@! TA.AperFunction,Plated,PTH,ComponentDrill
T5C0.0394
; #@! TA.AperFunction,Plated,PTH,ComponentDrill
T6C0.0394
; #@! TA.AperFunction,Plated,PTH,ComponentDrill
T7C0.0591
; #@! TA.AperFunction,Plated,PTH,ComponentDrill
T8C0.0728
; #@! TA.AperFunction,Plated,PTH,ComponentDrill
T9C0.0787
%
G90
G05
T1
X5.537Y-4.871
X6.065Y-4.798
T2
X5.723Y-3.971
X5.773Y-3.971
X5.823Y-3.971
T3
X4.812Y-2.762
X5.112Y-2.762
X5.241Y-2.741
X5.241Y-2.9379
X5.2732Y-3.425
X5.35Y-4.245
X5.355Y-4.114
X5.3732Y-3.425
X5.4256Y-3.635
X5.4732Y-3.425
X5.6224Y-3.635
X5.65Y-4.245
X5.655Y-4.114
X5.718Y-3.3713
X5.718Y-3.4697
X5.722Y-3.739
X5.775Y-4.0971
X5.775Y-4.294
X5.879Y-4.115
X6.019Y-3.151
X6.019Y-3.451
X6.022Y-3.739
X6.1116Y-2.765
X6.15Y-3.319
X6.15Y-3.619
X6.179Y-4.115
X6.3084Y-2.765
X6.3406Y-5.315
X6.378Y-5.5197
X6.378Y-5.6181
X6.5374Y-5.315
T4
X6.017Y-3.873
X6.017Y-3.973
T5
X4.8636Y-2.6422
X4.962Y-2.6422
X5.0604Y-2.6422
X5.4466Y-2.8756
X5.4466Y-2.974
X5.4466Y-3.0724
X5.5768Y-2.5315
X5.6768Y-2.5315
X6.1126Y-2.6422
X6.211Y-2.6422
X6.3094Y-2.6422
T6
X4.8228Y-5.315
X4.8228Y-5.415
X5.0295Y-5.315
X5.0295Y-5.615
X5.1575Y-5.3157
X5.1575Y-5.6157
X6.121Y-5.313
X6.121Y-5.613
T7
X4.813Y-4.5079
X4.813Y-5.1469
X5.063Y-4.5079
X5.063Y-5.1469
X5.313Y-4.5079
X5.313Y-5.1469
X5.9272Y-4.5091
X5.9272Y-5.148
X6.1772Y-4.5091
X6.1772Y-5.148
X6.4272Y-4.5091
X6.4272Y-5.148
T8
X5.372Y-3.217
T9
X5.7419Y-2.787
X5.7419Y-3.161
T5
G00X5.4528Y-5.4262
M15
G01X5.4094Y-5.4262
M16
G05
G00X5.4528Y-5.6112
M15
G01X5.4094Y-5.6112
M16
G05
G00X5.4528Y-5.7963
M15
G01X5.4094Y-5.7963
M16
G05
G00X5.6614Y-5.4262
M15
G01X5.6181Y-5.4262
M16
G05
G00X5.6614Y-5.6122
M15
G01X5.6181Y-5.6122
M16
G05
G00X5.6614Y-5.7963
M15
G01X5.6181Y-5.7963
M16
G05
G00X5.8701Y-5.4262
M15
G01X5.8268Y-5.4262
M16
G05
G00X5.8701Y-5.6112
M15
G01X5.8268Y-5.6112
M16
G05
G00X5.8701Y-5.7963
M15
G01X5.8268Y-5.7963
M16
G05
T0
M30
