%TF.GenerationSoftware,KiCad,Pcbnew,7.0.11-7.0.11~ubuntu22.04.1*%
%TF.CreationDate,2024-12-17T10:18:29+00:00*%
%TF.ProjectId,slo-tht,736c6f2d-7468-4742-9e6b-696361645f70,rev?*%
%TF.SameCoordinates,Original*%
%TF.FileFunction,Soldermask,Top*%
%TF.FilePolarity,Negative*%
%FSLAX46Y46*%
G04 Gerber Fmt 4.6, Leading zero omitted, Abs format (unit mm)*
G04 Created by KiCad (PCBNEW 7.0.11-7.0.11~ubuntu22.04.1) date 2024-12-17 10:18:29*
%MOMM*%
%LPD*%
G01*
G04 APERTURE LIST*
G04 Aperture macros list*
%AMRoundRect*
0 Rectangle with rounded corners*
0 $1 Rounding radius*
0 $2 $3 $4 $5 $6 $7 $8 $9 X,Y pos of 4 corners*
0 Add a 4 corners polygon primitive as box body*
4,1,4,$2,$3,$4,$5,$6,$7,$8,$9,$2,$3,0*
0 Add four circle primitives for the rounded corners*
1,1,$1+$1,$2,$3*
1,1,$1+$1,$4,$5*
1,1,$1+$1,$6,$7*
1,1,$1+$1,$8,$9*
0 Add four rect primitives between the rounded corners*
20,1,$1+$1,$2,$3,$4,$5,0*
20,1,$1+$1,$4,$5,$6,$7,0*
20,1,$1+$1,$6,$7,$8,$9,0*
20,1,$1+$1,$8,$9,$2,$3,0*%
G04 Aperture macros list end*
%ADD10C,1.800000*%
%ADD11O,1.800000X1.800000*%
%ADD12RoundRect,0.200000X-0.800000X0.800000X-0.800000X-0.800000X0.800000X-0.800000X0.800000X0.800000X0*%
%ADD13C,2.000000*%
%ADD14O,1.900000X1.900000*%
%ADD15RoundRect,0.200000X0.750000X0.750000X-0.750000X0.750000X-0.750000X-0.750000X0.750000X-0.750000X0*%
%ADD16RoundRect,0.200000X0.800000X-0.800000X0.800000X0.800000X-0.800000X0.800000X-0.800000X-0.800000X0*%
%ADD17RoundRect,0.200000X-0.750000X-0.750000X0.750000X-0.750000X0.750000X0.750000X-0.750000X0.750000X0*%
%ADD18RoundRect,0.200000X-0.800000X-0.800000X0.800000X-0.800000X0.800000X0.800000X-0.800000X0.800000X0*%
%ADD19O,2.000000X2.000000*%
%ADD20O,3.900000X2.900000*%
%ADD21RoundRect,0.200000X1.750000X1.250000X-1.750000X1.250000X-1.750000X-1.250000X1.750000X-1.250000X0*%
%ADD22C,3.400000*%
%ADD23RoundRect,0.200000X-0.850000X0.850000X-0.850000X-0.850000X0.850000X-0.850000X0.850000X0.850000X0*%
%ADD24O,2.100000X2.100000*%
%ADD25RoundRect,0.200000X0.850000X-0.850000X0.850000X0.850000X-0.850000X0.850000X-0.850000X-0.850000X0*%
%ADD26C,2.300000*%
%ADD27RoundRect,0.200000X1.000000X0.950000X-1.000000X0.950000X-1.000000X-0.950000X1.000000X-0.950000X0*%
%ADD28RoundRect,0.200000X-0.900000X-0.900000X0.900000X-0.900000X0.900000X0.900000X-0.900000X0.900000X0*%
%ADD29C,2.200000*%
%ADD30O,3.600000X5.400000*%
G04 APERTURE END LIST*
D10*
%TO.C,CLR1*%
X130036000Y-147738000D03*
D11*
X130036000Y-155358000D03*
%TD*%
D10*
%TO.C,R1*%
X136894000Y-114182000D03*
D11*
X129274000Y-114182000D03*
%TD*%
D10*
%TO.C,R2*%
X119368000Y-111642000D03*
D11*
X126988000Y-111642000D03*
%TD*%
D10*
%TO.C,R3*%
X136894000Y-109102000D03*
D11*
X129274000Y-109102000D03*
%TD*%
D10*
%TO.C,R4*%
X129274000Y-111642000D03*
D11*
X136894000Y-111642000D03*
%TD*%
D10*
%TO.C,R5*%
X136894000Y-106562000D03*
D11*
X129274000Y-106562000D03*
%TD*%
D10*
%TO.C,R6*%
X129274000Y-104022000D03*
D11*
X136894000Y-104022000D03*
%TD*%
D10*
%TO.C,R7*%
X119622000Y-79892000D03*
D11*
X127242000Y-79892000D03*
%TD*%
D10*
%TO.C,R9*%
X119622000Y-77352000D03*
D11*
X127242000Y-77352000D03*
%TD*%
D10*
%TO.C,R10*%
X119622000Y-69732000D03*
D11*
X127242000Y-69732000D03*
%TD*%
D10*
%TO.C,R11*%
X136894000Y-100720000D03*
D11*
X129274000Y-100720000D03*
%TD*%
D10*
%TO.C,R12*%
X129274000Y-98180000D03*
D11*
X136894000Y-98180000D03*
%TD*%
D10*
%TO.C,R13*%
X129274000Y-95640000D03*
D11*
X136894000Y-95640000D03*
%TD*%
D10*
%TO.C,R14*%
X129274000Y-93100000D03*
D11*
X136894000Y-93100000D03*
%TD*%
D10*
%TO.C,R15*%
X139942000Y-86242000D03*
D11*
X147562000Y-86242000D03*
%TD*%
D10*
%TO.C,R16*%
X167374000Y-86496000D03*
D11*
X159754000Y-86496000D03*
%TD*%
D10*
%TO.C,R17*%
X157214000Y-106054000D03*
D11*
X149594000Y-106054000D03*
%TD*%
D10*
%TO.C,R18*%
X157214000Y-108086000D03*
D11*
X149594000Y-108086000D03*
%TD*%
D10*
%TO.C,R19*%
X157214000Y-69478000D03*
D11*
X149594000Y-69478000D03*
%TD*%
D10*
%TO.C,R20*%
X157214000Y-66684000D03*
D11*
X149594000Y-66684000D03*
%TD*%
D10*
%TO.C,R22*%
X157214000Y-104022000D03*
D11*
X149594000Y-104022000D03*
%TD*%
D10*
%TO.C,R23*%
X159246000Y-101228000D03*
D11*
X166866000Y-101228000D03*
%TD*%
D10*
%TO.C,R24*%
X159246000Y-103260000D03*
D11*
X166866000Y-103260000D03*
%TD*%
D10*
%TO.C,R25*%
X167374000Y-72272000D03*
D11*
X159754000Y-72272000D03*
%TD*%
D10*
%TO.C,R26*%
X159735936Y-69421527D03*
D11*
X167355936Y-69421527D03*
%TD*%
D10*
%TO.C,R8*%
X137402000Y-69478000D03*
D11*
X129782000Y-69478000D03*
%TD*%
D10*
%TO.C,R21*%
X157214000Y-101990000D03*
D11*
X149594000Y-101990000D03*
%TD*%
D12*
%TO.C,C100*%
X164326000Y-113674000D03*
D13*
X164326000Y-116174000D03*
%TD*%
D12*
%TO.C,C102*%
X163818000Y-76453349D03*
D13*
X163818000Y-78953349D03*
%TD*%
D14*
%TO.C,D100*%
X139693000Y-72272000D03*
D15*
X147313000Y-72272000D03*
%TD*%
D13*
%TO.C,C14*%
X125932000Y-85988000D03*
X120932000Y-85988000D03*
%TD*%
%TO.C,C5*%
X125932000Y-82940000D03*
X120932000Y-82940000D03*
%TD*%
D12*
%TO.C,C1*%
X123178000Y-115770888D03*
D13*
X123178000Y-118270888D03*
%TD*%
D12*
%TO.C,C7*%
X130798000Y-83463112D03*
D13*
X130798000Y-85963112D03*
%TD*%
D12*
%TO.C,C10*%
X136386000Y-83488000D03*
D13*
X136386000Y-85988000D03*
%TD*%
D16*
%TO.C,C20*%
X151372000Y-95386000D03*
D13*
X151372000Y-92886000D03*
%TD*%
D12*
%TO.C,C101*%
X153404000Y-83448000D03*
D13*
X153404000Y-85948000D03*
%TD*%
D14*
%TO.C,D2*%
X127197000Y-72272000D03*
D17*
X119577000Y-72272000D03*
%TD*%
D14*
%TO.C,D1*%
X127197000Y-74812000D03*
D17*
X119577000Y-74812000D03*
%TD*%
D13*
%TO.C,C2*%
X126226000Y-108594000D03*
X121226000Y-108594000D03*
%TD*%
%TO.C,C3*%
X126226000Y-104720500D03*
X121226000Y-104720500D03*
%TD*%
%TO.C,C4*%
X121226000Y-100847000D03*
X126226000Y-100847000D03*
%TD*%
%TO.C,C6*%
X125892000Y-66684000D03*
X120892000Y-66684000D03*
%TD*%
%TO.C,C8*%
X136092000Y-66684000D03*
X131092000Y-66684000D03*
%TD*%
%TO.C,C9*%
X121226000Y-97164000D03*
X126226000Y-97164000D03*
%TD*%
%TO.C,C11*%
X121226000Y-93100000D03*
X126226000Y-93100000D03*
%TD*%
%TO.C,C12*%
X161104000Y-83448000D03*
X166104000Y-83448000D03*
%TD*%
%TO.C,C13*%
X140784000Y-81924000D03*
X145784000Y-81924000D03*
%TD*%
%TO.C,C15*%
X140704000Y-78622000D03*
X145704000Y-78622000D03*
%TD*%
%TO.C,C16*%
X145236000Y-66684000D03*
X140236000Y-66684000D03*
%TD*%
%TO.C,C17*%
X145236000Y-69478000D03*
X140236000Y-69478000D03*
%TD*%
%TO.C,C18*%
X145744000Y-75320000D03*
X140744000Y-75320000D03*
%TD*%
%TO.C,C19*%
X165556000Y-106054000D03*
X160556000Y-106054000D03*
%TD*%
%TO.C,C21*%
X159754000Y-66684000D03*
X164754000Y-66684000D03*
%TD*%
%TO.C,C103*%
X165596000Y-109102000D03*
X160596000Y-109102000D03*
%TD*%
%TO.C,C104*%
X151118000Y-113420000D03*
X156118000Y-113420000D03*
%TD*%
D18*
%TO.C,U1*%
X139180000Y-104022000D03*
D19*
X139180000Y-106562000D03*
X139180000Y-109102000D03*
X139180000Y-111642000D03*
X146800000Y-111642000D03*
X146800000Y-109102000D03*
X146800000Y-106562000D03*
X146800000Y-104022000D03*
%TD*%
D18*
%TO.C,U2*%
X129782000Y-72272000D03*
D19*
X129782000Y-74812000D03*
X129782000Y-77352000D03*
X129782000Y-79892000D03*
X137402000Y-79892000D03*
X137402000Y-77352000D03*
X137402000Y-74812000D03*
X137402000Y-72272000D03*
%TD*%
D18*
%TO.C,U3*%
X139180000Y-93100000D03*
D19*
X139180000Y-95640000D03*
X139180000Y-98180000D03*
X139180000Y-100720000D03*
X146800000Y-100720000D03*
X146800000Y-98180000D03*
X146800000Y-95640000D03*
X146800000Y-93100000D03*
%TD*%
%TO.C,U4*%
X157214000Y-72272000D03*
X157214000Y-74812000D03*
X157214000Y-77352000D03*
X157214000Y-79892000D03*
X149594000Y-79892000D03*
X149594000Y-77352000D03*
X149594000Y-74812000D03*
D18*
X149594000Y-72272000D03*
%TD*%
D20*
%TO.C,SW1*%
X137950000Y-158175000D03*
X143250000Y-158175000D03*
X148550000Y-158175000D03*
X137950000Y-153475000D03*
X143250000Y-153500000D03*
X148550000Y-153475000D03*
X137950000Y-148775000D03*
X143250000Y-148775000D03*
D21*
X148550000Y-148775000D03*
%TD*%
D22*
%TO.C,J3*%
X126590400Y-141677200D03*
X126590400Y-125447200D03*
X120240400Y-141677200D03*
X120240400Y-125447200D03*
X132940400Y-141677200D03*
X132940400Y-125447200D03*
%TD*%
D23*
%TO.C,JOVGI1*%
X146700000Y-122300000D03*
D24*
X144160000Y-122300000D03*
X141620000Y-122300000D03*
X139080000Y-122300000D03*
%TD*%
D25*
%TO.C,JOVGI2*%
X139180000Y-116750000D03*
D24*
X141720000Y-116750000D03*
X144260000Y-116750000D03*
X146800000Y-116750000D03*
%TD*%
D26*
%TO.C,D1000*%
X122500000Y-145950000D03*
D27*
X122500000Y-148490000D03*
%TD*%
D24*
%TO.C,J4*%
X141600000Y-127760000D03*
D23*
X144140000Y-127760000D03*
%TD*%
D22*
%TO.C,J2*%
X152379200Y-141575600D03*
X152379200Y-125345600D03*
X165079200Y-141575600D03*
X165079200Y-125345600D03*
X158729200Y-141575600D03*
X158729200Y-125345600D03*
%TD*%
D28*
%TO.C,MID1*%
X144982000Y-90169000D03*
D29*
X142482000Y-90169000D03*
X139982000Y-90169000D03*
%TD*%
D30*
%TO.C,DEEP1*%
X156696000Y-96148000D03*
X161146000Y-96148000D03*
X165596000Y-96148000D03*
%TD*%
D29*
%TO.C,BASS1*%
X120932000Y-90169000D03*
X123432000Y-90169000D03*
D28*
X125932000Y-90169000D03*
%TD*%
D29*
%TO.C,GAIN1*%
X120932000Y-64007000D03*
X123432000Y-64007000D03*
D28*
X125932000Y-64007000D03*
%TD*%
%TO.C,VOL1*%
X163016000Y-64007000D03*
D29*
X160516000Y-64007000D03*
X158016000Y-64007000D03*
%TD*%
%TO.C,TREBLE1*%
X158778000Y-90169000D03*
X161278000Y-90169000D03*
D28*
X163778000Y-90169000D03*
%TD*%
%TO.C,PRES1*%
X145236000Y-64007000D03*
D29*
X142736000Y-64007000D03*
X140236000Y-64007000D03*
%TD*%
M02*
