%TF.GenerationSoftware,KiCad,Pcbnew,7.0.11-7.0.11~ubuntu22.04.1*%
%TF.CreationDate,2024-12-17T10:18:29+00:00*%
%TF.ProjectId,slo-tht,736c6f2d-7468-4742-9e6b-696361645f70,rev?*%
%TF.SameCoordinates,Original*%
%TF.FileFunction,Legend,Bot*%
%TF.FilePolarity,Positive*%
%FSLAX46Y46*%
G04 Gerber Fmt 4.6, Leading zero omitted, Abs format (unit mm)*
G04 Created by KiCad (PCBNEW 7.0.11-7.0.11~ubuntu22.04.1) date 2024-12-17 10:18:29*
%MOMM*%
%LPD*%
G01*
G04 APERTURE LIST*
G04 Aperture macros list*
%AMRoundRect*
0 Rectangle with rounded corners*
0 $1 Rounding radius*
0 $2 $3 $4 $5 $6 $7 $8 $9 X,Y pos of 4 corners*
0 Add a 4 corners polygon primitive as box body*
4,1,4,$2,$3,$4,$5,$6,$7,$8,$9,$2,$3,0*
0 Add four circle primitives for the rounded corners*
1,1,$1+$1,$2,$3*
1,1,$1+$1,$4,$5*
1,1,$1+$1,$6,$7*
1,1,$1+$1,$8,$9*
0 Add four rect primitives between the rounded corners*
20,1,$1+$1,$2,$3,$4,$5,0*
20,1,$1+$1,$4,$5,$6,$7,0*
20,1,$1+$1,$6,$7,$8,$9,0*
20,1,$1+$1,$8,$9,$2,$3,0*%
G04 Aperture macros list end*
%ADD10C,0.150000*%
%ADD11C,0.120000*%
%ADD12C,1.800000*%
%ADD13O,1.800000X1.800000*%
%ADD14RoundRect,0.200000X-0.800000X0.800000X-0.800000X-0.800000X0.800000X-0.800000X0.800000X0.800000X0*%
%ADD15C,2.000000*%
%ADD16O,1.900000X1.900000*%
%ADD17RoundRect,0.200000X0.750000X0.750000X-0.750000X0.750000X-0.750000X-0.750000X0.750000X-0.750000X0*%
%ADD18RoundRect,0.200000X0.800000X-0.800000X0.800000X0.800000X-0.800000X0.800000X-0.800000X-0.800000X0*%
%ADD19RoundRect,0.200000X-0.750000X-0.750000X0.750000X-0.750000X0.750000X0.750000X-0.750000X0.750000X0*%
%ADD20RoundRect,0.200000X-0.800000X-0.800000X0.800000X-0.800000X0.800000X0.800000X-0.800000X0.800000X0*%
%ADD21O,2.000000X2.000000*%
%ADD22O,3.900000X2.900000*%
%ADD23RoundRect,0.200000X1.750000X1.250000X-1.750000X1.250000X-1.750000X-1.250000X1.750000X-1.250000X0*%
%ADD24C,3.400000*%
%ADD25RoundRect,0.200000X-0.850000X0.850000X-0.850000X-0.850000X0.850000X-0.850000X0.850000X0.850000X0*%
%ADD26O,2.100000X2.100000*%
%ADD27RoundRect,0.200000X0.850000X-0.850000X0.850000X0.850000X-0.850000X0.850000X-0.850000X-0.850000X0*%
%ADD28C,2.300000*%
%ADD29RoundRect,0.200000X1.000000X0.950000X-1.000000X0.950000X-1.000000X-0.950000X1.000000X-0.950000X0*%
%ADD30RoundRect,0.200000X-0.900000X-0.900000X0.900000X-0.900000X0.900000X0.900000X-0.900000X0.900000X0*%
%ADD31C,2.200000*%
%ADD32O,3.600000X5.400000*%
G04 APERTURE END LIST*
D10*
X144080418Y-80270619D02*
X144080418Y-79270619D01*
X144080418Y-79270619D02*
X143747085Y-79984904D01*
X143747085Y-79984904D02*
X143413752Y-79270619D01*
X143413752Y-79270619D02*
X143413752Y-80270619D01*
X142937561Y-80270619D02*
X142937561Y-79270619D01*
X142461371Y-80270619D02*
X142461371Y-79270619D01*
X142461371Y-79270619D02*
X142223276Y-79270619D01*
X142223276Y-79270619D02*
X142080419Y-79318238D01*
X142080419Y-79318238D02*
X141985181Y-79413476D01*
X141985181Y-79413476D02*
X141937562Y-79508714D01*
X141937562Y-79508714D02*
X141889943Y-79699190D01*
X141889943Y-79699190D02*
X141889943Y-79842047D01*
X141889943Y-79842047D02*
X141937562Y-80032523D01*
X141937562Y-80032523D02*
X141985181Y-80127761D01*
X141985181Y-80127761D02*
X142080419Y-80223000D01*
X142080419Y-80223000D02*
X142223276Y-80270619D01*
X142223276Y-80270619D02*
X142461371Y-80270619D01*
X140937562Y-80270619D02*
X141508990Y-80270619D01*
X141223276Y-80270619D02*
X141223276Y-79270619D01*
X141223276Y-79270619D02*
X141318514Y-79413476D01*
X141318514Y-79413476D02*
X141413752Y-79508714D01*
X141413752Y-79508714D02*
X141508990Y-79556333D01*
X125166914Y-80000809D02*
X125024057Y-80048428D01*
X125024057Y-80048428D02*
X124976438Y-80096047D01*
X124976438Y-80096047D02*
X124928819Y-80191285D01*
X124928819Y-80191285D02*
X124928819Y-80334142D01*
X124928819Y-80334142D02*
X124976438Y-80429380D01*
X124976438Y-80429380D02*
X125024057Y-80477000D01*
X125024057Y-80477000D02*
X125119295Y-80524619D01*
X125119295Y-80524619D02*
X125500247Y-80524619D01*
X125500247Y-80524619D02*
X125500247Y-79524619D01*
X125500247Y-79524619D02*
X125166914Y-79524619D01*
X125166914Y-79524619D02*
X125071676Y-79572238D01*
X125071676Y-79572238D02*
X125024057Y-79619857D01*
X125024057Y-79619857D02*
X124976438Y-79715095D01*
X124976438Y-79715095D02*
X124976438Y-79810333D01*
X124976438Y-79810333D02*
X125024057Y-79905571D01*
X125024057Y-79905571D02*
X125071676Y-79953190D01*
X125071676Y-79953190D02*
X125166914Y-80000809D01*
X125166914Y-80000809D02*
X125500247Y-80000809D01*
X124547866Y-80238904D02*
X124071676Y-80238904D01*
X124643104Y-80524619D02*
X124309771Y-79524619D01*
X124309771Y-79524619D02*
X123976438Y-80524619D01*
X123690723Y-80477000D02*
X123547866Y-80524619D01*
X123547866Y-80524619D02*
X123309771Y-80524619D01*
X123309771Y-80524619D02*
X123214533Y-80477000D01*
X123214533Y-80477000D02*
X123166914Y-80429380D01*
X123166914Y-80429380D02*
X123119295Y-80334142D01*
X123119295Y-80334142D02*
X123119295Y-80238904D01*
X123119295Y-80238904D02*
X123166914Y-80143666D01*
X123166914Y-80143666D02*
X123214533Y-80096047D01*
X123214533Y-80096047D02*
X123309771Y-80048428D01*
X123309771Y-80048428D02*
X123500247Y-80000809D01*
X123500247Y-80000809D02*
X123595485Y-79953190D01*
X123595485Y-79953190D02*
X123643104Y-79905571D01*
X123643104Y-79905571D02*
X123690723Y-79810333D01*
X123690723Y-79810333D02*
X123690723Y-79715095D01*
X123690723Y-79715095D02*
X123643104Y-79619857D01*
X123643104Y-79619857D02*
X123595485Y-79572238D01*
X123595485Y-79572238D02*
X123500247Y-79524619D01*
X123500247Y-79524619D02*
X123262152Y-79524619D01*
X123262152Y-79524619D02*
X123119295Y-79572238D01*
X122738342Y-80477000D02*
X122595485Y-80524619D01*
X122595485Y-80524619D02*
X122357390Y-80524619D01*
X122357390Y-80524619D02*
X122262152Y-80477000D01*
X122262152Y-80477000D02*
X122214533Y-80429380D01*
X122214533Y-80429380D02*
X122166914Y-80334142D01*
X122166914Y-80334142D02*
X122166914Y-80238904D01*
X122166914Y-80238904D02*
X122214533Y-80143666D01*
X122214533Y-80143666D02*
X122262152Y-80096047D01*
X122262152Y-80096047D02*
X122357390Y-80048428D01*
X122357390Y-80048428D02*
X122547866Y-80000809D01*
X122547866Y-80000809D02*
X122643104Y-79953190D01*
X122643104Y-79953190D02*
X122690723Y-79905571D01*
X122690723Y-79905571D02*
X122738342Y-79810333D01*
X122738342Y-79810333D02*
X122738342Y-79715095D01*
X122738342Y-79715095D02*
X122690723Y-79619857D01*
X122690723Y-79619857D02*
X122643104Y-79572238D01*
X122643104Y-79572238D02*
X122547866Y-79524619D01*
X122547866Y-79524619D02*
X122309771Y-79524619D01*
X122309771Y-79524619D02*
X122166914Y-79572238D01*
X121214533Y-80524619D02*
X121785961Y-80524619D01*
X121500247Y-80524619D02*
X121500247Y-79524619D01*
X121500247Y-79524619D02*
X121595485Y-79667476D01*
X121595485Y-79667476D02*
X121690723Y-79762714D01*
X121690723Y-79762714D02*
X121785961Y-79810333D01*
X124989161Y-59760238D02*
X125084399Y-59712619D01*
X125084399Y-59712619D02*
X125227256Y-59712619D01*
X125227256Y-59712619D02*
X125370113Y-59760238D01*
X125370113Y-59760238D02*
X125465351Y-59855476D01*
X125465351Y-59855476D02*
X125512970Y-59950714D01*
X125512970Y-59950714D02*
X125560589Y-60141190D01*
X125560589Y-60141190D02*
X125560589Y-60284047D01*
X125560589Y-60284047D02*
X125512970Y-60474523D01*
X125512970Y-60474523D02*
X125465351Y-60569761D01*
X125465351Y-60569761D02*
X125370113Y-60665000D01*
X125370113Y-60665000D02*
X125227256Y-60712619D01*
X125227256Y-60712619D02*
X125132018Y-60712619D01*
X125132018Y-60712619D02*
X124989161Y-60665000D01*
X124989161Y-60665000D02*
X124941542Y-60617380D01*
X124941542Y-60617380D02*
X124941542Y-60284047D01*
X124941542Y-60284047D02*
X125132018Y-60284047D01*
X124560589Y-60426904D02*
X124084399Y-60426904D01*
X124655827Y-60712619D02*
X124322494Y-59712619D01*
X124322494Y-59712619D02*
X123989161Y-60712619D01*
X123655827Y-60712619D02*
X123655827Y-59712619D01*
X123179637Y-60712619D02*
X123179637Y-59712619D01*
X123179637Y-59712619D02*
X122608209Y-60712619D01*
X122608209Y-60712619D02*
X122608209Y-59712619D01*
X121608209Y-60712619D02*
X122179637Y-60712619D01*
X121893923Y-60712619D02*
X121893923Y-59712619D01*
X121893923Y-59712619D02*
X121989161Y-59855476D01*
X121989161Y-59855476D02*
X122084399Y-59950714D01*
X122084399Y-59950714D02*
X122179637Y-59998333D01*
X162685894Y-60042819D02*
X162352561Y-61042819D01*
X162352561Y-61042819D02*
X162019228Y-60042819D01*
X161495418Y-60042819D02*
X161304942Y-60042819D01*
X161304942Y-60042819D02*
X161209704Y-60090438D01*
X161209704Y-60090438D02*
X161114466Y-60185676D01*
X161114466Y-60185676D02*
X161066847Y-60376152D01*
X161066847Y-60376152D02*
X161066847Y-60709485D01*
X161066847Y-60709485D02*
X161114466Y-60899961D01*
X161114466Y-60899961D02*
X161209704Y-60995200D01*
X161209704Y-60995200D02*
X161304942Y-61042819D01*
X161304942Y-61042819D02*
X161495418Y-61042819D01*
X161495418Y-61042819D02*
X161590656Y-60995200D01*
X161590656Y-60995200D02*
X161685894Y-60899961D01*
X161685894Y-60899961D02*
X161733513Y-60709485D01*
X161733513Y-60709485D02*
X161733513Y-60376152D01*
X161733513Y-60376152D02*
X161685894Y-60185676D01*
X161685894Y-60185676D02*
X161590656Y-60090438D01*
X161590656Y-60090438D02*
X161495418Y-60042819D01*
X160162085Y-61042819D02*
X160638275Y-61042819D01*
X160638275Y-61042819D02*
X160638275Y-60042819D01*
X159304942Y-61042819D02*
X159876370Y-61042819D01*
X159590656Y-61042819D02*
X159590656Y-60042819D01*
X159590656Y-60042819D02*
X159685894Y-60185676D01*
X159685894Y-60185676D02*
X159781132Y-60280914D01*
X159781132Y-60280914D02*
X159876370Y-60328533D01*
X164527228Y-79321419D02*
X163955800Y-79321419D01*
X164241514Y-80321419D02*
X164241514Y-79321419D01*
X163051038Y-80321419D02*
X163384371Y-79845228D01*
X163622466Y-80321419D02*
X163622466Y-79321419D01*
X163622466Y-79321419D02*
X163241514Y-79321419D01*
X163241514Y-79321419D02*
X163146276Y-79369038D01*
X163146276Y-79369038D02*
X163098657Y-79416657D01*
X163098657Y-79416657D02*
X163051038Y-79511895D01*
X163051038Y-79511895D02*
X163051038Y-79654752D01*
X163051038Y-79654752D02*
X163098657Y-79749990D01*
X163098657Y-79749990D02*
X163146276Y-79797609D01*
X163146276Y-79797609D02*
X163241514Y-79845228D01*
X163241514Y-79845228D02*
X163622466Y-79845228D01*
X162622466Y-79797609D02*
X162289133Y-79797609D01*
X162146276Y-80321419D02*
X162622466Y-80321419D01*
X162622466Y-80321419D02*
X162622466Y-79321419D01*
X162622466Y-79321419D02*
X162146276Y-79321419D01*
X161384371Y-79797609D02*
X161241514Y-79845228D01*
X161241514Y-79845228D02*
X161193895Y-79892847D01*
X161193895Y-79892847D02*
X161146276Y-79988085D01*
X161146276Y-79988085D02*
X161146276Y-80130942D01*
X161146276Y-80130942D02*
X161193895Y-80226180D01*
X161193895Y-80226180D02*
X161241514Y-80273800D01*
X161241514Y-80273800D02*
X161336752Y-80321419D01*
X161336752Y-80321419D02*
X161717704Y-80321419D01*
X161717704Y-80321419D02*
X161717704Y-79321419D01*
X161717704Y-79321419D02*
X161384371Y-79321419D01*
X161384371Y-79321419D02*
X161289133Y-79369038D01*
X161289133Y-79369038D02*
X161241514Y-79416657D01*
X161241514Y-79416657D02*
X161193895Y-79511895D01*
X161193895Y-79511895D02*
X161193895Y-79607133D01*
X161193895Y-79607133D02*
X161241514Y-79702371D01*
X161241514Y-79702371D02*
X161289133Y-79749990D01*
X161289133Y-79749990D02*
X161384371Y-79797609D01*
X161384371Y-79797609D02*
X161717704Y-79797609D01*
X160241514Y-80321419D02*
X160717704Y-80321419D01*
X160717704Y-80321419D02*
X160717704Y-79321419D01*
X159908180Y-79797609D02*
X159574847Y-79797609D01*
X159431990Y-80321419D02*
X159908180Y-80321419D01*
X159908180Y-80321419D02*
X159908180Y-79321419D01*
X159908180Y-79321419D02*
X159431990Y-79321419D01*
X158479609Y-80321419D02*
X159051037Y-80321419D01*
X158765323Y-80321419D02*
X158765323Y-79321419D01*
X158765323Y-79321419D02*
X158860561Y-79464276D01*
X158860561Y-79464276D02*
X158955799Y-79559514D01*
X158955799Y-79559514D02*
X159051037Y-79607133D01*
X145207466Y-60915819D02*
X145207466Y-59915819D01*
X145207466Y-59915819D02*
X144826514Y-59915819D01*
X144826514Y-59915819D02*
X144731276Y-59963438D01*
X144731276Y-59963438D02*
X144683657Y-60011057D01*
X144683657Y-60011057D02*
X144636038Y-60106295D01*
X144636038Y-60106295D02*
X144636038Y-60249152D01*
X144636038Y-60249152D02*
X144683657Y-60344390D01*
X144683657Y-60344390D02*
X144731276Y-60392009D01*
X144731276Y-60392009D02*
X144826514Y-60439628D01*
X144826514Y-60439628D02*
X145207466Y-60439628D01*
X143636038Y-60915819D02*
X143969371Y-60439628D01*
X144207466Y-60915819D02*
X144207466Y-59915819D01*
X144207466Y-59915819D02*
X143826514Y-59915819D01*
X143826514Y-59915819D02*
X143731276Y-59963438D01*
X143731276Y-59963438D02*
X143683657Y-60011057D01*
X143683657Y-60011057D02*
X143636038Y-60106295D01*
X143636038Y-60106295D02*
X143636038Y-60249152D01*
X143636038Y-60249152D02*
X143683657Y-60344390D01*
X143683657Y-60344390D02*
X143731276Y-60392009D01*
X143731276Y-60392009D02*
X143826514Y-60439628D01*
X143826514Y-60439628D02*
X144207466Y-60439628D01*
X143207466Y-60392009D02*
X142874133Y-60392009D01*
X142731276Y-60915819D02*
X143207466Y-60915819D01*
X143207466Y-60915819D02*
X143207466Y-59915819D01*
X143207466Y-59915819D02*
X142731276Y-59915819D01*
X142350323Y-60868200D02*
X142207466Y-60915819D01*
X142207466Y-60915819D02*
X141969371Y-60915819D01*
X141969371Y-60915819D02*
X141874133Y-60868200D01*
X141874133Y-60868200D02*
X141826514Y-60820580D01*
X141826514Y-60820580D02*
X141778895Y-60725342D01*
X141778895Y-60725342D02*
X141778895Y-60630104D01*
X141778895Y-60630104D02*
X141826514Y-60534866D01*
X141826514Y-60534866D02*
X141874133Y-60487247D01*
X141874133Y-60487247D02*
X141969371Y-60439628D01*
X141969371Y-60439628D02*
X142159847Y-60392009D01*
X142159847Y-60392009D02*
X142255085Y-60344390D01*
X142255085Y-60344390D02*
X142302704Y-60296771D01*
X142302704Y-60296771D02*
X142350323Y-60201533D01*
X142350323Y-60201533D02*
X142350323Y-60106295D01*
X142350323Y-60106295D02*
X142302704Y-60011057D01*
X142302704Y-60011057D02*
X142255085Y-59963438D01*
X142255085Y-59963438D02*
X142159847Y-59915819D01*
X142159847Y-59915819D02*
X141921752Y-59915819D01*
X141921752Y-59915819D02*
X141778895Y-59963438D01*
X140826514Y-60915819D02*
X141397942Y-60915819D01*
X141112228Y-60915819D02*
X141112228Y-59915819D01*
X141112228Y-59915819D02*
X141207466Y-60058676D01*
X141207466Y-60058676D02*
X141302704Y-60153914D01*
X141302704Y-60153914D02*
X141397942Y-60201533D01*
D11*
%TO.C,MID1*%
X137612000Y-89289000D02*
X139102000Y-89289000D01*
X137612000Y-89289000D02*
X137612000Y-84569000D01*
X140822000Y-89289000D02*
X141652000Y-89289000D01*
X143272000Y-89289000D02*
X143802000Y-89289000D01*
X146172000Y-89289000D02*
X147352000Y-89289000D01*
X147362000Y-89289000D02*
X147362000Y-84569000D01*
X137612000Y-80759000D02*
X137612000Y-77699000D01*
X147352000Y-80759000D02*
X147352000Y-77699000D01*
X137612000Y-77699000D02*
X147352000Y-77699000D01*
%TO.C,DEEP1*%
X164848654Y-96148000D02*
G75*
G03*
X157443346Y-96148000I-3702654J0D01*
G01*
X157443346Y-96148000D02*
G75*
G03*
X164848654Y-96148000I3702654J0D01*
G01*
X154161000Y-91703000D02*
X154161000Y-100593000D01*
X154161000Y-100593000D02*
X168131000Y-100593000D01*
X157971000Y-96148000D02*
X159241000Y-99323000D01*
X159241000Y-92973000D02*
X157971000Y-96148000D01*
X159241000Y-99323000D02*
X163051000Y-99323000D01*
X163051000Y-92973000D02*
X159241000Y-92973000D01*
X163051000Y-99323000D02*
X164321000Y-96148000D01*
X164321000Y-96148000D02*
X163051000Y-92973000D01*
X168131000Y-91703000D02*
X154161000Y-91703000D01*
X168131000Y-100593000D02*
X168131000Y-91703000D01*
%TO.C,BASS1*%
X118562000Y-77699000D02*
X128302000Y-77699000D01*
X128302000Y-80759000D02*
X128302000Y-77699000D01*
X118562000Y-80759000D02*
X118562000Y-77699000D01*
X128312000Y-89289000D02*
X128312000Y-84569000D01*
X127122000Y-89289000D02*
X128302000Y-89289000D01*
X124222000Y-89289000D02*
X124752000Y-89289000D01*
X121772000Y-89289000D02*
X122602000Y-89289000D01*
X118562000Y-89289000D02*
X118562000Y-84569000D01*
X118562000Y-89289000D02*
X120052000Y-89289000D01*
%TO.C,GAIN1*%
X118562000Y-51537000D02*
X128302000Y-51537000D01*
X128302000Y-54597000D02*
X128302000Y-51537000D01*
X118562000Y-54597000D02*
X118562000Y-51537000D01*
X128312000Y-63127000D02*
X128312000Y-58407000D01*
X127122000Y-63127000D02*
X128302000Y-63127000D01*
X124222000Y-63127000D02*
X124752000Y-63127000D01*
X121772000Y-63127000D02*
X122602000Y-63127000D01*
X118562000Y-63127000D02*
X118562000Y-58407000D01*
X118562000Y-63127000D02*
X120052000Y-63127000D01*
%TO.C,VOL1*%
X155646000Y-63127000D02*
X157136000Y-63127000D01*
X155646000Y-63127000D02*
X155646000Y-58407000D01*
X158856000Y-63127000D02*
X159686000Y-63127000D01*
X161306000Y-63127000D02*
X161836000Y-63127000D01*
X164206000Y-63127000D02*
X165386000Y-63127000D01*
X165396000Y-63127000D02*
X165396000Y-58407000D01*
X155646000Y-54597000D02*
X155646000Y-51537000D01*
X165386000Y-54597000D02*
X165386000Y-51537000D01*
X155646000Y-51537000D02*
X165386000Y-51537000D01*
%TO.C,TREBLE1*%
X156408000Y-77699000D02*
X166148000Y-77699000D01*
X166148000Y-80759000D02*
X166148000Y-77699000D01*
X156408000Y-80759000D02*
X156408000Y-77699000D01*
X166158000Y-89289000D02*
X166158000Y-84569000D01*
X164968000Y-89289000D02*
X166148000Y-89289000D01*
X162068000Y-89289000D02*
X162598000Y-89289000D01*
X159618000Y-89289000D02*
X160448000Y-89289000D01*
X156408000Y-89289000D02*
X156408000Y-84569000D01*
X156408000Y-89289000D02*
X157898000Y-89289000D01*
%TO.C,PRES1*%
X137866000Y-63127000D02*
X139356000Y-63127000D01*
X137866000Y-63127000D02*
X137866000Y-58407000D01*
X141076000Y-63127000D02*
X141906000Y-63127000D01*
X143526000Y-63127000D02*
X144056000Y-63127000D01*
X146426000Y-63127000D02*
X147606000Y-63127000D01*
X147616000Y-63127000D02*
X147616000Y-58407000D01*
X137866000Y-54597000D02*
X137866000Y-51537000D01*
X147606000Y-54597000D02*
X147606000Y-51537000D01*
X137866000Y-51537000D02*
X147606000Y-51537000D01*
%TD*%
%LPC*%
D12*
%TO.C,CLR1*%
X130036000Y-147738000D03*
D13*
X130036000Y-155358000D03*
%TD*%
D12*
%TO.C,R1*%
X136894000Y-114182000D03*
D13*
X129274000Y-114182000D03*
%TD*%
D12*
%TO.C,R2*%
X119368000Y-111642000D03*
D13*
X126988000Y-111642000D03*
%TD*%
D12*
%TO.C,R3*%
X136894000Y-109102000D03*
D13*
X129274000Y-109102000D03*
%TD*%
D12*
%TO.C,R4*%
X129274000Y-111642000D03*
D13*
X136894000Y-111642000D03*
%TD*%
D12*
%TO.C,R5*%
X136894000Y-106562000D03*
D13*
X129274000Y-106562000D03*
%TD*%
D12*
%TO.C,R6*%
X129274000Y-104022000D03*
D13*
X136894000Y-104022000D03*
%TD*%
D12*
%TO.C,R7*%
X119622000Y-79892000D03*
D13*
X127242000Y-79892000D03*
%TD*%
D12*
%TO.C,R9*%
X119622000Y-77352000D03*
D13*
X127242000Y-77352000D03*
%TD*%
D12*
%TO.C,R10*%
X119622000Y-69732000D03*
D13*
X127242000Y-69732000D03*
%TD*%
D12*
%TO.C,R11*%
X136894000Y-100720000D03*
D13*
X129274000Y-100720000D03*
%TD*%
D12*
%TO.C,R12*%
X129274000Y-98180000D03*
D13*
X136894000Y-98180000D03*
%TD*%
D12*
%TO.C,R13*%
X129274000Y-95640000D03*
D13*
X136894000Y-95640000D03*
%TD*%
D12*
%TO.C,R14*%
X129274000Y-93100000D03*
D13*
X136894000Y-93100000D03*
%TD*%
D12*
%TO.C,R15*%
X139942000Y-86242000D03*
D13*
X147562000Y-86242000D03*
%TD*%
D12*
%TO.C,R16*%
X167374000Y-86496000D03*
D13*
X159754000Y-86496000D03*
%TD*%
D12*
%TO.C,R17*%
X157214000Y-106054000D03*
D13*
X149594000Y-106054000D03*
%TD*%
D12*
%TO.C,R18*%
X157214000Y-108086000D03*
D13*
X149594000Y-108086000D03*
%TD*%
D12*
%TO.C,R19*%
X157214000Y-69478000D03*
D13*
X149594000Y-69478000D03*
%TD*%
D12*
%TO.C,R20*%
X157214000Y-66684000D03*
D13*
X149594000Y-66684000D03*
%TD*%
D12*
%TO.C,R22*%
X157214000Y-104022000D03*
D13*
X149594000Y-104022000D03*
%TD*%
D12*
%TO.C,R23*%
X159246000Y-101228000D03*
D13*
X166866000Y-101228000D03*
%TD*%
D12*
%TO.C,R24*%
X159246000Y-103260000D03*
D13*
X166866000Y-103260000D03*
%TD*%
D12*
%TO.C,R25*%
X167374000Y-72272000D03*
D13*
X159754000Y-72272000D03*
%TD*%
D12*
%TO.C,R26*%
X159735936Y-69421527D03*
D13*
X167355936Y-69421527D03*
%TD*%
D12*
%TO.C,R8*%
X137402000Y-69478000D03*
D13*
X129782000Y-69478000D03*
%TD*%
D12*
%TO.C,R21*%
X157214000Y-101990000D03*
D13*
X149594000Y-101990000D03*
%TD*%
D14*
%TO.C,C100*%
X164326000Y-113674000D03*
D15*
X164326000Y-116174000D03*
%TD*%
D14*
%TO.C,C102*%
X163818000Y-76453349D03*
D15*
X163818000Y-78953349D03*
%TD*%
D16*
%TO.C,D100*%
X139693000Y-72272000D03*
D17*
X147313000Y-72272000D03*
%TD*%
D15*
%TO.C,C14*%
X125932000Y-85988000D03*
X120932000Y-85988000D03*
%TD*%
%TO.C,C5*%
X125932000Y-82940000D03*
X120932000Y-82940000D03*
%TD*%
D14*
%TO.C,C1*%
X123178000Y-115770888D03*
D15*
X123178000Y-118270888D03*
%TD*%
D14*
%TO.C,C7*%
X130798000Y-83463112D03*
D15*
X130798000Y-85963112D03*
%TD*%
D14*
%TO.C,C10*%
X136386000Y-83488000D03*
D15*
X136386000Y-85988000D03*
%TD*%
D18*
%TO.C,C20*%
X151372000Y-95386000D03*
D15*
X151372000Y-92886000D03*
%TD*%
D14*
%TO.C,C101*%
X153404000Y-83448000D03*
D15*
X153404000Y-85948000D03*
%TD*%
D16*
%TO.C,D2*%
X127197000Y-72272000D03*
D19*
X119577000Y-72272000D03*
%TD*%
D16*
%TO.C,D1*%
X127197000Y-74812000D03*
D19*
X119577000Y-74812000D03*
%TD*%
D15*
%TO.C,C2*%
X126226000Y-108594000D03*
X121226000Y-108594000D03*
%TD*%
%TO.C,C3*%
X126226000Y-104720500D03*
X121226000Y-104720500D03*
%TD*%
%TO.C,C4*%
X121226000Y-100847000D03*
X126226000Y-100847000D03*
%TD*%
%TO.C,C6*%
X125892000Y-66684000D03*
X120892000Y-66684000D03*
%TD*%
%TO.C,C8*%
X136092000Y-66684000D03*
X131092000Y-66684000D03*
%TD*%
%TO.C,C9*%
X121226000Y-97164000D03*
X126226000Y-97164000D03*
%TD*%
%TO.C,C11*%
X121226000Y-93100000D03*
X126226000Y-93100000D03*
%TD*%
%TO.C,C12*%
X161104000Y-83448000D03*
X166104000Y-83448000D03*
%TD*%
%TO.C,C13*%
X140784000Y-81924000D03*
X145784000Y-81924000D03*
%TD*%
%TO.C,C15*%
X140704000Y-78622000D03*
X145704000Y-78622000D03*
%TD*%
%TO.C,C16*%
X145236000Y-66684000D03*
X140236000Y-66684000D03*
%TD*%
%TO.C,C17*%
X145236000Y-69478000D03*
X140236000Y-69478000D03*
%TD*%
%TO.C,C18*%
X145744000Y-75320000D03*
X140744000Y-75320000D03*
%TD*%
%TO.C,C19*%
X165556000Y-106054000D03*
X160556000Y-106054000D03*
%TD*%
%TO.C,C21*%
X159754000Y-66684000D03*
X164754000Y-66684000D03*
%TD*%
%TO.C,C103*%
X165596000Y-109102000D03*
X160596000Y-109102000D03*
%TD*%
%TO.C,C104*%
X151118000Y-113420000D03*
X156118000Y-113420000D03*
%TD*%
D20*
%TO.C,U1*%
X139180000Y-104022000D03*
D21*
X139180000Y-106562000D03*
X139180000Y-109102000D03*
X139180000Y-111642000D03*
X146800000Y-111642000D03*
X146800000Y-109102000D03*
X146800000Y-106562000D03*
X146800000Y-104022000D03*
%TD*%
D20*
%TO.C,U2*%
X129782000Y-72272000D03*
D21*
X129782000Y-74812000D03*
X129782000Y-77352000D03*
X129782000Y-79892000D03*
X137402000Y-79892000D03*
X137402000Y-77352000D03*
X137402000Y-74812000D03*
X137402000Y-72272000D03*
%TD*%
D20*
%TO.C,U3*%
X139180000Y-93100000D03*
D21*
X139180000Y-95640000D03*
X139180000Y-98180000D03*
X139180000Y-100720000D03*
X146800000Y-100720000D03*
X146800000Y-98180000D03*
X146800000Y-95640000D03*
X146800000Y-93100000D03*
%TD*%
%TO.C,U4*%
X157214000Y-72272000D03*
X157214000Y-74812000D03*
X157214000Y-77352000D03*
X157214000Y-79892000D03*
X149594000Y-79892000D03*
X149594000Y-77352000D03*
X149594000Y-74812000D03*
D20*
X149594000Y-72272000D03*
%TD*%
D22*
%TO.C,SW1*%
X137950000Y-158175000D03*
X143250000Y-158175000D03*
X148550000Y-158175000D03*
X137950000Y-153475000D03*
X143250000Y-153500000D03*
X148550000Y-153475000D03*
X137950000Y-148775000D03*
X143250000Y-148775000D03*
D23*
X148550000Y-148775000D03*
%TD*%
D24*
%TO.C,J3*%
X126590400Y-141677200D03*
X126590400Y-125447200D03*
X120240400Y-141677200D03*
X120240400Y-125447200D03*
X132940400Y-141677200D03*
X132940400Y-125447200D03*
%TD*%
D25*
%TO.C,JOVGI1*%
X146700000Y-122300000D03*
D26*
X144160000Y-122300000D03*
X141620000Y-122300000D03*
X139080000Y-122300000D03*
%TD*%
D27*
%TO.C,JOVGI2*%
X139180000Y-116750000D03*
D26*
X141720000Y-116750000D03*
X144260000Y-116750000D03*
X146800000Y-116750000D03*
%TD*%
D28*
%TO.C,D1000*%
X122500000Y-145950000D03*
D29*
X122500000Y-148490000D03*
%TD*%
D26*
%TO.C,J4*%
X141600000Y-127760000D03*
D25*
X144140000Y-127760000D03*
%TD*%
D24*
%TO.C,J2*%
X152379200Y-141575600D03*
X152379200Y-125345600D03*
X165079200Y-141575600D03*
X165079200Y-125345600D03*
X158729200Y-141575600D03*
X158729200Y-125345600D03*
%TD*%
D30*
%TO.C,MID1*%
X144982000Y-90169000D03*
D31*
X142482000Y-90169000D03*
X139982000Y-90169000D03*
%TD*%
D32*
%TO.C,DEEP1*%
X156696000Y-96148000D03*
X161146000Y-96148000D03*
X165596000Y-96148000D03*
%TD*%
D31*
%TO.C,BASS1*%
X120932000Y-90169000D03*
X123432000Y-90169000D03*
D30*
X125932000Y-90169000D03*
%TD*%
D31*
%TO.C,GAIN1*%
X120932000Y-64007000D03*
X123432000Y-64007000D03*
D30*
X125932000Y-64007000D03*
%TD*%
%TO.C,VOL1*%
X163016000Y-64007000D03*
D31*
X160516000Y-64007000D03*
X158016000Y-64007000D03*
%TD*%
%TO.C,TREBLE1*%
X158778000Y-90169000D03*
X161278000Y-90169000D03*
D30*
X163778000Y-90169000D03*
%TD*%
%TO.C,PRES1*%
X145236000Y-64007000D03*
D31*
X142736000Y-64007000D03*
X140236000Y-64007000D03*
%TD*%
%LPD*%
M02*
