M48
; DRILL file {KiCad 7.0.11-7.0.11~ubuntu22.04.1} date Tue 17 Dec 2024 10:18:29 GMT
; FORMAT={-:-/ absolute / inch / decimal}
; #@! TF.CreationDate,2024-12-17T10:18:29+00:00
; #@! TF.GenerationSoftware,Kicad,Pcbnew,7.0.11-7.0.11~ubuntu22.04.1
; #@! TF.FileFunction,Plated,1,2,PTH
FMAT,2
INCH
; #@! TA.AperFunction,Plated,PTH,ViaDrill
T1C0.0157
; #@! TA.AperFunction,Plated,PTH,ComponentDrill
T2C0.0276
; #@! TA.AperFunction,Plated,PTH,ComponentDrill
T3C0.0295
; #@! TA.AperFunction,Plated,PTH,ComponentDrill
T4C0.0315
; #@! TA.AperFunction,Plated,PTH,ComponentDrill
T5C0.0394
; #@! TA.AperFunction,Plated,PTH,ComponentDrill
T6C0.0394
; #@! TA.AperFunction,Plated,PTH,ComponentDrill
T7C0.0551
; #@! TA.AperFunction,Plated,PTH,ComponentDrill
T8C0.0591
%
G90
G05
T1
X5.2195Y-3.3554
X5.5311Y-3.3154
X5.6095Y-4.7154
X5.6295Y-3.4754
X5.6461Y-3.7054
X5.6595Y-4.6654
X5.7795Y-3.5554
X5.9205Y-3.4764
X5.9695Y-4.6654
X6.1095Y-3.4754
T2
X4.6995Y-4.3954
X4.7095Y-2.7454
X4.7095Y-3.0454
X4.7095Y-3.1454
X4.9995Y-4.3954
X5.0095Y-2.7454
X5.0095Y-3.0454
X5.0095Y-3.1454
X5.0895Y-3.6654
X5.0895Y-3.7654
X5.0895Y-3.8654
X5.0895Y-3.9654
X5.0895Y-4.0954
X5.0895Y-4.1954
X5.0895Y-4.2954
X5.0895Y-4.3954
X5.0895Y-4.4954
X5.1095Y-2.7354
X5.1195Y-5.8165
X5.1195Y-6.1165
X5.3895Y-3.6654
X5.3895Y-3.7654
X5.3895Y-3.8654
X5.3895Y-3.9654
X5.3895Y-4.0954
X5.3895Y-4.1954
X5.3895Y-4.2954
X5.3895Y-4.3954
X5.3895Y-4.4954
X5.4095Y-2.7354
X5.5095Y-3.3954
X5.8095Y-3.3954
X5.8895Y-2.6254
X5.8895Y-2.7354
X5.8895Y-4.0154
X5.8895Y-4.0954
X5.8895Y-4.1754
X5.8895Y-4.2554
X6.1895Y-2.6254
X6.1895Y-2.7354
X6.1895Y-4.0154
X6.1895Y-4.0954
X6.1895Y-4.1754
X6.1895Y-4.2554
X6.2695Y-3.9854
X6.2695Y-4.0654
X6.2888Y-2.7331
X6.2895Y-2.8454
X6.2895Y-3.4054
X6.5695Y-3.9854
X6.5695Y-4.0654
X6.5888Y-2.7331
X6.5895Y-2.8454
X6.5895Y-3.4054
T3
X4.7078Y-2.8454
X4.7078Y-2.9454
X5.0078Y-2.8454
X5.0078Y-2.9454
X5.4997Y-2.8454
X5.7997Y-2.8454
T4
X4.7595Y-2.6254
X4.7611Y-3.2654
X4.7611Y-3.3854
X4.7727Y-3.6654
X4.7727Y-3.8254
X4.7727Y-3.9704
X4.7727Y-4.1229
X4.7727Y-4.2754
X4.8495Y-4.5579
X4.8495Y-4.6563
X4.9564Y-2.6254
X4.958Y-3.2654
X4.958Y-3.3854
X4.9695Y-3.6654
X4.9695Y-3.8254
X4.9695Y-3.9704
X4.9695Y-4.1229
X4.9695Y-4.2754
X5.1095Y-2.8454
X5.1095Y-2.9454
X5.1095Y-3.0454
X5.1095Y-3.1454
X5.1495Y-3.2859
X5.1495Y-3.3844
X5.1611Y-2.6254
X5.358Y-2.6254
X5.3695Y-3.2869
X5.3695Y-3.3854
X5.4095Y-2.8454
X5.4095Y-2.9454
X5.4095Y-3.0454
X5.4095Y-3.1454
X5.4795Y-3.6654
X5.4795Y-3.7654
X5.4795Y-3.8654
X5.4795Y-3.9654
X5.4795Y-4.0954
X5.4795Y-4.1954
X5.4795Y-4.2954
X5.4795Y-4.3954
X5.5211Y-2.6254
X5.5211Y-2.7354
X5.5395Y-3.0954
X5.5411Y-2.9654
X5.5427Y-3.2254
X5.718Y-2.6254
X5.718Y-2.7354
X5.7364Y-3.0954
X5.738Y-2.9654
X5.7395Y-3.2254
X5.7795Y-3.6654
X5.7795Y-3.7654
X5.7795Y-3.8654
X5.7795Y-3.9654
X5.7795Y-4.0954
X5.7795Y-4.1954
X5.7795Y-4.2954
X5.7795Y-4.3954
X5.8895Y-2.8454
X5.8895Y-2.9454
X5.8895Y-3.0454
X5.8895Y-3.1454
X5.9495Y-4.4654
X5.9595Y-3.6569
X5.9595Y-3.7554
X6.0395Y-3.2854
X6.0395Y-3.3838
X6.1464Y-4.4654
X6.1895Y-2.8454
X6.1895Y-2.9454
X6.1895Y-3.0454
X6.1895Y-3.1454
X6.2895Y-2.6254
X6.3211Y-4.1754
X6.3227Y-4.2954
X6.3427Y-3.2854
X6.4495Y-3.01
X6.4495Y-3.1084
X6.4695Y-4.4754
X6.4695Y-4.5738
X6.4864Y-2.6254
X6.518Y-4.1754
X6.5195Y-4.2954
X6.5395Y-3.2854
T5
X4.7611Y-2.52
X4.7611Y-3.55
X4.8595Y-2.52
X4.8595Y-3.55
X4.958Y-2.52
X4.958Y-3.55
X5.4756Y-4.815
X5.4795Y-4.5965
X5.5111Y-3.55
X5.5211Y-2.52
X5.5748Y-5.0299
X5.5756Y-4.815
X5.5795Y-4.5965
X5.6095Y-3.55
X5.6195Y-2.52
X5.6748Y-5.0299
X5.6756Y-4.815
X5.6795Y-4.5965
X5.708Y-3.55
X5.718Y-2.52
X5.7756Y-4.815
X5.7795Y-4.5965
X6.2211Y-2.52
X6.2511Y-3.55
X6.3195Y-2.52
X6.3495Y-3.55
X6.418Y-2.52
X6.448Y-3.55
T6
X4.8228Y-5.7461
X4.8228Y-5.8461
T7
X4.7339Y-4.9389
X4.7339Y-5.5778
X4.9839Y-4.9389
X4.9839Y-5.5778
X5.2339Y-4.9389
X5.2339Y-5.5778
X5.9992Y-4.9349
X5.9992Y-5.5738
X6.2492Y-4.9349
X6.2492Y-5.5738
X6.4992Y-4.9349
X6.4992Y-5.5738
T7
G00X6.1691Y-3.8119
M15
G01X6.1691Y-3.7588
M16
G05
G00X6.3443Y-3.8119
M15
G01X6.3443Y-3.7588
M16
G05
G00X6.5195Y-3.8119
M15
G01X6.5195Y-3.7588
M16
G05
T8
G00X5.4508Y-5.8573
M15
G01X5.4114Y-5.8573
M16
G05
G00X5.4508Y-6.0423
M15
G01X5.4114Y-6.0423
M16
G05
G00X5.4508Y-6.2274
M15
G01X5.4114Y-6.2274
M16
G05
G00X5.6594Y-5.8573
M15
G01X5.6201Y-5.8573
M16
G05
G00X5.6594Y-6.0433
M15
G01X5.6201Y-6.0433
M16
G05
G00X5.6594Y-6.2274
M15
G01X5.6201Y-6.2274
M16
G05
G00X5.8681Y-5.8573
M15
G01X5.8287Y-5.8573
M16
G05
G00X5.8681Y-6.0423
M15
G01X5.8287Y-6.0423
M16
G05
G00X5.8681Y-6.2274
M15
G01X5.8287Y-6.2274
M16
G05
M30
