%TF.GenerationSoftware,KiCad,Pcbnew,6.0.0-d3dd2cf0fa~116~ubuntu20.04.1*%
%TF.CreationDate,2022-01-02T14:57:44+00:00*%
%TF.ProjectId,combined,636f6d62-696e-4656-942e-6b696361645f,rev?*%
%TF.SameCoordinates,Original*%
%TF.FileFunction,Soldermask,Top*%
%TF.FilePolarity,Negative*%
%FSLAX46Y46*%
G04 Gerber Fmt 4.6, Leading zero omitted, Abs format (unit mm)*
G04 Created by KiCad (PCBNEW 6.0.0-d3dd2cf0fa~116~ubuntu20.04.1) date 2022-01-02 14:57:44*
%MOMM*%
%LPD*%
G01*
G04 APERTURE LIST*
G04 Aperture macros list*
%AMRoundRect*
0 Rectangle with rounded corners*
0 $1 Rounding radius*
0 $2 $3 $4 $5 $6 $7 $8 $9 X,Y pos of 4 corners*
0 Add a 4 corners polygon primitive as box body*
4,1,4,$2,$3,$4,$5,$6,$7,$8,$9,$2,$3,0*
0 Add four circle primitives for the rounded corners*
1,1,$1+$1,$2,$3*
1,1,$1+$1,$4,$5*
1,1,$1+$1,$6,$7*
1,1,$1+$1,$8,$9*
0 Add four rect primitives between the rounded corners*
20,1,$1+$1,$2,$3,$4,$5,0*
20,1,$1+$1,$4,$5,$6,$7,0*
20,1,$1+$1,$6,$7,$8,$9,0*
20,1,$1+$1,$8,$9,$2,$3,0*%
G04 Aperture macros list end*
%ADD10RoundRect,0.200000X1.300000X0.750000X-1.300000X0.750000X-1.300000X-0.750000X1.300000X-0.750000X0*%
%ADD11O,3.000000X1.900000*%
%ADD12C,3.400000*%
%ADD13RoundRect,0.200000X0.850000X-0.850000X0.850000X0.850000X-0.850000X0.850000X-0.850000X-0.850000X0*%
%ADD14O,2.100000X2.100000*%
%ADD15RoundRect,0.200000X-0.800000X0.800000X-0.800000X-0.800000X0.800000X-0.800000X0.800000X0.800000X0*%
%ADD16C,2.000000*%
%ADD17RoundRect,0.200000X1.000000X0.950000X-1.000000X0.950000X-1.000000X-0.950000X1.000000X-0.950000X0*%
%ADD18C,2.300000*%
%ADD19C,2.398980*%
%ADD20RoundRect,0.200000X-0.650000X-0.650000X0.650000X-0.650000X0.650000X0.650000X-0.650000X0.650000X0*%
%ADD21C,1.700000*%
%ADD22O,2.000000X2.000000*%
%ADD23O,4.400000X4.400000*%
%ADD24RoundRect,0.200000X-0.900000X0.900000X-0.900000X-0.900000X0.900000X-0.900000X0.900000X0.900000X0*%
%ADD25C,2.200000*%
%ADD26C,3.800000*%
%ADD27RoundRect,0.200000X0.900000X-0.900000X0.900000X0.900000X-0.900000X0.900000X-0.900000X-0.900000X0*%
%ADD28RoundRect,0.200000X0.750000X0.750000X-0.750000X0.750000X-0.750000X-0.750000X0.750000X-0.750000X0*%
%ADD29C,1.900000*%
%ADD30C,4.400000*%
%ADD31RoundRect,0.200000X-0.525000X-0.750000X0.525000X-0.750000X0.525000X0.750000X-0.525000X0.750000X0*%
%ADD32O,1.450000X1.900000*%
%ADD33RoundRect,0.200000X-0.750000X0.525000X-0.750000X-0.525000X0.750000X-0.525000X0.750000X0.525000X0*%
%ADD34O,1.900000X1.450000*%
%ADD35RoundRect,0.200000X0.750000X-0.525000X0.750000X0.525000X-0.750000X0.525000X-0.750000X-0.525000X0*%
%ADD36RoundRect,0.200000X0.800000X0.800000X-0.800000X0.800000X-0.800000X-0.800000X0.800000X-0.800000X0*%
%ADD37RoundRect,0.200000X-1.000000X-1.000000X1.000000X-1.000000X1.000000X1.000000X-1.000000X1.000000X0*%
%ADD38C,2.400000*%
%ADD39RoundRect,0.200000X-0.800000X-0.800000X0.800000X-0.800000X0.800000X0.800000X-0.800000X0.800000X0*%
G04 APERTURE END LIST*
D10*
%TO.C,SW1*%
X76108400Y-133813400D03*
D11*
X70808400Y-133813400D03*
X65508400Y-133813400D03*
X76108400Y-138513400D03*
X70808400Y-138538400D03*
X65508400Y-138513400D03*
X76108400Y-143213400D03*
X70808400Y-143213400D03*
X65508400Y-143213400D03*
%TD*%
D12*
%TO.C,J3*%
X49808400Y-126718400D03*
X62508400Y-126718400D03*
X56158400Y-126718400D03*
X49808400Y-110488400D03*
X62508400Y-110488400D03*
X56158400Y-110488400D03*
%TD*%
D13*
%TO.C,J2*%
X69208400Y-60288400D03*
D14*
X71748400Y-60288400D03*
%TD*%
D15*
%TO.C,C2*%
X89558400Y-136188400D03*
D16*
X89558400Y-138688400D03*
%TD*%
D17*
%TO.C,D1*%
X50058400Y-133528400D03*
D18*
X50058400Y-130988400D03*
%TD*%
D19*
%TO.C,R1*%
X83031800Y-138558600D03*
X83031800Y-130938600D03*
%TD*%
%TO.C,R3*%
X58558400Y-131008400D03*
X58558400Y-138628400D03*
%TD*%
%TO.C,R2*%
X55308400Y-138608400D03*
X55308400Y-130988400D03*
%TD*%
D20*
%TO.C,C1*%
X88608400Y-130988400D03*
D21*
X93608400Y-130988400D03*
%TD*%
D12*
%TO.C,J1*%
X90808400Y-110518400D03*
X78108400Y-110518400D03*
X84458400Y-110518400D03*
X90808400Y-126748400D03*
X78108400Y-126748400D03*
X84458400Y-126748400D03*
%TD*%
D16*
%TO.C,FXC4*%
X65368000Y-88317400D03*
X70368000Y-88317400D03*
%TD*%
%TO.C,FXC1*%
X74243400Y-105056000D03*
X74243400Y-100056000D03*
%TD*%
%TO.C,FXR2*%
X63575400Y-100484000D03*
D22*
X71195400Y-100484000D03*
%TD*%
D23*
%TO.C,RV2*%
X73402200Y-66778000D03*
X73402200Y-76278000D03*
D24*
X65902200Y-69028000D03*
D25*
X65902200Y-71528000D03*
X65902200Y-74028000D03*
%TD*%
D26*
%TO.C,TP1*%
X64007200Y-77700200D03*
%TD*%
D16*
%TO.C,FXC2*%
X60679800Y-70609800D03*
X60679800Y-65609800D03*
%TD*%
D15*
%TO.C,FXC3*%
X72795600Y-81618806D03*
D16*
X72795600Y-84118806D03*
%TD*%
D27*
%TO.C,D2*%
X80390200Y-96902600D03*
D25*
X80390200Y-94362600D03*
%TD*%
D16*
%TO.C,FXR7*%
X83768400Y-80291000D03*
D22*
X83768400Y-87911000D03*
%TD*%
D28*
%TO.C,Q2*%
X66577000Y-82983400D03*
D29*
X64037000Y-82983400D03*
X61497000Y-82983400D03*
%TD*%
D16*
%TO.C,FXC5*%
X82792400Y-66219400D03*
X87792400Y-66219400D03*
%TD*%
%TO.C,FXR4*%
X72897200Y-90959000D03*
D22*
X80517200Y-90959000D03*
%TD*%
D16*
%TO.C,FXR1*%
X84505000Y-100509400D03*
D22*
X76885000Y-100509400D03*
%TD*%
D16*
%TO.C,FXR3*%
X63448400Y-103811400D03*
D22*
X71068400Y-103811400D03*
%TD*%
D30*
%TO.C,RV3*%
X80917800Y-56100000D03*
X89717800Y-56100000D03*
D25*
X87817800Y-63100000D03*
X85317800Y-63100000D03*
X82817800Y-63100000D03*
%TD*%
D30*
%TO.C,RV1*%
X57993200Y-56100000D03*
X49193200Y-56100000D03*
D25*
X56093200Y-63100000D03*
X53593200Y-63100000D03*
X51093200Y-63100000D03*
%TD*%
D16*
%TO.C,FXR6*%
X80441000Y-83643800D03*
D22*
X80441000Y-76023800D03*
%TD*%
D16*
%TO.C,FXR5*%
X57403200Y-66143200D03*
D22*
X49783200Y-66143200D03*
%TD*%
D31*
%TO.C,Q1*%
X72922600Y-96851800D03*
D32*
X74192600Y-96851800D03*
X75462600Y-96851800D03*
%TD*%
D10*
%TO.C,SW1*%
X133410800Y-133813400D03*
D11*
X128110800Y-133813400D03*
X122810800Y-133813400D03*
X133410800Y-138513400D03*
X128110800Y-138538400D03*
X122810800Y-138513400D03*
X133410800Y-143213400D03*
X128110800Y-143213400D03*
X122810800Y-143213400D03*
%TD*%
D12*
%TO.C,J3*%
X107110800Y-126718400D03*
X119810800Y-126718400D03*
X113460800Y-126718400D03*
X107110800Y-110488400D03*
X119810800Y-110488400D03*
X113460800Y-110488400D03*
%TD*%
D13*
%TO.C,J1*%
X126510800Y-60288400D03*
D14*
X129050800Y-60288400D03*
%TD*%
D15*
%TO.C,C2*%
X146860800Y-136188400D03*
D16*
X146860800Y-138688400D03*
%TD*%
D17*
%TO.C,D1*%
X107360800Y-133528400D03*
D18*
X107360800Y-130988400D03*
%TD*%
D19*
%TO.C,R1*%
X140334200Y-138558600D03*
X140334200Y-130938600D03*
%TD*%
%TO.C,R2*%
X115860800Y-131008400D03*
X115860800Y-138628400D03*
%TD*%
%TO.C,R3*%
X112610800Y-138608400D03*
X112610800Y-130988400D03*
%TD*%
D20*
%TO.C,C1*%
X145910800Y-130988400D03*
D21*
X150910800Y-130988400D03*
%TD*%
D12*
%TO.C,J2*%
X148110800Y-110518400D03*
X135410800Y-110518400D03*
X141760800Y-110518400D03*
X148110800Y-126748400D03*
X135410800Y-126748400D03*
X141760800Y-126748400D03*
%TD*%
D16*
%TO.C,FXR7*%
X133577800Y-80646600D03*
D22*
X133577800Y-88266600D03*
%TD*%
D16*
%TO.C,FXR11*%
X139038800Y-68124400D03*
D22*
X146658800Y-68124400D03*
%TD*%
D16*
%TO.C,FXR8*%
X103986800Y-71426400D03*
D22*
X111606800Y-71426400D03*
%TD*%
D16*
%TO.C,FXC1*%
X134633800Y-101627000D03*
X139633800Y-101627000D03*
%TD*%
%TO.C,FXC7*%
X140602800Y-74982400D03*
X145602800Y-74982400D03*
%TD*%
D33*
%TO.C,FXQ1*%
X140054800Y-93016400D03*
D34*
X140054800Y-94286400D03*
X140054800Y-95556400D03*
%TD*%
D16*
%TO.C,FXC8*%
X123305400Y-63755600D03*
X128305400Y-63755600D03*
%TD*%
D35*
%TO.C,Q1*%
X119332800Y-91238400D03*
D34*
X119332800Y-89968400D03*
X119332800Y-88698400D03*
%TD*%
D16*
%TO.C,FXR13*%
X105129800Y-96445400D03*
D22*
X105129800Y-88825400D03*
%TD*%
D16*
%TO.C,FXR3*%
X152246800Y-93016400D03*
D22*
X144626800Y-93016400D03*
%TD*%
D36*
%TO.C,U1*%
X130900800Y-89958400D03*
D22*
X130900800Y-87418400D03*
X130900800Y-84878400D03*
X130900800Y-82338400D03*
X123280800Y-82338400D03*
X123280800Y-84878400D03*
X123280800Y-87418400D03*
X123280800Y-89958400D03*
%TD*%
D16*
%TO.C,R4*%
X148182800Y-89968400D03*
D22*
X148182800Y-82348400D03*
%TD*%
D37*
%TO.C,FXC9*%
X105962523Y-103278000D03*
D38*
X110962523Y-103278000D03*
%TD*%
D36*
%TO.C,FXC6*%
X116864600Y-71578800D03*
D16*
X114364600Y-71578800D03*
%TD*%
D39*
%TO.C,FXD1*%
X123316200Y-95886600D03*
D22*
X130936200Y-95886600D03*
%TD*%
D30*
%TO.C,RV2*%
X127365000Y-67661400D03*
X127365000Y-76461400D03*
D25*
X120365000Y-74561400D03*
X120365000Y-72061400D03*
X120365000Y-69561400D03*
%TD*%
D16*
%TO.C,FXR12*%
X107822200Y-88774600D03*
D22*
X115442200Y-88774600D03*
%TD*%
D16*
%TO.C,FXR2*%
X142086800Y-98604400D03*
D22*
X149706800Y-98604400D03*
%TD*%
D16*
%TO.C,FXR4*%
X121004800Y-97969400D03*
D22*
X113384800Y-97969400D03*
%TD*%
D16*
%TO.C,FXR14*%
X105206000Y-78665400D03*
D22*
X105206000Y-86285400D03*
%TD*%
D16*
%TO.C,FXR15*%
X116178800Y-106224400D03*
D22*
X123798800Y-106224400D03*
%TD*%
D16*
%TO.C,FXR22*%
X144372800Y-104700400D03*
D22*
X136752800Y-104700400D03*
%TD*%
D30*
%TO.C,RV3*%
X147020200Y-56100000D03*
X138220200Y-56100000D03*
D25*
X145120200Y-63100000D03*
X142620200Y-63100000D03*
X140120200Y-63100000D03*
%TD*%
D16*
%TO.C,FXC2*%
X145348800Y-88444400D03*
X140348800Y-88444400D03*
%TD*%
%TO.C,FXC3*%
X115964800Y-94794400D03*
X120964800Y-94794400D03*
%TD*%
%TO.C,R5*%
X151484800Y-82348400D03*
D22*
X151484800Y-89968400D03*
%TD*%
D30*
%TO.C,RV1*%
X115295600Y-56100000D03*
X106495600Y-56100000D03*
D25*
X113395600Y-63100000D03*
X110895600Y-63100000D03*
X108395600Y-63100000D03*
%TD*%
D16*
%TO.C,FXC5*%
X114781800Y-80468800D03*
X119781800Y-80468800D03*
%TD*%
%TO.C,FXC4*%
X124408400Y-98782200D03*
X129408400Y-98782200D03*
%TD*%
%TO.C,FXR1*%
X142086800Y-101652400D03*
D22*
X149706800Y-101652400D03*
%TD*%
D16*
%TO.C,FXR6*%
X114908800Y-66346400D03*
D22*
X107288800Y-66346400D03*
%TD*%
D16*
%TO.C,FXR10*%
X137006800Y-79300400D03*
D22*
X137006800Y-71680400D03*
%TD*%
D16*
%TO.C,FXR5*%
X136498800Y-98096400D03*
D22*
X136498800Y-90476400D03*
%TD*%
D16*
%TO.C,FXR9*%
X144118800Y-82602400D03*
D22*
X136498800Y-82602400D03*
%TD*%
D36*
%TO.C,FXD2*%
X130910800Y-93016400D03*
D22*
X123290800Y-93016400D03*
%TD*%
M02*
