%TF.GenerationSoftware,KiCad,Pcbnew,6.0.0-d3dd2cf0fa~116~ubuntu20.04.1*%
%TF.CreationDate,2022-01-02T14:57:44+00:00*%
%TF.ProjectId,combined,636f6d62-696e-4656-942e-6b696361645f,rev?*%
%TF.SameCoordinates,Original*%
%TF.FileFunction,Legend,Top*%
%TF.FilePolarity,Positive*%
%FSLAX46Y46*%
G04 Gerber Fmt 4.6, Leading zero omitted, Abs format (unit mm)*
G04 Created by KiCad (PCBNEW 6.0.0-d3dd2cf0fa~116~ubuntu20.04.1) date 2022-01-02 14:57:44*
%MOMM*%
%LPD*%
G01*
G04 APERTURE LIST*
%ADD10C,0.150000*%
%ADD11C,0.120000*%
%ADD12R,2.600000X1.500000*%
%ADD13O,2.600000X1.500000*%
%ADD14R,2.000000X1.900000*%
%ADD15C,1.900000*%
%ADD16C,1.998980*%
%ADD17R,1.300000X1.300000*%
%ADD18C,1.300000*%
G04 APERTURE END LIST*
D10*
X129564600Y-71426400D02*
X129564600Y-72925000D01*
X142645600Y-54103600D02*
X142645600Y-55373600D01*
X111632200Y-55627600D02*
X110895600Y-54789400D01*
X130682200Y-72213800D02*
X128548600Y-72213800D01*
X143433000Y-54738600D02*
X142645600Y-54103600D01*
X110895600Y-54789400D02*
X110895600Y-56186400D01*
X142290000Y-54738600D02*
X143433000Y-54738600D01*
X110413000Y-55627600D02*
X111632200Y-55627600D01*
X128548600Y-72213800D02*
X129564600Y-71426400D01*
%TO.C,J3*%
X67308400Y-123420780D02*
X67498876Y-123420780D01*
X67594114Y-123468400D01*
X67689352Y-123563638D01*
X67736971Y-123754114D01*
X67736971Y-124087447D01*
X67689352Y-124277923D01*
X67594114Y-124373161D01*
X67498876Y-124420780D01*
X67308400Y-124420780D01*
X67213161Y-124373161D01*
X67117923Y-124277923D01*
X67070304Y-124087447D01*
X67070304Y-123754114D01*
X67117923Y-123563638D01*
X67213161Y-123468400D01*
X67308400Y-123420780D01*
X68165542Y-123420780D02*
X68165542Y-124230304D01*
X68213161Y-124325542D01*
X68260780Y-124373161D01*
X68356019Y-124420780D01*
X68546495Y-124420780D01*
X68641733Y-124373161D01*
X68689352Y-124325542D01*
X68736971Y-124230304D01*
X68736971Y-123420780D01*
X69070304Y-123420780D02*
X69641733Y-123420780D01*
X69356019Y-124420780D02*
X69356019Y-123420780D01*
%TO.C,J2*%
X66330780Y-60621733D02*
X67045066Y-60621733D01*
X67187923Y-60669352D01*
X67283161Y-60764590D01*
X67330780Y-60907447D01*
X67330780Y-61002685D01*
X66426019Y-60193161D02*
X66378400Y-60145542D01*
X66330780Y-60050304D01*
X66330780Y-59812209D01*
X66378400Y-59716971D01*
X66426019Y-59669352D01*
X66521257Y-59621733D01*
X66616495Y-59621733D01*
X66759352Y-59669352D01*
X67330780Y-60240780D01*
X67330780Y-59621733D01*
%TO.C,C2*%
X85341733Y-141695542D02*
X85294114Y-141743161D01*
X85151257Y-141790780D01*
X85056019Y-141790780D01*
X84913161Y-141743161D01*
X84817923Y-141647923D01*
X84770304Y-141552685D01*
X84722685Y-141362209D01*
X84722685Y-141219352D01*
X84770304Y-141028876D01*
X84817923Y-140933638D01*
X84913161Y-140838400D01*
X85056019Y-140790780D01*
X85151257Y-140790780D01*
X85294114Y-140838400D01*
X85341733Y-140886019D01*
X85722685Y-140886019D02*
X85770304Y-140838400D01*
X85865542Y-140790780D01*
X86103638Y-140790780D01*
X86198876Y-140838400D01*
X86246495Y-140886019D01*
X86294114Y-140981257D01*
X86294114Y-141076495D01*
X86246495Y-141219352D01*
X85675066Y-141790780D01*
X86294114Y-141790780D01*
X85341733Y-143290780D02*
X84770304Y-143290780D01*
X85056019Y-143290780D02*
X85056019Y-142290780D01*
X84960780Y-142433638D01*
X84865542Y-142528876D01*
X84770304Y-142576495D01*
X85960780Y-142290780D02*
X86056019Y-142290780D01*
X86151257Y-142338400D01*
X86198876Y-142386019D01*
X86246495Y-142481257D01*
X86294114Y-142671733D01*
X86294114Y-142909828D01*
X86246495Y-143100304D01*
X86198876Y-143195542D01*
X86151257Y-143243161D01*
X86056019Y-143290780D01*
X85960780Y-143290780D01*
X85865542Y-143243161D01*
X85817923Y-143195542D01*
X85770304Y-143100304D01*
X85722685Y-142909828D01*
X85722685Y-142671733D01*
X85770304Y-142481257D01*
X85817923Y-142386019D01*
X85865542Y-142338400D01*
X85960780Y-142290780D01*
X86913161Y-142290780D02*
X87008400Y-142290780D01*
X87103638Y-142338400D01*
X87151257Y-142386019D01*
X87198876Y-142481257D01*
X87246495Y-142671733D01*
X87246495Y-142909828D01*
X87198876Y-143100304D01*
X87151257Y-143195542D01*
X87103638Y-143243161D01*
X87008400Y-143290780D01*
X86913161Y-143290780D01*
X86817923Y-143243161D01*
X86770304Y-143195542D01*
X86722685Y-143100304D01*
X86675066Y-142909828D01*
X86675066Y-142671733D01*
X86722685Y-142481257D01*
X86770304Y-142386019D01*
X86817923Y-142338400D01*
X86913161Y-142290780D01*
%TO.C,D1*%
X49820304Y-136440780D02*
X49820304Y-135440780D01*
X50058400Y-135440780D01*
X50201257Y-135488400D01*
X50296495Y-135583638D01*
X50344114Y-135678876D01*
X50391733Y-135869352D01*
X50391733Y-136012209D01*
X50344114Y-136202685D01*
X50296495Y-136297923D01*
X50201257Y-136393161D01*
X50058400Y-136440780D01*
X49820304Y-136440780D01*
X51344114Y-136440780D02*
X50772685Y-136440780D01*
X51058400Y-136440780D02*
X51058400Y-135440780D01*
X50963161Y-135583638D01*
X50867923Y-135678876D01*
X50772685Y-135726495D01*
%TO.C,R1*%
X85634180Y-136575266D02*
X85157990Y-136908600D01*
X85634180Y-137146695D02*
X84634180Y-137146695D01*
X84634180Y-136765742D01*
X84681800Y-136670504D01*
X84729419Y-136622885D01*
X84824657Y-136575266D01*
X84967514Y-136575266D01*
X85062752Y-136622885D01*
X85110371Y-136670504D01*
X85157990Y-136765742D01*
X85157990Y-137146695D01*
X85634180Y-135622885D02*
X85634180Y-136194314D01*
X85634180Y-135908600D02*
X84634180Y-135908600D01*
X84777038Y-136003838D01*
X84872276Y-136099076D01*
X84919895Y-136194314D01*
X85634180Y-133694314D02*
X85634180Y-134265742D01*
X85634180Y-133980028D02*
X84634180Y-133980028D01*
X84777038Y-134075266D01*
X84872276Y-134170504D01*
X84919895Y-134265742D01*
X85634180Y-133265742D02*
X84634180Y-133265742D01*
X85348466Y-132932409D01*
X84634180Y-132599076D01*
X85634180Y-132599076D01*
%TO.C,R3*%
X61260780Y-130795066D02*
X60784590Y-131128400D01*
X61260780Y-131366495D02*
X60260780Y-131366495D01*
X60260780Y-130985542D01*
X60308400Y-130890304D01*
X60356019Y-130842685D01*
X60451257Y-130795066D01*
X60594114Y-130795066D01*
X60689352Y-130842685D01*
X60736971Y-130890304D01*
X60784590Y-130985542D01*
X60784590Y-131366495D01*
X60260780Y-130461733D02*
X60260780Y-129842685D01*
X60641733Y-130176019D01*
X60641733Y-130033161D01*
X60689352Y-129937923D01*
X60736971Y-129890304D01*
X60832209Y-129842685D01*
X61070304Y-129842685D01*
X61165542Y-129890304D01*
X61213161Y-129937923D01*
X61260780Y-130033161D01*
X61260780Y-130318876D01*
X61213161Y-130414114D01*
X61165542Y-130461733D01*
X61260780Y-133914114D02*
X61260780Y-134485542D01*
X61260780Y-134199828D02*
X60260780Y-134199828D01*
X60403638Y-134295066D01*
X60498876Y-134390304D01*
X60546495Y-134485542D01*
X61260780Y-133485542D02*
X60260780Y-133485542D01*
X60975066Y-133152209D01*
X60260780Y-132818876D01*
X61260780Y-132818876D01*
%TO.C,R2*%
X53510780Y-136025066D02*
X53034590Y-136358400D01*
X53510780Y-136596495D02*
X52510780Y-136596495D01*
X52510780Y-136215542D01*
X52558400Y-136120304D01*
X52606019Y-136072685D01*
X52701257Y-136025066D01*
X52844114Y-136025066D01*
X52939352Y-136072685D01*
X52986971Y-136120304D01*
X53034590Y-136215542D01*
X53034590Y-136596495D01*
X52606019Y-135644114D02*
X52558400Y-135596495D01*
X52510780Y-135501257D01*
X52510780Y-135263161D01*
X52558400Y-135167923D01*
X52606019Y-135120304D01*
X52701257Y-135072685D01*
X52796495Y-135072685D01*
X52939352Y-135120304D01*
X53510780Y-135691733D01*
X53510780Y-135072685D01*
X53510780Y-139072685D02*
X53510780Y-139644114D01*
X53510780Y-139358400D02*
X52510780Y-139358400D01*
X52653638Y-139453638D01*
X52748876Y-139548876D01*
X52796495Y-139644114D01*
X53510780Y-138644114D02*
X52510780Y-138644114D01*
X53510780Y-138072685D02*
X52939352Y-138501257D01*
X52510780Y-138072685D02*
X53082209Y-138644114D01*
%TO.C,C1*%
X86915542Y-131155066D02*
X86963161Y-131202685D01*
X87010780Y-131345542D01*
X87010780Y-131440780D01*
X86963161Y-131583638D01*
X86867923Y-131678876D01*
X86772685Y-131726495D01*
X86582209Y-131774114D01*
X86439352Y-131774114D01*
X86248876Y-131726495D01*
X86153638Y-131678876D01*
X86058400Y-131583638D01*
X86010780Y-131440780D01*
X86010780Y-131345542D01*
X86058400Y-131202685D01*
X86106019Y-131155066D01*
X87010780Y-130202685D02*
X87010780Y-130774114D01*
X87010780Y-130488400D02*
X86010780Y-130488400D01*
X86153638Y-130583638D01*
X86248876Y-130678876D01*
X86296495Y-130774114D01*
X95010780Y-131750304D02*
X95010780Y-131655066D01*
X95058400Y-131559828D01*
X95106019Y-131512209D01*
X95201257Y-131464590D01*
X95391733Y-131416971D01*
X95629828Y-131416971D01*
X95820304Y-131464590D01*
X95915542Y-131512209D01*
X95963161Y-131559828D01*
X96010780Y-131655066D01*
X96010780Y-131750304D01*
X95963161Y-131845542D01*
X95915542Y-131893161D01*
X95820304Y-131940780D01*
X95629828Y-131988400D01*
X95391733Y-131988400D01*
X95201257Y-131940780D01*
X95106019Y-131893161D01*
X95058400Y-131845542D01*
X95010780Y-131750304D01*
X95915542Y-130988400D02*
X95963161Y-130940780D01*
X96010780Y-130988400D01*
X95963161Y-131036019D01*
X95915542Y-130988400D01*
X96010780Y-130988400D01*
X96010780Y-129988400D02*
X96010780Y-130559828D01*
X96010780Y-130274114D02*
X95010780Y-130274114D01*
X95153638Y-130369352D01*
X95248876Y-130464590D01*
X95296495Y-130559828D01*
%TO.C,J1*%
X71284590Y-124250780D02*
X71284590Y-123250780D01*
X71760780Y-124250780D02*
X71760780Y-123250780D01*
X72332209Y-124250780D01*
X72332209Y-123250780D01*
%TO.C,FXC4*%
X66558476Y-85745971D02*
X66225142Y-85745971D01*
X66225142Y-86269780D02*
X66225142Y-85269780D01*
X66701333Y-85269780D01*
X66987047Y-85269780D02*
X67653714Y-86269780D01*
X67653714Y-85269780D02*
X66987047Y-86269780D01*
X68606095Y-86174542D02*
X68558476Y-86222161D01*
X68415619Y-86269780D01*
X68320380Y-86269780D01*
X68177523Y-86222161D01*
X68082285Y-86126923D01*
X68034666Y-86031685D01*
X67987047Y-85841209D01*
X67987047Y-85698352D01*
X68034666Y-85507876D01*
X68082285Y-85412638D01*
X68177523Y-85317400D01*
X68320380Y-85269780D01*
X68415619Y-85269780D01*
X68558476Y-85317400D01*
X68606095Y-85365019D01*
X69463238Y-85603114D02*
X69463238Y-86269780D01*
X69225142Y-85222161D02*
X68987047Y-85936447D01*
X69606095Y-85936447D01*
%TO.C,FXC1*%
X74171971Y-109301123D02*
X74171971Y-109634457D01*
X74695780Y-109634457D02*
X73695780Y-109634457D01*
X73695780Y-109158266D01*
X73695780Y-108872552D02*
X74695780Y-108205885D01*
X73695780Y-108205885D02*
X74695780Y-108872552D01*
X74600542Y-107253504D02*
X74648161Y-107301123D01*
X74695780Y-107443980D01*
X74695780Y-107539219D01*
X74648161Y-107682076D01*
X74552923Y-107777314D01*
X74457685Y-107824933D01*
X74267209Y-107872552D01*
X74124352Y-107872552D01*
X73933876Y-107824933D01*
X73838638Y-107777314D01*
X73743400Y-107682076D01*
X73695780Y-107539219D01*
X73695780Y-107443980D01*
X73743400Y-107301123D01*
X73791019Y-107253504D01*
X74695780Y-106301123D02*
X74695780Y-106872552D01*
X74695780Y-106586838D02*
X73695780Y-106586838D01*
X73838638Y-106682076D01*
X73933876Y-106777314D01*
X73981495Y-106872552D01*
%TO.C,FXR2*%
X66075876Y-98042571D02*
X65742542Y-98042571D01*
X65742542Y-98566380D02*
X65742542Y-97566380D01*
X66218733Y-97566380D01*
X66504447Y-97566380D02*
X67171114Y-98566380D01*
X67171114Y-97566380D02*
X66504447Y-98566380D01*
X68123495Y-98566380D02*
X67790161Y-98090190D01*
X67552066Y-98566380D02*
X67552066Y-97566380D01*
X67933019Y-97566380D01*
X68028257Y-97614000D01*
X68075876Y-97661619D01*
X68123495Y-97756857D01*
X68123495Y-97899714D01*
X68075876Y-97994952D01*
X68028257Y-98042571D01*
X67933019Y-98090190D01*
X67552066Y-98090190D01*
X68504447Y-97661619D02*
X68552066Y-97614000D01*
X68647304Y-97566380D01*
X68885400Y-97566380D01*
X68980638Y-97614000D01*
X69028257Y-97661619D01*
X69075876Y-97756857D01*
X69075876Y-97852095D01*
X69028257Y-97994952D01*
X68456828Y-98566380D01*
X69075876Y-98566380D01*
%TO.C,RV2*%
X79854580Y-72123238D02*
X79378390Y-72456571D01*
X79854580Y-72694666D02*
X78854580Y-72694666D01*
X78854580Y-72313714D01*
X78902200Y-72218476D01*
X78949819Y-72170857D01*
X79045057Y-72123238D01*
X79187914Y-72123238D01*
X79283152Y-72170857D01*
X79330771Y-72218476D01*
X79378390Y-72313714D01*
X79378390Y-72694666D01*
X78854580Y-71837523D02*
X79854580Y-71504190D01*
X78854580Y-71170857D01*
X78949819Y-70885142D02*
X78902200Y-70837523D01*
X78854580Y-70742285D01*
X78854580Y-70504190D01*
X78902200Y-70408952D01*
X78949819Y-70361333D01*
X79045057Y-70313714D01*
X79140295Y-70313714D01*
X79283152Y-70361333D01*
X79854580Y-70932761D01*
X79854580Y-70313714D01*
%TO.C,TP1*%
X63445295Y-79952580D02*
X64016723Y-79952580D01*
X63731009Y-80952580D02*
X63731009Y-79952580D01*
X64350057Y-80952580D02*
X64350057Y-79952580D01*
X64731009Y-79952580D01*
X64826247Y-80000200D01*
X64873866Y-80047819D01*
X64921485Y-80143057D01*
X64921485Y-80285914D01*
X64873866Y-80381152D01*
X64826247Y-80428771D01*
X64731009Y-80476390D01*
X64350057Y-80476390D01*
X65873866Y-80952580D02*
X65302438Y-80952580D01*
X65588152Y-80952580D02*
X65588152Y-79952580D01*
X65492914Y-80095438D01*
X65397676Y-80190676D01*
X65302438Y-80238295D01*
%TO.C,FXC2*%
X58108371Y-69419323D02*
X58108371Y-69752657D01*
X58632180Y-69752657D02*
X57632180Y-69752657D01*
X57632180Y-69276466D01*
X57632180Y-68990752D02*
X58632180Y-68324085D01*
X57632180Y-68324085D02*
X58632180Y-68990752D01*
X58536942Y-67371704D02*
X58584561Y-67419323D01*
X58632180Y-67562180D01*
X58632180Y-67657419D01*
X58584561Y-67800276D01*
X58489323Y-67895514D01*
X58394085Y-67943133D01*
X58203609Y-67990752D01*
X58060752Y-67990752D01*
X57870276Y-67943133D01*
X57775038Y-67895514D01*
X57679800Y-67800276D01*
X57632180Y-67657419D01*
X57632180Y-67562180D01*
X57679800Y-67419323D01*
X57727419Y-67371704D01*
X57727419Y-66990752D02*
X57679800Y-66943133D01*
X57632180Y-66847895D01*
X57632180Y-66609800D01*
X57679800Y-66514561D01*
X57727419Y-66466942D01*
X57822657Y-66419323D01*
X57917895Y-66419323D01*
X58060752Y-66466942D01*
X58632180Y-67038371D01*
X58632180Y-66419323D01*
%TO.C,FXC3*%
X77724171Y-84178329D02*
X77724171Y-84511663D01*
X78247980Y-84511663D02*
X77247980Y-84511663D01*
X77247980Y-84035472D01*
X77247980Y-83749758D02*
X78247980Y-83083091D01*
X77247980Y-83083091D02*
X78247980Y-83749758D01*
X78152742Y-82130710D02*
X78200361Y-82178329D01*
X78247980Y-82321186D01*
X78247980Y-82416425D01*
X78200361Y-82559282D01*
X78105123Y-82654520D01*
X78009885Y-82702139D01*
X77819409Y-82749758D01*
X77676552Y-82749758D01*
X77486076Y-82702139D01*
X77390838Y-82654520D01*
X77295600Y-82559282D01*
X77247980Y-82416425D01*
X77247980Y-82321186D01*
X77295600Y-82178329D01*
X77343219Y-82130710D01*
X77247980Y-81797377D02*
X77247980Y-81178329D01*
X77628933Y-81511663D01*
X77628933Y-81368806D01*
X77676552Y-81273567D01*
X77724171Y-81225948D01*
X77819409Y-81178329D01*
X78057504Y-81178329D01*
X78152742Y-81225948D01*
X78200361Y-81273567D01*
X78247980Y-81368806D01*
X78247980Y-81654520D01*
X78200361Y-81749758D01*
X78152742Y-81797377D01*
%TO.C,D2*%
X76882580Y-96370695D02*
X75882580Y-96370695D01*
X75882580Y-96132600D01*
X75930200Y-95989742D01*
X76025438Y-95894504D01*
X76120676Y-95846885D01*
X76311152Y-95799266D01*
X76454009Y-95799266D01*
X76644485Y-95846885D01*
X76739723Y-95894504D01*
X76834961Y-95989742D01*
X76882580Y-96132600D01*
X76882580Y-96370695D01*
X75977819Y-95418314D02*
X75930200Y-95370695D01*
X75882580Y-95275457D01*
X75882580Y-95037361D01*
X75930200Y-94942123D01*
X75977819Y-94894504D01*
X76073057Y-94846885D01*
X76168295Y-94846885D01*
X76311152Y-94894504D01*
X76882580Y-95465933D01*
X76882580Y-94846885D01*
%TO.C,FXR7*%
X86066971Y-85410523D02*
X86066971Y-85743857D01*
X86590780Y-85743857D02*
X85590780Y-85743857D01*
X85590780Y-85267666D01*
X85590780Y-84981952D02*
X86590780Y-84315285D01*
X85590780Y-84315285D02*
X86590780Y-84981952D01*
X86590780Y-83362904D02*
X86114590Y-83696238D01*
X86590780Y-83934333D02*
X85590780Y-83934333D01*
X85590780Y-83553380D01*
X85638400Y-83458142D01*
X85686019Y-83410523D01*
X85781257Y-83362904D01*
X85924114Y-83362904D01*
X86019352Y-83410523D01*
X86066971Y-83458142D01*
X86114590Y-83553380D01*
X86114590Y-83934333D01*
X85590780Y-83029571D02*
X85590780Y-82362904D01*
X86590780Y-82791476D01*
%TO.C,Q2*%
X63941761Y-87091019D02*
X63846523Y-87043400D01*
X63751285Y-86948161D01*
X63608428Y-86805304D01*
X63513190Y-86757685D01*
X63417952Y-86757685D01*
X63465571Y-86995780D02*
X63370333Y-86948161D01*
X63275095Y-86852923D01*
X63227476Y-86662447D01*
X63227476Y-86329114D01*
X63275095Y-86138638D01*
X63370333Y-86043400D01*
X63465571Y-85995780D01*
X63656047Y-85995780D01*
X63751285Y-86043400D01*
X63846523Y-86138638D01*
X63894142Y-86329114D01*
X63894142Y-86662447D01*
X63846523Y-86852923D01*
X63751285Y-86948161D01*
X63656047Y-86995780D01*
X63465571Y-86995780D01*
X64275095Y-86091019D02*
X64322714Y-86043400D01*
X64417952Y-85995780D01*
X64656047Y-85995780D01*
X64751285Y-86043400D01*
X64798904Y-86091019D01*
X64846523Y-86186257D01*
X64846523Y-86281495D01*
X64798904Y-86424352D01*
X64227476Y-86995780D01*
X64846523Y-86995780D01*
%TO.C,FXC5*%
X83982876Y-63647971D02*
X83649542Y-63647971D01*
X83649542Y-64171780D02*
X83649542Y-63171780D01*
X84125733Y-63171780D01*
X84411447Y-63171780D02*
X85078114Y-64171780D01*
X85078114Y-63171780D02*
X84411447Y-64171780D01*
X86030495Y-64076542D02*
X85982876Y-64124161D01*
X85840019Y-64171780D01*
X85744780Y-64171780D01*
X85601923Y-64124161D01*
X85506685Y-64028923D01*
X85459066Y-63933685D01*
X85411447Y-63743209D01*
X85411447Y-63600352D01*
X85459066Y-63409876D01*
X85506685Y-63314638D01*
X85601923Y-63219400D01*
X85744780Y-63171780D01*
X85840019Y-63171780D01*
X85982876Y-63219400D01*
X86030495Y-63267019D01*
X86935257Y-63171780D02*
X86459066Y-63171780D01*
X86411447Y-63647971D01*
X86459066Y-63600352D01*
X86554304Y-63552733D01*
X86792400Y-63552733D01*
X86887638Y-63600352D01*
X86935257Y-63647971D01*
X86982876Y-63743209D01*
X86982876Y-63981304D01*
X86935257Y-64076542D01*
X86887638Y-64124161D01*
X86792400Y-64171780D01*
X86554304Y-64171780D01*
X86459066Y-64124161D01*
X86411447Y-64076542D01*
%TO.C,FXR4*%
X75397676Y-88517571D02*
X75064342Y-88517571D01*
X75064342Y-89041380D02*
X75064342Y-88041380D01*
X75540533Y-88041380D01*
X75826247Y-88041380D02*
X76492914Y-89041380D01*
X76492914Y-88041380D02*
X75826247Y-89041380D01*
X77445295Y-89041380D02*
X77111961Y-88565190D01*
X76873866Y-89041380D02*
X76873866Y-88041380D01*
X77254819Y-88041380D01*
X77350057Y-88089000D01*
X77397676Y-88136619D01*
X77445295Y-88231857D01*
X77445295Y-88374714D01*
X77397676Y-88469952D01*
X77350057Y-88517571D01*
X77254819Y-88565190D01*
X76873866Y-88565190D01*
X78302438Y-88374714D02*
X78302438Y-89041380D01*
X78064342Y-87993761D02*
X77826247Y-88708047D01*
X78445295Y-88708047D01*
%TO.C,FXR1*%
X79360076Y-100590371D02*
X79026742Y-100590371D01*
X79026742Y-101114180D02*
X79026742Y-100114180D01*
X79502933Y-100114180D01*
X79788647Y-100114180D02*
X80455314Y-101114180D01*
X80455314Y-100114180D02*
X79788647Y-101114180D01*
X81407695Y-101114180D02*
X81074361Y-100637990D01*
X80836266Y-101114180D02*
X80836266Y-100114180D01*
X81217219Y-100114180D01*
X81312457Y-100161800D01*
X81360076Y-100209419D01*
X81407695Y-100304657D01*
X81407695Y-100447514D01*
X81360076Y-100542752D01*
X81312457Y-100590371D01*
X81217219Y-100637990D01*
X80836266Y-100637990D01*
X82360076Y-101114180D02*
X81788647Y-101114180D01*
X82074361Y-101114180D02*
X82074361Y-100114180D01*
X81979123Y-100257038D01*
X81883885Y-100352276D01*
X81788647Y-100399895D01*
%TO.C,FXR3*%
X65948876Y-101369971D02*
X65615542Y-101369971D01*
X65615542Y-101893780D02*
X65615542Y-100893780D01*
X66091733Y-100893780D01*
X66377447Y-100893780D02*
X67044114Y-101893780D01*
X67044114Y-100893780D02*
X66377447Y-101893780D01*
X67996495Y-101893780D02*
X67663161Y-101417590D01*
X67425066Y-101893780D02*
X67425066Y-100893780D01*
X67806019Y-100893780D01*
X67901257Y-100941400D01*
X67948876Y-100989019D01*
X67996495Y-101084257D01*
X67996495Y-101227114D01*
X67948876Y-101322352D01*
X67901257Y-101369971D01*
X67806019Y-101417590D01*
X67425066Y-101417590D01*
X68329828Y-100893780D02*
X68948876Y-100893780D01*
X68615542Y-101274733D01*
X68758400Y-101274733D01*
X68853638Y-101322352D01*
X68901257Y-101369971D01*
X68948876Y-101465209D01*
X68948876Y-101703304D01*
X68901257Y-101798542D01*
X68853638Y-101846161D01*
X68758400Y-101893780D01*
X68472685Y-101893780D01*
X68377447Y-101846161D01*
X68329828Y-101798542D01*
%TO.C,RV3*%
X78120180Y-57645238D02*
X77643990Y-57978571D01*
X78120180Y-58216666D02*
X77120180Y-58216666D01*
X77120180Y-57835714D01*
X77167800Y-57740476D01*
X77215419Y-57692857D01*
X77310657Y-57645238D01*
X77453514Y-57645238D01*
X77548752Y-57692857D01*
X77596371Y-57740476D01*
X77643990Y-57835714D01*
X77643990Y-58216666D01*
X77120180Y-57359523D02*
X78120180Y-57026190D01*
X77120180Y-56692857D01*
X77120180Y-56454761D02*
X77120180Y-55835714D01*
X77501133Y-56169047D01*
X77501133Y-56026190D01*
X77548752Y-55930952D01*
X77596371Y-55883333D01*
X77691609Y-55835714D01*
X77929704Y-55835714D01*
X78024942Y-55883333D01*
X78072561Y-55930952D01*
X78120180Y-56026190D01*
X78120180Y-56311904D01*
X78072561Y-56407142D01*
X78024942Y-56454761D01*
%TO.C,RV1*%
X46395580Y-57645238D02*
X45919390Y-57978571D01*
X46395580Y-58216666D02*
X45395580Y-58216666D01*
X45395580Y-57835714D01*
X45443200Y-57740476D01*
X45490819Y-57692857D01*
X45586057Y-57645238D01*
X45728914Y-57645238D01*
X45824152Y-57692857D01*
X45871771Y-57740476D01*
X45919390Y-57835714D01*
X45919390Y-58216666D01*
X45395580Y-57359523D02*
X46395580Y-57026190D01*
X45395580Y-56692857D01*
X46395580Y-55835714D02*
X46395580Y-56407142D01*
X46395580Y-56121428D02*
X45395580Y-56121428D01*
X45538438Y-56216666D01*
X45633676Y-56311904D01*
X45681295Y-56407142D01*
%TO.C,FXR6*%
X77999571Y-81143323D02*
X77999571Y-81476657D01*
X78523380Y-81476657D02*
X77523380Y-81476657D01*
X77523380Y-81000466D01*
X77523380Y-80714752D02*
X78523380Y-80048085D01*
X77523380Y-80048085D02*
X78523380Y-80714752D01*
X78523380Y-79095704D02*
X78047190Y-79429038D01*
X78523380Y-79667133D02*
X77523380Y-79667133D01*
X77523380Y-79286180D01*
X77571000Y-79190942D01*
X77618619Y-79143323D01*
X77713857Y-79095704D01*
X77856714Y-79095704D01*
X77951952Y-79143323D01*
X77999571Y-79190942D01*
X78047190Y-79286180D01*
X78047190Y-79667133D01*
X77523380Y-78238561D02*
X77523380Y-78429038D01*
X77571000Y-78524276D01*
X77618619Y-78571895D01*
X77761476Y-78667133D01*
X77951952Y-78714752D01*
X78332904Y-78714752D01*
X78428142Y-78667133D01*
X78475761Y-78619514D01*
X78523380Y-78524276D01*
X78523380Y-78333800D01*
X78475761Y-78238561D01*
X78428142Y-78190942D01*
X78332904Y-78143323D01*
X78094809Y-78143323D01*
X77999571Y-78190942D01*
X77951952Y-78238561D01*
X77904333Y-78333800D01*
X77904333Y-78524276D01*
X77951952Y-78619514D01*
X77999571Y-78667133D01*
X78094809Y-78714752D01*
%TO.C,FXR5*%
X52283676Y-68441771D02*
X51950342Y-68441771D01*
X51950342Y-68965580D02*
X51950342Y-67965580D01*
X52426533Y-67965580D01*
X52712247Y-67965580D02*
X53378914Y-68965580D01*
X53378914Y-67965580D02*
X52712247Y-68965580D01*
X54331295Y-68965580D02*
X53997961Y-68489390D01*
X53759866Y-68965580D02*
X53759866Y-67965580D01*
X54140819Y-67965580D01*
X54236057Y-68013200D01*
X54283676Y-68060819D01*
X54331295Y-68156057D01*
X54331295Y-68298914D01*
X54283676Y-68394152D01*
X54236057Y-68441771D01*
X54140819Y-68489390D01*
X53759866Y-68489390D01*
X55236057Y-67965580D02*
X54759866Y-67965580D01*
X54712247Y-68441771D01*
X54759866Y-68394152D01*
X54855104Y-68346533D01*
X55093200Y-68346533D01*
X55188438Y-68394152D01*
X55236057Y-68441771D01*
X55283676Y-68537009D01*
X55283676Y-68775104D01*
X55236057Y-68870342D01*
X55188438Y-68917961D01*
X55093200Y-68965580D01*
X54855104Y-68965580D01*
X54759866Y-68917961D01*
X54712247Y-68870342D01*
%TO.C,Q1*%
X74097361Y-93839419D02*
X74002123Y-93791800D01*
X73906885Y-93696561D01*
X73764028Y-93553704D01*
X73668790Y-93506085D01*
X73573552Y-93506085D01*
X73621171Y-93744180D02*
X73525933Y-93696561D01*
X73430695Y-93601323D01*
X73383076Y-93410847D01*
X73383076Y-93077514D01*
X73430695Y-92887038D01*
X73525933Y-92791800D01*
X73621171Y-92744180D01*
X73811647Y-92744180D01*
X73906885Y-92791800D01*
X74002123Y-92887038D01*
X74049742Y-93077514D01*
X74049742Y-93410847D01*
X74002123Y-93601323D01*
X73906885Y-93696561D01*
X73811647Y-93744180D01*
X73621171Y-93744180D01*
X75002123Y-93744180D02*
X74430695Y-93744180D01*
X74716409Y-93744180D02*
X74716409Y-92744180D01*
X74621171Y-92887038D01*
X74525933Y-92982276D01*
X74430695Y-93029895D01*
%TO.C,J3*%
X124610800Y-123420780D02*
X124801276Y-123420780D01*
X124896514Y-123468400D01*
X124991752Y-123563638D01*
X125039371Y-123754114D01*
X125039371Y-124087447D01*
X124991752Y-124277923D01*
X124896514Y-124373161D01*
X124801276Y-124420780D01*
X124610800Y-124420780D01*
X124515561Y-124373161D01*
X124420323Y-124277923D01*
X124372704Y-124087447D01*
X124372704Y-123754114D01*
X124420323Y-123563638D01*
X124515561Y-123468400D01*
X124610800Y-123420780D01*
X125467942Y-123420780D02*
X125467942Y-124230304D01*
X125515561Y-124325542D01*
X125563180Y-124373161D01*
X125658419Y-124420780D01*
X125848895Y-124420780D01*
X125944133Y-124373161D01*
X125991752Y-124325542D01*
X126039371Y-124230304D01*
X126039371Y-123420780D01*
X126372704Y-123420780D02*
X126944133Y-123420780D01*
X126658419Y-124420780D02*
X126658419Y-123420780D01*
%TO.C,J1*%
X123633180Y-60621733D02*
X124347466Y-60621733D01*
X124490323Y-60669352D01*
X124585561Y-60764590D01*
X124633180Y-60907447D01*
X124633180Y-61002685D01*
X124633180Y-59621733D02*
X124633180Y-60193161D01*
X124633180Y-59907447D02*
X123633180Y-59907447D01*
X123776038Y-60002685D01*
X123871276Y-60097923D01*
X123918895Y-60193161D01*
%TO.C,C2*%
X142644133Y-141695542D02*
X142596514Y-141743161D01*
X142453657Y-141790780D01*
X142358419Y-141790780D01*
X142215561Y-141743161D01*
X142120323Y-141647923D01*
X142072704Y-141552685D01*
X142025085Y-141362209D01*
X142025085Y-141219352D01*
X142072704Y-141028876D01*
X142120323Y-140933638D01*
X142215561Y-140838400D01*
X142358419Y-140790780D01*
X142453657Y-140790780D01*
X142596514Y-140838400D01*
X142644133Y-140886019D01*
X143025085Y-140886019D02*
X143072704Y-140838400D01*
X143167942Y-140790780D01*
X143406038Y-140790780D01*
X143501276Y-140838400D01*
X143548895Y-140886019D01*
X143596514Y-140981257D01*
X143596514Y-141076495D01*
X143548895Y-141219352D01*
X142977466Y-141790780D01*
X143596514Y-141790780D01*
X142644133Y-143290780D02*
X142072704Y-143290780D01*
X142358419Y-143290780D02*
X142358419Y-142290780D01*
X142263180Y-142433638D01*
X142167942Y-142528876D01*
X142072704Y-142576495D01*
X143263180Y-142290780D02*
X143358419Y-142290780D01*
X143453657Y-142338400D01*
X143501276Y-142386019D01*
X143548895Y-142481257D01*
X143596514Y-142671733D01*
X143596514Y-142909828D01*
X143548895Y-143100304D01*
X143501276Y-143195542D01*
X143453657Y-143243161D01*
X143358419Y-143290780D01*
X143263180Y-143290780D01*
X143167942Y-143243161D01*
X143120323Y-143195542D01*
X143072704Y-143100304D01*
X143025085Y-142909828D01*
X143025085Y-142671733D01*
X143072704Y-142481257D01*
X143120323Y-142386019D01*
X143167942Y-142338400D01*
X143263180Y-142290780D01*
X144215561Y-142290780D02*
X144310800Y-142290780D01*
X144406038Y-142338400D01*
X144453657Y-142386019D01*
X144501276Y-142481257D01*
X144548895Y-142671733D01*
X144548895Y-142909828D01*
X144501276Y-143100304D01*
X144453657Y-143195542D01*
X144406038Y-143243161D01*
X144310800Y-143290780D01*
X144215561Y-143290780D01*
X144120323Y-143243161D01*
X144072704Y-143195542D01*
X144025085Y-143100304D01*
X143977466Y-142909828D01*
X143977466Y-142671733D01*
X144025085Y-142481257D01*
X144072704Y-142386019D01*
X144120323Y-142338400D01*
X144215561Y-142290780D01*
%TO.C,D1*%
X107122704Y-136440780D02*
X107122704Y-135440780D01*
X107360800Y-135440780D01*
X107503657Y-135488400D01*
X107598895Y-135583638D01*
X107646514Y-135678876D01*
X107694133Y-135869352D01*
X107694133Y-136012209D01*
X107646514Y-136202685D01*
X107598895Y-136297923D01*
X107503657Y-136393161D01*
X107360800Y-136440780D01*
X107122704Y-136440780D01*
X108646514Y-136440780D02*
X108075085Y-136440780D01*
X108360800Y-136440780D02*
X108360800Y-135440780D01*
X108265561Y-135583638D01*
X108170323Y-135678876D01*
X108075085Y-135726495D01*
%TO.C,R1*%
X142936580Y-136575266D02*
X142460390Y-136908600D01*
X142936580Y-137146695D02*
X141936580Y-137146695D01*
X141936580Y-136765742D01*
X141984200Y-136670504D01*
X142031819Y-136622885D01*
X142127057Y-136575266D01*
X142269914Y-136575266D01*
X142365152Y-136622885D01*
X142412771Y-136670504D01*
X142460390Y-136765742D01*
X142460390Y-137146695D01*
X142936580Y-135622885D02*
X142936580Y-136194314D01*
X142936580Y-135908600D02*
X141936580Y-135908600D01*
X142079438Y-136003838D01*
X142174676Y-136099076D01*
X142222295Y-136194314D01*
X142936580Y-133694314D02*
X142936580Y-134265742D01*
X142936580Y-133980028D02*
X141936580Y-133980028D01*
X142079438Y-134075266D01*
X142174676Y-134170504D01*
X142222295Y-134265742D01*
X142936580Y-133265742D02*
X141936580Y-133265742D01*
X142650866Y-132932409D01*
X141936580Y-132599076D01*
X142936580Y-132599076D01*
%TO.C,R2*%
X118563180Y-130795066D02*
X118086990Y-131128400D01*
X118563180Y-131366495D02*
X117563180Y-131366495D01*
X117563180Y-130985542D01*
X117610800Y-130890304D01*
X117658419Y-130842685D01*
X117753657Y-130795066D01*
X117896514Y-130795066D01*
X117991752Y-130842685D01*
X118039371Y-130890304D01*
X118086990Y-130985542D01*
X118086990Y-131366495D01*
X117658419Y-130414114D02*
X117610800Y-130366495D01*
X117563180Y-130271257D01*
X117563180Y-130033161D01*
X117610800Y-129937923D01*
X117658419Y-129890304D01*
X117753657Y-129842685D01*
X117848895Y-129842685D01*
X117991752Y-129890304D01*
X118563180Y-130461733D01*
X118563180Y-129842685D01*
X118563180Y-133914114D02*
X118563180Y-134485542D01*
X118563180Y-134199828D02*
X117563180Y-134199828D01*
X117706038Y-134295066D01*
X117801276Y-134390304D01*
X117848895Y-134485542D01*
X118563180Y-133485542D02*
X117563180Y-133485542D01*
X118277466Y-133152209D01*
X117563180Y-132818876D01*
X118563180Y-132818876D01*
%TO.C,R3*%
X110813180Y-136025066D02*
X110336990Y-136358400D01*
X110813180Y-136596495D02*
X109813180Y-136596495D01*
X109813180Y-136215542D01*
X109860800Y-136120304D01*
X109908419Y-136072685D01*
X110003657Y-136025066D01*
X110146514Y-136025066D01*
X110241752Y-136072685D01*
X110289371Y-136120304D01*
X110336990Y-136215542D01*
X110336990Y-136596495D01*
X109813180Y-135691733D02*
X109813180Y-135072685D01*
X110194133Y-135406019D01*
X110194133Y-135263161D01*
X110241752Y-135167923D01*
X110289371Y-135120304D01*
X110384609Y-135072685D01*
X110622704Y-135072685D01*
X110717942Y-135120304D01*
X110765561Y-135167923D01*
X110813180Y-135263161D01*
X110813180Y-135548876D01*
X110765561Y-135644114D01*
X110717942Y-135691733D01*
X110813180Y-139072685D02*
X110813180Y-139644114D01*
X110813180Y-139358400D02*
X109813180Y-139358400D01*
X109956038Y-139453638D01*
X110051276Y-139548876D01*
X110098895Y-139644114D01*
X110813180Y-138644114D02*
X109813180Y-138644114D01*
X110813180Y-138072685D02*
X110241752Y-138501257D01*
X109813180Y-138072685D02*
X110384609Y-138644114D01*
%TO.C,C1*%
X144217942Y-131155066D02*
X144265561Y-131202685D01*
X144313180Y-131345542D01*
X144313180Y-131440780D01*
X144265561Y-131583638D01*
X144170323Y-131678876D01*
X144075085Y-131726495D01*
X143884609Y-131774114D01*
X143741752Y-131774114D01*
X143551276Y-131726495D01*
X143456038Y-131678876D01*
X143360800Y-131583638D01*
X143313180Y-131440780D01*
X143313180Y-131345542D01*
X143360800Y-131202685D01*
X143408419Y-131155066D01*
X144313180Y-130202685D02*
X144313180Y-130774114D01*
X144313180Y-130488400D02*
X143313180Y-130488400D01*
X143456038Y-130583638D01*
X143551276Y-130678876D01*
X143598895Y-130774114D01*
X152313180Y-131750304D02*
X152313180Y-131655066D01*
X152360800Y-131559828D01*
X152408419Y-131512209D01*
X152503657Y-131464590D01*
X152694133Y-131416971D01*
X152932228Y-131416971D01*
X153122704Y-131464590D01*
X153217942Y-131512209D01*
X153265561Y-131559828D01*
X153313180Y-131655066D01*
X153313180Y-131750304D01*
X153265561Y-131845542D01*
X153217942Y-131893161D01*
X153122704Y-131940780D01*
X152932228Y-131988400D01*
X152694133Y-131988400D01*
X152503657Y-131940780D01*
X152408419Y-131893161D01*
X152360800Y-131845542D01*
X152313180Y-131750304D01*
X153217942Y-130988400D02*
X153265561Y-130940780D01*
X153313180Y-130988400D01*
X153265561Y-131036019D01*
X153217942Y-130988400D01*
X153313180Y-130988400D01*
X153313180Y-129988400D02*
X153313180Y-130559828D01*
X153313180Y-130274114D02*
X152313180Y-130274114D01*
X152456038Y-130369352D01*
X152551276Y-130464590D01*
X152598895Y-130559828D01*
%TO.C,J2*%
X128586990Y-124250780D02*
X128586990Y-123250780D01*
X129063180Y-124250780D02*
X129063180Y-123250780D01*
X129634609Y-124250780D01*
X129634609Y-123250780D01*
%TO.C,FXR7*%
X133684171Y-85791523D02*
X133684171Y-86124857D01*
X134207980Y-86124857D02*
X133207980Y-86124857D01*
X133207980Y-85648666D01*
X133207980Y-85362952D02*
X134207980Y-84696285D01*
X133207980Y-84696285D02*
X134207980Y-85362952D01*
X134207980Y-83743904D02*
X133731790Y-84077238D01*
X134207980Y-84315333D02*
X133207980Y-84315333D01*
X133207980Y-83934380D01*
X133255600Y-83839142D01*
X133303219Y-83791523D01*
X133398457Y-83743904D01*
X133541314Y-83743904D01*
X133636552Y-83791523D01*
X133684171Y-83839142D01*
X133731790Y-83934380D01*
X133731790Y-84315333D01*
X133207980Y-83410571D02*
X133207980Y-82743904D01*
X134207980Y-83172476D01*
%TO.C,FXR11*%
X141088485Y-67798971D02*
X140755152Y-67798971D01*
X140755152Y-68322780D02*
X140755152Y-67322780D01*
X141231342Y-67322780D01*
X141517057Y-67322780D02*
X142183723Y-68322780D01*
X142183723Y-67322780D02*
X141517057Y-68322780D01*
X143136104Y-68322780D02*
X142802771Y-67846590D01*
X142564676Y-68322780D02*
X142564676Y-67322780D01*
X142945628Y-67322780D01*
X143040866Y-67370400D01*
X143088485Y-67418019D01*
X143136104Y-67513257D01*
X143136104Y-67656114D01*
X143088485Y-67751352D01*
X143040866Y-67798971D01*
X142945628Y-67846590D01*
X142564676Y-67846590D01*
X144088485Y-68322780D02*
X143517057Y-68322780D01*
X143802771Y-68322780D02*
X143802771Y-67322780D01*
X143707533Y-67465638D01*
X143612295Y-67560876D01*
X143517057Y-67608495D01*
X145040866Y-68322780D02*
X144469438Y-68322780D01*
X144755152Y-68322780D02*
X144755152Y-67322780D01*
X144659914Y-67465638D01*
X144564676Y-67560876D01*
X144469438Y-67608495D01*
%TO.C,FXR8*%
X106893676Y-71304171D02*
X106560342Y-71304171D01*
X106560342Y-71827980D02*
X106560342Y-70827980D01*
X107036533Y-70827980D01*
X107322247Y-70827980D02*
X107988914Y-71827980D01*
X107988914Y-70827980D02*
X107322247Y-71827980D01*
X108941295Y-71827980D02*
X108607961Y-71351790D01*
X108369866Y-71827980D02*
X108369866Y-70827980D01*
X108750819Y-70827980D01*
X108846057Y-70875600D01*
X108893676Y-70923219D01*
X108941295Y-71018457D01*
X108941295Y-71161314D01*
X108893676Y-71256552D01*
X108846057Y-71304171D01*
X108750819Y-71351790D01*
X108369866Y-71351790D01*
X109512723Y-71256552D02*
X109417485Y-71208933D01*
X109369866Y-71161314D01*
X109322247Y-71066076D01*
X109322247Y-71018457D01*
X109369866Y-70923219D01*
X109417485Y-70875600D01*
X109512723Y-70827980D01*
X109703200Y-70827980D01*
X109798438Y-70875600D01*
X109846057Y-70923219D01*
X109893676Y-71018457D01*
X109893676Y-71066076D01*
X109846057Y-71161314D01*
X109798438Y-71208933D01*
X109703200Y-71256552D01*
X109512723Y-71256552D01*
X109417485Y-71304171D01*
X109369866Y-71351790D01*
X109322247Y-71447028D01*
X109322247Y-71637504D01*
X109369866Y-71732742D01*
X109417485Y-71780361D01*
X109512723Y-71827980D01*
X109703200Y-71827980D01*
X109798438Y-71780361D01*
X109846057Y-71732742D01*
X109893676Y-71637504D01*
X109893676Y-71447028D01*
X109846057Y-71351790D01*
X109798438Y-71304171D01*
X109703200Y-71256552D01*
%TO.C,FXC1*%
X130388676Y-101555571D02*
X130055342Y-101555571D01*
X130055342Y-102079380D02*
X130055342Y-101079380D01*
X130531533Y-101079380D01*
X130817247Y-101079380D02*
X131483914Y-102079380D01*
X131483914Y-101079380D02*
X130817247Y-102079380D01*
X132436295Y-101984142D02*
X132388676Y-102031761D01*
X132245819Y-102079380D01*
X132150580Y-102079380D01*
X132007723Y-102031761D01*
X131912485Y-101936523D01*
X131864866Y-101841285D01*
X131817247Y-101650809D01*
X131817247Y-101507952D01*
X131864866Y-101317476D01*
X131912485Y-101222238D01*
X132007723Y-101127000D01*
X132150580Y-101079380D01*
X132245819Y-101079380D01*
X132388676Y-101127000D01*
X132436295Y-101174619D01*
X133388676Y-102079380D02*
X132817247Y-102079380D01*
X133102961Y-102079380D02*
X133102961Y-101079380D01*
X133007723Y-101222238D01*
X132912485Y-101317476D01*
X132817247Y-101365095D01*
%TO.C,FXC7*%
X141386876Y-72675771D02*
X141053542Y-72675771D01*
X141053542Y-73199580D02*
X141053542Y-72199580D01*
X141529733Y-72199580D01*
X141815447Y-72199580D02*
X142482114Y-73199580D01*
X142482114Y-72199580D02*
X141815447Y-73199580D01*
X143434495Y-73104342D02*
X143386876Y-73151961D01*
X143244019Y-73199580D01*
X143148780Y-73199580D01*
X143005923Y-73151961D01*
X142910685Y-73056723D01*
X142863066Y-72961485D01*
X142815447Y-72771009D01*
X142815447Y-72628152D01*
X142863066Y-72437676D01*
X142910685Y-72342438D01*
X143005923Y-72247200D01*
X143148780Y-72199580D01*
X143244019Y-72199580D01*
X143386876Y-72247200D01*
X143434495Y-72294819D01*
X143767828Y-72199580D02*
X144434495Y-72199580D01*
X144005923Y-73199580D01*
%TO.C,FXQ1*%
X143598266Y-95611971D02*
X143264933Y-95611971D01*
X143264933Y-96135780D02*
X143264933Y-95135780D01*
X143741123Y-95135780D01*
X144026838Y-95135780D02*
X144693504Y-96135780D01*
X144693504Y-95135780D02*
X144026838Y-96135780D01*
X145741123Y-96231019D02*
X145645885Y-96183400D01*
X145550647Y-96088161D01*
X145407790Y-95945304D01*
X145312552Y-95897685D01*
X145217314Y-95897685D01*
X145264933Y-96135780D02*
X145169695Y-96088161D01*
X145074457Y-95992923D01*
X145026838Y-95802447D01*
X145026838Y-95469114D01*
X145074457Y-95278638D01*
X145169695Y-95183400D01*
X145264933Y-95135780D01*
X145455409Y-95135780D01*
X145550647Y-95183400D01*
X145645885Y-95278638D01*
X145693504Y-95469114D01*
X145693504Y-95802447D01*
X145645885Y-95992923D01*
X145550647Y-96088161D01*
X145455409Y-96135780D01*
X145264933Y-96135780D01*
X146645885Y-96135780D02*
X146074457Y-96135780D01*
X146360171Y-96135780D02*
X146360171Y-95135780D01*
X146264933Y-95278638D01*
X146169695Y-95373876D01*
X146074457Y-95421495D01*
%TO.C,FXC8*%
X118552276Y-63709571D02*
X118218942Y-63709571D01*
X118218942Y-64233380D02*
X118218942Y-63233380D01*
X118695133Y-63233380D01*
X118980847Y-63233380D02*
X119647514Y-64233380D01*
X119647514Y-63233380D02*
X118980847Y-64233380D01*
X120599895Y-64138142D02*
X120552276Y-64185761D01*
X120409419Y-64233380D01*
X120314180Y-64233380D01*
X120171323Y-64185761D01*
X120076085Y-64090523D01*
X120028466Y-63995285D01*
X119980847Y-63804809D01*
X119980847Y-63661952D01*
X120028466Y-63471476D01*
X120076085Y-63376238D01*
X120171323Y-63281000D01*
X120314180Y-63233380D01*
X120409419Y-63233380D01*
X120552276Y-63281000D01*
X120599895Y-63328619D01*
X121171323Y-63661952D02*
X121076085Y-63614333D01*
X121028466Y-63566714D01*
X120980847Y-63471476D01*
X120980847Y-63423857D01*
X121028466Y-63328619D01*
X121076085Y-63281000D01*
X121171323Y-63233380D01*
X121361800Y-63233380D01*
X121457038Y-63281000D01*
X121504657Y-63328619D01*
X121552276Y-63423857D01*
X121552276Y-63471476D01*
X121504657Y-63566714D01*
X121457038Y-63614333D01*
X121361800Y-63661952D01*
X121171323Y-63661952D01*
X121076085Y-63709571D01*
X121028466Y-63757190D01*
X120980847Y-63852428D01*
X120980847Y-64042904D01*
X121028466Y-64138142D01*
X121076085Y-64185761D01*
X121171323Y-64233380D01*
X121361800Y-64233380D01*
X121457038Y-64185761D01*
X121504657Y-64138142D01*
X121552276Y-64042904D01*
X121552276Y-63852428D01*
X121504657Y-63757190D01*
X121457038Y-63709571D01*
X121361800Y-63661952D01*
%TO.C,Q1*%
X116294619Y-91511438D02*
X116247000Y-91606676D01*
X116151761Y-91701914D01*
X116008904Y-91844771D01*
X115961285Y-91940009D01*
X115961285Y-92035247D01*
X116199380Y-91987628D02*
X116151761Y-92082866D01*
X116056523Y-92178104D01*
X115866047Y-92225723D01*
X115532714Y-92225723D01*
X115342238Y-92178104D01*
X115247000Y-92082866D01*
X115199380Y-91987628D01*
X115199380Y-91797152D01*
X115247000Y-91701914D01*
X115342238Y-91606676D01*
X115532714Y-91559057D01*
X115866047Y-91559057D01*
X116056523Y-91606676D01*
X116151761Y-91701914D01*
X116199380Y-91797152D01*
X116199380Y-91987628D01*
X116199380Y-90606676D02*
X116199380Y-91178104D01*
X116199380Y-90892390D02*
X115199380Y-90892390D01*
X115342238Y-90987628D01*
X115437476Y-91082866D01*
X115485095Y-91178104D01*
%TO.C,FXR13*%
X105058371Y-94446514D02*
X105058371Y-94779847D01*
X105582180Y-94779847D02*
X104582180Y-94779847D01*
X104582180Y-94303657D01*
X104582180Y-94017942D02*
X105582180Y-93351276D01*
X104582180Y-93351276D02*
X105582180Y-94017942D01*
X105582180Y-92398895D02*
X105105990Y-92732228D01*
X105582180Y-92970323D02*
X104582180Y-92970323D01*
X104582180Y-92589371D01*
X104629800Y-92494133D01*
X104677419Y-92446514D01*
X104772657Y-92398895D01*
X104915514Y-92398895D01*
X105010752Y-92446514D01*
X105058371Y-92494133D01*
X105105990Y-92589371D01*
X105105990Y-92970323D01*
X105582180Y-91446514D02*
X105582180Y-92017942D01*
X105582180Y-91732228D02*
X104582180Y-91732228D01*
X104725038Y-91827466D01*
X104820276Y-91922704D01*
X104867895Y-92017942D01*
X104582180Y-91113180D02*
X104582180Y-90494133D01*
X104963133Y-90827466D01*
X104963133Y-90684609D01*
X105010752Y-90589371D01*
X105058371Y-90541752D01*
X105153609Y-90494133D01*
X105391704Y-90494133D01*
X105486942Y-90541752D01*
X105534561Y-90589371D01*
X105582180Y-90684609D01*
X105582180Y-90970323D01*
X105534561Y-91065561D01*
X105486942Y-91113180D01*
%TO.C,FXR3*%
X147051076Y-93021171D02*
X146717742Y-93021171D01*
X146717742Y-93544980D02*
X146717742Y-92544980D01*
X147193933Y-92544980D01*
X147479647Y-92544980D02*
X148146314Y-93544980D01*
X148146314Y-92544980D02*
X147479647Y-93544980D01*
X149098695Y-93544980D02*
X148765361Y-93068790D01*
X148527266Y-93544980D02*
X148527266Y-92544980D01*
X148908219Y-92544980D01*
X149003457Y-92592600D01*
X149051076Y-92640219D01*
X149098695Y-92735457D01*
X149098695Y-92878314D01*
X149051076Y-92973552D01*
X149003457Y-93021171D01*
X148908219Y-93068790D01*
X148527266Y-93068790D01*
X149432028Y-92544980D02*
X150051076Y-92544980D01*
X149717742Y-92925933D01*
X149860600Y-92925933D01*
X149955838Y-92973552D01*
X150003457Y-93021171D01*
X150051076Y-93116409D01*
X150051076Y-93354504D01*
X150003457Y-93449742D01*
X149955838Y-93497361D01*
X149860600Y-93544980D01*
X149574885Y-93544980D01*
X149479647Y-93497361D01*
X149432028Y-93449742D01*
%TO.C,U1*%
X126237295Y-81419780D02*
X126237295Y-82229304D01*
X126284914Y-82324542D01*
X126332533Y-82372161D01*
X126427771Y-82419780D01*
X126618247Y-82419780D01*
X126713485Y-82372161D01*
X126761104Y-82324542D01*
X126808723Y-82229304D01*
X126808723Y-81419780D01*
X127808723Y-82419780D02*
X127237295Y-82419780D01*
X127523009Y-82419780D02*
X127523009Y-81419780D01*
X127427771Y-81562638D01*
X127332533Y-81657876D01*
X127237295Y-81705495D01*
%TO.C,R4*%
X148482780Y-87112466D02*
X148006590Y-87445800D01*
X148482780Y-87683895D02*
X147482780Y-87683895D01*
X147482780Y-87302942D01*
X147530400Y-87207704D01*
X147578019Y-87160085D01*
X147673257Y-87112466D01*
X147816114Y-87112466D01*
X147911352Y-87160085D01*
X147958971Y-87207704D01*
X148006590Y-87302942D01*
X148006590Y-87683895D01*
X147816114Y-86255323D02*
X148482780Y-86255323D01*
X147435161Y-86493419D02*
X148149447Y-86731514D01*
X148149447Y-86112466D01*
%TO.C,FXC9*%
X107152999Y-96956571D02*
X106819665Y-96956571D01*
X106819665Y-97480380D02*
X106819665Y-96480380D01*
X107295856Y-96480380D01*
X107581570Y-96480380D02*
X108248237Y-97480380D01*
X108248237Y-96480380D02*
X107581570Y-97480380D01*
X109200618Y-97385142D02*
X109152999Y-97432761D01*
X109010142Y-97480380D01*
X108914903Y-97480380D01*
X108772046Y-97432761D01*
X108676808Y-97337523D01*
X108629189Y-97242285D01*
X108581570Y-97051809D01*
X108581570Y-96908952D01*
X108629189Y-96718476D01*
X108676808Y-96623238D01*
X108772046Y-96528000D01*
X108914903Y-96480380D01*
X109010142Y-96480380D01*
X109152999Y-96528000D01*
X109200618Y-96575619D01*
X109676808Y-97480380D02*
X109867284Y-97480380D01*
X109962523Y-97432761D01*
X110010142Y-97385142D01*
X110105380Y-97242285D01*
X110152999Y-97051809D01*
X110152999Y-96670857D01*
X110105380Y-96575619D01*
X110057761Y-96528000D01*
X109962523Y-96480380D01*
X109772046Y-96480380D01*
X109676808Y-96528000D01*
X109629189Y-96575619D01*
X109581570Y-96670857D01*
X109581570Y-96908952D01*
X109629189Y-97004190D01*
X109676808Y-97051809D01*
X109772046Y-97099428D01*
X109962523Y-97099428D01*
X110057761Y-97051809D01*
X110105380Y-97004190D01*
X110152999Y-96908952D01*
%TO.C,FXC6*%
X114305076Y-75257371D02*
X113971742Y-75257371D01*
X113971742Y-75781180D02*
X113971742Y-74781180D01*
X114447933Y-74781180D01*
X114733647Y-74781180D02*
X115400314Y-75781180D01*
X115400314Y-74781180D02*
X114733647Y-75781180D01*
X116352695Y-75685942D02*
X116305076Y-75733561D01*
X116162219Y-75781180D01*
X116066980Y-75781180D01*
X115924123Y-75733561D01*
X115828885Y-75638323D01*
X115781266Y-75543085D01*
X115733647Y-75352609D01*
X115733647Y-75209752D01*
X115781266Y-75019276D01*
X115828885Y-74924038D01*
X115924123Y-74828800D01*
X116066980Y-74781180D01*
X116162219Y-74781180D01*
X116305076Y-74828800D01*
X116352695Y-74876419D01*
X117209838Y-74781180D02*
X117019361Y-74781180D01*
X116924123Y-74828800D01*
X116876504Y-74876419D01*
X116781266Y-75019276D01*
X116733647Y-75209752D01*
X116733647Y-75590704D01*
X116781266Y-75685942D01*
X116828885Y-75733561D01*
X116924123Y-75781180D01*
X117114600Y-75781180D01*
X117209838Y-75733561D01*
X117257457Y-75685942D01*
X117305076Y-75590704D01*
X117305076Y-75352609D01*
X117257457Y-75257371D01*
X117209838Y-75209752D01*
X117114600Y-75162133D01*
X116924123Y-75162133D01*
X116828885Y-75209752D01*
X116781266Y-75257371D01*
X116733647Y-75352609D01*
%TO.C,FXD1*%
X122546295Y-98294780D02*
X122546295Y-97294780D01*
X123117723Y-98294780D02*
X122689152Y-97723352D01*
X123117723Y-97294780D02*
X122546295Y-97866209D01*
%TO.C,RV2*%
X125819761Y-64863780D02*
X125486428Y-64387590D01*
X125248333Y-64863780D02*
X125248333Y-63863780D01*
X125629285Y-63863780D01*
X125724523Y-63911400D01*
X125772142Y-63959019D01*
X125819761Y-64054257D01*
X125819761Y-64197114D01*
X125772142Y-64292352D01*
X125724523Y-64339971D01*
X125629285Y-64387590D01*
X125248333Y-64387590D01*
X126105476Y-63863780D02*
X126438809Y-64863780D01*
X126772142Y-63863780D01*
X127057857Y-63959019D02*
X127105476Y-63911400D01*
X127200714Y-63863780D01*
X127438809Y-63863780D01*
X127534047Y-63911400D01*
X127581666Y-63959019D01*
X127629285Y-64054257D01*
X127629285Y-64149495D01*
X127581666Y-64292352D01*
X127010238Y-64863780D01*
X127629285Y-64863780D01*
%TO.C,FXR12*%
X109846485Y-88703171D02*
X109513152Y-88703171D01*
X109513152Y-89226980D02*
X109513152Y-88226980D01*
X109989342Y-88226980D01*
X110275057Y-88226980D02*
X110941723Y-89226980D01*
X110941723Y-88226980D02*
X110275057Y-89226980D01*
X111894104Y-89226980D02*
X111560771Y-88750790D01*
X111322676Y-89226980D02*
X111322676Y-88226980D01*
X111703628Y-88226980D01*
X111798866Y-88274600D01*
X111846485Y-88322219D01*
X111894104Y-88417457D01*
X111894104Y-88560314D01*
X111846485Y-88655552D01*
X111798866Y-88703171D01*
X111703628Y-88750790D01*
X111322676Y-88750790D01*
X112846485Y-89226980D02*
X112275057Y-89226980D01*
X112560771Y-89226980D02*
X112560771Y-88226980D01*
X112465533Y-88369838D01*
X112370295Y-88465076D01*
X112275057Y-88512695D01*
X113227438Y-88322219D02*
X113275057Y-88274600D01*
X113370295Y-88226980D01*
X113608390Y-88226980D01*
X113703628Y-88274600D01*
X113751247Y-88322219D01*
X113798866Y-88417457D01*
X113798866Y-88512695D01*
X113751247Y-88655552D01*
X113179819Y-89226980D01*
X113798866Y-89226980D01*
%TO.C,FXR2*%
X144561876Y-98583771D02*
X144228542Y-98583771D01*
X144228542Y-99107580D02*
X144228542Y-98107580D01*
X144704733Y-98107580D01*
X144990447Y-98107580D02*
X145657114Y-99107580D01*
X145657114Y-98107580D02*
X144990447Y-99107580D01*
X146609495Y-99107580D02*
X146276161Y-98631390D01*
X146038066Y-99107580D02*
X146038066Y-98107580D01*
X146419019Y-98107580D01*
X146514257Y-98155200D01*
X146561876Y-98202819D01*
X146609495Y-98298057D01*
X146609495Y-98440914D01*
X146561876Y-98536152D01*
X146514257Y-98583771D01*
X146419019Y-98631390D01*
X146038066Y-98631390D01*
X146990447Y-98202819D02*
X147038066Y-98155200D01*
X147133304Y-98107580D01*
X147371400Y-98107580D01*
X147466638Y-98155200D01*
X147514257Y-98202819D01*
X147561876Y-98298057D01*
X147561876Y-98393295D01*
X147514257Y-98536152D01*
X146942828Y-99107580D01*
X147561876Y-99107580D01*
%TO.C,FXR4*%
X115986876Y-98583771D02*
X115653542Y-98583771D01*
X115653542Y-99107580D02*
X115653542Y-98107580D01*
X116129733Y-98107580D01*
X116415447Y-98107580D02*
X117082114Y-99107580D01*
X117082114Y-98107580D02*
X116415447Y-99107580D01*
X118034495Y-99107580D02*
X117701161Y-98631390D01*
X117463066Y-99107580D02*
X117463066Y-98107580D01*
X117844019Y-98107580D01*
X117939257Y-98155200D01*
X117986876Y-98202819D01*
X118034495Y-98298057D01*
X118034495Y-98440914D01*
X117986876Y-98536152D01*
X117939257Y-98583771D01*
X117844019Y-98631390D01*
X117463066Y-98631390D01*
X118891638Y-98440914D02*
X118891638Y-99107580D01*
X118653542Y-98059961D02*
X118415447Y-98774247D01*
X119034495Y-98774247D01*
%TO.C,FXR14*%
X105134571Y-84362714D02*
X105134571Y-84696047D01*
X105658380Y-84696047D02*
X104658380Y-84696047D01*
X104658380Y-84219857D01*
X104658380Y-83934142D02*
X105658380Y-83267476D01*
X104658380Y-83267476D02*
X105658380Y-83934142D01*
X105658380Y-82315095D02*
X105182190Y-82648428D01*
X105658380Y-82886523D02*
X104658380Y-82886523D01*
X104658380Y-82505571D01*
X104706000Y-82410333D01*
X104753619Y-82362714D01*
X104848857Y-82315095D01*
X104991714Y-82315095D01*
X105086952Y-82362714D01*
X105134571Y-82410333D01*
X105182190Y-82505571D01*
X105182190Y-82886523D01*
X105658380Y-81362714D02*
X105658380Y-81934142D01*
X105658380Y-81648428D02*
X104658380Y-81648428D01*
X104801238Y-81743666D01*
X104896476Y-81838904D01*
X104944095Y-81934142D01*
X104991714Y-80505571D02*
X105658380Y-80505571D01*
X104610761Y-80743666D02*
X105325047Y-80981761D01*
X105325047Y-80362714D01*
%TO.C,FXR15*%
X118126885Y-106076771D02*
X117793552Y-106076771D01*
X117793552Y-106600580D02*
X117793552Y-105600580D01*
X118269742Y-105600580D01*
X118555457Y-105600580D02*
X119222123Y-106600580D01*
X119222123Y-105600580D02*
X118555457Y-106600580D01*
X120174504Y-106600580D02*
X119841171Y-106124390D01*
X119603076Y-106600580D02*
X119603076Y-105600580D01*
X119984028Y-105600580D01*
X120079266Y-105648200D01*
X120126885Y-105695819D01*
X120174504Y-105791057D01*
X120174504Y-105933914D01*
X120126885Y-106029152D01*
X120079266Y-106076771D01*
X119984028Y-106124390D01*
X119603076Y-106124390D01*
X121126885Y-106600580D02*
X120555457Y-106600580D01*
X120841171Y-106600580D02*
X120841171Y-105600580D01*
X120745933Y-105743438D01*
X120650695Y-105838676D01*
X120555457Y-105886295D01*
X122031647Y-105600580D02*
X121555457Y-105600580D01*
X121507838Y-106076771D01*
X121555457Y-106029152D01*
X121650695Y-105981533D01*
X121888790Y-105981533D01*
X121984028Y-106029152D01*
X122031647Y-106076771D01*
X122079266Y-106172009D01*
X122079266Y-106410104D01*
X122031647Y-106505342D01*
X121984028Y-106552961D01*
X121888790Y-106600580D01*
X121650695Y-106600580D01*
X121555457Y-106552961D01*
X121507838Y-106505342D01*
%TO.C,FXR22*%
X138751685Y-104781371D02*
X138418352Y-104781371D01*
X138418352Y-105305180D02*
X138418352Y-104305180D01*
X138894542Y-104305180D01*
X139180257Y-104305180D02*
X139846923Y-105305180D01*
X139846923Y-104305180D02*
X139180257Y-105305180D01*
X140799304Y-105305180D02*
X140465971Y-104828990D01*
X140227876Y-105305180D02*
X140227876Y-104305180D01*
X140608828Y-104305180D01*
X140704066Y-104352800D01*
X140751685Y-104400419D01*
X140799304Y-104495657D01*
X140799304Y-104638514D01*
X140751685Y-104733752D01*
X140704066Y-104781371D01*
X140608828Y-104828990D01*
X140227876Y-104828990D01*
X141180257Y-104400419D02*
X141227876Y-104352800D01*
X141323114Y-104305180D01*
X141561209Y-104305180D01*
X141656447Y-104352800D01*
X141704066Y-104400419D01*
X141751685Y-104495657D01*
X141751685Y-104590895D01*
X141704066Y-104733752D01*
X141132638Y-105305180D01*
X141751685Y-105305180D01*
X142132638Y-104400419D02*
X142180257Y-104352800D01*
X142275495Y-104305180D01*
X142513590Y-104305180D01*
X142608828Y-104352800D01*
X142656447Y-104400419D01*
X142704066Y-104495657D01*
X142704066Y-104590895D01*
X142656447Y-104733752D01*
X142085019Y-105305180D01*
X142704066Y-105305180D01*
%TO.C,RV3*%
X135422580Y-57645238D02*
X134946390Y-57978571D01*
X135422580Y-58216666D02*
X134422580Y-58216666D01*
X134422580Y-57835714D01*
X134470200Y-57740476D01*
X134517819Y-57692857D01*
X134613057Y-57645238D01*
X134755914Y-57645238D01*
X134851152Y-57692857D01*
X134898771Y-57740476D01*
X134946390Y-57835714D01*
X134946390Y-58216666D01*
X134422580Y-57359523D02*
X135422580Y-57026190D01*
X134422580Y-56692857D01*
X134422580Y-56454761D02*
X134422580Y-55835714D01*
X134803533Y-56169047D01*
X134803533Y-56026190D01*
X134851152Y-55930952D01*
X134898771Y-55883333D01*
X134994009Y-55835714D01*
X135232104Y-55835714D01*
X135327342Y-55883333D01*
X135374961Y-55930952D01*
X135422580Y-56026190D01*
X135422580Y-56311904D01*
X135374961Y-56407142D01*
X135327342Y-56454761D01*
%TO.C,FXC2*%
X140472476Y-86163171D02*
X140139142Y-86163171D01*
X140139142Y-86686980D02*
X140139142Y-85686980D01*
X140615333Y-85686980D01*
X140901047Y-85686980D02*
X141567714Y-86686980D01*
X141567714Y-85686980D02*
X140901047Y-86686980D01*
X142520095Y-86591742D02*
X142472476Y-86639361D01*
X142329619Y-86686980D01*
X142234380Y-86686980D01*
X142091523Y-86639361D01*
X141996285Y-86544123D01*
X141948666Y-86448885D01*
X141901047Y-86258409D01*
X141901047Y-86115552D01*
X141948666Y-85925076D01*
X141996285Y-85829838D01*
X142091523Y-85734600D01*
X142234380Y-85686980D01*
X142329619Y-85686980D01*
X142472476Y-85734600D01*
X142520095Y-85782219D01*
X142901047Y-85782219D02*
X142948666Y-85734600D01*
X143043904Y-85686980D01*
X143282000Y-85686980D01*
X143377238Y-85734600D01*
X143424857Y-85782219D01*
X143472476Y-85877457D01*
X143472476Y-85972695D01*
X143424857Y-86115552D01*
X142853428Y-86686980D01*
X143472476Y-86686980D01*
%TO.C,FXC3*%
X111643476Y-94646771D02*
X111310142Y-94646771D01*
X111310142Y-95170580D02*
X111310142Y-94170580D01*
X111786333Y-94170580D01*
X112072047Y-94170580D02*
X112738714Y-95170580D01*
X112738714Y-94170580D02*
X112072047Y-95170580D01*
X113691095Y-95075342D02*
X113643476Y-95122961D01*
X113500619Y-95170580D01*
X113405380Y-95170580D01*
X113262523Y-95122961D01*
X113167285Y-95027723D01*
X113119666Y-94932485D01*
X113072047Y-94742009D01*
X113072047Y-94599152D01*
X113119666Y-94408676D01*
X113167285Y-94313438D01*
X113262523Y-94218200D01*
X113405380Y-94170580D01*
X113500619Y-94170580D01*
X113643476Y-94218200D01*
X113691095Y-94265819D01*
X114024428Y-94170580D02*
X114643476Y-94170580D01*
X114310142Y-94551533D01*
X114453000Y-94551533D01*
X114548238Y-94599152D01*
X114595857Y-94646771D01*
X114643476Y-94742009D01*
X114643476Y-94980104D01*
X114595857Y-95075342D01*
X114548238Y-95122961D01*
X114453000Y-95170580D01*
X114167285Y-95170580D01*
X114072047Y-95122961D01*
X114024428Y-95075342D01*
%TO.C,R5*%
X151937180Y-87087066D02*
X151460990Y-87420400D01*
X151937180Y-87658495D02*
X150937180Y-87658495D01*
X150937180Y-87277542D01*
X150984800Y-87182304D01*
X151032419Y-87134685D01*
X151127657Y-87087066D01*
X151270514Y-87087066D01*
X151365752Y-87134685D01*
X151413371Y-87182304D01*
X151460990Y-87277542D01*
X151460990Y-87658495D01*
X150937180Y-86182304D02*
X150937180Y-86658495D01*
X151413371Y-86706114D01*
X151365752Y-86658495D01*
X151318133Y-86563257D01*
X151318133Y-86325161D01*
X151365752Y-86229923D01*
X151413371Y-86182304D01*
X151508609Y-86134685D01*
X151746704Y-86134685D01*
X151841942Y-86182304D01*
X151889561Y-86229923D01*
X151937180Y-86325161D01*
X151937180Y-86563257D01*
X151889561Y-86658495D01*
X151841942Y-86706114D01*
%TO.C,RV1*%
X103697980Y-57645238D02*
X103221790Y-57978571D01*
X103697980Y-58216666D02*
X102697980Y-58216666D01*
X102697980Y-57835714D01*
X102745600Y-57740476D01*
X102793219Y-57692857D01*
X102888457Y-57645238D01*
X103031314Y-57645238D01*
X103126552Y-57692857D01*
X103174171Y-57740476D01*
X103221790Y-57835714D01*
X103221790Y-58216666D01*
X102697980Y-57359523D02*
X103697980Y-57026190D01*
X102697980Y-56692857D01*
X103697980Y-55835714D02*
X103697980Y-56407142D01*
X103697980Y-56121428D02*
X102697980Y-56121428D01*
X102840838Y-56216666D01*
X102936076Y-56311904D01*
X102983695Y-56407142D01*
%TO.C,FXC5*%
X115972276Y-77897371D02*
X115638942Y-77897371D01*
X115638942Y-78421180D02*
X115638942Y-77421180D01*
X116115133Y-77421180D01*
X116400847Y-77421180D02*
X117067514Y-78421180D01*
X117067514Y-77421180D02*
X116400847Y-78421180D01*
X118019895Y-78325942D02*
X117972276Y-78373561D01*
X117829419Y-78421180D01*
X117734180Y-78421180D01*
X117591323Y-78373561D01*
X117496085Y-78278323D01*
X117448466Y-78183085D01*
X117400847Y-77992609D01*
X117400847Y-77849752D01*
X117448466Y-77659276D01*
X117496085Y-77564038D01*
X117591323Y-77468800D01*
X117734180Y-77421180D01*
X117829419Y-77421180D01*
X117972276Y-77468800D01*
X118019895Y-77516419D01*
X118924657Y-77421180D02*
X118448466Y-77421180D01*
X118400847Y-77897371D01*
X118448466Y-77849752D01*
X118543704Y-77802133D01*
X118781800Y-77802133D01*
X118877038Y-77849752D01*
X118924657Y-77897371D01*
X118972276Y-77992609D01*
X118972276Y-78230704D01*
X118924657Y-78325942D01*
X118877038Y-78373561D01*
X118781800Y-78421180D01*
X118543704Y-78421180D01*
X118448466Y-78373561D01*
X118400847Y-78325942D01*
%TO.C,FXC4*%
X131226876Y-98863171D02*
X130893542Y-98863171D01*
X130893542Y-99386980D02*
X130893542Y-98386980D01*
X131369733Y-98386980D01*
X131655447Y-98386980D02*
X132322114Y-99386980D01*
X132322114Y-98386980D02*
X131655447Y-99386980D01*
X133274495Y-99291742D02*
X133226876Y-99339361D01*
X133084019Y-99386980D01*
X132988780Y-99386980D01*
X132845923Y-99339361D01*
X132750685Y-99244123D01*
X132703066Y-99148885D01*
X132655447Y-98958409D01*
X132655447Y-98815552D01*
X132703066Y-98625076D01*
X132750685Y-98529838D01*
X132845923Y-98434600D01*
X132988780Y-98386980D01*
X133084019Y-98386980D01*
X133226876Y-98434600D01*
X133274495Y-98482219D01*
X134131638Y-98720314D02*
X134131638Y-99386980D01*
X133893542Y-98339361D02*
X133655447Y-99053647D01*
X134274495Y-99053647D01*
%TO.C,FXR1*%
X144587276Y-101682571D02*
X144253942Y-101682571D01*
X144253942Y-102206380D02*
X144253942Y-101206380D01*
X144730133Y-101206380D01*
X145015847Y-101206380D02*
X145682514Y-102206380D01*
X145682514Y-101206380D02*
X145015847Y-102206380D01*
X146634895Y-102206380D02*
X146301561Y-101730190D01*
X146063466Y-102206380D02*
X146063466Y-101206380D01*
X146444419Y-101206380D01*
X146539657Y-101254000D01*
X146587276Y-101301619D01*
X146634895Y-101396857D01*
X146634895Y-101539714D01*
X146587276Y-101634952D01*
X146539657Y-101682571D01*
X146444419Y-101730190D01*
X146063466Y-101730190D01*
X147587276Y-102206380D02*
X147015847Y-102206380D01*
X147301561Y-102206380D02*
X147301561Y-101206380D01*
X147206323Y-101349238D01*
X147111085Y-101444476D01*
X147015847Y-101492095D01*
%TO.C,FXR6*%
X109687676Y-66198771D02*
X109354342Y-66198771D01*
X109354342Y-66722580D02*
X109354342Y-65722580D01*
X109830533Y-65722580D01*
X110116247Y-65722580D02*
X110782914Y-66722580D01*
X110782914Y-65722580D02*
X110116247Y-66722580D01*
X111735295Y-66722580D02*
X111401961Y-66246390D01*
X111163866Y-66722580D02*
X111163866Y-65722580D01*
X111544819Y-65722580D01*
X111640057Y-65770200D01*
X111687676Y-65817819D01*
X111735295Y-65913057D01*
X111735295Y-66055914D01*
X111687676Y-66151152D01*
X111640057Y-66198771D01*
X111544819Y-66246390D01*
X111163866Y-66246390D01*
X112592438Y-65722580D02*
X112401961Y-65722580D01*
X112306723Y-65770200D01*
X112259104Y-65817819D01*
X112163866Y-65960676D01*
X112116247Y-66151152D01*
X112116247Y-66532104D01*
X112163866Y-66627342D01*
X112211485Y-66674961D01*
X112306723Y-66722580D01*
X112497200Y-66722580D01*
X112592438Y-66674961D01*
X112640057Y-66627342D01*
X112687676Y-66532104D01*
X112687676Y-66294009D01*
X112640057Y-66198771D01*
X112592438Y-66151152D01*
X112497200Y-66103533D01*
X112306723Y-66103533D01*
X112211485Y-66151152D01*
X112163866Y-66198771D01*
X112116247Y-66294009D01*
%TO.C,FXR10*%
X136808371Y-77326914D02*
X136808371Y-77660247D01*
X137332180Y-77660247D02*
X136332180Y-77660247D01*
X136332180Y-77184057D01*
X136332180Y-76898342D02*
X137332180Y-76231676D01*
X136332180Y-76231676D02*
X137332180Y-76898342D01*
X137332180Y-75279295D02*
X136855990Y-75612628D01*
X137332180Y-75850723D02*
X136332180Y-75850723D01*
X136332180Y-75469771D01*
X136379800Y-75374533D01*
X136427419Y-75326914D01*
X136522657Y-75279295D01*
X136665514Y-75279295D01*
X136760752Y-75326914D01*
X136808371Y-75374533D01*
X136855990Y-75469771D01*
X136855990Y-75850723D01*
X137332180Y-74326914D02*
X137332180Y-74898342D01*
X137332180Y-74612628D02*
X136332180Y-74612628D01*
X136475038Y-74707866D01*
X136570276Y-74803104D01*
X136617895Y-74898342D01*
X136332180Y-73707866D02*
X136332180Y-73612628D01*
X136379800Y-73517390D01*
X136427419Y-73469771D01*
X136522657Y-73422152D01*
X136713133Y-73374533D01*
X136951228Y-73374533D01*
X137141704Y-73422152D01*
X137236942Y-73469771D01*
X137284561Y-73517390D01*
X137332180Y-73612628D01*
X137332180Y-73707866D01*
X137284561Y-73803104D01*
X137236942Y-73850723D01*
X137141704Y-73898342D01*
X136951228Y-73945961D01*
X136713133Y-73945961D01*
X136522657Y-73898342D01*
X136427419Y-73850723D01*
X136379800Y-73803104D01*
X136332180Y-73707866D01*
%TO.C,FXR5*%
X136274971Y-95418123D02*
X136274971Y-95751457D01*
X136798780Y-95751457D02*
X135798780Y-95751457D01*
X135798780Y-95275266D01*
X135798780Y-94989552D02*
X136798780Y-94322885D01*
X135798780Y-94322885D02*
X136798780Y-94989552D01*
X136798780Y-93370504D02*
X136322590Y-93703838D01*
X136798780Y-93941933D02*
X135798780Y-93941933D01*
X135798780Y-93560980D01*
X135846400Y-93465742D01*
X135894019Y-93418123D01*
X135989257Y-93370504D01*
X136132114Y-93370504D01*
X136227352Y-93418123D01*
X136274971Y-93465742D01*
X136322590Y-93560980D01*
X136322590Y-93941933D01*
X135798780Y-92465742D02*
X135798780Y-92941933D01*
X136274971Y-92989552D01*
X136227352Y-92941933D01*
X136179733Y-92846695D01*
X136179733Y-92608600D01*
X136227352Y-92513361D01*
X136274971Y-92465742D01*
X136370209Y-92418123D01*
X136608304Y-92418123D01*
X136703542Y-92465742D01*
X136751161Y-92513361D01*
X136798780Y-92608600D01*
X136798780Y-92846695D01*
X136751161Y-92941933D01*
X136703542Y-92989552D01*
%TO.C,FXR9*%
X138872276Y-82886571D02*
X138538942Y-82886571D01*
X138538942Y-83410380D02*
X138538942Y-82410380D01*
X139015133Y-82410380D01*
X139300847Y-82410380D02*
X139967514Y-83410380D01*
X139967514Y-82410380D02*
X139300847Y-83410380D01*
X140919895Y-83410380D02*
X140586561Y-82934190D01*
X140348466Y-83410380D02*
X140348466Y-82410380D01*
X140729419Y-82410380D01*
X140824657Y-82458000D01*
X140872276Y-82505619D01*
X140919895Y-82600857D01*
X140919895Y-82743714D01*
X140872276Y-82838952D01*
X140824657Y-82886571D01*
X140729419Y-82934190D01*
X140348466Y-82934190D01*
X141396085Y-83410380D02*
X141586561Y-83410380D01*
X141681800Y-83362761D01*
X141729419Y-83315142D01*
X141824657Y-83172285D01*
X141872276Y-82981809D01*
X141872276Y-82600857D01*
X141824657Y-82505619D01*
X141777038Y-82458000D01*
X141681800Y-82410380D01*
X141491323Y-82410380D01*
X141396085Y-82458000D01*
X141348466Y-82505619D01*
X141300847Y-82600857D01*
X141300847Y-82838952D01*
X141348466Y-82934190D01*
X141396085Y-82981809D01*
X141491323Y-83029428D01*
X141681800Y-83029428D01*
X141777038Y-82981809D01*
X141824657Y-82934190D01*
X141872276Y-82838952D01*
%TO.C,FXD2*%
X132376095Y-93570380D02*
X132376095Y-92570380D01*
X132947523Y-93570380D02*
X132518952Y-92998952D01*
X132947523Y-92570380D02*
X132376095Y-93141809D01*
%TO.C,SW1*%
X79808400Y-147163400D02*
X61808400Y-147163400D01*
X61808400Y-147163400D02*
X61808400Y-129863400D01*
X61808400Y-129863400D02*
X79708400Y-129863400D01*
X79808400Y-147163400D02*
X79808400Y-129863400D01*
D11*
%TO.C,J3*%
X66418400Y-127858400D02*
X66418400Y-109568400D01*
X57618400Y-109568400D02*
X61048400Y-109568400D01*
X66448400Y-114458400D02*
X69668400Y-114458400D01*
X61048400Y-127858400D02*
X57618400Y-127858400D01*
X48358400Y-127858400D02*
X45808400Y-127858400D01*
X69688400Y-122968400D02*
X69688400Y-114488400D01*
X66418400Y-127858400D02*
X63968400Y-127858400D01*
X45808400Y-109568400D02*
X48358400Y-109568400D01*
X51268400Y-109568400D02*
X54698400Y-109568400D01*
X66448400Y-122968400D02*
X69668400Y-122968400D01*
X54698400Y-127858400D02*
X51268400Y-127858400D01*
X42808400Y-124558400D02*
X45808400Y-124558400D01*
X66418400Y-109568400D02*
X63968400Y-109568400D01*
X42808400Y-124558400D02*
X42808400Y-112858400D01*
X45808400Y-127858400D02*
X45808400Y-109568400D01*
X42808400Y-112858400D02*
X45808400Y-112858400D01*
%TO.C,J2*%
X70478400Y-58958400D02*
X73078400Y-58958400D01*
X67878400Y-61618400D02*
X67878400Y-60288400D01*
X70478400Y-61618400D02*
X70478400Y-58958400D01*
X70478400Y-61618400D02*
X73078400Y-61618400D01*
X69208400Y-61618400D02*
X67878400Y-61618400D01*
X73078400Y-61618400D02*
X73078400Y-58958400D01*
%TO.C,C2*%
X93596400Y-137758400D02*
X90538400Y-137758400D01*
X88578400Y-138879400D02*
X85769400Y-138879400D01*
X93529400Y-138239400D02*
X90538400Y-138239400D01*
X92115400Y-140599400D02*
X87001400Y-140599400D01*
X88578400Y-138279400D02*
X85595400Y-138279400D01*
X93545400Y-138159400D02*
X90538400Y-138159400D01*
X88578400Y-139359400D02*
X85986400Y-139359400D01*
X88578400Y-139319400D02*
X85965400Y-139319400D01*
X88578400Y-139479400D02*
X86053400Y-139479400D01*
X90685400Y-141359400D02*
X88431400Y-141359400D01*
X92859400Y-139799400D02*
X86257400Y-139799400D01*
X90208400Y-134588400D02*
X88908400Y-134588400D01*
X88578400Y-138759400D02*
X85726400Y-138759400D01*
X92015400Y-140679400D02*
X87101400Y-140679400D01*
X93504400Y-138359400D02*
X90538400Y-138359400D01*
X91731400Y-140879400D02*
X87385400Y-140879400D01*
X91218400Y-141159400D02*
X87898400Y-141159400D01*
X93416400Y-138679400D02*
X90538400Y-138679400D01*
X88578400Y-138599400D02*
X85675400Y-138599400D01*
X93086400Y-139439400D02*
X90538400Y-139439400D01*
X92537400Y-140199400D02*
X86579400Y-140199400D01*
X93605400Y-137598400D02*
X85511400Y-137598400D01*
X88578400Y-139639400D02*
X86150400Y-139639400D01*
X93608400Y-137438400D02*
X85508400Y-137438400D01*
X93537400Y-138199400D02*
X90538400Y-138199400D01*
X92382400Y-140359400D02*
X86734400Y-140359400D01*
X88578400Y-138919400D02*
X85785400Y-138919400D01*
X93248400Y-139119400D02*
X90538400Y-139119400D01*
X93589400Y-137838400D02*
X90538400Y-137838400D01*
X92210400Y-140519400D02*
X86906400Y-140519400D01*
X93580400Y-137918400D02*
X90538400Y-137918400D01*
X88578400Y-139279400D02*
X85945400Y-139279400D01*
X88578400Y-138038400D02*
X85552400Y-138038400D01*
X91384400Y-141079400D02*
X87732400Y-141079400D01*
X88578400Y-139199400D02*
X85906400Y-139199400D01*
X93063400Y-139479400D02*
X90538400Y-139479400D01*
X93441400Y-138599400D02*
X90538400Y-138599400D01*
X88578400Y-139119400D02*
X85868400Y-139119400D01*
X93171400Y-139279400D02*
X90538400Y-139279400D01*
X92423400Y-140319400D02*
X86693400Y-140319400D01*
X88578400Y-139519400D02*
X86076400Y-139519400D01*
X92341400Y-140399400D02*
X86775400Y-140399400D01*
X88578400Y-137838400D02*
X85527400Y-137838400D01*
X90372400Y-141439400D02*
X88744400Y-141439400D01*
X90812400Y-141319400D02*
X88304400Y-141319400D01*
X92066400Y-140639400D02*
X87050400Y-140639400D01*
X88578400Y-138799400D02*
X85740400Y-138799400D01*
X88578400Y-138519400D02*
X85653400Y-138519400D01*
X91601400Y-140959400D02*
X87515400Y-140959400D01*
X93607400Y-137558400D02*
X85509400Y-137558400D01*
X88578400Y-137958400D02*
X85541400Y-137958400D01*
X93108400Y-139399400D02*
X90538400Y-139399400D01*
X93513400Y-138319400D02*
X90538400Y-138319400D01*
X92801400Y-139879400D02*
X86315400Y-139879400D01*
X92298400Y-140439400D02*
X86818400Y-140439400D01*
X88578400Y-138439400D02*
X85632400Y-138439400D01*
X91792400Y-140839400D02*
X87324400Y-140839400D01*
X92914400Y-139719400D02*
X86202400Y-139719400D01*
X88578400Y-138159400D02*
X85571400Y-138159400D01*
X93151400Y-139319400D02*
X90538400Y-139319400D01*
X93558400Y-138078400D02*
X90538400Y-138078400D01*
X88578400Y-137758400D02*
X85520400Y-137758400D01*
X93608400Y-137518400D02*
X85508400Y-137518400D01*
X93601400Y-137678400D02*
X85515400Y-137678400D01*
X88578400Y-139559400D02*
X86100400Y-139559400D01*
X92708400Y-139999400D02*
X86408400Y-139999400D01*
X92163400Y-140559400D02*
X86953400Y-140559400D01*
X91667400Y-140919400D02*
X87449400Y-140919400D01*
X88578400Y-137998400D02*
X85546400Y-137998400D01*
X88578400Y-138239400D02*
X85587400Y-138239400D01*
X92608400Y-140119400D02*
X86508400Y-140119400D01*
X93599400Y-137718400D02*
X90538400Y-137718400D01*
X88578400Y-139039400D02*
X85833400Y-139039400D01*
X88578400Y-139159400D02*
X85887400Y-139159400D01*
X93210400Y-139199400D02*
X90538400Y-139199400D01*
X88578400Y-138839400D02*
X85755400Y-138839400D01*
X91962400Y-140719400D02*
X87154400Y-140719400D01*
X93552400Y-138118400D02*
X90538400Y-138118400D01*
X88578400Y-138559400D02*
X85664400Y-138559400D01*
X91851400Y-140799400D02*
X87265400Y-140799400D01*
X88578400Y-137918400D02*
X85536400Y-137918400D01*
X88578400Y-138399400D02*
X85622400Y-138399400D01*
X88578400Y-138719400D02*
X85713400Y-138719400D01*
X91031400Y-141239400D02*
X88085400Y-141239400D01*
X92642400Y-140079400D02*
X86474400Y-140079400D01*
X93316400Y-138959400D02*
X90538400Y-138959400D01*
X92462400Y-140279400D02*
X86654400Y-140279400D01*
X93474400Y-138479400D02*
X90538400Y-138479400D01*
X92966400Y-139639400D02*
X90538400Y-139639400D01*
X88578400Y-139399400D02*
X86008400Y-139399400D01*
X92830400Y-139839400D02*
X86286400Y-139839400D01*
X93593400Y-137798400D02*
X90538400Y-137798400D01*
X90156400Y-141479400D02*
X88960400Y-141479400D01*
X88578400Y-138679400D02*
X85700400Y-138679400D01*
X93283400Y-139039400D02*
X90538400Y-139039400D01*
X92887400Y-139759400D02*
X86229400Y-139759400D01*
X93608400Y-137478400D02*
X85508400Y-137478400D01*
X92676400Y-140039400D02*
X86440400Y-140039400D01*
X92771400Y-139919400D02*
X86345400Y-139919400D01*
X88578400Y-139079400D02*
X85851400Y-139079400D01*
X93463400Y-138519400D02*
X90538400Y-138519400D01*
X88578400Y-138479400D02*
X85642400Y-138479400D01*
X88578400Y-139439400D02*
X86030400Y-139439400D01*
X89804400Y-141519400D02*
X89312400Y-141519400D01*
X93376400Y-138799400D02*
X90538400Y-138799400D01*
X93390400Y-138759400D02*
X90538400Y-138759400D01*
X91128400Y-141199400D02*
X87988400Y-141199400D01*
X93403400Y-138719400D02*
X90538400Y-138719400D01*
X88578400Y-138959400D02*
X85800400Y-138959400D01*
X92992400Y-139599400D02*
X90538400Y-139599400D01*
X90541400Y-141399400D02*
X88575400Y-141399400D01*
X92255400Y-140479400D02*
X86861400Y-140479400D01*
X88578400Y-138639400D02*
X85688400Y-138639400D01*
X90927400Y-141279400D02*
X88189400Y-141279400D01*
X91303400Y-141119400D02*
X87813400Y-141119400D01*
X93575400Y-137958400D02*
X90538400Y-137958400D01*
X88578400Y-138359400D02*
X85612400Y-138359400D01*
X93604400Y-137638400D02*
X85512400Y-137638400D01*
X92941400Y-139679400D02*
X86175400Y-139679400D01*
X88578400Y-139239400D02*
X85925400Y-139239400D01*
X88578400Y-137798400D02*
X85523400Y-137798400D01*
X88578400Y-138319400D02*
X85603400Y-138319400D01*
X93484400Y-138439400D02*
X90538400Y-138439400D01*
X93428400Y-138639400D02*
X90538400Y-138639400D01*
X89558400Y-133988400D02*
X89558400Y-135188400D01*
X93494400Y-138399400D02*
X90538400Y-138399400D01*
X91460400Y-141039400D02*
X87656400Y-141039400D01*
X93016400Y-139559400D02*
X90538400Y-139559400D01*
X88578400Y-138078400D02*
X85558400Y-138078400D01*
X88578400Y-137718400D02*
X85517400Y-137718400D01*
X93130400Y-139359400D02*
X90538400Y-139359400D01*
X93040400Y-139519400D02*
X90538400Y-139519400D01*
X93521400Y-138279400D02*
X90538400Y-138279400D01*
X88578400Y-138199400D02*
X85579400Y-138199400D01*
X93564400Y-138038400D02*
X90538400Y-138038400D01*
X88578400Y-138118400D02*
X85564400Y-138118400D01*
X92500400Y-140239400D02*
X86616400Y-140239400D01*
X88578400Y-137878400D02*
X85531400Y-137878400D01*
X93347400Y-138879400D02*
X90538400Y-138879400D01*
X93265400Y-139079400D02*
X90538400Y-139079400D01*
X93331400Y-138919400D02*
X90538400Y-138919400D01*
X93191400Y-139239400D02*
X90538400Y-139239400D01*
X88578400Y-138999400D02*
X85817400Y-138999400D01*
X93229400Y-139159400D02*
X90538400Y-139159400D01*
X93299400Y-138999400D02*
X90538400Y-138999400D01*
X88578400Y-139599400D02*
X86124400Y-139599400D01*
X91907400Y-140759400D02*
X87209400Y-140759400D01*
X93361400Y-138839400D02*
X90538400Y-138839400D01*
X93585400Y-137878400D02*
X90538400Y-137878400D01*
X91532400Y-140999400D02*
X87584400Y-140999400D01*
X92573400Y-140159400D02*
X86543400Y-140159400D01*
X92740400Y-139959400D02*
X86376400Y-139959400D01*
X93570400Y-137998400D02*
X90538400Y-137998400D01*
X93452400Y-138559400D02*
X90538400Y-138559400D01*
X93648400Y-137438400D02*
G75*
G03*
X93648400Y-137438400I-4090000J0D01*
G01*
D10*
%TO.C,D1*%
X51558400Y-134758400D02*
X48558400Y-134758400D01*
X51583304Y-134743288D02*
G75*
G03*
X48558400Y-134758400I-1524904J2484888D01*
G01*
X52576336Y-132258400D02*
G75*
G03*
X52576336Y-132258400I-2517936J0D01*
G01*
%TO.C,R1*%
X84301800Y-137288600D02*
X81761800Y-137288600D01*
X81761800Y-137288600D02*
X81761800Y-132208600D01*
X84301800Y-132208600D02*
X84301800Y-137288600D01*
X81761800Y-132208600D02*
X84301800Y-132208600D01*
%TO.C,R3*%
X57288400Y-132278400D02*
X59828400Y-132278400D01*
X57288400Y-137358400D02*
X57288400Y-132278400D01*
X59828400Y-132278400D02*
X59828400Y-137358400D01*
X59828400Y-137358400D02*
X57288400Y-137358400D01*
%TO.C,R2*%
X56578400Y-137338400D02*
X54038400Y-137338400D01*
X54038400Y-132258400D02*
X56578400Y-132258400D01*
X54038400Y-137338400D02*
X54038400Y-132258400D01*
X56578400Y-132258400D02*
X56578400Y-137338400D01*
%TO.C,C1*%
X94608400Y-129238400D02*
X94608400Y-132738400D01*
X87608400Y-132738400D02*
X87608400Y-129238400D01*
X94608400Y-132738400D02*
X87608400Y-132738400D01*
X87608400Y-129238400D02*
X94608400Y-129238400D01*
D11*
%TO.C,J1*%
X79568400Y-109378400D02*
X82998400Y-109378400D01*
X82998400Y-127668400D02*
X79568400Y-127668400D01*
X74198400Y-127668400D02*
X76648400Y-127668400D01*
X97808400Y-112678400D02*
X94808400Y-112678400D01*
X97808400Y-112678400D02*
X97808400Y-124378400D01*
X97808400Y-124378400D02*
X94808400Y-124378400D01*
X92258400Y-109378400D02*
X94808400Y-109378400D01*
X85918400Y-109378400D02*
X89348400Y-109378400D01*
X89348400Y-127668400D02*
X85918400Y-127668400D01*
X94808400Y-109378400D02*
X94808400Y-127668400D01*
X94808400Y-127668400D02*
X92258400Y-127668400D01*
X74198400Y-109378400D02*
X74198400Y-127668400D01*
X70928400Y-114268400D02*
X70928400Y-122748400D01*
X74198400Y-109378400D02*
X76648400Y-109378400D01*
X74168400Y-114268400D02*
X70948400Y-114268400D01*
X74168400Y-122778400D02*
X70948400Y-122778400D01*
%TO.C,FXC4*%
X65248000Y-89687400D02*
X70488000Y-89687400D01*
X65248000Y-86947400D02*
X65248000Y-87262400D01*
X65248000Y-86947400D02*
X70488000Y-86947400D01*
X70488000Y-89372400D02*
X70488000Y-89687400D01*
X70488000Y-86947400D02*
X70488000Y-87262400D01*
X65248000Y-89372400D02*
X65248000Y-89687400D01*
%TO.C,FXC1*%
X72873400Y-105176000D02*
X73188400Y-105176000D01*
X75613400Y-105176000D02*
X75613400Y-99936000D01*
X75298400Y-99936000D02*
X75613400Y-99936000D01*
X72873400Y-105176000D02*
X72873400Y-99936000D01*
X75298400Y-105176000D02*
X75613400Y-105176000D01*
X72873400Y-99936000D02*
X73188400Y-99936000D01*
%TO.C,FXR2*%
X64115400Y-99444000D02*
X64115400Y-99114000D01*
X70655400Y-101854000D02*
X70655400Y-101524000D01*
X64115400Y-101524000D02*
X64115400Y-101854000D01*
X64115400Y-99114000D02*
X70655400Y-99114000D01*
X64115400Y-101854000D02*
X70655400Y-101854000D01*
X70655400Y-99114000D02*
X70655400Y-99444000D01*
%TO.C,RV2*%
X71152200Y-66058000D02*
X66782200Y-66058000D01*
X78372200Y-76998000D02*
X78372200Y-66058000D01*
X71152200Y-76998000D02*
X66782200Y-76998000D01*
X66782200Y-67878000D02*
X66782200Y-66058000D01*
X66782200Y-76998000D02*
X66782200Y-75178000D01*
X78372200Y-66058000D02*
X75652200Y-66058000D01*
X78372200Y-76998000D02*
X75652200Y-76998000D01*
%TO.C,TP1*%
X65907200Y-77700200D02*
G75*
G03*
X65907200Y-77700200I-1900000J0D01*
G01*
%TO.C,FXC2*%
X62049800Y-70729800D02*
X62049800Y-65489800D01*
X59309800Y-70729800D02*
X59309800Y-65489800D01*
X61734800Y-70729800D02*
X62049800Y-70729800D01*
X59309800Y-70729800D02*
X59624800Y-70729800D01*
X61734800Y-65489800D02*
X62049800Y-65489800D01*
X59309800Y-65489800D02*
X59624800Y-65489800D01*
%TO.C,FXC3*%
X75658600Y-85429806D02*
X69932600Y-85429806D01*
X74676600Y-86229806D02*
X70914600Y-86229806D01*
X71755600Y-83268806D02*
X68985600Y-83268806D01*
X75967600Y-85029806D02*
X73835600Y-85029806D01*
X74809600Y-86149806D02*
X70781600Y-86149806D01*
X75150600Y-85909806D02*
X70440600Y-85909806D01*
X74872600Y-86109806D02*
X70718600Y-86109806D01*
X76138600Y-84749806D02*
X73835600Y-84749806D01*
X76483600Y-83909806D02*
X73835600Y-83909806D01*
X76609600Y-83228806D02*
X73835600Y-83228806D01*
X76331600Y-84349806D02*
X73835600Y-84349806D01*
X71755600Y-84469806D02*
X69311600Y-84469806D01*
X71755600Y-84629806D02*
X69388600Y-84629806D01*
X71755600Y-83348806D02*
X68994600Y-83348806D01*
X76524600Y-83749806D02*
X73835600Y-83749806D01*
X76044600Y-84909806D02*
X73835600Y-84909806D01*
X71755600Y-83909806D02*
X69107600Y-83909806D01*
X76181600Y-84669806D02*
X73835600Y-84669806D01*
X71755600Y-83989806D02*
X69130600Y-83989806D01*
X75468600Y-85629806D02*
X70122600Y-85629806D01*
X71755600Y-84949806D02*
X69571600Y-84949806D01*
X75045600Y-85989806D02*
X70545600Y-85989806D01*
X71755600Y-83188806D02*
X68978600Y-83188806D01*
X71755600Y-84549806D02*
X69348600Y-84549806D01*
X71755600Y-84389806D02*
X69275600Y-84389806D01*
X76261600Y-84509806D02*
X73835600Y-84509806D01*
X71755600Y-83629806D02*
X69040600Y-83629806D01*
X76379600Y-84229806D02*
X73835600Y-84229806D01*
X75853600Y-85189806D02*
X69737600Y-85189806D01*
X71755600Y-83428806D02*
X69005600Y-83428806D01*
X76116600Y-84789806D02*
X73835600Y-84789806D01*
X75911600Y-85109806D02*
X73835600Y-85109806D01*
X75622600Y-85469806D02*
X69968600Y-85469806D01*
X71755600Y-84829806D02*
X69498600Y-84829806D01*
X76624600Y-82988806D02*
X68966600Y-82988806D01*
X76612600Y-83188806D02*
X73835600Y-83188806D01*
X76542600Y-83669806D02*
X73835600Y-83669806D01*
X76565600Y-83548806D02*
X73835600Y-83548806D01*
X71755600Y-84429806D02*
X69293600Y-84429806D01*
X75341600Y-85749806D02*
X70249600Y-85749806D01*
X75726600Y-85349806D02*
X69864600Y-85349806D01*
X75823600Y-85229806D02*
X69767600Y-85229806D01*
X74932600Y-86069806D02*
X70658600Y-86069806D01*
X75099600Y-85949806D02*
X70491600Y-85949806D01*
X73672600Y-86629806D02*
X71918600Y-86629806D01*
X76494600Y-83869806D02*
X73835600Y-83869806D01*
X71755600Y-83468806D02*
X69011600Y-83468806D01*
X75295600Y-85789806D02*
X70295600Y-85789806D01*
X76615600Y-83148806D02*
X73835600Y-83148806D01*
X76448600Y-84029806D02*
X73835600Y-84029806D01*
X71755600Y-83869806D02*
X69096600Y-83869806D01*
X76393600Y-84189806D02*
X73835600Y-84189806D01*
X76596600Y-83348806D02*
X73835600Y-83348806D01*
X71755600Y-84069806D02*
X69155600Y-84069806D01*
X71755600Y-83709806D02*
X69057600Y-83709806D01*
X76222600Y-84589806D02*
X73835600Y-84589806D01*
X74970600Y-78726595D02*
X74970600Y-79476595D01*
X76472600Y-83949806D02*
X73835600Y-83949806D01*
X76515600Y-83789806D02*
X73835600Y-83789806D01*
X71755600Y-83548806D02*
X69025600Y-83548806D01*
X71755600Y-84989806D02*
X69597600Y-84989806D01*
X74990600Y-86029806D02*
X70600600Y-86029806D01*
X71755600Y-84149806D02*
X69182600Y-84149806D01*
X75759600Y-85309806D02*
X69831600Y-85309806D01*
X76202600Y-84629806D02*
X73835600Y-84629806D01*
X71755600Y-83829806D02*
X69085600Y-83829806D01*
X75993600Y-84989806D02*
X73835600Y-84989806D01*
X76421600Y-84109806D02*
X73835600Y-84109806D01*
X76315600Y-84389806D02*
X73835600Y-84389806D01*
X75547600Y-85549806D02*
X70043600Y-85549806D01*
X76348600Y-84309806D02*
X73835600Y-84309806D01*
X76460600Y-83989806D02*
X73835600Y-83989806D01*
X71755600Y-84349806D02*
X69259600Y-84349806D01*
X73488600Y-86669806D02*
X72102600Y-86669806D01*
X71755600Y-83228806D02*
X68981600Y-83228806D01*
X71755600Y-83308806D02*
X68990600Y-83308806D01*
X71755600Y-83589806D02*
X69032600Y-83589806D01*
X74449600Y-86349806D02*
X71141600Y-86349806D01*
X76572600Y-83508806D02*
X73835600Y-83508806D01*
X76620600Y-83068806D02*
X68970600Y-83068806D01*
X76160600Y-84709806D02*
X73835600Y-84709806D01*
X74176600Y-86469806D02*
X71414600Y-86469806D01*
X71755600Y-84749806D02*
X69452600Y-84749806D01*
X71755600Y-85069806D02*
X69651600Y-85069806D01*
X71755600Y-84229806D02*
X69211600Y-84229806D01*
X76622600Y-83028806D02*
X68968600Y-83028806D01*
X74070600Y-86509806D02*
X71520600Y-86509806D01*
X76625600Y-82868806D02*
X68965600Y-82868806D01*
X76625600Y-82948806D02*
X68965600Y-82948806D01*
X71755600Y-84869806D02*
X69521600Y-84869806D01*
X76505600Y-83829806D02*
X73835600Y-83829806D01*
X73823600Y-86589806D02*
X71767600Y-86589806D01*
X76625600Y-82908806D02*
X68965600Y-82908806D01*
X75200600Y-85869806D02*
X70390600Y-85869806D01*
X76579600Y-83468806D02*
X73835600Y-83468806D01*
X76605600Y-83268806D02*
X73835600Y-83268806D01*
X71755600Y-83508806D02*
X69018600Y-83508806D01*
X71755600Y-84669806D02*
X69409600Y-84669806D01*
X76297600Y-84429806D02*
X73835600Y-84429806D01*
X75345600Y-79101595D02*
X74595600Y-79101595D01*
X71755600Y-84309806D02*
X69242600Y-84309806D01*
X76590600Y-83388806D02*
X73835600Y-83388806D01*
X71755600Y-83789806D02*
X69075600Y-83789806D01*
X71755600Y-83108806D02*
X68972600Y-83108806D01*
X73953600Y-86549806D02*
X71637600Y-86549806D01*
X75585600Y-85509806D02*
X70005600Y-85509806D01*
X75384600Y-85709806D02*
X70206600Y-85709806D01*
X71755600Y-83669806D02*
X69048600Y-83669806D01*
X76019600Y-84949806D02*
X73835600Y-84949806D01*
X74604600Y-86269806D02*
X70986600Y-86269806D01*
X71755600Y-83749806D02*
X69066600Y-83749806D01*
X71755600Y-85029806D02*
X69623600Y-85029806D01*
X76600600Y-83308806D02*
X73835600Y-83308806D01*
X76092600Y-84829806D02*
X73835600Y-84829806D01*
X71755600Y-84189806D02*
X69197600Y-84189806D01*
X74528600Y-86309806D02*
X71062600Y-86309806D01*
X76242600Y-84549806D02*
X73835600Y-84549806D01*
X76435600Y-84069806D02*
X73835600Y-84069806D01*
X76618600Y-83108806D02*
X73835600Y-83108806D01*
X75883600Y-85149806D02*
X73835600Y-85149806D01*
X76585600Y-83428806D02*
X73835600Y-83428806D01*
X71755600Y-83148806D02*
X68975600Y-83148806D01*
X71755600Y-83388806D02*
X69000600Y-83388806D01*
X71755600Y-84109806D02*
X69169600Y-84109806D01*
X74364600Y-86389806D02*
X71226600Y-86389806D01*
X71755600Y-84029806D02*
X69142600Y-84029806D01*
X75249600Y-85829806D02*
X70341600Y-85829806D01*
X71755600Y-84909806D02*
X69546600Y-84909806D01*
X71755600Y-85149806D02*
X69707600Y-85149806D01*
X75427600Y-85669806D02*
X70163600Y-85669806D01*
X76279600Y-84469806D02*
X73835600Y-84469806D01*
X76558600Y-83589806D02*
X73835600Y-83589806D01*
X76550600Y-83629806D02*
X73835600Y-83629806D01*
X71755600Y-84709806D02*
X69430600Y-84709806D01*
X76408600Y-84149806D02*
X73835600Y-84149806D01*
X75508600Y-85589806D02*
X70082600Y-85589806D01*
X71755600Y-83949806D02*
X69118600Y-83949806D01*
X76533600Y-83709806D02*
X73835600Y-83709806D01*
X71755600Y-84589806D02*
X69368600Y-84589806D01*
X76069600Y-84869806D02*
X73835600Y-84869806D01*
X73236600Y-86709806D02*
X72354600Y-86709806D01*
X76363600Y-84269806D02*
X73835600Y-84269806D01*
X74744600Y-86189806D02*
X70846600Y-86189806D01*
X71755600Y-84269806D02*
X69227600Y-84269806D01*
X75939600Y-85069806D02*
X73835600Y-85069806D01*
X75791600Y-85269806D02*
X69799600Y-85269806D01*
X71755600Y-85109806D02*
X69679600Y-85109806D01*
X71755600Y-84789806D02*
X69474600Y-84789806D01*
X75693600Y-85389806D02*
X69897600Y-85389806D01*
X71755600Y-84509806D02*
X69329600Y-84509806D01*
X74273600Y-86429806D02*
X71317600Y-86429806D01*
X76665600Y-82868806D02*
G75*
G03*
X76665600Y-82868806I-3870000J0D01*
G01*
%TO.C,D2*%
X78845200Y-98192600D02*
X81935200Y-98192600D01*
X81935030Y-98192600D02*
G75*
G03*
X80389738Y-92642600I-1544830J2560000D01*
G01*
X80390662Y-92642600D02*
G75*
G03*
X78845370Y-98192600I-462J-2990000D01*
G01*
X82890200Y-95632600D02*
G75*
G03*
X82890200Y-95632600I-2500000J0D01*
G01*
%TO.C,FXR7*%
X82728400Y-80831000D02*
X82398400Y-80831000D01*
X84808400Y-80831000D02*
X85138400Y-80831000D01*
X82398400Y-87371000D02*
X82728400Y-87371000D01*
X85138400Y-80831000D02*
X85138400Y-87371000D01*
X82398400Y-80831000D02*
X82398400Y-87371000D01*
X85138400Y-87371000D02*
X84808400Y-87371000D01*
%TO.C,Q2*%
X65977000Y-81283400D02*
X62127000Y-81283400D01*
X62127000Y-81283400D02*
G75*
G03*
X61734617Y-81871136I1909979J-1699985D01*
G01*
X66359631Y-81861355D02*
G75*
G03*
X65977000Y-81283400I-2322647J-1122056D01*
G01*
X64037000Y-85583400D02*
G75*
G03*
X66393400Y-84082207I-2J2600002D01*
G01*
X61680600Y-84082207D02*
G75*
G03*
X64037000Y-85583400I2356399J1098804D01*
G01*
%TO.C,FXC5*%
X87912400Y-67274400D02*
X87912400Y-67589400D01*
X82672400Y-67274400D02*
X82672400Y-67589400D01*
X82672400Y-64849400D02*
X87912400Y-64849400D01*
X82672400Y-64849400D02*
X82672400Y-65164400D01*
X87912400Y-64849400D02*
X87912400Y-65164400D01*
X82672400Y-67589400D02*
X87912400Y-67589400D01*
%TO.C,FXR4*%
X73437200Y-89589000D02*
X79977200Y-89589000D01*
X79977200Y-89589000D02*
X79977200Y-89919000D01*
X73437200Y-91999000D02*
X73437200Y-92329000D01*
X73437200Y-89919000D02*
X73437200Y-89589000D01*
X73437200Y-92329000D02*
X79977200Y-92329000D01*
X79977200Y-92329000D02*
X79977200Y-91999000D01*
%TO.C,FXR1*%
X77425000Y-101879400D02*
X77425000Y-101549400D01*
X83965000Y-99469400D02*
X83965000Y-99139400D01*
X83965000Y-101549400D02*
X83965000Y-101879400D01*
X83965000Y-99139400D02*
X77425000Y-99139400D01*
X77425000Y-99139400D02*
X77425000Y-99469400D01*
X83965000Y-101879400D02*
X77425000Y-101879400D01*
%TO.C,FXR3*%
X63988400Y-105181400D02*
X70528400Y-105181400D01*
X63988400Y-102441400D02*
X70528400Y-102441400D01*
X63988400Y-104851400D02*
X63988400Y-105181400D01*
X70528400Y-102441400D02*
X70528400Y-102771400D01*
X70528400Y-105181400D02*
X70528400Y-104851400D01*
X63988400Y-102771400D02*
X63988400Y-102441400D01*
%TO.C,RV3*%
X90337800Y-62220000D02*
X90337800Y-58283000D01*
X80296800Y-53916000D02*
X80296800Y-49980000D01*
X86188800Y-62220000D02*
X86947800Y-62220000D01*
X80296800Y-62220000D02*
X81946800Y-62220000D01*
X90337800Y-53916000D02*
X90337800Y-49980000D01*
X80296800Y-62220000D02*
X80296800Y-58283000D01*
X80296800Y-49980000D02*
X90337800Y-49980000D01*
X83688800Y-62220000D02*
X84447800Y-62220000D01*
X88687800Y-62220000D02*
X90337800Y-62220000D01*
%TO.C,RV1*%
X48572200Y-49980000D02*
X58613200Y-49980000D01*
X48572200Y-62220000D02*
X50222200Y-62220000D01*
X54464200Y-62220000D02*
X55223200Y-62220000D01*
X58613200Y-62220000D02*
X58613200Y-58283000D01*
X58613200Y-53916000D02*
X58613200Y-49980000D01*
X48572200Y-53916000D02*
X48572200Y-49980000D01*
X51964200Y-62220000D02*
X52723200Y-62220000D01*
X48572200Y-62220000D02*
X48572200Y-58283000D01*
X56963200Y-62220000D02*
X58613200Y-62220000D01*
%TO.C,FXR6*%
X81811000Y-83103800D02*
X81811000Y-76563800D01*
X81811000Y-76563800D02*
X81481000Y-76563800D01*
X79071000Y-83103800D02*
X79071000Y-76563800D01*
X79071000Y-76563800D02*
X79401000Y-76563800D01*
X81481000Y-83103800D02*
X81811000Y-83103800D01*
X79401000Y-83103800D02*
X79071000Y-83103800D01*
%TO.C,FXR5*%
X56863200Y-67183200D02*
X56863200Y-67513200D01*
X50323200Y-67513200D02*
X50323200Y-67183200D01*
X56863200Y-64773200D02*
X50323200Y-64773200D01*
X56863200Y-67513200D02*
X50323200Y-67513200D01*
X56863200Y-65103200D02*
X56863200Y-64773200D01*
X50323200Y-64773200D02*
X50323200Y-65103200D01*
%TO.C,Q1*%
X72392600Y-98701800D02*
X75992600Y-98701800D01*
X76031078Y-98690278D02*
G75*
G03*
X74192600Y-94251800I-1838478J1838478D01*
G01*
X74192600Y-94251799D02*
G75*
G03*
X72354122Y-98690278I0J-2600001D01*
G01*
D10*
%TO.C,SW1*%
X137110800Y-147163400D02*
X119110800Y-147163400D01*
X119110800Y-147163400D02*
X119110800Y-129863400D01*
X119110800Y-129863400D02*
X137010800Y-129863400D01*
X137110800Y-147163400D02*
X137110800Y-129863400D01*
D11*
%TO.C,J3*%
X123720800Y-127858400D02*
X123720800Y-109568400D01*
X114920800Y-109568400D02*
X118350800Y-109568400D01*
X123750800Y-114458400D02*
X126970800Y-114458400D01*
X118350800Y-127858400D02*
X114920800Y-127858400D01*
X105660800Y-127858400D02*
X103110800Y-127858400D01*
X126990800Y-122968400D02*
X126990800Y-114488400D01*
X123720800Y-127858400D02*
X121270800Y-127858400D01*
X103110800Y-109568400D02*
X105660800Y-109568400D01*
X108570800Y-109568400D02*
X112000800Y-109568400D01*
X123750800Y-122968400D02*
X126970800Y-122968400D01*
X112000800Y-127858400D02*
X108570800Y-127858400D01*
X100110800Y-124558400D02*
X103110800Y-124558400D01*
X123720800Y-109568400D02*
X121270800Y-109568400D01*
X100110800Y-124558400D02*
X100110800Y-112858400D01*
X103110800Y-127858400D02*
X103110800Y-109568400D01*
X100110800Y-112858400D02*
X103110800Y-112858400D01*
%TO.C,J1*%
X127780800Y-58958400D02*
X130380800Y-58958400D01*
X125180800Y-61618400D02*
X125180800Y-60288400D01*
X127780800Y-61618400D02*
X127780800Y-58958400D01*
X127780800Y-61618400D02*
X130380800Y-61618400D01*
X126510800Y-61618400D02*
X125180800Y-61618400D01*
X130380800Y-61618400D02*
X130380800Y-58958400D01*
%TO.C,C2*%
X150898800Y-137758400D02*
X147840800Y-137758400D01*
X145880800Y-138879400D02*
X143071800Y-138879400D01*
X150831800Y-138239400D02*
X147840800Y-138239400D01*
X149417800Y-140599400D02*
X144303800Y-140599400D01*
X145880800Y-138279400D02*
X142897800Y-138279400D01*
X150847800Y-138159400D02*
X147840800Y-138159400D01*
X145880800Y-139359400D02*
X143288800Y-139359400D01*
X145880800Y-139319400D02*
X143267800Y-139319400D01*
X145880800Y-139479400D02*
X143355800Y-139479400D01*
X147987800Y-141359400D02*
X145733800Y-141359400D01*
X150161800Y-139799400D02*
X143559800Y-139799400D01*
X147510800Y-134588400D02*
X146210800Y-134588400D01*
X145880800Y-138759400D02*
X143028800Y-138759400D01*
X149317800Y-140679400D02*
X144403800Y-140679400D01*
X150806800Y-138359400D02*
X147840800Y-138359400D01*
X149033800Y-140879400D02*
X144687800Y-140879400D01*
X148520800Y-141159400D02*
X145200800Y-141159400D01*
X150718800Y-138679400D02*
X147840800Y-138679400D01*
X145880800Y-138599400D02*
X142977800Y-138599400D01*
X150388800Y-139439400D02*
X147840800Y-139439400D01*
X149839800Y-140199400D02*
X143881800Y-140199400D01*
X150907800Y-137598400D02*
X142813800Y-137598400D01*
X145880800Y-139639400D02*
X143452800Y-139639400D01*
X150910800Y-137438400D02*
X142810800Y-137438400D01*
X150839800Y-138199400D02*
X147840800Y-138199400D01*
X149684800Y-140359400D02*
X144036800Y-140359400D01*
X145880800Y-138919400D02*
X143087800Y-138919400D01*
X150550800Y-139119400D02*
X147840800Y-139119400D01*
X150891800Y-137838400D02*
X147840800Y-137838400D01*
X149512800Y-140519400D02*
X144208800Y-140519400D01*
X150882800Y-137918400D02*
X147840800Y-137918400D01*
X145880800Y-139279400D02*
X143247800Y-139279400D01*
X145880800Y-138038400D02*
X142854800Y-138038400D01*
X148686800Y-141079400D02*
X145034800Y-141079400D01*
X145880800Y-139199400D02*
X143208800Y-139199400D01*
X150365800Y-139479400D02*
X147840800Y-139479400D01*
X150743800Y-138599400D02*
X147840800Y-138599400D01*
X145880800Y-139119400D02*
X143170800Y-139119400D01*
X150473800Y-139279400D02*
X147840800Y-139279400D01*
X149725800Y-140319400D02*
X143995800Y-140319400D01*
X145880800Y-139519400D02*
X143378800Y-139519400D01*
X149643800Y-140399400D02*
X144077800Y-140399400D01*
X145880800Y-137838400D02*
X142829800Y-137838400D01*
X147674800Y-141439400D02*
X146046800Y-141439400D01*
X148114800Y-141319400D02*
X145606800Y-141319400D01*
X149368800Y-140639400D02*
X144352800Y-140639400D01*
X145880800Y-138799400D02*
X143042800Y-138799400D01*
X145880800Y-138519400D02*
X142955800Y-138519400D01*
X148903800Y-140959400D02*
X144817800Y-140959400D01*
X150909800Y-137558400D02*
X142811800Y-137558400D01*
X145880800Y-137958400D02*
X142843800Y-137958400D01*
X150410800Y-139399400D02*
X147840800Y-139399400D01*
X150815800Y-138319400D02*
X147840800Y-138319400D01*
X150103800Y-139879400D02*
X143617800Y-139879400D01*
X149600800Y-140439400D02*
X144120800Y-140439400D01*
X145880800Y-138439400D02*
X142934800Y-138439400D01*
X149094800Y-140839400D02*
X144626800Y-140839400D01*
X150216800Y-139719400D02*
X143504800Y-139719400D01*
X145880800Y-138159400D02*
X142873800Y-138159400D01*
X150453800Y-139319400D02*
X147840800Y-139319400D01*
X150860800Y-138078400D02*
X147840800Y-138078400D01*
X145880800Y-137758400D02*
X142822800Y-137758400D01*
X150910800Y-137518400D02*
X142810800Y-137518400D01*
X150903800Y-137678400D02*
X142817800Y-137678400D01*
X145880800Y-139559400D02*
X143402800Y-139559400D01*
X150010800Y-139999400D02*
X143710800Y-139999400D01*
X149465800Y-140559400D02*
X144255800Y-140559400D01*
X148969800Y-140919400D02*
X144751800Y-140919400D01*
X145880800Y-137998400D02*
X142848800Y-137998400D01*
X145880800Y-138239400D02*
X142889800Y-138239400D01*
X149910800Y-140119400D02*
X143810800Y-140119400D01*
X150901800Y-137718400D02*
X147840800Y-137718400D01*
X145880800Y-139039400D02*
X143135800Y-139039400D01*
X145880800Y-139159400D02*
X143189800Y-139159400D01*
X150512800Y-139199400D02*
X147840800Y-139199400D01*
X145880800Y-138839400D02*
X143057800Y-138839400D01*
X149264800Y-140719400D02*
X144456800Y-140719400D01*
X150854800Y-138118400D02*
X147840800Y-138118400D01*
X145880800Y-138559400D02*
X142966800Y-138559400D01*
X149153800Y-140799400D02*
X144567800Y-140799400D01*
X145880800Y-137918400D02*
X142838800Y-137918400D01*
X145880800Y-138399400D02*
X142924800Y-138399400D01*
X145880800Y-138719400D02*
X143015800Y-138719400D01*
X148333800Y-141239400D02*
X145387800Y-141239400D01*
X149944800Y-140079400D02*
X143776800Y-140079400D01*
X150618800Y-138959400D02*
X147840800Y-138959400D01*
X149764800Y-140279400D02*
X143956800Y-140279400D01*
X150776800Y-138479400D02*
X147840800Y-138479400D01*
X150268800Y-139639400D02*
X147840800Y-139639400D01*
X145880800Y-139399400D02*
X143310800Y-139399400D01*
X150132800Y-139839400D02*
X143588800Y-139839400D01*
X150895800Y-137798400D02*
X147840800Y-137798400D01*
X147458800Y-141479400D02*
X146262800Y-141479400D01*
X145880800Y-138679400D02*
X143002800Y-138679400D01*
X150585800Y-139039400D02*
X147840800Y-139039400D01*
X150189800Y-139759400D02*
X143531800Y-139759400D01*
X150910800Y-137478400D02*
X142810800Y-137478400D01*
X149978800Y-140039400D02*
X143742800Y-140039400D01*
X150073800Y-139919400D02*
X143647800Y-139919400D01*
X145880800Y-139079400D02*
X143153800Y-139079400D01*
X150765800Y-138519400D02*
X147840800Y-138519400D01*
X145880800Y-138479400D02*
X142944800Y-138479400D01*
X145880800Y-139439400D02*
X143332800Y-139439400D01*
X147106800Y-141519400D02*
X146614800Y-141519400D01*
X150678800Y-138799400D02*
X147840800Y-138799400D01*
X150692800Y-138759400D02*
X147840800Y-138759400D01*
X148430800Y-141199400D02*
X145290800Y-141199400D01*
X150705800Y-138719400D02*
X147840800Y-138719400D01*
X145880800Y-138959400D02*
X143102800Y-138959400D01*
X150294800Y-139599400D02*
X147840800Y-139599400D01*
X147843800Y-141399400D02*
X145877800Y-141399400D01*
X149557800Y-140479400D02*
X144163800Y-140479400D01*
X145880800Y-138639400D02*
X142990800Y-138639400D01*
X148229800Y-141279400D02*
X145491800Y-141279400D01*
X148605800Y-141119400D02*
X145115800Y-141119400D01*
X150877800Y-137958400D02*
X147840800Y-137958400D01*
X145880800Y-138359400D02*
X142914800Y-138359400D01*
X150906800Y-137638400D02*
X142814800Y-137638400D01*
X150243800Y-139679400D02*
X143477800Y-139679400D01*
X145880800Y-139239400D02*
X143227800Y-139239400D01*
X145880800Y-137798400D02*
X142825800Y-137798400D01*
X145880800Y-138319400D02*
X142905800Y-138319400D01*
X150786800Y-138439400D02*
X147840800Y-138439400D01*
X150730800Y-138639400D02*
X147840800Y-138639400D01*
X146860800Y-133988400D02*
X146860800Y-135188400D01*
X150796800Y-138399400D02*
X147840800Y-138399400D01*
X148762800Y-141039400D02*
X144958800Y-141039400D01*
X150318800Y-139559400D02*
X147840800Y-139559400D01*
X145880800Y-138078400D02*
X142860800Y-138078400D01*
X145880800Y-137718400D02*
X142819800Y-137718400D01*
X150432800Y-139359400D02*
X147840800Y-139359400D01*
X150342800Y-139519400D02*
X147840800Y-139519400D01*
X150823800Y-138279400D02*
X147840800Y-138279400D01*
X145880800Y-138199400D02*
X142881800Y-138199400D01*
X150866800Y-138038400D02*
X147840800Y-138038400D01*
X145880800Y-138118400D02*
X142866800Y-138118400D01*
X149802800Y-140239400D02*
X143918800Y-140239400D01*
X145880800Y-137878400D02*
X142833800Y-137878400D01*
X150649800Y-138879400D02*
X147840800Y-138879400D01*
X150567800Y-139079400D02*
X147840800Y-139079400D01*
X150633800Y-138919400D02*
X147840800Y-138919400D01*
X150493800Y-139239400D02*
X147840800Y-139239400D01*
X145880800Y-138999400D02*
X143119800Y-138999400D01*
X150531800Y-139159400D02*
X147840800Y-139159400D01*
X150601800Y-138999400D02*
X147840800Y-138999400D01*
X145880800Y-139599400D02*
X143426800Y-139599400D01*
X149209800Y-140759400D02*
X144511800Y-140759400D01*
X150663800Y-138839400D02*
X147840800Y-138839400D01*
X150887800Y-137878400D02*
X147840800Y-137878400D01*
X148834800Y-140999400D02*
X144886800Y-140999400D01*
X149875800Y-140159400D02*
X143845800Y-140159400D01*
X150042800Y-139959400D02*
X143678800Y-139959400D01*
X150872800Y-137998400D02*
X147840800Y-137998400D01*
X150754800Y-138559400D02*
X147840800Y-138559400D01*
X150950800Y-137438400D02*
G75*
G03*
X150950800Y-137438400I-4090000J0D01*
G01*
D10*
%TO.C,D1*%
X108860800Y-134758400D02*
X105860800Y-134758400D01*
X108885704Y-134743288D02*
G75*
G03*
X105860800Y-134758400I-1524904J2484888D01*
G01*
X109878736Y-132258400D02*
G75*
G03*
X109878736Y-132258400I-2517936J0D01*
G01*
%TO.C,R1*%
X141604200Y-137288600D02*
X139064200Y-137288600D01*
X139064200Y-137288600D02*
X139064200Y-132208600D01*
X141604200Y-132208600D02*
X141604200Y-137288600D01*
X139064200Y-132208600D02*
X141604200Y-132208600D01*
%TO.C,R2*%
X114590800Y-132278400D02*
X117130800Y-132278400D01*
X114590800Y-137358400D02*
X114590800Y-132278400D01*
X117130800Y-132278400D02*
X117130800Y-137358400D01*
X117130800Y-137358400D02*
X114590800Y-137358400D01*
%TO.C,R3*%
X113880800Y-137338400D02*
X111340800Y-137338400D01*
X111340800Y-132258400D02*
X113880800Y-132258400D01*
X111340800Y-137338400D02*
X111340800Y-132258400D01*
X113880800Y-132258400D02*
X113880800Y-137338400D01*
%TO.C,C1*%
X151910800Y-129238400D02*
X151910800Y-132738400D01*
X144910800Y-132738400D02*
X144910800Y-129238400D01*
X151910800Y-132738400D02*
X144910800Y-132738400D01*
X144910800Y-129238400D02*
X151910800Y-129238400D01*
D11*
%TO.C,J2*%
X136870800Y-109378400D02*
X140300800Y-109378400D01*
X140300800Y-127668400D02*
X136870800Y-127668400D01*
X131500800Y-127668400D02*
X133950800Y-127668400D01*
X155110800Y-112678400D02*
X152110800Y-112678400D01*
X155110800Y-112678400D02*
X155110800Y-124378400D01*
X155110800Y-124378400D02*
X152110800Y-124378400D01*
X149560800Y-109378400D02*
X152110800Y-109378400D01*
X143220800Y-109378400D02*
X146650800Y-109378400D01*
X146650800Y-127668400D02*
X143220800Y-127668400D01*
X152110800Y-109378400D02*
X152110800Y-127668400D01*
X152110800Y-127668400D02*
X149560800Y-127668400D01*
X131500800Y-109378400D02*
X131500800Y-127668400D01*
X128230800Y-114268400D02*
X128230800Y-122748400D01*
X131500800Y-109378400D02*
X133950800Y-109378400D01*
X131470800Y-114268400D02*
X128250800Y-114268400D01*
X131470800Y-122778400D02*
X128250800Y-122778400D01*
%TO.C,FXR7*%
X132207800Y-87726600D02*
X132537800Y-87726600D01*
X134947800Y-87726600D02*
X134617800Y-87726600D01*
X134617800Y-81186600D02*
X134947800Y-81186600D01*
X132207800Y-81186600D02*
X132207800Y-87726600D01*
X132537800Y-81186600D02*
X132207800Y-81186600D01*
X134947800Y-81186600D02*
X134947800Y-87726600D01*
%TO.C,FXR11*%
X139578800Y-69494400D02*
X146118800Y-69494400D01*
X139578800Y-66754400D02*
X146118800Y-66754400D01*
X139578800Y-67084400D02*
X139578800Y-66754400D01*
X146118800Y-69494400D02*
X146118800Y-69164400D01*
X139578800Y-69164400D02*
X139578800Y-69494400D01*
X146118800Y-66754400D02*
X146118800Y-67084400D01*
%TO.C,FXR8*%
X111066800Y-70056400D02*
X111066800Y-70386400D01*
X111066800Y-72796400D02*
X111066800Y-72466400D01*
X104526800Y-70386400D02*
X104526800Y-70056400D01*
X104526800Y-70056400D02*
X111066800Y-70056400D01*
X104526800Y-72796400D02*
X111066800Y-72796400D01*
X104526800Y-72466400D02*
X104526800Y-72796400D01*
%TO.C,FXC1*%
X134513800Y-100257000D02*
X134513800Y-100572000D01*
X134513800Y-102997000D02*
X139753800Y-102997000D01*
X139753800Y-102682000D02*
X139753800Y-102997000D01*
X134513800Y-100257000D02*
X139753800Y-100257000D01*
X134513800Y-102682000D02*
X134513800Y-102997000D01*
X139753800Y-100257000D02*
X139753800Y-100572000D01*
%TO.C,FXC7*%
X145722800Y-76037400D02*
X145722800Y-76352400D01*
X145722800Y-73612400D02*
X145722800Y-73927400D01*
X140482800Y-73612400D02*
X140482800Y-73927400D01*
X140482800Y-76037400D02*
X140482800Y-76352400D01*
X140482800Y-73612400D02*
X145722800Y-73612400D01*
X140482800Y-76352400D02*
X145722800Y-76352400D01*
%TO.C,FXQ1*%
X138204800Y-92486400D02*
X138204800Y-96086400D01*
X138216322Y-96124878D02*
G75*
G03*
X142654800Y-94286400I1838478J1838478D01*
G01*
X142654801Y-94286400D02*
G75*
G03*
X138216322Y-92447922I-2600001J0D01*
G01*
%TO.C,FXC8*%
X123185400Y-65125600D02*
X128425400Y-65125600D01*
X128425400Y-62385600D02*
X128425400Y-62700600D01*
X123185400Y-62385600D02*
X128425400Y-62385600D01*
X123185400Y-64810600D02*
X123185400Y-65125600D01*
X123185400Y-62385600D02*
X123185400Y-62700600D01*
X128425400Y-64810600D02*
X128425400Y-65125600D01*
%TO.C,Q1*%
X121182800Y-91768400D02*
X121182800Y-88168400D01*
X121171278Y-88129922D02*
G75*
G03*
X116732800Y-89968400I-1838478J-1838478D01*
G01*
X116732799Y-89968400D02*
G75*
G03*
X121171278Y-91806878I2600001J0D01*
G01*
%TO.C,FXR13*%
X103759800Y-95905400D02*
X103759800Y-89365400D01*
X106169800Y-95905400D02*
X106499800Y-95905400D01*
X103759800Y-89365400D02*
X104089800Y-89365400D01*
X106499800Y-89365400D02*
X106169800Y-89365400D01*
X106499800Y-95905400D02*
X106499800Y-89365400D01*
X104089800Y-95905400D02*
X103759800Y-95905400D01*
%TO.C,FXR3*%
X151706800Y-94056400D02*
X151706800Y-94386400D01*
X145166800Y-94386400D02*
X145166800Y-94056400D01*
X151706800Y-94386400D02*
X145166800Y-94386400D01*
X151706800Y-91976400D02*
X151706800Y-91646400D01*
X151706800Y-91646400D02*
X145166800Y-91646400D01*
X145166800Y-91646400D02*
X145166800Y-91976400D01*
%TO.C,U1*%
X129740800Y-81008400D02*
X124440800Y-81008400D01*
X124440800Y-81008400D02*
X124440800Y-91288400D01*
X129740800Y-91288400D02*
X129740800Y-81008400D01*
X124440800Y-91288400D02*
X126090800Y-91288400D01*
X128090800Y-91288400D02*
X129740800Y-91288400D01*
X128090800Y-91288400D02*
G75*
G03*
X126090800Y-91288400I-1000000J0D01*
G01*
%TO.C,R4*%
X149552800Y-82888400D02*
X149222800Y-82888400D01*
X149222800Y-89428400D02*
X149552800Y-89428400D01*
X147142800Y-89428400D02*
X146812800Y-89428400D01*
X146812800Y-82888400D02*
X147142800Y-82888400D01*
X146812800Y-89428400D02*
X146812800Y-82888400D01*
X149552800Y-89428400D02*
X149552800Y-82888400D01*
%TO.C,FXC9*%
X111343523Y-99084000D02*
X111343523Y-102037000D01*
X111383523Y-104519000D02*
X111383523Y-107444000D01*
X110303523Y-104519000D02*
X110303523Y-108016000D01*
X110503523Y-98621000D02*
X110503523Y-102037000D01*
X109743523Y-98360000D02*
X109743523Y-102037000D01*
X110623523Y-104519000D02*
X110623523Y-107881000D01*
X108462523Y-98198000D02*
X108462523Y-108358000D01*
X109303523Y-98267000D02*
X109303523Y-108289000D01*
X111503523Y-99198000D02*
X111503523Y-102037000D01*
X111703523Y-99353000D02*
X111703523Y-102037000D01*
X110783523Y-98753000D02*
X110783523Y-102037000D01*
X110183523Y-98495000D02*
X110183523Y-102037000D01*
X111103523Y-98931000D02*
X111103523Y-102037000D01*
X109062523Y-98233000D02*
X109062523Y-108323000D01*
X110863523Y-104519000D02*
X110863523Y-107761000D01*
X109423523Y-98288000D02*
X109423523Y-108268000D01*
X112863523Y-100699000D02*
X112863523Y-105857000D01*
X111383523Y-99112000D02*
X111383523Y-102037000D01*
X110703523Y-98714000D02*
X110703523Y-102037000D01*
X110263523Y-104519000D02*
X110263523Y-108032000D01*
X110583523Y-104519000D02*
X110583523Y-107899000D01*
X112903523Y-100768000D02*
X112903523Y-105788000D01*
X108542523Y-98198000D02*
X108542523Y-108358000D01*
X111743523Y-99386000D02*
X111743523Y-102037000D01*
X111223523Y-99005000D02*
X111223523Y-102037000D01*
X111743523Y-104519000D02*
X111743523Y-107170000D01*
X113023523Y-100989000D02*
X113023523Y-105567000D01*
X109383523Y-98281000D02*
X109383523Y-108275000D01*
X110223523Y-104519000D02*
X110223523Y-108046000D01*
X111583523Y-99258000D02*
X111583523Y-102037000D01*
X111983523Y-104519000D02*
X111983523Y-106957000D01*
X110823523Y-98774000D02*
X110823523Y-102037000D01*
X110183523Y-104519000D02*
X110183523Y-108061000D01*
X111943523Y-104519000D02*
X111943523Y-106994000D01*
X111143523Y-98955000D02*
X111143523Y-102037000D01*
X109183523Y-98248000D02*
X109183523Y-108308000D01*
X110023523Y-98441000D02*
X110023523Y-102037000D01*
X110623523Y-98675000D02*
X110623523Y-102037000D01*
X109863523Y-104519000D02*
X109863523Y-108163000D01*
X112583523Y-100278000D02*
X112583523Y-106278000D01*
X112983523Y-100913000D02*
X112983523Y-105643000D01*
X109903523Y-104519000D02*
X109903523Y-108152000D01*
X110303523Y-98540000D02*
X110303523Y-102037000D01*
X109983523Y-98428000D02*
X109983523Y-102037000D01*
X113383523Y-101900000D02*
X113383523Y-104656000D01*
X109823523Y-98381000D02*
X109823523Y-102037000D01*
X110983523Y-98861000D02*
X110983523Y-102037000D01*
X111063523Y-104519000D02*
X111063523Y-107649000D01*
X112023523Y-99638000D02*
X112023523Y-102037000D01*
X110263523Y-98524000D02*
X110263523Y-102037000D01*
X111903523Y-104519000D02*
X111903523Y-107031000D01*
X112263523Y-99886000D02*
X112263523Y-106670000D01*
X109943523Y-104519000D02*
X109943523Y-108140000D01*
X112223523Y-99842000D02*
X112223523Y-106714000D01*
X110423523Y-104519000D02*
X110423523Y-107968000D01*
X109983523Y-104519000D02*
X109983523Y-108128000D01*
X109343523Y-98274000D02*
X109343523Y-108282000D01*
X108942523Y-98220000D02*
X108942523Y-108336000D01*
X110903523Y-104519000D02*
X110903523Y-107740000D01*
X111543523Y-104519000D02*
X111543523Y-107328000D01*
X113143523Y-101241000D02*
X113143523Y-105315000D01*
X110583523Y-98657000D02*
X110583523Y-102037000D01*
X110543523Y-104519000D02*
X110543523Y-107917000D01*
X109663523Y-98340000D02*
X109663523Y-108216000D01*
X109743523Y-104519000D02*
X109743523Y-108196000D01*
X108582523Y-98199000D02*
X108582523Y-108357000D01*
X110143523Y-104519000D02*
X110143523Y-108075000D01*
X111783523Y-99420000D02*
X111783523Y-102037000D01*
X109783523Y-104519000D02*
X109783523Y-108185000D01*
X110743523Y-98733000D02*
X110743523Y-102037000D01*
X110703523Y-104519000D02*
X110703523Y-107842000D01*
X109623523Y-98331000D02*
X109623523Y-108225000D01*
X113103523Y-101153000D02*
X113103523Y-105403000D01*
X103482877Y-99903000D02*
X103482877Y-100903000D01*
X111943523Y-99562000D02*
X111943523Y-102037000D01*
X111863523Y-104519000D02*
X111863523Y-107067000D01*
X111903523Y-99525000D02*
X111903523Y-102037000D01*
X111583523Y-104519000D02*
X111583523Y-107298000D01*
X111823523Y-99454000D02*
X111823523Y-102037000D01*
X111663523Y-99321000D02*
X111663523Y-102037000D01*
X113263523Y-101536000D02*
X113263523Y-105020000D01*
X112023523Y-104519000D02*
X112023523Y-106918000D01*
X111023523Y-104519000D02*
X111023523Y-107673000D01*
X111223523Y-104519000D02*
X111223523Y-107551000D01*
X110663523Y-98694000D02*
X110663523Y-102037000D01*
X113183523Y-101334000D02*
X113183523Y-105222000D01*
X112503523Y-100172000D02*
X112503523Y-106384000D01*
X109223523Y-98254000D02*
X109223523Y-108302000D01*
X111463523Y-99168000D02*
X111463523Y-102037000D01*
X110863523Y-98795000D02*
X110863523Y-102037000D01*
X110743523Y-104519000D02*
X110743523Y-107823000D01*
X112103523Y-104519000D02*
X112103523Y-106839000D01*
X112823523Y-100633000D02*
X112823523Y-105923000D01*
X111063523Y-98907000D02*
X111063523Y-102037000D01*
X109543523Y-98313000D02*
X109543523Y-108243000D01*
X111343523Y-104519000D02*
X111343523Y-107472000D01*
X111783523Y-104519000D02*
X111783523Y-107136000D01*
X109903523Y-98404000D02*
X109903523Y-102037000D01*
X108982523Y-98224000D02*
X108982523Y-108332000D01*
X110903523Y-98816000D02*
X110903523Y-102037000D01*
X108742523Y-98205000D02*
X108742523Y-108351000D01*
X112063523Y-104519000D02*
X112063523Y-106879000D01*
X113503523Y-102416000D02*
X113503523Y-104140000D01*
X108902523Y-98216000D02*
X108902523Y-108340000D01*
X109783523Y-98371000D02*
X109783523Y-102037000D01*
X113463523Y-102216000D02*
X113463523Y-104340000D01*
X112143523Y-99758000D02*
X112143523Y-102037000D01*
X110823523Y-104519000D02*
X110823523Y-107782000D01*
X112103523Y-99717000D02*
X112103523Y-102037000D01*
X110783523Y-104519000D02*
X110783523Y-107803000D01*
X112943523Y-100839000D02*
X112943523Y-105717000D01*
X110103523Y-104519000D02*
X110103523Y-108089000D01*
X110463523Y-98604000D02*
X110463523Y-102037000D01*
X112063523Y-99677000D02*
X112063523Y-102037000D01*
X108862523Y-98213000D02*
X108862523Y-108343000D01*
X111303523Y-99057000D02*
X111303523Y-102037000D01*
X110463523Y-104519000D02*
X110463523Y-107952000D01*
X110143523Y-98481000D02*
X110143523Y-102037000D01*
X111463523Y-104519000D02*
X111463523Y-107388000D01*
X113543523Y-102679000D02*
X113543523Y-103877000D01*
X109863523Y-98393000D02*
X109863523Y-102037000D01*
X111183523Y-98980000D02*
X111183523Y-102037000D01*
X108822523Y-98210000D02*
X108822523Y-108346000D01*
X111423523Y-99140000D02*
X111423523Y-102037000D01*
X110063523Y-98454000D02*
X110063523Y-102037000D01*
X110423523Y-98588000D02*
X110423523Y-102037000D01*
X112543523Y-100224000D02*
X112543523Y-106332000D01*
X110023523Y-104519000D02*
X110023523Y-108115000D01*
X110223523Y-98510000D02*
X110223523Y-102037000D01*
X110943523Y-104519000D02*
X110943523Y-107718000D01*
X111263523Y-104519000D02*
X111263523Y-107525000D01*
X112423523Y-100072000D02*
X112423523Y-106484000D01*
X109463523Y-98296000D02*
X109463523Y-108260000D01*
X111623523Y-104519000D02*
X111623523Y-107267000D01*
X111623523Y-99289000D02*
X111623523Y-102037000D01*
X111143523Y-104519000D02*
X111143523Y-107601000D01*
X112663523Y-100389000D02*
X112663523Y-106167000D01*
X110383523Y-98571000D02*
X110383523Y-102037000D01*
X112183523Y-104519000D02*
X112183523Y-106756000D01*
X111103523Y-104519000D02*
X111103523Y-107625000D01*
X109943523Y-98416000D02*
X109943523Y-102037000D01*
X112783523Y-100569000D02*
X112783523Y-105987000D01*
X109102523Y-98238000D02*
X109102523Y-108318000D01*
X108782523Y-98208000D02*
X108782523Y-108348000D01*
X110103523Y-98467000D02*
X110103523Y-102037000D01*
X102982877Y-100403000D02*
X103982877Y-100403000D01*
X110063523Y-104519000D02*
X110063523Y-108102000D01*
X109503523Y-98304000D02*
X109503523Y-108252000D01*
X110343523Y-98555000D02*
X110343523Y-102037000D01*
X113423523Y-102048000D02*
X113423523Y-104508000D01*
X111423523Y-104519000D02*
X111423523Y-107416000D01*
X111023523Y-98883000D02*
X111023523Y-102037000D01*
X109703523Y-98350000D02*
X109703523Y-108206000D01*
X112463523Y-100122000D02*
X112463523Y-106434000D01*
X112183523Y-99800000D02*
X112183523Y-102037000D01*
X111823523Y-104519000D02*
X111823523Y-107102000D01*
X109263523Y-98260000D02*
X109263523Y-108296000D01*
X110943523Y-98838000D02*
X110943523Y-102037000D01*
X110663523Y-104519000D02*
X110663523Y-107862000D01*
X111703523Y-104519000D02*
X111703523Y-107203000D01*
X108702523Y-98203000D02*
X108702523Y-108353000D01*
X109823523Y-104519000D02*
X109823523Y-108175000D01*
X109583523Y-98322000D02*
X109583523Y-108234000D01*
X112143523Y-104519000D02*
X112143523Y-106798000D01*
X110383523Y-104519000D02*
X110383523Y-107985000D01*
X109022523Y-98228000D02*
X109022523Y-108328000D01*
X111863523Y-99489000D02*
X111863523Y-102037000D01*
X111663523Y-104519000D02*
X111663523Y-107235000D01*
X111303523Y-104519000D02*
X111303523Y-107499000D01*
X111183523Y-104519000D02*
X111183523Y-107576000D01*
X113343523Y-101768000D02*
X113343523Y-104788000D01*
X111503523Y-104519000D02*
X111503523Y-107358000D01*
X112383523Y-100024000D02*
X112383523Y-106532000D01*
X111543523Y-99228000D02*
X111543523Y-102037000D01*
X112703523Y-100448000D02*
X112703523Y-106108000D01*
X112743523Y-100508000D02*
X112743523Y-106048000D01*
X108662523Y-98201000D02*
X108662523Y-108355000D01*
X111983523Y-99599000D02*
X111983523Y-102037000D01*
X113223523Y-101432000D02*
X113223523Y-105124000D01*
X113063523Y-101069000D02*
X113063523Y-105487000D01*
X108502523Y-98198000D02*
X108502523Y-108358000D01*
X110983523Y-104519000D02*
X110983523Y-107695000D01*
X112303523Y-99931000D02*
X112303523Y-106625000D01*
X112343523Y-99977000D02*
X112343523Y-106579000D01*
X108622523Y-98200000D02*
X108622523Y-108356000D01*
X113303523Y-101648000D02*
X113303523Y-104908000D01*
X111263523Y-99031000D02*
X111263523Y-102037000D01*
X110343523Y-104519000D02*
X110343523Y-108001000D01*
X112623523Y-100333000D02*
X112623523Y-106223000D01*
X109142523Y-98243000D02*
X109142523Y-108313000D01*
X110503523Y-104519000D02*
X110503523Y-107935000D01*
X110543523Y-98639000D02*
X110543523Y-102037000D01*
X113582523Y-103278000D02*
G75*
G03*
X113582523Y-103278000I-5120000J0D01*
G01*
%TO.C,FXC6*%
X114333600Y-70538800D02*
X114333600Y-69331800D01*
X113453600Y-70538800D02*
X113453600Y-70135800D01*
X118169375Y-73303800D02*
X118169375Y-72803800D01*
X114133600Y-73700800D02*
X114133600Y-72618800D01*
X114934600Y-74069800D02*
X114934600Y-72618800D01*
X113653600Y-73277800D02*
X113653600Y-72618800D01*
X113573600Y-70538800D02*
X113573600Y-69973800D01*
X114813600Y-74033800D02*
X114813600Y-72618800D01*
X113293600Y-72756800D02*
X113293600Y-70400800D01*
X115214600Y-74128800D02*
X115214600Y-72618800D01*
X114093600Y-70538800D02*
X114093600Y-69483800D01*
X113613600Y-73231800D02*
X113613600Y-72618800D01*
X115334600Y-70538800D02*
X115334600Y-69013800D01*
X113493600Y-73078800D02*
X113493600Y-72618800D01*
X115374600Y-74147800D02*
X115374600Y-72618800D01*
X115014600Y-70538800D02*
X115014600Y-69067800D01*
X114853600Y-70538800D02*
X114853600Y-69110800D01*
X114253600Y-73778800D02*
X114253600Y-72618800D01*
X115174600Y-74121800D02*
X115174600Y-72618800D01*
X115014600Y-74089800D02*
X115014600Y-72618800D01*
X115534600Y-74157800D02*
X115534600Y-68999800D01*
X115494600Y-74156800D02*
X115494600Y-69000800D01*
X115614600Y-74158800D02*
X115614600Y-68998800D01*
X113333600Y-70538800D02*
X113333600Y-70327800D01*
X115134600Y-74114800D02*
X115134600Y-72618800D01*
X114453600Y-70538800D02*
X114453600Y-69268800D01*
X113933600Y-70538800D02*
X113933600Y-69607800D01*
X113493600Y-70538800D02*
X113493600Y-70078800D01*
X115574600Y-74158800D02*
X115574600Y-68998800D01*
X113613600Y-70538800D02*
X113613600Y-69925800D01*
X114773600Y-70538800D02*
X114773600Y-69136800D01*
X113733600Y-70538800D02*
X113733600Y-69793800D01*
X113533600Y-73132800D02*
X113533600Y-72618800D01*
X115334600Y-74143800D02*
X115334600Y-72618800D01*
X114733600Y-70538800D02*
X114733600Y-69150800D01*
X113213600Y-72589800D02*
X113213600Y-70567800D01*
X113013600Y-71862800D02*
X113013600Y-71294800D01*
X114974600Y-74079800D02*
X114974600Y-72618800D01*
X114533600Y-73926800D02*
X114533600Y-72618800D01*
X113693600Y-70538800D02*
X113693600Y-69835800D01*
X113453600Y-73021800D02*
X113453600Y-72618800D01*
X113693600Y-73321800D02*
X113693600Y-72618800D01*
X115054600Y-70538800D02*
X115054600Y-69058800D01*
X114373600Y-73846800D02*
X114373600Y-72618800D01*
X114853600Y-74046800D02*
X114853600Y-72618800D01*
X114453600Y-73888800D02*
X114453600Y-72618800D01*
X114813600Y-70538800D02*
X114813600Y-69123800D01*
X115094600Y-70538800D02*
X115094600Y-69050800D01*
X114573600Y-70538800D02*
X114573600Y-69213800D01*
X114373600Y-70538800D02*
X114373600Y-69310800D01*
X113973600Y-73582800D02*
X113973600Y-72618800D01*
X115374600Y-70538800D02*
X115374600Y-69009800D01*
X113653600Y-70538800D02*
X113653600Y-69879800D01*
X114013600Y-70538800D02*
X114013600Y-69543800D01*
X115294600Y-74139800D02*
X115294600Y-72618800D01*
X113333600Y-72829800D02*
X113333600Y-72618800D01*
X114053600Y-73643800D02*
X114053600Y-72618800D01*
X113573600Y-73183800D02*
X113573600Y-72618800D01*
X114173600Y-70538800D02*
X114173600Y-69429800D01*
X115134600Y-70538800D02*
X115134600Y-69042800D01*
X113093600Y-72255800D02*
X113093600Y-70901800D01*
X114934600Y-70538800D02*
X114934600Y-69087800D01*
X115174600Y-70538800D02*
X115174600Y-69035800D01*
X114293600Y-70538800D02*
X114293600Y-69354800D01*
X113173600Y-72493800D02*
X113173600Y-70663800D01*
X114653600Y-70538800D02*
X114653600Y-69180800D01*
X113773600Y-73404800D02*
X113773600Y-72618800D01*
X114093600Y-73673800D02*
X114093600Y-72618800D01*
X113813600Y-70538800D02*
X113813600Y-69714800D01*
X114693600Y-70538800D02*
X114693600Y-69164800D01*
X114613600Y-70538800D02*
X114613600Y-69196800D01*
X114493600Y-73907800D02*
X114493600Y-72618800D01*
X115414600Y-74151800D02*
X115414600Y-69005800D01*
X113413600Y-72961800D02*
X113413600Y-72618800D01*
X113733600Y-73363800D02*
X113733600Y-72618800D01*
X113413600Y-70538800D02*
X113413600Y-70195800D01*
X115094600Y-74106800D02*
X115094600Y-72618800D01*
X113373600Y-70538800D02*
X113373600Y-70259800D01*
X114053600Y-70538800D02*
X114053600Y-69513800D01*
X113773600Y-70538800D02*
X113773600Y-69752800D01*
X113893600Y-73515800D02*
X113893600Y-72618800D01*
X114733600Y-74006800D02*
X114733600Y-72618800D01*
X114253600Y-70538800D02*
X114253600Y-69378800D01*
X114893600Y-70538800D02*
X114893600Y-69098800D01*
X114413600Y-73868800D02*
X114413600Y-72618800D01*
X114013600Y-73613800D02*
X114013600Y-72618800D01*
X114173600Y-73727800D02*
X114173600Y-72618800D01*
X114333600Y-73825800D02*
X114333600Y-72618800D01*
X113853600Y-73479800D02*
X113853600Y-72618800D01*
X113053600Y-72096800D02*
X113053600Y-71060800D01*
X114213600Y-70538800D02*
X114213600Y-69403800D01*
X114693600Y-73992800D02*
X114693600Y-72618800D01*
X113973600Y-70538800D02*
X113973600Y-69574800D01*
X118419375Y-73053800D02*
X117919375Y-73053800D01*
X113133600Y-72383800D02*
X113133600Y-70773800D01*
X113813600Y-73442800D02*
X113813600Y-72618800D01*
X115254600Y-70538800D02*
X115254600Y-69022800D01*
X115054600Y-74098800D02*
X115054600Y-72618800D01*
X114493600Y-70538800D02*
X114493600Y-69249800D01*
X113933600Y-73549800D02*
X113933600Y-72618800D01*
X114573600Y-73943800D02*
X114573600Y-72618800D01*
X114974600Y-70538800D02*
X114974600Y-69077800D01*
X114773600Y-74020800D02*
X114773600Y-72618800D01*
X113533600Y-70538800D02*
X113533600Y-70024800D01*
X114213600Y-73753800D02*
X114213600Y-72618800D01*
X115454600Y-74154800D02*
X115454600Y-69002800D01*
X113893600Y-70538800D02*
X113893600Y-69641800D01*
X113853600Y-70538800D02*
X113853600Y-69677800D01*
X114133600Y-70538800D02*
X114133600Y-69456800D01*
X114533600Y-70538800D02*
X114533600Y-69230800D01*
X115294600Y-70538800D02*
X115294600Y-69017800D01*
X115254600Y-74134800D02*
X115254600Y-72618800D01*
X114893600Y-74058800D02*
X114893600Y-72618800D01*
X114413600Y-70538800D02*
X114413600Y-69288800D01*
X113253600Y-72676800D02*
X113253600Y-70480800D01*
X114613600Y-73960800D02*
X114613600Y-72618800D01*
X114293600Y-73802800D02*
X114293600Y-72618800D01*
X114653600Y-73976800D02*
X114653600Y-72618800D01*
X113373600Y-72897800D02*
X113373600Y-72618800D01*
X115214600Y-70538800D02*
X115214600Y-69028800D01*
X118234600Y-71578800D02*
G75*
G03*
X118234600Y-71578800I-2620000J0D01*
G01*
%TO.C,FXD1*%
X125006200Y-97006600D02*
X129246200Y-97006600D01*
X125606200Y-94766600D02*
X125606200Y-97006600D01*
X129246200Y-97006600D02*
X129246200Y-94766600D01*
X125006200Y-94766600D02*
X125006200Y-97006600D01*
X125726200Y-94766600D02*
X125726200Y-97006600D01*
X129246200Y-94766600D02*
X125006200Y-94766600D01*
X129896200Y-95886600D02*
X129246200Y-95886600D01*
X124356200Y-95886600D02*
X125006200Y-95886600D01*
X125846200Y-94766600D02*
X125846200Y-97006600D01*
%TO.C,RV2*%
X133485000Y-67091400D02*
X133485000Y-77031400D01*
X129620000Y-77031400D02*
X133485000Y-77031400D01*
X121245000Y-67091400D02*
X125110000Y-67091400D01*
X121245000Y-72932400D02*
X121245000Y-73691400D01*
X121245000Y-75431400D02*
X121245000Y-77031400D01*
X121245000Y-70432400D02*
X121245000Y-71191400D01*
X121245000Y-67091400D02*
X121245000Y-68690400D01*
X129620000Y-67091400D02*
X133485000Y-67091400D01*
X121245000Y-77031400D02*
X125110000Y-77031400D01*
%TO.C,FXR12*%
X108362200Y-89814600D02*
X108362200Y-90144600D01*
X108362200Y-90144600D02*
X114902200Y-90144600D01*
X108362200Y-87404600D02*
X114902200Y-87404600D01*
X108362200Y-87734600D02*
X108362200Y-87404600D01*
X114902200Y-87404600D02*
X114902200Y-87734600D01*
X114902200Y-90144600D02*
X114902200Y-89814600D01*
%TO.C,FXR2*%
X142626800Y-97564400D02*
X142626800Y-97234400D01*
X142626800Y-97234400D02*
X149166800Y-97234400D01*
X149166800Y-97234400D02*
X149166800Y-97564400D01*
X149166800Y-99974400D02*
X149166800Y-99644400D01*
X142626800Y-99974400D02*
X149166800Y-99974400D01*
X142626800Y-99644400D02*
X142626800Y-99974400D01*
%TO.C,FXR4*%
X120464800Y-96929400D02*
X120464800Y-96599400D01*
X120464800Y-99339400D02*
X113924800Y-99339400D01*
X113924800Y-96599400D02*
X113924800Y-96929400D01*
X120464800Y-99009400D02*
X120464800Y-99339400D01*
X120464800Y-96599400D02*
X113924800Y-96599400D01*
X113924800Y-99339400D02*
X113924800Y-99009400D01*
%TO.C,FXR14*%
X103836000Y-79205400D02*
X103836000Y-85745400D01*
X104166000Y-79205400D02*
X103836000Y-79205400D01*
X106246000Y-79205400D02*
X106576000Y-79205400D01*
X106576000Y-79205400D02*
X106576000Y-85745400D01*
X103836000Y-85745400D02*
X104166000Y-85745400D01*
X106576000Y-85745400D02*
X106246000Y-85745400D01*
%TO.C,FXR15*%
X123258800Y-104854400D02*
X123258800Y-105184400D01*
X116718800Y-104854400D02*
X123258800Y-104854400D01*
X123258800Y-107594400D02*
X123258800Y-107264400D01*
X116718800Y-105184400D02*
X116718800Y-104854400D01*
X116718800Y-107594400D02*
X123258800Y-107594400D01*
X116718800Y-107264400D02*
X116718800Y-107594400D01*
%TO.C,FXR22*%
X137292800Y-106070400D02*
X137292800Y-105740400D01*
X143832800Y-103660400D02*
X143832800Y-103330400D01*
X143832800Y-105740400D02*
X143832800Y-106070400D01*
X143832800Y-103330400D02*
X137292800Y-103330400D01*
X137292800Y-103330400D02*
X137292800Y-103660400D01*
X143832800Y-106070400D02*
X137292800Y-106070400D01*
%TO.C,RV3*%
X145990200Y-62220000D02*
X147590200Y-62220000D01*
X137650200Y-49980000D02*
X147590200Y-49980000D01*
X147590200Y-53845000D02*
X147590200Y-49980000D01*
X143491200Y-62220000D02*
X144250200Y-62220000D01*
X137650200Y-62220000D02*
X137650200Y-58355000D01*
X140991200Y-62220000D02*
X141750200Y-62220000D01*
X137650200Y-62220000D02*
X139249200Y-62220000D01*
X147590200Y-62220000D02*
X147590200Y-58355000D01*
X137650200Y-53845000D02*
X137650200Y-49980000D01*
%TO.C,FXC2*%
X145468800Y-89814400D02*
X145468800Y-89499400D01*
X145468800Y-87389400D02*
X145468800Y-87074400D01*
X145468800Y-89814400D02*
X140228800Y-89814400D01*
X140228800Y-89814400D02*
X140228800Y-89499400D01*
X145468800Y-87074400D02*
X140228800Y-87074400D01*
X140228800Y-87389400D02*
X140228800Y-87074400D01*
%TO.C,FXC3*%
X115844800Y-95849400D02*
X115844800Y-96164400D01*
X115844800Y-96164400D02*
X121084800Y-96164400D01*
X121084800Y-93424400D02*
X121084800Y-93739400D01*
X115844800Y-93424400D02*
X121084800Y-93424400D01*
X121084800Y-95849400D02*
X121084800Y-96164400D01*
X115844800Y-93424400D02*
X115844800Y-93739400D01*
%TO.C,R5*%
X152854800Y-89428400D02*
X152524800Y-89428400D01*
X152854800Y-82888400D02*
X152854800Y-89428400D01*
X152524800Y-82888400D02*
X152854800Y-82888400D01*
X150114800Y-82888400D02*
X150114800Y-89428400D01*
X150114800Y-89428400D02*
X150444800Y-89428400D01*
X150444800Y-82888400D02*
X150114800Y-82888400D01*
%TO.C,RV1*%
X105925600Y-62220000D02*
X105925600Y-58355000D01*
X114265600Y-62220000D02*
X115865600Y-62220000D01*
X105925600Y-62220000D02*
X107524600Y-62220000D01*
X115865600Y-62220000D02*
X115865600Y-58355000D01*
X105925600Y-53845000D02*
X105925600Y-49980000D01*
X111766600Y-62220000D02*
X112525600Y-62220000D01*
X105925600Y-49980000D02*
X115865600Y-49980000D01*
X115865600Y-53845000D02*
X115865600Y-49980000D01*
X109266600Y-62220000D02*
X110025600Y-62220000D01*
%TO.C,FXC5*%
X119901800Y-81523800D02*
X119901800Y-81838800D01*
X114661800Y-79098800D02*
X114661800Y-79413800D01*
X114661800Y-81838800D02*
X119901800Y-81838800D01*
X119901800Y-79098800D02*
X119901800Y-79413800D01*
X114661800Y-79098800D02*
X119901800Y-79098800D01*
X114661800Y-81523800D02*
X114661800Y-81838800D01*
%TO.C,FXC4*%
X129528400Y-99837200D02*
X129528400Y-100152200D01*
X124288400Y-100152200D02*
X129528400Y-100152200D01*
X124288400Y-99837200D02*
X124288400Y-100152200D01*
X124288400Y-97412200D02*
X124288400Y-97727200D01*
X124288400Y-97412200D02*
X129528400Y-97412200D01*
X129528400Y-97412200D02*
X129528400Y-97727200D01*
%TO.C,FXR1*%
X142626800Y-100282400D02*
X149166800Y-100282400D01*
X149166800Y-100282400D02*
X149166800Y-100612400D01*
X142626800Y-103022400D02*
X149166800Y-103022400D01*
X142626800Y-100612400D02*
X142626800Y-100282400D01*
X142626800Y-102692400D02*
X142626800Y-103022400D01*
X149166800Y-103022400D02*
X149166800Y-102692400D01*
%TO.C,FXR6*%
X107828800Y-64976400D02*
X107828800Y-65306400D01*
X114368800Y-67716400D02*
X107828800Y-67716400D01*
X114368800Y-67386400D02*
X114368800Y-67716400D01*
X114368800Y-65306400D02*
X114368800Y-64976400D01*
X107828800Y-67716400D02*
X107828800Y-67386400D01*
X114368800Y-64976400D02*
X107828800Y-64976400D01*
%TO.C,FXR10*%
X138376800Y-78760400D02*
X138376800Y-72220400D01*
X138376800Y-72220400D02*
X138046800Y-72220400D01*
X138046800Y-78760400D02*
X138376800Y-78760400D01*
X135636800Y-78760400D02*
X135636800Y-72220400D01*
X135966800Y-78760400D02*
X135636800Y-78760400D01*
X135636800Y-72220400D02*
X135966800Y-72220400D01*
%TO.C,FXR5*%
X135128800Y-97556400D02*
X135128800Y-91016400D01*
X137868800Y-97556400D02*
X137868800Y-91016400D01*
X135458800Y-97556400D02*
X135128800Y-97556400D01*
X135128800Y-91016400D02*
X135458800Y-91016400D01*
X137868800Y-91016400D02*
X137538800Y-91016400D01*
X137538800Y-97556400D02*
X137868800Y-97556400D01*
%TO.C,FXR9*%
X143578800Y-81232400D02*
X137038800Y-81232400D01*
X143578800Y-81562400D02*
X143578800Y-81232400D01*
X137038800Y-81232400D02*
X137038800Y-81562400D01*
X143578800Y-83642400D02*
X143578800Y-83972400D01*
X137038800Y-83972400D02*
X137038800Y-83642400D01*
X143578800Y-83972400D02*
X137038800Y-83972400D01*
%TO.C,FXD2*%
X129220800Y-94136400D02*
X129220800Y-91896400D01*
X124980800Y-91896400D02*
X124980800Y-94136400D01*
X128500800Y-94136400D02*
X128500800Y-91896400D01*
X129220800Y-91896400D02*
X124980800Y-91896400D01*
X128380800Y-94136400D02*
X128380800Y-91896400D01*
X129870800Y-93016400D02*
X129220800Y-93016400D01*
X124330800Y-93016400D02*
X124980800Y-93016400D01*
X128620800Y-94136400D02*
X128620800Y-91896400D01*
X124980800Y-94136400D02*
X129220800Y-94136400D01*
%TD*%
D12*
%TO.C,SW1*%
X76108400Y-133813400D03*
D13*
X70808400Y-133813400D03*
X65508400Y-133813400D03*
X76108400Y-138513400D03*
X70808400Y-138538400D03*
X65508400Y-138513400D03*
X76108400Y-143213400D03*
X70808400Y-143213400D03*
X65508400Y-143213400D03*
%TD*%
D14*
%TO.C,D1*%
X50058400Y-133528400D03*
D15*
X50058400Y-130988400D03*
%TD*%
D16*
%TO.C,R1*%
X83031800Y-138558600D03*
X83031800Y-130938600D03*
%TD*%
%TO.C,R3*%
X58558400Y-131008400D03*
X58558400Y-138628400D03*
%TD*%
%TO.C,R2*%
X55308400Y-138608400D03*
X55308400Y-130988400D03*
%TD*%
D17*
%TO.C,C1*%
X88608400Y-130988400D03*
D18*
X93608400Y-130988400D03*
%TD*%
D12*
%TO.C,SW1*%
X133410800Y-133813400D03*
D13*
X128110800Y-133813400D03*
X122810800Y-133813400D03*
X133410800Y-138513400D03*
X128110800Y-138538400D03*
X122810800Y-138513400D03*
X133410800Y-143213400D03*
X128110800Y-143213400D03*
X122810800Y-143213400D03*
%TD*%
D14*
%TO.C,D1*%
X107360800Y-133528400D03*
D15*
X107360800Y-130988400D03*
%TD*%
D16*
%TO.C,R1*%
X140334200Y-138558600D03*
X140334200Y-130938600D03*
%TD*%
%TO.C,R2*%
X115860800Y-131008400D03*
X115860800Y-138628400D03*
%TD*%
%TO.C,R3*%
X112610800Y-138608400D03*
X112610800Y-130988400D03*
%TD*%
D17*
%TO.C,C1*%
X145910800Y-130988400D03*
D18*
X150910800Y-130988400D03*
%TD*%
M02*
