M48
; DRILL file {KiCad 7.0.2-6a45011f42~172~ubuntu22.04.1} date Mon 29 May 2023 14:24:00 BST
; FORMAT={-:-/ absolute / inch / decimal}
; #@! TF.CreationDate,2023-05-29T14:24:00+01:00
; #@! TF.GenerationSoftware,Kicad,Pcbnew,7.0.2-6a45011f42~172~ubuntu22.04.1
; #@! TF.FileFunction,Plated,1,2,PTH
FMAT,2
INCH
; #@! TA.AperFunction,Plated,PTH,ViaDrill
T1C0.0157
; #@! TA.AperFunction,Plated,PTH,ComponentDrill
T2C0.0315
; #@! TA.AperFunction,Plated,PTH,ComponentDrill
T3C0.0394
; #@! TA.AperFunction,Plated,PTH,ComponentDrill
T4C0.0394
; #@! TA.AperFunction,Plated,PTH,ComponentDrill
T5C0.0433
; #@! TA.AperFunction,Plated,PTH,ComponentDrill
T6C0.0551
%
G90
G05
T1
X5.3193Y-4.2992
X5.5752Y-3.9331
X5.6106Y-4.2756
X5.6343Y-4.2756
X5.6539Y-3.7598
X5.6579Y-4.2756
X5.7012Y-4.0157
X5.9335Y-4.2953
X6.0358Y-2.9134
X6.0673Y-3.7087
X6.0752Y-4.1142
X6.1522Y-3.9435
X6.1972Y-3.311
X6.4098Y-3.1457
X6.5201Y-4.1299
X6.5673Y-3.2283
X6.6224Y-3.5906
X6.65Y-3.6496
T2
X6.1539Y-2.9882
X6.1539Y-3.0866
X6.3035Y-3.1693
X6.3035Y-3.2677
X6.3406Y-5.315
X6.378Y-5.5197
X6.378Y-5.6181
X6.39Y-2.8622
X6.4884Y-2.8622
X6.5374Y-5.315
X6.5791Y-3.9841
X6.5791Y-4.0825
T3
X4.8232Y-2.6585
X4.9217Y-2.6585
X5.0201Y-2.6585
X5.4756Y-4.1654
X5.4756Y-4.3839
X5.524Y-2.9931
X5.5748Y-4.5988
X5.5756Y-4.1654
X5.5756Y-4.3839
X5.6224Y-2.9931
X5.6748Y-4.5988
X5.6756Y-4.1654
X5.6756Y-4.3839
X5.7209Y-2.9931
X5.7756Y-4.1654
X5.7756Y-4.3839
X5.9413Y-2.2963
X5.9413Y-2.3963
X6.2248Y-2.6506
X6.3232Y-2.6506
X6.4217Y-2.6506
T4
X4.8228Y-5.315
X4.8228Y-5.415
X5.0299Y-5.3142
X5.0299Y-5.6142
X5.1579Y-5.315
X5.1579Y-5.615
X6.122Y-5.315
X6.122Y-5.615
T6
X4.8128Y-4.5053
X4.8128Y-5.1443
X5.0628Y-4.5053
X5.0628Y-5.1443
X5.3128Y-4.5053
X5.3128Y-5.1443
X5.9281Y-4.5053
X5.9281Y-5.1443
X6.1781Y-4.5053
X6.1781Y-5.1443
X6.4281Y-4.5053
X6.4281Y-5.1443
T3
G00X5.4528Y-5.4262
M15
G01X5.4094Y-5.4262
M16
G05
G00X5.4528Y-5.6112
M15
G01X5.4094Y-5.6112
M16
G05
G00X5.4528Y-5.7963
M15
G01X5.4094Y-5.7963
M16
G05
G00X5.6614Y-5.4262
M15
G01X5.6181Y-5.4262
M16
G05
G00X5.6614Y-5.6122
M15
G01X5.6181Y-5.6122
M16
G05
G00X5.6614Y-5.7963
M15
G01X5.6181Y-5.7963
M16
G05
G00X5.8701Y-5.4262
M15
G01X5.8268Y-5.4262
M16
G05
G00X5.8701Y-5.6112
M15
G01X5.8268Y-5.6112
M16
G05
G00X5.8701Y-5.7963
M15
G01X5.8268Y-5.7963
M16
G05
T5
G00X4.7327Y-2.377
M15
G01X4.7327Y-2.3494
M16
G05
G00X5.1106Y-2.377
M15
G01X5.1106Y-2.3494
M16
G05
G00X5.4335Y-2.7116
M15
G01X5.4335Y-2.6841
M16
G05
G00X5.8114Y-2.7116
M15
G01X5.8114Y-2.6841
M16
G05
G00X6.1343Y-2.3691
M15
G01X6.1343Y-2.3415
M16
G05
G00X6.5122Y-2.3691
M15
G01X6.5122Y-2.3415
M16
G05
T0
M30
