%TF.GenerationSoftware,KiCad,Pcbnew,7.0.2-6a45011f42~172~ubuntu22.04.1*%
%TF.CreationDate,2023-05-29T14:24:00+01:00*%
%TF.ProjectId,rebote-smd,7265626f-7465-42d7-936d-642e6b696361,rev?*%
%TF.SameCoordinates,Original*%
%TF.FileFunction,Soldermask,Top*%
%TF.FilePolarity,Negative*%
%FSLAX46Y46*%
G04 Gerber Fmt 4.6, Leading zero omitted, Abs format (unit mm)*
G04 Created by KiCad (PCBNEW 7.0.2-6a45011f42~172~ubuntu22.04.1) date 2023-05-29 14:24:00*
%MOMM*%
%LPD*%
G01*
G04 APERTURE LIST*
G04 Aperture macros list*
%AMRoundRect*
0 Rectangle with rounded corners*
0 $1 Rounding radius*
0 $2 $3 $4 $5 $6 $7 $8 $9 X,Y pos of 4 corners*
0 Add a 4 corners polygon primitive as box body*
4,1,4,$2,$3,$4,$5,$6,$7,$8,$9,$2,$3,0*
0 Add four circle primitives for the rounded corners*
1,1,$1+$1,$2,$3*
1,1,$1+$1,$4,$5*
1,1,$1+$1,$6,$7*
1,1,$1+$1,$8,$9*
0 Add four rect primitives between the rounded corners*
20,1,$1+$1,$2,$3,$4,$5,0*
20,1,$1+$1,$4,$5,$6,$7,0*
20,1,$1+$1,$6,$7,$8,$9,0*
20,1,$1+$1,$8,$9,$2,$3,0*%
%AMFreePoly0*
4,1,33,3.949277,1.046694,4.018866,0.991198,4.057486,0.911004,4.062500,0.866500,4.062500,-0.866500,4.042694,-0.953277,3.987198,-1.022866,3.907004,-1.061486,3.862500,-1.066500,0.737500,-1.066500,0.650723,-1.046694,0.581134,-0.991198,0.542514,-0.911004,0.537500,-0.866500,0.537500,-0.650000,-0.737500,-0.650000,-0.824277,-0.630194,-0.893866,-0.574698,-0.932486,-0.494504,-0.937500,-0.450000,
-0.937500,0.450000,-0.917694,0.536777,-0.862198,0.606366,-0.782004,0.644986,-0.737500,0.650000,0.537500,0.650000,0.537500,0.866500,0.557306,0.953277,0.612802,1.022866,0.692996,1.061486,0.737500,1.066500,3.862500,1.066500,3.949277,1.046694,3.949277,1.046694,$1*%
G04 Aperture macros list end*
%ADD10RoundRect,0.200000X1.300000X0.750000X-1.300000X0.750000X-1.300000X-0.750000X1.300000X-0.750000X0*%
%ADD11O,3.000000X1.900000*%
%ADD12C,3.400000*%
%ADD13RoundRect,0.200000X-0.850000X-0.850000X0.850000X-0.850000X0.850000X0.850000X-0.850000X0.850000X0*%
%ADD14O,2.100000X2.100000*%
%ADD15RoundRect,0.200000X-0.850000X0.850000X-0.850000X-0.850000X0.850000X-0.850000X0.850000X0.850000X0*%
%ADD16RoundRect,0.200000X-0.800000X0.800000X-0.800000X-0.800000X0.800000X-0.800000X0.800000X0.800000X0*%
%ADD17C,2.000000*%
%ADD18RoundRect,0.200000X1.000000X0.950000X-1.000000X0.950000X-1.000000X-0.950000X1.000000X-0.950000X0*%
%ADD19C,2.300000*%
%ADD20C,2.398980*%
%ADD21RoundRect,0.200000X-0.650000X-0.650000X0.650000X-0.650000X0.650000X0.650000X-0.650000X0.650000X0*%
%ADD22C,1.700000*%
%ADD23RoundRect,0.450000X-0.475000X0.337500X-0.475000X-0.337500X0.475000X-0.337500X0.475000X0.337500X0*%
%ADD24RoundRect,0.450000X0.475000X-0.337500X0.475000X0.337500X-0.475000X0.337500X-0.475000X-0.337500X0*%
%ADD25O,3.120000X3.640000*%
%ADD26RoundRect,0.200000X0.900000X0.900000X-0.900000X0.900000X-0.900000X-0.900000X0.900000X-0.900000X0*%
%ADD27C,2.200000*%
%ADD28RoundRect,0.450000X0.450000X-0.350000X0.450000X0.350000X-0.450000X0.350000X-0.450000X-0.350000X0*%
%ADD29RoundRect,0.450000X0.337500X0.475000X-0.337500X0.475000X-0.337500X-0.475000X0.337500X-0.475000X0*%
%ADD30RoundRect,0.450000X-0.450000X0.350000X-0.450000X-0.350000X0.450000X-0.350000X0.450000X0.350000X0*%
%ADD31RoundRect,0.450000X0.350000X0.450000X-0.350000X0.450000X-0.350000X-0.450000X0.350000X-0.450000X0*%
%ADD32RoundRect,0.200000X-0.800000X-0.800000X0.800000X-0.800000X0.800000X0.800000X-0.800000X0.800000X0*%
%ADD33RoundRect,0.200000X0.450000X-0.650000X0.450000X0.650000X-0.450000X0.650000X-0.450000X-0.650000X0*%
%ADD34FreePoly0,90.000000*%
%ADD35RoundRect,0.450000X-0.350000X-0.450000X0.350000X-0.450000X0.350000X0.450000X-0.350000X0.450000X0*%
%ADD36RoundRect,0.200000X0.800000X-0.800000X0.800000X0.800000X-0.800000X0.800000X-0.800000X-0.800000X0*%
%ADD37RoundRect,0.450000X-0.337500X-0.475000X0.337500X-0.475000X0.337500X0.475000X-0.337500X0.475000X0*%
%ADD38RoundRect,0.350000X-0.825000X-0.150000X0.825000X-0.150000X0.825000X0.150000X-0.825000X0.150000X0*%
%ADD39RoundRect,0.350000X-0.150000X0.825000X-0.150000X-0.825000X0.150000X-0.825000X0.150000X0.825000X0*%
G04 APERTURE END LIST*
D10*
%TO.C,SW1*%
X148550000Y-137825000D03*
D11*
X143250000Y-137825000D03*
X137950000Y-137825000D03*
X148550000Y-142525000D03*
X143250000Y-142550000D03*
X137950000Y-142525000D03*
X148550000Y-147225000D03*
X143250000Y-147225000D03*
X137950000Y-147225000D03*
%TD*%
D12*
%TO.C,J3*%
X128595000Y-130665000D03*
X128595000Y-114435000D03*
X122245000Y-130665000D03*
X122245000Y-114435000D03*
X134945000Y-130665000D03*
X134945000Y-114435000D03*
%TD*%
D13*
%TO.C,J1*%
X150910000Y-58325000D03*
D14*
X150910000Y-60865000D03*
%TD*%
D15*
%TO.C,JOVGI1*%
X146700000Y-111350000D03*
D14*
X144160000Y-111350000D03*
X141620000Y-111350000D03*
X139080000Y-111350000D03*
%TD*%
D15*
%TO.C,JOVGI2*%
X146700000Y-105800000D03*
D14*
X144160000Y-105800000D03*
X141620000Y-105800000D03*
X139080000Y-105800000D03*
%TD*%
D16*
%TO.C,C2*%
X162000000Y-140200000D03*
D17*
X162000000Y-142700000D03*
%TD*%
D18*
%TO.C,D1*%
X122500000Y-137540000D03*
D19*
X122500000Y-135000000D03*
%TD*%
D20*
%TO.C,R1*%
X155500000Y-135000000D03*
X155500000Y-142620000D03*
%TD*%
%TO.C,R2*%
X127760000Y-142600000D03*
X127760000Y-134980000D03*
%TD*%
%TO.C,R3*%
X131010000Y-135000000D03*
X131010000Y-142620000D03*
%TD*%
D21*
%TO.C,C1*%
X161050000Y-135000000D03*
D22*
X166050000Y-135000000D03*
%TD*%
D15*
%TO.C,J4*%
X144140000Y-116810000D03*
D14*
X141600000Y-116810000D03*
%TD*%
D12*
%TO.C,J2*%
X156925000Y-114435000D03*
X156925000Y-130665000D03*
X163275000Y-114435000D03*
X163275000Y-130665000D03*
X150575000Y-114435000D03*
X150575000Y-130665000D03*
%TD*%
D23*
%TO.C,C15*%
X142710000Y-79562500D03*
X142710000Y-81637500D03*
%TD*%
D24*
%TO.C,C6*%
X167766000Y-96602500D03*
X167766000Y-94527500D03*
%TD*%
D25*
%TO.C,RV2*%
X138010000Y-68525000D03*
X147610000Y-68525000D03*
D26*
X140310000Y-76025000D03*
D27*
X142810000Y-76025000D03*
X145310000Y-76025000D03*
%TD*%
D28*
%TO.C,R7*%
X161866000Y-102165000D03*
X161866000Y-100165000D03*
%TD*%
D29*
%TO.C,C5*%
X169247500Y-89500000D03*
X167172500Y-89500000D03*
%TD*%
D23*
%TO.C,C20*%
X151731000Y-99792500D03*
X151731000Y-101867500D03*
%TD*%
D30*
%TO.C,R20*%
X157766000Y-100165000D03*
X157766000Y-102165000D03*
%TD*%
D31*
%TO.C,R15*%
X140610000Y-82600000D03*
X138610000Y-82600000D03*
%TD*%
D32*
%TO.C,C10*%
X162304888Y-72700000D03*
D17*
X164804888Y-72700000D03*
%TD*%
D29*
%TO.C,C25*%
X152547500Y-74000000D03*
X150472500Y-74000000D03*
%TD*%
D25*
%TO.C,RV1*%
X120210000Y-60025000D03*
X129810000Y-60025000D03*
D26*
X122510000Y-67525000D03*
D27*
X125010000Y-67525000D03*
X127510000Y-67525000D03*
%TD*%
D33*
%TO.C,U2*%
X163810000Y-79950000D03*
D34*
X165310000Y-79862500D03*
D33*
X166810000Y-79950000D03*
%TD*%
D31*
%TO.C,R6*%
X167666000Y-98565000D03*
X165666000Y-98565000D03*
%TD*%
D23*
%TO.C,C9*%
X151510000Y-79862500D03*
X151510000Y-81937500D03*
%TD*%
D31*
%TO.C,R13*%
X161710000Y-92600000D03*
X159710000Y-92600000D03*
%TD*%
D35*
%TO.C,R21*%
X144910000Y-95300000D03*
X146910000Y-95300000D03*
%TD*%
D24*
%TO.C,C24*%
X146810000Y-99237500D03*
X146810000Y-97162500D03*
%TD*%
D29*
%TO.C,C11*%
X155347500Y-87500000D03*
X153272500Y-87500000D03*
%TD*%
D35*
%TO.C,R24*%
X142810000Y-97300000D03*
X144810000Y-97300000D03*
%TD*%
D36*
%TO.C,C13*%
X160110000Y-83000000D03*
D17*
X160110000Y-80500000D03*
%TD*%
D23*
%TO.C,C7*%
X161710000Y-85462500D03*
X161710000Y-87537500D03*
%TD*%
%TO.C,C16*%
X151866000Y-93765000D03*
X151866000Y-95840000D03*
%TD*%
D28*
%TO.C,R8*%
X165666000Y-96565000D03*
X165666000Y-94565000D03*
%TD*%
D24*
%TO.C,C18*%
X140410000Y-86837500D03*
X140410000Y-84762500D03*
%TD*%
%TO.C,C22*%
X148910000Y-99137500D03*
X148910000Y-97062500D03*
%TD*%
D28*
%TO.C,R16*%
X159866000Y-102165000D03*
X159866000Y-100165000D03*
%TD*%
D23*
%TO.C,C19*%
X140410000Y-88662500D03*
X140410000Y-90737500D03*
%TD*%
D31*
%TO.C,R17*%
X155866000Y-97765000D03*
X153866000Y-97765000D03*
%TD*%
D23*
%TO.C,C14*%
X145010000Y-79562500D03*
X145010000Y-81637500D03*
%TD*%
D31*
%TO.C,R18*%
X152510000Y-76100000D03*
X150510000Y-76100000D03*
%TD*%
D28*
%TO.C,R22*%
X146810000Y-93300000D03*
X146810000Y-91300000D03*
%TD*%
D23*
%TO.C,C8*%
X157410000Y-85462500D03*
X157410000Y-87537500D03*
%TD*%
D37*
%TO.C,C4*%
X164272500Y-106800000D03*
X166347500Y-106800000D03*
%TD*%
D38*
%TO.C,U1*%
X158341000Y-94460000D03*
X158341000Y-95730000D03*
X158341000Y-97000000D03*
X158341000Y-98270000D03*
X163291000Y-98270000D03*
X163291000Y-97000000D03*
X163291000Y-95730000D03*
X163291000Y-94460000D03*
%TD*%
D16*
%TO.C,C3*%
X167110000Y-101194888D03*
D17*
X167110000Y-103694888D03*
%TD*%
D35*
%TO.C,R4*%
X155610000Y-104500000D03*
X157610000Y-104500000D03*
%TD*%
D24*
%TO.C,C17*%
X159610000Y-87537500D03*
X159610000Y-85462500D03*
%TD*%
D31*
%TO.C,R11*%
X157510000Y-89500000D03*
X155510000Y-89500000D03*
%TD*%
D30*
%TO.C,R19*%
X144710000Y-91300000D03*
X144710000Y-93300000D03*
%TD*%
D39*
%TO.C,U3*%
X151355000Y-84125000D03*
X150085000Y-84125000D03*
X148815000Y-84125000D03*
X147545000Y-84125000D03*
X146275000Y-84125000D03*
X145005000Y-84125000D03*
X143735000Y-84125000D03*
X142465000Y-84125000D03*
X142465000Y-89075000D03*
X143735000Y-89075000D03*
X145005000Y-89075000D03*
X146275000Y-89075000D03*
X147545000Y-89075000D03*
X148815000Y-89075000D03*
X150085000Y-89075000D03*
X151355000Y-89075000D03*
%TD*%
D36*
%TO.C,C12*%
X156310000Y-78400000D03*
D17*
X156310000Y-75900000D03*
%TD*%
D31*
%TO.C,R10*%
X161410000Y-89500000D03*
X159410000Y-89500000D03*
%TD*%
D28*
%TO.C,R23*%
X148910000Y-95300000D03*
X148910000Y-93300000D03*
%TD*%
D35*
%TO.C,R5*%
X161710000Y-104600000D03*
X163710000Y-104600000D03*
%TD*%
%TO.C,R14*%
X153866000Y-95765000D03*
X155866000Y-95765000D03*
%TD*%
D23*
%TO.C,C23*%
X142610000Y-91862500D03*
X142610000Y-93937500D03*
%TD*%
%TO.C,C26*%
X168210000Y-65525000D03*
X168210000Y-67600000D03*
%TD*%
D31*
%TO.C,R12*%
X152110000Y-91400000D03*
X150110000Y-91400000D03*
%TD*%
D37*
%TO.C,C21*%
X138372500Y-93100000D03*
X140447500Y-93100000D03*
%TD*%
D25*
%TO.C,RV3*%
X155810000Y-59825000D03*
X165410000Y-59825000D03*
D26*
X158110000Y-67325000D03*
D27*
X160610000Y-67325000D03*
X163110000Y-67325000D03*
%TD*%
D31*
%TO.C,R9*%
X165310000Y-89500000D03*
X163310000Y-89500000D03*
%TD*%
M02*
