%TF.GenerationSoftware,KiCad,Pcbnew,7.0.2-6a45011f42~172~ubuntu22.04.1*%
%TF.CreationDate,2023-05-29T14:24:00+01:00*%
%TF.ProjectId,rebote-smd,7265626f-7465-42d7-936d-642e6b696361,rev?*%
%TF.SameCoordinates,Original*%
%TF.FileFunction,Legend,Bot*%
%TF.FilePolarity,Positive*%
%FSLAX46Y46*%
G04 Gerber Fmt 4.6, Leading zero omitted, Abs format (unit mm)*
G04 Created by KiCad (PCBNEW 7.0.2-6a45011f42~172~ubuntu22.04.1) date 2023-05-29 14:24:00*
%MOMM*%
%LPD*%
G01*
G04 APERTURE LIST*
G04 Aperture macros list*
%AMRoundRect*
0 Rectangle with rounded corners*
0 $1 Rounding radius*
0 $2 $3 $4 $5 $6 $7 $8 $9 X,Y pos of 4 corners*
0 Add a 4 corners polygon primitive as box body*
4,1,4,$2,$3,$4,$5,$6,$7,$8,$9,$2,$3,0*
0 Add four circle primitives for the rounded corners*
1,1,$1+$1,$2,$3*
1,1,$1+$1,$4,$5*
1,1,$1+$1,$6,$7*
1,1,$1+$1,$8,$9*
0 Add four rect primitives between the rounded corners*
20,1,$1+$1,$2,$3,$4,$5,0*
20,1,$1+$1,$4,$5,$6,$7,0*
20,1,$1+$1,$6,$7,$8,$9,0*
20,1,$1+$1,$8,$9,$2,$3,0*%
G04 Aperture macros list end*
%ADD10C,1.998980*%
%ADD11RoundRect,0.200000X1.300000X0.750000X-1.300000X0.750000X-1.300000X-0.750000X1.300000X-0.750000X0*%
%ADD12O,3.000000X1.900000*%
%ADD13C,3.400000*%
%ADD14RoundRect,0.200000X-0.850000X-0.850000X0.850000X-0.850000X0.850000X0.850000X-0.850000X0.850000X0*%
%ADD15O,2.100000X2.100000*%
%ADD16RoundRect,0.200000X-0.850000X0.850000X-0.850000X-0.850000X0.850000X-0.850000X0.850000X0.850000X0*%
%ADD17RoundRect,0.200000X-0.800000X0.800000X-0.800000X-0.800000X0.800000X-0.800000X0.800000X0.800000X0*%
%ADD18C,2.000000*%
%ADD19RoundRect,0.200000X1.000000X0.950000X-1.000000X0.950000X-1.000000X-0.950000X1.000000X-0.950000X0*%
%ADD20C,2.300000*%
%ADD21C,2.398980*%
%ADD22RoundRect,0.200000X-0.650000X-0.650000X0.650000X-0.650000X0.650000X0.650000X-0.650000X0.650000X0*%
%ADD23C,1.700000*%
%ADD24O,3.120000X3.640000*%
%ADD25RoundRect,0.200000X0.900000X0.900000X-0.900000X0.900000X-0.900000X-0.900000X0.900000X-0.900000X0*%
%ADD26C,2.200000*%
%ADD27RoundRect,0.200000X-0.800000X-0.800000X0.800000X-0.800000X0.800000X0.800000X-0.800000X0.800000X0*%
%ADD28RoundRect,0.200000X0.800000X-0.800000X0.800000X0.800000X-0.800000X0.800000X-0.800000X-0.800000X0*%
G04 APERTURE END LIST*
D10*
%TO.C,R1*%
X155500000Y-135000000D03*
X155500000Y-142620000D03*
%TD*%
%TO.C,R2*%
X127760000Y-142600000D03*
X127760000Y-134980000D03*
%TD*%
%TO.C,R3*%
X131010000Y-135000000D03*
X131010000Y-142620000D03*
%TD*%
%LPC*%
D11*
%TO.C,SW1*%
X148550000Y-137825000D03*
D12*
X143250000Y-137825000D03*
X137950000Y-137825000D03*
X148550000Y-142525000D03*
X143250000Y-142550000D03*
X137950000Y-142525000D03*
X148550000Y-147225000D03*
X143250000Y-147225000D03*
X137950000Y-147225000D03*
%TD*%
D13*
%TO.C,J3*%
X128595000Y-130665000D03*
X128595000Y-114435000D03*
X122245000Y-130665000D03*
X122245000Y-114435000D03*
X134945000Y-130665000D03*
X134945000Y-114435000D03*
%TD*%
D14*
%TO.C,J1*%
X150910000Y-58325000D03*
D15*
X150910000Y-60865000D03*
%TD*%
D16*
%TO.C,JOVGI1*%
X146700000Y-111350000D03*
D15*
X144160000Y-111350000D03*
X141620000Y-111350000D03*
X139080000Y-111350000D03*
%TD*%
D16*
%TO.C,JOVGI2*%
X146700000Y-105800000D03*
D15*
X144160000Y-105800000D03*
X141620000Y-105800000D03*
X139080000Y-105800000D03*
%TD*%
D17*
%TO.C,C2*%
X162000000Y-140200000D03*
D18*
X162000000Y-142700000D03*
%TD*%
D19*
%TO.C,D1*%
X122500000Y-137540000D03*
D20*
X122500000Y-135000000D03*
%TD*%
D21*
%TO.C,R1*%
X155500000Y-135000000D03*
X155500000Y-142620000D03*
%TD*%
%TO.C,R2*%
X127760000Y-142600000D03*
X127760000Y-134980000D03*
%TD*%
%TO.C,R3*%
X131010000Y-135000000D03*
X131010000Y-142620000D03*
%TD*%
D22*
%TO.C,C1*%
X161050000Y-135000000D03*
D23*
X166050000Y-135000000D03*
%TD*%
D16*
%TO.C,J4*%
X144140000Y-116810000D03*
D15*
X141600000Y-116810000D03*
%TD*%
D13*
%TO.C,J2*%
X156925000Y-114435000D03*
X156925000Y-130665000D03*
X163275000Y-114435000D03*
X163275000Y-130665000D03*
X150575000Y-114435000D03*
X150575000Y-130665000D03*
%TD*%
D24*
%TO.C,RV2*%
X138010000Y-68525000D03*
X147610000Y-68525000D03*
D25*
X140310000Y-76025000D03*
D26*
X142810000Y-76025000D03*
X145310000Y-76025000D03*
%TD*%
D27*
%TO.C,C10*%
X162304888Y-72700000D03*
D18*
X164804888Y-72700000D03*
%TD*%
D24*
%TO.C,RV1*%
X120210000Y-60025000D03*
X129810000Y-60025000D03*
D25*
X122510000Y-67525000D03*
D26*
X125010000Y-67525000D03*
X127510000Y-67525000D03*
%TD*%
D28*
%TO.C,C13*%
X160110000Y-83000000D03*
D18*
X160110000Y-80500000D03*
%TD*%
D17*
%TO.C,C3*%
X167110000Y-101194888D03*
D18*
X167110000Y-103694888D03*
%TD*%
D28*
%TO.C,C12*%
X156310000Y-78400000D03*
D18*
X156310000Y-75900000D03*
%TD*%
D24*
%TO.C,RV3*%
X155810000Y-59825000D03*
X165410000Y-59825000D03*
D25*
X158110000Y-67325000D03*
D26*
X160610000Y-67325000D03*
X163110000Y-67325000D03*
%TD*%
%LPD*%
M02*
