%TF.GenerationSoftware,KiCad,Pcbnew,7.0.2-6a45011f42~172~ubuntu22.04.1*%
%TF.CreationDate,2023-05-16T10:09:17+01:00*%
%TF.ProjectId,greenbean,67726565-6e62-4656-916e-2e6b69636164,rev?*%
%TF.SameCoordinates,Original*%
%TF.FileFunction,Profile,NP*%
%FSLAX46Y46*%
G04 Gerber Fmt 4.6, Leading zero omitted, Abs format (unit mm)*
G04 Created by KiCad (PCBNEW 7.0.2-6a45011f42~172~ubuntu22.04.1) date 2023-05-16 10:09:17*
%MOMM*%
%LPD*%
G01*
G04 APERTURE LIST*
%TA.AperFunction,Profile*%
%ADD10C,0.150000*%
%TD*%
G04 APERTURE END LIST*
D10*
X144280000Y-110480000D02*
X145170000Y-110480000D01*
X175580000Y-141980000D02*
X164580000Y-152980000D01*
X175580000Y-134480000D02*
X177080000Y-132980000D01*
X143330000Y-63480000D02*
X155330000Y-63480000D01*
X121580000Y-135480000D02*
X121580000Y-121980000D01*
X172080000Y-52980000D02*
X177080000Y-57980000D01*
X154580000Y-110480000D02*
X156330000Y-112230000D01*
X141930000Y-110730000D02*
X123080000Y-110730000D01*
X175580000Y-110730000D02*
X177080000Y-109230000D01*
X143930000Y-108710000D02*
X141930000Y-110730000D01*
X177080000Y-85980000D02*
X177080000Y-57980000D01*
X177080000Y-109230000D02*
X177080000Y-85980000D01*
X141080000Y-152980000D02*
X140080000Y-151980000D01*
X177080000Y-132980000D02*
X177080000Y-113730000D01*
X155080000Y-108730000D02*
X157080000Y-110730000D01*
X153840000Y-110480000D02*
X154580000Y-110480000D01*
X155330000Y-63480000D02*
X155330000Y-52980000D01*
X155080000Y-108730000D02*
X153840000Y-108730000D01*
X141080000Y-152980000D02*
X164580000Y-152980000D01*
X145170000Y-110480000D02*
X145170000Y-108710000D01*
X123080000Y-110730000D02*
X121580000Y-109230000D01*
X156330000Y-112230000D02*
X171330000Y-112230000D01*
X134580000Y-148480000D02*
X133580000Y-147480000D01*
X121580000Y-113730000D02*
X121580000Y-121980000D01*
X140080000Y-149480000D02*
X139080000Y-148480000D01*
X123080000Y-110730000D02*
X123080000Y-110730000D01*
X140080000Y-151980000D02*
X140080000Y-149480000D01*
X155330000Y-52980000D02*
X172080000Y-52980000D01*
X142530000Y-112230000D02*
X123580000Y-112230000D01*
X139080000Y-148480000D02*
X135080000Y-148480000D01*
X123080000Y-112230000D02*
X121580000Y-113730000D01*
X177080000Y-113730000D02*
X175580000Y-112230000D01*
X175580000Y-134480000D02*
X175580000Y-141980000D01*
X135080000Y-148480000D02*
X134580000Y-148480000D01*
X143330000Y-52980000D02*
X126580000Y-52980000D01*
X123580000Y-112230000D02*
X123080000Y-112230000D01*
X153840000Y-108730000D02*
X153840000Y-110480000D01*
X157080000Y-110730000D02*
X175580000Y-110730000D01*
X121580000Y-57980000D02*
X121580000Y-109230000D01*
X175580000Y-112230000D02*
X171330000Y-112230000D01*
X143330000Y-52980000D02*
X143330000Y-63480000D01*
X145170000Y-108710000D02*
X143930000Y-108710000D01*
X144280000Y-110480000D02*
X142530000Y-112230000D01*
X121580000Y-57980000D02*
X126580000Y-52980000D01*
X133580000Y-147480000D02*
X121580000Y-135480000D01*
M02*
