M48
; DRILL file {KiCad 6.0.0-d3dd2cf0fa~116~ubuntu20.04.1} date Sun 02 Jan 2022 14:57:48 GMT
; FORMAT={-:-/ absolute / inch / decimal}
; #@! TF.CreationDate,2022-01-02T14:57:48+00:00
; #@! TF.GenerationSoftware,Kicad,Pcbnew,6.0.0-d3dd2cf0fa~116~ubuntu20.04.1
; #@! TF.FileFunction,Plated,1,2,PTH
FMAT,2
INCH
; #@! TA.AperFunction,Plated,PTH,ViaDrill
T1C0.0157
; #@! TA.AperFunction,Plated,PTH,ComponentDrill
T2C0.0295
; #@! TA.AperFunction,Plated,PTH,ComponentDrill
T3C0.0315
; #@! TA.AperFunction,Plated,PTH,ComponentDrill
T4C0.0354
; #@! TA.AperFunction,Plated,PTH,ComponentDrill
T5C0.0394
; #@! TA.AperFunction,Plated,PTH,ComponentDrill
T6C0.0394
; #@! TA.AperFunction,Plated,PTH,ComponentDrill
T7C0.0591
; #@! TA.AperFunction,Plated,PTH,ComponentDrill
T8C0.0728
; #@! TA.AperFunction,Plated,PTH,ComponentDrill
T9C0.0787
%
G90
G05
T1
X2.685Y-4.7131
X3.213Y-4.6401
X3.771Y-4.61
X3.772Y-4.396
X3.772Y-4.42
X3.772Y-4.443
X3.772Y-4.467
X3.772Y-4.49
X3.772Y-4.514
X3.772Y-4.537
X3.772Y-4.561
X3.772Y-4.585
X3.777Y-2.433
X3.777Y-2.457
X3.777Y-2.48
X3.777Y-2.504
X3.777Y-2.527
X3.777Y-2.551
X3.777Y-2.574
X3.777Y-2.598
X3.777Y-2.622
X3.777Y-2.646
X3.777Y-2.669
X3.777Y-2.693
X3.777Y-2.716
X3.777Y-2.74
X3.777Y-2.763
X3.968Y-2.438
X3.968Y-2.462
X3.968Y-2.485
X3.968Y-2.509
X3.968Y-2.532
X3.968Y-2.556
X3.968Y-2.579
X3.968Y-2.603
X3.968Y-2.627
X3.968Y-2.651
X3.968Y-2.674
X3.968Y-2.698
X3.968Y-2.721
X3.968Y-2.745
X3.968Y-2.768
X3.974Y-4.399
X3.974Y-4.423
X3.974Y-4.446
X3.974Y-4.47
X3.974Y-4.493
X3.974Y-4.517
X3.974Y-4.54
X3.974Y-4.564
X3.974Y-4.588
X3.975Y-4.613
X4.5565Y-3.8296
X4.744Y-3.3721
X4.8842Y-2.8221
X4.9796Y-3.7177
X5.044Y-3.3821
X5.069Y-3.4771
X5.069Y-3.5821
T2
X2.871Y-3.8131
X2.921Y-3.8131
X2.971Y-3.8131
X4.6981Y-3.4921
X4.6981Y-3.5421
X4.6981Y-3.5921
X5.514Y-3.6621
X5.514Y-3.7121
X5.514Y-3.7621
T3
X1.96Y-2.6041
X2.26Y-2.6041
X2.389Y-2.5831
X2.389Y-2.7799
X2.4211Y-3.2671
X2.498Y-4.0871
X2.503Y-3.9561
X2.5211Y-3.2671
X2.5735Y-3.4771
X2.6211Y-3.2671
X2.7704Y-3.4771
X2.798Y-4.0871
X2.803Y-3.9561
X2.866Y-3.2133
X2.866Y-3.3118
X2.87Y-3.5811
X2.923Y-3.9392
X2.923Y-4.1361
X3.027Y-3.9571
X3.167Y-2.9931
X3.167Y-3.2931
X3.17Y-3.5811
X3.2595Y-2.6071
X3.298Y-3.1611
X3.298Y-3.4611
X3.327Y-3.9571
X3.4564Y-2.6071
X3.4885Y-5.157
X3.5259Y-5.3617
X3.5259Y-5.4602
X3.6854Y-5.157
X4.094Y-2.8121
X4.139Y-3.4971
X4.139Y-3.7971
X4.142Y-3.0971
X4.142Y-3.3971
X4.224Y-2.6121
X4.245Y-3.4951
X4.394Y-2.8121
X4.464Y-3.8571
X4.5025Y-2.8181
X4.519Y-3.1681
X4.524Y-2.6121
X4.545Y-3.4951
X4.5655Y-3.7321
X4.574Y-4.1821
X4.601Y-2.8181
X4.7158Y-3.1681
X4.7624Y-3.7321
X4.764Y-3.8571
X4.8536Y-3.2417
X4.8536Y-3.3417
X4.8536Y-3.4417
X4.8536Y-3.5417
X4.854Y-3.6621
X4.8545Y-2.5101
X4.855Y-3.7751
X4.874Y-4.1821
X4.898Y-3.8891
X5.0514Y-2.5101
X5.0948Y-3.8891
X5.1536Y-3.2417
X5.1536Y-3.3417
X5.1536Y-3.4417
X5.1536Y-3.5417
X5.154Y-3.6621
X5.155Y-3.7751
X5.259Y-3.1751
X5.259Y-3.4751
X5.3005Y-4.0011
X5.374Y-3.2521
X5.374Y-3.5621
X5.374Y-3.8621
X5.384Y-4.1221
X5.394Y-2.8221
X5.394Y-3.1221
X5.474Y-2.6821
X5.4974Y-4.0011
X5.5255Y-3.4821
X5.5355Y-2.9521
X5.594Y-3.8821
X5.594Y-4.0021
X5.674Y-3.2521
X5.684Y-4.1221
X5.694Y-3.6621
X5.7224Y-3.4821
X5.7324Y-2.9521
X5.7445Y-5.157
X5.774Y-2.6821
X5.7819Y-5.3617
X5.7819Y-5.4602
X5.834Y-3.2421
X5.834Y-3.5421
X5.894Y-3.8821
X5.894Y-4.0021
X5.9414Y-5.157
X5.964Y-3.2421
X5.964Y-3.5421
X5.994Y-3.6621
T4
X3.165Y-3.7151
X3.165Y-3.8151
T5
X2.0115Y-2.4843
X2.11Y-2.4843
X2.2084Y-2.4843
X2.5946Y-2.7176
X2.5946Y-2.8161
X2.5946Y-2.9145
X2.7247Y-2.3736
X2.8247Y-2.3736
X3.2605Y-2.4843
X3.359Y-2.4843
X3.4574Y-2.4843
X4.1718Y-4.0661
X4.2675Y-2.4843
X4.366Y-2.4843
X4.3686Y-4.0661
X4.4644Y-2.4843
X4.7388Y-2.7386
X4.7388Y-2.8371
X4.7388Y-2.9355
X4.9807Y-2.3736
X5.0807Y-2.3736
X5.5165Y-2.4843
X5.615Y-2.4843
X5.7134Y-2.4843
T6
X1.9708Y-5.157
X1.9708Y-5.257
X2.1775Y-5.157
X2.1775Y-5.457
X2.3054Y-5.1578
X2.3054Y-5.4578
X3.269Y-5.1551
X3.269Y-5.4551
X4.2268Y-5.157
X4.2268Y-5.257
X4.4335Y-5.157
X4.4335Y-5.457
X4.5614Y-5.1578
X4.5614Y-5.4578
X5.525Y-5.1551
X5.525Y-5.4551
T7
X1.961Y-4.3499
X1.961Y-4.9889
X2.211Y-4.3499
X2.211Y-4.9889
X2.461Y-4.3499
X2.461Y-4.9889
X3.0751Y-4.3511
X3.0751Y-4.9901
X3.3251Y-4.3511
X3.3251Y-4.9901
X3.5751Y-4.3511
X3.5751Y-4.9901
X4.217Y-4.3499
X4.217Y-4.9889
X4.467Y-4.3499
X4.467Y-4.9889
X4.717Y-4.3499
X4.717Y-4.9889
X5.3311Y-4.3511
X5.3311Y-4.9901
X5.5811Y-4.3511
X5.5811Y-4.9901
X5.8311Y-4.3511
X5.8311Y-4.9901
T8
X2.52Y-3.0591
T9
X2.8899Y-2.6291
X2.8899Y-3.0031
T5
G00X2.6007Y-5.2682
M15
G01X2.5574Y-5.2682
M16
G05
G00X2.6007Y-5.4533
M15
G01X2.5574Y-5.4533
M16
G05
G00X2.6007Y-5.6383
M15
G01X2.5574Y-5.6383
M16
G05
G00X2.8094Y-5.2682
M15
G01X2.7661Y-5.2682
M16
G05
G00X2.8094Y-5.4543
M15
G01X2.7661Y-5.4543
M16
G05
G00X2.8094Y-5.6383
M15
G01X2.7661Y-5.6383
M16
G05
G00X3.018Y-5.2682
M15
G01X2.9747Y-5.2682
M16
G05
G00X3.018Y-5.4533
M15
G01X2.9747Y-5.4533
M16
G05
G00X3.018Y-5.6383
M15
G01X2.9747Y-5.6383
M16
G05
G00X4.8567Y-5.2682
M15
G01X4.8134Y-5.2682
M16
G05
G00X4.8567Y-5.4533
M15
G01X4.8134Y-5.4533
M16
G05
G00X4.8567Y-5.6383
M15
G01X4.8134Y-5.6383
M16
G05
G00X5.0654Y-5.2682
M15
G01X5.0221Y-5.2682
M16
G05
G00X5.0654Y-5.4543
M15
G01X5.0221Y-5.4543
M16
G05
G00X5.0654Y-5.6383
M15
G01X5.0221Y-5.6383
M16
G05
G00X5.274Y-5.2682
M15
G01X5.2307Y-5.2682
M16
G05
G00X5.274Y-5.4533
M15
G01X5.2307Y-5.4533
M16
G05
G00X5.274Y-5.6383
M15
G01X5.2307Y-5.6383
M16
G05
T0
M30
