M48
; DRILL file {KiCad 7.0.2-6a45011f42~172~ubuntu22.04.1} date Tue 30 May 2023 10:36:55 BST
; FORMAT={-:-/ absolute / inch / decimal}
; #@! TF.CreationDate,2023-05-30T10:36:55+01:00
; #@! TF.GenerationSoftware,Kicad,Pcbnew,7.0.2-6a45011f42~172~ubuntu22.04.1
; #@! TF.FileFunction,NonPlated,1,2,NPTH
FMAT,2
INCH
; #@! TA.AperFunction,NonPlated,NPTH,ComponentDrill
T1C0.0197
%
G90
G05
T1
X4.5256Y-2.9291
X4.5256Y-2.9583
X4.5256Y-2.9874
X4.5256Y-3.0165
X4.5256Y-3.0457
X4.5256Y-3.0748
X4.5256Y-5.2224
X4.5256Y-5.2516
X4.5256Y-5.2807
X4.5256Y-5.3098
X4.5256Y-5.339
X4.5256Y-5.3681
X4.5276Y-4.3114
X4.5276Y-4.3406
X4.5276Y-4.3697
X4.5276Y-4.3988
X4.5276Y-4.428
X4.5276Y-4.4571
X6.8085Y-2.9287
X6.8085Y-2.9579
X6.8085Y-2.987
X6.8085Y-3.0161
X6.8085Y-3.0453
X6.8085Y-3.0744
X6.8087Y-5.2213
X6.8087Y-5.2504
X6.8087Y-5.2795
X6.8087Y-5.3087
X6.8087Y-5.3378
X6.8087Y-5.3669
X6.8106Y-4.3102
X6.8106Y-4.3394
X6.8106Y-4.3685
X6.8106Y-4.3976
X6.8106Y-4.4268
X6.8106Y-4.4559
T0
M30
