M48
; DRILL file {KiCad 7.0.2-6a45011f42~172~ubuntu22.04.1} date Tue 30 May 2023 10:36:55 BST
; FORMAT={-:-/ absolute / inch / decimal}
; #@! TF.CreationDate,2023-05-30T10:36:55+01:00
; #@! TF.GenerationSoftware,Kicad,Pcbnew,7.0.2-6a45011f42~172~ubuntu22.04.1
; #@! TF.FileFunction,Plated,1,2,PTH
FMAT,2
INCH
; #@! TA.AperFunction,Plated,PTH,ViaDrill
T1C0.0157
; #@! TA.AperFunction,Plated,PTH,ComponentDrill
T2C0.0295
; #@! TA.AperFunction,Plated,PTH,ComponentDrill
T3C0.0315
; #@! TA.AperFunction,Plated,PTH,ComponentDrill
T4C0.0354
; #@! TA.AperFunction,Plated,PTH,ComponentDrill
T5C0.0394
; #@! TA.AperFunction,Plated,PTH,ComponentDrill
T6C0.0394
; #@! TA.AperFunction,Plated,PTH,ComponentDrill
T7C0.0433
; #@! TA.AperFunction,Plated,PTH,ComponentDrill
T8C0.0551
%
G90
G05
T1
X2.628Y-4.6606
X3.0295Y-4.1724
X3.0807Y-4.0504
X3.2382Y-3.8575
X3.2421Y-4.0504
X3.4075Y-4.4559
X3.4311Y-4.5543
X3.4547Y-4.3339
X3.5728Y-4.4244
X3.6083Y-4.7039
X3.7067Y-4.2748
X3.8051Y-4.7472
X3.8189Y-4.3083
X5.3209Y-4.7591
X5.5768Y-4.3929
X5.6122Y-4.7354
X5.6358Y-4.7354
X5.6555Y-4.2197
X5.6594Y-4.7354
X5.7028Y-4.4756
X5.935Y-4.7551
X6.0374Y-3.3732
X6.0689Y-4.1685
X6.0768Y-4.574
X6.1538Y-4.4033
X6.1988Y-3.7709
X6.4114Y-3.6055
X6.5217Y-4.5898
X6.5689Y-3.6882
X6.624Y-4.0504
X6.6516Y-4.1094
X7.5193Y-3.9996
X7.5193Y-4.4031
X7.5587Y-4.1177
X7.5587Y-4.472
X7.6374Y-3.7929
X7.7063Y-4.2608
X7.726Y-3.7929
X7.8244Y-4.1079
X7.8638Y-4.3146
X7.8736Y-3.9012
X7.9622Y-3.3106
X8.0311Y-4.1571
X8.1295Y-4.0783
X8.2969Y-3.9504
X8.8185Y-5.7713
T2
X2.6791Y-4.5268
X2.7291Y-4.4768
X2.7291Y-4.5768
X3.7898Y-4.5957
X3.8398Y-4.6457
X3.8898Y-4.5957
T3
X2.7303Y-4.0446
X2.7303Y-4.143
X4.0587Y-5.7748
X4.0961Y-5.9795
X4.0961Y-6.078
X4.124Y-4.5504
X4.124Y-4.6488
X4.2555Y-5.7748
X6.1555Y-3.448
X6.1555Y-3.5465
X6.3051Y-3.6291
X6.3051Y-3.7276
X6.3421Y-5.7748
X6.3795Y-5.9795
X6.3795Y-6.078
X6.3915Y-3.322
X6.49Y-3.322
X6.539Y-5.7748
X6.5807Y-4.4439
X6.5807Y-4.5423
X7.2831Y-3.8842
X7.2831Y-3.9826
X7.3395Y-4.1965
X7.4379Y-4.1965
X7.4477Y-3.6157
X7.5462Y-3.6157
X8.5232Y-4.1866
X8.5232Y-4.285
X8.6606Y-5.974
X8.6606Y-6.0724
X8.7988Y-4.1893
X8.7988Y-4.2877
T4
X3.6437Y-4.0203
X3.6437Y-4.1203
X3.8248Y-4.0199
X3.8248Y-4.1199
T5
X2.5374Y-3.1213
X2.5374Y-3.8073
X2.6358Y-3.1213
X2.6358Y-3.8073
X2.7343Y-3.1213
X2.7343Y-3.8073
X3.0138Y-2.6252
X3.0138Y-2.7252
X3.1937Y-4.6252
X3.1937Y-4.8437
X3.2929Y-5.0587
X3.2937Y-4.6252
X3.2937Y-4.8437
X3.3929Y-5.0587
X3.3937Y-4.6252
X3.3937Y-4.8437
X3.4937Y-4.6252
X3.4937Y-4.8437
X3.939Y-3.1148
X3.939Y-3.8112
X4.0374Y-3.1148
X4.0374Y-3.8112
X4.1358Y-3.1148
X4.1358Y-3.8112
X4.8248Y-3.1183
X4.9232Y-3.1183
X5.0217Y-3.1183
X5.4772Y-4.6252
X5.4772Y-4.8437
X5.5256Y-3.453
X5.5764Y-5.0587
X5.5772Y-4.6252
X5.5772Y-4.8437
X5.624Y-3.453
X5.6764Y-5.0587
X5.6772Y-4.6252
X5.6772Y-4.8437
X5.7224Y-3.453
X5.7772Y-4.6252
X5.7772Y-4.8437
X5.9429Y-2.7561
X5.9429Y-2.8561
X6.2264Y-3.1104
X6.3248Y-3.1104
X6.4232Y-3.1104
X7.1059Y-3.103
X7.2043Y-3.103
X7.3028Y-3.103
X7.5783Y-2.6413
X7.5783Y-2.7413
X7.7583Y-4.6197
X7.7583Y-4.8382
X7.8583Y-4.6197
X7.8583Y-4.8382
X7.8638Y-5.0035
X7.9583Y-4.6197
X7.9583Y-4.8382
X7.9638Y-5.0035
X8.0583Y-4.6197
X8.0583Y-4.8382
X8.5016Y-3.1138
X8.6Y-3.1138
X8.6984Y-3.1138
T6
X2.5409Y-5.7748
X2.5409Y-5.8748
X2.748Y-5.774
X2.748Y-6.074
X2.876Y-5.7748
X2.876Y-6.0748
X3.8402Y-5.7748
X3.8402Y-6.0748
X4.8244Y-5.7748
X4.8244Y-5.8748
X5.0315Y-5.774
X5.0315Y-6.074
X5.1594Y-5.7748
X5.1594Y-6.0748
X6.1236Y-5.7748
X6.1236Y-6.0748
X7.1055Y-5.7693
X7.1055Y-5.8693
T7
X2.4705Y-4.0551
X2.4705Y-4.4551
T8
X2.5335Y-4.9677
X2.5335Y-5.6067
X2.7835Y-4.9677
X2.7835Y-5.6067
X3.0335Y-4.9677
X3.0335Y-5.6067
X3.6463Y-4.9677
X3.6463Y-5.6067
X3.8963Y-4.9677
X3.8963Y-5.6067
X4.1463Y-4.9677
X4.1463Y-5.6067
X4.8144Y-4.9652
X4.8144Y-5.6041
X5.0644Y-4.9652
X5.0644Y-5.6041
X5.3144Y-4.9652
X5.3144Y-5.6041
X5.9297Y-4.9652
X5.9297Y-5.6041
X6.1797Y-4.9652
X6.1797Y-5.6041
X6.4297Y-4.9652
X6.4297Y-5.6041
X7.098Y-4.9642
X7.098Y-5.6031
X7.348Y-4.9642
X7.348Y-5.6031
X7.598Y-4.9642
X7.598Y-5.6031
X8.2102Y-4.9642
X8.2102Y-5.6031
X8.4602Y-4.9642
X8.4602Y-5.6031
X8.7102Y-4.9642
X8.7102Y-5.6031
T5
G00X3.1709Y-5.886
M15
G01X3.1276Y-5.886
M16
G05
G00X3.1709Y-6.0711
M15
G01X3.1276Y-6.0711
M16
G05
G00X3.1709Y-6.2561
M15
G01X3.1276Y-6.2561
M16
G05
G00X3.311Y-3.3535
M15
G01X3.3622Y-3.3535
M16
G05
G00X3.311Y-3.5287
M15
G01X3.3622Y-3.5287
M16
G05
G00X3.311Y-3.7039
M15
G01X3.3622Y-3.7039
M16
G05
G00X3.3795Y-5.886
M15
G01X3.3362Y-5.886
M16
G05
G00X3.3795Y-6.072
M15
G01X3.3362Y-6.072
M16
G05
G00X3.3795Y-6.2561
M15
G01X3.3362Y-6.2561
M16
G05
G00X3.5882Y-5.886
M15
G01X3.5449Y-5.886
M16
G05
G00X3.5882Y-6.0711
M15
G01X3.5449Y-6.0711
M16
G05
G00X3.5882Y-6.2561
M15
G01X3.5449Y-6.2561
M16
G05
G00X5.4543Y-5.886
M15
G01X5.411Y-5.886
M16
G05
G00X5.4543Y-6.0711
M15
G01X5.411Y-6.0711
M16
G05
G00X5.4543Y-6.2561
M15
G01X5.411Y-6.2561
M16
G05
G00X5.663Y-5.886
M15
G01X5.6197Y-5.886
M16
G05
G00X5.663Y-6.072
M15
G01X5.6197Y-6.072
M16
G05
G00X5.663Y-6.2561
M15
G01X5.6197Y-6.2561
M16
G05
G00X5.8717Y-5.886
M15
G01X5.8283Y-5.886
M16
G05
G00X5.8717Y-6.0711
M15
G01X5.8283Y-6.0711
M16
G05
G00X5.8717Y-6.2561
M15
G01X5.8283Y-6.2561
M16
G05
G00X7.7354Y-5.8805
M15
G01X7.6921Y-5.8805
M16
G05
G00X7.7354Y-6.0656
M15
G01X7.6921Y-6.0656
M16
G05
G00X7.7354Y-6.2506
M15
G01X7.6921Y-6.2506
M16
G05
G00X7.9441Y-5.8805
M15
G01X7.9008Y-5.8805
M16
G05
G00X7.9441Y-6.0665
M15
G01X7.9008Y-6.0665
M16
G05
G00X7.9441Y-6.2506
M15
G01X7.9008Y-6.2506
M16
G05
G00X8.1528Y-5.8805
M15
G01X8.1094Y-5.8805
M16
G05
G00X8.1528Y-6.0656
M15
G01X8.1094Y-6.0656
M16
G05
G00X8.1528Y-6.2506
M15
G01X8.1094Y-6.2506
M16
G05
T7
G00X2.4469Y-2.8398
M15
G01X2.4469Y-2.8122
M16
G05
G00X2.4469Y-3.5258
M15
G01X2.4469Y-3.4982
M16
G05
G00X2.8248Y-2.8398
M15
G01X2.8248Y-2.8122
M16
G05
G00X2.8248Y-3.5258
M15
G01X2.8248Y-3.4982
M16
G05
G00X3.8484Y-2.8333
M15
G01X3.8484Y-2.8057
M16
G05
G00X3.8484Y-3.5297
M15
G01X3.8484Y-3.5022
M16
G05
G00X4.2264Y-2.8333
M15
G01X4.2264Y-2.8057
M16
G05
G00X4.2264Y-3.5297
M15
G01X4.2264Y-3.5022
M16
G05
G00X4.7343Y-2.8368
M15
G01X4.7343Y-2.8093
M16
G05
G00X5.1122Y-2.8368
M15
G01X5.1122Y-2.8093
M16
G05
G00X5.435Y-3.1715
M15
G01X5.435Y-3.1439
M16
G05
G00X5.813Y-3.1715
M15
G01X5.813Y-3.1439
M16
G05
G00X6.1358Y-2.8289
M15
G01X6.1358Y-2.8014
M16
G05
G00X6.5138Y-2.8289
M15
G01X6.5138Y-2.8014
M16
G05
G00X7.0154Y-2.8215
M15
G01X7.0154Y-2.7939
M16
G05
G00X7.3933Y-2.8215
M15
G01X7.3933Y-2.7939
M16
G05
G00X8.411Y-2.8323
M15
G01X8.411Y-2.8047
M16
G05
G00X8.789Y-2.8323
M15
G01X8.789Y-2.8047
M16
G05
T0
M30
