%TF.GenerationSoftware,KiCad,Pcbnew,7.0.2-6a45011f42~172~ubuntu22.04.1*%
%TF.CreationDate,2023-05-30T10:36:55+01:00*%
%TF.ProjectId,panel-rbt-lac-gb-smd-1,70616e65-6c2d-4726-9274-2d6c61632d67,rev?*%
%TF.SameCoordinates,Original*%
%TF.FileFunction,Paste,Top*%
%TF.FilePolarity,Positive*%
%FSLAX46Y46*%
G04 Gerber Fmt 4.6, Leading zero omitted, Abs format (unit mm)*
G04 Created by KiCad (PCBNEW 7.0.2-6a45011f42~172~ubuntu22.04.1) date 2023-05-30 10:36:55*
%MOMM*%
%LPD*%
G01*
G04 APERTURE LIST*
G04 Aperture macros list*
%AMRoundRect*
0 Rectangle with rounded corners*
0 $1 Rounding radius*
0 $2 $3 $4 $5 $6 $7 $8 $9 X,Y pos of 4 corners*
0 Add a 4 corners polygon primitive as box body*
4,1,4,$2,$3,$4,$5,$6,$7,$8,$9,$2,$3,0*
0 Add four circle primitives for the rounded corners*
1,1,$1+$1,$2,$3*
1,1,$1+$1,$4,$5*
1,1,$1+$1,$6,$7*
1,1,$1+$1,$8,$9*
0 Add four rect primitives between the rounded corners*
20,1,$1+$1,$2,$3,$4,$5,0*
20,1,$1+$1,$4,$5,$6,$7,0*
20,1,$1+$1,$6,$7,$8,$9,0*
20,1,$1+$1,$8,$9,$2,$3,0*%
%AMFreePoly0*
4,1,9,3.862500,-0.866500,0.737500,-0.866500,0.737500,-0.450000,-0.737500,-0.450000,-0.737500,0.450000,0.737500,0.450000,0.737500,0.866500,3.862500,0.866500,3.862500,-0.866500,3.862500,-0.866500,$1*%
G04 Aperture macros list end*
%ADD10RoundRect,0.250000X-0.350000X-0.450000X0.350000X-0.450000X0.350000X0.450000X-0.350000X0.450000X0*%
%ADD11RoundRect,0.250000X0.350000X0.450000X-0.350000X0.450000X-0.350000X-0.450000X0.350000X-0.450000X0*%
%ADD12RoundRect,0.250000X-0.450000X0.350000X-0.450000X-0.350000X0.450000X-0.350000X0.450000X0.350000X0*%
%ADD13RoundRect,0.250000X-0.337500X-0.475000X0.337500X-0.475000X0.337500X0.475000X-0.337500X0.475000X0*%
%ADD14RoundRect,0.150000X-0.150000X0.725000X-0.150000X-0.725000X0.150000X-0.725000X0.150000X0.725000X0*%
%ADD15RoundRect,0.250000X-0.300000X-0.300000X0.300000X-0.300000X0.300000X0.300000X-0.300000X0.300000X0*%
%ADD16RoundRect,0.250000X0.337500X0.475000X-0.337500X0.475000X-0.337500X-0.475000X0.337500X-0.475000X0*%
%ADD17RoundRect,0.250000X0.300000X0.300000X-0.300000X0.300000X-0.300000X-0.300000X0.300000X-0.300000X0*%
%ADD18RoundRect,0.250000X0.450000X-0.350000X0.450000X0.350000X-0.450000X0.350000X-0.450000X-0.350000X0*%
%ADD19RoundRect,0.250000X0.475000X-0.337500X0.475000X0.337500X-0.475000X0.337500X-0.475000X-0.337500X0*%
%ADD20RoundRect,0.150000X0.150000X-0.587500X0.150000X0.587500X-0.150000X0.587500X-0.150000X-0.587500X0*%
%ADD21RoundRect,0.150000X-0.150000X0.587500X-0.150000X-0.587500X0.150000X-0.587500X0.150000X0.587500X0*%
%ADD22RoundRect,0.250000X-0.475000X0.337500X-0.475000X-0.337500X0.475000X-0.337500X0.475000X0.337500X0*%
%ADD23R,0.900000X1.300000*%
%ADD24FreePoly0,90.000000*%
%ADD25RoundRect,0.150000X-0.825000X-0.150000X0.825000X-0.150000X0.825000X0.150000X-0.825000X0.150000X0*%
%ADD26RoundRect,0.150000X-0.150000X0.825000X-0.150000X-0.825000X0.150000X-0.825000X0.150000X0.825000X0*%
%ADD27RoundRect,0.150000X0.587500X0.150000X-0.587500X0.150000X-0.587500X-0.150000X0.587500X-0.150000X0*%
%ADD28RoundRect,0.150000X0.150000X-0.825000X0.150000X0.825000X-0.150000X0.825000X-0.150000X-0.825000X0*%
%ADD29FreePoly0,270.000000*%
%ADD30RoundRect,0.150000X0.650000X0.150000X-0.650000X0.150000X-0.650000X-0.150000X0.650000X-0.150000X0*%
G04 APERTURE END LIST*
D10*
%TO.C,R14*%
X84350000Y-110680000D03*
X86350000Y-110680000D03*
%TD*%
D11*
%TO.C,R19*%
X74350000Y-118580000D03*
X72350000Y-118580000D03*
%TD*%
D12*
%TO.C,R12*%
X79850000Y-111680000D03*
X79850000Y-113680000D03*
%TD*%
D13*
%TO.C,C8*%
X77612500Y-108980000D03*
X79687500Y-108980000D03*
%TD*%
D10*
%TO.C,R22*%
X76250000Y-118580000D03*
X78250000Y-118580000D03*
%TD*%
D14*
%TO.C,U1*%
X87755000Y-103005000D03*
X86485000Y-103005000D03*
X85215000Y-103005000D03*
X83945000Y-103005000D03*
X83945000Y-108155000D03*
X85215000Y-108155000D03*
X86485000Y-108155000D03*
X87755000Y-108155000D03*
%TD*%
D12*
%TO.C,R20*%
X65050000Y-116180000D03*
X65050000Y-118180000D03*
%TD*%
D15*
%TO.C,D5*%
X86550000Y-100480000D03*
X89350000Y-100480000D03*
%TD*%
D16*
%TO.C,C4*%
X97587500Y-111580000D03*
X95512500Y-111580000D03*
%TD*%
D17*
%TO.C,D4*%
X89350000Y-98080000D03*
X86550000Y-98080000D03*
%TD*%
D16*
%TO.C,C6*%
X98387500Y-99180000D03*
X96312500Y-99180000D03*
%TD*%
D11*
%TO.C,R7*%
X99650000Y-113580000D03*
X97650000Y-113580000D03*
%TD*%
D13*
%TO.C,C3*%
X91512500Y-114480000D03*
X93587500Y-114480000D03*
%TD*%
D12*
%TO.C,R11*%
X80650000Y-105080000D03*
X80650000Y-107080000D03*
%TD*%
D10*
%TO.C,R13*%
X75350000Y-77180000D03*
X77350000Y-77180000D03*
%TD*%
D16*
%TO.C,C12*%
X101687500Y-109280000D03*
X99612500Y-109280000D03*
%TD*%
D18*
%TO.C,R5*%
X93650000Y-118480000D03*
X93650000Y-116480000D03*
%TD*%
D16*
%TO.C,C9*%
X77387500Y-79380000D03*
X75312500Y-79380000D03*
%TD*%
D11*
%TO.C,R9*%
X93550000Y-112380000D03*
X91550000Y-112380000D03*
%TD*%
D10*
%TO.C,R6*%
X93550000Y-120380000D03*
X95550000Y-120380000D03*
%TD*%
%TO.C,R16*%
X61150000Y-116180000D03*
X63150000Y-116180000D03*
%TD*%
%TO.C,R18*%
X72350000Y-114480000D03*
X74350000Y-114480000D03*
%TD*%
D19*
%TO.C,C11*%
X74850000Y-110017500D03*
X74850000Y-107942500D03*
%TD*%
D16*
%TO.C,C14*%
X74387500Y-112480000D03*
X72312500Y-112480000D03*
%TD*%
D13*
%TO.C,C5*%
X100250000Y-99180000D03*
X102325000Y-99180000D03*
%TD*%
D10*
%TO.C,R21*%
X72350000Y-116480000D03*
X74350000Y-116480000D03*
%TD*%
D20*
%TO.C,Q5*%
X104000000Y-103017500D03*
X105900000Y-103017500D03*
X104950000Y-101142500D03*
%TD*%
D18*
%TO.C,R8*%
X94550000Y-97180000D03*
X94550000Y-95180000D03*
%TD*%
D12*
%TO.C,R10*%
X92550000Y-97880000D03*
X92550000Y-99880000D03*
%TD*%
D19*
%TO.C,C7*%
X100850000Y-104517500D03*
X100850000Y-102442500D03*
%TD*%
D13*
%TO.C,C15*%
X76212500Y-116480000D03*
X78287500Y-116480000D03*
%TD*%
D21*
%TO.C,Q2*%
X105850000Y-105080000D03*
X103950000Y-105080000D03*
X104900000Y-106955000D03*
%TD*%
D18*
%TO.C,R17*%
X74850000Y-106180000D03*
X74850000Y-104180000D03*
%TD*%
D17*
%TO.C,D2*%
X102150000Y-106980000D03*
X99350000Y-106980000D03*
%TD*%
D10*
%TO.C,R15*%
X61150000Y-118180000D03*
X63150000Y-118180000D03*
%TD*%
D18*
%TO.C,R4*%
X91650000Y-118480000D03*
X91650000Y-116480000D03*
%TD*%
D22*
%TO.C,C15*%
X142750000Y-91242500D03*
X142750000Y-93317500D03*
%TD*%
D19*
%TO.C,C6*%
X167806000Y-108282500D03*
X167806000Y-106207500D03*
%TD*%
D18*
%TO.C,R7*%
X161906000Y-113845000D03*
X161906000Y-111845000D03*
%TD*%
D16*
%TO.C,C5*%
X169287500Y-101180000D03*
X167212500Y-101180000D03*
%TD*%
D22*
%TO.C,C20*%
X151771000Y-111472500D03*
X151771000Y-113547500D03*
%TD*%
D12*
%TO.C,R20*%
X157806000Y-111845000D03*
X157806000Y-113845000D03*
%TD*%
D11*
%TO.C,R15*%
X140650000Y-94280000D03*
X138650000Y-94280000D03*
%TD*%
D16*
%TO.C,C25*%
X152587500Y-85680000D03*
X150512500Y-85680000D03*
%TD*%
D23*
%TO.C,U2*%
X163850000Y-91630000D03*
D24*
X165350000Y-91542500D03*
D23*
X166850000Y-91630000D03*
%TD*%
D11*
%TO.C,R6*%
X167706000Y-110245000D03*
X165706000Y-110245000D03*
%TD*%
D22*
%TO.C,C9*%
X151550000Y-91542500D03*
X151550000Y-93617500D03*
%TD*%
D11*
%TO.C,R13*%
X161750000Y-104280000D03*
X159750000Y-104280000D03*
%TD*%
D10*
%TO.C,R21*%
X144950000Y-106980000D03*
X146950000Y-106980000D03*
%TD*%
D19*
%TO.C,C24*%
X146850000Y-110917500D03*
X146850000Y-108842500D03*
%TD*%
D16*
%TO.C,C11*%
X155387500Y-99180000D03*
X153312500Y-99180000D03*
%TD*%
D10*
%TO.C,R24*%
X142850000Y-108980000D03*
X144850000Y-108980000D03*
%TD*%
D22*
%TO.C,C7*%
X161750000Y-97142500D03*
X161750000Y-99217500D03*
%TD*%
%TO.C,C16*%
X151906000Y-105445000D03*
X151906000Y-107520000D03*
%TD*%
D18*
%TO.C,R8*%
X165706000Y-108245000D03*
X165706000Y-106245000D03*
%TD*%
D19*
%TO.C,C18*%
X140450000Y-98517500D03*
X140450000Y-96442500D03*
%TD*%
%TO.C,C22*%
X148950000Y-110817500D03*
X148950000Y-108742500D03*
%TD*%
D18*
%TO.C,R16*%
X159906000Y-113845000D03*
X159906000Y-111845000D03*
%TD*%
D22*
%TO.C,C19*%
X140450000Y-100342500D03*
X140450000Y-102417500D03*
%TD*%
D11*
%TO.C,R17*%
X155906000Y-109445000D03*
X153906000Y-109445000D03*
%TD*%
D22*
%TO.C,C14*%
X145050000Y-91242500D03*
X145050000Y-93317500D03*
%TD*%
D11*
%TO.C,R18*%
X152550000Y-87780000D03*
X150550000Y-87780000D03*
%TD*%
D18*
%TO.C,R22*%
X146850000Y-104980000D03*
X146850000Y-102980000D03*
%TD*%
D22*
%TO.C,C8*%
X157450000Y-97142500D03*
X157450000Y-99217500D03*
%TD*%
D13*
%TO.C,C4*%
X164312500Y-118480000D03*
X166387500Y-118480000D03*
%TD*%
D25*
%TO.C,U1*%
X158381000Y-106140000D03*
X158381000Y-107410000D03*
X158381000Y-108680000D03*
X158381000Y-109950000D03*
X163331000Y-109950000D03*
X163331000Y-108680000D03*
X163331000Y-107410000D03*
X163331000Y-106140000D03*
%TD*%
D10*
%TO.C,R4*%
X155650000Y-116180000D03*
X157650000Y-116180000D03*
%TD*%
D19*
%TO.C,C17*%
X159650000Y-99217500D03*
X159650000Y-97142500D03*
%TD*%
D11*
%TO.C,R11*%
X157550000Y-101180000D03*
X155550000Y-101180000D03*
%TD*%
D12*
%TO.C,R19*%
X144750000Y-102980000D03*
X144750000Y-104980000D03*
%TD*%
D26*
%TO.C,U3*%
X151395000Y-95805000D03*
X150125000Y-95805000D03*
X148855000Y-95805000D03*
X147585000Y-95805000D03*
X146315000Y-95805000D03*
X145045000Y-95805000D03*
X143775000Y-95805000D03*
X142505000Y-95805000D03*
X142505000Y-100755000D03*
X143775000Y-100755000D03*
X145045000Y-100755000D03*
X146315000Y-100755000D03*
X147585000Y-100755000D03*
X148855000Y-100755000D03*
X150125000Y-100755000D03*
X151395000Y-100755000D03*
%TD*%
D11*
%TO.C,R10*%
X161450000Y-101180000D03*
X159450000Y-101180000D03*
%TD*%
D18*
%TO.C,R23*%
X148950000Y-106980000D03*
X148950000Y-104980000D03*
%TD*%
D10*
%TO.C,R5*%
X161750000Y-116280000D03*
X163750000Y-116280000D03*
%TD*%
%TO.C,R14*%
X153906000Y-107445000D03*
X155906000Y-107445000D03*
%TD*%
D22*
%TO.C,C23*%
X142650000Y-103542500D03*
X142650000Y-105617500D03*
%TD*%
%TO.C,C26*%
X168250000Y-77205000D03*
X168250000Y-79280000D03*
%TD*%
D11*
%TO.C,R12*%
X152150000Y-103080000D03*
X150150000Y-103080000D03*
%TD*%
D13*
%TO.C,C21*%
X138412500Y-104780000D03*
X140487500Y-104780000D03*
%TD*%
D11*
%TO.C,R9*%
X165350000Y-101180000D03*
X163350000Y-101180000D03*
%TD*%
D12*
%TO.C,R25*%
X213490000Y-146840000D03*
X213490000Y-148840000D03*
%TD*%
D18*
%TO.C,R26*%
X185490000Y-148840000D03*
X185490000Y-146840000D03*
%TD*%
D12*
%TO.C,R27*%
X188980000Y-146840000D03*
X188980000Y-148840000D03*
%TD*%
D13*
%TO.C,C18*%
X217992500Y-146540000D03*
X220067500Y-146540000D03*
%TD*%
D11*
%TO.C,R1*%
X194990000Y-102590000D03*
X192990000Y-102590000D03*
%TD*%
%TO.C,R15*%
X209990000Y-110090000D03*
X207990000Y-110090000D03*
%TD*%
D12*
%TO.C,R14*%
X209490000Y-90840000D03*
X209490000Y-92840000D03*
%TD*%
D11*
%TO.C,R17*%
X205990000Y-112340000D03*
X203990000Y-112340000D03*
%TD*%
D16*
%TO.C,C16*%
X199277500Y-113590000D03*
X197202500Y-113590000D03*
%TD*%
D11*
%TO.C,R7*%
X221990000Y-103340000D03*
X219990000Y-103340000D03*
%TD*%
D27*
%TO.C,Q2*%
X221927500Y-101540000D03*
X221927500Y-99640000D03*
X220052500Y-100590000D03*
%TD*%
D28*
%TO.C,U3*%
X198045000Y-96315000D03*
X199315000Y-96315000D03*
X200585000Y-96315000D03*
X201855000Y-96315000D03*
X203125000Y-96315000D03*
X204395000Y-96315000D03*
X205665000Y-96315000D03*
X206935000Y-96315000D03*
X206935000Y-91365000D03*
X205665000Y-91365000D03*
X204395000Y-91365000D03*
X203125000Y-91365000D03*
X201855000Y-91365000D03*
X200585000Y-91365000D03*
X199315000Y-91365000D03*
X198045000Y-91365000D03*
%TD*%
D11*
%TO.C,R11*%
X209990000Y-108090000D03*
X207990000Y-108090000D03*
%TD*%
%TO.C,R22*%
X200990000Y-82340000D03*
X198990000Y-82340000D03*
%TD*%
D18*
%TO.C,R9*%
X211990000Y-108090000D03*
X211990000Y-106090000D03*
%TD*%
D11*
%TO.C,R19*%
X196990000Y-84340000D03*
X194990000Y-84340000D03*
%TD*%
D18*
%TO.C,R18*%
X194990000Y-88340000D03*
X194990000Y-86340000D03*
%TD*%
D11*
%TO.C,R2*%
X198740000Y-102590000D03*
X196740000Y-102590000D03*
%TD*%
%TO.C,R5*%
X194990000Y-110590000D03*
X192990000Y-110590000D03*
%TD*%
%TO.C,R13*%
X209990000Y-105840000D03*
X207990000Y-105840000D03*
%TD*%
D19*
%TO.C,C9*%
X205490000Y-101377500D03*
X205490000Y-99302500D03*
%TD*%
D13*
%TO.C,C2*%
X192952500Y-108590000D03*
X195027500Y-108590000D03*
%TD*%
%TO.C,C17*%
X193202500Y-113590000D03*
X195277500Y-113590000D03*
%TD*%
D11*
%TO.C,R4*%
X194990000Y-104590000D03*
X192990000Y-104590000D03*
%TD*%
D12*
%TO.C,R20*%
X203990000Y-82090000D03*
X203990000Y-84090000D03*
%TD*%
D13*
%TO.C,C11*%
X200702500Y-103090000D03*
X202777500Y-103090000D03*
%TD*%
%TO.C,C7*%
X207952500Y-112340000D03*
X210027500Y-112340000D03*
%TD*%
D11*
%TO.C,R8*%
X209990000Y-103840000D03*
X207990000Y-103840000D03*
%TD*%
%TO.C,R3*%
X194990000Y-106590000D03*
X192990000Y-106590000D03*
%TD*%
D22*
%TO.C,C13*%
X203990000Y-86052500D03*
X203990000Y-88127500D03*
%TD*%
D11*
%TO.C,R10*%
X217800000Y-98840000D03*
X215800000Y-98840000D03*
%TD*%
D23*
%TO.C,U4*%
X192740000Y-96390000D03*
D29*
X191240000Y-96477500D03*
D23*
X189740000Y-96390000D03*
%TD*%
D19*
%TO.C,C10*%
X207490000Y-101377500D03*
X207490000Y-99302500D03*
%TD*%
D30*
%TO.C,U1*%
X205840000Y-109495000D03*
X205840000Y-108225000D03*
X205840000Y-106955000D03*
X205840000Y-105685000D03*
X198640000Y-105685000D03*
X198640000Y-106955000D03*
X198640000Y-108225000D03*
X198640000Y-109495000D03*
%TD*%
D10*
%TO.C,R12*%
X215800000Y-101090000D03*
X217800000Y-101090000D03*
%TD*%
D19*
%TO.C,C12*%
X200490000Y-88377500D03*
X200490000Y-86302500D03*
%TD*%
%TO.C,C14*%
X206240000Y-88127500D03*
X206240000Y-86052500D03*
%TD*%
D10*
%TO.C,R21*%
X198990000Y-84340000D03*
X200990000Y-84340000D03*
%TD*%
D19*
%TO.C,C15*%
X196990000Y-88377500D03*
X196990000Y-86302500D03*
%TD*%
D12*
%TO.C,R23*%
X206240000Y-82090000D03*
X206240000Y-84090000D03*
%TD*%
D18*
%TO.C,R16*%
X194990000Y-92090000D03*
X194990000Y-90090000D03*
%TD*%
M02*
