%TF.GenerationSoftware,KiCad,Pcbnew,7.0.6-7.0.6~ubuntu22.04.1*%
%TF.CreationDate,2023-07-17T17:36:07+01:00*%
%TF.ProjectId,phasenom,70686173-656e-46f6-9d2e-6b696361645f,rev?*%
%TF.SameCoordinates,Original*%
%TF.FileFunction,Legend,Top*%
%TF.FilePolarity,Positive*%
%FSLAX46Y46*%
G04 Gerber Fmt 4.6, Leading zero omitted, Abs format (unit mm)*
G04 Created by KiCad (PCBNEW 7.0.6-7.0.6~ubuntu22.04.1) date 2023-07-17 17:36:07*
%MOMM*%
%LPD*%
G01*
G04 APERTURE LIST*
G04 Aperture macros list*
%AMRoundRect*
0 Rectangle with rounded corners*
0 $1 Rounding radius*
0 $2 $3 $4 $5 $6 $7 $8 $9 X,Y pos of 4 corners*
0 Add a 4 corners polygon primitive as box body*
4,1,4,$2,$3,$4,$5,$6,$7,$8,$9,$2,$3,0*
0 Add four circle primitives for the rounded corners*
1,1,$1+$1,$2,$3*
1,1,$1+$1,$4,$5*
1,1,$1+$1,$6,$7*
1,1,$1+$1,$8,$9*
0 Add four rect primitives between the rounded corners*
20,1,$1+$1,$2,$3,$4,$5,0*
20,1,$1+$1,$4,$5,$6,$7,0*
20,1,$1+$1,$6,$7,$8,$9,0*
20,1,$1+$1,$8,$9,$2,$3,0*%
G04 Aperture macros list end*
%ADD10C,0.300000*%
%ADD11C,0.150000*%
%ADD12C,0.120000*%
%ADD13R,2.000000X1.900000*%
%ADD14C,1.900000*%
%ADD15R,2.600000X1.500000*%
%ADD16O,2.600000X1.500000*%
%ADD17RoundRect,0.200000X-0.800000X0.800000X-0.800000X-0.800000X0.800000X-0.800000X0.800000X0.800000X0*%
%ADD18C,2.000000*%
%ADD19RoundRect,0.450000X-0.337500X-0.475000X0.337500X-0.475000X0.337500X0.475000X-0.337500X0.475000X0*%
%ADD20RoundRect,0.200000X-0.800000X-0.800000X0.800000X-0.800000X0.800000X0.800000X-0.800000X0.800000X0*%
%ADD21RoundRect,0.450000X0.475000X-0.337500X0.475000X0.337500X-0.475000X0.337500X-0.475000X-0.337500X0*%
%ADD22RoundRect,0.200000X1.000000X0.950000X-1.000000X0.950000X-1.000000X-0.950000X1.000000X-0.950000X0*%
%ADD23C,2.300000*%
%ADD24RoundRect,0.425000X0.225000X0.375000X-0.225000X0.375000X-0.225000X-0.375000X0.225000X-0.375000X0*%
%ADD25O,2.100000X2.100000*%
%ADD26RoundRect,0.200000X0.850000X0.850000X-0.850000X0.850000X-0.850000X-0.850000X0.850000X-0.850000X0*%
%ADD27C,3.400000*%
%ADD28RoundRect,0.200000X-0.850000X0.850000X-0.850000X-0.850000X0.850000X-0.850000X0.850000X0.850000X0*%
%ADD29RoundRect,0.350000X-0.150000X0.587500X-0.150000X-0.587500X0.150000X-0.587500X0.150000X0.587500X0*%
%ADD30RoundRect,0.200000X-0.750000X-0.750000X0.750000X-0.750000X0.750000X0.750000X-0.750000X0.750000X0*%
%ADD31RoundRect,0.450000X-0.450000X0.262500X-0.450000X-0.262500X0.450000X-0.262500X0.450000X0.262500X0*%
%ADD32RoundRect,0.450000X-0.262500X-0.450000X0.262500X-0.450000X0.262500X0.450000X-0.262500X0.450000X0*%
%ADD33RoundRect,0.450000X-0.450000X0.350000X-0.450000X-0.350000X0.450000X-0.350000X0.450000X0.350000X0*%
%ADD34RoundRect,0.450000X0.350000X0.450000X-0.350000X0.450000X-0.350000X-0.450000X0.350000X-0.450000X0*%
%ADD35RoundRect,0.200000X1.300000X0.750000X-1.300000X0.750000X-1.300000X-0.750000X1.300000X-0.750000X0*%
%ADD36O,3.000000X1.900000*%
%ADD37RoundRect,0.200000X0.800000X-0.800000X0.800000X0.800000X-0.800000X0.800000X-0.800000X-0.800000X0*%
%ADD38C,1.840000*%
%ADD39RoundRect,0.350000X0.150000X-0.825000X0.150000X0.825000X-0.150000X0.825000X-0.150000X-0.825000X0*%
%ADD40O,5.400000X3.600000*%
%ADD41RoundRect,0.450000X-0.070711X0.565685X-0.565685X0.070711X0.070711X-0.565685X0.565685X-0.070711X0*%
%ADD42RoundRect,0.450000X-0.350000X-0.450000X0.350000X-0.450000X0.350000X0.450000X-0.350000X0.450000X0*%
%ADD43RoundRect,0.450000X0.450000X-0.350000X0.450000X0.350000X-0.450000X0.350000X-0.450000X-0.350000X0*%
%ADD44RoundRect,0.450000X0.600000X-0.400000X0.600000X0.400000X-0.600000X0.400000X-0.600000X-0.400000X0*%
%ADD45RoundRect,0.450000X0.337500X0.475000X-0.337500X0.475000X-0.337500X-0.475000X0.337500X-0.475000X0*%
%ADD46C,1.924000*%
G04 APERTURE END LIST*
D10*
G36*
X163093083Y-101402819D02*
G01*
X163093083Y-102931694D01*
X162921958Y-103017257D01*
X162421350Y-103017257D01*
X162189079Y-102901122D01*
X162080646Y-102792688D01*
X161964511Y-102560418D01*
X161964511Y-101774094D01*
X162080646Y-101541824D01*
X162189078Y-101433392D01*
X162421350Y-101317257D01*
X162921958Y-101317257D01*
X163093083Y-101402819D01*
G37*
G36*
X167274136Y-101421917D02*
G01*
X167378798Y-101631238D01*
X167378798Y-101758571D01*
X166250226Y-101984286D01*
X166250226Y-101631238D01*
X166354886Y-101421917D01*
X166564208Y-101317257D01*
X167064816Y-101317257D01*
X167274136Y-101421917D01*
G37*
G36*
X157749254Y-102160114D02*
G01*
X156736910Y-102160114D01*
X157243082Y-100641598D01*
X157749254Y-102160114D01*
G37*
G36*
X168107369Y-104745828D02*
G01*
X155667556Y-104745828D01*
X155667556Y-103197329D01*
X156096127Y-103197329D01*
X156130852Y-103266778D01*
X156195648Y-103309559D01*
X156273154Y-103314212D01*
X156342603Y-103279487D01*
X156385384Y-103214691D01*
X156636910Y-102460114D01*
X157849254Y-102460114D01*
X158100780Y-103214691D01*
X158143561Y-103279488D01*
X158213010Y-103314212D01*
X158290516Y-103309560D01*
X158355313Y-103266778D01*
X158390037Y-103197329D01*
X158388232Y-103167257D01*
X159093082Y-103167257D01*
X159113178Y-103242257D01*
X159168082Y-103297161D01*
X159243082Y-103317257D01*
X159318082Y-103297161D01*
X159372986Y-103242257D01*
X159393082Y-103167257D01*
X159393082Y-101515103D01*
X159474792Y-101433392D01*
X159707064Y-101317257D01*
X160064815Y-101317257D01*
X160274135Y-101421917D01*
X160378797Y-101631238D01*
X160378797Y-103167257D01*
X160398893Y-103242257D01*
X160453797Y-103297161D01*
X160528797Y-103317257D01*
X160603797Y-103297161D01*
X160658701Y-103242257D01*
X160678797Y-103167257D01*
X160678797Y-102595828D01*
X161664511Y-102595828D01*
X161673434Y-102629129D01*
X161680347Y-102662910D01*
X161823204Y-102948624D01*
X161839227Y-102966694D01*
X161851302Y-102987608D01*
X161994159Y-103130466D01*
X162015073Y-103142541D01*
X162033143Y-103158564D01*
X162318858Y-103301421D01*
X162352636Y-103308333D01*
X162385940Y-103317257D01*
X162957368Y-103317257D01*
X162990669Y-103308333D01*
X163024450Y-103301421D01*
X163093083Y-103267104D01*
X163093083Y-103560417D01*
X162976947Y-103792688D01*
X162868513Y-103901122D01*
X162636244Y-104017257D01*
X162278493Y-104017257D01*
X162024450Y-103890236D01*
X161948381Y-103874669D01*
X161874719Y-103899223D01*
X161823204Y-103957318D01*
X161807637Y-104033387D01*
X161832191Y-104107049D01*
X161890286Y-104158564D01*
X162176001Y-104301421D01*
X162209779Y-104308333D01*
X162243083Y-104317257D01*
X162671654Y-104317257D01*
X162704955Y-104308333D01*
X162738736Y-104301421D01*
X163024450Y-104158564D01*
X163042519Y-104142540D01*
X163063434Y-104130466D01*
X163206291Y-103987608D01*
X163218366Y-103966693D01*
X163234389Y-103948624D01*
X163377247Y-103662911D01*
X163384160Y-103629126D01*
X163393083Y-103595828D01*
X163393083Y-102738685D01*
X164521654Y-102738685D01*
X164530577Y-102771986D01*
X164537490Y-102805767D01*
X164680347Y-103091482D01*
X164686432Y-103098344D01*
X164689334Y-103107049D01*
X164711874Y-103127036D01*
X164731862Y-103149577D01*
X164740566Y-103152478D01*
X164747429Y-103158564D01*
X165033144Y-103301421D01*
X165109214Y-103316988D01*
X165182875Y-103292434D01*
X165234390Y-103234339D01*
X165249957Y-103158270D01*
X165225403Y-103084608D01*
X165167308Y-103033093D01*
X164926314Y-102912596D01*
X164839359Y-102738685D01*
X165950226Y-102738685D01*
X165959149Y-102771986D01*
X165966062Y-102805767D01*
X166108919Y-103091482D01*
X166115004Y-103098344D01*
X166117906Y-103107049D01*
X166140446Y-103127036D01*
X166160434Y-103149577D01*
X166169138Y-103152478D01*
X166176001Y-103158564D01*
X166461716Y-103301421D01*
X166495494Y-103308333D01*
X166528798Y-103317257D01*
X167100226Y-103317257D01*
X167133527Y-103308333D01*
X167167308Y-103301421D01*
X167453022Y-103158564D01*
X167511117Y-103107049D01*
X167535671Y-103033387D01*
X167520104Y-102957318D01*
X167468589Y-102899223D01*
X167394927Y-102874669D01*
X167318858Y-102890236D01*
X167064816Y-103017257D01*
X166564208Y-103017257D01*
X166354886Y-102912596D01*
X166250226Y-102703275D01*
X166250226Y-102290227D01*
X167558215Y-102028629D01*
X167580154Y-102017781D01*
X167603798Y-102011446D01*
X167614390Y-102000853D01*
X167627817Y-101994215D01*
X167641393Y-101973850D01*
X167658702Y-101956542D01*
X167662579Y-101942072D01*
X167670888Y-101929609D01*
X167672463Y-101905184D01*
X167678798Y-101881542D01*
X167678798Y-101595828D01*
X167669875Y-101562529D01*
X167662962Y-101528745D01*
X167520104Y-101243032D01*
X167514018Y-101236169D01*
X167511117Y-101227465D01*
X167488573Y-101207474D01*
X167468588Y-101184937D01*
X167459885Y-101182036D01*
X167453022Y-101175950D01*
X167167308Y-101033093D01*
X167133527Y-101026180D01*
X167100226Y-101017257D01*
X166528798Y-101017257D01*
X166495494Y-101026180D01*
X166461716Y-101033093D01*
X166176001Y-101175950D01*
X166169138Y-101182035D01*
X166160434Y-101184937D01*
X166140446Y-101207477D01*
X166117906Y-101227465D01*
X166115004Y-101236169D01*
X166108919Y-101243032D01*
X165966062Y-101528746D01*
X165959149Y-101562526D01*
X165950226Y-101595828D01*
X165950226Y-102738685D01*
X164839359Y-102738685D01*
X164821654Y-102703275D01*
X164821654Y-100167257D01*
X164801558Y-100092257D01*
X164746654Y-100037353D01*
X164671654Y-100017257D01*
X164596654Y-100037353D01*
X164541750Y-100092257D01*
X164521654Y-100167257D01*
X164521654Y-102738685D01*
X163393083Y-102738685D01*
X163393083Y-101167257D01*
X163372987Y-101092257D01*
X163318083Y-101037353D01*
X163243083Y-101017257D01*
X163168083Y-101037353D01*
X163123045Y-101082390D01*
X163024450Y-101033093D01*
X162990669Y-101026180D01*
X162957368Y-101017257D01*
X162385940Y-101017257D01*
X162352636Y-101026180D01*
X162318858Y-101033093D01*
X162033143Y-101175950D01*
X162015073Y-101191973D01*
X161994159Y-101204048D01*
X161851302Y-101346905D01*
X161839227Y-101367819D01*
X161823204Y-101385889D01*
X161680347Y-101671603D01*
X161673434Y-101705383D01*
X161664511Y-101738685D01*
X161664511Y-102595828D01*
X160678797Y-102595828D01*
X160678797Y-101595828D01*
X160669874Y-101562529D01*
X160662961Y-101528745D01*
X160520103Y-101243032D01*
X160514017Y-101236169D01*
X160511116Y-101227465D01*
X160488572Y-101207474D01*
X160468587Y-101184937D01*
X160459884Y-101182036D01*
X160453021Y-101175950D01*
X160167307Y-101033093D01*
X160133526Y-101026180D01*
X160100225Y-101017257D01*
X159671654Y-101017257D01*
X159638350Y-101026180D01*
X159604572Y-101033093D01*
X159386366Y-101142195D01*
X159372986Y-101092257D01*
X159318082Y-101037353D01*
X159243082Y-101017257D01*
X159168082Y-101037353D01*
X159113178Y-101092257D01*
X159093082Y-101167257D01*
X159093082Y-103167257D01*
X158388232Y-103167257D01*
X158385385Y-103119823D01*
X157385384Y-100119823D01*
X157368788Y-100094687D01*
X157355313Y-100067736D01*
X157347656Y-100062680D01*
X157342603Y-100055027D01*
X157315660Y-100041555D01*
X157290516Y-100024954D01*
X157281358Y-100024404D01*
X157273154Y-100020302D01*
X157243085Y-100022107D01*
X157213010Y-100020302D01*
X157204803Y-100024405D01*
X157195648Y-100024955D01*
X157170512Y-100041550D01*
X157143561Y-100055026D01*
X157138505Y-100062682D01*
X157130852Y-100067736D01*
X157117378Y-100094682D01*
X157100780Y-100119823D01*
X156100780Y-103119823D01*
X156096127Y-103197329D01*
X155667556Y-103197329D01*
X155667556Y-99588686D01*
X168107369Y-99588686D01*
X168107369Y-104745828D01*
G37*
X157885939Y-98167257D02*
X156885939Y-96738685D01*
X156171653Y-98167257D02*
X156171653Y-95167257D01*
X156171653Y-95167257D02*
X157314510Y-95167257D01*
X157314510Y-95167257D02*
X157600225Y-95310114D01*
X157600225Y-95310114D02*
X157743082Y-95452971D01*
X157743082Y-95452971D02*
X157885939Y-95738685D01*
X157885939Y-95738685D02*
X157885939Y-96167257D01*
X157885939Y-96167257D02*
X157743082Y-96452971D01*
X157743082Y-96452971D02*
X157600225Y-96595828D01*
X157600225Y-96595828D02*
X157314510Y-96738685D01*
X157314510Y-96738685D02*
X156171653Y-96738685D01*
X159171653Y-98167257D02*
X159171653Y-96167257D01*
X159171653Y-95167257D02*
X159028796Y-95310114D01*
X159028796Y-95310114D02*
X159171653Y-95452971D01*
X159171653Y-95452971D02*
X159314510Y-95310114D01*
X159314510Y-95310114D02*
X159171653Y-95167257D01*
X159171653Y-95167257D02*
X159171653Y-95452971D01*
X161885939Y-96167257D02*
X161885939Y-98595828D01*
X161885939Y-98595828D02*
X161743081Y-98881542D01*
X161743081Y-98881542D02*
X161600224Y-99024400D01*
X161600224Y-99024400D02*
X161314510Y-99167257D01*
X161314510Y-99167257D02*
X160885939Y-99167257D01*
X160885939Y-99167257D02*
X160600224Y-99024400D01*
X161885939Y-98024400D02*
X161600224Y-98167257D01*
X161600224Y-98167257D02*
X161028796Y-98167257D01*
X161028796Y-98167257D02*
X160743081Y-98024400D01*
X160743081Y-98024400D02*
X160600224Y-97881542D01*
X160600224Y-97881542D02*
X160457367Y-97595828D01*
X160457367Y-97595828D02*
X160457367Y-96738685D01*
X160457367Y-96738685D02*
X160600224Y-96452971D01*
X160600224Y-96452971D02*
X160743081Y-96310114D01*
X160743081Y-96310114D02*
X161028796Y-96167257D01*
X161028796Y-96167257D02*
X161600224Y-96167257D01*
X161600224Y-96167257D02*
X161885939Y-96310114D01*
X163314510Y-98167257D02*
X163314510Y-95167257D01*
X164600225Y-98167257D02*
X164600225Y-96595828D01*
X164600225Y-96595828D02*
X164457367Y-96310114D01*
X164457367Y-96310114D02*
X164171653Y-96167257D01*
X164171653Y-96167257D02*
X163743082Y-96167257D01*
X163743082Y-96167257D02*
X163457367Y-96310114D01*
X163457367Y-96310114D02*
X163314510Y-96452971D01*
X165600225Y-96167257D02*
X166743082Y-96167257D01*
X166028796Y-95167257D02*
X166028796Y-97738685D01*
X166028796Y-97738685D02*
X166171653Y-98024400D01*
X166171653Y-98024400D02*
X166457368Y-98167257D01*
X166457368Y-98167257D02*
X166743082Y-98167257D01*
D11*
X142510000Y-97550000D02*
X142010000Y-97800000D01*
X145760000Y-97550000D02*
X142510000Y-97550000D01*
X146510000Y-97050000D02*
X145760000Y-97550000D01*
X137510000Y-103800000D02*
X138260000Y-103050000D01*
X137010000Y-107300000D02*
X137510000Y-103800000D01*
X134260000Y-108800000D02*
X137010000Y-107300000D01*
X157783333Y-145709580D02*
X157735714Y-145757200D01*
X157735714Y-145757200D02*
X157592857Y-145804819D01*
X157592857Y-145804819D02*
X157497619Y-145804819D01*
X157497619Y-145804819D02*
X157354762Y-145757200D01*
X157354762Y-145757200D02*
X157259524Y-145661961D01*
X157259524Y-145661961D02*
X157211905Y-145566723D01*
X157211905Y-145566723D02*
X157164286Y-145376247D01*
X157164286Y-145376247D02*
X157164286Y-145233390D01*
X157164286Y-145233390D02*
X157211905Y-145042914D01*
X157211905Y-145042914D02*
X157259524Y-144947676D01*
X157259524Y-144947676D02*
X157354762Y-144852438D01*
X157354762Y-144852438D02*
X157497619Y-144804819D01*
X157497619Y-144804819D02*
X157592857Y-144804819D01*
X157592857Y-144804819D02*
X157735714Y-144852438D01*
X157735714Y-144852438D02*
X157783333Y-144900057D01*
X158164286Y-144900057D02*
X158211905Y-144852438D01*
X158211905Y-144852438D02*
X158307143Y-144804819D01*
X158307143Y-144804819D02*
X158545238Y-144804819D01*
X158545238Y-144804819D02*
X158640476Y-144852438D01*
X158640476Y-144852438D02*
X158688095Y-144900057D01*
X158688095Y-144900057D02*
X158735714Y-144995295D01*
X158735714Y-144995295D02*
X158735714Y-145090533D01*
X158735714Y-145090533D02*
X158688095Y-145233390D01*
X158688095Y-145233390D02*
X158116667Y-145804819D01*
X158116667Y-145804819D02*
X158735714Y-145804819D01*
X156902380Y-147304819D02*
X156330952Y-147304819D01*
X156616666Y-147304819D02*
X156616666Y-146304819D01*
X156616666Y-146304819D02*
X156521428Y-146447676D01*
X156521428Y-146447676D02*
X156426190Y-146542914D01*
X156426190Y-146542914D02*
X156330952Y-146590533D01*
X157521428Y-146304819D02*
X157616666Y-146304819D01*
X157616666Y-146304819D02*
X157711904Y-146352438D01*
X157711904Y-146352438D02*
X157759523Y-146400057D01*
X157759523Y-146400057D02*
X157807142Y-146495295D01*
X157807142Y-146495295D02*
X157854761Y-146685771D01*
X157854761Y-146685771D02*
X157854761Y-146923866D01*
X157854761Y-146923866D02*
X157807142Y-147114342D01*
X157807142Y-147114342D02*
X157759523Y-147209580D01*
X157759523Y-147209580D02*
X157711904Y-147257200D01*
X157711904Y-147257200D02*
X157616666Y-147304819D01*
X157616666Y-147304819D02*
X157521428Y-147304819D01*
X157521428Y-147304819D02*
X157426190Y-147257200D01*
X157426190Y-147257200D02*
X157378571Y-147209580D01*
X157378571Y-147209580D02*
X157330952Y-147114342D01*
X157330952Y-147114342D02*
X157283333Y-146923866D01*
X157283333Y-146923866D02*
X157283333Y-146685771D01*
X157283333Y-146685771D02*
X157330952Y-146495295D01*
X157330952Y-146495295D02*
X157378571Y-146400057D01*
X157378571Y-146400057D02*
X157426190Y-146352438D01*
X157426190Y-146352438D02*
X157521428Y-146304819D01*
X158473809Y-146304819D02*
X158569047Y-146304819D01*
X158569047Y-146304819D02*
X158664285Y-146352438D01*
X158664285Y-146352438D02*
X158711904Y-146400057D01*
X158711904Y-146400057D02*
X158759523Y-146495295D01*
X158759523Y-146495295D02*
X158807142Y-146685771D01*
X158807142Y-146685771D02*
X158807142Y-146923866D01*
X158807142Y-146923866D02*
X158759523Y-147114342D01*
X158759523Y-147114342D02*
X158711904Y-147209580D01*
X158711904Y-147209580D02*
X158664285Y-147257200D01*
X158664285Y-147257200D02*
X158569047Y-147304819D01*
X158569047Y-147304819D02*
X158473809Y-147304819D01*
X158473809Y-147304819D02*
X158378571Y-147257200D01*
X158378571Y-147257200D02*
X158330952Y-147209580D01*
X158330952Y-147209580D02*
X158283333Y-147114342D01*
X158283333Y-147114342D02*
X158235714Y-146923866D01*
X158235714Y-146923866D02*
X158235714Y-146685771D01*
X158235714Y-146685771D02*
X158283333Y-146495295D01*
X158283333Y-146495295D02*
X158330952Y-146400057D01*
X158330952Y-146400057D02*
X158378571Y-146352438D01*
X158378571Y-146352438D02*
X158473809Y-146304819D01*
X159664285Y-146638152D02*
X159664285Y-147304819D01*
X159235714Y-146638152D02*
X159235714Y-147161961D01*
X159235714Y-147161961D02*
X159283333Y-147257200D01*
X159283333Y-147257200D02*
X159378571Y-147304819D01*
X159378571Y-147304819D02*
X159521428Y-147304819D01*
X159521428Y-147304819D02*
X159616666Y-147257200D01*
X159616666Y-147257200D02*
X159664285Y-147209580D01*
X160473809Y-146781009D02*
X160140476Y-146781009D01*
X160140476Y-147304819D02*
X160140476Y-146304819D01*
X160140476Y-146304819D02*
X160616666Y-146304819D01*
X132093333Y-105659580D02*
X132045714Y-105707200D01*
X132045714Y-105707200D02*
X131902857Y-105754819D01*
X131902857Y-105754819D02*
X131807619Y-105754819D01*
X131807619Y-105754819D02*
X131664762Y-105707200D01*
X131664762Y-105707200D02*
X131569524Y-105611961D01*
X131569524Y-105611961D02*
X131521905Y-105516723D01*
X131521905Y-105516723D02*
X131474286Y-105326247D01*
X131474286Y-105326247D02*
X131474286Y-105183390D01*
X131474286Y-105183390D02*
X131521905Y-104992914D01*
X131521905Y-104992914D02*
X131569524Y-104897676D01*
X131569524Y-104897676D02*
X131664762Y-104802438D01*
X131664762Y-104802438D02*
X131807619Y-104754819D01*
X131807619Y-104754819D02*
X131902857Y-104754819D01*
X131902857Y-104754819D02*
X132045714Y-104802438D01*
X132045714Y-104802438D02*
X132093333Y-104850057D01*
X132950476Y-105088152D02*
X132950476Y-105754819D01*
X132712381Y-104707200D02*
X132474286Y-105421485D01*
X132474286Y-105421485D02*
X133093333Y-105421485D01*
X153093333Y-80409580D02*
X153045714Y-80457200D01*
X153045714Y-80457200D02*
X152902857Y-80504819D01*
X152902857Y-80504819D02*
X152807619Y-80504819D01*
X152807619Y-80504819D02*
X152664762Y-80457200D01*
X152664762Y-80457200D02*
X152569524Y-80361961D01*
X152569524Y-80361961D02*
X152521905Y-80266723D01*
X152521905Y-80266723D02*
X152474286Y-80076247D01*
X152474286Y-80076247D02*
X152474286Y-79933390D01*
X152474286Y-79933390D02*
X152521905Y-79742914D01*
X152521905Y-79742914D02*
X152569524Y-79647676D01*
X152569524Y-79647676D02*
X152664762Y-79552438D01*
X152664762Y-79552438D02*
X152807619Y-79504819D01*
X152807619Y-79504819D02*
X152902857Y-79504819D01*
X152902857Y-79504819D02*
X153045714Y-79552438D01*
X153045714Y-79552438D02*
X153093333Y-79600057D01*
X153950476Y-79504819D02*
X153760000Y-79504819D01*
X153760000Y-79504819D02*
X153664762Y-79552438D01*
X153664762Y-79552438D02*
X153617143Y-79600057D01*
X153617143Y-79600057D02*
X153521905Y-79742914D01*
X153521905Y-79742914D02*
X153474286Y-79933390D01*
X153474286Y-79933390D02*
X153474286Y-80314342D01*
X153474286Y-80314342D02*
X153521905Y-80409580D01*
X153521905Y-80409580D02*
X153569524Y-80457200D01*
X153569524Y-80457200D02*
X153664762Y-80504819D01*
X153664762Y-80504819D02*
X153855238Y-80504819D01*
X153855238Y-80504819D02*
X153950476Y-80457200D01*
X153950476Y-80457200D02*
X153998095Y-80409580D01*
X153998095Y-80409580D02*
X154045714Y-80314342D01*
X154045714Y-80314342D02*
X154045714Y-80076247D01*
X154045714Y-80076247D02*
X153998095Y-79981009D01*
X153998095Y-79981009D02*
X153950476Y-79933390D01*
X153950476Y-79933390D02*
X153855238Y-79885771D01*
X153855238Y-79885771D02*
X153664762Y-79885771D01*
X153664762Y-79885771D02*
X153569524Y-79933390D01*
X153569524Y-79933390D02*
X153521905Y-79981009D01*
X153521905Y-79981009D02*
X153474286Y-80076247D01*
X136369580Y-79942857D02*
X136417200Y-79990476D01*
X136417200Y-79990476D02*
X136464819Y-80133333D01*
X136464819Y-80133333D02*
X136464819Y-80228571D01*
X136464819Y-80228571D02*
X136417200Y-80371428D01*
X136417200Y-80371428D02*
X136321961Y-80466666D01*
X136321961Y-80466666D02*
X136226723Y-80514285D01*
X136226723Y-80514285D02*
X136036247Y-80561904D01*
X136036247Y-80561904D02*
X135893390Y-80561904D01*
X135893390Y-80561904D02*
X135702914Y-80514285D01*
X135702914Y-80514285D02*
X135607676Y-80466666D01*
X135607676Y-80466666D02*
X135512438Y-80371428D01*
X135512438Y-80371428D02*
X135464819Y-80228571D01*
X135464819Y-80228571D02*
X135464819Y-80133333D01*
X135464819Y-80133333D02*
X135512438Y-79990476D01*
X135512438Y-79990476D02*
X135560057Y-79942857D01*
X136464819Y-78990476D02*
X136464819Y-79561904D01*
X136464819Y-79276190D02*
X135464819Y-79276190D01*
X135464819Y-79276190D02*
X135607676Y-79371428D01*
X135607676Y-79371428D02*
X135702914Y-79466666D01*
X135702914Y-79466666D02*
X135750533Y-79561904D01*
X135464819Y-78371428D02*
X135464819Y-78276190D01*
X135464819Y-78276190D02*
X135512438Y-78180952D01*
X135512438Y-78180952D02*
X135560057Y-78133333D01*
X135560057Y-78133333D02*
X135655295Y-78085714D01*
X135655295Y-78085714D02*
X135845771Y-78038095D01*
X135845771Y-78038095D02*
X136083866Y-78038095D01*
X136083866Y-78038095D02*
X136274342Y-78085714D01*
X136274342Y-78085714D02*
X136369580Y-78133333D01*
X136369580Y-78133333D02*
X136417200Y-78180952D01*
X136417200Y-78180952D02*
X136464819Y-78276190D01*
X136464819Y-78276190D02*
X136464819Y-78371428D01*
X136464819Y-78371428D02*
X136417200Y-78466666D01*
X136417200Y-78466666D02*
X136369580Y-78514285D01*
X136369580Y-78514285D02*
X136274342Y-78561904D01*
X136274342Y-78561904D02*
X136083866Y-78609523D01*
X136083866Y-78609523D02*
X135845771Y-78609523D01*
X135845771Y-78609523D02*
X135655295Y-78561904D01*
X135655295Y-78561904D02*
X135560057Y-78514285D01*
X135560057Y-78514285D02*
X135512438Y-78466666D01*
X135512438Y-78466666D02*
X135464819Y-78371428D01*
X122261905Y-140454819D02*
X122261905Y-139454819D01*
X122261905Y-139454819D02*
X122500000Y-139454819D01*
X122500000Y-139454819D02*
X122642857Y-139502438D01*
X122642857Y-139502438D02*
X122738095Y-139597676D01*
X122738095Y-139597676D02*
X122785714Y-139692914D01*
X122785714Y-139692914D02*
X122833333Y-139883390D01*
X122833333Y-139883390D02*
X122833333Y-140026247D01*
X122833333Y-140026247D02*
X122785714Y-140216723D01*
X122785714Y-140216723D02*
X122738095Y-140311961D01*
X122738095Y-140311961D02*
X122642857Y-140407200D01*
X122642857Y-140407200D02*
X122500000Y-140454819D01*
X122500000Y-140454819D02*
X122261905Y-140454819D01*
X123785714Y-140454819D02*
X123214286Y-140454819D01*
X123500000Y-140454819D02*
X123500000Y-139454819D01*
X123500000Y-139454819D02*
X123404762Y-139597676D01*
X123404762Y-139597676D02*
X123309524Y-139692914D01*
X123309524Y-139692914D02*
X123214286Y-139740533D01*
X156771905Y-57004819D02*
X156771905Y-56004819D01*
X156771905Y-56004819D02*
X157010000Y-56004819D01*
X157010000Y-56004819D02*
X157152857Y-56052438D01*
X157152857Y-56052438D02*
X157248095Y-56147676D01*
X157248095Y-56147676D02*
X157295714Y-56242914D01*
X157295714Y-56242914D02*
X157343333Y-56433390D01*
X157343333Y-56433390D02*
X157343333Y-56576247D01*
X157343333Y-56576247D02*
X157295714Y-56766723D01*
X157295714Y-56766723D02*
X157248095Y-56861961D01*
X157248095Y-56861961D02*
X157152857Y-56957200D01*
X157152857Y-56957200D02*
X157010000Y-57004819D01*
X157010000Y-57004819D02*
X156771905Y-57004819D01*
X157724286Y-56100057D02*
X157771905Y-56052438D01*
X157771905Y-56052438D02*
X157867143Y-56004819D01*
X157867143Y-56004819D02*
X158105238Y-56004819D01*
X158105238Y-56004819D02*
X158200476Y-56052438D01*
X158200476Y-56052438D02*
X158248095Y-56100057D01*
X158248095Y-56100057D02*
X158295714Y-56195295D01*
X158295714Y-56195295D02*
X158295714Y-56290533D01*
X158295714Y-56290533D02*
X158248095Y-56433390D01*
X158248095Y-56433390D02*
X157676667Y-57004819D01*
X157676667Y-57004819D02*
X158295714Y-57004819D01*
X157248095Y-57104819D02*
X157248095Y-56104819D01*
X157819523Y-57104819D02*
X157390952Y-56533390D01*
X157819523Y-56104819D02*
X157248095Y-56676247D01*
X156260000Y-118004819D02*
X156260000Y-117004819D01*
X156736190Y-118004819D02*
X156736190Y-117004819D01*
X156736190Y-117004819D02*
X157307618Y-118004819D01*
X157307618Y-118004819D02*
X157307618Y-117004819D01*
X158307618Y-118004819D02*
X157736190Y-118004819D01*
X158021904Y-118004819D02*
X158021904Y-117004819D01*
X158021904Y-117004819D02*
X157926666Y-117147676D01*
X157926666Y-117147676D02*
X157831428Y-117242914D01*
X157831428Y-117242914D02*
X157736190Y-117290533D01*
X127183809Y-133184819D02*
X127374285Y-133184819D01*
X127374285Y-133184819D02*
X127469523Y-133232438D01*
X127469523Y-133232438D02*
X127564761Y-133327676D01*
X127564761Y-133327676D02*
X127612380Y-133518152D01*
X127612380Y-133518152D02*
X127612380Y-133851485D01*
X127612380Y-133851485D02*
X127564761Y-134041961D01*
X127564761Y-134041961D02*
X127469523Y-134137200D01*
X127469523Y-134137200D02*
X127374285Y-134184819D01*
X127374285Y-134184819D02*
X127183809Y-134184819D01*
X127183809Y-134184819D02*
X127088571Y-134137200D01*
X127088571Y-134137200D02*
X126993333Y-134041961D01*
X126993333Y-134041961D02*
X126945714Y-133851485D01*
X126945714Y-133851485D02*
X126945714Y-133518152D01*
X126945714Y-133518152D02*
X126993333Y-133327676D01*
X126993333Y-133327676D02*
X127088571Y-133232438D01*
X127088571Y-133232438D02*
X127183809Y-133184819D01*
X128040952Y-133184819D02*
X128040952Y-133994342D01*
X128040952Y-133994342D02*
X128088571Y-134089580D01*
X128088571Y-134089580D02*
X128136190Y-134137200D01*
X128136190Y-134137200D02*
X128231428Y-134184819D01*
X128231428Y-134184819D02*
X128421904Y-134184819D01*
X128421904Y-134184819D02*
X128517142Y-134137200D01*
X128517142Y-134137200D02*
X128564761Y-134089580D01*
X128564761Y-134089580D02*
X128612380Y-133994342D01*
X128612380Y-133994342D02*
X128612380Y-133184819D01*
X128945714Y-133184819D02*
X129517142Y-133184819D01*
X129231428Y-134184819D02*
X129231428Y-133184819D01*
X130374285Y-134184819D02*
X129802857Y-134184819D01*
X130088571Y-134184819D02*
X130088571Y-133184819D01*
X130088571Y-133184819D02*
X129993333Y-133327676D01*
X129993333Y-133327676D02*
X129898095Y-133422914D01*
X129898095Y-133422914D02*
X129802857Y-133470533D01*
X145924819Y-117143333D02*
X146639104Y-117143333D01*
X146639104Y-117143333D02*
X146781961Y-117190952D01*
X146781961Y-117190952D02*
X146877200Y-117286190D01*
X146877200Y-117286190D02*
X146924819Y-117429047D01*
X146924819Y-117429047D02*
X146924819Y-117524285D01*
X146258152Y-116238571D02*
X146924819Y-116238571D01*
X145877200Y-116476666D02*
X146591485Y-116714761D01*
X146591485Y-116714761D02*
X146591485Y-116095714D01*
X133810057Y-102395238D02*
X133762438Y-102490476D01*
X133762438Y-102490476D02*
X133667200Y-102585714D01*
X133667200Y-102585714D02*
X133524342Y-102728571D01*
X133524342Y-102728571D02*
X133476723Y-102823809D01*
X133476723Y-102823809D02*
X133476723Y-102919047D01*
X133714819Y-102871428D02*
X133667200Y-102966666D01*
X133667200Y-102966666D02*
X133571961Y-103061904D01*
X133571961Y-103061904D02*
X133381485Y-103109523D01*
X133381485Y-103109523D02*
X133048152Y-103109523D01*
X133048152Y-103109523D02*
X132857676Y-103061904D01*
X132857676Y-103061904D02*
X132762438Y-102966666D01*
X132762438Y-102966666D02*
X132714819Y-102871428D01*
X132714819Y-102871428D02*
X132714819Y-102680952D01*
X132714819Y-102680952D02*
X132762438Y-102585714D01*
X132762438Y-102585714D02*
X132857676Y-102490476D01*
X132857676Y-102490476D02*
X133048152Y-102442857D01*
X133048152Y-102442857D02*
X133381485Y-102442857D01*
X133381485Y-102442857D02*
X133571961Y-102490476D01*
X133571961Y-102490476D02*
X133667200Y-102585714D01*
X133667200Y-102585714D02*
X133714819Y-102680952D01*
X133714819Y-102680952D02*
X133714819Y-102871428D01*
X133714819Y-101490476D02*
X133714819Y-102061904D01*
X133714819Y-101776190D02*
X132714819Y-101776190D01*
X132714819Y-101776190D02*
X132857676Y-101871428D01*
X132857676Y-101871428D02*
X132952914Y-101966666D01*
X132952914Y-101966666D02*
X133000533Y-102061904D01*
X128914761Y-84600057D02*
X128819523Y-84552438D01*
X128819523Y-84552438D02*
X128724285Y-84457200D01*
X128724285Y-84457200D02*
X128581428Y-84314342D01*
X128581428Y-84314342D02*
X128486190Y-84266723D01*
X128486190Y-84266723D02*
X128390952Y-84266723D01*
X128438571Y-84504819D02*
X128343333Y-84457200D01*
X128343333Y-84457200D02*
X128248095Y-84361961D01*
X128248095Y-84361961D02*
X128200476Y-84171485D01*
X128200476Y-84171485D02*
X128200476Y-83838152D01*
X128200476Y-83838152D02*
X128248095Y-83647676D01*
X128248095Y-83647676D02*
X128343333Y-83552438D01*
X128343333Y-83552438D02*
X128438571Y-83504819D01*
X128438571Y-83504819D02*
X128629047Y-83504819D01*
X128629047Y-83504819D02*
X128724285Y-83552438D01*
X128724285Y-83552438D02*
X128819523Y-83647676D01*
X128819523Y-83647676D02*
X128867142Y-83838152D01*
X128867142Y-83838152D02*
X128867142Y-84171485D01*
X128867142Y-84171485D02*
X128819523Y-84361961D01*
X128819523Y-84361961D02*
X128724285Y-84457200D01*
X128724285Y-84457200D02*
X128629047Y-84504819D01*
X128629047Y-84504819D02*
X128438571Y-84504819D01*
X129200476Y-83504819D02*
X129819523Y-83504819D01*
X129819523Y-83504819D02*
X129486190Y-83885771D01*
X129486190Y-83885771D02*
X129629047Y-83885771D01*
X129629047Y-83885771D02*
X129724285Y-83933390D01*
X129724285Y-83933390D02*
X129771904Y-83981009D01*
X129771904Y-83981009D02*
X129819523Y-84076247D01*
X129819523Y-84076247D02*
X129819523Y-84314342D01*
X129819523Y-84314342D02*
X129771904Y-84409580D01*
X129771904Y-84409580D02*
X129724285Y-84457200D01*
X129724285Y-84457200D02*
X129629047Y-84504819D01*
X129629047Y-84504819D02*
X129343333Y-84504819D01*
X129343333Y-84504819D02*
X129248095Y-84457200D01*
X129248095Y-84457200D02*
X129200476Y-84409580D01*
X157604819Y-143716666D02*
X157128628Y-144049999D01*
X157604819Y-144288094D02*
X156604819Y-144288094D01*
X156604819Y-144288094D02*
X156604819Y-143907142D01*
X156604819Y-143907142D02*
X156652438Y-143811904D01*
X156652438Y-143811904D02*
X156700057Y-143764285D01*
X156700057Y-143764285D02*
X156795295Y-143716666D01*
X156795295Y-143716666D02*
X156938152Y-143716666D01*
X156938152Y-143716666D02*
X157033390Y-143764285D01*
X157033390Y-143764285D02*
X157081009Y-143811904D01*
X157081009Y-143811904D02*
X157128628Y-143907142D01*
X157128628Y-143907142D02*
X157128628Y-144288094D01*
X157604819Y-142764285D02*
X157604819Y-143335713D01*
X157604819Y-143049999D02*
X156604819Y-143049999D01*
X156604819Y-143049999D02*
X156747676Y-143145237D01*
X156747676Y-143145237D02*
X156842914Y-143240475D01*
X156842914Y-143240475D02*
X156890533Y-143335713D01*
X126843333Y-137604819D02*
X126510000Y-137128628D01*
X126271905Y-137604819D02*
X126271905Y-136604819D01*
X126271905Y-136604819D02*
X126652857Y-136604819D01*
X126652857Y-136604819D02*
X126748095Y-136652438D01*
X126748095Y-136652438D02*
X126795714Y-136700057D01*
X126795714Y-136700057D02*
X126843333Y-136795295D01*
X126843333Y-136795295D02*
X126843333Y-136938152D01*
X126843333Y-136938152D02*
X126795714Y-137033390D01*
X126795714Y-137033390D02*
X126748095Y-137081009D01*
X126748095Y-137081009D02*
X126652857Y-137128628D01*
X126652857Y-137128628D02*
X126271905Y-137128628D01*
X127224286Y-136700057D02*
X127271905Y-136652438D01*
X127271905Y-136652438D02*
X127367143Y-136604819D01*
X127367143Y-136604819D02*
X127605238Y-136604819D01*
X127605238Y-136604819D02*
X127700476Y-136652438D01*
X127700476Y-136652438D02*
X127748095Y-136700057D01*
X127748095Y-136700057D02*
X127795714Y-136795295D01*
X127795714Y-136795295D02*
X127795714Y-136890533D01*
X127795714Y-136890533D02*
X127748095Y-137033390D01*
X127748095Y-137033390D02*
X127176667Y-137604819D01*
X127176667Y-137604819D02*
X127795714Y-137604819D01*
X133114819Y-136304166D02*
X132638628Y-136637499D01*
X133114819Y-136875594D02*
X132114819Y-136875594D01*
X132114819Y-136875594D02*
X132114819Y-136494642D01*
X132114819Y-136494642D02*
X132162438Y-136399404D01*
X132162438Y-136399404D02*
X132210057Y-136351785D01*
X132210057Y-136351785D02*
X132305295Y-136304166D01*
X132305295Y-136304166D02*
X132448152Y-136304166D01*
X132448152Y-136304166D02*
X132543390Y-136351785D01*
X132543390Y-136351785D02*
X132591009Y-136399404D01*
X132591009Y-136399404D02*
X132638628Y-136494642D01*
X132638628Y-136494642D02*
X132638628Y-136875594D01*
X132114819Y-135970832D02*
X132114819Y-135351785D01*
X132114819Y-135351785D02*
X132495771Y-135685118D01*
X132495771Y-135685118D02*
X132495771Y-135542261D01*
X132495771Y-135542261D02*
X132543390Y-135447023D01*
X132543390Y-135447023D02*
X132591009Y-135399404D01*
X132591009Y-135399404D02*
X132686247Y-135351785D01*
X132686247Y-135351785D02*
X132924342Y-135351785D01*
X132924342Y-135351785D02*
X133019580Y-135399404D01*
X133019580Y-135399404D02*
X133067200Y-135447023D01*
X133067200Y-135447023D02*
X133114819Y-135542261D01*
X133114819Y-135542261D02*
X133114819Y-135827975D01*
X133114819Y-135827975D02*
X133067200Y-135923213D01*
X133067200Y-135923213D02*
X133019580Y-135970832D01*
X122714819Y-70942857D02*
X122238628Y-71276190D01*
X122714819Y-71514285D02*
X121714819Y-71514285D01*
X121714819Y-71514285D02*
X121714819Y-71133333D01*
X121714819Y-71133333D02*
X121762438Y-71038095D01*
X121762438Y-71038095D02*
X121810057Y-70990476D01*
X121810057Y-70990476D02*
X121905295Y-70942857D01*
X121905295Y-70942857D02*
X122048152Y-70942857D01*
X122048152Y-70942857D02*
X122143390Y-70990476D01*
X122143390Y-70990476D02*
X122191009Y-71038095D01*
X122191009Y-71038095D02*
X122238628Y-71133333D01*
X122238628Y-71133333D02*
X122238628Y-71514285D01*
X121810057Y-70561904D02*
X121762438Y-70514285D01*
X121762438Y-70514285D02*
X121714819Y-70419047D01*
X121714819Y-70419047D02*
X121714819Y-70180952D01*
X121714819Y-70180952D02*
X121762438Y-70085714D01*
X121762438Y-70085714D02*
X121810057Y-70038095D01*
X121810057Y-70038095D02*
X121905295Y-69990476D01*
X121905295Y-69990476D02*
X122000533Y-69990476D01*
X122000533Y-69990476D02*
X122143390Y-70038095D01*
X122143390Y-70038095D02*
X122714819Y-70609523D01*
X122714819Y-70609523D02*
X122714819Y-69990476D01*
X122143390Y-69419047D02*
X122095771Y-69514285D01*
X122095771Y-69514285D02*
X122048152Y-69561904D01*
X122048152Y-69561904D02*
X121952914Y-69609523D01*
X121952914Y-69609523D02*
X121905295Y-69609523D01*
X121905295Y-69609523D02*
X121810057Y-69561904D01*
X121810057Y-69561904D02*
X121762438Y-69514285D01*
X121762438Y-69514285D02*
X121714819Y-69419047D01*
X121714819Y-69419047D02*
X121714819Y-69228571D01*
X121714819Y-69228571D02*
X121762438Y-69133333D01*
X121762438Y-69133333D02*
X121810057Y-69085714D01*
X121810057Y-69085714D02*
X121905295Y-69038095D01*
X121905295Y-69038095D02*
X121952914Y-69038095D01*
X121952914Y-69038095D02*
X122048152Y-69085714D01*
X122048152Y-69085714D02*
X122095771Y-69133333D01*
X122095771Y-69133333D02*
X122143390Y-69228571D01*
X122143390Y-69228571D02*
X122143390Y-69419047D01*
X122143390Y-69419047D02*
X122191009Y-69514285D01*
X122191009Y-69514285D02*
X122238628Y-69561904D01*
X122238628Y-69561904D02*
X122333866Y-69609523D01*
X122333866Y-69609523D02*
X122524342Y-69609523D01*
X122524342Y-69609523D02*
X122619580Y-69561904D01*
X122619580Y-69561904D02*
X122667200Y-69514285D01*
X122667200Y-69514285D02*
X122714819Y-69419047D01*
X122714819Y-69419047D02*
X122714819Y-69228571D01*
X122714819Y-69228571D02*
X122667200Y-69133333D01*
X122667200Y-69133333D02*
X122619580Y-69085714D01*
X122619580Y-69085714D02*
X122524342Y-69038095D01*
X122524342Y-69038095D02*
X122333866Y-69038095D01*
X122333866Y-69038095D02*
X122238628Y-69085714D01*
X122238628Y-69085714D02*
X122191009Y-69133333D01*
X122191009Y-69133333D02*
X122143390Y-69228571D01*
X156617142Y-58904819D02*
X156283809Y-58428628D01*
X156045714Y-58904819D02*
X156045714Y-57904819D01*
X156045714Y-57904819D02*
X156426666Y-57904819D01*
X156426666Y-57904819D02*
X156521904Y-57952438D01*
X156521904Y-57952438D02*
X156569523Y-58000057D01*
X156569523Y-58000057D02*
X156617142Y-58095295D01*
X156617142Y-58095295D02*
X156617142Y-58238152D01*
X156617142Y-58238152D02*
X156569523Y-58333390D01*
X156569523Y-58333390D02*
X156521904Y-58381009D01*
X156521904Y-58381009D02*
X156426666Y-58428628D01*
X156426666Y-58428628D02*
X156045714Y-58428628D01*
X156998095Y-58000057D02*
X157045714Y-57952438D01*
X157045714Y-57952438D02*
X157140952Y-57904819D01*
X157140952Y-57904819D02*
X157379047Y-57904819D01*
X157379047Y-57904819D02*
X157474285Y-57952438D01*
X157474285Y-57952438D02*
X157521904Y-58000057D01*
X157521904Y-58000057D02*
X157569523Y-58095295D01*
X157569523Y-58095295D02*
X157569523Y-58190533D01*
X157569523Y-58190533D02*
X157521904Y-58333390D01*
X157521904Y-58333390D02*
X156950476Y-58904819D01*
X156950476Y-58904819D02*
X157569523Y-58904819D01*
X158045714Y-58904819D02*
X158236190Y-58904819D01*
X158236190Y-58904819D02*
X158331428Y-58857200D01*
X158331428Y-58857200D02*
X158379047Y-58809580D01*
X158379047Y-58809580D02*
X158474285Y-58666723D01*
X158474285Y-58666723D02*
X158521904Y-58476247D01*
X158521904Y-58476247D02*
X158521904Y-58095295D01*
X158521904Y-58095295D02*
X158474285Y-58000057D01*
X158474285Y-58000057D02*
X158426666Y-57952438D01*
X158426666Y-57952438D02*
X158331428Y-57904819D01*
X158331428Y-57904819D02*
X158140952Y-57904819D01*
X158140952Y-57904819D02*
X158045714Y-57952438D01*
X158045714Y-57952438D02*
X157998095Y-58000057D01*
X157998095Y-58000057D02*
X157950476Y-58095295D01*
X157950476Y-58095295D02*
X157950476Y-58333390D01*
X157950476Y-58333390D02*
X157998095Y-58428628D01*
X157998095Y-58428628D02*
X158045714Y-58476247D01*
X158045714Y-58476247D02*
X158140952Y-58523866D01*
X158140952Y-58523866D02*
X158331428Y-58523866D01*
X158331428Y-58523866D02*
X158426666Y-58476247D01*
X158426666Y-58476247D02*
X158474285Y-58428628D01*
X158474285Y-58428628D02*
X158521904Y-58333390D01*
X149617142Y-70754819D02*
X149283809Y-70278628D01*
X149045714Y-70754819D02*
X149045714Y-69754819D01*
X149045714Y-69754819D02*
X149426666Y-69754819D01*
X149426666Y-69754819D02*
X149521904Y-69802438D01*
X149521904Y-69802438D02*
X149569523Y-69850057D01*
X149569523Y-69850057D02*
X149617142Y-69945295D01*
X149617142Y-69945295D02*
X149617142Y-70088152D01*
X149617142Y-70088152D02*
X149569523Y-70183390D01*
X149569523Y-70183390D02*
X149521904Y-70231009D01*
X149521904Y-70231009D02*
X149426666Y-70278628D01*
X149426666Y-70278628D02*
X149045714Y-70278628D01*
X149950476Y-69754819D02*
X150569523Y-69754819D01*
X150569523Y-69754819D02*
X150236190Y-70135771D01*
X150236190Y-70135771D02*
X150379047Y-70135771D01*
X150379047Y-70135771D02*
X150474285Y-70183390D01*
X150474285Y-70183390D02*
X150521904Y-70231009D01*
X150521904Y-70231009D02*
X150569523Y-70326247D01*
X150569523Y-70326247D02*
X150569523Y-70564342D01*
X150569523Y-70564342D02*
X150521904Y-70659580D01*
X150521904Y-70659580D02*
X150474285Y-70707200D01*
X150474285Y-70707200D02*
X150379047Y-70754819D01*
X150379047Y-70754819D02*
X150093333Y-70754819D01*
X150093333Y-70754819D02*
X149998095Y-70707200D01*
X149998095Y-70707200D02*
X149950476Y-70659580D01*
X151188571Y-69754819D02*
X151283809Y-69754819D01*
X151283809Y-69754819D02*
X151379047Y-69802438D01*
X151379047Y-69802438D02*
X151426666Y-69850057D01*
X151426666Y-69850057D02*
X151474285Y-69945295D01*
X151474285Y-69945295D02*
X151521904Y-70135771D01*
X151521904Y-70135771D02*
X151521904Y-70373866D01*
X151521904Y-70373866D02*
X151474285Y-70564342D01*
X151474285Y-70564342D02*
X151426666Y-70659580D01*
X151426666Y-70659580D02*
X151379047Y-70707200D01*
X151379047Y-70707200D02*
X151283809Y-70754819D01*
X151283809Y-70754819D02*
X151188571Y-70754819D01*
X151188571Y-70754819D02*
X151093333Y-70707200D01*
X151093333Y-70707200D02*
X151045714Y-70659580D01*
X151045714Y-70659580D02*
X150998095Y-70564342D01*
X150998095Y-70564342D02*
X150950476Y-70373866D01*
X150950476Y-70373866D02*
X150950476Y-70135771D01*
X150950476Y-70135771D02*
X150998095Y-69945295D01*
X150998095Y-69945295D02*
X151045714Y-69850057D01*
X151045714Y-69850057D02*
X151093333Y-69802438D01*
X151093333Y-69802438D02*
X151188571Y-69754819D01*
X162619580Y-76192857D02*
X162667200Y-76240476D01*
X162667200Y-76240476D02*
X162714819Y-76383333D01*
X162714819Y-76383333D02*
X162714819Y-76478571D01*
X162714819Y-76478571D02*
X162667200Y-76621428D01*
X162667200Y-76621428D02*
X162571961Y-76716666D01*
X162571961Y-76716666D02*
X162476723Y-76764285D01*
X162476723Y-76764285D02*
X162286247Y-76811904D01*
X162286247Y-76811904D02*
X162143390Y-76811904D01*
X162143390Y-76811904D02*
X161952914Y-76764285D01*
X161952914Y-76764285D02*
X161857676Y-76716666D01*
X161857676Y-76716666D02*
X161762438Y-76621428D01*
X161762438Y-76621428D02*
X161714819Y-76478571D01*
X161714819Y-76478571D02*
X161714819Y-76383333D01*
X161714819Y-76383333D02*
X161762438Y-76240476D01*
X161762438Y-76240476D02*
X161810057Y-76192857D01*
X162714819Y-75240476D02*
X162714819Y-75811904D01*
X162714819Y-75526190D02*
X161714819Y-75526190D01*
X161714819Y-75526190D02*
X161857676Y-75621428D01*
X161857676Y-75621428D02*
X161952914Y-75716666D01*
X161952914Y-75716666D02*
X162000533Y-75811904D01*
X162048152Y-74383333D02*
X162714819Y-74383333D01*
X161667200Y-74621428D02*
X162381485Y-74859523D01*
X162381485Y-74859523D02*
X162381485Y-74240476D01*
X157964819Y-62347619D02*
X157488628Y-62680952D01*
X157964819Y-62919047D02*
X156964819Y-62919047D01*
X156964819Y-62919047D02*
X156964819Y-62538095D01*
X156964819Y-62538095D02*
X157012438Y-62442857D01*
X157012438Y-62442857D02*
X157060057Y-62395238D01*
X157060057Y-62395238D02*
X157155295Y-62347619D01*
X157155295Y-62347619D02*
X157298152Y-62347619D01*
X157298152Y-62347619D02*
X157393390Y-62395238D01*
X157393390Y-62395238D02*
X157441009Y-62442857D01*
X157441009Y-62442857D02*
X157488628Y-62538095D01*
X157488628Y-62538095D02*
X157488628Y-62919047D01*
X156964819Y-62061904D02*
X156964819Y-61490476D01*
X157964819Y-61776190D02*
X156964819Y-61776190D01*
X157964819Y-60633333D02*
X157964819Y-61204761D01*
X157964819Y-60919047D02*
X156964819Y-60919047D01*
X156964819Y-60919047D02*
X157107676Y-61014285D01*
X157107676Y-61014285D02*
X157202914Y-61109523D01*
X157202914Y-61109523D02*
X157250533Y-61204761D01*
X127814819Y-71811904D02*
X128624342Y-71811904D01*
X128624342Y-71811904D02*
X128719580Y-71764285D01*
X128719580Y-71764285D02*
X128767200Y-71716666D01*
X128767200Y-71716666D02*
X128814819Y-71621428D01*
X128814819Y-71621428D02*
X128814819Y-71430952D01*
X128814819Y-71430952D02*
X128767200Y-71335714D01*
X128767200Y-71335714D02*
X128719580Y-71288095D01*
X128719580Y-71288095D02*
X128624342Y-71240476D01*
X128624342Y-71240476D02*
X127814819Y-71240476D01*
X127814819Y-70859523D02*
X127814819Y-70240476D01*
X127814819Y-70240476D02*
X128195771Y-70573809D01*
X128195771Y-70573809D02*
X128195771Y-70430952D01*
X128195771Y-70430952D02*
X128243390Y-70335714D01*
X128243390Y-70335714D02*
X128291009Y-70288095D01*
X128291009Y-70288095D02*
X128386247Y-70240476D01*
X128386247Y-70240476D02*
X128624342Y-70240476D01*
X128624342Y-70240476D02*
X128719580Y-70288095D01*
X128719580Y-70288095D02*
X128767200Y-70335714D01*
X128767200Y-70335714D02*
X128814819Y-70430952D01*
X128814819Y-70430952D02*
X128814819Y-70716666D01*
X128814819Y-70716666D02*
X128767200Y-70811904D01*
X128767200Y-70811904D02*
X128719580Y-70859523D01*
X130964819Y-92811904D02*
X131774342Y-92811904D01*
X131774342Y-92811904D02*
X131869580Y-92764285D01*
X131869580Y-92764285D02*
X131917200Y-92716666D01*
X131917200Y-92716666D02*
X131964819Y-92621428D01*
X131964819Y-92621428D02*
X131964819Y-92430952D01*
X131964819Y-92430952D02*
X131917200Y-92335714D01*
X131917200Y-92335714D02*
X131869580Y-92288095D01*
X131869580Y-92288095D02*
X131774342Y-92240476D01*
X131774342Y-92240476D02*
X130964819Y-92240476D01*
X131060057Y-91811904D02*
X131012438Y-91764285D01*
X131012438Y-91764285D02*
X130964819Y-91669047D01*
X130964819Y-91669047D02*
X130964819Y-91430952D01*
X130964819Y-91430952D02*
X131012438Y-91335714D01*
X131012438Y-91335714D02*
X131060057Y-91288095D01*
X131060057Y-91288095D02*
X131155295Y-91240476D01*
X131155295Y-91240476D02*
X131250533Y-91240476D01*
X131250533Y-91240476D02*
X131393390Y-91288095D01*
X131393390Y-91288095D02*
X131964819Y-91859523D01*
X131964819Y-91859523D02*
X131964819Y-91240476D01*
X142214819Y-94561904D02*
X143024342Y-94561904D01*
X143024342Y-94561904D02*
X143119580Y-94514285D01*
X143119580Y-94514285D02*
X143167200Y-94466666D01*
X143167200Y-94466666D02*
X143214819Y-94371428D01*
X143214819Y-94371428D02*
X143214819Y-94180952D01*
X143214819Y-94180952D02*
X143167200Y-94085714D01*
X143167200Y-94085714D02*
X143119580Y-94038095D01*
X143119580Y-94038095D02*
X143024342Y-93990476D01*
X143024342Y-93990476D02*
X142214819Y-93990476D01*
X143214819Y-92990476D02*
X143214819Y-93561904D01*
X143214819Y-93276190D02*
X142214819Y-93276190D01*
X142214819Y-93276190D02*
X142357676Y-93371428D01*
X142357676Y-93371428D02*
X142452914Y-93466666D01*
X142452914Y-93466666D02*
X142500533Y-93561904D01*
X134617142Y-64754819D02*
X134283809Y-64278628D01*
X134045714Y-64754819D02*
X134045714Y-63754819D01*
X134045714Y-63754819D02*
X134426666Y-63754819D01*
X134426666Y-63754819D02*
X134521904Y-63802438D01*
X134521904Y-63802438D02*
X134569523Y-63850057D01*
X134569523Y-63850057D02*
X134617142Y-63945295D01*
X134617142Y-63945295D02*
X134617142Y-64088152D01*
X134617142Y-64088152D02*
X134569523Y-64183390D01*
X134569523Y-64183390D02*
X134521904Y-64231009D01*
X134521904Y-64231009D02*
X134426666Y-64278628D01*
X134426666Y-64278628D02*
X134045714Y-64278628D01*
X134998095Y-63850057D02*
X135045714Y-63802438D01*
X135045714Y-63802438D02*
X135140952Y-63754819D01*
X135140952Y-63754819D02*
X135379047Y-63754819D01*
X135379047Y-63754819D02*
X135474285Y-63802438D01*
X135474285Y-63802438D02*
X135521904Y-63850057D01*
X135521904Y-63850057D02*
X135569523Y-63945295D01*
X135569523Y-63945295D02*
X135569523Y-64040533D01*
X135569523Y-64040533D02*
X135521904Y-64183390D01*
X135521904Y-64183390D02*
X134950476Y-64754819D01*
X134950476Y-64754819D02*
X135569523Y-64754819D01*
X135902857Y-63754819D02*
X136569523Y-63754819D01*
X136569523Y-63754819D02*
X136140952Y-64754819D01*
X139293762Y-68492900D02*
X138721343Y-68391885D01*
X138889701Y-68896961D02*
X138182595Y-68189854D01*
X138182595Y-68189854D02*
X138451969Y-67920480D01*
X138451969Y-67920480D02*
X138552984Y-67886808D01*
X138552984Y-67886808D02*
X138620327Y-67886808D01*
X138620327Y-67886808D02*
X138721343Y-67920480D01*
X138721343Y-67920480D02*
X138822358Y-68021495D01*
X138822358Y-68021495D02*
X138856030Y-68122511D01*
X138856030Y-68122511D02*
X138856030Y-68189854D01*
X138856030Y-68189854D02*
X138822358Y-68290869D01*
X138822358Y-68290869D02*
X138552984Y-68560243D01*
X138923373Y-67583763D02*
X138923373Y-67516419D01*
X138923373Y-67516419D02*
X138957045Y-67415404D01*
X138957045Y-67415404D02*
X139125404Y-67247045D01*
X139125404Y-67247045D02*
X139226419Y-67213373D01*
X139226419Y-67213373D02*
X139293762Y-67213373D01*
X139293762Y-67213373D02*
X139394778Y-67247045D01*
X139394778Y-67247045D02*
X139462121Y-67314389D01*
X139462121Y-67314389D02*
X139529465Y-67449076D01*
X139529465Y-67449076D02*
X139529465Y-68257198D01*
X139529465Y-68257198D02*
X139967197Y-67819465D01*
X139866182Y-66506266D02*
X139731495Y-66640953D01*
X139731495Y-66640953D02*
X139697824Y-66741969D01*
X139697824Y-66741969D02*
X139697824Y-66809312D01*
X139697824Y-66809312D02*
X139731495Y-66977671D01*
X139731495Y-66977671D02*
X139832511Y-67146030D01*
X139832511Y-67146030D02*
X140101885Y-67415404D01*
X140101885Y-67415404D02*
X140202900Y-67449075D01*
X140202900Y-67449075D02*
X140270243Y-67449075D01*
X140270243Y-67449075D02*
X140371259Y-67415404D01*
X140371259Y-67415404D02*
X140505946Y-67280717D01*
X140505946Y-67280717D02*
X140539617Y-67179701D01*
X140539617Y-67179701D02*
X140539617Y-67112358D01*
X140539617Y-67112358D02*
X140505946Y-67011343D01*
X140505946Y-67011343D02*
X140337587Y-66842984D01*
X140337587Y-66842984D02*
X140236572Y-66809312D01*
X140236572Y-66809312D02*
X140169228Y-66809312D01*
X140169228Y-66809312D02*
X140068213Y-66842984D01*
X140068213Y-66842984D02*
X139933526Y-66977671D01*
X139933526Y-66977671D02*
X139899854Y-67078686D01*
X139899854Y-67078686D02*
X139899854Y-67146030D01*
X139899854Y-67146030D02*
X139933526Y-67247045D01*
X125117142Y-66254819D02*
X124783809Y-65778628D01*
X124545714Y-66254819D02*
X124545714Y-65254819D01*
X124545714Y-65254819D02*
X124926666Y-65254819D01*
X124926666Y-65254819D02*
X125021904Y-65302438D01*
X125021904Y-65302438D02*
X125069523Y-65350057D01*
X125069523Y-65350057D02*
X125117142Y-65445295D01*
X125117142Y-65445295D02*
X125117142Y-65588152D01*
X125117142Y-65588152D02*
X125069523Y-65683390D01*
X125069523Y-65683390D02*
X125021904Y-65731009D01*
X125021904Y-65731009D02*
X124926666Y-65778628D01*
X124926666Y-65778628D02*
X124545714Y-65778628D01*
X125498095Y-65350057D02*
X125545714Y-65302438D01*
X125545714Y-65302438D02*
X125640952Y-65254819D01*
X125640952Y-65254819D02*
X125879047Y-65254819D01*
X125879047Y-65254819D02*
X125974285Y-65302438D01*
X125974285Y-65302438D02*
X126021904Y-65350057D01*
X126021904Y-65350057D02*
X126069523Y-65445295D01*
X126069523Y-65445295D02*
X126069523Y-65540533D01*
X126069523Y-65540533D02*
X126021904Y-65683390D01*
X126021904Y-65683390D02*
X125450476Y-66254819D01*
X125450476Y-66254819D02*
X126069523Y-66254819D01*
X126974285Y-65254819D02*
X126498095Y-65254819D01*
X126498095Y-65254819D02*
X126450476Y-65731009D01*
X126450476Y-65731009D02*
X126498095Y-65683390D01*
X126498095Y-65683390D02*
X126593333Y-65635771D01*
X126593333Y-65635771D02*
X126831428Y-65635771D01*
X126831428Y-65635771D02*
X126926666Y-65683390D01*
X126926666Y-65683390D02*
X126974285Y-65731009D01*
X126974285Y-65731009D02*
X127021904Y-65826247D01*
X127021904Y-65826247D02*
X127021904Y-66064342D01*
X127021904Y-66064342D02*
X126974285Y-66159580D01*
X126974285Y-66159580D02*
X126926666Y-66207200D01*
X126926666Y-66207200D02*
X126831428Y-66254819D01*
X126831428Y-66254819D02*
X126593333Y-66254819D01*
X126593333Y-66254819D02*
X126498095Y-66207200D01*
X126498095Y-66207200D02*
X126450476Y-66159580D01*
X126464819Y-70192857D02*
X125988628Y-70526190D01*
X126464819Y-70764285D02*
X125464819Y-70764285D01*
X125464819Y-70764285D02*
X125464819Y-70383333D01*
X125464819Y-70383333D02*
X125512438Y-70288095D01*
X125512438Y-70288095D02*
X125560057Y-70240476D01*
X125560057Y-70240476D02*
X125655295Y-70192857D01*
X125655295Y-70192857D02*
X125798152Y-70192857D01*
X125798152Y-70192857D02*
X125893390Y-70240476D01*
X125893390Y-70240476D02*
X125941009Y-70288095D01*
X125941009Y-70288095D02*
X125988628Y-70383333D01*
X125988628Y-70383333D02*
X125988628Y-70764285D01*
X125560057Y-69811904D02*
X125512438Y-69764285D01*
X125512438Y-69764285D02*
X125464819Y-69669047D01*
X125464819Y-69669047D02*
X125464819Y-69430952D01*
X125464819Y-69430952D02*
X125512438Y-69335714D01*
X125512438Y-69335714D02*
X125560057Y-69288095D01*
X125560057Y-69288095D02*
X125655295Y-69240476D01*
X125655295Y-69240476D02*
X125750533Y-69240476D01*
X125750533Y-69240476D02*
X125893390Y-69288095D01*
X125893390Y-69288095D02*
X126464819Y-69859523D01*
X126464819Y-69859523D02*
X126464819Y-69240476D01*
X125798152Y-68383333D02*
X126464819Y-68383333D01*
X125417200Y-68621428D02*
X126131485Y-68859523D01*
X126131485Y-68859523D02*
X126131485Y-68240476D01*
X133867142Y-77254819D02*
X133533809Y-76778628D01*
X133295714Y-77254819D02*
X133295714Y-76254819D01*
X133295714Y-76254819D02*
X133676666Y-76254819D01*
X133676666Y-76254819D02*
X133771904Y-76302438D01*
X133771904Y-76302438D02*
X133819523Y-76350057D01*
X133819523Y-76350057D02*
X133867142Y-76445295D01*
X133867142Y-76445295D02*
X133867142Y-76588152D01*
X133867142Y-76588152D02*
X133819523Y-76683390D01*
X133819523Y-76683390D02*
X133771904Y-76731009D01*
X133771904Y-76731009D02*
X133676666Y-76778628D01*
X133676666Y-76778628D02*
X133295714Y-76778628D01*
X134248095Y-76350057D02*
X134295714Y-76302438D01*
X134295714Y-76302438D02*
X134390952Y-76254819D01*
X134390952Y-76254819D02*
X134629047Y-76254819D01*
X134629047Y-76254819D02*
X134724285Y-76302438D01*
X134724285Y-76302438D02*
X134771904Y-76350057D01*
X134771904Y-76350057D02*
X134819523Y-76445295D01*
X134819523Y-76445295D02*
X134819523Y-76540533D01*
X134819523Y-76540533D02*
X134771904Y-76683390D01*
X134771904Y-76683390D02*
X134200476Y-77254819D01*
X134200476Y-77254819D02*
X134819523Y-77254819D01*
X135152857Y-76254819D02*
X135771904Y-76254819D01*
X135771904Y-76254819D02*
X135438571Y-76635771D01*
X135438571Y-76635771D02*
X135581428Y-76635771D01*
X135581428Y-76635771D02*
X135676666Y-76683390D01*
X135676666Y-76683390D02*
X135724285Y-76731009D01*
X135724285Y-76731009D02*
X135771904Y-76826247D01*
X135771904Y-76826247D02*
X135771904Y-77064342D01*
X135771904Y-77064342D02*
X135724285Y-77159580D01*
X135724285Y-77159580D02*
X135676666Y-77207200D01*
X135676666Y-77207200D02*
X135581428Y-77254819D01*
X135581428Y-77254819D02*
X135295714Y-77254819D01*
X135295714Y-77254819D02*
X135200476Y-77207200D01*
X135200476Y-77207200D02*
X135152857Y-77159580D01*
X122867142Y-77254819D02*
X122533809Y-76778628D01*
X122295714Y-77254819D02*
X122295714Y-76254819D01*
X122295714Y-76254819D02*
X122676666Y-76254819D01*
X122676666Y-76254819D02*
X122771904Y-76302438D01*
X122771904Y-76302438D02*
X122819523Y-76350057D01*
X122819523Y-76350057D02*
X122867142Y-76445295D01*
X122867142Y-76445295D02*
X122867142Y-76588152D01*
X122867142Y-76588152D02*
X122819523Y-76683390D01*
X122819523Y-76683390D02*
X122771904Y-76731009D01*
X122771904Y-76731009D02*
X122676666Y-76778628D01*
X122676666Y-76778628D02*
X122295714Y-76778628D01*
X123248095Y-76350057D02*
X123295714Y-76302438D01*
X123295714Y-76302438D02*
X123390952Y-76254819D01*
X123390952Y-76254819D02*
X123629047Y-76254819D01*
X123629047Y-76254819D02*
X123724285Y-76302438D01*
X123724285Y-76302438D02*
X123771904Y-76350057D01*
X123771904Y-76350057D02*
X123819523Y-76445295D01*
X123819523Y-76445295D02*
X123819523Y-76540533D01*
X123819523Y-76540533D02*
X123771904Y-76683390D01*
X123771904Y-76683390D02*
X123200476Y-77254819D01*
X123200476Y-77254819D02*
X123819523Y-77254819D01*
X124200476Y-76350057D02*
X124248095Y-76302438D01*
X124248095Y-76302438D02*
X124343333Y-76254819D01*
X124343333Y-76254819D02*
X124581428Y-76254819D01*
X124581428Y-76254819D02*
X124676666Y-76302438D01*
X124676666Y-76302438D02*
X124724285Y-76350057D01*
X124724285Y-76350057D02*
X124771904Y-76445295D01*
X124771904Y-76445295D02*
X124771904Y-76540533D01*
X124771904Y-76540533D02*
X124724285Y-76683390D01*
X124724285Y-76683390D02*
X124152857Y-77254819D01*
X124152857Y-77254819D02*
X124771904Y-77254819D01*
X125117142Y-88004819D02*
X124783809Y-87528628D01*
X124545714Y-88004819D02*
X124545714Y-87004819D01*
X124545714Y-87004819D02*
X124926666Y-87004819D01*
X124926666Y-87004819D02*
X125021904Y-87052438D01*
X125021904Y-87052438D02*
X125069523Y-87100057D01*
X125069523Y-87100057D02*
X125117142Y-87195295D01*
X125117142Y-87195295D02*
X125117142Y-87338152D01*
X125117142Y-87338152D02*
X125069523Y-87433390D01*
X125069523Y-87433390D02*
X125021904Y-87481009D01*
X125021904Y-87481009D02*
X124926666Y-87528628D01*
X124926666Y-87528628D02*
X124545714Y-87528628D01*
X125498095Y-87100057D02*
X125545714Y-87052438D01*
X125545714Y-87052438D02*
X125640952Y-87004819D01*
X125640952Y-87004819D02*
X125879047Y-87004819D01*
X125879047Y-87004819D02*
X125974285Y-87052438D01*
X125974285Y-87052438D02*
X126021904Y-87100057D01*
X126021904Y-87100057D02*
X126069523Y-87195295D01*
X126069523Y-87195295D02*
X126069523Y-87290533D01*
X126069523Y-87290533D02*
X126021904Y-87433390D01*
X126021904Y-87433390D02*
X125450476Y-88004819D01*
X125450476Y-88004819D02*
X126069523Y-88004819D01*
X127021904Y-88004819D02*
X126450476Y-88004819D01*
X126736190Y-88004819D02*
X126736190Y-87004819D01*
X126736190Y-87004819D02*
X126640952Y-87147676D01*
X126640952Y-87147676D02*
X126545714Y-87242914D01*
X126545714Y-87242914D02*
X126450476Y-87290533D01*
X124714819Y-81442857D02*
X124238628Y-81776190D01*
X124714819Y-82014285D02*
X123714819Y-82014285D01*
X123714819Y-82014285D02*
X123714819Y-81633333D01*
X123714819Y-81633333D02*
X123762438Y-81538095D01*
X123762438Y-81538095D02*
X123810057Y-81490476D01*
X123810057Y-81490476D02*
X123905295Y-81442857D01*
X123905295Y-81442857D02*
X124048152Y-81442857D01*
X124048152Y-81442857D02*
X124143390Y-81490476D01*
X124143390Y-81490476D02*
X124191009Y-81538095D01*
X124191009Y-81538095D02*
X124238628Y-81633333D01*
X124238628Y-81633333D02*
X124238628Y-82014285D01*
X123810057Y-81061904D02*
X123762438Y-81014285D01*
X123762438Y-81014285D02*
X123714819Y-80919047D01*
X123714819Y-80919047D02*
X123714819Y-80680952D01*
X123714819Y-80680952D02*
X123762438Y-80585714D01*
X123762438Y-80585714D02*
X123810057Y-80538095D01*
X123810057Y-80538095D02*
X123905295Y-80490476D01*
X123905295Y-80490476D02*
X124000533Y-80490476D01*
X124000533Y-80490476D02*
X124143390Y-80538095D01*
X124143390Y-80538095D02*
X124714819Y-81109523D01*
X124714819Y-81109523D02*
X124714819Y-80490476D01*
X123714819Y-79871428D02*
X123714819Y-79776190D01*
X123714819Y-79776190D02*
X123762438Y-79680952D01*
X123762438Y-79680952D02*
X123810057Y-79633333D01*
X123810057Y-79633333D02*
X123905295Y-79585714D01*
X123905295Y-79585714D02*
X124095771Y-79538095D01*
X124095771Y-79538095D02*
X124333866Y-79538095D01*
X124333866Y-79538095D02*
X124524342Y-79585714D01*
X124524342Y-79585714D02*
X124619580Y-79633333D01*
X124619580Y-79633333D02*
X124667200Y-79680952D01*
X124667200Y-79680952D02*
X124714819Y-79776190D01*
X124714819Y-79776190D02*
X124714819Y-79871428D01*
X124714819Y-79871428D02*
X124667200Y-79966666D01*
X124667200Y-79966666D02*
X124619580Y-80014285D01*
X124619580Y-80014285D02*
X124524342Y-80061904D01*
X124524342Y-80061904D02*
X124333866Y-80109523D01*
X124333866Y-80109523D02*
X124095771Y-80109523D01*
X124095771Y-80109523D02*
X123905295Y-80061904D01*
X123905295Y-80061904D02*
X123810057Y-80014285D01*
X123810057Y-80014285D02*
X123762438Y-79966666D01*
X123762438Y-79966666D02*
X123714819Y-79871428D01*
X126214819Y-97692857D02*
X125738628Y-98026190D01*
X126214819Y-98264285D02*
X125214819Y-98264285D01*
X125214819Y-98264285D02*
X125214819Y-97883333D01*
X125214819Y-97883333D02*
X125262438Y-97788095D01*
X125262438Y-97788095D02*
X125310057Y-97740476D01*
X125310057Y-97740476D02*
X125405295Y-97692857D01*
X125405295Y-97692857D02*
X125548152Y-97692857D01*
X125548152Y-97692857D02*
X125643390Y-97740476D01*
X125643390Y-97740476D02*
X125691009Y-97788095D01*
X125691009Y-97788095D02*
X125738628Y-97883333D01*
X125738628Y-97883333D02*
X125738628Y-98264285D01*
X126214819Y-96740476D02*
X126214819Y-97311904D01*
X126214819Y-97026190D02*
X125214819Y-97026190D01*
X125214819Y-97026190D02*
X125357676Y-97121428D01*
X125357676Y-97121428D02*
X125452914Y-97216666D01*
X125452914Y-97216666D02*
X125500533Y-97311904D01*
X126214819Y-96264285D02*
X126214819Y-96073809D01*
X126214819Y-96073809D02*
X126167200Y-95978571D01*
X126167200Y-95978571D02*
X126119580Y-95930952D01*
X126119580Y-95930952D02*
X125976723Y-95835714D01*
X125976723Y-95835714D02*
X125786247Y-95788095D01*
X125786247Y-95788095D02*
X125405295Y-95788095D01*
X125405295Y-95788095D02*
X125310057Y-95835714D01*
X125310057Y-95835714D02*
X125262438Y-95883333D01*
X125262438Y-95883333D02*
X125214819Y-95978571D01*
X125214819Y-95978571D02*
X125214819Y-96169047D01*
X125214819Y-96169047D02*
X125262438Y-96264285D01*
X125262438Y-96264285D02*
X125310057Y-96311904D01*
X125310057Y-96311904D02*
X125405295Y-96359523D01*
X125405295Y-96359523D02*
X125643390Y-96359523D01*
X125643390Y-96359523D02*
X125738628Y-96311904D01*
X125738628Y-96311904D02*
X125786247Y-96264285D01*
X125786247Y-96264285D02*
X125833866Y-96169047D01*
X125833866Y-96169047D02*
X125833866Y-95978571D01*
X125833866Y-95978571D02*
X125786247Y-95883333D01*
X125786247Y-95883333D02*
X125738628Y-95835714D01*
X125738628Y-95835714D02*
X125643390Y-95788095D01*
X135714819Y-95442857D02*
X135238628Y-95776190D01*
X135714819Y-96014285D02*
X134714819Y-96014285D01*
X134714819Y-96014285D02*
X134714819Y-95633333D01*
X134714819Y-95633333D02*
X134762438Y-95538095D01*
X134762438Y-95538095D02*
X134810057Y-95490476D01*
X134810057Y-95490476D02*
X134905295Y-95442857D01*
X134905295Y-95442857D02*
X135048152Y-95442857D01*
X135048152Y-95442857D02*
X135143390Y-95490476D01*
X135143390Y-95490476D02*
X135191009Y-95538095D01*
X135191009Y-95538095D02*
X135238628Y-95633333D01*
X135238628Y-95633333D02*
X135238628Y-96014285D01*
X135714819Y-94490476D02*
X135714819Y-95061904D01*
X135714819Y-94776190D02*
X134714819Y-94776190D01*
X134714819Y-94776190D02*
X134857676Y-94871428D01*
X134857676Y-94871428D02*
X134952914Y-94966666D01*
X134952914Y-94966666D02*
X135000533Y-95061904D01*
X135143390Y-93919047D02*
X135095771Y-94014285D01*
X135095771Y-94014285D02*
X135048152Y-94061904D01*
X135048152Y-94061904D02*
X134952914Y-94109523D01*
X134952914Y-94109523D02*
X134905295Y-94109523D01*
X134905295Y-94109523D02*
X134810057Y-94061904D01*
X134810057Y-94061904D02*
X134762438Y-94014285D01*
X134762438Y-94014285D02*
X134714819Y-93919047D01*
X134714819Y-93919047D02*
X134714819Y-93728571D01*
X134714819Y-93728571D02*
X134762438Y-93633333D01*
X134762438Y-93633333D02*
X134810057Y-93585714D01*
X134810057Y-93585714D02*
X134905295Y-93538095D01*
X134905295Y-93538095D02*
X134952914Y-93538095D01*
X134952914Y-93538095D02*
X135048152Y-93585714D01*
X135048152Y-93585714D02*
X135095771Y-93633333D01*
X135095771Y-93633333D02*
X135143390Y-93728571D01*
X135143390Y-93728571D02*
X135143390Y-93919047D01*
X135143390Y-93919047D02*
X135191009Y-94014285D01*
X135191009Y-94014285D02*
X135238628Y-94061904D01*
X135238628Y-94061904D02*
X135333866Y-94109523D01*
X135333866Y-94109523D02*
X135524342Y-94109523D01*
X135524342Y-94109523D02*
X135619580Y-94061904D01*
X135619580Y-94061904D02*
X135667200Y-94014285D01*
X135667200Y-94014285D02*
X135714819Y-93919047D01*
X135714819Y-93919047D02*
X135714819Y-93728571D01*
X135714819Y-93728571D02*
X135667200Y-93633333D01*
X135667200Y-93633333D02*
X135619580Y-93585714D01*
X135619580Y-93585714D02*
X135524342Y-93538095D01*
X135524342Y-93538095D02*
X135333866Y-93538095D01*
X135333866Y-93538095D02*
X135238628Y-93585714D01*
X135238628Y-93585714D02*
X135191009Y-93633333D01*
X135191009Y-93633333D02*
X135143390Y-93728571D01*
X139714819Y-91692857D02*
X139238628Y-92026190D01*
X139714819Y-92264285D02*
X138714819Y-92264285D01*
X138714819Y-92264285D02*
X138714819Y-91883333D01*
X138714819Y-91883333D02*
X138762438Y-91788095D01*
X138762438Y-91788095D02*
X138810057Y-91740476D01*
X138810057Y-91740476D02*
X138905295Y-91692857D01*
X138905295Y-91692857D02*
X139048152Y-91692857D01*
X139048152Y-91692857D02*
X139143390Y-91740476D01*
X139143390Y-91740476D02*
X139191009Y-91788095D01*
X139191009Y-91788095D02*
X139238628Y-91883333D01*
X139238628Y-91883333D02*
X139238628Y-92264285D01*
X139714819Y-90740476D02*
X139714819Y-91311904D01*
X139714819Y-91026190D02*
X138714819Y-91026190D01*
X138714819Y-91026190D02*
X138857676Y-91121428D01*
X138857676Y-91121428D02*
X138952914Y-91216666D01*
X138952914Y-91216666D02*
X139000533Y-91311904D01*
X138714819Y-90407142D02*
X138714819Y-89740476D01*
X138714819Y-89740476D02*
X139714819Y-90169047D01*
X128617142Y-99154819D02*
X128283809Y-98678628D01*
X128045714Y-99154819D02*
X128045714Y-98154819D01*
X128045714Y-98154819D02*
X128426666Y-98154819D01*
X128426666Y-98154819D02*
X128521904Y-98202438D01*
X128521904Y-98202438D02*
X128569523Y-98250057D01*
X128569523Y-98250057D02*
X128617142Y-98345295D01*
X128617142Y-98345295D02*
X128617142Y-98488152D01*
X128617142Y-98488152D02*
X128569523Y-98583390D01*
X128569523Y-98583390D02*
X128521904Y-98631009D01*
X128521904Y-98631009D02*
X128426666Y-98678628D01*
X128426666Y-98678628D02*
X128045714Y-98678628D01*
X129569523Y-99154819D02*
X128998095Y-99154819D01*
X129283809Y-99154819D02*
X129283809Y-98154819D01*
X129283809Y-98154819D02*
X129188571Y-98297676D01*
X129188571Y-98297676D02*
X129093333Y-98392914D01*
X129093333Y-98392914D02*
X128998095Y-98440533D01*
X130426666Y-98154819D02*
X130236190Y-98154819D01*
X130236190Y-98154819D02*
X130140952Y-98202438D01*
X130140952Y-98202438D02*
X130093333Y-98250057D01*
X130093333Y-98250057D02*
X129998095Y-98392914D01*
X129998095Y-98392914D02*
X129950476Y-98583390D01*
X129950476Y-98583390D02*
X129950476Y-98964342D01*
X129950476Y-98964342D02*
X129998095Y-99059580D01*
X129998095Y-99059580D02*
X130045714Y-99107200D01*
X130045714Y-99107200D02*
X130140952Y-99154819D01*
X130140952Y-99154819D02*
X130331428Y-99154819D01*
X130331428Y-99154819D02*
X130426666Y-99107200D01*
X130426666Y-99107200D02*
X130474285Y-99059580D01*
X130474285Y-99059580D02*
X130521904Y-98964342D01*
X130521904Y-98964342D02*
X130521904Y-98726247D01*
X130521904Y-98726247D02*
X130474285Y-98631009D01*
X130474285Y-98631009D02*
X130426666Y-98583390D01*
X130426666Y-98583390D02*
X130331428Y-98535771D01*
X130331428Y-98535771D02*
X130140952Y-98535771D01*
X130140952Y-98535771D02*
X130045714Y-98583390D01*
X130045714Y-98583390D02*
X129998095Y-98631009D01*
X129998095Y-98631009D02*
X129950476Y-98726247D01*
X149617142Y-73004819D02*
X149283809Y-72528628D01*
X149045714Y-73004819D02*
X149045714Y-72004819D01*
X149045714Y-72004819D02*
X149426666Y-72004819D01*
X149426666Y-72004819D02*
X149521904Y-72052438D01*
X149521904Y-72052438D02*
X149569523Y-72100057D01*
X149569523Y-72100057D02*
X149617142Y-72195295D01*
X149617142Y-72195295D02*
X149617142Y-72338152D01*
X149617142Y-72338152D02*
X149569523Y-72433390D01*
X149569523Y-72433390D02*
X149521904Y-72481009D01*
X149521904Y-72481009D02*
X149426666Y-72528628D01*
X149426666Y-72528628D02*
X149045714Y-72528628D01*
X150569523Y-73004819D02*
X149998095Y-73004819D01*
X150283809Y-73004819D02*
X150283809Y-72004819D01*
X150283809Y-72004819D02*
X150188571Y-72147676D01*
X150188571Y-72147676D02*
X150093333Y-72242914D01*
X150093333Y-72242914D02*
X149998095Y-72290533D01*
X151474285Y-72004819D02*
X150998095Y-72004819D01*
X150998095Y-72004819D02*
X150950476Y-72481009D01*
X150950476Y-72481009D02*
X150998095Y-72433390D01*
X150998095Y-72433390D02*
X151093333Y-72385771D01*
X151093333Y-72385771D02*
X151331428Y-72385771D01*
X151331428Y-72385771D02*
X151426666Y-72433390D01*
X151426666Y-72433390D02*
X151474285Y-72481009D01*
X151474285Y-72481009D02*
X151521904Y-72576247D01*
X151521904Y-72576247D02*
X151521904Y-72814342D01*
X151521904Y-72814342D02*
X151474285Y-72909580D01*
X151474285Y-72909580D02*
X151426666Y-72957200D01*
X151426666Y-72957200D02*
X151331428Y-73004819D01*
X151331428Y-73004819D02*
X151093333Y-73004819D01*
X151093333Y-73004819D02*
X150998095Y-72957200D01*
X150998095Y-72957200D02*
X150950476Y-72909580D01*
X144617142Y-81354819D02*
X144283809Y-80878628D01*
X144045714Y-81354819D02*
X144045714Y-80354819D01*
X144045714Y-80354819D02*
X144426666Y-80354819D01*
X144426666Y-80354819D02*
X144521904Y-80402438D01*
X144521904Y-80402438D02*
X144569523Y-80450057D01*
X144569523Y-80450057D02*
X144617142Y-80545295D01*
X144617142Y-80545295D02*
X144617142Y-80688152D01*
X144617142Y-80688152D02*
X144569523Y-80783390D01*
X144569523Y-80783390D02*
X144521904Y-80831009D01*
X144521904Y-80831009D02*
X144426666Y-80878628D01*
X144426666Y-80878628D02*
X144045714Y-80878628D01*
X145569523Y-81354819D02*
X144998095Y-81354819D01*
X145283809Y-81354819D02*
X145283809Y-80354819D01*
X145283809Y-80354819D02*
X145188571Y-80497676D01*
X145188571Y-80497676D02*
X145093333Y-80592914D01*
X145093333Y-80592914D02*
X144998095Y-80640533D01*
X146426666Y-80688152D02*
X146426666Y-81354819D01*
X146188571Y-80307200D02*
X145950476Y-81021485D01*
X145950476Y-81021485D02*
X146569523Y-81021485D01*
X148117142Y-87004819D02*
X147783809Y-86528628D01*
X147545714Y-87004819D02*
X147545714Y-86004819D01*
X147545714Y-86004819D02*
X147926666Y-86004819D01*
X147926666Y-86004819D02*
X148021904Y-86052438D01*
X148021904Y-86052438D02*
X148069523Y-86100057D01*
X148069523Y-86100057D02*
X148117142Y-86195295D01*
X148117142Y-86195295D02*
X148117142Y-86338152D01*
X148117142Y-86338152D02*
X148069523Y-86433390D01*
X148069523Y-86433390D02*
X148021904Y-86481009D01*
X148021904Y-86481009D02*
X147926666Y-86528628D01*
X147926666Y-86528628D02*
X147545714Y-86528628D01*
X149069523Y-87004819D02*
X148498095Y-87004819D01*
X148783809Y-87004819D02*
X148783809Y-86004819D01*
X148783809Y-86004819D02*
X148688571Y-86147676D01*
X148688571Y-86147676D02*
X148593333Y-86242914D01*
X148593333Y-86242914D02*
X148498095Y-86290533D01*
X149402857Y-86004819D02*
X150021904Y-86004819D01*
X150021904Y-86004819D02*
X149688571Y-86385771D01*
X149688571Y-86385771D02*
X149831428Y-86385771D01*
X149831428Y-86385771D02*
X149926666Y-86433390D01*
X149926666Y-86433390D02*
X149974285Y-86481009D01*
X149974285Y-86481009D02*
X150021904Y-86576247D01*
X150021904Y-86576247D02*
X150021904Y-86814342D01*
X150021904Y-86814342D02*
X149974285Y-86909580D01*
X149974285Y-86909580D02*
X149926666Y-86957200D01*
X149926666Y-86957200D02*
X149831428Y-87004819D01*
X149831428Y-87004819D02*
X149545714Y-87004819D01*
X149545714Y-87004819D02*
X149450476Y-86957200D01*
X149450476Y-86957200D02*
X149402857Y-86909580D01*
X149214819Y-91192857D02*
X148738628Y-91526190D01*
X149214819Y-91764285D02*
X148214819Y-91764285D01*
X148214819Y-91764285D02*
X148214819Y-91383333D01*
X148214819Y-91383333D02*
X148262438Y-91288095D01*
X148262438Y-91288095D02*
X148310057Y-91240476D01*
X148310057Y-91240476D02*
X148405295Y-91192857D01*
X148405295Y-91192857D02*
X148548152Y-91192857D01*
X148548152Y-91192857D02*
X148643390Y-91240476D01*
X148643390Y-91240476D02*
X148691009Y-91288095D01*
X148691009Y-91288095D02*
X148738628Y-91383333D01*
X148738628Y-91383333D02*
X148738628Y-91764285D01*
X149214819Y-90240476D02*
X149214819Y-90811904D01*
X149214819Y-90526190D02*
X148214819Y-90526190D01*
X148214819Y-90526190D02*
X148357676Y-90621428D01*
X148357676Y-90621428D02*
X148452914Y-90716666D01*
X148452914Y-90716666D02*
X148500533Y-90811904D01*
X148310057Y-89859523D02*
X148262438Y-89811904D01*
X148262438Y-89811904D02*
X148214819Y-89716666D01*
X148214819Y-89716666D02*
X148214819Y-89478571D01*
X148214819Y-89478571D02*
X148262438Y-89383333D01*
X148262438Y-89383333D02*
X148310057Y-89335714D01*
X148310057Y-89335714D02*
X148405295Y-89288095D01*
X148405295Y-89288095D02*
X148500533Y-89288095D01*
X148500533Y-89288095D02*
X148643390Y-89335714D01*
X148643390Y-89335714D02*
X149214819Y-89907142D01*
X149214819Y-89907142D02*
X149214819Y-89288095D01*
X147214819Y-91192857D02*
X146738628Y-91526190D01*
X147214819Y-91764285D02*
X146214819Y-91764285D01*
X146214819Y-91764285D02*
X146214819Y-91383333D01*
X146214819Y-91383333D02*
X146262438Y-91288095D01*
X146262438Y-91288095D02*
X146310057Y-91240476D01*
X146310057Y-91240476D02*
X146405295Y-91192857D01*
X146405295Y-91192857D02*
X146548152Y-91192857D01*
X146548152Y-91192857D02*
X146643390Y-91240476D01*
X146643390Y-91240476D02*
X146691009Y-91288095D01*
X146691009Y-91288095D02*
X146738628Y-91383333D01*
X146738628Y-91383333D02*
X146738628Y-91764285D01*
X147214819Y-90240476D02*
X147214819Y-90811904D01*
X147214819Y-90526190D02*
X146214819Y-90526190D01*
X146214819Y-90526190D02*
X146357676Y-90621428D01*
X146357676Y-90621428D02*
X146452914Y-90716666D01*
X146452914Y-90716666D02*
X146500533Y-90811904D01*
X147214819Y-89288095D02*
X147214819Y-89859523D01*
X147214819Y-89573809D02*
X146214819Y-89573809D01*
X146214819Y-89573809D02*
X146357676Y-89669047D01*
X146357676Y-89669047D02*
X146452914Y-89764285D01*
X146452914Y-89764285D02*
X146500533Y-89859523D01*
X131867142Y-109254819D02*
X131533809Y-108778628D01*
X131295714Y-109254819D02*
X131295714Y-108254819D01*
X131295714Y-108254819D02*
X131676666Y-108254819D01*
X131676666Y-108254819D02*
X131771904Y-108302438D01*
X131771904Y-108302438D02*
X131819523Y-108350057D01*
X131819523Y-108350057D02*
X131867142Y-108445295D01*
X131867142Y-108445295D02*
X131867142Y-108588152D01*
X131867142Y-108588152D02*
X131819523Y-108683390D01*
X131819523Y-108683390D02*
X131771904Y-108731009D01*
X131771904Y-108731009D02*
X131676666Y-108778628D01*
X131676666Y-108778628D02*
X131295714Y-108778628D01*
X132819523Y-109254819D02*
X132248095Y-109254819D01*
X132533809Y-109254819D02*
X132533809Y-108254819D01*
X132533809Y-108254819D02*
X132438571Y-108397676D01*
X132438571Y-108397676D02*
X132343333Y-108492914D01*
X132343333Y-108492914D02*
X132248095Y-108540533D01*
X133438571Y-108254819D02*
X133533809Y-108254819D01*
X133533809Y-108254819D02*
X133629047Y-108302438D01*
X133629047Y-108302438D02*
X133676666Y-108350057D01*
X133676666Y-108350057D02*
X133724285Y-108445295D01*
X133724285Y-108445295D02*
X133771904Y-108635771D01*
X133771904Y-108635771D02*
X133771904Y-108873866D01*
X133771904Y-108873866D02*
X133724285Y-109064342D01*
X133724285Y-109064342D02*
X133676666Y-109159580D01*
X133676666Y-109159580D02*
X133629047Y-109207200D01*
X133629047Y-109207200D02*
X133533809Y-109254819D01*
X133533809Y-109254819D02*
X133438571Y-109254819D01*
X133438571Y-109254819D02*
X133343333Y-109207200D01*
X133343333Y-109207200D02*
X133295714Y-109159580D01*
X133295714Y-109159580D02*
X133248095Y-109064342D01*
X133248095Y-109064342D02*
X133200476Y-108873866D01*
X133200476Y-108873866D02*
X133200476Y-108635771D01*
X133200476Y-108635771D02*
X133248095Y-108445295D01*
X133248095Y-108445295D02*
X133295714Y-108350057D01*
X133295714Y-108350057D02*
X133343333Y-108302438D01*
X133343333Y-108302438D02*
X133438571Y-108254819D01*
X139343333Y-97754819D02*
X139010000Y-97278628D01*
X138771905Y-97754819D02*
X138771905Y-96754819D01*
X138771905Y-96754819D02*
X139152857Y-96754819D01*
X139152857Y-96754819D02*
X139248095Y-96802438D01*
X139248095Y-96802438D02*
X139295714Y-96850057D01*
X139295714Y-96850057D02*
X139343333Y-96945295D01*
X139343333Y-96945295D02*
X139343333Y-97088152D01*
X139343333Y-97088152D02*
X139295714Y-97183390D01*
X139295714Y-97183390D02*
X139248095Y-97231009D01*
X139248095Y-97231009D02*
X139152857Y-97278628D01*
X139152857Y-97278628D02*
X138771905Y-97278628D01*
X139819524Y-97754819D02*
X140010000Y-97754819D01*
X140010000Y-97754819D02*
X140105238Y-97707200D01*
X140105238Y-97707200D02*
X140152857Y-97659580D01*
X140152857Y-97659580D02*
X140248095Y-97516723D01*
X140248095Y-97516723D02*
X140295714Y-97326247D01*
X140295714Y-97326247D02*
X140295714Y-96945295D01*
X140295714Y-96945295D02*
X140248095Y-96850057D01*
X140248095Y-96850057D02*
X140200476Y-96802438D01*
X140200476Y-96802438D02*
X140105238Y-96754819D01*
X140105238Y-96754819D02*
X139914762Y-96754819D01*
X139914762Y-96754819D02*
X139819524Y-96802438D01*
X139819524Y-96802438D02*
X139771905Y-96850057D01*
X139771905Y-96850057D02*
X139724286Y-96945295D01*
X139724286Y-96945295D02*
X139724286Y-97183390D01*
X139724286Y-97183390D02*
X139771905Y-97278628D01*
X139771905Y-97278628D02*
X139819524Y-97326247D01*
X139819524Y-97326247D02*
X139914762Y-97373866D01*
X139914762Y-97373866D02*
X140105238Y-97373866D01*
X140105238Y-97373866D02*
X140200476Y-97326247D01*
X140200476Y-97326247D02*
X140248095Y-97278628D01*
X140248095Y-97278628D02*
X140295714Y-97183390D01*
X132093333Y-107254819D02*
X131760000Y-106778628D01*
X131521905Y-107254819D02*
X131521905Y-106254819D01*
X131521905Y-106254819D02*
X131902857Y-106254819D01*
X131902857Y-106254819D02*
X131998095Y-106302438D01*
X131998095Y-106302438D02*
X132045714Y-106350057D01*
X132045714Y-106350057D02*
X132093333Y-106445295D01*
X132093333Y-106445295D02*
X132093333Y-106588152D01*
X132093333Y-106588152D02*
X132045714Y-106683390D01*
X132045714Y-106683390D02*
X131998095Y-106731009D01*
X131998095Y-106731009D02*
X131902857Y-106778628D01*
X131902857Y-106778628D02*
X131521905Y-106778628D01*
X132664762Y-106683390D02*
X132569524Y-106635771D01*
X132569524Y-106635771D02*
X132521905Y-106588152D01*
X132521905Y-106588152D02*
X132474286Y-106492914D01*
X132474286Y-106492914D02*
X132474286Y-106445295D01*
X132474286Y-106445295D02*
X132521905Y-106350057D01*
X132521905Y-106350057D02*
X132569524Y-106302438D01*
X132569524Y-106302438D02*
X132664762Y-106254819D01*
X132664762Y-106254819D02*
X132855238Y-106254819D01*
X132855238Y-106254819D02*
X132950476Y-106302438D01*
X132950476Y-106302438D02*
X132998095Y-106350057D01*
X132998095Y-106350057D02*
X133045714Y-106445295D01*
X133045714Y-106445295D02*
X133045714Y-106492914D01*
X133045714Y-106492914D02*
X132998095Y-106588152D01*
X132998095Y-106588152D02*
X132950476Y-106635771D01*
X132950476Y-106635771D02*
X132855238Y-106683390D01*
X132855238Y-106683390D02*
X132664762Y-106683390D01*
X132664762Y-106683390D02*
X132569524Y-106731009D01*
X132569524Y-106731009D02*
X132521905Y-106778628D01*
X132521905Y-106778628D02*
X132474286Y-106873866D01*
X132474286Y-106873866D02*
X132474286Y-107064342D01*
X132474286Y-107064342D02*
X132521905Y-107159580D01*
X132521905Y-107159580D02*
X132569524Y-107207200D01*
X132569524Y-107207200D02*
X132664762Y-107254819D01*
X132664762Y-107254819D02*
X132855238Y-107254819D01*
X132855238Y-107254819D02*
X132950476Y-107207200D01*
X132950476Y-107207200D02*
X132998095Y-107159580D01*
X132998095Y-107159580D02*
X133045714Y-107064342D01*
X133045714Y-107064342D02*
X133045714Y-106873866D01*
X133045714Y-106873866D02*
X132998095Y-106778628D01*
X132998095Y-106778628D02*
X132950476Y-106731009D01*
X132950476Y-106731009D02*
X132855238Y-106683390D01*
X137714819Y-97716666D02*
X137238628Y-98049999D01*
X137714819Y-98288094D02*
X136714819Y-98288094D01*
X136714819Y-98288094D02*
X136714819Y-97907142D01*
X136714819Y-97907142D02*
X136762438Y-97811904D01*
X136762438Y-97811904D02*
X136810057Y-97764285D01*
X136810057Y-97764285D02*
X136905295Y-97716666D01*
X136905295Y-97716666D02*
X137048152Y-97716666D01*
X137048152Y-97716666D02*
X137143390Y-97764285D01*
X137143390Y-97764285D02*
X137191009Y-97811904D01*
X137191009Y-97811904D02*
X137238628Y-97907142D01*
X137238628Y-97907142D02*
X137238628Y-98288094D01*
X136714819Y-97383332D02*
X136714819Y-96716666D01*
X136714819Y-96716666D02*
X137714819Y-97145237D01*
X147343333Y-97754819D02*
X147010000Y-97278628D01*
X146771905Y-97754819D02*
X146771905Y-96754819D01*
X146771905Y-96754819D02*
X147152857Y-96754819D01*
X147152857Y-96754819D02*
X147248095Y-96802438D01*
X147248095Y-96802438D02*
X147295714Y-96850057D01*
X147295714Y-96850057D02*
X147343333Y-96945295D01*
X147343333Y-96945295D02*
X147343333Y-97088152D01*
X147343333Y-97088152D02*
X147295714Y-97183390D01*
X147295714Y-97183390D02*
X147248095Y-97231009D01*
X147248095Y-97231009D02*
X147152857Y-97278628D01*
X147152857Y-97278628D02*
X146771905Y-97278628D01*
X148200476Y-96754819D02*
X148010000Y-96754819D01*
X148010000Y-96754819D02*
X147914762Y-96802438D01*
X147914762Y-96802438D02*
X147867143Y-96850057D01*
X147867143Y-96850057D02*
X147771905Y-96992914D01*
X147771905Y-96992914D02*
X147724286Y-97183390D01*
X147724286Y-97183390D02*
X147724286Y-97564342D01*
X147724286Y-97564342D02*
X147771905Y-97659580D01*
X147771905Y-97659580D02*
X147819524Y-97707200D01*
X147819524Y-97707200D02*
X147914762Y-97754819D01*
X147914762Y-97754819D02*
X148105238Y-97754819D01*
X148105238Y-97754819D02*
X148200476Y-97707200D01*
X148200476Y-97707200D02*
X148248095Y-97659580D01*
X148248095Y-97659580D02*
X148295714Y-97564342D01*
X148295714Y-97564342D02*
X148295714Y-97326247D01*
X148295714Y-97326247D02*
X148248095Y-97231009D01*
X148248095Y-97231009D02*
X148200476Y-97183390D01*
X148200476Y-97183390D02*
X148105238Y-97135771D01*
X148105238Y-97135771D02*
X147914762Y-97135771D01*
X147914762Y-97135771D02*
X147819524Y-97183390D01*
X147819524Y-97183390D02*
X147771905Y-97231009D01*
X147771905Y-97231009D02*
X147724286Y-97326247D01*
X147343333Y-99254819D02*
X147010000Y-98778628D01*
X146771905Y-99254819D02*
X146771905Y-98254819D01*
X146771905Y-98254819D02*
X147152857Y-98254819D01*
X147152857Y-98254819D02*
X147248095Y-98302438D01*
X147248095Y-98302438D02*
X147295714Y-98350057D01*
X147295714Y-98350057D02*
X147343333Y-98445295D01*
X147343333Y-98445295D02*
X147343333Y-98588152D01*
X147343333Y-98588152D02*
X147295714Y-98683390D01*
X147295714Y-98683390D02*
X147248095Y-98731009D01*
X147248095Y-98731009D02*
X147152857Y-98778628D01*
X147152857Y-98778628D02*
X146771905Y-98778628D01*
X148248095Y-98254819D02*
X147771905Y-98254819D01*
X147771905Y-98254819D02*
X147724286Y-98731009D01*
X147724286Y-98731009D02*
X147771905Y-98683390D01*
X147771905Y-98683390D02*
X147867143Y-98635771D01*
X147867143Y-98635771D02*
X148105238Y-98635771D01*
X148105238Y-98635771D02*
X148200476Y-98683390D01*
X148200476Y-98683390D02*
X148248095Y-98731009D01*
X148248095Y-98731009D02*
X148295714Y-98826247D01*
X148295714Y-98826247D02*
X148295714Y-99064342D01*
X148295714Y-99064342D02*
X148248095Y-99159580D01*
X148248095Y-99159580D02*
X148200476Y-99207200D01*
X148200476Y-99207200D02*
X148105238Y-99254819D01*
X148105238Y-99254819D02*
X147867143Y-99254819D01*
X147867143Y-99254819D02*
X147771905Y-99207200D01*
X147771905Y-99207200D02*
X147724286Y-99159580D01*
X147343333Y-103254819D02*
X147010000Y-102778628D01*
X146771905Y-103254819D02*
X146771905Y-102254819D01*
X146771905Y-102254819D02*
X147152857Y-102254819D01*
X147152857Y-102254819D02*
X147248095Y-102302438D01*
X147248095Y-102302438D02*
X147295714Y-102350057D01*
X147295714Y-102350057D02*
X147343333Y-102445295D01*
X147343333Y-102445295D02*
X147343333Y-102588152D01*
X147343333Y-102588152D02*
X147295714Y-102683390D01*
X147295714Y-102683390D02*
X147248095Y-102731009D01*
X147248095Y-102731009D02*
X147152857Y-102778628D01*
X147152857Y-102778628D02*
X146771905Y-102778628D01*
X148200476Y-102588152D02*
X148200476Y-103254819D01*
X147962381Y-102207200D02*
X147724286Y-102921485D01*
X147724286Y-102921485D02*
X148343333Y-102921485D01*
X129154761Y-59990057D02*
X129059523Y-59942438D01*
X129059523Y-59942438D02*
X128964285Y-59847200D01*
X128964285Y-59847200D02*
X128821428Y-59704342D01*
X128821428Y-59704342D02*
X128726190Y-59656723D01*
X128726190Y-59656723D02*
X128630952Y-59656723D01*
X128678571Y-59894819D02*
X128583333Y-59847200D01*
X128583333Y-59847200D02*
X128488095Y-59751961D01*
X128488095Y-59751961D02*
X128440476Y-59561485D01*
X128440476Y-59561485D02*
X128440476Y-59228152D01*
X128440476Y-59228152D02*
X128488095Y-59037676D01*
X128488095Y-59037676D02*
X128583333Y-58942438D01*
X128583333Y-58942438D02*
X128678571Y-58894819D01*
X128678571Y-58894819D02*
X128869047Y-58894819D01*
X128869047Y-58894819D02*
X128964285Y-58942438D01*
X128964285Y-58942438D02*
X129059523Y-59037676D01*
X129059523Y-59037676D02*
X129107142Y-59228152D01*
X129107142Y-59228152D02*
X129107142Y-59561485D01*
X129107142Y-59561485D02*
X129059523Y-59751961D01*
X129059523Y-59751961D02*
X128964285Y-59847200D01*
X128964285Y-59847200D02*
X128869047Y-59894819D01*
X128869047Y-59894819D02*
X128678571Y-59894819D01*
X130011904Y-58894819D02*
X129535714Y-58894819D01*
X129535714Y-58894819D02*
X129488095Y-59371009D01*
X129488095Y-59371009D02*
X129535714Y-59323390D01*
X129535714Y-59323390D02*
X129630952Y-59275771D01*
X129630952Y-59275771D02*
X129869047Y-59275771D01*
X129869047Y-59275771D02*
X129964285Y-59323390D01*
X129964285Y-59323390D02*
X130011904Y-59371009D01*
X130011904Y-59371009D02*
X130059523Y-59466247D01*
X130059523Y-59466247D02*
X130059523Y-59704342D01*
X130059523Y-59704342D02*
X130011904Y-59799580D01*
X130011904Y-59799580D02*
X129964285Y-59847200D01*
X129964285Y-59847200D02*
X129869047Y-59894819D01*
X129869047Y-59894819D02*
X129630952Y-59894819D01*
X129630952Y-59894819D02*
X129535714Y-59847200D01*
X129535714Y-59847200D02*
X129488095Y-59799580D01*
X129154761Y-79600057D02*
X129059523Y-79552438D01*
X129059523Y-79552438D02*
X128964285Y-79457200D01*
X128964285Y-79457200D02*
X128821428Y-79314342D01*
X128821428Y-79314342D02*
X128726190Y-79266723D01*
X128726190Y-79266723D02*
X128630952Y-79266723D01*
X128678571Y-79504819D02*
X128583333Y-79457200D01*
X128583333Y-79457200D02*
X128488095Y-79361961D01*
X128488095Y-79361961D02*
X128440476Y-79171485D01*
X128440476Y-79171485D02*
X128440476Y-78838152D01*
X128440476Y-78838152D02*
X128488095Y-78647676D01*
X128488095Y-78647676D02*
X128583333Y-78552438D01*
X128583333Y-78552438D02*
X128678571Y-78504819D01*
X128678571Y-78504819D02*
X128869047Y-78504819D01*
X128869047Y-78504819D02*
X128964285Y-78552438D01*
X128964285Y-78552438D02*
X129059523Y-78647676D01*
X129059523Y-78647676D02*
X129107142Y-78838152D01*
X129107142Y-78838152D02*
X129107142Y-79171485D01*
X129107142Y-79171485D02*
X129059523Y-79361961D01*
X129059523Y-79361961D02*
X128964285Y-79457200D01*
X128964285Y-79457200D02*
X128869047Y-79504819D01*
X128869047Y-79504819D02*
X128678571Y-79504819D01*
X129964285Y-78838152D02*
X129964285Y-79504819D01*
X129726190Y-78457200D02*
X129488095Y-79171485D01*
X129488095Y-79171485D02*
X130107142Y-79171485D01*
X125664761Y-103100057D02*
X125569523Y-103052438D01*
X125569523Y-103052438D02*
X125474285Y-102957200D01*
X125474285Y-102957200D02*
X125331428Y-102814342D01*
X125331428Y-102814342D02*
X125236190Y-102766723D01*
X125236190Y-102766723D02*
X125140952Y-102766723D01*
X125188571Y-103004819D02*
X125093333Y-102957200D01*
X125093333Y-102957200D02*
X124998095Y-102861961D01*
X124998095Y-102861961D02*
X124950476Y-102671485D01*
X124950476Y-102671485D02*
X124950476Y-102338152D01*
X124950476Y-102338152D02*
X124998095Y-102147676D01*
X124998095Y-102147676D02*
X125093333Y-102052438D01*
X125093333Y-102052438D02*
X125188571Y-102004819D01*
X125188571Y-102004819D02*
X125379047Y-102004819D01*
X125379047Y-102004819D02*
X125474285Y-102052438D01*
X125474285Y-102052438D02*
X125569523Y-102147676D01*
X125569523Y-102147676D02*
X125617142Y-102338152D01*
X125617142Y-102338152D02*
X125617142Y-102671485D01*
X125617142Y-102671485D02*
X125569523Y-102861961D01*
X125569523Y-102861961D02*
X125474285Y-102957200D01*
X125474285Y-102957200D02*
X125379047Y-103004819D01*
X125379047Y-103004819D02*
X125188571Y-103004819D01*
X125998095Y-102100057D02*
X126045714Y-102052438D01*
X126045714Y-102052438D02*
X126140952Y-102004819D01*
X126140952Y-102004819D02*
X126379047Y-102004819D01*
X126379047Y-102004819D02*
X126474285Y-102052438D01*
X126474285Y-102052438D02*
X126521904Y-102100057D01*
X126521904Y-102100057D02*
X126569523Y-102195295D01*
X126569523Y-102195295D02*
X126569523Y-102290533D01*
X126569523Y-102290533D02*
X126521904Y-102433390D01*
X126521904Y-102433390D02*
X125950476Y-103004819D01*
X125950476Y-103004819D02*
X126569523Y-103004819D01*
X166464819Y-66788094D02*
X165464819Y-66788094D01*
X165464819Y-66788094D02*
X165464819Y-66549999D01*
X165464819Y-66549999D02*
X165512438Y-66407142D01*
X165512438Y-66407142D02*
X165607676Y-66311904D01*
X165607676Y-66311904D02*
X165702914Y-66264285D01*
X165702914Y-66264285D02*
X165893390Y-66216666D01*
X165893390Y-66216666D02*
X166036247Y-66216666D01*
X166036247Y-66216666D02*
X166226723Y-66264285D01*
X166226723Y-66264285D02*
X166321961Y-66311904D01*
X166321961Y-66311904D02*
X166417200Y-66407142D01*
X166417200Y-66407142D02*
X166464819Y-66549999D01*
X166464819Y-66549999D02*
X166464819Y-66788094D01*
X165464819Y-65883332D02*
X165464819Y-65264285D01*
X165464819Y-65264285D02*
X165845771Y-65597618D01*
X165845771Y-65597618D02*
X165845771Y-65454761D01*
X165845771Y-65454761D02*
X165893390Y-65359523D01*
X165893390Y-65359523D02*
X165941009Y-65311904D01*
X165941009Y-65311904D02*
X166036247Y-65264285D01*
X166036247Y-65264285D02*
X166274342Y-65264285D01*
X166274342Y-65264285D02*
X166369580Y-65311904D01*
X166369580Y-65311904D02*
X166417200Y-65359523D01*
X166417200Y-65359523D02*
X166464819Y-65454761D01*
X166464819Y-65454761D02*
X166464819Y-65740475D01*
X166464819Y-65740475D02*
X166417200Y-65835713D01*
X166417200Y-65835713D02*
X166369580Y-65883332D01*
X128369580Y-69442857D02*
X128417200Y-69490476D01*
X128417200Y-69490476D02*
X128464819Y-69633333D01*
X128464819Y-69633333D02*
X128464819Y-69728571D01*
X128464819Y-69728571D02*
X128417200Y-69871428D01*
X128417200Y-69871428D02*
X128321961Y-69966666D01*
X128321961Y-69966666D02*
X128226723Y-70014285D01*
X128226723Y-70014285D02*
X128036247Y-70061904D01*
X128036247Y-70061904D02*
X127893390Y-70061904D01*
X127893390Y-70061904D02*
X127702914Y-70014285D01*
X127702914Y-70014285D02*
X127607676Y-69966666D01*
X127607676Y-69966666D02*
X127512438Y-69871428D01*
X127512438Y-69871428D02*
X127464819Y-69728571D01*
X127464819Y-69728571D02*
X127464819Y-69633333D01*
X127464819Y-69633333D02*
X127512438Y-69490476D01*
X127512438Y-69490476D02*
X127560057Y-69442857D01*
X128464819Y-68490476D02*
X128464819Y-69061904D01*
X128464819Y-68776190D02*
X127464819Y-68776190D01*
X127464819Y-68776190D02*
X127607676Y-68871428D01*
X127607676Y-68871428D02*
X127702914Y-68966666D01*
X127702914Y-68966666D02*
X127750533Y-69061904D01*
X128464819Y-67538095D02*
X128464819Y-68109523D01*
X128464819Y-67823809D02*
X127464819Y-67823809D01*
X127464819Y-67823809D02*
X127607676Y-67919047D01*
X127607676Y-67919047D02*
X127702914Y-68014285D01*
X127702914Y-68014285D02*
X127750533Y-68109523D01*
X128119580Y-91216666D02*
X128167200Y-91264285D01*
X128167200Y-91264285D02*
X128214819Y-91407142D01*
X128214819Y-91407142D02*
X128214819Y-91502380D01*
X128214819Y-91502380D02*
X128167200Y-91645237D01*
X128167200Y-91645237D02*
X128071961Y-91740475D01*
X128071961Y-91740475D02*
X127976723Y-91788094D01*
X127976723Y-91788094D02*
X127786247Y-91835713D01*
X127786247Y-91835713D02*
X127643390Y-91835713D01*
X127643390Y-91835713D02*
X127452914Y-91788094D01*
X127452914Y-91788094D02*
X127357676Y-91740475D01*
X127357676Y-91740475D02*
X127262438Y-91645237D01*
X127262438Y-91645237D02*
X127214819Y-91502380D01*
X127214819Y-91502380D02*
X127214819Y-91407142D01*
X127214819Y-91407142D02*
X127262438Y-91264285D01*
X127262438Y-91264285D02*
X127310057Y-91216666D01*
X128214819Y-90740475D02*
X128214819Y-90549999D01*
X128214819Y-90549999D02*
X128167200Y-90454761D01*
X128167200Y-90454761D02*
X128119580Y-90407142D01*
X128119580Y-90407142D02*
X127976723Y-90311904D01*
X127976723Y-90311904D02*
X127786247Y-90264285D01*
X127786247Y-90264285D02*
X127405295Y-90264285D01*
X127405295Y-90264285D02*
X127310057Y-90311904D01*
X127310057Y-90311904D02*
X127262438Y-90359523D01*
X127262438Y-90359523D02*
X127214819Y-90454761D01*
X127214819Y-90454761D02*
X127214819Y-90645237D01*
X127214819Y-90645237D02*
X127262438Y-90740475D01*
X127262438Y-90740475D02*
X127310057Y-90788094D01*
X127310057Y-90788094D02*
X127405295Y-90835713D01*
X127405295Y-90835713D02*
X127643390Y-90835713D01*
X127643390Y-90835713D02*
X127738628Y-90788094D01*
X127738628Y-90788094D02*
X127786247Y-90740475D01*
X127786247Y-90740475D02*
X127833866Y-90645237D01*
X127833866Y-90645237D02*
X127833866Y-90454761D01*
X127833866Y-90454761D02*
X127786247Y-90359523D01*
X127786247Y-90359523D02*
X127738628Y-90311904D01*
X127738628Y-90311904D02*
X127643390Y-90264285D01*
X127843333Y-104159580D02*
X127795714Y-104207200D01*
X127795714Y-104207200D02*
X127652857Y-104254819D01*
X127652857Y-104254819D02*
X127557619Y-104254819D01*
X127557619Y-104254819D02*
X127414762Y-104207200D01*
X127414762Y-104207200D02*
X127319524Y-104111961D01*
X127319524Y-104111961D02*
X127271905Y-104016723D01*
X127271905Y-104016723D02*
X127224286Y-103826247D01*
X127224286Y-103826247D02*
X127224286Y-103683390D01*
X127224286Y-103683390D02*
X127271905Y-103492914D01*
X127271905Y-103492914D02*
X127319524Y-103397676D01*
X127319524Y-103397676D02*
X127414762Y-103302438D01*
X127414762Y-103302438D02*
X127557619Y-103254819D01*
X127557619Y-103254819D02*
X127652857Y-103254819D01*
X127652857Y-103254819D02*
X127795714Y-103302438D01*
X127795714Y-103302438D02*
X127843333Y-103350057D01*
X128414762Y-103683390D02*
X128319524Y-103635771D01*
X128319524Y-103635771D02*
X128271905Y-103588152D01*
X128271905Y-103588152D02*
X128224286Y-103492914D01*
X128224286Y-103492914D02*
X128224286Y-103445295D01*
X128224286Y-103445295D02*
X128271905Y-103350057D01*
X128271905Y-103350057D02*
X128319524Y-103302438D01*
X128319524Y-103302438D02*
X128414762Y-103254819D01*
X128414762Y-103254819D02*
X128605238Y-103254819D01*
X128605238Y-103254819D02*
X128700476Y-103302438D01*
X128700476Y-103302438D02*
X128748095Y-103350057D01*
X128748095Y-103350057D02*
X128795714Y-103445295D01*
X128795714Y-103445295D02*
X128795714Y-103492914D01*
X128795714Y-103492914D02*
X128748095Y-103588152D01*
X128748095Y-103588152D02*
X128700476Y-103635771D01*
X128700476Y-103635771D02*
X128605238Y-103683390D01*
X128605238Y-103683390D02*
X128414762Y-103683390D01*
X128414762Y-103683390D02*
X128319524Y-103731009D01*
X128319524Y-103731009D02*
X128271905Y-103778628D01*
X128271905Y-103778628D02*
X128224286Y-103873866D01*
X128224286Y-103873866D02*
X128224286Y-104064342D01*
X128224286Y-104064342D02*
X128271905Y-104159580D01*
X128271905Y-104159580D02*
X128319524Y-104207200D01*
X128319524Y-104207200D02*
X128414762Y-104254819D01*
X128414762Y-104254819D02*
X128605238Y-104254819D01*
X128605238Y-104254819D02*
X128700476Y-104207200D01*
X128700476Y-104207200D02*
X128748095Y-104159580D01*
X128748095Y-104159580D02*
X128795714Y-104064342D01*
X128795714Y-104064342D02*
X128795714Y-103873866D01*
X128795714Y-103873866D02*
X128748095Y-103778628D01*
X128748095Y-103778628D02*
X128700476Y-103731009D01*
X128700476Y-103731009D02*
X128605238Y-103683390D01*
X137619580Y-91466666D02*
X137667200Y-91514285D01*
X137667200Y-91514285D02*
X137714819Y-91657142D01*
X137714819Y-91657142D02*
X137714819Y-91752380D01*
X137714819Y-91752380D02*
X137667200Y-91895237D01*
X137667200Y-91895237D02*
X137571961Y-91990475D01*
X137571961Y-91990475D02*
X137476723Y-92038094D01*
X137476723Y-92038094D02*
X137286247Y-92085713D01*
X137286247Y-92085713D02*
X137143390Y-92085713D01*
X137143390Y-92085713D02*
X136952914Y-92038094D01*
X136952914Y-92038094D02*
X136857676Y-91990475D01*
X136857676Y-91990475D02*
X136762438Y-91895237D01*
X136762438Y-91895237D02*
X136714819Y-91752380D01*
X136714819Y-91752380D02*
X136714819Y-91657142D01*
X136714819Y-91657142D02*
X136762438Y-91514285D01*
X136762438Y-91514285D02*
X136810057Y-91466666D01*
X136714819Y-91133332D02*
X136714819Y-90466666D01*
X136714819Y-90466666D02*
X137714819Y-90895237D01*
X145593333Y-88909580D02*
X145545714Y-88957200D01*
X145545714Y-88957200D02*
X145402857Y-89004819D01*
X145402857Y-89004819D02*
X145307619Y-89004819D01*
X145307619Y-89004819D02*
X145164762Y-88957200D01*
X145164762Y-88957200D02*
X145069524Y-88861961D01*
X145069524Y-88861961D02*
X145021905Y-88766723D01*
X145021905Y-88766723D02*
X144974286Y-88576247D01*
X144974286Y-88576247D02*
X144974286Y-88433390D01*
X144974286Y-88433390D02*
X145021905Y-88242914D01*
X145021905Y-88242914D02*
X145069524Y-88147676D01*
X145069524Y-88147676D02*
X145164762Y-88052438D01*
X145164762Y-88052438D02*
X145307619Y-88004819D01*
X145307619Y-88004819D02*
X145402857Y-88004819D01*
X145402857Y-88004819D02*
X145545714Y-88052438D01*
X145545714Y-88052438D02*
X145593333Y-88100057D01*
X146498095Y-88004819D02*
X146021905Y-88004819D01*
X146021905Y-88004819D02*
X145974286Y-88481009D01*
X145974286Y-88481009D02*
X146021905Y-88433390D01*
X146021905Y-88433390D02*
X146117143Y-88385771D01*
X146117143Y-88385771D02*
X146355238Y-88385771D01*
X146355238Y-88385771D02*
X146450476Y-88433390D01*
X146450476Y-88433390D02*
X146498095Y-88481009D01*
X146498095Y-88481009D02*
X146545714Y-88576247D01*
X146545714Y-88576247D02*
X146545714Y-88814342D01*
X146545714Y-88814342D02*
X146498095Y-88909580D01*
X146498095Y-88909580D02*
X146450476Y-88957200D01*
X146450476Y-88957200D02*
X146355238Y-89004819D01*
X146355238Y-89004819D02*
X146117143Y-89004819D01*
X146117143Y-89004819D02*
X146021905Y-88957200D01*
X146021905Y-88957200D02*
X145974286Y-88909580D01*
X147593333Y-101159580D02*
X147545714Y-101207200D01*
X147545714Y-101207200D02*
X147402857Y-101254819D01*
X147402857Y-101254819D02*
X147307619Y-101254819D01*
X147307619Y-101254819D02*
X147164762Y-101207200D01*
X147164762Y-101207200D02*
X147069524Y-101111961D01*
X147069524Y-101111961D02*
X147021905Y-101016723D01*
X147021905Y-101016723D02*
X146974286Y-100826247D01*
X146974286Y-100826247D02*
X146974286Y-100683390D01*
X146974286Y-100683390D02*
X147021905Y-100492914D01*
X147021905Y-100492914D02*
X147069524Y-100397676D01*
X147069524Y-100397676D02*
X147164762Y-100302438D01*
X147164762Y-100302438D02*
X147307619Y-100254819D01*
X147307619Y-100254819D02*
X147402857Y-100254819D01*
X147402857Y-100254819D02*
X147545714Y-100302438D01*
X147545714Y-100302438D02*
X147593333Y-100350057D01*
X147926667Y-100254819D02*
X148545714Y-100254819D01*
X148545714Y-100254819D02*
X148212381Y-100635771D01*
X148212381Y-100635771D02*
X148355238Y-100635771D01*
X148355238Y-100635771D02*
X148450476Y-100683390D01*
X148450476Y-100683390D02*
X148498095Y-100731009D01*
X148498095Y-100731009D02*
X148545714Y-100826247D01*
X148545714Y-100826247D02*
X148545714Y-101064342D01*
X148545714Y-101064342D02*
X148498095Y-101159580D01*
X148498095Y-101159580D02*
X148450476Y-101207200D01*
X148450476Y-101207200D02*
X148355238Y-101254819D01*
X148355238Y-101254819D02*
X148069524Y-101254819D01*
X148069524Y-101254819D02*
X147974286Y-101207200D01*
X147974286Y-101207200D02*
X147926667Y-101159580D01*
X164380833Y-133679580D02*
X164333214Y-133727200D01*
X164333214Y-133727200D02*
X164190357Y-133774819D01*
X164190357Y-133774819D02*
X164095119Y-133774819D01*
X164095119Y-133774819D02*
X163952262Y-133727200D01*
X163952262Y-133727200D02*
X163857024Y-133631961D01*
X163857024Y-133631961D02*
X163809405Y-133536723D01*
X163809405Y-133536723D02*
X163761786Y-133346247D01*
X163761786Y-133346247D02*
X163761786Y-133203390D01*
X163761786Y-133203390D02*
X163809405Y-133012914D01*
X163809405Y-133012914D02*
X163857024Y-132917676D01*
X163857024Y-132917676D02*
X163952262Y-132822438D01*
X163952262Y-132822438D02*
X164095119Y-132774819D01*
X164095119Y-132774819D02*
X164190357Y-132774819D01*
X164190357Y-132774819D02*
X164333214Y-132822438D01*
X164333214Y-132822438D02*
X164380833Y-132870057D01*
X165333214Y-133774819D02*
X164761786Y-133774819D01*
X165047500Y-133774819D02*
X165047500Y-132774819D01*
X165047500Y-132774819D02*
X164952262Y-132917676D01*
X164952262Y-132917676D02*
X164857024Y-133012914D01*
X164857024Y-133012914D02*
X164761786Y-133060533D01*
X142164761Y-67900651D02*
X141831428Y-67424460D01*
X141593333Y-67900651D02*
X141593333Y-66900651D01*
X141593333Y-66900651D02*
X141974285Y-66900651D01*
X141974285Y-66900651D02*
X142069523Y-66948270D01*
X142069523Y-66948270D02*
X142117142Y-66995889D01*
X142117142Y-66995889D02*
X142164761Y-67091127D01*
X142164761Y-67091127D02*
X142164761Y-67233984D01*
X142164761Y-67233984D02*
X142117142Y-67329222D01*
X142117142Y-67329222D02*
X142069523Y-67376841D01*
X142069523Y-67376841D02*
X141974285Y-67424460D01*
X141974285Y-67424460D02*
X141593333Y-67424460D01*
X142450476Y-66900651D02*
X142783809Y-67900651D01*
X142783809Y-67900651D02*
X143117142Y-66900651D01*
X143974285Y-67900651D02*
X143402857Y-67900651D01*
X143688571Y-67900651D02*
X143688571Y-66900651D01*
X143688571Y-66900651D02*
X143593333Y-67043508D01*
X143593333Y-67043508D02*
X143498095Y-67138746D01*
X143498095Y-67138746D02*
X143402857Y-67186365D01*
X141638095Y-113004819D02*
X141828571Y-113004819D01*
X141828571Y-113004819D02*
X141923809Y-113052438D01*
X141923809Y-113052438D02*
X142019047Y-113147676D01*
X142019047Y-113147676D02*
X142066666Y-113338152D01*
X142066666Y-113338152D02*
X142066666Y-113671485D01*
X142066666Y-113671485D02*
X142019047Y-113861961D01*
X142019047Y-113861961D02*
X141923809Y-113957200D01*
X141923809Y-113957200D02*
X141828571Y-114004819D01*
X141828571Y-114004819D02*
X141638095Y-114004819D01*
X141638095Y-114004819D02*
X141542857Y-113957200D01*
X141542857Y-113957200D02*
X141447619Y-113861961D01*
X141447619Y-113861961D02*
X141400000Y-113671485D01*
X141400000Y-113671485D02*
X141400000Y-113338152D01*
X141400000Y-113338152D02*
X141447619Y-113147676D01*
X141447619Y-113147676D02*
X141542857Y-113052438D01*
X141542857Y-113052438D02*
X141638095Y-113004819D01*
X142352381Y-113004819D02*
X142685714Y-114004819D01*
X142685714Y-114004819D02*
X143019047Y-113004819D01*
X143876190Y-113052438D02*
X143780952Y-113004819D01*
X143780952Y-113004819D02*
X143638095Y-113004819D01*
X143638095Y-113004819D02*
X143495238Y-113052438D01*
X143495238Y-113052438D02*
X143400000Y-113147676D01*
X143400000Y-113147676D02*
X143352381Y-113242914D01*
X143352381Y-113242914D02*
X143304762Y-113433390D01*
X143304762Y-113433390D02*
X143304762Y-113576247D01*
X143304762Y-113576247D02*
X143352381Y-113766723D01*
X143352381Y-113766723D02*
X143400000Y-113861961D01*
X143400000Y-113861961D02*
X143495238Y-113957200D01*
X143495238Y-113957200D02*
X143638095Y-114004819D01*
X143638095Y-114004819D02*
X143733333Y-114004819D01*
X143733333Y-114004819D02*
X143876190Y-113957200D01*
X143876190Y-113957200D02*
X143923809Y-113909580D01*
X143923809Y-113909580D02*
X143923809Y-113576247D01*
X143923809Y-113576247D02*
X143733333Y-113576247D01*
X144352381Y-114004819D02*
X144352381Y-113004819D01*
X112178095Y-155613904D02*
X112178095Y-154613904D01*
X112178095Y-154613904D02*
X112749523Y-155613904D01*
X112749523Y-155613904D02*
X112749523Y-154613904D01*
X113749523Y-155613904D02*
X113178095Y-155613904D01*
X113463809Y-155613904D02*
X113463809Y-154613904D01*
X113463809Y-154613904D02*
X113368571Y-154756761D01*
X113368571Y-154756761D02*
X113273333Y-154851999D01*
X113273333Y-154851999D02*
X113178095Y-154899618D01*
%TO.C,G\u002A\u002A\u002A*%
G36*
X157496649Y-87975475D02*
G01*
X157757741Y-88125185D01*
X157762483Y-88646574D01*
X157767225Y-89167962D01*
X158341769Y-89501096D01*
X158470048Y-89575394D01*
X158589425Y-89644383D01*
X158696555Y-89706139D01*
X158788092Y-89758742D01*
X158860688Y-89800268D01*
X158910999Y-89828795D01*
X158935677Y-89842401D01*
X158937257Y-89843169D01*
X158958514Y-89838039D01*
X159003831Y-89818116D01*
X159067758Y-89786091D01*
X159144842Y-89744651D01*
X159200612Y-89713258D01*
X159282487Y-89666641D01*
X159353591Y-89626687D01*
X159408772Y-89596249D01*
X159442879Y-89578177D01*
X159451393Y-89574409D01*
X159467093Y-89582770D01*
X159510132Y-89606950D01*
X159578156Y-89645591D01*
X159668814Y-89697338D01*
X159779752Y-89760834D01*
X159908617Y-89834723D01*
X160053057Y-89917647D01*
X160210718Y-90008251D01*
X160379248Y-90105178D01*
X160556293Y-90207072D01*
X160739502Y-90312575D01*
X160926520Y-90420332D01*
X161114996Y-90528987D01*
X161302576Y-90637182D01*
X161486907Y-90743561D01*
X161665637Y-90846767D01*
X161836412Y-90945445D01*
X161996880Y-91038238D01*
X162144689Y-91123788D01*
X162277484Y-91200741D01*
X162392913Y-91267739D01*
X162488624Y-91323425D01*
X162562263Y-91366444D01*
X162611477Y-91395439D01*
X162633915Y-91409053D01*
X162634988Y-91409817D01*
X162626639Y-91422622D01*
X162593487Y-91448268D01*
X162540785Y-91483064D01*
X162473783Y-91523320D01*
X162472058Y-91524314D01*
X162398878Y-91566473D01*
X162304618Y-91620831D01*
X162197893Y-91682416D01*
X162087318Y-91746258D01*
X161992788Y-91800866D01*
X161900223Y-91853792D01*
X161817070Y-91900269D01*
X161748117Y-91937708D01*
X161698156Y-91963517D01*
X161671976Y-91975105D01*
X161669938Y-91975489D01*
X161652801Y-91967071D01*
X161607748Y-91942491D01*
X161536553Y-91902764D01*
X161440992Y-91848902D01*
X161322839Y-91781920D01*
X161183871Y-91702830D01*
X161025862Y-91612646D01*
X160850586Y-91512381D01*
X160659821Y-91403049D01*
X160455339Y-91285663D01*
X160238918Y-91161236D01*
X160012331Y-91030782D01*
X159777354Y-90895314D01*
X159733976Y-90870287D01*
X159497412Y-90733827D01*
X159268778Y-90602032D01*
X159049860Y-90475928D01*
X158842449Y-90356542D01*
X158648333Y-90244900D01*
X158469301Y-90142029D01*
X158307142Y-90048956D01*
X158163643Y-89966707D01*
X158040595Y-89896308D01*
X157939785Y-89838787D01*
X157863003Y-89795170D01*
X157812038Y-89766482D01*
X157788677Y-89753752D01*
X157787574Y-89753247D01*
X157779043Y-89751416D01*
X157772287Y-89755392D01*
X157767145Y-89768564D01*
X157763457Y-89794319D01*
X157761063Y-89836047D01*
X157759802Y-89897134D01*
X157759514Y-89980970D01*
X157760039Y-90090943D01*
X157761216Y-90230440D01*
X157761848Y-90296768D01*
X157767225Y-90852126D01*
X157812157Y-90947938D01*
X157847802Y-91012226D01*
X157890643Y-91073522D01*
X157916344Y-91103005D01*
X157937703Y-91118235D01*
X157986157Y-91149030D01*
X158059070Y-91193850D01*
X158153804Y-91251155D01*
X158267723Y-91319404D01*
X158398191Y-91397056D01*
X158542572Y-91482570D01*
X158698228Y-91574406D01*
X158862524Y-91671023D01*
X159032822Y-91770881D01*
X159206487Y-91872438D01*
X159380882Y-91974155D01*
X159553370Y-92074491D01*
X159721316Y-92171904D01*
X159882082Y-92264855D01*
X160033032Y-92351802D01*
X160171529Y-92431206D01*
X160294938Y-92501525D01*
X160400621Y-92561218D01*
X160485942Y-92608746D01*
X160548265Y-92642567D01*
X160572228Y-92654991D01*
X160684046Y-92694075D01*
X160804741Y-92707026D01*
X160920839Y-92692427D01*
X160922931Y-92691869D01*
X160957874Y-92677849D01*
X161018896Y-92648226D01*
X161102551Y-92604854D01*
X161205391Y-92549586D01*
X161323969Y-92484276D01*
X161454838Y-92410777D01*
X161594550Y-92330943D01*
X161600379Y-92327584D01*
X161762578Y-92234064D01*
X161943456Y-92129771D01*
X162134232Y-92019769D01*
X162326124Y-91909119D01*
X162510353Y-91802885D01*
X162678137Y-91706131D01*
X162754762Y-91661944D01*
X163317450Y-91337450D01*
X163582277Y-91489202D01*
X163667399Y-91538461D01*
X163741083Y-91582020D01*
X163798597Y-91617009D01*
X163835215Y-91640556D01*
X163846398Y-91649578D01*
X163831872Y-91659705D01*
X163790702Y-91685008D01*
X163726022Y-91723644D01*
X163640968Y-91773768D01*
X163538675Y-91833536D01*
X163422278Y-91901105D01*
X163294912Y-91974629D01*
X163241840Y-92005154D01*
X163092668Y-92090914D01*
X162920838Y-92189784D01*
X162733391Y-92297711D01*
X162537364Y-92410638D01*
X162339798Y-92524510D01*
X162147731Y-92635271D01*
X161968202Y-92738867D01*
X161909089Y-92772995D01*
X161761314Y-92857966D01*
X161619707Y-92938704D01*
X161487606Y-93013354D01*
X161368348Y-93080061D01*
X161265270Y-93136971D01*
X161181709Y-93182227D01*
X161121001Y-93213976D01*
X161086485Y-93230362D01*
X161085861Y-93230608D01*
X160978794Y-93259937D01*
X160854200Y-93274636D01*
X160725229Y-93274462D01*
X160605036Y-93259174D01*
X160537043Y-93240734D01*
X160505402Y-93226269D01*
X160446193Y-93195719D01*
X160361494Y-93150249D01*
X160253385Y-93091021D01*
X160123947Y-93019202D01*
X159975258Y-92935956D01*
X159809398Y-92842446D01*
X159628447Y-92739837D01*
X159434484Y-92629294D01*
X159229589Y-92511980D01*
X159015841Y-92389061D01*
X159012257Y-92386996D01*
X158761872Y-92242628D01*
X158539446Y-92114150D01*
X158343187Y-92000377D01*
X158171304Y-91900125D01*
X158022006Y-91812208D01*
X157893502Y-91735443D01*
X157784000Y-91668645D01*
X157691711Y-91610628D01*
X157614841Y-91560208D01*
X157551601Y-91516202D01*
X157500199Y-91477423D01*
X157458844Y-91442687D01*
X157425746Y-91410811D01*
X157399111Y-91380608D01*
X157377151Y-91350895D01*
X157358073Y-91320487D01*
X157340087Y-91288198D01*
X157334197Y-91277139D01*
X157310128Y-91231092D01*
X157289962Y-91189387D01*
X157273352Y-91148581D01*
X157259953Y-91105230D01*
X157249422Y-91055892D01*
X157241412Y-90997123D01*
X157235578Y-90925482D01*
X157231576Y-90837524D01*
X157229061Y-90729807D01*
X157227687Y-90598888D01*
X157227109Y-90441324D01*
X157226984Y-90253672D01*
X157226982Y-90207235D01*
X157226982Y-89422790D01*
X156787866Y-89169511D01*
X156676472Y-89104779D01*
X156574991Y-89044886D01*
X156487180Y-88992123D01*
X156416796Y-88948780D01*
X156367596Y-88917150D01*
X156343339Y-88899523D01*
X156341497Y-88897332D01*
X156339288Y-88874387D01*
X156337966Y-88823539D01*
X156337588Y-88751178D01*
X156338210Y-88663691D01*
X156338986Y-88612146D01*
X156343728Y-88345859D01*
X156781067Y-88599157D01*
X157218407Y-88852455D01*
X157226982Y-88339110D01*
X157235557Y-87825765D01*
X157496649Y-87975475D01*
G37*
G36*
X157980592Y-85525094D02*
G01*
X158076375Y-85552201D01*
X158123393Y-85571359D01*
X158192353Y-85603829D01*
X158277430Y-85646449D01*
X158372803Y-85696062D01*
X158472650Y-85749508D01*
X158571147Y-85803627D01*
X158662471Y-85855259D01*
X158740801Y-85901246D01*
X158800314Y-85938427D01*
X158835187Y-85963643D01*
X158836062Y-85964427D01*
X158839466Y-85975669D01*
X158826960Y-85992418D01*
X158795221Y-86017160D01*
X158740929Y-86052380D01*
X158660760Y-86100566D01*
X158630255Y-86118455D01*
X158550048Y-86164629D01*
X158479557Y-86203946D01*
X158424379Y-86233381D01*
X158390112Y-86249910D01*
X158382337Y-86252404D01*
X158360934Y-86244388D01*
X158316216Y-86222099D01*
X158254360Y-86188781D01*
X158181540Y-86147677D01*
X158167955Y-86139824D01*
X158056814Y-86078150D01*
X157965273Y-86034868D01*
X157885625Y-86007614D01*
X157810163Y-85994021D01*
X157731180Y-85991726D01*
X157692000Y-85993780D01*
X157557895Y-86019152D01*
X157439012Y-86072457D01*
X157338023Y-86149705D01*
X157257598Y-86246906D01*
X157200409Y-86360071D01*
X157169126Y-86485211D01*
X157166421Y-86618336D01*
X157190835Y-86742360D01*
X157197280Y-86765647D01*
X157202394Y-86786737D01*
X157207275Y-86806316D01*
X157213024Y-86825074D01*
X157220738Y-86843696D01*
X157231517Y-86862871D01*
X157246459Y-86883286D01*
X157266663Y-86905629D01*
X157293227Y-86930587D01*
X157327252Y-86958848D01*
X157369835Y-86991100D01*
X157422075Y-87028029D01*
X157485072Y-87070323D01*
X157559923Y-87118670D01*
X157647728Y-87173758D01*
X157749586Y-87236273D01*
X157866596Y-87306904D01*
X157999855Y-87386338D01*
X158150464Y-87475262D01*
X158319520Y-87574365D01*
X158508124Y-87684333D01*
X158717373Y-87805853D01*
X158948366Y-87939615D01*
X159202202Y-88086304D01*
X159479981Y-88246610D01*
X159782800Y-88421218D01*
X160111759Y-88610817D01*
X160467957Y-88816094D01*
X160852491Y-89037737D01*
X160940081Y-89088233D01*
X164473100Y-91125110D01*
X164611227Y-91263027D01*
X164690436Y-91346885D01*
X164749287Y-91421691D01*
X164795642Y-91497897D01*
X164811701Y-91529574D01*
X164879916Y-91707415D01*
X164916408Y-91891389D01*
X164920846Y-92076871D01*
X164892901Y-92259240D01*
X164869523Y-92339503D01*
X164822948Y-92461308D01*
X164769746Y-92563219D01*
X164702473Y-92657144D01*
X164613681Y-92754989D01*
X164602809Y-92765972D01*
X164458281Y-92889057D01*
X164299937Y-92981263D01*
X164124995Y-93044189D01*
X164113622Y-93047142D01*
X164018509Y-93063432D01*
X163904231Y-93071073D01*
X163783529Y-93070211D01*
X163669140Y-93060990D01*
X163573805Y-93043557D01*
X163564119Y-93040882D01*
X163501440Y-93021198D01*
X163446250Y-93001254D01*
X163418339Y-92989134D01*
X163374021Y-92965517D01*
X163311085Y-92930730D01*
X163234544Y-92887670D01*
X163149410Y-92839232D01*
X163060697Y-92788312D01*
X162973416Y-92737809D01*
X162892579Y-92690617D01*
X162823199Y-92649634D01*
X162770289Y-92617756D01*
X162738860Y-92597879D01*
X162732316Y-92592707D01*
X162746332Y-92581113D01*
X162784270Y-92556592D01*
X162839964Y-92522690D01*
X162907248Y-92482951D01*
X162979958Y-92440922D01*
X163051928Y-92400148D01*
X163116991Y-92364174D01*
X163168984Y-92336546D01*
X163201740Y-92320808D01*
X163209165Y-92318501D01*
X163230932Y-92326781D01*
X163274312Y-92348948D01*
X163331656Y-92380987D01*
X163361183Y-92398270D01*
X163477315Y-92465299D01*
X163571664Y-92514691D01*
X163650313Y-92548805D01*
X163719348Y-92570002D01*
X163784854Y-92580642D01*
X163837870Y-92583134D01*
X163955221Y-92576544D01*
X164054008Y-92552747D01*
X164147160Y-92508123D01*
X164180205Y-92487327D01*
X164285692Y-92398349D01*
X164362682Y-92290825D01*
X164410339Y-92166492D01*
X164427825Y-92027089D01*
X164426676Y-91975283D01*
X164403894Y-91832656D01*
X164353061Y-91709558D01*
X164273949Y-91605460D01*
X164263838Y-91595461D01*
X164237722Y-91576012D01*
X164184319Y-91541083D01*
X164106142Y-91492182D01*
X164005703Y-91430816D01*
X163885513Y-91358493D01*
X163748084Y-91276721D01*
X163595930Y-91187009D01*
X163431561Y-91090863D01*
X163257491Y-90989793D01*
X163186807Y-90948957D01*
X162662515Y-90646472D01*
X162167220Y-90360678D01*
X161700191Y-90091151D01*
X161260699Y-89837468D01*
X160848014Y-89599206D01*
X160461405Y-89375940D01*
X160100143Y-89167249D01*
X159763497Y-88972707D01*
X159450738Y-88791892D01*
X159161135Y-88624381D01*
X158893959Y-88469750D01*
X158648479Y-88327575D01*
X158423966Y-88197433D01*
X158219689Y-88078901D01*
X158034918Y-87971555D01*
X157868924Y-87874972D01*
X157720976Y-87788729D01*
X157590344Y-87712401D01*
X157476299Y-87645566D01*
X157378110Y-87587801D01*
X157295047Y-87538681D01*
X157226381Y-87497783D01*
X157171381Y-87464685D01*
X157129316Y-87438962D01*
X157099459Y-87420191D01*
X157081077Y-87407948D01*
X157078422Y-87406031D01*
X156947852Y-87288553D01*
X156840016Y-87148095D01*
X156757065Y-86989115D01*
X156701150Y-86816073D01*
X156674424Y-86633428D01*
X156672364Y-86564483D01*
X156688230Y-86375412D01*
X156735583Y-86198811D01*
X156814992Y-86033295D01*
X156927025Y-85877477D01*
X156976783Y-85822085D01*
X157114481Y-85701121D01*
X157270037Y-85607267D01*
X157438940Y-85541629D01*
X157616675Y-85505316D01*
X157798730Y-85499435D01*
X157980592Y-85525094D01*
G37*
G36*
X160993119Y-85315031D02*
G01*
X161120162Y-85357452D01*
X161145982Y-85370772D01*
X161199310Y-85399996D01*
X161277952Y-85443875D01*
X161379712Y-85501162D01*
X161502394Y-85570607D01*
X161643802Y-85650964D01*
X161801742Y-85740982D01*
X161974016Y-85839416D01*
X162158430Y-85945015D01*
X162352788Y-86056533D01*
X162554894Y-86172720D01*
X162603661Y-86200788D01*
X162853031Y-86344367D01*
X163074482Y-86472039D01*
X163269812Y-86585028D01*
X163440815Y-86684564D01*
X163589289Y-86771871D01*
X163717029Y-86848176D01*
X163825833Y-86914707D01*
X163917497Y-86972689D01*
X163993816Y-87023349D01*
X164056588Y-87067914D01*
X164107608Y-87107610D01*
X164148674Y-87143663D01*
X164181581Y-87177301D01*
X164208126Y-87209750D01*
X164230105Y-87242236D01*
X164249315Y-87275987D01*
X164267552Y-87312227D01*
X164285004Y-87348800D01*
X164305864Y-87395483D01*
X164323408Y-87442539D01*
X164337919Y-87493321D01*
X164349678Y-87551181D01*
X164358968Y-87619473D01*
X164366070Y-87701547D01*
X164371266Y-87800759D01*
X164374838Y-87920459D01*
X164377069Y-88064002D01*
X164378240Y-88234739D01*
X164378633Y-88436023D01*
X164378641Y-88462106D01*
X164378771Y-89159189D01*
X164820399Y-89413963D01*
X165262026Y-89668737D01*
X165266748Y-89949435D01*
X165268185Y-90053944D01*
X165268186Y-90128690D01*
X165266386Y-90178197D01*
X165262419Y-90206986D01*
X165255920Y-90219581D01*
X165246524Y-90220504D01*
X165244908Y-90219941D01*
X165223474Y-90208930D01*
X165176521Y-90183058D01*
X165108199Y-90144670D01*
X165022662Y-90096114D01*
X164924061Y-90039735D01*
X164816548Y-89977880D01*
X164815178Y-89977089D01*
X164707667Y-89915221D01*
X164609097Y-89858829D01*
X164523602Y-89810252D01*
X164455318Y-89771829D01*
X164408379Y-89745900D01*
X164386919Y-89734803D01*
X164386816Y-89734762D01*
X164379531Y-89735683D01*
X164373771Y-89746923D01*
X164369364Y-89771873D01*
X164366138Y-89813923D01*
X164363923Y-89876463D01*
X164362546Y-89962883D01*
X164361836Y-90076573D01*
X164361622Y-90220923D01*
X164361621Y-90232871D01*
X164361204Y-90360828D01*
X164360026Y-90476899D01*
X164358193Y-90576871D01*
X164355812Y-90656536D01*
X164352989Y-90711682D01*
X164349833Y-90738100D01*
X164348758Y-90739797D01*
X164330381Y-90731293D01*
X164287543Y-90708264D01*
X164225363Y-90673558D01*
X164148956Y-90630025D01*
X164082924Y-90591857D01*
X163829953Y-90444768D01*
X163829953Y-89926293D01*
X163829953Y-89407819D01*
X163230793Y-89062480D01*
X162631633Y-88717141D01*
X162394702Y-88854155D01*
X162312936Y-88900775D01*
X162240903Y-88940597D01*
X162184092Y-88970681D01*
X162147998Y-88988090D01*
X162138499Y-88991230D01*
X162121765Y-88982871D01*
X162077709Y-88958687D01*
X162008692Y-88920037D01*
X161917077Y-88868280D01*
X161805226Y-88804776D01*
X161675504Y-88730884D01*
X161530271Y-88647963D01*
X161371891Y-88557373D01*
X161202727Y-88460473D01*
X161025140Y-88358622D01*
X160841495Y-88253180D01*
X160654153Y-88145506D01*
X160465477Y-88036959D01*
X160277830Y-87928899D01*
X160093575Y-87822685D01*
X159915074Y-87719676D01*
X159744690Y-87621232D01*
X159584785Y-87528712D01*
X159437723Y-87443476D01*
X159305865Y-87366882D01*
X159191575Y-87300290D01*
X159097216Y-87245059D01*
X159025149Y-87202549D01*
X158977738Y-87174119D01*
X158957346Y-87161129D01*
X158956880Y-87160728D01*
X158968536Y-87150095D01*
X159005732Y-87124906D01*
X159064248Y-87087663D01*
X159139867Y-87040871D01*
X159228370Y-86987032D01*
X159325539Y-86928651D01*
X159427155Y-86868230D01*
X159529001Y-86808275D01*
X159626858Y-86751287D01*
X159716508Y-86699772D01*
X159793731Y-86656232D01*
X159854312Y-86623171D01*
X159894029Y-86603093D01*
X159902495Y-86599492D01*
X159920745Y-86606640D01*
X159967349Y-86630345D01*
X160041032Y-86669886D01*
X160140516Y-86724542D01*
X160264525Y-86793592D01*
X160411782Y-86876314D01*
X160581010Y-86971989D01*
X160770932Y-87079895D01*
X160980272Y-87199310D01*
X161207753Y-87329515D01*
X161452098Y-87469787D01*
X161712031Y-87619407D01*
X161874811Y-87713290D01*
X163821378Y-88836769D01*
X163825916Y-88300905D01*
X163827063Y-88132192D01*
X163826909Y-87993794D01*
X163824763Y-87881733D01*
X163819937Y-87792028D01*
X163811741Y-87720699D01*
X163799486Y-87663767D01*
X163782483Y-87617251D01*
X163760041Y-87577172D01*
X163731472Y-87539550D01*
X163696087Y-87500405D01*
X163685295Y-87489080D01*
X163666195Y-87470793D01*
X163640794Y-87449775D01*
X163607191Y-87424874D01*
X163563485Y-87394939D01*
X163507776Y-87358819D01*
X163438162Y-87315362D01*
X163352745Y-87263417D01*
X163249623Y-87201833D01*
X163126895Y-87129458D01*
X162982660Y-87045140D01*
X162815019Y-86947729D01*
X162622071Y-86836073D01*
X162401915Y-86709021D01*
X162313618Y-86658131D01*
X162119270Y-86546323D01*
X161932298Y-86439094D01*
X161754990Y-86337737D01*
X161589637Y-86243546D01*
X161438527Y-86157814D01*
X161303949Y-86081834D01*
X161188193Y-86016900D01*
X161093548Y-85964305D01*
X161022302Y-85925342D01*
X160976746Y-85901304D01*
X160960854Y-85893863D01*
X160858073Y-85872307D01*
X160745505Y-85872642D01*
X160638457Y-85894164D01*
X160595961Y-85910667D01*
X160560451Y-85928837D01*
X160499454Y-85961882D01*
X160417150Y-86007461D01*
X160317719Y-86063232D01*
X160205342Y-86126856D01*
X160084199Y-86195989D01*
X159995691Y-86246829D01*
X159854617Y-86328084D01*
X159691796Y-86421863D01*
X159515206Y-86523570D01*
X159332827Y-86628610D01*
X159152636Y-86732389D01*
X158982610Y-86830311D01*
X158882527Y-86887950D01*
X158751600Y-86962977D01*
X158629669Y-87032126D01*
X158519980Y-87093611D01*
X158425776Y-87145646D01*
X158350301Y-87186445D01*
X158296800Y-87214222D01*
X158268516Y-87227191D01*
X158265107Y-87227883D01*
X158243217Y-87217323D01*
X158199339Y-87193439D01*
X158139207Y-87159578D01*
X158068557Y-87119088D01*
X157993124Y-87075317D01*
X157918643Y-87031611D01*
X157850850Y-86991317D01*
X157795479Y-86957784D01*
X157758266Y-86934358D01*
X157744946Y-86924387D01*
X157744985Y-86924321D01*
X157760423Y-86915020D01*
X157802556Y-86890324D01*
X157868371Y-86851983D01*
X157954855Y-86801746D01*
X158058993Y-86741362D01*
X158177772Y-86672580D01*
X158308179Y-86597150D01*
X158410372Y-86538094D01*
X158581903Y-86438991D01*
X158774594Y-86327642D01*
X158979913Y-86208977D01*
X159189330Y-86087929D01*
X159394314Y-85969427D01*
X159586333Y-85858403D01*
X159739541Y-85769803D01*
X159881746Y-85688050D01*
X160018352Y-85610453D01*
X160145764Y-85538988D01*
X160260386Y-85475630D01*
X160358624Y-85422355D01*
X160436883Y-85381139D01*
X160491568Y-85353957D01*
X160513329Y-85344543D01*
X160672384Y-85303348D01*
X160834371Y-85293554D01*
X160993119Y-85315031D01*
G37*
D12*
%TO.C,C2*%
X162000000Y-138000000D02*
X162000000Y-139200000D01*
X162650000Y-138600000D02*
X161350000Y-138600000D01*
X166050000Y-141450000D02*
X157950000Y-141450000D01*
X166050000Y-141490000D02*
X157950000Y-141490000D01*
X166050000Y-141530000D02*
X157950000Y-141530000D01*
X166049000Y-141570000D02*
X157951000Y-141570000D01*
X166047000Y-141610000D02*
X157953000Y-141610000D01*
X166046000Y-141650000D02*
X157954000Y-141650000D01*
X166043000Y-141690000D02*
X157957000Y-141690000D01*
X166041000Y-141730000D02*
X162980000Y-141730000D01*
X161020000Y-141730000D02*
X157959000Y-141730000D01*
X166038000Y-141770000D02*
X162980000Y-141770000D01*
X161020000Y-141770000D02*
X157962000Y-141770000D01*
X166035000Y-141810000D02*
X162980000Y-141810000D01*
X161020000Y-141810000D02*
X157965000Y-141810000D01*
X166031000Y-141850000D02*
X162980000Y-141850000D01*
X161020000Y-141850000D02*
X157969000Y-141850000D01*
X166027000Y-141890000D02*
X162980000Y-141890000D01*
X161020000Y-141890000D02*
X157973000Y-141890000D01*
X166022000Y-141930000D02*
X162980000Y-141930000D01*
X161020000Y-141930000D02*
X157978000Y-141930000D01*
X166017000Y-141970000D02*
X162980000Y-141970000D01*
X161020000Y-141970000D02*
X157983000Y-141970000D01*
X166012000Y-142010000D02*
X162980000Y-142010000D01*
X161020000Y-142010000D02*
X157988000Y-142010000D01*
X166006000Y-142050000D02*
X162980000Y-142050000D01*
X161020000Y-142050000D02*
X157994000Y-142050000D01*
X166000000Y-142090000D02*
X162980000Y-142090000D01*
X161020000Y-142090000D02*
X158000000Y-142090000D01*
X165994000Y-142130000D02*
X162980000Y-142130000D01*
X161020000Y-142130000D02*
X158006000Y-142130000D01*
X165987000Y-142171000D02*
X162980000Y-142171000D01*
X161020000Y-142171000D02*
X158013000Y-142171000D01*
X165979000Y-142211000D02*
X162980000Y-142211000D01*
X161020000Y-142211000D02*
X158021000Y-142211000D01*
X165971000Y-142251000D02*
X162980000Y-142251000D01*
X161020000Y-142251000D02*
X158029000Y-142251000D01*
X165963000Y-142291000D02*
X162980000Y-142291000D01*
X161020000Y-142291000D02*
X158037000Y-142291000D01*
X165955000Y-142331000D02*
X162980000Y-142331000D01*
X161020000Y-142331000D02*
X158045000Y-142331000D01*
X165946000Y-142371000D02*
X162980000Y-142371000D01*
X161020000Y-142371000D02*
X158054000Y-142371000D01*
X165936000Y-142411000D02*
X162980000Y-142411000D01*
X161020000Y-142411000D02*
X158064000Y-142411000D01*
X165926000Y-142451000D02*
X162980000Y-142451000D01*
X161020000Y-142451000D02*
X158074000Y-142451000D01*
X165916000Y-142491000D02*
X162980000Y-142491000D01*
X161020000Y-142491000D02*
X158084000Y-142491000D01*
X165905000Y-142531000D02*
X162980000Y-142531000D01*
X161020000Y-142531000D02*
X158095000Y-142531000D01*
X165894000Y-142571000D02*
X162980000Y-142571000D01*
X161020000Y-142571000D02*
X158106000Y-142571000D01*
X165883000Y-142611000D02*
X162980000Y-142611000D01*
X161020000Y-142611000D02*
X158117000Y-142611000D01*
X165870000Y-142651000D02*
X162980000Y-142651000D01*
X161020000Y-142651000D02*
X158130000Y-142651000D01*
X165858000Y-142691000D02*
X162980000Y-142691000D01*
X161020000Y-142691000D02*
X158142000Y-142691000D01*
X165845000Y-142731000D02*
X162980000Y-142731000D01*
X161020000Y-142731000D02*
X158155000Y-142731000D01*
X165832000Y-142771000D02*
X162980000Y-142771000D01*
X161020000Y-142771000D02*
X158168000Y-142771000D01*
X165818000Y-142811000D02*
X162980000Y-142811000D01*
X161020000Y-142811000D02*
X158182000Y-142811000D01*
X165803000Y-142851000D02*
X162980000Y-142851000D01*
X161020000Y-142851000D02*
X158197000Y-142851000D01*
X165789000Y-142891000D02*
X162980000Y-142891000D01*
X161020000Y-142891000D02*
X158211000Y-142891000D01*
X165773000Y-142931000D02*
X162980000Y-142931000D01*
X161020000Y-142931000D02*
X158227000Y-142931000D01*
X165758000Y-142971000D02*
X162980000Y-142971000D01*
X161020000Y-142971000D02*
X158242000Y-142971000D01*
X165741000Y-143011000D02*
X162980000Y-143011000D01*
X161020000Y-143011000D02*
X158259000Y-143011000D01*
X165725000Y-143051000D02*
X162980000Y-143051000D01*
X161020000Y-143051000D02*
X158275000Y-143051000D01*
X165707000Y-143091000D02*
X162980000Y-143091000D01*
X161020000Y-143091000D02*
X158293000Y-143091000D01*
X165690000Y-143131000D02*
X162980000Y-143131000D01*
X161020000Y-143131000D02*
X158310000Y-143131000D01*
X165671000Y-143171000D02*
X162980000Y-143171000D01*
X161020000Y-143171000D02*
X158329000Y-143171000D01*
X165652000Y-143211000D02*
X162980000Y-143211000D01*
X161020000Y-143211000D02*
X158348000Y-143211000D01*
X165633000Y-143251000D02*
X162980000Y-143251000D01*
X161020000Y-143251000D02*
X158367000Y-143251000D01*
X165613000Y-143291000D02*
X162980000Y-143291000D01*
X161020000Y-143291000D02*
X158387000Y-143291000D01*
X165593000Y-143331000D02*
X162980000Y-143331000D01*
X161020000Y-143331000D02*
X158407000Y-143331000D01*
X165572000Y-143371000D02*
X162980000Y-143371000D01*
X161020000Y-143371000D02*
X158428000Y-143371000D01*
X165550000Y-143411000D02*
X162980000Y-143411000D01*
X161020000Y-143411000D02*
X158450000Y-143411000D01*
X165528000Y-143451000D02*
X162980000Y-143451000D01*
X161020000Y-143451000D02*
X158472000Y-143451000D01*
X165505000Y-143491000D02*
X162980000Y-143491000D01*
X161020000Y-143491000D02*
X158495000Y-143491000D01*
X165482000Y-143531000D02*
X162980000Y-143531000D01*
X161020000Y-143531000D02*
X158518000Y-143531000D01*
X165458000Y-143571000D02*
X162980000Y-143571000D01*
X161020000Y-143571000D02*
X158542000Y-143571000D01*
X165434000Y-143611000D02*
X162980000Y-143611000D01*
X161020000Y-143611000D02*
X158566000Y-143611000D01*
X165408000Y-143651000D02*
X162980000Y-143651000D01*
X161020000Y-143651000D02*
X158592000Y-143651000D01*
X165383000Y-143691000D02*
X158617000Y-143691000D01*
X165356000Y-143731000D02*
X158644000Y-143731000D01*
X165329000Y-143771000D02*
X158671000Y-143771000D01*
X165301000Y-143811000D02*
X158699000Y-143811000D01*
X165272000Y-143851000D02*
X158728000Y-143851000D01*
X165243000Y-143891000D02*
X158757000Y-143891000D01*
X165213000Y-143931000D02*
X158787000Y-143931000D01*
X165182000Y-143971000D02*
X158818000Y-143971000D01*
X165150000Y-144011000D02*
X158850000Y-144011000D01*
X165118000Y-144051000D02*
X158882000Y-144051000D01*
X165084000Y-144091000D02*
X158916000Y-144091000D01*
X165050000Y-144131000D02*
X158950000Y-144131000D01*
X165015000Y-144171000D02*
X158985000Y-144171000D01*
X164979000Y-144211000D02*
X159021000Y-144211000D01*
X164942000Y-144251000D02*
X159058000Y-144251000D01*
X164904000Y-144291000D02*
X159096000Y-144291000D01*
X164865000Y-144331000D02*
X159135000Y-144331000D01*
X164824000Y-144371000D02*
X159176000Y-144371000D01*
X164783000Y-144411000D02*
X159217000Y-144411000D01*
X164740000Y-144451000D02*
X159260000Y-144451000D01*
X164697000Y-144491000D02*
X159303000Y-144491000D01*
X164652000Y-144531000D02*
X159348000Y-144531000D01*
X164605000Y-144571000D02*
X159395000Y-144571000D01*
X164557000Y-144611000D02*
X159443000Y-144611000D01*
X164508000Y-144651000D02*
X159492000Y-144651000D01*
X164457000Y-144691000D02*
X159543000Y-144691000D01*
X164404000Y-144731000D02*
X159596000Y-144731000D01*
X164349000Y-144771000D02*
X159651000Y-144771000D01*
X164293000Y-144811000D02*
X159707000Y-144811000D01*
X164234000Y-144851000D02*
X159766000Y-144851000D01*
X164173000Y-144891000D02*
X159827000Y-144891000D01*
X164109000Y-144931000D02*
X159891000Y-144931000D01*
X164043000Y-144971000D02*
X159957000Y-144971000D01*
X163974000Y-145011000D02*
X160026000Y-145011000D01*
X163902000Y-145051000D02*
X160098000Y-145051000D01*
X163826000Y-145091000D02*
X160174000Y-145091000D01*
X163745000Y-145131000D02*
X160255000Y-145131000D01*
X163660000Y-145171000D02*
X160340000Y-145171000D01*
X163570000Y-145211000D02*
X160430000Y-145211000D01*
X163473000Y-145251000D02*
X160527000Y-145251000D01*
X163369000Y-145291000D02*
X160631000Y-145291000D01*
X163254000Y-145331000D02*
X160746000Y-145331000D01*
X163127000Y-145371000D02*
X160873000Y-145371000D01*
X162983000Y-145411000D02*
X161017000Y-145411000D01*
X162814000Y-145451000D02*
X161186000Y-145451000D01*
X162598000Y-145491000D02*
X161402000Y-145491000D01*
X162246000Y-145531000D02*
X161754000Y-145531000D01*
X166090000Y-141450000D02*
G75*
G03*
X166090000Y-141450000I-4090000J0D01*
G01*
%TO.C,C4*%
X134998748Y-103315000D02*
X135521252Y-103315000D01*
X134998748Y-104785000D02*
X135521252Y-104785000D01*
%TO.C,C6*%
X158801000Y-77032000D02*
X158801000Y-78568000D01*
X150750302Y-75085000D02*
X150750302Y-75885000D01*
X158681000Y-76571000D02*
X158681000Y-79029000D01*
X155761000Y-73843000D02*
X155761000Y-76760000D01*
X156801000Y-74260000D02*
X156801000Y-76760000D01*
X156161000Y-73965000D02*
X156161000Y-76760000D01*
X157561000Y-74817000D02*
X157561000Y-80783000D01*
X155521000Y-78840000D02*
X155521000Y-81810000D01*
X156121000Y-73950000D02*
X156121000Y-76760000D01*
X156241000Y-73995000D02*
X156241000Y-76760000D01*
X158041000Y-75346000D02*
X158041000Y-80254000D01*
X158161000Y-75513000D02*
X158161000Y-80087000D01*
X158241000Y-75634000D02*
X158241000Y-79966000D01*
X156961000Y-74356000D02*
X156961000Y-76760000D01*
X155120000Y-78840000D02*
X155120000Y-81865000D01*
X155841000Y-73864000D02*
X155841000Y-76760000D01*
X158521000Y-76155000D02*
X158521000Y-79445000D01*
X155561000Y-73798000D02*
X155561000Y-76760000D01*
X155000000Y-73726000D02*
X155000000Y-76760000D01*
X156681000Y-74194000D02*
X156681000Y-76760000D01*
X156681000Y-78840000D02*
X156681000Y-81406000D01*
X158001000Y-75295000D02*
X158001000Y-80305000D01*
X155601000Y-73806000D02*
X155601000Y-76760000D01*
X156641000Y-78840000D02*
X156641000Y-81427000D01*
X156441000Y-78840000D02*
X156441000Y-81522000D01*
X157521000Y-74781000D02*
X157521000Y-80819000D01*
X156721000Y-74216000D02*
X156721000Y-76760000D01*
X156761000Y-74238000D02*
X156761000Y-76760000D01*
X154920000Y-73723000D02*
X154920000Y-81877000D01*
X155681000Y-78840000D02*
X155681000Y-81776000D01*
X156161000Y-78840000D02*
X156161000Y-81635000D01*
X156041000Y-73923000D02*
X156041000Y-76760000D01*
X155400000Y-73770000D02*
X155400000Y-76760000D01*
X157361000Y-74644000D02*
X157361000Y-80956000D01*
X155761000Y-78840000D02*
X155761000Y-81757000D01*
X155360000Y-78840000D02*
X155360000Y-81837000D01*
X155200000Y-78840000D02*
X155200000Y-81857000D01*
X158561000Y-76248000D02*
X158561000Y-79352000D01*
X155561000Y-78840000D02*
X155561000Y-81802000D01*
X157281000Y-74580000D02*
X157281000Y-81020000D01*
X155040000Y-78840000D02*
X155040000Y-81871000D01*
X158401000Y-75910000D02*
X158401000Y-79690000D01*
X155240000Y-73748000D02*
X155240000Y-76760000D01*
X157801000Y-75059000D02*
X157801000Y-80541000D01*
X157721000Y-74974000D02*
X157721000Y-80626000D01*
X156921000Y-74331000D02*
X156921000Y-76760000D01*
X158601000Y-76347000D02*
X158601000Y-79253000D01*
X157201000Y-74520000D02*
X157201000Y-81080000D01*
X157481000Y-74745000D02*
X157481000Y-80855000D01*
X158641000Y-76454000D02*
X158641000Y-79146000D01*
X157441000Y-74710000D02*
X157441000Y-80890000D01*
X156441000Y-74078000D02*
X156441000Y-76760000D01*
X155641000Y-73815000D02*
X155641000Y-76760000D01*
X156361000Y-74043000D02*
X156361000Y-76760000D01*
X155040000Y-73729000D02*
X155040000Y-76760000D01*
X158761000Y-76852000D02*
X158761000Y-78748000D01*
X155521000Y-73790000D02*
X155521000Y-76760000D01*
X155921000Y-73886000D02*
X155921000Y-76760000D01*
X155481000Y-78840000D02*
X155481000Y-81817000D01*
X155320000Y-73758000D02*
X155320000Y-76760000D01*
X154800000Y-73720000D02*
X154800000Y-81880000D01*
X156761000Y-78840000D02*
X156761000Y-81362000D01*
X155000000Y-78840000D02*
X155000000Y-81874000D01*
X157401000Y-74676000D02*
X157401000Y-80924000D01*
X156281000Y-74010000D02*
X156281000Y-76760000D01*
X156921000Y-78840000D02*
X156921000Y-81269000D01*
X157881000Y-75149000D02*
X157881000Y-80451000D01*
X154760000Y-73720000D02*
X154760000Y-81880000D01*
X156201000Y-73979000D02*
X156201000Y-76760000D01*
X156841000Y-78840000D02*
X156841000Y-81317000D01*
X155240000Y-78840000D02*
X155240000Y-81852000D01*
X157081000Y-74435000D02*
X157081000Y-81165000D01*
X155721000Y-78840000D02*
X155721000Y-81767000D01*
X156481000Y-74096000D02*
X156481000Y-76760000D01*
X155320000Y-78840000D02*
X155320000Y-81842000D01*
X157121000Y-74462000D02*
X157121000Y-81138000D01*
X154960000Y-73724000D02*
X154960000Y-81876000D01*
X156601000Y-74153000D02*
X156601000Y-76760000D01*
X157161000Y-74491000D02*
X157161000Y-81109000D01*
X155881000Y-78840000D02*
X155881000Y-81725000D01*
X156081000Y-73937000D02*
X156081000Y-76760000D01*
X157921000Y-75196000D02*
X157921000Y-80404000D01*
X155481000Y-73783000D02*
X155481000Y-76760000D01*
X156961000Y-78840000D02*
X156961000Y-81244000D01*
X155961000Y-78840000D02*
X155961000Y-81702000D01*
X157321000Y-74611000D02*
X157321000Y-80989000D01*
X156241000Y-78840000D02*
X156241000Y-81605000D01*
X155080000Y-73732000D02*
X155080000Y-76760000D01*
X158281000Y-75698000D02*
X158281000Y-79902000D01*
X156881000Y-78840000D02*
X156881000Y-81293000D01*
X156521000Y-74114000D02*
X156521000Y-76760000D01*
X155200000Y-73743000D02*
X155200000Y-76760000D01*
X156041000Y-78840000D02*
X156041000Y-81677000D01*
X155440000Y-73776000D02*
X155440000Y-76760000D01*
X158321000Y-75766000D02*
X158321000Y-79834000D01*
X156841000Y-74283000D02*
X156841000Y-76760000D01*
X155160000Y-73739000D02*
X155160000Y-76760000D01*
X156361000Y-78840000D02*
X156361000Y-81557000D01*
X156601000Y-78840000D02*
X156601000Y-81447000D01*
X158841000Y-77267000D02*
X158841000Y-78333000D01*
X156201000Y-78840000D02*
X156201000Y-81621000D01*
X156641000Y-74173000D02*
X156641000Y-76760000D01*
X157241000Y-74550000D02*
X157241000Y-81050000D01*
X155360000Y-73763000D02*
X155360000Y-76760000D01*
X156001000Y-78840000D02*
X156001000Y-81689000D01*
X156481000Y-78840000D02*
X156481000Y-81504000D01*
X158121000Y-75455000D02*
X158121000Y-80145000D01*
X156321000Y-74026000D02*
X156321000Y-76760000D01*
X157641000Y-74893000D02*
X157641000Y-80707000D01*
X157841000Y-75103000D02*
X157841000Y-80497000D01*
X155801000Y-78840000D02*
X155801000Y-81747000D01*
X156721000Y-78840000D02*
X156721000Y-81384000D01*
X155641000Y-78840000D02*
X155641000Y-81785000D01*
X155120000Y-73735000D02*
X155120000Y-76760000D01*
X158361000Y-75836000D02*
X158361000Y-79764000D01*
X155881000Y-73875000D02*
X155881000Y-76760000D01*
X156001000Y-73911000D02*
X156001000Y-76760000D01*
X157601000Y-74855000D02*
X157601000Y-80745000D01*
X157041000Y-78840000D02*
X157041000Y-81192000D01*
X157961000Y-75244000D02*
X157961000Y-80356000D01*
X156561000Y-74134000D02*
X156561000Y-76760000D01*
X156401000Y-74060000D02*
X156401000Y-76760000D01*
X155961000Y-73898000D02*
X155961000Y-76760000D01*
X155080000Y-78840000D02*
X155080000Y-81868000D01*
X155601000Y-78840000D02*
X155601000Y-81794000D01*
X155681000Y-73824000D02*
X155681000Y-76760000D01*
X155280000Y-78840000D02*
X155280000Y-81848000D01*
X156121000Y-78840000D02*
X156121000Y-81650000D01*
X158201000Y-75572000D02*
X158201000Y-80028000D01*
X155280000Y-73752000D02*
X155280000Y-76760000D01*
X156401000Y-78840000D02*
X156401000Y-81540000D01*
X156081000Y-78840000D02*
X156081000Y-81663000D01*
X155721000Y-73833000D02*
X155721000Y-76760000D01*
X155921000Y-78840000D02*
X155921000Y-81714000D01*
X156521000Y-78840000D02*
X156521000Y-81486000D01*
X158721000Y-76702000D02*
X158721000Y-78898000D01*
X157041000Y-74408000D02*
X157041000Y-76760000D01*
X158441000Y-75987000D02*
X158441000Y-79613000D01*
X150350302Y-75485000D02*
X151150302Y-75485000D01*
X156881000Y-74307000D02*
X156881000Y-76760000D01*
X154880000Y-73721000D02*
X154880000Y-81879000D01*
X156801000Y-78840000D02*
X156801000Y-81340000D01*
X157001000Y-78840000D02*
X157001000Y-81218000D01*
X155160000Y-78840000D02*
X155160000Y-81861000D01*
X156561000Y-78840000D02*
X156561000Y-81466000D01*
X155400000Y-78840000D02*
X155400000Y-81830000D01*
X154840000Y-73720000D02*
X154840000Y-81880000D01*
X155841000Y-78840000D02*
X155841000Y-81736000D01*
X157681000Y-74933000D02*
X157681000Y-80667000D01*
X157761000Y-75016000D02*
X157761000Y-80584000D01*
X155801000Y-73853000D02*
X155801000Y-76760000D01*
X158081000Y-75400000D02*
X158081000Y-80200000D01*
X156321000Y-78840000D02*
X156321000Y-81574000D01*
X155440000Y-78840000D02*
X155440000Y-81824000D01*
X157001000Y-74382000D02*
X157001000Y-76760000D01*
X158481000Y-76069000D02*
X158481000Y-79531000D01*
X156281000Y-78840000D02*
X156281000Y-81590000D01*
X158880000Y-77800000D02*
G75*
G03*
X158880000Y-77800000I-4120000J0D01*
G01*
%TO.C,C10*%
X133525000Y-80061252D02*
X133525000Y-79538748D01*
X134995000Y-80061252D02*
X134995000Y-79538748D01*
D11*
%TO.C,D1*%
X124000000Y-138770000D02*
X121000000Y-138770000D01*
X124024903Y-138754887D02*
G75*
G03*
X121000000Y-138769999I-1524903J2484887D01*
G01*
X125017936Y-136270000D02*
G75*
G03*
X125017936Y-136270000I-2517936J0D01*
G01*
D12*
%TO.C,D2*%
X159870000Y-55550000D02*
X159870000Y-53550000D01*
X159870000Y-55550000D02*
X155860000Y-55550000D01*
X159870000Y-53550000D02*
X155860000Y-53550000D01*
%TO.C,J1*%
X151930000Y-55820000D02*
X151930000Y-53220000D01*
X154590000Y-53220000D02*
X151930000Y-53220000D01*
X154590000Y-55820000D02*
X151930000Y-55820000D01*
X154590000Y-55820000D02*
X154590000Y-53220000D01*
X154590000Y-57090000D02*
X154590000Y-58420000D01*
X154590000Y-58420000D02*
X153260000Y-58420000D01*
%TO.C,IN1*%
X143625000Y-118145000D02*
X146545000Y-118145000D01*
X143625000Y-127045000D02*
X143625000Y-118145000D01*
X143625000Y-127085000D02*
X146545000Y-127085000D01*
X146545000Y-113395000D02*
X149175000Y-113395000D01*
X146545000Y-118145000D02*
X146545000Y-113395000D01*
X146545000Y-131835000D02*
X146545000Y-127085000D01*
X149175000Y-131835000D02*
X146545000Y-131835000D01*
X151975000Y-113395000D02*
X155575000Y-113395000D01*
X155575000Y-131835000D02*
X151975000Y-131835000D01*
X158275000Y-113395000D02*
X161875000Y-113395000D01*
X161875000Y-131835000D02*
X158275000Y-131835000D01*
X167395000Y-113395000D02*
X164675000Y-113395000D01*
X167395000Y-116795000D02*
X167395000Y-113395000D01*
X167395000Y-116795000D02*
X170395000Y-116795000D01*
X167395000Y-128435000D02*
X170395000Y-128435000D01*
X167395000Y-131835000D02*
X164675000Y-131835000D01*
X167395000Y-131835000D02*
X167395000Y-128435000D01*
X170395000Y-128435000D02*
X170395000Y-116795000D01*
%TO.C,OUT1*%
X141960000Y-127085000D02*
X139040000Y-127085000D01*
X141960000Y-118185000D02*
X141960000Y-127085000D01*
X141960000Y-118145000D02*
X139040000Y-118145000D01*
X139040000Y-131835000D02*
X136410000Y-131835000D01*
X139040000Y-127085000D02*
X139040000Y-131835000D01*
X139040000Y-113395000D02*
X139040000Y-118145000D01*
X136410000Y-113395000D02*
X139040000Y-113395000D01*
X133610000Y-131835000D02*
X130010000Y-131835000D01*
X130010000Y-113395000D02*
X133610000Y-113395000D01*
X127310000Y-131835000D02*
X123710000Y-131835000D01*
X123710000Y-113395000D02*
X127310000Y-113395000D01*
X118190000Y-131835000D02*
X120910000Y-131835000D01*
X118190000Y-128435000D02*
X118190000Y-131835000D01*
X118190000Y-128435000D02*
X115190000Y-128435000D01*
X118190000Y-116795000D02*
X115190000Y-116795000D01*
X118190000Y-113395000D02*
X120910000Y-113395000D01*
X118190000Y-113395000D02*
X118190000Y-116795000D01*
X115190000Y-116795000D02*
X115190000Y-128435000D01*
%TO.C,J4*%
X145470000Y-115480000D02*
X145470000Y-116810000D01*
X144140000Y-115480000D02*
X145470000Y-115480000D01*
X142870000Y-115480000D02*
X140270000Y-115480000D01*
X142870000Y-115480000D02*
X142870000Y-118140000D01*
X140270000Y-115480000D02*
X140270000Y-118140000D01*
X142870000Y-118140000D02*
X140270000Y-118140000D01*
%TO.C,Q1*%
X136070000Y-100800000D02*
X136070000Y-101450000D01*
X132950000Y-100800000D02*
X132950000Y-101450000D01*
X136070000Y-100800000D02*
X136070000Y-99125000D01*
X132950000Y-100800000D02*
X132950000Y-100150000D01*
%TO.C,Q3*%
X127320000Y-87000000D02*
X131170000Y-87000000D01*
X126937369Y-86422045D02*
G75*
G03*
X127320000Y-87000000I2322631J1122045D01*
G01*
X131616400Y-84201193D02*
G75*
G03*
X129260000Y-82700000I-2356400J-1098807D01*
G01*
X131169999Y-86999999D02*
G75*
G03*
X131562382Y-86412264I-1909999J1699999D01*
G01*
X129260000Y-82700001D02*
G75*
G03*
X126903601Y-84201193I0J-2599999D01*
G01*
%TO.C,R1*%
X156235000Y-143322936D02*
X156235000Y-143777064D01*
X154765000Y-143322936D02*
X154765000Y-143777064D01*
%TO.C,R2*%
X126782936Y-138065000D02*
X127237064Y-138065000D01*
X126782936Y-139535000D02*
X127237064Y-139535000D01*
%TO.C,R3*%
X131745000Y-135910436D02*
X131745000Y-136364564D01*
X130275000Y-135910436D02*
X130275000Y-136364564D01*
%TO.C,R28*%
X124745000Y-70072936D02*
X124745000Y-70527064D01*
X123275000Y-70072936D02*
X123275000Y-70527064D01*
%TO.C,R29*%
X157487064Y-56065000D02*
X157032936Y-56065000D01*
X157487064Y-57535000D02*
X157032936Y-57535000D01*
%TO.C,R30*%
X153987064Y-71035000D02*
X153532936Y-71035000D01*
X153987064Y-69565000D02*
X153532936Y-69565000D01*
D11*
%TO.C,SW99*%
X152250000Y-151175000D02*
X152250000Y-133875000D01*
X152250000Y-151175000D02*
X134250000Y-151175000D01*
X134250000Y-151175000D02*
X134250000Y-133875000D01*
X134250000Y-133875000D02*
X152150000Y-133875000D01*
D12*
%TO.C,C14*%
X163492000Y-69759000D02*
X165028000Y-69759000D01*
X161545000Y-77809698D02*
X162345000Y-77809698D01*
X163031000Y-69879000D02*
X165489000Y-69879000D01*
X160303000Y-72799000D02*
X163220000Y-72799000D01*
X160720000Y-71759000D02*
X163220000Y-71759000D01*
X160425000Y-72399000D02*
X163220000Y-72399000D01*
X161277000Y-70999000D02*
X167243000Y-70999000D01*
X165300000Y-73039000D02*
X168270000Y-73039000D01*
X160410000Y-72439000D02*
X163220000Y-72439000D01*
X160455000Y-72319000D02*
X163220000Y-72319000D01*
X161806000Y-70519000D02*
X166714000Y-70519000D01*
X161973000Y-70399000D02*
X166547000Y-70399000D01*
X162094000Y-70319000D02*
X166426000Y-70319000D01*
X160816000Y-71599000D02*
X163220000Y-71599000D01*
X165300000Y-73440000D02*
X168325000Y-73440000D01*
X160324000Y-72719000D02*
X163220000Y-72719000D01*
X162615000Y-70039000D02*
X165905000Y-70039000D01*
X160258000Y-72999000D02*
X163220000Y-72999000D01*
X160186000Y-73560000D02*
X163220000Y-73560000D01*
X160654000Y-71879000D02*
X163220000Y-71879000D01*
X165300000Y-71879000D02*
X167866000Y-71879000D01*
X161755000Y-70559000D02*
X166765000Y-70559000D01*
X160266000Y-72959000D02*
X163220000Y-72959000D01*
X165300000Y-71919000D02*
X167887000Y-71919000D01*
X165300000Y-72119000D02*
X167982000Y-72119000D01*
X161241000Y-71039000D02*
X167279000Y-71039000D01*
X160676000Y-71839000D02*
X163220000Y-71839000D01*
X160698000Y-71799000D02*
X163220000Y-71799000D01*
X160183000Y-73640000D02*
X168337000Y-73640000D01*
X165300000Y-72879000D02*
X168236000Y-72879000D01*
X165300000Y-72399000D02*
X168095000Y-72399000D01*
X160383000Y-72519000D02*
X163220000Y-72519000D01*
X160230000Y-73160000D02*
X163220000Y-73160000D01*
X161104000Y-71199000D02*
X167416000Y-71199000D01*
X165300000Y-72799000D02*
X168217000Y-72799000D01*
X165300000Y-73200000D02*
X168297000Y-73200000D01*
X165300000Y-73360000D02*
X168317000Y-73360000D01*
X162708000Y-69999000D02*
X165812000Y-69999000D01*
X165300000Y-72999000D02*
X168262000Y-72999000D01*
X161040000Y-71279000D02*
X167480000Y-71279000D01*
X165300000Y-73520000D02*
X168331000Y-73520000D01*
X162370000Y-70159000D02*
X166150000Y-70159000D01*
X160208000Y-73320000D02*
X163220000Y-73320000D01*
X161519000Y-70759000D02*
X167001000Y-70759000D01*
X161434000Y-70839000D02*
X167086000Y-70839000D01*
X160791000Y-71639000D02*
X163220000Y-71639000D01*
X162807000Y-69959000D02*
X165713000Y-69959000D01*
X160980000Y-71359000D02*
X167540000Y-71359000D01*
X161205000Y-71079000D02*
X167315000Y-71079000D01*
X162914000Y-69919000D02*
X165606000Y-69919000D01*
X161170000Y-71119000D02*
X167350000Y-71119000D01*
X160538000Y-72119000D02*
X163220000Y-72119000D01*
X160275000Y-72919000D02*
X163220000Y-72919000D01*
X160503000Y-72199000D02*
X163220000Y-72199000D01*
X160189000Y-73520000D02*
X163220000Y-73520000D01*
X163312000Y-69799000D02*
X165208000Y-69799000D01*
X160250000Y-73039000D02*
X163220000Y-73039000D01*
X160346000Y-72639000D02*
X163220000Y-72639000D01*
X165300000Y-73079000D02*
X168277000Y-73079000D01*
X160218000Y-73240000D02*
X163220000Y-73240000D01*
X160180000Y-73760000D02*
X168340000Y-73760000D01*
X165300000Y-71799000D02*
X167822000Y-71799000D01*
X165300000Y-73560000D02*
X168334000Y-73560000D01*
X161136000Y-71159000D02*
X167384000Y-71159000D01*
X160470000Y-72279000D02*
X163220000Y-72279000D01*
X165300000Y-71639000D02*
X167729000Y-71639000D01*
X161609000Y-70679000D02*
X166911000Y-70679000D01*
X160180000Y-73800000D02*
X168340000Y-73800000D01*
X160439000Y-72359000D02*
X163220000Y-72359000D01*
X165300000Y-71719000D02*
X167777000Y-71719000D01*
X165300000Y-73320000D02*
X168312000Y-73320000D01*
X160895000Y-71479000D02*
X167625000Y-71479000D01*
X165300000Y-72839000D02*
X168227000Y-72839000D01*
X160556000Y-72079000D02*
X163220000Y-72079000D01*
X165300000Y-73240000D02*
X168302000Y-73240000D01*
X160922000Y-71439000D02*
X167598000Y-71439000D01*
X160184000Y-73600000D02*
X168336000Y-73600000D01*
X160613000Y-71959000D02*
X163220000Y-71959000D01*
X160951000Y-71399000D02*
X167569000Y-71399000D01*
X165300000Y-72679000D02*
X168185000Y-72679000D01*
X160397000Y-72479000D02*
X163220000Y-72479000D01*
X161656000Y-70639000D02*
X166864000Y-70639000D01*
X160243000Y-73079000D02*
X163220000Y-73079000D01*
X165300000Y-71599000D02*
X167704000Y-71599000D01*
X165300000Y-72599000D02*
X168162000Y-72599000D01*
X161071000Y-71239000D02*
X167449000Y-71239000D01*
X165300000Y-72319000D02*
X168065000Y-72319000D01*
X160192000Y-73480000D02*
X163220000Y-73480000D01*
X162158000Y-70279000D02*
X166362000Y-70279000D01*
X165300000Y-71679000D02*
X167753000Y-71679000D01*
X160574000Y-72039000D02*
X163220000Y-72039000D01*
X160203000Y-73360000D02*
X163220000Y-73360000D01*
X165300000Y-72519000D02*
X168137000Y-72519000D01*
X160236000Y-73120000D02*
X163220000Y-73120000D01*
X162226000Y-70239000D02*
X166294000Y-70239000D01*
X160743000Y-71719000D02*
X163220000Y-71719000D01*
X160199000Y-73400000D02*
X163220000Y-73400000D01*
X165300000Y-72199000D02*
X168017000Y-72199000D01*
X165300000Y-71959000D02*
X167907000Y-71959000D01*
X163727000Y-69719000D02*
X164793000Y-69719000D01*
X165300000Y-72359000D02*
X168081000Y-72359000D01*
X160633000Y-71919000D02*
X163220000Y-71919000D01*
X161010000Y-71319000D02*
X167510000Y-71319000D01*
X160223000Y-73200000D02*
X163220000Y-73200000D01*
X165300000Y-72559000D02*
X168149000Y-72559000D01*
X165300000Y-72079000D02*
X167964000Y-72079000D01*
X161915000Y-70439000D02*
X166605000Y-70439000D01*
X160486000Y-72239000D02*
X163220000Y-72239000D01*
X161353000Y-70919000D02*
X167167000Y-70919000D01*
X161563000Y-70719000D02*
X166957000Y-70719000D01*
X165300000Y-72759000D02*
X168207000Y-72759000D01*
X165300000Y-71839000D02*
X167844000Y-71839000D01*
X165300000Y-72919000D02*
X168245000Y-72919000D01*
X160195000Y-73440000D02*
X163220000Y-73440000D01*
X162296000Y-70199000D02*
X166224000Y-70199000D01*
X160335000Y-72679000D02*
X163220000Y-72679000D01*
X160371000Y-72559000D02*
X163220000Y-72559000D01*
X161315000Y-70959000D02*
X167205000Y-70959000D01*
X165300000Y-71519000D02*
X167652000Y-71519000D01*
X161704000Y-70599000D02*
X166816000Y-70599000D01*
X160594000Y-71999000D02*
X163220000Y-71999000D01*
X160520000Y-72159000D02*
X163220000Y-72159000D01*
X160358000Y-72599000D02*
X163220000Y-72599000D01*
X165300000Y-73480000D02*
X168328000Y-73480000D01*
X165300000Y-72959000D02*
X168254000Y-72959000D01*
X160284000Y-72879000D02*
X163220000Y-72879000D01*
X165300000Y-73280000D02*
X168308000Y-73280000D01*
X165300000Y-72439000D02*
X168110000Y-72439000D01*
X162032000Y-70359000D02*
X166488000Y-70359000D01*
X160212000Y-73280000D02*
X163220000Y-73280000D01*
X165300000Y-72159000D02*
X168000000Y-72159000D01*
X165300000Y-72479000D02*
X168123000Y-72479000D01*
X160293000Y-72839000D02*
X163220000Y-72839000D01*
X165300000Y-72639000D02*
X168174000Y-72639000D01*
X165300000Y-72039000D02*
X167946000Y-72039000D01*
X163162000Y-69839000D02*
X165358000Y-69839000D01*
X160868000Y-71519000D02*
X163220000Y-71519000D01*
X162447000Y-70119000D02*
X166073000Y-70119000D01*
X161945000Y-78209698D02*
X161945000Y-77409698D01*
X160767000Y-71679000D02*
X163220000Y-71679000D01*
X160181000Y-73680000D02*
X168339000Y-73680000D01*
X165300000Y-71759000D02*
X167800000Y-71759000D01*
X165300000Y-71559000D02*
X167678000Y-71559000D01*
X165300000Y-73400000D02*
X168321000Y-73400000D01*
X165300000Y-71999000D02*
X167926000Y-71999000D01*
X165300000Y-73160000D02*
X168290000Y-73160000D01*
X160180000Y-73720000D02*
X168340000Y-73720000D01*
X165300000Y-72719000D02*
X168196000Y-72719000D01*
X161393000Y-70879000D02*
X167127000Y-70879000D01*
X161476000Y-70799000D02*
X167044000Y-70799000D01*
X160313000Y-72759000D02*
X163220000Y-72759000D01*
X161860000Y-70479000D02*
X166660000Y-70479000D01*
X165300000Y-72239000D02*
X168034000Y-72239000D01*
X165300000Y-73120000D02*
X168284000Y-73120000D01*
X160842000Y-71559000D02*
X163220000Y-71559000D01*
X162529000Y-70079000D02*
X165991000Y-70079000D01*
X165300000Y-72279000D02*
X168050000Y-72279000D01*
X168380000Y-73800000D02*
G75*
G03*
X168380000Y-73800000I-4120000J0D01*
G01*
%TO.C,RT1*%
X161855000Y-69170000D02*
X152085000Y-69170000D01*
X152085000Y-59400000D02*
X152085000Y-69170000D01*
X161855000Y-59400000D02*
X152085000Y-59400000D01*
X161855000Y-59400000D02*
X161855000Y-69170000D01*
%TO.C,U3*%
X134320000Y-71050000D02*
X134320000Y-73000000D01*
X129200000Y-71050000D02*
X129200000Y-74500000D01*
X134320000Y-71050000D02*
X134320000Y-69100000D01*
X129200000Y-71050000D02*
X129200000Y-69100000D01*
%TO.C,U2*%
X134185000Y-92025000D02*
X134185000Y-93975000D01*
X129065000Y-92025000D02*
X129065000Y-95475000D01*
X134185000Y-92025000D02*
X134185000Y-90075000D01*
X129065000Y-92025000D02*
X129065000Y-90075000D01*
%TO.C,U1*%
X145570000Y-93550000D02*
X145570000Y-95500000D01*
X140450000Y-93550000D02*
X140450000Y-97000000D01*
X145570000Y-93550000D02*
X145570000Y-91600000D01*
X140450000Y-93550000D02*
X140450000Y-91600000D01*
%TO.C,SW2*%
X124455000Y-87065000D02*
X124455000Y-101035000D01*
X115565000Y-87065000D02*
X124455000Y-87065000D01*
X120010000Y-90875000D02*
X123185000Y-92145000D01*
X123185000Y-92145000D02*
X123185000Y-95955000D01*
X116835000Y-92145000D02*
X120010000Y-90875000D01*
X123185000Y-95955000D02*
X120010000Y-97225000D01*
X116835000Y-95955000D02*
X116835000Y-92145000D01*
X120010000Y-97225000D02*
X116835000Y-95955000D01*
X124455000Y-101035000D02*
X115565000Y-101035000D01*
X115565000Y-101035000D02*
X115565000Y-87065000D01*
X123712654Y-94050000D02*
G75*
G03*
X123712654Y-94050000I-3702654J0D01*
G01*
%TO.C,R27*%
X133237064Y-65065000D02*
X132782936Y-65065000D01*
X133237064Y-66535000D02*
X132782936Y-66535000D01*
%TO.C,R26*%
X137900835Y-65869718D02*
X137579718Y-66190835D01*
X138940282Y-66909165D02*
X138619165Y-67230282D01*
%TO.C,R25*%
X128782936Y-66535000D02*
X129237064Y-66535000D01*
X128782936Y-65065000D02*
X129237064Y-65065000D01*
%TO.C,R24*%
X125275000Y-72572936D02*
X125275000Y-73027064D01*
X126745000Y-72572936D02*
X126745000Y-73027064D01*
%TO.C,R23*%
X131032936Y-77535000D02*
X131487064Y-77535000D01*
X131032936Y-76065000D02*
X131487064Y-76065000D01*
%TO.C,R22*%
X126987064Y-76065000D02*
X126532936Y-76065000D01*
X126987064Y-77535000D02*
X126532936Y-77535000D01*
%TO.C,R21*%
X126495000Y-90277064D02*
X126495000Y-89822936D01*
X125025000Y-90277064D02*
X125025000Y-89822936D01*
%TO.C,R20*%
X123525000Y-83822936D02*
X123525000Y-84277064D01*
X124995000Y-83822936D02*
X124995000Y-84277064D01*
%TO.C,R19*%
X126495000Y-94027064D02*
X126495000Y-93572936D01*
X125025000Y-94027064D02*
X125025000Y-93572936D01*
%TO.C,R18*%
X133737064Y-96315000D02*
X133282936Y-96315000D01*
X133737064Y-97785000D02*
X133282936Y-97785000D01*
%TO.C,R17*%
X139995000Y-94777064D02*
X139995000Y-94322936D01*
X138525000Y-94777064D02*
X138525000Y-94322936D01*
%TO.C,R16*%
X129987064Y-96315000D02*
X129532936Y-96315000D01*
X129987064Y-97785000D02*
X129532936Y-97785000D01*
%TO.C,R15*%
X153532936Y-73285000D02*
X153987064Y-73285000D01*
X153532936Y-71815000D02*
X153987064Y-71815000D01*
%TO.C,R14*%
X145032936Y-83285000D02*
X145487064Y-83285000D01*
X145032936Y-81815000D02*
X145487064Y-81815000D01*
%TO.C,R13*%
X145282936Y-87285000D02*
X145737064Y-87285000D01*
X145282936Y-85815000D02*
X145737064Y-85815000D01*
%TO.C,R12*%
X149495000Y-94027064D02*
X149495000Y-93572936D01*
X148025000Y-94027064D02*
X148025000Y-93572936D01*
%TO.C,R11*%
X146025000Y-93572936D02*
X146025000Y-94027064D01*
X147495000Y-93572936D02*
X147495000Y-94027064D01*
%TO.C,R10*%
X140487064Y-102065000D02*
X140032936Y-102065000D01*
X140487064Y-103535000D02*
X140032936Y-103535000D01*
%TO.C,R9*%
X139025000Y-99572936D02*
X139025000Y-100027064D01*
X140495000Y-99572936D02*
X140495000Y-100027064D01*
%TO.C,R8*%
X135032936Y-106785000D02*
X135487064Y-106785000D01*
X135032936Y-105315000D02*
X135487064Y-105315000D01*
%TO.C,R7*%
X136525000Y-100322936D02*
X136525000Y-100777064D01*
X137995000Y-100322936D02*
X137995000Y-100777064D01*
%TO.C,R6*%
X141025000Y-99572936D02*
X141025000Y-100027064D01*
X142495000Y-99572936D02*
X142495000Y-100027064D01*
%TO.C,R5*%
X144532936Y-99535000D02*
X144987064Y-99535000D01*
X144532936Y-98065000D02*
X144987064Y-98065000D01*
%TO.C,R4*%
X144987064Y-103535000D02*
X144532936Y-103535000D01*
X144987064Y-102065000D02*
X144532936Y-102065000D01*
%TO.C,Q5*%
X127310000Y-64700000D02*
X131160000Y-64700000D01*
X126927369Y-64122045D02*
G75*
G03*
X127310000Y-64700000I2322631J1122045D01*
G01*
X131606400Y-61901193D02*
G75*
G03*
X129250000Y-60400000I-2356400J-1098807D01*
G01*
X131159999Y-64699999D02*
G75*
G03*
X131552382Y-64112264I-1909999J1699999D01*
G01*
X129250000Y-60400001D02*
G75*
G03*
X126893601Y-61901193I0J-2599999D01*
G01*
%TO.C,Q4*%
X127310000Y-82250000D02*
X131160000Y-82250000D01*
X126927369Y-81672045D02*
G75*
G03*
X127310000Y-82250000I2322631J1122045D01*
G01*
X131606400Y-79451193D02*
G75*
G03*
X129250000Y-77950000I-2356400J-1098807D01*
G01*
X131159999Y-82249999D02*
G75*
G03*
X131552382Y-81662264I-1909999J1699999D01*
G01*
X129250000Y-77950001D02*
G75*
G03*
X126893601Y-79451193I0J-2599999D01*
G01*
%TO.C,Q2*%
X129250000Y-98150001D02*
G75*
G03*
X126893601Y-99651193I0J-2599999D01*
G01*
X131159999Y-102449999D02*
G75*
G03*
X131552382Y-101862264I-1909999J1699999D01*
G01*
X131606400Y-99651193D02*
G75*
G03*
X129250000Y-98150000I-2356400J-1098807D01*
G01*
X126927369Y-101872045D02*
G75*
G03*
X127310000Y-102450000I2322631J1122045D01*
G01*
X127310000Y-102450000D02*
X131160000Y-102450000D01*
%TO.C,D3*%
X162900000Y-64300000D02*
X162900000Y-68710000D01*
X162900000Y-68710000D02*
X165120000Y-68710000D01*
X165120000Y-68710000D02*
X165120000Y-64300000D01*
%TO.C,C11*%
X128745000Y-72061252D02*
X128745000Y-71538748D01*
X127275000Y-72061252D02*
X127275000Y-71538748D01*
%TO.C,C9*%
X128495000Y-94098752D02*
X128495000Y-93576248D01*
X127025000Y-94098752D02*
X127025000Y-93576248D01*
%TO.C,C8*%
X130536248Y-104535000D02*
X131058752Y-104535000D01*
X130536248Y-103065000D02*
X131058752Y-103065000D01*
%TO.C,C7*%
X137995000Y-94848752D02*
X137995000Y-94326248D01*
X136525000Y-94848752D02*
X136525000Y-94326248D01*
%TO.C,C5*%
X142961248Y-89285000D02*
X143483752Y-89285000D01*
X142961248Y-87815000D02*
X143483752Y-87815000D01*
%TO.C,C3*%
X145021252Y-101535000D02*
X144498748Y-101535000D01*
X145021252Y-100065000D02*
X144498748Y-100065000D01*
%TO.C,C1*%
X164286248Y-135735000D02*
X164808752Y-135735000D01*
X164286248Y-134265000D02*
X164808752Y-134265000D01*
%TO.C,JOVGI1*%
X148030000Y-110020000D02*
X148030000Y-111350000D01*
X146700000Y-110020000D02*
X148030000Y-110020000D01*
X145430000Y-110020000D02*
X137750000Y-110020000D01*
X145430000Y-110020000D02*
X145430000Y-112680000D01*
X137750000Y-110020000D02*
X137750000Y-112680000D01*
X145430000Y-112680000D02*
X137750000Y-112680000D01*
%TO.C,JOVGI2*%
X148030000Y-104470000D02*
X148030000Y-105800000D01*
X146700000Y-104470000D02*
X148030000Y-104470000D01*
X145430000Y-104470000D02*
X137750000Y-104470000D01*
X145430000Y-104470000D02*
X145430000Y-107130000D01*
X137750000Y-104470000D02*
X137750000Y-107130000D01*
X145430000Y-107130000D02*
X137750000Y-107130000D01*
%TD*%
D13*
%TO.C,D1*%
X122500000Y-137540000D03*
D14*
X122500000Y-135000000D03*
%TD*%
D15*
%TO.C,SW99*%
X148550000Y-137825000D03*
D16*
X143250000Y-137825000D03*
X137950000Y-137825000D03*
X148550000Y-142525000D03*
X143250000Y-142550000D03*
X137950000Y-142525000D03*
X148550000Y-147225000D03*
X143250000Y-147225000D03*
X137950000Y-147225000D03*
%TD*%
%LPC*%
D17*
%TO.C,C2*%
X162000000Y-140200000D03*
D18*
X162000000Y-142700000D03*
%TD*%
D19*
%TO.C,C4*%
X134222500Y-104050000D03*
X136297500Y-104050000D03*
%TD*%
D20*
%TO.C,C6*%
X153510000Y-77800000D03*
D18*
X156010000Y-77800000D03*
%TD*%
D21*
%TO.C,C10*%
X134260000Y-80837500D03*
X134260000Y-78762500D03*
%TD*%
D22*
%TO.C,D1*%
X122500000Y-137540000D03*
D23*
X122500000Y-135000000D03*
%TD*%
D24*
%TO.C,D2*%
X155860000Y-54550000D03*
X159160000Y-54550000D03*
%TD*%
D25*
%TO.C,J1*%
X153260000Y-54550000D03*
D26*
X153260000Y-57090000D03*
%TD*%
D27*
%TO.C,IN1*%
X156925000Y-114500000D03*
X156925000Y-130730000D03*
X163275000Y-114500000D03*
X163275000Y-130730000D03*
X150575000Y-114500000D03*
X150575000Y-130730000D03*
%TD*%
%TO.C,OUT1*%
X128660000Y-130730000D03*
X128660000Y-114500000D03*
X122310000Y-130730000D03*
X122310000Y-114500000D03*
X135010000Y-130730000D03*
X135010000Y-114500000D03*
%TD*%
D28*
%TO.C,J4*%
X144140000Y-116810000D03*
D25*
X141600000Y-116810000D03*
%TD*%
D29*
%TO.C,Q1*%
X135460000Y-99862500D03*
X133560000Y-99862500D03*
X134510000Y-101737500D03*
%TD*%
D30*
%TO.C,Q3*%
X126720000Y-85300000D03*
D14*
X129260000Y-85300000D03*
X131800000Y-85300000D03*
%TD*%
D31*
%TO.C,R1*%
X155500000Y-142637500D03*
X155500000Y-144462500D03*
%TD*%
D32*
%TO.C,R2*%
X126097500Y-138800000D03*
X127922500Y-138800000D03*
%TD*%
D31*
%TO.C,R3*%
X131010000Y-135225000D03*
X131010000Y-137050000D03*
%TD*%
D33*
%TO.C,R28*%
X124010000Y-69300000D03*
X124010000Y-71300000D03*
%TD*%
D34*
%TO.C,R29*%
X156260000Y-56800000D03*
X158260000Y-56800000D03*
%TD*%
%TO.C,R30*%
X154760000Y-70300000D03*
X152760000Y-70300000D03*
%TD*%
D35*
%TO.C,SW99*%
X148550000Y-137825000D03*
D36*
X143250000Y-137825000D03*
X137950000Y-137825000D03*
X148550000Y-142525000D03*
X143250000Y-142550000D03*
X137950000Y-142525000D03*
X148550000Y-147225000D03*
X143250000Y-147225000D03*
X137950000Y-147225000D03*
%TD*%
D37*
%TO.C,C14*%
X164260000Y-75050000D03*
D18*
X164260000Y-72550000D03*
%TD*%
D38*
%TO.C,RT1*%
X159510000Y-64300000D03*
X156970000Y-66840000D03*
X154430000Y-64300000D03*
%TD*%
D39*
%TO.C,U3*%
X129855000Y-68575000D03*
X131125000Y-68575000D03*
X132395000Y-68575000D03*
X133665000Y-68575000D03*
X133665000Y-73525000D03*
X132395000Y-73525000D03*
X131125000Y-73525000D03*
X129855000Y-73525000D03*
%TD*%
%TO.C,U2*%
X129720000Y-89550000D03*
X130990000Y-89550000D03*
X132260000Y-89550000D03*
X133530000Y-89550000D03*
X133530000Y-94500000D03*
X132260000Y-94500000D03*
X130990000Y-94500000D03*
X129720000Y-94500000D03*
%TD*%
%TO.C,U1*%
X141105000Y-91075000D03*
X142375000Y-91075000D03*
X143645000Y-91075000D03*
X144915000Y-91075000D03*
X144915000Y-96025000D03*
X143645000Y-96025000D03*
X142375000Y-96025000D03*
X141105000Y-96025000D03*
%TD*%
D40*
%TO.C,SW2*%
X120010000Y-89600000D03*
X120010000Y-94050000D03*
X120010000Y-98500000D03*
%TD*%
D34*
%TO.C,R27*%
X132010000Y-65800000D03*
X134010000Y-65800000D03*
%TD*%
D41*
%TO.C,R26*%
X137552893Y-67257107D03*
X138967107Y-65842893D03*
%TD*%
D42*
%TO.C,R25*%
X130010000Y-65800000D03*
X128010000Y-65800000D03*
%TD*%
D33*
%TO.C,R24*%
X126010000Y-73800000D03*
X126010000Y-71800000D03*
%TD*%
D42*
%TO.C,R23*%
X132260000Y-76800000D03*
X130260000Y-76800000D03*
%TD*%
D34*
%TO.C,R22*%
X125760000Y-76800000D03*
X127760000Y-76800000D03*
%TD*%
D43*
%TO.C,R21*%
X125760000Y-89050000D03*
X125760000Y-91050000D03*
%TD*%
D33*
%TO.C,R20*%
X124260000Y-85050000D03*
X124260000Y-83050000D03*
%TD*%
D43*
%TO.C,R19*%
X125760000Y-92800000D03*
X125760000Y-94800000D03*
%TD*%
D34*
%TO.C,R18*%
X132510000Y-97050000D03*
X134510000Y-97050000D03*
%TD*%
D43*
%TO.C,R17*%
X139260000Y-93550000D03*
X139260000Y-95550000D03*
%TD*%
D34*
%TO.C,R16*%
X128760000Y-97050000D03*
X130760000Y-97050000D03*
%TD*%
D42*
%TO.C,R15*%
X154760000Y-72550000D03*
X152760000Y-72550000D03*
%TD*%
%TO.C,R14*%
X146260000Y-82550000D03*
X144260000Y-82550000D03*
%TD*%
%TO.C,R13*%
X146510000Y-86550000D03*
X144510000Y-86550000D03*
%TD*%
D43*
%TO.C,R12*%
X148760000Y-92800000D03*
X148760000Y-94800000D03*
%TD*%
D33*
%TO.C,R11*%
X146760000Y-94800000D03*
X146760000Y-92800000D03*
%TD*%
D34*
%TO.C,R10*%
X139260000Y-102800000D03*
X141260000Y-102800000D03*
%TD*%
D33*
%TO.C,R9*%
X139760000Y-100800000D03*
X139760000Y-98800000D03*
%TD*%
D42*
%TO.C,R8*%
X136260000Y-106050000D03*
X134260000Y-106050000D03*
%TD*%
D33*
%TO.C,R7*%
X137260000Y-101550000D03*
X137260000Y-99550000D03*
%TD*%
%TO.C,R6*%
X141760000Y-100800000D03*
X141760000Y-98800000D03*
%TD*%
D42*
%TO.C,R5*%
X145760000Y-98800000D03*
X143760000Y-98800000D03*
%TD*%
D34*
%TO.C,R4*%
X145760000Y-102800000D03*
X143760000Y-102800000D03*
%TD*%
D30*
%TO.C,Q5*%
X126710000Y-63000000D03*
D14*
X129250000Y-63000000D03*
X131790000Y-63000000D03*
%TD*%
D30*
%TO.C,Q4*%
X126710000Y-80550000D03*
D14*
X129250000Y-80550000D03*
X131790000Y-80550000D03*
%TD*%
%TO.C,Q2*%
X131790000Y-100750000D03*
X129250000Y-100750000D03*
D30*
X126710000Y-100750000D03*
%TD*%
D44*
%TO.C,D3*%
X164010000Y-67800000D03*
X164010000Y-64300000D03*
%TD*%
D21*
%TO.C,C11*%
X128010000Y-70762500D03*
X128010000Y-72837500D03*
%TD*%
%TO.C,C9*%
X127760000Y-92800000D03*
X127760000Y-94875000D03*
%TD*%
D19*
%TO.C,C8*%
X131835000Y-103800000D03*
X129760000Y-103800000D03*
%TD*%
D21*
%TO.C,C7*%
X137260000Y-93550000D03*
X137260000Y-95625000D03*
%TD*%
D19*
%TO.C,C5*%
X144260000Y-88550000D03*
X142185000Y-88550000D03*
%TD*%
D45*
%TO.C,C3*%
X145797500Y-100800000D03*
X143722500Y-100800000D03*
%TD*%
D19*
%TO.C,C1*%
X165585000Y-135000000D03*
X163510000Y-135000000D03*
%TD*%
D46*
%TO.C,RV1*%
X147760000Y-84445832D03*
X142760000Y-84445832D03*
X137510000Y-84445832D03*
%TD*%
D28*
%TO.C,JOVGI1*%
X146700000Y-111350000D03*
D25*
X144160000Y-111350000D03*
X141620000Y-111350000D03*
X139080000Y-111350000D03*
%TD*%
D28*
%TO.C,JOVGI2*%
X146700000Y-105800000D03*
D25*
X144160000Y-105800000D03*
X141620000Y-105800000D03*
X139080000Y-105800000D03*
%TD*%
%LPD*%
M02*
