%TF.GenerationSoftware,KiCad,Pcbnew,7.0.6-7.0.6~ubuntu22.04.1*%
%TF.CreationDate,2023-07-17T17:36:07+01:00*%
%TF.ProjectId,phasenom,70686173-656e-46f6-9d2e-6b696361645f,rev?*%
%TF.SameCoordinates,Original*%
%TF.FileFunction,Copper,L2,Bot*%
%TF.FilePolarity,Positive*%
%FSLAX46Y46*%
G04 Gerber Fmt 4.6, Leading zero omitted, Abs format (unit mm)*
G04 Created by KiCad (PCBNEW 7.0.6-7.0.6~ubuntu22.04.1) date 2023-07-17 17:36:07*
%MOMM*%
%LPD*%
G01*
G04 APERTURE LIST*
%TA.AperFunction,ComponentPad*%
%ADD10R,1.600000X1.600000*%
%TD*%
%TA.AperFunction,ComponentPad*%
%ADD11C,1.600000*%
%TD*%
%TA.AperFunction,ComponentPad*%
%ADD12R,2.000000X1.900000*%
%TD*%
%TA.AperFunction,ComponentPad*%
%ADD13C,1.900000*%
%TD*%
%TA.AperFunction,ComponentPad*%
%ADD14O,1.700000X1.700000*%
%TD*%
%TA.AperFunction,ComponentPad*%
%ADD15R,1.700000X1.700000*%
%TD*%
%TA.AperFunction,ComponentPad*%
%ADD16C,3.000000*%
%TD*%
%TA.AperFunction,ComponentPad*%
%ADD17R,1.500000X1.500000*%
%TD*%
%TA.AperFunction,ComponentPad*%
%ADD18C,1.500000*%
%TD*%
%TA.AperFunction,ComponentPad*%
%ADD19R,2.600000X1.500000*%
%TD*%
%TA.AperFunction,ComponentPad*%
%ADD20O,2.600000X1.500000*%
%TD*%
%TA.AperFunction,ComponentPad*%
%ADD21C,1.440000*%
%TD*%
%TA.AperFunction,ComponentPad*%
%ADD22O,5.000000X3.200000*%
%TD*%
%TA.AperFunction,ComponentPad*%
%ADD23C,1.524000*%
%TD*%
%TA.AperFunction,ViaPad*%
%ADD24C,0.800000*%
%TD*%
%TA.AperFunction,Conductor*%
%ADD25C,0.400000*%
%TD*%
G04 APERTURE END LIST*
D10*
%TO.P,C2,1*%
%TO.N,+9V*%
X162000000Y-140200000D03*
D11*
%TO.P,C2,2*%
%TO.N,GND*%
X162000000Y-142700000D03*
%TD*%
D10*
%TO.P,C6,1*%
%TO.N,Net-(C6-Pad1)*%
X153510000Y-77800000D03*
D11*
%TO.P,C6,2*%
%TO.N,GND*%
X156010000Y-77800000D03*
%TD*%
D12*
%TO.P,D1,1,K*%
%TO.N,Net-(D1-K)*%
X122500000Y-137540000D03*
D13*
%TO.P,D1,2,A*%
%TO.N,+9V*%
X122500000Y-135000000D03*
%TD*%
D14*
%TO.P,J1,2,P2*%
%TO.N,GND*%
X153260000Y-54550000D03*
D15*
%TO.P,J1,1,P1*%
%TO.N,+9V*%
X153260000Y-57090000D03*
%TD*%
D16*
%TO.P,IN1,R*%
%TO.N,unconnected-(IN1-PadR)*%
X156925000Y-114500000D03*
%TO.P,IN1,RN*%
%TO.N,unconnected-(IN1-PadRN)*%
X156925000Y-130730000D03*
%TO.P,IN1,S*%
%TO.N,GND*%
X163275000Y-114500000D03*
%TO.P,IN1,SN*%
%TO.N,unconnected-(IN1-PadSN)*%
X163275000Y-130730000D03*
%TO.P,IN1,T*%
%TO.N,Net-(SW99A-B)*%
X150575000Y-114500000D03*
%TO.P,IN1,TN*%
%TO.N,GND*%
X150575000Y-130730000D03*
%TD*%
%TO.P,OUT1,R*%
%TO.N,unconnected-(OUT1-PadR)*%
X128660000Y-130730000D03*
%TO.P,OUT1,RN*%
%TO.N,unconnected-(OUT1-PadRN)*%
X128660000Y-114500000D03*
%TO.P,OUT1,S*%
%TO.N,GND*%
X122310000Y-130730000D03*
%TO.P,OUT1,SN*%
%TO.N,unconnected-(OUT1-PadSN)*%
X122310000Y-114500000D03*
%TO.P,OUT1,T*%
%TO.N,Net-(SW99B-B)*%
X135010000Y-130730000D03*
%TO.P,OUT1,TN*%
%TO.N,unconnected-(OUT1-PadTN)*%
X135010000Y-114500000D03*
%TD*%
D15*
%TO.P,J4,1,P1*%
%TO.N,GND*%
X144140000Y-116810000D03*
D14*
%TO.P,J4,2,P2*%
%TO.N,+9V*%
X141600000Y-116810000D03*
%TD*%
D17*
%TO.P,Q3,1,D*%
%TO.N,Net-(Q3-D)*%
X126720000Y-85300000D03*
D18*
%TO.P,Q3,2,S*%
%TO.N,VB*%
X129260000Y-85300000D03*
%TO.P,Q3,3,G*%
%TO.N,VR*%
X131800000Y-85300000D03*
%TD*%
D19*
%TO.P,SW99,1,A*%
%TO.N,Net-(SW99A-A)*%
X148550000Y-137825000D03*
D20*
%TO.P,SW99,2,A*%
X143250000Y-137825000D03*
%TO.P,SW99,3*%
%TO.N,N/C*%
X137950000Y-137825000D03*
%TO.P,SW99,4,B*%
%TO.N,Net-(SW99A-B)*%
X148550000Y-142525000D03*
%TO.P,SW99,5,B*%
%TO.N,Net-(SW99B-B)*%
X143250000Y-142550000D03*
%TO.P,SW99,6*%
%TO.N,N/C*%
X137950000Y-142525000D03*
%TO.P,SW99,7,C*%
%TO.N,I*%
X148550000Y-147225000D03*
%TO.P,SW99,8,C*%
%TO.N,O*%
X143250000Y-147225000D03*
%TO.P,SW99,9*%
%TO.N,N/C*%
X137950000Y-147225000D03*
%TD*%
D10*
%TO.P,C14,1*%
%TO.N,VB*%
X164260000Y-75050000D03*
D11*
%TO.P,C14,2*%
%TO.N,GND*%
X164260000Y-72550000D03*
%TD*%
D21*
%TO.P,RT1,3,3*%
%TO.N,GND*%
X159510000Y-64300000D03*
%TO.P,RT1,2,2*%
%TO.N,Net-(R30-Pad1)*%
X156970000Y-66840000D03*
%TO.P,RT1,1,1*%
%TO.N,VB*%
X154430000Y-64300000D03*
%TD*%
D22*
%TO.P,SW2,1,A*%
%TO.N,Net-(SW2-A)*%
X120010000Y-89600000D03*
%TO.P,SW2,2,B*%
%TO.N,Net-(SW2-B)*%
X120010000Y-94050000D03*
%TO.P,SW2,3*%
%TO.N,N/C*%
X120010000Y-98500000D03*
%TD*%
D17*
%TO.P,Q5,1,D*%
%TO.N,Net-(Q5-D)*%
X126710000Y-63000000D03*
D18*
%TO.P,Q5,2,S*%
%TO.N,VB*%
X129250000Y-63000000D03*
%TO.P,Q5,3,G*%
%TO.N,VR*%
X131790000Y-63000000D03*
%TD*%
D17*
%TO.P,Q4,1,D*%
%TO.N,Net-(Q4-D)*%
X126710000Y-80550000D03*
D18*
%TO.P,Q4,2,S*%
%TO.N,VB*%
X129250000Y-80550000D03*
%TO.P,Q4,3,G*%
%TO.N,VR*%
X131790000Y-80550000D03*
%TD*%
%TO.P,Q2,3,G*%
%TO.N,VR*%
X131790000Y-100750000D03*
%TO.P,Q2,2,S*%
%TO.N,VB*%
X129250000Y-100750000D03*
D17*
%TO.P,Q2,1,D*%
%TO.N,Net-(Q2-D)*%
X126710000Y-100750000D03*
%TD*%
D23*
%TO.P,RV1,3,3*%
%TO.N,Net-(C5-Pad1)*%
X147760000Y-84445832D03*
%TO.P,RV1,2,2*%
%TO.N,Net-(R14-Pad1)*%
X142760000Y-84445832D03*
%TO.P,RV1,1,1*%
X137510000Y-84445832D03*
%TD*%
D15*
%TO.P,JOVGI1,1,P1*%
%TO.N,I*%
X146700000Y-111350000D03*
D14*
%TO.P,JOVGI1,2,P2*%
%TO.N,GND*%
X144160000Y-111350000D03*
%TO.P,JOVGI1,3,P3*%
%TO.N,+9V*%
X141620000Y-111350000D03*
%TO.P,JOVGI1,4,P4*%
%TO.N,O*%
X139080000Y-111350000D03*
%TD*%
D15*
%TO.P,JOVGI2,1,P1*%
%TO.N,I*%
X146700000Y-105800000D03*
D14*
%TO.P,JOVGI2,2,P2*%
%TO.N,GND*%
X144160000Y-105800000D03*
%TO.P,JOVGI2,3,P3*%
%TO.N,+9V*%
X141620000Y-105800000D03*
%TO.P,JOVGI2,4,P4*%
%TO.N,O*%
X139080000Y-105800000D03*
%TD*%
D24*
%TO.N,GND*%
X142760000Y-104050000D03*
X133760000Y-85050000D03*
X135510000Y-82550000D03*
X151010000Y-104550000D03*
X132510000Y-105550000D03*
X137510000Y-103050000D03*
X136510000Y-97300000D03*
%TO.N,Net-(R27-Pad2)*%
X132589500Y-66340455D03*
X139760000Y-98050000D03*
%TO.N,Net-(D2-K)*%
X128010000Y-89550000D03*
X141010000Y-92550000D03*
X125260000Y-67800000D03*
X156010000Y-59300000D03*
%TO.N,GND*%
X146260000Y-96300000D03*
%TO.N,Net-(C11-Pad1)*%
X128010000Y-73550000D03*
X128010000Y-66800000D03*
%TO.N,VB*%
X139760000Y-64300000D03*
%TO.N,VR*%
X151760000Y-70300000D03*
%TO.N,GND*%
X134510000Y-94550000D03*
%TO.N,VR*%
X131790000Y-103050000D03*
%TO.N,Net-(SW2-B)*%
X125010000Y-92800000D03*
%TO.N,+9V*%
X166010000Y-135050000D03*
%TD*%
D25*
%TO.N,+9V*%
X153260000Y-57090000D02*
X160050000Y-57090000D01*
X156760000Y-91550000D02*
X149510000Y-91550000D01*
X160050000Y-57090000D02*
X161010000Y-58050000D01*
X161010000Y-58050000D02*
X161010000Y-87300000D01*
X161010000Y-87300000D02*
X156760000Y-91550000D01*
X141620000Y-99440000D02*
X141620000Y-105800000D01*
X149510000Y-91550000D02*
X141620000Y-99440000D01*
%TO.N,Net-(R27-Pad2)*%
X139760000Y-98050000D02*
X141810000Y-96000000D01*
X141810000Y-96000000D02*
X141810000Y-90970000D01*
X141810000Y-90970000D02*
X132940000Y-82100000D01*
X132940000Y-82100000D02*
X132940000Y-66730000D01*
X132940000Y-66730000D02*
X132550455Y-66340455D01*
X132550455Y-66340455D02*
X132589500Y-66340455D01*
%TO.N,Net-(D2-K)*%
X131023654Y-104150000D02*
X132008528Y-104150000D01*
X128010000Y-101136346D02*
X131023654Y-104150000D01*
X128010000Y-89550000D02*
X128010000Y-101136346D01*
X141010000Y-95148528D02*
X141010000Y-92550000D01*
X132008528Y-104150000D02*
X141010000Y-95148528D01*
X125260000Y-67800000D02*
X125260000Y-86800000D01*
X125260000Y-86800000D02*
X128010000Y-89550000D01*
X156010000Y-59300000D02*
X151760000Y-63550000D01*
X151760000Y-63550000D02*
X140141371Y-63550000D01*
X140141371Y-63550000D02*
X140091371Y-63500000D01*
X140091371Y-63500000D02*
X139428629Y-63500000D01*
X139428629Y-63500000D02*
X139378629Y-63550000D01*
X125260000Y-62050000D02*
X125260000Y-67800000D01*
X139378629Y-63550000D02*
X136010000Y-63550000D01*
X136010000Y-63550000D02*
X132760000Y-60300000D01*
X132760000Y-60300000D02*
X127010000Y-60300000D01*
X127010000Y-60300000D02*
X125260000Y-62050000D01*
%TO.N,VB*%
X154430000Y-64300000D02*
X135510000Y-64300000D01*
X135510000Y-64300000D02*
X132260000Y-61050000D01*
X132260000Y-61050000D02*
X129510000Y-61050000D01*
X129510000Y-61050000D02*
X129250000Y-61310000D01*
X129250000Y-61310000D02*
X129250000Y-63000000D01*
%TO.N,VR*%
X131790000Y-63000000D02*
X131790000Y-64580000D01*
X131790000Y-64580000D02*
X132260000Y-65050000D01*
X132260000Y-65050000D02*
X136760000Y-65050000D01*
X136760000Y-65050000D02*
X142010000Y-70300000D01*
X142010000Y-70300000D02*
X151760000Y-70300000D01*
%TO.N,Net-(C11-Pad1)*%
X128010000Y-66800000D02*
X128010000Y-73550000D01*
%TO.N,Net-(R14-Pad1)*%
X137510000Y-84445832D02*
X142760000Y-84445832D01*
%TO.N,VR*%
X131790000Y-63000000D02*
X131790000Y-80550000D01*
%TO.N,VB*%
X129250000Y-63000000D02*
X129250000Y-80550000D01*
%TO.N,VR*%
X131790000Y-80550000D02*
X131790000Y-85290000D01*
%TO.N,VB*%
X129250000Y-80550000D02*
X129250000Y-85290000D01*
%TO.N,VR*%
X131790000Y-100750000D02*
X131790000Y-103050000D01*
X131800000Y-85300000D02*
X131800000Y-100740000D01*
%TO.N,VB*%
X129250000Y-100750000D02*
X129250000Y-85310000D01*
%TO.N,Net-(SW2-B)*%
X125010000Y-92800000D02*
X123760000Y-94050000D01*
X123760000Y-94050000D02*
X120010000Y-94050000D01*
%TO.N,+9V*%
X141620000Y-105800000D02*
X141620000Y-111350000D01*
X125600000Y-131900000D02*
X122500000Y-135000000D01*
X141600000Y-118600000D02*
X142900000Y-119900000D01*
X131900000Y-118600000D02*
X125600000Y-124900000D01*
X141620000Y-111350000D02*
X141620000Y-112552081D01*
X141600000Y-112572081D02*
X141600000Y-118100000D01*
X160000000Y-119900000D02*
X166050000Y-125950000D01*
X141600000Y-118100000D02*
X141600000Y-118600000D01*
X125600000Y-124900000D02*
X125600000Y-131900000D01*
X141600000Y-116810000D02*
X141600000Y-118100000D01*
X142900000Y-119900000D02*
X160000000Y-119900000D01*
X141620000Y-112552081D02*
X141600000Y-112572081D01*
X166050000Y-125950000D02*
X166050000Y-135000000D01*
X141600000Y-118600000D02*
X131900000Y-118600000D01*
%TO.N,Net-(SW99B-B)*%
X146000000Y-140000000D02*
X143450000Y-142550000D01*
X141500000Y-131400000D02*
X146000000Y-135900000D01*
X146000000Y-135900000D02*
X146000000Y-140000000D01*
X137991320Y-131400000D02*
X141500000Y-131400000D01*
X134950000Y-130480000D02*
X137071320Y-130480000D01*
X137071320Y-130480000D02*
X137991320Y-131400000D01*
%TD*%
%TA.AperFunction,Conductor*%
%TO.N,GND*%
G36*
X136616621Y-52095502D02*
G01*
X136663114Y-52149158D01*
X136674500Y-52201500D01*
X136674500Y-62454469D01*
X136672587Y-62476343D01*
X136670876Y-62486048D01*
X136672586Y-62495746D01*
X136673750Y-62509059D01*
X136675249Y-62517559D01*
X136678707Y-62530468D01*
X136680418Y-62540170D01*
X136683935Y-62546262D01*
X136688452Y-62551645D01*
X136696982Y-62556570D01*
X136714972Y-62569167D01*
X136722518Y-62575499D01*
X136722519Y-62575499D01*
X136722520Y-62575500D01*
X136722521Y-62575500D01*
X136729123Y-62577903D01*
X136736047Y-62579124D01*
X136736047Y-62579123D01*
X136736048Y-62579124D01*
X136745746Y-62577413D01*
X136767625Y-62575500D01*
X139169502Y-62575500D01*
X139237623Y-62595502D01*
X139284116Y-62649158D01*
X139294220Y-62719432D01*
X139264726Y-62784012D01*
X139221215Y-62816399D01*
X139216300Y-62818610D01*
X139216300Y-62818611D01*
X139190107Y-62830399D01*
X139138396Y-62841500D01*
X136355660Y-62841500D01*
X136287539Y-62821498D01*
X136266565Y-62804595D01*
X134791479Y-61329509D01*
X133277464Y-59815494D01*
X133274880Y-59812750D01*
X133233273Y-59765785D01*
X133233270Y-59765783D01*
X133233271Y-59765783D01*
X133181655Y-59730154D01*
X133178590Y-59727899D01*
X133160146Y-59713449D01*
X133129226Y-59689225D01*
X133129222Y-59689223D01*
X133119919Y-59685035D01*
X133100069Y-59673840D01*
X133091675Y-59668046D01*
X133068705Y-59659334D01*
X133033043Y-59645809D01*
X133029528Y-59644353D01*
X132972332Y-59618612D01*
X132972330Y-59618611D01*
X132972329Y-59618611D01*
X132962286Y-59616770D01*
X132940336Y-59610650D01*
X132930801Y-59607035D01*
X132930800Y-59607034D01*
X132930798Y-59607034D01*
X132930794Y-59607033D01*
X132878362Y-59600667D01*
X132868537Y-59599473D01*
X132864786Y-59598902D01*
X132823760Y-59591385D01*
X132803094Y-59587598D01*
X132803093Y-59587598D01*
X132740488Y-59591385D01*
X132736685Y-59591500D01*
X127033319Y-59591500D01*
X127029519Y-59591385D01*
X126966908Y-59587598D01*
X126966907Y-59587598D01*
X126966905Y-59587598D01*
X126905218Y-59598902D01*
X126901459Y-59599474D01*
X126893178Y-59600480D01*
X126839202Y-59607034D01*
X126839195Y-59607035D01*
X126829661Y-59610651D01*
X126807711Y-59616770D01*
X126797678Y-59618609D01*
X126797665Y-59618613D01*
X126740476Y-59644351D01*
X126736961Y-59645807D01*
X126678326Y-59668045D01*
X126669921Y-59673846D01*
X126650080Y-59685035D01*
X126640779Y-59689222D01*
X126640769Y-59689227D01*
X126591401Y-59727904D01*
X126588339Y-59730157D01*
X126536726Y-59765784D01*
X126495126Y-59812740D01*
X126492518Y-59815511D01*
X124775511Y-61532518D01*
X124772740Y-61535126D01*
X124725784Y-61576726D01*
X124690157Y-61628339D01*
X124687904Y-61631401D01*
X124649227Y-61680769D01*
X124649222Y-61680779D01*
X124645035Y-61690080D01*
X124633846Y-61709921D01*
X124628045Y-61718326D01*
X124605807Y-61776961D01*
X124604351Y-61780476D01*
X124578613Y-61837665D01*
X124578609Y-61837678D01*
X124576770Y-61847711D01*
X124570651Y-61869661D01*
X124567034Y-61879199D01*
X124559476Y-61941441D01*
X124558904Y-61945201D01*
X124547597Y-62006907D01*
X124551384Y-62069509D01*
X124551499Y-62073313D01*
X124551500Y-67180770D01*
X124531498Y-67248891D01*
X124524791Y-67257676D01*
X124524842Y-67257713D01*
X124520957Y-67263059D01*
X124430793Y-67419229D01*
X124425473Y-67428444D01*
X124410999Y-67472986D01*
X124366457Y-67610072D01*
X124346496Y-67800000D01*
X124366457Y-67989927D01*
X124387425Y-68054457D01*
X124425473Y-68171556D01*
X124425476Y-68171561D01*
X124520957Y-68336940D01*
X124524842Y-68342287D01*
X124523232Y-68343456D01*
X124549852Y-68398924D01*
X124551499Y-68419228D01*
X124551499Y-86776685D01*
X124551384Y-86780489D01*
X124547598Y-86843092D01*
X124558902Y-86904782D01*
X124559475Y-86908544D01*
X124567033Y-86970794D01*
X124567034Y-86970798D01*
X124570650Y-86980333D01*
X124576771Y-87002289D01*
X124578612Y-87012332D01*
X124604353Y-87069528D01*
X124605809Y-87073043D01*
X124619334Y-87108705D01*
X124628046Y-87131675D01*
X124633840Y-87140069D01*
X124645035Y-87159919D01*
X124649223Y-87169222D01*
X124649225Y-87169226D01*
X124673449Y-87200146D01*
X124687899Y-87218590D01*
X124690154Y-87221655D01*
X124725783Y-87273271D01*
X124725784Y-87273272D01*
X124725785Y-87273273D01*
X124772750Y-87314880D01*
X124775494Y-87317464D01*
X126056168Y-88598138D01*
X127075334Y-89617304D01*
X127109360Y-89679616D01*
X127111549Y-89693227D01*
X127116457Y-89739927D01*
X127117854Y-89744225D01*
X127175473Y-89921556D01*
X127175476Y-89921561D01*
X127270958Y-90086941D01*
X127274843Y-90092288D01*
X127273233Y-90093457D01*
X127299853Y-90148925D01*
X127301500Y-90169229D01*
X127301500Y-99365500D01*
X127281498Y-99433621D01*
X127227842Y-99480114D01*
X127175500Y-99491500D01*
X125911350Y-99491500D01*
X125850803Y-99498009D01*
X125850795Y-99498011D01*
X125713797Y-99549110D01*
X125713792Y-99549112D01*
X125596738Y-99636738D01*
X125509112Y-99753792D01*
X125509110Y-99753797D01*
X125458011Y-99890795D01*
X125458009Y-99890803D01*
X125451500Y-99951350D01*
X125451500Y-101548649D01*
X125458009Y-101609196D01*
X125458011Y-101609204D01*
X125509110Y-101746202D01*
X125509112Y-101746207D01*
X125596738Y-101863261D01*
X125713792Y-101950887D01*
X125713794Y-101950888D01*
X125713796Y-101950889D01*
X125772875Y-101972924D01*
X125850795Y-102001988D01*
X125850803Y-102001990D01*
X125911350Y-102008499D01*
X125911355Y-102008499D01*
X125911362Y-102008500D01*
X125911368Y-102008500D01*
X127508632Y-102008500D01*
X127508638Y-102008500D01*
X127508645Y-102008499D01*
X127508649Y-102008499D01*
X127569196Y-102001990D01*
X127569199Y-102001989D01*
X127569201Y-102001989D01*
X127705151Y-101951282D01*
X127714647Y-101947740D01*
X127715968Y-101951282D01*
X127767716Y-101939876D01*
X127834304Y-101964503D01*
X127848167Y-101976483D01*
X130506195Y-104634512D01*
X130508780Y-104637257D01*
X130550381Y-104684215D01*
X130602014Y-104719855D01*
X130605029Y-104722073D01*
X130654428Y-104760775D01*
X130663724Y-104764958D01*
X130683589Y-104776163D01*
X130691974Y-104781951D01*
X130691976Y-104781952D01*
X130691979Y-104781954D01*
X130724812Y-104794405D01*
X130750621Y-104804194D01*
X130754139Y-104805651D01*
X130811323Y-104831388D01*
X130821350Y-104833225D01*
X130843316Y-104839347D01*
X130852853Y-104842965D01*
X130915127Y-104850525D01*
X130918870Y-104851095D01*
X130980561Y-104862401D01*
X131043156Y-104858614D01*
X131046956Y-104858500D01*
X131985213Y-104858500D01*
X131989016Y-104858614D01*
X132051621Y-104862402D01*
X132113340Y-104851091D01*
X132117053Y-104850526D01*
X132179329Y-104842965D01*
X132188858Y-104839350D01*
X132210832Y-104833226D01*
X132220857Y-104831389D01*
X132278080Y-104805634D01*
X132281537Y-104804202D01*
X132340203Y-104781954D01*
X132348594Y-104776161D01*
X132368450Y-104764961D01*
X132377754Y-104760775D01*
X132427164Y-104722063D01*
X132430149Y-104719867D01*
X132481801Y-104684215D01*
X132523424Y-104637231D01*
X132525977Y-104634519D01*
X138741088Y-98419408D01*
X138803398Y-98385384D01*
X138874213Y-98390449D01*
X138931049Y-98432996D01*
X138939300Y-98445505D01*
X139020958Y-98586941D01*
X139020965Y-98586951D01*
X139148744Y-98728864D01*
X139148747Y-98728866D01*
X139303248Y-98841118D01*
X139477712Y-98918794D01*
X139664513Y-98958500D01*
X139855487Y-98958500D01*
X140042288Y-98918794D01*
X140216752Y-98841118D01*
X140371253Y-98728866D01*
X140371255Y-98728864D01*
X140499034Y-98586951D01*
X140499035Y-98586949D01*
X140499040Y-98586944D01*
X140594527Y-98421556D01*
X140653542Y-98239928D01*
X140658449Y-98193230D01*
X140685460Y-98127574D01*
X140694655Y-98117313D01*
X142294519Y-96517449D01*
X142297231Y-96514896D01*
X142344215Y-96473273D01*
X142379867Y-96421621D01*
X142382063Y-96418636D01*
X142420775Y-96369226D01*
X142424961Y-96359922D01*
X142436161Y-96340066D01*
X142441954Y-96331675D01*
X142464202Y-96273009D01*
X142465634Y-96269552D01*
X142491389Y-96212329D01*
X142493226Y-96202303D01*
X142499351Y-96180330D01*
X142501790Y-96173898D01*
X142502965Y-96170801D01*
X142510526Y-96108523D01*
X142511090Y-96104815D01*
X142522402Y-96043092D01*
X142518614Y-95980481D01*
X142518500Y-95976679D01*
X142518500Y-90993302D01*
X142518615Y-90989497D01*
X142519316Y-90977904D01*
X142522401Y-90926907D01*
X142511095Y-90865216D01*
X142510525Y-90861469D01*
X142509041Y-90849246D01*
X142502965Y-90799199D01*
X142499347Y-90789662D01*
X142493225Y-90767696D01*
X142491388Y-90757669D01*
X142465651Y-90700485D01*
X142464194Y-90696967D01*
X142441954Y-90638326D01*
X142441951Y-90638320D01*
X142436163Y-90629935D01*
X142424958Y-90610070D01*
X142420775Y-90600774D01*
X142382088Y-90551395D01*
X142379846Y-90548348D01*
X142344215Y-90496727D01*
X142297249Y-90455119D01*
X142294503Y-90452533D01*
X137737759Y-85895789D01*
X137703733Y-85833477D01*
X137708798Y-85762662D01*
X137751345Y-85705826D01*
X137794238Y-85684989D01*
X137946196Y-85644272D01*
X138147677Y-85550320D01*
X138329781Y-85422809D01*
X138486977Y-85265613D01*
X138510872Y-85231486D01*
X138527276Y-85208061D01*
X138582734Y-85163733D01*
X138630489Y-85154332D01*
X141639511Y-85154332D01*
X141707632Y-85174334D01*
X141742724Y-85208061D01*
X141783020Y-85265609D01*
X141783023Y-85265613D01*
X141940219Y-85422809D01*
X141940223Y-85422812D01*
X141940227Y-85422815D01*
X142044124Y-85495564D01*
X142122323Y-85550320D01*
X142323804Y-85644272D01*
X142538537Y-85701810D01*
X142760000Y-85721185D01*
X142981463Y-85701810D01*
X143196196Y-85644272D01*
X143397677Y-85550320D01*
X143579781Y-85422809D01*
X143736977Y-85265613D01*
X143864488Y-85083509D01*
X143958440Y-84882028D01*
X144015978Y-84667295D01*
X144035353Y-84445832D01*
X146484647Y-84445832D01*
X146504022Y-84667295D01*
X146539786Y-84800768D01*
X146561559Y-84882025D01*
X146561561Y-84882031D01*
X146655511Y-85083507D01*
X146655512Y-85083509D01*
X146783016Y-85265604D01*
X146783020Y-85265609D01*
X146783023Y-85265613D01*
X146940219Y-85422809D01*
X146940223Y-85422812D01*
X146940227Y-85422815D01*
X147044124Y-85495564D01*
X147122323Y-85550320D01*
X147323804Y-85644272D01*
X147538537Y-85701810D01*
X147760000Y-85721185D01*
X147981463Y-85701810D01*
X148196196Y-85644272D01*
X148397677Y-85550320D01*
X148579781Y-85422809D01*
X148736977Y-85265613D01*
X148864488Y-85083509D01*
X148958440Y-84882028D01*
X149015978Y-84667295D01*
X149035353Y-84445832D01*
X149015978Y-84224369D01*
X148958440Y-84009636D01*
X148864488Y-83808156D01*
X148736977Y-83626051D01*
X148579781Y-83468855D01*
X148579777Y-83468852D01*
X148579772Y-83468848D01*
X148397677Y-83341344D01*
X148397675Y-83341343D01*
X148196199Y-83247393D01*
X148196193Y-83247391D01*
X148154074Y-83236105D01*
X147981463Y-83189854D01*
X147760000Y-83170479D01*
X147538537Y-83189854D01*
X147423463Y-83220688D01*
X147323806Y-83247391D01*
X147323801Y-83247393D01*
X147122323Y-83341344D01*
X146940222Y-83468852D01*
X146940216Y-83468857D01*
X146783025Y-83626048D01*
X146783020Y-83626054D01*
X146655512Y-83808155D01*
X146561561Y-84009633D01*
X146561559Y-84009638D01*
X146553022Y-84041500D01*
X146504022Y-84224369D01*
X146484647Y-84445832D01*
X144035353Y-84445832D01*
X144015978Y-84224369D01*
X143958440Y-84009636D01*
X143864488Y-83808156D01*
X143736977Y-83626051D01*
X143579781Y-83468855D01*
X143579777Y-83468852D01*
X143579772Y-83468848D01*
X143397677Y-83341344D01*
X143397675Y-83341343D01*
X143196199Y-83247393D01*
X143196193Y-83247391D01*
X143154074Y-83236105D01*
X142981463Y-83189854D01*
X142760000Y-83170479D01*
X142538537Y-83189854D01*
X142423463Y-83220688D01*
X142323806Y-83247391D01*
X142323801Y-83247393D01*
X142122323Y-83341344D01*
X141940222Y-83468852D01*
X141940216Y-83468857D01*
X141783025Y-83626048D01*
X141783020Y-83626054D01*
X141742724Y-83683603D01*
X141687266Y-83727931D01*
X141639511Y-83737332D01*
X138630489Y-83737332D01*
X138562368Y-83717330D01*
X138527276Y-83683603D01*
X138486979Y-83626054D01*
X138486974Y-83626048D01*
X138329783Y-83468857D01*
X138329772Y-83468848D01*
X138147677Y-83341344D01*
X138147675Y-83341343D01*
X137946199Y-83247393D01*
X137946193Y-83247391D01*
X137904073Y-83236105D01*
X137731463Y-83189854D01*
X137510000Y-83170479D01*
X137288537Y-83189854D01*
X137173463Y-83220688D01*
X137073806Y-83247391D01*
X137073801Y-83247393D01*
X136872323Y-83341344D01*
X136690222Y-83468852D01*
X136690216Y-83468857D01*
X136533025Y-83626048D01*
X136533020Y-83626054D01*
X136405512Y-83808155D01*
X136311561Y-84009633D01*
X136311560Y-84009635D01*
X136270844Y-84161589D01*
X136233892Y-84222211D01*
X136170031Y-84253233D01*
X136099537Y-84244804D01*
X136060042Y-84218072D01*
X133685405Y-81843435D01*
X133651379Y-81781123D01*
X133648500Y-81754340D01*
X133648500Y-78648649D01*
X152201500Y-78648649D01*
X152208009Y-78709196D01*
X152208011Y-78709204D01*
X152259110Y-78846202D01*
X152259112Y-78846207D01*
X152346738Y-78963261D01*
X152463792Y-79050887D01*
X152463794Y-79050888D01*
X152463796Y-79050889D01*
X152522875Y-79072924D01*
X152600795Y-79101988D01*
X152600803Y-79101990D01*
X152661350Y-79108499D01*
X152661355Y-79108499D01*
X152661362Y-79108500D01*
X152661368Y-79108500D01*
X154358632Y-79108500D01*
X154358638Y-79108500D01*
X154358645Y-79108499D01*
X154358649Y-79108499D01*
X154419196Y-79101990D01*
X154419199Y-79101989D01*
X154419201Y-79101989D01*
X154556204Y-79050889D01*
X154579018Y-79033811D01*
X154673261Y-78963261D01*
X154760887Y-78846207D01*
X154760887Y-78846206D01*
X154760889Y-78846204D01*
X154811989Y-78709201D01*
X154818500Y-78648638D01*
X154818861Y-78645283D01*
X154819908Y-78645395D01*
X154842056Y-78582567D01*
X154898113Y-78539000D01*
X154914105Y-78536682D01*
X155611272Y-77839516D01*
X155624835Y-77925148D01*
X155682359Y-78038045D01*
X155771955Y-78127641D01*
X155884852Y-78185165D01*
X155970482Y-78198727D01*
X155282110Y-78887098D01*
X155282110Y-78887100D01*
X155353498Y-78937086D01*
X155560926Y-79033811D01*
X155560931Y-79033813D01*
X155781999Y-79093048D01*
X155781995Y-79093048D01*
X156009999Y-79112995D01*
X156238002Y-79093048D01*
X156459068Y-79033813D01*
X156459073Y-79033811D01*
X156666497Y-78937088D01*
X156737888Y-78887099D01*
X156737888Y-78887097D01*
X156049518Y-78198727D01*
X156135148Y-78185165D01*
X156248045Y-78127641D01*
X156337641Y-78038045D01*
X156395165Y-77925148D01*
X156408727Y-77839518D01*
X157097097Y-78527888D01*
X157097099Y-78527888D01*
X157147088Y-78456497D01*
X157243811Y-78249073D01*
X157243813Y-78249068D01*
X157303048Y-78028002D01*
X157322995Y-77799999D01*
X157303048Y-77571997D01*
X157243813Y-77350931D01*
X157243811Y-77350926D01*
X157147086Y-77143498D01*
X157097100Y-77072110D01*
X157097098Y-77072110D01*
X156408727Y-77760481D01*
X156395165Y-77674852D01*
X156337641Y-77561955D01*
X156248045Y-77472359D01*
X156135148Y-77414835D01*
X156049517Y-77401272D01*
X156737888Y-76712899D01*
X156737888Y-76712898D01*
X156666501Y-76662913D01*
X156459073Y-76566188D01*
X156459068Y-76566186D01*
X156238000Y-76506951D01*
X156238004Y-76506951D01*
X156009999Y-76487004D01*
X155781997Y-76506951D01*
X155560931Y-76566186D01*
X155560926Y-76566188D01*
X155353500Y-76662913D01*
X155282109Y-76712900D01*
X155970481Y-77401272D01*
X155884852Y-77414835D01*
X155771955Y-77472359D01*
X155682359Y-77561955D01*
X155624835Y-77674852D01*
X155611272Y-77760481D01*
X154911219Y-77060428D01*
X154885649Y-77055289D01*
X154834657Y-77005890D01*
X154819666Y-76954630D01*
X154818861Y-76954717D01*
X154811990Y-76890803D01*
X154811988Y-76890795D01*
X154760889Y-76753797D01*
X154760887Y-76753792D01*
X154673261Y-76636738D01*
X154556207Y-76549112D01*
X154556202Y-76549110D01*
X154419204Y-76498011D01*
X154419196Y-76498009D01*
X154358649Y-76491500D01*
X154358638Y-76491500D01*
X152661362Y-76491500D01*
X152661350Y-76491500D01*
X152600803Y-76498009D01*
X152600795Y-76498011D01*
X152463797Y-76549110D01*
X152463792Y-76549112D01*
X152346738Y-76636738D01*
X152259112Y-76753792D01*
X152259110Y-76753797D01*
X152208011Y-76890795D01*
X152208009Y-76890803D01*
X152201500Y-76951350D01*
X152201500Y-78648649D01*
X133648500Y-78648649D01*
X133648500Y-66753319D01*
X133648615Y-66749514D01*
X133652402Y-66686908D01*
X133641092Y-66625193D01*
X133640525Y-66621470D01*
X133632965Y-66559199D01*
X133632964Y-66559196D01*
X133629351Y-66549668D01*
X133623227Y-66527702D01*
X133621389Y-66517673D01*
X133621389Y-66517671D01*
X133595646Y-66460473D01*
X133594189Y-66456956D01*
X133571957Y-66398332D01*
X133571955Y-66398329D01*
X133571954Y-66398325D01*
X133566163Y-66389935D01*
X133554958Y-66370070D01*
X133550775Y-66360774D01*
X133520407Y-66322013D01*
X133494282Y-66257475D01*
X133483042Y-66150528D01*
X133483042Y-66150527D01*
X133424027Y-65968899D01*
X133411673Y-65947501D01*
X133394934Y-65878506D01*
X133418154Y-65811414D01*
X133473960Y-65767526D01*
X133520791Y-65758500D01*
X136414340Y-65758500D01*
X136482461Y-65778502D01*
X136503435Y-65795404D01*
X141492533Y-70784503D01*
X141495119Y-70787249D01*
X141536727Y-70834215D01*
X141588348Y-70869846D01*
X141591379Y-70872076D01*
X141640774Y-70910775D01*
X141650063Y-70914955D01*
X141669932Y-70926161D01*
X141678321Y-70931951D01*
X141678321Y-70931952D01*
X141678323Y-70931952D01*
X141678325Y-70931954D01*
X141723418Y-70949055D01*
X141736974Y-70954196D01*
X141740478Y-70955647D01*
X141797671Y-70981388D01*
X141807703Y-70983226D01*
X141829659Y-70989347D01*
X141839199Y-70992965D01*
X141901494Y-71000529D01*
X141905198Y-71001092D01*
X141966907Y-71012401D01*
X142029502Y-71008614D01*
X142033302Y-71008500D01*
X151148595Y-71008500D01*
X151216716Y-71028502D01*
X151222655Y-71032563D01*
X151303248Y-71091118D01*
X151477712Y-71168794D01*
X151664513Y-71208500D01*
X151855487Y-71208500D01*
X152042288Y-71168794D01*
X152216752Y-71091118D01*
X152371253Y-70978866D01*
X152413495Y-70931952D01*
X152499034Y-70836951D01*
X152499035Y-70836949D01*
X152499040Y-70836944D01*
X152594527Y-70671556D01*
X152653542Y-70489928D01*
X152673504Y-70300000D01*
X152653542Y-70110072D01*
X152594527Y-69928444D01*
X152499040Y-69763056D01*
X152499038Y-69763054D01*
X152499034Y-69763048D01*
X152371255Y-69621135D01*
X152216752Y-69508882D01*
X152042288Y-69431206D01*
X151855487Y-69391500D01*
X151664513Y-69391500D01*
X151477711Y-69431206D01*
X151303247Y-69508882D01*
X151222656Y-69567436D01*
X151155788Y-69591294D01*
X151148595Y-69591500D01*
X142355660Y-69591500D01*
X142287539Y-69571498D01*
X142266565Y-69554595D01*
X139551970Y-66840000D01*
X155736807Y-66840000D01*
X155755542Y-67054141D01*
X155811177Y-67261774D01*
X155811179Y-67261780D01*
X155902024Y-67456596D01*
X155902024Y-67456597D01*
X156025319Y-67632681D01*
X156177319Y-67784681D01*
X156353403Y-67907976D01*
X156548223Y-67998822D01*
X156755858Y-68054458D01*
X156970000Y-68073193D01*
X157184142Y-68054458D01*
X157391777Y-67998822D01*
X157586597Y-67907976D01*
X157762681Y-67784681D01*
X157914681Y-67632681D01*
X158037976Y-67456597D01*
X158128822Y-67261777D01*
X158184458Y-67054142D01*
X158203193Y-66840000D01*
X158184458Y-66625858D01*
X158128822Y-66418223D01*
X158037976Y-66223404D01*
X158037975Y-66223403D01*
X158037974Y-66223400D01*
X157914685Y-66047323D01*
X157914682Y-66047320D01*
X157840218Y-65972856D01*
X157762681Y-65895319D01*
X157738669Y-65878506D01*
X157586597Y-65772024D01*
X157391780Y-65681179D01*
X157391774Y-65681177D01*
X157304019Y-65657663D01*
X157184142Y-65625542D01*
X156970000Y-65606807D01*
X156755858Y-65625542D01*
X156548225Y-65681177D01*
X156548220Y-65681179D01*
X156353400Y-65772025D01*
X156177323Y-65895314D01*
X156177313Y-65895323D01*
X156025323Y-66047313D01*
X156025314Y-66047323D01*
X155902025Y-66223400D01*
X155811179Y-66418220D01*
X155811177Y-66418225D01*
X155755542Y-66625858D01*
X155736807Y-66840000D01*
X139551970Y-66840000D01*
X137935565Y-65223595D01*
X137901539Y-65161283D01*
X137906604Y-65090468D01*
X137949151Y-65033632D01*
X138015671Y-65008821D01*
X138024660Y-65008500D01*
X139148595Y-65008500D01*
X139216716Y-65028502D01*
X139222655Y-65032563D01*
X139303248Y-65091118D01*
X139477712Y-65168794D01*
X139664513Y-65208500D01*
X139855487Y-65208500D01*
X140042288Y-65168794D01*
X140216752Y-65091118D01*
X140297344Y-65032563D01*
X140364212Y-65008706D01*
X140371405Y-65008500D01*
X153360784Y-65008500D01*
X153428905Y-65028502D01*
X153463998Y-65062231D01*
X153485314Y-65092675D01*
X153485316Y-65092677D01*
X153485319Y-65092681D01*
X153637319Y-65244681D01*
X153813403Y-65367976D01*
X154008223Y-65458822D01*
X154215858Y-65514458D01*
X154430000Y-65533193D01*
X154644142Y-65514458D01*
X154851777Y-65458822D01*
X155046597Y-65367976D01*
X155222681Y-65244681D01*
X155374681Y-65092681D01*
X155497976Y-64916597D01*
X155588822Y-64721777D01*
X155644458Y-64514142D01*
X155663193Y-64300000D01*
X155644458Y-64085858D01*
X155588822Y-63878223D01*
X155497976Y-63683404D01*
X155497975Y-63683403D01*
X155497974Y-63683400D01*
X155374685Y-63507323D01*
X155374682Y-63507320D01*
X155299435Y-63432073D01*
X155222681Y-63355319D01*
X155059517Y-63241071D01*
X155046597Y-63232024D01*
X154851780Y-63141179D01*
X154851774Y-63141177D01*
X154759129Y-63116353D01*
X154644142Y-63085542D01*
X154430000Y-63066807D01*
X154429999Y-63066807D01*
X154215858Y-63085542D01*
X154008225Y-63141177D01*
X154008220Y-63141179D01*
X153813400Y-63232025D01*
X153637323Y-63355314D01*
X153637320Y-63355317D01*
X153485316Y-63507322D01*
X153485314Y-63507324D01*
X153463998Y-63537769D01*
X153408542Y-63582098D01*
X153360784Y-63591500D01*
X153024660Y-63591500D01*
X152956539Y-63571498D01*
X152910046Y-63517842D01*
X152899942Y-63447568D01*
X152929436Y-63382988D01*
X152935565Y-63376405D01*
X154499090Y-61812880D01*
X156076535Y-60235434D01*
X156138845Y-60201410D01*
X156139084Y-60201358D01*
X156292288Y-60168794D01*
X156466752Y-60091118D01*
X156621253Y-59978866D01*
X156749040Y-59836944D01*
X156844527Y-59671556D01*
X156903542Y-59489928D01*
X156923504Y-59300000D01*
X156903542Y-59110072D01*
X156844527Y-58928444D01*
X156749040Y-58763056D01*
X156749038Y-58763054D01*
X156749034Y-58763048D01*
X156621255Y-58621135D01*
X156466752Y-58508882D01*
X156292288Y-58431206D01*
X156105487Y-58391500D01*
X155914513Y-58391500D01*
X155727711Y-58431206D01*
X155553247Y-58508882D01*
X155398744Y-58621135D01*
X155270965Y-58763048D01*
X155270958Y-58763058D01*
X155175476Y-58928438D01*
X155175473Y-58928445D01*
X155116457Y-59110072D01*
X155111549Y-59156771D01*
X155084535Y-59222428D01*
X155075334Y-59232694D01*
X151503435Y-62804595D01*
X151441123Y-62838620D01*
X151414340Y-62841500D01*
X140381604Y-62841500D01*
X140329892Y-62830399D01*
X140303700Y-62818611D01*
X140303699Y-62818610D01*
X140298785Y-62816399D01*
X140244875Y-62770201D01*
X140224500Y-62702191D01*
X140244128Y-62633962D01*
X140297528Y-62587175D01*
X140350498Y-62575500D01*
X148704470Y-62575500D01*
X148726350Y-62577414D01*
X148736047Y-62579124D01*
X148736047Y-62579123D01*
X148736048Y-62579124D01*
X148745746Y-62577413D01*
X148759067Y-62576248D01*
X148763310Y-62575500D01*
X148763312Y-62575500D01*
X148763313Y-62575499D01*
X148767576Y-62574748D01*
X148780473Y-62571290D01*
X148790172Y-62569581D01*
X148790173Y-62569579D01*
X148796260Y-62566064D01*
X148801641Y-62561549D01*
X148801645Y-62561548D01*
X148806569Y-62553018D01*
X148819165Y-62535028D01*
X148825500Y-62527480D01*
X148825500Y-62527479D01*
X148827902Y-62520879D01*
X148829122Y-62513955D01*
X148829124Y-62513952D01*
X148827414Y-62504253D01*
X148825500Y-62482374D01*
X148825500Y-52201500D01*
X148845502Y-52133379D01*
X148899158Y-52086886D01*
X148951500Y-52075500D01*
X165416537Y-52075500D01*
X165484658Y-52095502D01*
X165505632Y-52112405D01*
X170387595Y-56994368D01*
X170421621Y-57056680D01*
X170424500Y-57083463D01*
X170424500Y-108166535D01*
X170404498Y-108234656D01*
X170387595Y-108255630D01*
X169005631Y-109637595D01*
X168943319Y-109671620D01*
X168916536Y-109674500D01*
X150583463Y-109674500D01*
X150515342Y-109654498D01*
X150494368Y-109637595D01*
X148585384Y-107728610D01*
X148573489Y-107713107D01*
X148553166Y-107696054D01*
X148549121Y-107692347D01*
X148543974Y-107687200D01*
X148543972Y-107687199D01*
X148543970Y-107687197D01*
X148538012Y-107683025D01*
X148533649Y-107679677D01*
X148527479Y-107674499D01*
X148517539Y-107670881D01*
X148507003Y-107669959D01*
X148506341Y-107670137D01*
X148506082Y-107670206D01*
X148473471Y-107674500D01*
X145445530Y-107674500D01*
X145423650Y-107672586D01*
X145413952Y-107670875D01*
X145404254Y-107672586D01*
X145390938Y-107673750D01*
X145382453Y-107675246D01*
X145369539Y-107678706D01*
X145359827Y-107680419D01*
X145353737Y-107683934D01*
X145348354Y-107688452D01*
X145343426Y-107696987D01*
X145330835Y-107714969D01*
X145324499Y-107722519D01*
X145322097Y-107729119D01*
X145320876Y-107736048D01*
X145322586Y-107745746D01*
X145324500Y-107767624D01*
X145324500Y-109454469D01*
X145322587Y-109476343D01*
X145320876Y-109486048D01*
X145322586Y-109495746D01*
X145323750Y-109509059D01*
X145325249Y-109517559D01*
X145328707Y-109530468D01*
X145330418Y-109540170D01*
X145333935Y-109546262D01*
X145338452Y-109551645D01*
X145346982Y-109556570D01*
X145364972Y-109569167D01*
X145372518Y-109575499D01*
X145372519Y-109575499D01*
X145372520Y-109575500D01*
X145372521Y-109575500D01*
X145379123Y-109577903D01*
X145386047Y-109579124D01*
X145386047Y-109579123D01*
X145386048Y-109579124D01*
X145395746Y-109577413D01*
X145417625Y-109575500D01*
X147916537Y-109575500D01*
X147984658Y-109595502D01*
X148005632Y-109612405D01*
X149664617Y-111271390D01*
X149676516Y-111286897D01*
X149696839Y-111303950D01*
X149700883Y-111307656D01*
X149703954Y-111310727D01*
X149706028Y-111312801D01*
X149711977Y-111316966D01*
X149716339Y-111320314D01*
X149720975Y-111324203D01*
X149722520Y-111325500D01*
X149722522Y-111325500D01*
X149732462Y-111329118D01*
X149742996Y-111330040D01*
X149742997Y-111330039D01*
X149742998Y-111330040D01*
X149743917Y-111329793D01*
X149776529Y-111325500D01*
X164722520Y-111325500D01*
X168916537Y-111325500D01*
X168984658Y-111345502D01*
X169005632Y-111362405D01*
X170387595Y-112744368D01*
X170421621Y-112806680D01*
X170424500Y-112833463D01*
X170424500Y-131916535D01*
X170404498Y-131984656D01*
X170387595Y-132005630D01*
X168978604Y-133414620D01*
X168963101Y-133426517D01*
X168946058Y-133446826D01*
X168942352Y-133450871D01*
X168937201Y-133456022D01*
X168933030Y-133461980D01*
X168929686Y-133466339D01*
X168924499Y-133472520D01*
X168920882Y-133482458D01*
X168919960Y-133492997D01*
X168920206Y-133493915D01*
X168924500Y-133526530D01*
X168924500Y-140916536D01*
X168904498Y-140984657D01*
X168887595Y-141005631D01*
X158105631Y-151787595D01*
X158043319Y-151821621D01*
X158016536Y-151824500D01*
X134483464Y-151824500D01*
X134415343Y-151804498D01*
X134394368Y-151787595D01*
X133612404Y-151005630D01*
X133578379Y-150943318D01*
X133575500Y-150916535D01*
X133575500Y-148545248D01*
X133578051Y-148525872D01*
X133575740Y-148499445D01*
X133575500Y-148493953D01*
X133575500Y-148486690D01*
X133574239Y-148479541D01*
X133573521Y-148474085D01*
X133572818Y-148466045D01*
X133572817Y-148466044D01*
X133568349Y-148456461D01*
X133561546Y-148448353D01*
X133560724Y-148447879D01*
X133534628Y-148427855D01*
X132585382Y-147478608D01*
X132573488Y-147463107D01*
X132569581Y-147459828D01*
X132553161Y-147446050D01*
X132549121Y-147442347D01*
X132543974Y-147437200D01*
X132543972Y-147437199D01*
X132543970Y-147437197D01*
X132538012Y-147433025D01*
X132533649Y-147429677D01*
X132527479Y-147424499D01*
X132517539Y-147420881D01*
X132507003Y-147419959D01*
X132506341Y-147420137D01*
X132506082Y-147420206D01*
X132473471Y-147424500D01*
X128083463Y-147424500D01*
X128015342Y-147404498D01*
X127994372Y-147387599D01*
X127888464Y-147281691D01*
X136137685Y-147281691D01*
X136152031Y-147387595D01*
X136168094Y-147506178D01*
X136238099Y-147721626D01*
X136345440Y-147921100D01*
X136345444Y-147921107D01*
X136486687Y-148098219D01*
X136657280Y-148247262D01*
X136657282Y-148247263D01*
X136851750Y-148363453D01*
X137063839Y-148443051D01*
X137063841Y-148443051D01*
X137063843Y-148443052D01*
X137286730Y-148483500D01*
X137286733Y-148483500D01*
X138556516Y-148483500D01*
X138556522Y-148483500D01*
X138715126Y-148469225D01*
X138725623Y-148468281D01*
X138725623Y-148468280D01*
X138902062Y-148419586D01*
X138943990Y-148408015D01*
X138943990Y-148408014D01*
X138943993Y-148408014D01*
X139148093Y-148309725D01*
X139331363Y-148176571D01*
X139487912Y-148012834D01*
X139612709Y-147823774D01*
X139701743Y-147615470D01*
X139752151Y-147394615D01*
X139757223Y-147281691D01*
X141437685Y-147281691D01*
X141452031Y-147387595D01*
X141468094Y-147506178D01*
X141538099Y-147721626D01*
X141645440Y-147921100D01*
X141645444Y-147921107D01*
X141786687Y-148098219D01*
X141957280Y-148247262D01*
X141957282Y-148247263D01*
X142151750Y-148363453D01*
X142363839Y-148443051D01*
X142363841Y-148443051D01*
X142363843Y-148443052D01*
X142586730Y-148483500D01*
X142586733Y-148483500D01*
X143856516Y-148483500D01*
X143856522Y-148483500D01*
X144015126Y-148469225D01*
X144025623Y-148468281D01*
X144025623Y-148468280D01*
X144202062Y-148419586D01*
X144243990Y-148408015D01*
X144243990Y-148408014D01*
X144243993Y-148408014D01*
X144448093Y-148309725D01*
X144631363Y-148176571D01*
X144787912Y-148012834D01*
X144912709Y-147823774D01*
X145001743Y-147615470D01*
X145052151Y-147394615D01*
X145057223Y-147281691D01*
X146737685Y-147281691D01*
X146752031Y-147387595D01*
X146768094Y-147506178D01*
X146838099Y-147721626D01*
X146945440Y-147921100D01*
X146945444Y-147921107D01*
X147086687Y-148098219D01*
X147257280Y-148247262D01*
X147257282Y-148247263D01*
X147451750Y-148363453D01*
X147663839Y-148443051D01*
X147663841Y-148443051D01*
X147663843Y-148443052D01*
X147886730Y-148483500D01*
X147886733Y-148483500D01*
X149156516Y-148483500D01*
X149156522Y-148483500D01*
X149315126Y-148469225D01*
X149325623Y-148468281D01*
X149325623Y-148468280D01*
X149502062Y-148419586D01*
X149543990Y-148408015D01*
X149543990Y-148408014D01*
X149543993Y-148408014D01*
X149748093Y-148309725D01*
X149931363Y-148176571D01*
X150087912Y-148012834D01*
X150212709Y-147823774D01*
X150301743Y-147615470D01*
X150352151Y-147394615D01*
X150362315Y-147168309D01*
X150331906Y-146943825D01*
X150261903Y-146728379D01*
X150206934Y-146626229D01*
X150154559Y-146528899D01*
X150154555Y-146528892D01*
X150013312Y-146351780D01*
X149842719Y-146202737D01*
X149648256Y-146086550D01*
X149648252Y-146086548D01*
X149648251Y-146086547D01*
X149648250Y-146086547D01*
X149436161Y-146006949D01*
X149436156Y-146006947D01*
X149213270Y-145966500D01*
X149213267Y-145966500D01*
X147943478Y-145966500D01*
X147911992Y-145969333D01*
X147774376Y-145981718D01*
X147774376Y-145981719D01*
X147556009Y-146041984D01*
X147351913Y-146140271D01*
X147351906Y-146140275D01*
X147168636Y-146273429D01*
X147168635Y-146273430D01*
X147012087Y-146437166D01*
X146887293Y-146626221D01*
X146887289Y-146626229D01*
X146798257Y-146834529D01*
X146798256Y-146834531D01*
X146747849Y-147055382D01*
X146747849Y-147055385D01*
X146737685Y-147281691D01*
X145057223Y-147281691D01*
X145062315Y-147168309D01*
X145031906Y-146943825D01*
X144961903Y-146728379D01*
X144906934Y-146626229D01*
X144854559Y-146528899D01*
X144854555Y-146528892D01*
X144713312Y-146351780D01*
X144542719Y-146202737D01*
X144348256Y-146086550D01*
X144348252Y-146086548D01*
X144348251Y-146086547D01*
X144348250Y-146086547D01*
X144136161Y-146006949D01*
X144136156Y-146006947D01*
X143913270Y-145966500D01*
X143913267Y-145966500D01*
X142643478Y-145966500D01*
X142611992Y-145969333D01*
X142474376Y-145981718D01*
X142474376Y-145981719D01*
X142256009Y-146041984D01*
X142051913Y-146140271D01*
X142051906Y-146140275D01*
X141868636Y-146273429D01*
X141868635Y-146273430D01*
X141712087Y-146437166D01*
X141587293Y-146626221D01*
X141587289Y-146626229D01*
X141498257Y-146834529D01*
X141498256Y-146834531D01*
X141447849Y-147055382D01*
X141447849Y-147055385D01*
X141437685Y-147281691D01*
X139757223Y-147281691D01*
X139762315Y-147168309D01*
X139731906Y-146943825D01*
X139661903Y-146728379D01*
X139606934Y-146626229D01*
X139554559Y-146528899D01*
X139554555Y-146528892D01*
X139413312Y-146351780D01*
X139242719Y-146202737D01*
X139048256Y-146086550D01*
X139048252Y-146086548D01*
X139048251Y-146086547D01*
X139048250Y-146086547D01*
X138836161Y-146006949D01*
X138836156Y-146006947D01*
X138613270Y-145966500D01*
X138613267Y-145966500D01*
X137343478Y-145966500D01*
X137311992Y-145969333D01*
X137174376Y-145981718D01*
X137174376Y-145981719D01*
X136956009Y-146041984D01*
X136751913Y-146140271D01*
X136751906Y-146140275D01*
X136568636Y-146273429D01*
X136568635Y-146273430D01*
X136412087Y-146437166D01*
X136287293Y-146626221D01*
X136287289Y-146626229D01*
X136198257Y-146834529D01*
X136198256Y-146834531D01*
X136147849Y-147055382D01*
X136147849Y-147055385D01*
X136137685Y-147281691D01*
X127888464Y-147281691D01*
X127043974Y-146437200D01*
X127043973Y-146437199D01*
X127036791Y-146430017D01*
X127036790Y-146430017D01*
X127036784Y-146430011D01*
X123188464Y-142581691D01*
X136137685Y-142581691D01*
X136141071Y-142606686D01*
X136168094Y-142806178D01*
X136238099Y-143021626D01*
X136345440Y-143221100D01*
X136345444Y-143221107D01*
X136486687Y-143398219D01*
X136657280Y-143547262D01*
X136851743Y-143663449D01*
X136851750Y-143663453D01*
X137063839Y-143743051D01*
X137063841Y-143743051D01*
X137063843Y-143743052D01*
X137286730Y-143783500D01*
X137286733Y-143783500D01*
X138556516Y-143783500D01*
X138556522Y-143783500D01*
X138715126Y-143769225D01*
X138725623Y-143768281D01*
X138725623Y-143768280D01*
X138902062Y-143719586D01*
X138943990Y-143708015D01*
X138943990Y-143708014D01*
X138943993Y-143708014D01*
X139148093Y-143609725D01*
X139331363Y-143476571D01*
X139487912Y-143312834D01*
X139612709Y-143123774D01*
X139701743Y-142915470D01*
X139752151Y-142694615D01*
X139762315Y-142468309D01*
X139731906Y-142243825D01*
X139661903Y-142028379D01*
X139640568Y-141988732D01*
X139554559Y-141828899D01*
X139554555Y-141828892D01*
X139413312Y-141651780D01*
X139242719Y-141502737D01*
X139048256Y-141386550D01*
X139048252Y-141386548D01*
X139048251Y-141386547D01*
X139048250Y-141386547D01*
X138836161Y-141306949D01*
X138836156Y-141306947D01*
X138613270Y-141266500D01*
X138613267Y-141266500D01*
X137343478Y-141266500D01*
X137311992Y-141269333D01*
X137174376Y-141281718D01*
X137174376Y-141281719D01*
X136956009Y-141341984D01*
X136751913Y-141440271D01*
X136751906Y-141440275D01*
X136568636Y-141573429D01*
X136568635Y-141573430D01*
X136412087Y-141737166D01*
X136287293Y-141926221D01*
X136287289Y-141926229D01*
X136198257Y-142134529D01*
X136198256Y-142134531D01*
X136147849Y-142355382D01*
X136147849Y-142355385D01*
X136137685Y-142581691D01*
X123188464Y-142581691D01*
X115112405Y-134505631D01*
X115078379Y-134443319D01*
X115075500Y-134416536D01*
X115075500Y-130730004D01*
X120297308Y-130730004D01*
X120316052Y-131004048D01*
X120316053Y-131004054D01*
X120371942Y-131273011D01*
X120371944Y-131273019D01*
X120463938Y-131531865D01*
X120590314Y-131775756D01*
X120590316Y-131775759D01*
X120720541Y-131960248D01*
X121667912Y-131012876D01*
X121729680Y-131130566D01*
X121842405Y-131257806D01*
X121982305Y-131354371D01*
X122027642Y-131371565D01*
X121080715Y-132318492D01*
X121080715Y-132318494D01*
X121149313Y-132374304D01*
X121149318Y-132374307D01*
X121384030Y-132517038D01*
X121635989Y-132626480D01*
X121900509Y-132700595D01*
X122172635Y-132737999D01*
X122172649Y-132738000D01*
X122447351Y-132738000D01*
X122447364Y-132737999D01*
X122719490Y-132700595D01*
X122984010Y-132626480D01*
X123235969Y-132517038D01*
X123470679Y-132374309D01*
X123539283Y-132318493D01*
X123539283Y-132318492D01*
X122592356Y-131371565D01*
X122637695Y-131354371D01*
X122777595Y-131257806D01*
X122890320Y-131130566D01*
X122952087Y-131012877D01*
X123899457Y-131960247D01*
X124029682Y-131775762D01*
X124029685Y-131775756D01*
X124156061Y-131531865D01*
X124248055Y-131273019D01*
X124248057Y-131273011D01*
X124303946Y-131004054D01*
X124303947Y-131004048D01*
X124322692Y-130730004D01*
X124322692Y-130729995D01*
X124303947Y-130455951D01*
X124303946Y-130455945D01*
X124248057Y-130186988D01*
X124248055Y-130186980D01*
X124156061Y-129928134D01*
X124029685Y-129684243D01*
X124029681Y-129684237D01*
X123899457Y-129499750D01*
X122952086Y-130447121D01*
X122890320Y-130329434D01*
X122777595Y-130202194D01*
X122637695Y-130105629D01*
X122592355Y-130088433D01*
X123539283Y-129141505D01*
X123539283Y-129141504D01*
X123470680Y-129085691D01*
X123235969Y-128942961D01*
X122984010Y-128833519D01*
X122719490Y-128759404D01*
X122447364Y-128722000D01*
X122172635Y-128722000D01*
X121900509Y-128759404D01*
X121635989Y-128833519D01*
X121384030Y-128942961D01*
X121149325Y-129085687D01*
X121080715Y-129141505D01*
X121080714Y-129141506D01*
X122027642Y-130088434D01*
X121982305Y-130105629D01*
X121842405Y-130202194D01*
X121729680Y-130329434D01*
X121667913Y-130447122D01*
X120720541Y-129499750D01*
X120590317Y-129684236D01*
X120463938Y-129928134D01*
X120371944Y-130186980D01*
X120371942Y-130186988D01*
X120316053Y-130455945D01*
X120316052Y-130455951D01*
X120297308Y-130729995D01*
X120297308Y-130730004D01*
X115075500Y-130730004D01*
X115075500Y-120986688D01*
X115075500Y-117019844D01*
X115075499Y-114500004D01*
X120296807Y-114500004D01*
X120315556Y-114774116D01*
X120315557Y-114774122D01*
X120315558Y-114774130D01*
X120333238Y-114859210D01*
X120371460Y-115043146D01*
X120371462Y-115043154D01*
X120463408Y-115301865D01*
X120463477Y-115302058D01*
X120589752Y-115545759D01*
X120589892Y-115546028D01*
X120612712Y-115578356D01*
X120748343Y-115770502D01*
X120935889Y-115971314D01*
X121149031Y-116144718D01*
X121383800Y-116287484D01*
X121635823Y-116396953D01*
X121900404Y-116471085D01*
X121995504Y-116484156D01*
X122172604Y-116508499D01*
X122172615Y-116508500D01*
X122447385Y-116508500D01*
X122447395Y-116508499D01*
X122576945Y-116490692D01*
X122719596Y-116471085D01*
X122984177Y-116396953D01*
X123236200Y-116287484D01*
X123470969Y-116144718D01*
X123684111Y-115971314D01*
X123871657Y-115770502D01*
X124030111Y-115546023D01*
X124156523Y-115302058D01*
X124248538Y-115043153D01*
X124304442Y-114774130D01*
X124323193Y-114500004D01*
X126646807Y-114500004D01*
X126665556Y-114774116D01*
X126665557Y-114774122D01*
X126665558Y-114774130D01*
X126683238Y-114859210D01*
X126721460Y-115043146D01*
X126721462Y-115043154D01*
X126813408Y-115301865D01*
X126813477Y-115302058D01*
X126939752Y-115545759D01*
X126939892Y-115546028D01*
X126962712Y-115578356D01*
X127098343Y-115770502D01*
X127285889Y-115971314D01*
X127499031Y-116144718D01*
X127733800Y-116287484D01*
X127985823Y-116396953D01*
X128250404Y-116471085D01*
X128345504Y-116484156D01*
X128522604Y-116508499D01*
X128522615Y-116508500D01*
X128797385Y-116508500D01*
X128797395Y-116508499D01*
X128926945Y-116490692D01*
X129069596Y-116471085D01*
X129334177Y-116396953D01*
X129586200Y-116287484D01*
X129820969Y-116144718D01*
X130034111Y-115971314D01*
X130221657Y-115770502D01*
X130380111Y-115546023D01*
X130506523Y-115302058D01*
X130598538Y-115043153D01*
X130654442Y-114774130D01*
X130673193Y-114500004D01*
X132996807Y-114500004D01*
X133015556Y-114774116D01*
X133015557Y-114774122D01*
X133015558Y-114774130D01*
X133033238Y-114859210D01*
X133071460Y-115043146D01*
X133071462Y-115043154D01*
X133163408Y-115301865D01*
X133163477Y-115302058D01*
X133289752Y-115545759D01*
X133289892Y-115546028D01*
X133312712Y-115578356D01*
X133448343Y-115770502D01*
X133635889Y-115971314D01*
X133849031Y-116144718D01*
X134083800Y-116287484D01*
X134335823Y-116396953D01*
X134600404Y-116471085D01*
X134695504Y-116484156D01*
X134872604Y-116508499D01*
X134872615Y-116508500D01*
X135147385Y-116508500D01*
X135147395Y-116508499D01*
X135276945Y-116490692D01*
X135419596Y-116471085D01*
X135684177Y-116396953D01*
X135936200Y-116287484D01*
X136170969Y-116144718D01*
X136384111Y-115971314D01*
X136571657Y-115770502D01*
X136730111Y-115546023D01*
X136856523Y-115302058D01*
X136948538Y-115043153D01*
X137004442Y-114774130D01*
X137023193Y-114500000D01*
X137006089Y-114249954D01*
X137004443Y-114225883D01*
X137004442Y-114225877D01*
X137004442Y-114225870D01*
X136948538Y-113956847D01*
X136856523Y-113697942D01*
X136730111Y-113453977D01*
X136571657Y-113229498D01*
X136384111Y-113028686D01*
X136170969Y-112855282D01*
X135936200Y-112712516D01*
X135936201Y-112712516D01*
X135936197Y-112712514D01*
X135684180Y-112603048D01*
X135684178Y-112603047D01*
X135684177Y-112603047D01*
X135425892Y-112530679D01*
X135419593Y-112528914D01*
X135147395Y-112491500D01*
X135147385Y-112491500D01*
X134872615Y-112491500D01*
X134872604Y-112491500D01*
X134600406Y-112528914D01*
X134335819Y-112603048D01*
X134083802Y-112712514D01*
X133849028Y-112855284D01*
X133635886Y-113028688D01*
X133448343Y-113229498D01*
X133289892Y-113453971D01*
X133163477Y-113697941D01*
X133071462Y-113956845D01*
X133071460Y-113956853D01*
X133015557Y-114225877D01*
X133015556Y-114225883D01*
X132996807Y-114499995D01*
X132996807Y-114500004D01*
X130673193Y-114500004D01*
X130673193Y-114500000D01*
X130656089Y-114249954D01*
X130654443Y-114225883D01*
X130654442Y-114225877D01*
X130654442Y-114225870D01*
X130598538Y-113956847D01*
X130506523Y-113697942D01*
X130380111Y-113453977D01*
X130221657Y-113229498D01*
X130034111Y-113028686D01*
X129820969Y-112855282D01*
X129586200Y-112712516D01*
X129586201Y-112712516D01*
X129586197Y-112712514D01*
X129334180Y-112603048D01*
X129334178Y-112603047D01*
X129334177Y-112603047D01*
X129075892Y-112530679D01*
X129069593Y-112528914D01*
X128797395Y-112491500D01*
X128797385Y-112491500D01*
X128522615Y-112491500D01*
X128522604Y-112491500D01*
X128250406Y-112528914D01*
X127985819Y-112603048D01*
X127733802Y-112712514D01*
X127499028Y-112855284D01*
X127285886Y-113028688D01*
X127098343Y-113229498D01*
X126939892Y-113453971D01*
X126813477Y-113697941D01*
X126721462Y-113956845D01*
X126721460Y-113956853D01*
X126665557Y-114225877D01*
X126665556Y-114225883D01*
X126646807Y-114499995D01*
X126646807Y-114500004D01*
X124323193Y-114500004D01*
X124323193Y-114500000D01*
X124306089Y-114249954D01*
X124304443Y-114225883D01*
X124304442Y-114225877D01*
X124304442Y-114225870D01*
X124248538Y-113956847D01*
X124156523Y-113697942D01*
X124030111Y-113453977D01*
X123871657Y-113229498D01*
X123684111Y-113028686D01*
X123470969Y-112855282D01*
X123236200Y-112712516D01*
X123236201Y-112712516D01*
X123236197Y-112712514D01*
X122984180Y-112603048D01*
X122984178Y-112603047D01*
X122984177Y-112603047D01*
X122725892Y-112530679D01*
X122719593Y-112528914D01*
X122447395Y-112491500D01*
X122447385Y-112491500D01*
X122172615Y-112491500D01*
X122172604Y-112491500D01*
X121900406Y-112528914D01*
X121635819Y-112603048D01*
X121383802Y-112712514D01*
X121149028Y-112855284D01*
X120935886Y-113028688D01*
X120748343Y-113229498D01*
X120589892Y-113453971D01*
X120463477Y-113697941D01*
X120371462Y-113956845D01*
X120371460Y-113956853D01*
X120315557Y-114225877D01*
X120315556Y-114225883D01*
X120296807Y-114499995D01*
X120296807Y-114500004D01*
X115075499Y-114500004D01*
X115075499Y-112833459D01*
X115095501Y-112765342D01*
X115112399Y-112744373D01*
X116494368Y-111362405D01*
X116556680Y-111328379D01*
X116583463Y-111325500D01*
X116972520Y-111325500D01*
X135904753Y-111325500D01*
X135924127Y-111328051D01*
X135929204Y-111327606D01*
X135929205Y-111327607D01*
X135931002Y-111327449D01*
X135950555Y-111325740D01*
X135956047Y-111325500D01*
X135963312Y-111325500D01*
X135970455Y-111324240D01*
X135975910Y-111323521D01*
X135983955Y-111322818D01*
X135983957Y-111322815D01*
X135993543Y-111318346D01*
X136001642Y-111311550D01*
X136001642Y-111311548D01*
X136001645Y-111311548D01*
X136002121Y-111310721D01*
X136022140Y-111284631D01*
X137694370Y-109612402D01*
X137756680Y-109578379D01*
X137783463Y-109575500D01*
X140554470Y-109575500D01*
X140576350Y-109577414D01*
X140586047Y-109579124D01*
X140586047Y-109579123D01*
X140586048Y-109579124D01*
X140595746Y-109577413D01*
X140609067Y-109576248D01*
X140613310Y-109575500D01*
X140613312Y-109575500D01*
X140613313Y-109575499D01*
X140617576Y-109574748D01*
X140630473Y-109571290D01*
X140640172Y-109569581D01*
X140640173Y-109569579D01*
X140646260Y-109566064D01*
X140651641Y-109561549D01*
X140651645Y-109561548D01*
X140656569Y-109553018D01*
X140669163Y-109535031D01*
X140675500Y-109527480D01*
X140675500Y-109527479D01*
X140688980Y-109511415D01*
X140748091Y-109472090D01*
X140819079Y-109470966D01*
X140879405Y-109508398D01*
X140909918Y-109572504D01*
X140911500Y-109592409D01*
X140911500Y-110118356D01*
X140891498Y-110186477D01*
X140862891Y-110217787D01*
X140696765Y-110347088D01*
X140544279Y-110512729D01*
X140455483Y-110648643D01*
X140401479Y-110694731D01*
X140331131Y-110704306D01*
X140266774Y-110674329D01*
X140244517Y-110648643D01*
X140155720Y-110512729D01*
X140026705Y-110372584D01*
X140003240Y-110347094D01*
X140003239Y-110347093D01*
X140003237Y-110347091D01*
X139883372Y-110253796D01*
X139825576Y-110208811D01*
X139627574Y-110101658D01*
X139627572Y-110101657D01*
X139627571Y-110101656D01*
X139414639Y-110028557D01*
X139414630Y-110028555D01*
X139337029Y-110015606D01*
X139192569Y-109991500D01*
X138967431Y-109991500D01*
X138822971Y-110015606D01*
X138745369Y-110028555D01*
X138745360Y-110028557D01*
X138532428Y-110101656D01*
X138532426Y-110101658D01*
X138334426Y-110208810D01*
X138334424Y-110208811D01*
X138156762Y-110347091D01*
X138004279Y-110512729D01*
X138004275Y-110512734D01*
X137881141Y-110701206D01*
X137790703Y-110907386D01*
X137790702Y-110907387D01*
X137735437Y-111125624D01*
X137735436Y-111125630D01*
X137735436Y-111125632D01*
X137716844Y-111350000D01*
X137734232Y-111559844D01*
X137735437Y-111574375D01*
X137790702Y-111792612D01*
X137790703Y-111792613D01*
X137881141Y-111998793D01*
X138004275Y-112187265D01*
X138004279Y-112187270D01*
X138156762Y-112352908D01*
X138211331Y-112395381D01*
X138334424Y-112491189D01*
X138532426Y-112598342D01*
X138532427Y-112598342D01*
X138532428Y-112598343D01*
X138644227Y-112636723D01*
X138745365Y-112671444D01*
X138967431Y-112708500D01*
X138967435Y-112708500D01*
X139192565Y-112708500D01*
X139192569Y-112708500D01*
X139414635Y-112671444D01*
X139627574Y-112598342D01*
X139825576Y-112491189D01*
X140003240Y-112352906D01*
X140155722Y-112187268D01*
X140244518Y-112051354D01*
X140298520Y-112005268D01*
X140368868Y-111995692D01*
X140433225Y-112025669D01*
X140455480Y-112051353D01*
X140488607Y-112102058D01*
X140544275Y-112187265D01*
X140544279Y-112187270D01*
X140696762Y-112352908D01*
X140743142Y-112389007D01*
X140840910Y-112465104D01*
X140882380Y-112522727D01*
X140889288Y-112556926D01*
X140891385Y-112591588D01*
X140891500Y-112595394D01*
X140891500Y-115578356D01*
X140871498Y-115646477D01*
X140842891Y-115677787D01*
X140676765Y-115807088D01*
X140524279Y-115972729D01*
X140524275Y-115972734D01*
X140401141Y-116161206D01*
X140310703Y-116367386D01*
X140310702Y-116367387D01*
X140255437Y-116585624D01*
X140255436Y-116585630D01*
X140255436Y-116585632D01*
X140236844Y-116810000D01*
X140254232Y-117019844D01*
X140255437Y-117034375D01*
X140310702Y-117252612D01*
X140310703Y-117252613D01*
X140401141Y-117458793D01*
X140524275Y-117647265D01*
X140524280Y-117647270D01*
X140554559Y-117680162D01*
X140585980Y-117743827D01*
X140577994Y-117814373D01*
X140533135Y-117869402D01*
X140465646Y-117891443D01*
X140461858Y-117891500D01*
X131923302Y-117891500D01*
X131919502Y-117891385D01*
X131908953Y-117890747D01*
X131856904Y-117887598D01*
X131795227Y-117898901D01*
X131791465Y-117899474D01*
X131729201Y-117907034D01*
X131719663Y-117910651D01*
X131697706Y-117916772D01*
X131687674Y-117918610D01*
X131687668Y-117918612D01*
X131630492Y-117944345D01*
X131626977Y-117945801D01*
X131568324Y-117968046D01*
X131568319Y-117968048D01*
X131559921Y-117973845D01*
X131540072Y-117985040D01*
X131530777Y-117989223D01*
X131530773Y-117989225D01*
X131481409Y-118027899D01*
X131478346Y-118030153D01*
X131426727Y-118065784D01*
X131426723Y-118065788D01*
X131385134Y-118112731D01*
X131382526Y-118115502D01*
X125115511Y-124382518D01*
X125112740Y-124385126D01*
X125065784Y-124426726D01*
X125030157Y-124478339D01*
X125027904Y-124481401D01*
X124989227Y-124530769D01*
X124989222Y-124530779D01*
X124985035Y-124540080D01*
X124973846Y-124559921D01*
X124968045Y-124568326D01*
X124945807Y-124626961D01*
X124944351Y-124630476D01*
X124918613Y-124687665D01*
X124918609Y-124687678D01*
X124916770Y-124697711D01*
X124910651Y-124719661D01*
X124907034Y-124729199D01*
X124899476Y-124791441D01*
X124898904Y-124795201D01*
X124887598Y-124856906D01*
X124891385Y-124919508D01*
X124891500Y-124923313D01*
X124891500Y-131554339D01*
X124871498Y-131622460D01*
X124854595Y-131643434D01*
X122954387Y-133543641D01*
X122892075Y-133577667D01*
X122844554Y-133578828D01*
X122716239Y-133557416D01*
X122620855Y-133541500D01*
X122379145Y-133541500D01*
X122259832Y-133561409D01*
X122140734Y-133581283D01*
X122140727Y-133581285D01*
X121912121Y-133659765D01*
X121912119Y-133659766D01*
X121699542Y-133774807D01*
X121699541Y-133774808D01*
X121508792Y-133923274D01*
X121345095Y-134101097D01*
X121212889Y-134303454D01*
X121115798Y-134524799D01*
X121115795Y-134524806D01*
X121056463Y-134759103D01*
X121056461Y-134759112D01*
X121036501Y-135000000D01*
X121056461Y-135240887D01*
X121056463Y-135240896D01*
X121115795Y-135475193D01*
X121115798Y-135475200D01*
X121212889Y-135696545D01*
X121212891Y-135696549D01*
X121274890Y-135791445D01*
X121317658Y-135856907D01*
X121345094Y-135898900D01*
X121359427Y-135914470D01*
X121390849Y-135978134D01*
X121382863Y-136048680D01*
X121338004Y-136103710D01*
X121310762Y-136117863D01*
X121253793Y-136139112D01*
X121253792Y-136139112D01*
X121136738Y-136226738D01*
X121049112Y-136343792D01*
X121049110Y-136343797D01*
X120998011Y-136480795D01*
X120998009Y-136480803D01*
X120991500Y-136541350D01*
X120991500Y-138538649D01*
X120998009Y-138599196D01*
X120998011Y-138599204D01*
X121049110Y-138736202D01*
X121049112Y-138736207D01*
X121136738Y-138853261D01*
X121253792Y-138940887D01*
X121253794Y-138940888D01*
X121253796Y-138940889D01*
X121312875Y-138962924D01*
X121390795Y-138991988D01*
X121390803Y-138991990D01*
X121451350Y-138998499D01*
X121451355Y-138998499D01*
X121451362Y-138998500D01*
X121451368Y-138998500D01*
X123548632Y-138998500D01*
X123548638Y-138998500D01*
X123548645Y-138998499D01*
X123548649Y-138998499D01*
X123609196Y-138991990D01*
X123609199Y-138991989D01*
X123609201Y-138991989D01*
X123746204Y-138940889D01*
X123787836Y-138909724D01*
X123863261Y-138853261D01*
X123950887Y-138736207D01*
X123950887Y-138736206D01*
X123950889Y-138736204D01*
X123996904Y-138612834D01*
X124001988Y-138599204D01*
X124001990Y-138599196D01*
X124008499Y-138538649D01*
X124008500Y-138538632D01*
X124008500Y-137881691D01*
X136137685Y-137881691D01*
X136146483Y-137946639D01*
X136168094Y-138106178D01*
X136238099Y-138321626D01*
X136345440Y-138521100D01*
X136345444Y-138521107D01*
X136486687Y-138698219D01*
X136657280Y-138847262D01*
X136827747Y-138949112D01*
X136851750Y-138963453D01*
X137063839Y-139043051D01*
X137063841Y-139043051D01*
X137063843Y-139043052D01*
X137286730Y-139083500D01*
X137286733Y-139083500D01*
X138556516Y-139083500D01*
X138556522Y-139083500D01*
X138715126Y-139069225D01*
X138725623Y-139068281D01*
X138725623Y-139068280D01*
X138902062Y-139019586D01*
X138943990Y-139008015D01*
X138943990Y-139008014D01*
X138943993Y-139008014D01*
X139148093Y-138909725D01*
X139331363Y-138776571D01*
X139487912Y-138612834D01*
X139612709Y-138423774D01*
X139701743Y-138215470D01*
X139752151Y-137994615D01*
X139762315Y-137768309D01*
X139731906Y-137543825D01*
X139661903Y-137328379D01*
X139606934Y-137226229D01*
X139554559Y-137128899D01*
X139554555Y-137128892D01*
X139413312Y-136951780D01*
X139242719Y-136802737D01*
X139048256Y-136686550D01*
X139048252Y-136686548D01*
X139048251Y-136686547D01*
X139048250Y-136686547D01*
X138836161Y-136606949D01*
X138836156Y-136606947D01*
X138613270Y-136566500D01*
X138613267Y-136566500D01*
X137343478Y-136566500D01*
X137311992Y-136569333D01*
X137174376Y-136581718D01*
X137174376Y-136581719D01*
X136956009Y-136641984D01*
X136751913Y-136740271D01*
X136751906Y-136740275D01*
X136568636Y-136873429D01*
X136568635Y-136873430D01*
X136412087Y-137037166D01*
X136287293Y-137226221D01*
X136287289Y-137226229D01*
X136198257Y-137434529D01*
X136198256Y-137434531D01*
X136147849Y-137655382D01*
X136147849Y-137655385D01*
X136137685Y-137881691D01*
X124008500Y-137881691D01*
X124008500Y-136541367D01*
X124008499Y-136541350D01*
X124001990Y-136480803D01*
X124001988Y-136480795D01*
X123950889Y-136343797D01*
X123950887Y-136343792D01*
X123863261Y-136226738D01*
X123746207Y-136139112D01*
X123746204Y-136139111D01*
X123689238Y-136117863D01*
X123632403Y-136075316D01*
X123607593Y-136008795D01*
X123622685Y-135939421D01*
X123640568Y-135914474D01*
X123654906Y-135898900D01*
X123787109Y-135696549D01*
X123884203Y-135475197D01*
X123943539Y-135240884D01*
X123963499Y-135000000D01*
X123943539Y-134759116D01*
X123920562Y-134668383D01*
X123923228Y-134597438D01*
X123953609Y-134548359D01*
X126084519Y-132417449D01*
X126087231Y-132414896D01*
X126134215Y-132373273D01*
X126169867Y-132321621D01*
X126172063Y-132318636D01*
X126210775Y-132269226D01*
X126214961Y-132259922D01*
X126226161Y-132240066D01*
X126231954Y-132231675D01*
X126254202Y-132173009D01*
X126255634Y-132169552D01*
X126281389Y-132112329D01*
X126283226Y-132102303D01*
X126289351Y-132080330D01*
X126292965Y-132070801D01*
X126300526Y-132008525D01*
X126301091Y-132004812D01*
X126312402Y-131943093D01*
X126308614Y-131880488D01*
X126308500Y-131876685D01*
X126308500Y-130730004D01*
X126646807Y-130730004D01*
X126665556Y-131004116D01*
X126665557Y-131004122D01*
X126665558Y-131004130D01*
X126683238Y-131089210D01*
X126721460Y-131273146D01*
X126721462Y-131273154D01*
X126801628Y-131498719D01*
X126813477Y-131532058D01*
X126939752Y-131775759D01*
X126939892Y-131776028D01*
X127007797Y-131872227D01*
X127098343Y-132000502D01*
X127285889Y-132201314D01*
X127499031Y-132374718D01*
X127733800Y-132517484D01*
X127985823Y-132626953D01*
X128250404Y-132701085D01*
X128345504Y-132714156D01*
X128522604Y-132738499D01*
X128522615Y-132738500D01*
X128797385Y-132738500D01*
X128797395Y-132738499D01*
X128926945Y-132720692D01*
X129069596Y-132701085D01*
X129334177Y-132626953D01*
X129586200Y-132517484D01*
X129820969Y-132374718D01*
X130034111Y-132201314D01*
X130221657Y-132000502D01*
X130380111Y-131776023D01*
X130506523Y-131532058D01*
X130598538Y-131273153D01*
X130654442Y-131004130D01*
X130673193Y-130730004D01*
X132996807Y-130730004D01*
X133015556Y-131004116D01*
X133015557Y-131004122D01*
X133015558Y-131004130D01*
X133033238Y-131089210D01*
X133071460Y-131273146D01*
X133071462Y-131273154D01*
X133151628Y-131498719D01*
X133163477Y-131532058D01*
X133289752Y-131775759D01*
X133289892Y-131776028D01*
X133357797Y-131872227D01*
X133448343Y-132000502D01*
X133635889Y-132201314D01*
X133849031Y-132374718D01*
X134083800Y-132517484D01*
X134335823Y-132626953D01*
X134600404Y-132701085D01*
X134695504Y-132714156D01*
X134872604Y-132738499D01*
X134872615Y-132738500D01*
X135147385Y-132738500D01*
X135147395Y-132738499D01*
X135276945Y-132720692D01*
X135419596Y-132701085D01*
X135684177Y-132626953D01*
X135936200Y-132517484D01*
X136170969Y-132374718D01*
X136384111Y-132201314D01*
X136571657Y-132000502D01*
X136730111Y-131776023D01*
X136856523Y-131532058D01*
X136859187Y-131524561D01*
X136900845Y-131467072D01*
X136966972Y-131441230D01*
X137036572Y-131455241D01*
X137067008Y-131477658D01*
X137365105Y-131775756D01*
X137473853Y-131884504D01*
X137476454Y-131887267D01*
X137518047Y-131934215D01*
X137530909Y-131943093D01*
X137569662Y-131969844D01*
X137572726Y-131972098D01*
X137588756Y-131984656D01*
X137622094Y-132010774D01*
X137622097Y-132010775D01*
X137622098Y-132010776D01*
X137631385Y-132014956D01*
X137651247Y-132026157D01*
X137659645Y-132031954D01*
X137718312Y-132054203D01*
X137721778Y-132055639D01*
X137778990Y-132081388D01*
X137789016Y-132083225D01*
X137810982Y-132089347D01*
X137820519Y-132092965D01*
X137882793Y-132100525D01*
X137886536Y-132101095D01*
X137948227Y-132112401D01*
X138010822Y-132108614D01*
X138014622Y-132108500D01*
X141154340Y-132108500D01*
X141222461Y-132128502D01*
X141243435Y-132145405D01*
X145254595Y-136156564D01*
X145288621Y-136218876D01*
X145291500Y-136245659D01*
X145291500Y-137591390D01*
X145271498Y-137659511D01*
X145217842Y-137706004D01*
X145147568Y-137716108D01*
X145082988Y-137686614D01*
X145044604Y-137626888D01*
X145040640Y-137608304D01*
X145031905Y-137543821D01*
X144996394Y-137434531D01*
X144961903Y-137328379D01*
X144906934Y-137226229D01*
X144854559Y-137128899D01*
X144854555Y-137128892D01*
X144713312Y-136951780D01*
X144542719Y-136802737D01*
X144348256Y-136686550D01*
X144348252Y-136686548D01*
X144348251Y-136686547D01*
X144348250Y-136686547D01*
X144136161Y-136606949D01*
X144136156Y-136606947D01*
X143913270Y-136566500D01*
X143913267Y-136566500D01*
X142643478Y-136566500D01*
X142611992Y-136569333D01*
X142474376Y-136581718D01*
X142474376Y-136581719D01*
X142256009Y-136641984D01*
X142051913Y-136740271D01*
X142051906Y-136740275D01*
X141868636Y-136873429D01*
X141868635Y-136873430D01*
X141712087Y-137037166D01*
X141587293Y-137226221D01*
X141587289Y-137226229D01*
X141498257Y-137434529D01*
X141498256Y-137434531D01*
X141447849Y-137655382D01*
X141447849Y-137655385D01*
X141437685Y-137881691D01*
X141446483Y-137946639D01*
X141468094Y-138106178D01*
X141538099Y-138321626D01*
X141645440Y-138521100D01*
X141645444Y-138521107D01*
X141786687Y-138698219D01*
X141957280Y-138847262D01*
X142127747Y-138949112D01*
X142151750Y-138963453D01*
X142363839Y-139043051D01*
X142363841Y-139043051D01*
X142363843Y-139043052D01*
X142586730Y-139083500D01*
X142586733Y-139083500D01*
X143856516Y-139083500D01*
X143856522Y-139083500D01*
X144015126Y-139069225D01*
X144025623Y-139068281D01*
X144025623Y-139068280D01*
X144202062Y-139019586D01*
X144243990Y-139008015D01*
X144243990Y-139008014D01*
X144243993Y-139008014D01*
X144448093Y-138909725D01*
X144631363Y-138776571D01*
X144787912Y-138612834D01*
X144912709Y-138423774D01*
X145001743Y-138215470D01*
X145042658Y-138036203D01*
X145077318Y-137974241D01*
X145139974Y-137940853D01*
X145210734Y-137946639D01*
X145267133Y-137989763D01*
X145291264Y-138056533D01*
X145291500Y-138064240D01*
X145291500Y-139654339D01*
X145271498Y-139722460D01*
X145254595Y-139743434D01*
X143743435Y-141254595D01*
X143681123Y-141288620D01*
X143654340Y-141291500D01*
X142643478Y-141291500D01*
X142611992Y-141294333D01*
X142474376Y-141306718D01*
X142474376Y-141306719D01*
X142256009Y-141366984D01*
X142051913Y-141465271D01*
X142051906Y-141465275D01*
X141868636Y-141598429D01*
X141868635Y-141598430D01*
X141712087Y-141762166D01*
X141587293Y-141951221D01*
X141587289Y-141951229D01*
X141498257Y-142159529D01*
X141498256Y-142159531D01*
X141447849Y-142380382D01*
X141447849Y-142380385D01*
X141437685Y-142606691D01*
X141449596Y-142694617D01*
X141468094Y-142831178D01*
X141538099Y-143046626D01*
X141645440Y-143246100D01*
X141645444Y-143246107D01*
X141786687Y-143423219D01*
X141957280Y-143572262D01*
X142109904Y-143663451D01*
X142151750Y-143688453D01*
X142363839Y-143768051D01*
X142363841Y-143768051D01*
X142363843Y-143768052D01*
X142586730Y-143808500D01*
X142586733Y-143808500D01*
X143856516Y-143808500D01*
X143856522Y-143808500D01*
X144015126Y-143794225D01*
X144025623Y-143793281D01*
X144025623Y-143793280D01*
X144207625Y-143743051D01*
X144243990Y-143733015D01*
X144243990Y-143733014D01*
X144243993Y-143733014D01*
X144448093Y-143634725D01*
X144631363Y-143501571D01*
X144787912Y-143337834D01*
X144912709Y-143148774D01*
X145001743Y-142940470D01*
X145052151Y-142719615D01*
X145058346Y-142581691D01*
X146737685Y-142581691D01*
X146741071Y-142606686D01*
X146768094Y-142806178D01*
X146838099Y-143021626D01*
X146945440Y-143221100D01*
X146945444Y-143221107D01*
X147086687Y-143398219D01*
X147257280Y-143547262D01*
X147451743Y-143663449D01*
X147451750Y-143663453D01*
X147663839Y-143743051D01*
X147663841Y-143743051D01*
X147663843Y-143743052D01*
X147886730Y-143783500D01*
X147886733Y-143783500D01*
X149156516Y-143783500D01*
X149156522Y-143783500D01*
X149315126Y-143769225D01*
X149325623Y-143768281D01*
X149325623Y-143768280D01*
X149502062Y-143719586D01*
X149543990Y-143708015D01*
X149543990Y-143708014D01*
X149543993Y-143708014D01*
X149748093Y-143609725D01*
X149931363Y-143476571D01*
X150087912Y-143312834D01*
X150212709Y-143123774D01*
X150301743Y-142915470D01*
X150350922Y-142700000D01*
X160687004Y-142700000D01*
X160706951Y-142928002D01*
X160766186Y-143149068D01*
X160766188Y-143149073D01*
X160862913Y-143356501D01*
X160912899Y-143427888D01*
X161601272Y-142739515D01*
X161614835Y-142825148D01*
X161672359Y-142938045D01*
X161761955Y-143027641D01*
X161874852Y-143085165D01*
X161960482Y-143098727D01*
X161272110Y-143787098D01*
X161272110Y-143787100D01*
X161343498Y-143837086D01*
X161550926Y-143933811D01*
X161550931Y-143933813D01*
X161771999Y-143993048D01*
X161771995Y-143993048D01*
X162000000Y-144012995D01*
X162228002Y-143993048D01*
X162449068Y-143933813D01*
X162449073Y-143933811D01*
X162656497Y-143837088D01*
X162727888Y-143787099D01*
X162727888Y-143787097D01*
X162039518Y-143098727D01*
X162125148Y-143085165D01*
X162238045Y-143027641D01*
X162327641Y-142938045D01*
X162385165Y-142825148D01*
X162398727Y-142739516D01*
X163087098Y-143427888D01*
X163087099Y-143427888D01*
X163137088Y-143356497D01*
X163233811Y-143149073D01*
X163233813Y-143149068D01*
X163293048Y-142928002D01*
X163312995Y-142700000D01*
X163293048Y-142471997D01*
X163233813Y-142250931D01*
X163233811Y-142250926D01*
X163137086Y-142043498D01*
X163087100Y-141972110D01*
X163087097Y-141972110D01*
X162398726Y-142660480D01*
X162385165Y-142574852D01*
X162327641Y-142461955D01*
X162238045Y-142372359D01*
X162125148Y-142314835D01*
X162039514Y-142301272D01*
X162739569Y-141601218D01*
X162744709Y-141575649D01*
X162794108Y-141524657D01*
X162845369Y-141509667D01*
X162845283Y-141508861D01*
X162909196Y-141501990D01*
X162909199Y-141501989D01*
X162909201Y-141501989D01*
X163046204Y-141450889D01*
X163163261Y-141363261D01*
X163224303Y-141281719D01*
X163250887Y-141246207D01*
X163250887Y-141246206D01*
X163250889Y-141246204D01*
X163301989Y-141109201D01*
X163306249Y-141069581D01*
X163308499Y-141048649D01*
X163308500Y-141048632D01*
X163308500Y-139351367D01*
X163308499Y-139351350D01*
X163301990Y-139290803D01*
X163301988Y-139290795D01*
X163250889Y-139153797D01*
X163250887Y-139153792D01*
X163163261Y-139036738D01*
X163046207Y-138949112D01*
X163046202Y-138949110D01*
X162909204Y-138898011D01*
X162909196Y-138898009D01*
X162848649Y-138891500D01*
X162848638Y-138891500D01*
X161151362Y-138891500D01*
X161151350Y-138891500D01*
X161090803Y-138898009D01*
X161090795Y-138898011D01*
X160953797Y-138949110D01*
X160953792Y-138949112D01*
X160836738Y-139036738D01*
X160749112Y-139153792D01*
X160749110Y-139153797D01*
X160698011Y-139290795D01*
X160698009Y-139290803D01*
X160691500Y-139351350D01*
X160691500Y-141048649D01*
X160698009Y-141109196D01*
X160698011Y-141109204D01*
X160749110Y-141246202D01*
X160749112Y-141246207D01*
X160836738Y-141363261D01*
X160953792Y-141450887D01*
X160953794Y-141450888D01*
X160953796Y-141450889D01*
X160992366Y-141465275D01*
X161090795Y-141501988D01*
X161090803Y-141501990D01*
X161154717Y-141508861D01*
X161154604Y-141509906D01*
X161217435Y-141532059D01*
X161261000Y-141588118D01*
X161263316Y-141604106D01*
X161960483Y-142301272D01*
X161874852Y-142314835D01*
X161761955Y-142372359D01*
X161672359Y-142461955D01*
X161614835Y-142574852D01*
X161601272Y-142660482D01*
X160912899Y-141972109D01*
X160862913Y-142043500D01*
X160766188Y-142250926D01*
X160766186Y-142250931D01*
X160706951Y-142471997D01*
X160687004Y-142700000D01*
X150350922Y-142700000D01*
X150352151Y-142694615D01*
X150362315Y-142468309D01*
X150331906Y-142243825D01*
X150261903Y-142028379D01*
X150240568Y-141988732D01*
X150154559Y-141828899D01*
X150154555Y-141828892D01*
X150013312Y-141651780D01*
X149842719Y-141502737D01*
X149648256Y-141386550D01*
X149648252Y-141386548D01*
X149648251Y-141386547D01*
X149648250Y-141386547D01*
X149436161Y-141306949D01*
X149436156Y-141306947D01*
X149213270Y-141266500D01*
X149213267Y-141266500D01*
X147943478Y-141266500D01*
X147911992Y-141269333D01*
X147774376Y-141281718D01*
X147774376Y-141281719D01*
X147556009Y-141341984D01*
X147351913Y-141440271D01*
X147351906Y-141440275D01*
X147168636Y-141573429D01*
X147168635Y-141573430D01*
X147012087Y-141737166D01*
X146887293Y-141926221D01*
X146887289Y-141926229D01*
X146798257Y-142134529D01*
X146798256Y-142134531D01*
X146747849Y-142355382D01*
X146747849Y-142355385D01*
X146737685Y-142581691D01*
X145058346Y-142581691D01*
X145062315Y-142493309D01*
X145031906Y-142268825D01*
X144982497Y-142116763D01*
X144980470Y-142045796D01*
X145013234Y-141988734D01*
X146484519Y-140517449D01*
X146487231Y-140514896D01*
X146534215Y-140473273D01*
X146569846Y-140421652D01*
X146572084Y-140418609D01*
X146610775Y-140369225D01*
X146614955Y-140359935D01*
X146626159Y-140340069D01*
X146631954Y-140331675D01*
X146654197Y-140273020D01*
X146655649Y-140269519D01*
X146658681Y-140262779D01*
X146681389Y-140212329D01*
X146683227Y-140202293D01*
X146689347Y-140180340D01*
X146692965Y-140170801D01*
X146700526Y-140108523D01*
X146701090Y-140104815D01*
X146712402Y-140043092D01*
X146708614Y-139980481D01*
X146708500Y-139976679D01*
X146708500Y-139056549D01*
X146728502Y-138988428D01*
X146782158Y-138941935D01*
X146852432Y-138931831D01*
X146910009Y-138955681D01*
X147003792Y-139025887D01*
X147003794Y-139025888D01*
X147003796Y-139025889D01*
X147062875Y-139047924D01*
X147140795Y-139076988D01*
X147140803Y-139076990D01*
X147201350Y-139083499D01*
X147201355Y-139083499D01*
X147201362Y-139083500D01*
X147201368Y-139083500D01*
X149898632Y-139083500D01*
X149898638Y-139083500D01*
X149898645Y-139083499D01*
X149898649Y-139083499D01*
X149959196Y-139076990D01*
X149959199Y-139076989D01*
X149959201Y-139076989D01*
X150096204Y-139025889D01*
X150132792Y-138998500D01*
X150213261Y-138938261D01*
X150300887Y-138821207D01*
X150300887Y-138821206D01*
X150300889Y-138821204D01*
X150351989Y-138684201D01*
X150358500Y-138623638D01*
X150358500Y-137026362D01*
X150358499Y-137026350D01*
X150351990Y-136965803D01*
X150351988Y-136965795D01*
X150300889Y-136828797D01*
X150300887Y-136828792D01*
X150213261Y-136711738D01*
X150096207Y-136624112D01*
X150096202Y-136624110D01*
X149959204Y-136573011D01*
X149959196Y-136573009D01*
X149898649Y-136566500D01*
X149898638Y-136566500D01*
X147201362Y-136566500D01*
X147201350Y-136566500D01*
X147140803Y-136573009D01*
X147140795Y-136573011D01*
X147003797Y-136624110D01*
X147003792Y-136624113D01*
X146910009Y-136694318D01*
X146843488Y-136719129D01*
X146774114Y-136704037D01*
X146723912Y-136653835D01*
X146708500Y-136593450D01*
X146708500Y-135923313D01*
X146708615Y-135919508D01*
X146708920Y-135914467D01*
X146712402Y-135856907D01*
X146701090Y-135795182D01*
X146700527Y-135791478D01*
X146692965Y-135729199D01*
X146692838Y-135728864D01*
X146689351Y-135719668D01*
X146683227Y-135697702D01*
X146681389Y-135687673D01*
X146681389Y-135687671D01*
X146655646Y-135630473D01*
X146654189Y-135626956D01*
X146631957Y-135568332D01*
X146631955Y-135568329D01*
X146631954Y-135568325D01*
X146626163Y-135559935D01*
X146614958Y-135540070D01*
X146610775Y-135530774D01*
X146572088Y-135481395D01*
X146569846Y-135478348D01*
X146534215Y-135426727D01*
X146487249Y-135385119D01*
X146484503Y-135382533D01*
X142017464Y-130915494D01*
X142014880Y-130912750D01*
X141973273Y-130865785D01*
X141973270Y-130865783D01*
X141973271Y-130865783D01*
X141921655Y-130830154D01*
X141918590Y-130827899D01*
X141900146Y-130813449D01*
X141869226Y-130789225D01*
X141869222Y-130789223D01*
X141859919Y-130785035D01*
X141840069Y-130773840D01*
X141831675Y-130768046D01*
X141808705Y-130759334D01*
X141773043Y-130745809D01*
X141769528Y-130744353D01*
X141737645Y-130730004D01*
X148562308Y-130730004D01*
X148581052Y-131004048D01*
X148581053Y-131004054D01*
X148636942Y-131273011D01*
X148636944Y-131273019D01*
X148728938Y-131531865D01*
X148855314Y-131775756D01*
X148855316Y-131775759D01*
X148985541Y-131960248D01*
X149932912Y-131012876D01*
X149994680Y-131130566D01*
X150107405Y-131257806D01*
X150247305Y-131354371D01*
X150292642Y-131371565D01*
X149345715Y-132318492D01*
X149345715Y-132318494D01*
X149414313Y-132374304D01*
X149414318Y-132374307D01*
X149649030Y-132517038D01*
X149900989Y-132626480D01*
X150165509Y-132700595D01*
X150437635Y-132737999D01*
X150437649Y-132738000D01*
X150712351Y-132738000D01*
X150712364Y-132737999D01*
X150984490Y-132700595D01*
X151249010Y-132626480D01*
X151500969Y-132517038D01*
X151735679Y-132374309D01*
X151804283Y-132318493D01*
X151804283Y-132318492D01*
X150857356Y-131371565D01*
X150902695Y-131354371D01*
X151042595Y-131257806D01*
X151155320Y-131130566D01*
X151217086Y-131012877D01*
X152164458Y-131960247D01*
X152294682Y-131775762D01*
X152294685Y-131775756D01*
X152421061Y-131531865D01*
X152513055Y-131273019D01*
X152513057Y-131273011D01*
X152568946Y-131004054D01*
X152568947Y-131004048D01*
X152587692Y-130730004D01*
X154911807Y-130730004D01*
X154930556Y-131004116D01*
X154930557Y-131004122D01*
X154930558Y-131004130D01*
X154948238Y-131089210D01*
X154986460Y-131273146D01*
X154986462Y-131273154D01*
X155066628Y-131498719D01*
X155078477Y-131532058D01*
X155204752Y-131775759D01*
X155204892Y-131776028D01*
X155272797Y-131872227D01*
X155363343Y-132000502D01*
X155550889Y-132201314D01*
X155764031Y-132374718D01*
X155998800Y-132517484D01*
X156250823Y-132626953D01*
X156515404Y-132701085D01*
X156610504Y-132714156D01*
X156787604Y-132738499D01*
X156787615Y-132738500D01*
X157062385Y-132738500D01*
X157062395Y-132738499D01*
X157191945Y-132720692D01*
X157334596Y-132701085D01*
X157599177Y-132626953D01*
X157851200Y-132517484D01*
X158085969Y-132374718D01*
X158299111Y-132201314D01*
X158486657Y-132000502D01*
X158645111Y-131776023D01*
X158771523Y-131532058D01*
X158863538Y-131273153D01*
X158919442Y-131004130D01*
X158938193Y-130730000D01*
X158936869Y-130710650D01*
X158919443Y-130455883D01*
X158919442Y-130455877D01*
X158919442Y-130455870D01*
X158863538Y-130186847D01*
X158771523Y-129927942D01*
X158645111Y-129683977D01*
X158645105Y-129683969D01*
X158614930Y-129641221D01*
X158486657Y-129459498D01*
X158299111Y-129258686D01*
X158085969Y-129085282D01*
X157851200Y-128942516D01*
X157851201Y-128942516D01*
X157851197Y-128942514D01*
X157599180Y-128833048D01*
X157599178Y-128833047D01*
X157599177Y-128833047D01*
X157466886Y-128795981D01*
X157334593Y-128758914D01*
X157062395Y-128721500D01*
X157062385Y-128721500D01*
X156787615Y-128721500D01*
X156787604Y-128721500D01*
X156515406Y-128758914D01*
X156250819Y-128833048D01*
X155998802Y-128942514D01*
X155764028Y-129085284D01*
X155550886Y-129258688D01*
X155363343Y-129459498D01*
X155204892Y-129683971D01*
X155078477Y-129927941D01*
X154986462Y-130186845D01*
X154986460Y-130186853D01*
X154930557Y-130455877D01*
X154930556Y-130455883D01*
X154911807Y-130729995D01*
X154911807Y-130730004D01*
X152587692Y-130730004D01*
X152587692Y-130729995D01*
X152568947Y-130455951D01*
X152568946Y-130455945D01*
X152513057Y-130186988D01*
X152513055Y-130186980D01*
X152421061Y-129928134D01*
X152294685Y-129684243D01*
X152294681Y-129684237D01*
X152164457Y-129499750D01*
X151217086Y-130447120D01*
X151155320Y-130329434D01*
X151042595Y-130202194D01*
X150902695Y-130105629D01*
X150857355Y-130088433D01*
X151804283Y-129141504D01*
X151735680Y-129085691D01*
X151500969Y-128942961D01*
X151249010Y-128833519D01*
X150984490Y-128759404D01*
X150712364Y-128722000D01*
X150437635Y-128722000D01*
X150165509Y-128759404D01*
X149900989Y-128833519D01*
X149649030Y-128942961D01*
X149414325Y-129085687D01*
X149345715Y-129141505D01*
X149345714Y-129141505D01*
X150292643Y-130088434D01*
X150247305Y-130105629D01*
X150107405Y-130202194D01*
X149994680Y-130329434D01*
X149932913Y-130447121D01*
X148985541Y-129499750D01*
X148855317Y-129684236D01*
X148728938Y-129928134D01*
X148636944Y-130186980D01*
X148636942Y-130186988D01*
X148581053Y-130455945D01*
X148581052Y-130455951D01*
X148562308Y-130729995D01*
X148562308Y-130730004D01*
X141737645Y-130730004D01*
X141712332Y-130718612D01*
X141712330Y-130718611D01*
X141712329Y-130718611D01*
X141702286Y-130716770D01*
X141680336Y-130710650D01*
X141670801Y-130707035D01*
X141670800Y-130707034D01*
X141670798Y-130707034D01*
X141670794Y-130707033D01*
X141618362Y-130700667D01*
X141608537Y-130699473D01*
X141604786Y-130698902D01*
X141563760Y-130691385D01*
X141543094Y-130687598D01*
X141543093Y-130687598D01*
X141480488Y-130691385D01*
X141476685Y-130691500D01*
X138336982Y-130691500D01*
X138268861Y-130671498D01*
X138247887Y-130654596D01*
X137588785Y-129995495D01*
X137586176Y-129992723D01*
X137544593Y-129945785D01*
X137522680Y-129930659D01*
X137492975Y-129910154D01*
X137489910Y-129907899D01*
X137471407Y-129893403D01*
X137440546Y-129869225D01*
X137440542Y-129869223D01*
X137431239Y-129865035D01*
X137411389Y-129853840D01*
X137402995Y-129848046D01*
X137369743Y-129835435D01*
X137344363Y-129825809D01*
X137340848Y-129824353D01*
X137283652Y-129798612D01*
X137283650Y-129798611D01*
X137283649Y-129798611D01*
X137273606Y-129796770D01*
X137251656Y-129790650D01*
X137242121Y-129787035D01*
X137242120Y-129787034D01*
X137242118Y-129787034D01*
X137242114Y-129787033D01*
X137189682Y-129780667D01*
X137179857Y-129779473D01*
X137176106Y-129778902D01*
X137135080Y-129771385D01*
X137114414Y-129767598D01*
X137114413Y-129767598D01*
X137051808Y-129771385D01*
X137048005Y-129771500D01*
X136852084Y-129771500D01*
X136783963Y-129751498D01*
X136740211Y-129703469D01*
X136730114Y-129683983D01*
X136730111Y-129683977D01*
X136571657Y-129459498D01*
X136384111Y-129258686D01*
X136170969Y-129085282D01*
X135936200Y-128942516D01*
X135936201Y-128942516D01*
X135936197Y-128942514D01*
X135684180Y-128833048D01*
X135684178Y-128833047D01*
X135684177Y-128833047D01*
X135551886Y-128795981D01*
X135419593Y-128758914D01*
X135147395Y-128721500D01*
X135147385Y-128721500D01*
X134872615Y-128721500D01*
X134872604Y-128721500D01*
X134600406Y-128758914D01*
X134335819Y-128833048D01*
X134083802Y-128942514D01*
X133849028Y-129085284D01*
X133635886Y-129258688D01*
X133448343Y-129459498D01*
X133289892Y-129683971D01*
X133163477Y-129927941D01*
X133071462Y-130186845D01*
X133071460Y-130186853D01*
X133015557Y-130455877D01*
X133015556Y-130455883D01*
X132996807Y-130729995D01*
X132996807Y-130730004D01*
X130673193Y-130730004D01*
X130673193Y-130730000D01*
X130671869Y-130710650D01*
X130654443Y-130455883D01*
X130654442Y-130455877D01*
X130654442Y-130455870D01*
X130598538Y-130186847D01*
X130506523Y-129927942D01*
X130380111Y-129683977D01*
X130380105Y-129683969D01*
X130349930Y-129641221D01*
X130221657Y-129459498D01*
X130034111Y-129258686D01*
X129820969Y-129085282D01*
X129586200Y-128942516D01*
X129586201Y-128942516D01*
X129586197Y-128942514D01*
X129334180Y-128833048D01*
X129334178Y-128833047D01*
X129334177Y-128833047D01*
X129201886Y-128795981D01*
X129069593Y-128758914D01*
X128797395Y-128721500D01*
X128797385Y-128721500D01*
X128522615Y-128721500D01*
X128522604Y-128721500D01*
X128250406Y-128758914D01*
X127985819Y-128833048D01*
X127733802Y-128942514D01*
X127499028Y-129085284D01*
X127285886Y-129258688D01*
X127098343Y-129459498D01*
X126939892Y-129683971D01*
X126813477Y-129927941D01*
X126721462Y-130186845D01*
X126721460Y-130186853D01*
X126665557Y-130455877D01*
X126665556Y-130455883D01*
X126646807Y-130729995D01*
X126646807Y-130730004D01*
X126308500Y-130730004D01*
X126308500Y-125245660D01*
X126328502Y-125177539D01*
X126345405Y-125156565D01*
X132156566Y-119345405D01*
X132218878Y-119311379D01*
X132245661Y-119308500D01*
X141254340Y-119308500D01*
X141322461Y-119328502D01*
X141343435Y-119345405D01*
X142382533Y-120384503D01*
X142385119Y-120387249D01*
X142426727Y-120434215D01*
X142459666Y-120456951D01*
X142478355Y-120469852D01*
X142481389Y-120472083D01*
X142530775Y-120510775D01*
X142540070Y-120514958D01*
X142559933Y-120526161D01*
X142568325Y-120531954D01*
X142626986Y-120554200D01*
X142630466Y-120555642D01*
X142687671Y-120581389D01*
X142697704Y-120583227D01*
X142719668Y-120589351D01*
X142729196Y-120592964D01*
X142729199Y-120592965D01*
X142791470Y-120600525D01*
X142795193Y-120601092D01*
X142856908Y-120612402D01*
X142919519Y-120608614D01*
X142923319Y-120608500D01*
X159654340Y-120608500D01*
X159722461Y-120628502D01*
X159743435Y-120645404D01*
X165304596Y-126206566D01*
X165338621Y-126268876D01*
X165341500Y-126295659D01*
X165341500Y-129835435D01*
X165321498Y-129903556D01*
X165267842Y-129950049D01*
X165197568Y-129960153D01*
X165132988Y-129930659D01*
X165103626Y-129893403D01*
X165086495Y-129860341D01*
X164995111Y-129683977D01*
X164995105Y-129683969D01*
X164964930Y-129641221D01*
X164836657Y-129459498D01*
X164649111Y-129258686D01*
X164435969Y-129085282D01*
X164201200Y-128942516D01*
X164201201Y-128942516D01*
X164201197Y-128942514D01*
X163949180Y-128833048D01*
X163949178Y-128833047D01*
X163949177Y-128833047D01*
X163816886Y-128795980D01*
X163684593Y-128758914D01*
X163412395Y-128721500D01*
X163412385Y-128721500D01*
X163137615Y-128721500D01*
X163137604Y-128721500D01*
X162865406Y-128758914D01*
X162600819Y-128833048D01*
X162348802Y-128942514D01*
X162114028Y-129085284D01*
X161900886Y-129258688D01*
X161713343Y-129459498D01*
X161554892Y-129683971D01*
X161428477Y-129927941D01*
X161336462Y-130186845D01*
X161336460Y-130186853D01*
X161280557Y-130455877D01*
X161280556Y-130455883D01*
X161261807Y-130729995D01*
X161261807Y-130730004D01*
X161280556Y-131004116D01*
X161280557Y-131004122D01*
X161280558Y-131004130D01*
X161298238Y-131089210D01*
X161336460Y-131273146D01*
X161336462Y-131273154D01*
X161416628Y-131498719D01*
X161428477Y-131532058D01*
X161554752Y-131775759D01*
X161554892Y-131776028D01*
X161622797Y-131872227D01*
X161713343Y-132000502D01*
X161900889Y-132201314D01*
X162114031Y-132374718D01*
X162348800Y-132517484D01*
X162600823Y-132626953D01*
X162865404Y-132701085D01*
X162960504Y-132714156D01*
X163137604Y-132738499D01*
X163137615Y-132738500D01*
X163412385Y-132738500D01*
X163412395Y-132738499D01*
X163541945Y-132720692D01*
X163684596Y-132701085D01*
X163949177Y-132626953D01*
X164201200Y-132517484D01*
X164435969Y-132374718D01*
X164649111Y-132201314D01*
X164836657Y-132000502D01*
X164995111Y-131776023D01*
X165103628Y-131566593D01*
X165152726Y-131515315D01*
X165221755Y-131498719D01*
X165288799Y-131522079D01*
X165332571Y-131577976D01*
X165341500Y-131624564D01*
X165341500Y-134386346D01*
X165321498Y-134454467D01*
X165309137Y-134470656D01*
X165270957Y-134513059D01*
X165175476Y-134678438D01*
X165175473Y-134678445D01*
X165116457Y-134860072D01*
X165096496Y-135050000D01*
X165116457Y-135239927D01*
X165146526Y-135332470D01*
X165175473Y-135421556D01*
X165203841Y-135470691D01*
X165270958Y-135586941D01*
X165270965Y-135586951D01*
X165398744Y-135728864D01*
X165398747Y-135728866D01*
X165553248Y-135841118D01*
X165727712Y-135918794D01*
X165914513Y-135958500D01*
X166105487Y-135958500D01*
X166292288Y-135918794D01*
X166466752Y-135841118D01*
X166621253Y-135728866D01*
X166649313Y-135697702D01*
X166749034Y-135586951D01*
X166749035Y-135586949D01*
X166749040Y-135586944D01*
X166844527Y-135421556D01*
X166903542Y-135239928D01*
X166923504Y-135050000D01*
X166903542Y-134860072D01*
X166844527Y-134678444D01*
X166797758Y-134597438D01*
X166775381Y-134558679D01*
X166758500Y-134495679D01*
X166758500Y-125973313D01*
X166758615Y-125969508D01*
X166762402Y-125906907D01*
X166751090Y-125845182D01*
X166750527Y-125841478D01*
X166742965Y-125779199D01*
X166742964Y-125779196D01*
X166739351Y-125769668D01*
X166733227Y-125747702D01*
X166731389Y-125737673D01*
X166731389Y-125737671D01*
X166705646Y-125680473D01*
X166704189Y-125676956D01*
X166681957Y-125618332D01*
X166681955Y-125618329D01*
X166681954Y-125618325D01*
X166676163Y-125609935D01*
X166664958Y-125590070D01*
X166660775Y-125580774D01*
X166622088Y-125531395D01*
X166619846Y-125528348D01*
X166584215Y-125476727D01*
X166537249Y-125435119D01*
X166534503Y-125432533D01*
X160517464Y-119415494D01*
X160514880Y-119412750D01*
X160473273Y-119365785D01*
X160473270Y-119365783D01*
X160473271Y-119365783D01*
X160421655Y-119330154D01*
X160418590Y-119327899D01*
X160397503Y-119311379D01*
X160369226Y-119289225D01*
X160369222Y-119289223D01*
X160359919Y-119285035D01*
X160340069Y-119273840D01*
X160331675Y-119268046D01*
X160308705Y-119259334D01*
X160273043Y-119245809D01*
X160269528Y-119244353D01*
X160212332Y-119218612D01*
X160212330Y-119218611D01*
X160212329Y-119218611D01*
X160202286Y-119216770D01*
X160180336Y-119210650D01*
X160170801Y-119207035D01*
X160170800Y-119207034D01*
X160170798Y-119207034D01*
X160170794Y-119207033D01*
X160118362Y-119200667D01*
X160108537Y-119199473D01*
X160104786Y-119198902D01*
X160063760Y-119191385D01*
X160043094Y-119187598D01*
X160043093Y-119187598D01*
X159980488Y-119191385D01*
X159976685Y-119191500D01*
X143245660Y-119191500D01*
X143177539Y-119171498D01*
X143156565Y-119154595D01*
X142345405Y-118343435D01*
X142311379Y-118281123D01*
X142308500Y-118254340D01*
X142308500Y-118041644D01*
X142328502Y-117973523D01*
X142357109Y-117942213D01*
X142523233Y-117812912D01*
X142523234Y-117812910D01*
X142523240Y-117812906D01*
X142584626Y-117746222D01*
X142645476Y-117709654D01*
X142716441Y-117711787D01*
X142774986Y-117751949D01*
X142795380Y-117787529D01*
X142839553Y-117905961D01*
X142839555Y-117905965D01*
X142927095Y-118022904D01*
X143044034Y-118110444D01*
X143180906Y-118161494D01*
X143241402Y-118167999D01*
X143241415Y-118168000D01*
X143886000Y-118168000D01*
X143886000Y-117243674D01*
X143997685Y-117294680D01*
X144104237Y-117310000D01*
X144175763Y-117310000D01*
X144282315Y-117294680D01*
X144394000Y-117243674D01*
X144394000Y-118168000D01*
X145038585Y-118168000D01*
X145038597Y-118167999D01*
X145099093Y-118161494D01*
X145235964Y-118110444D01*
X145235965Y-118110444D01*
X145352904Y-118022904D01*
X145440444Y-117905965D01*
X145440444Y-117905964D01*
X145491494Y-117769093D01*
X145497999Y-117708597D01*
X145498000Y-117708585D01*
X145498000Y-117064000D01*
X144571116Y-117064000D01*
X144599493Y-117019844D01*
X144640000Y-116881889D01*
X144640000Y-116738111D01*
X144599493Y-116600156D01*
X144571116Y-116556000D01*
X145498000Y-116556000D01*
X145498000Y-115911414D01*
X145497999Y-115911402D01*
X145491494Y-115850906D01*
X145440444Y-115714035D01*
X145440444Y-115714034D01*
X145352904Y-115597095D01*
X145235965Y-115509555D01*
X145099093Y-115458505D01*
X145038597Y-115452000D01*
X144394000Y-115452000D01*
X144394000Y-116376325D01*
X144282315Y-116325320D01*
X144175763Y-116310000D01*
X144104237Y-116310000D01*
X143997685Y-116325320D01*
X143886000Y-116376325D01*
X143886000Y-115452000D01*
X143241402Y-115452000D01*
X143180906Y-115458505D01*
X143044035Y-115509555D01*
X143044034Y-115509555D01*
X142927095Y-115597095D01*
X142839555Y-115714034D01*
X142839553Y-115714039D01*
X142795380Y-115832470D01*
X142752833Y-115889306D01*
X142686313Y-115914116D01*
X142616939Y-115899024D01*
X142584626Y-115873777D01*
X142523240Y-115807094D01*
X142523238Y-115807092D01*
X142523233Y-115807087D01*
X142357109Y-115677787D01*
X142315638Y-115620162D01*
X142308500Y-115578356D01*
X142308500Y-114500004D01*
X148561807Y-114500004D01*
X148580556Y-114774116D01*
X148580557Y-114774122D01*
X148580558Y-114774130D01*
X148598238Y-114859210D01*
X148636460Y-115043146D01*
X148636462Y-115043154D01*
X148728408Y-115301865D01*
X148728477Y-115302058D01*
X148854752Y-115545759D01*
X148854892Y-115546028D01*
X148877712Y-115578356D01*
X149013343Y-115770502D01*
X149200889Y-115971314D01*
X149414031Y-116144718D01*
X149648800Y-116287484D01*
X149900823Y-116396953D01*
X150165404Y-116471085D01*
X150260504Y-116484156D01*
X150437604Y-116508499D01*
X150437615Y-116508500D01*
X150712385Y-116508500D01*
X150712395Y-116508499D01*
X150841945Y-116490692D01*
X150984596Y-116471085D01*
X151249177Y-116396953D01*
X151501200Y-116287484D01*
X151735969Y-116144718D01*
X151949111Y-115971314D01*
X152136657Y-115770502D01*
X152295111Y-115546023D01*
X152421523Y-115302058D01*
X152513538Y-115043153D01*
X152569442Y-114774130D01*
X152588193Y-114500004D01*
X154911807Y-114500004D01*
X154930556Y-114774116D01*
X154930557Y-114774122D01*
X154930558Y-114774130D01*
X154948238Y-114859210D01*
X154986460Y-115043146D01*
X154986462Y-115043154D01*
X155078408Y-115301865D01*
X155078477Y-115302058D01*
X155204752Y-115545759D01*
X155204892Y-115546028D01*
X155227712Y-115578356D01*
X155363343Y-115770502D01*
X155550889Y-115971314D01*
X155764031Y-116144718D01*
X155998800Y-116287484D01*
X156250823Y-116396953D01*
X156515404Y-116471085D01*
X156610504Y-116484156D01*
X156787604Y-116508499D01*
X156787615Y-116508500D01*
X157062385Y-116508500D01*
X157062395Y-116508499D01*
X157191945Y-116490692D01*
X157334596Y-116471085D01*
X157599177Y-116396953D01*
X157851200Y-116287484D01*
X158085969Y-116144718D01*
X158299111Y-115971314D01*
X158486657Y-115770502D01*
X158645111Y-115546023D01*
X158771523Y-115302058D01*
X158863538Y-115043153D01*
X158919442Y-114774130D01*
X158938193Y-114500004D01*
X161262308Y-114500004D01*
X161281052Y-114774048D01*
X161281053Y-114774054D01*
X161336942Y-115043011D01*
X161336944Y-115043019D01*
X161428938Y-115301865D01*
X161555314Y-115545756D01*
X161555316Y-115545759D01*
X161685541Y-115730248D01*
X162632912Y-114782876D01*
X162694680Y-114900566D01*
X162807405Y-115027806D01*
X162947305Y-115124371D01*
X162992642Y-115141565D01*
X162045715Y-116088492D01*
X162045715Y-116088494D01*
X162114313Y-116144304D01*
X162114318Y-116144307D01*
X162349030Y-116287038D01*
X162600989Y-116396480D01*
X162865509Y-116470595D01*
X163137635Y-116507999D01*
X163137649Y-116508000D01*
X163412351Y-116508000D01*
X163412364Y-116507999D01*
X163684490Y-116470595D01*
X163949010Y-116396480D01*
X164200969Y-116287038D01*
X164435679Y-116144309D01*
X164504283Y-116088493D01*
X164504283Y-116088492D01*
X163557356Y-115141565D01*
X163602695Y-115124371D01*
X163742595Y-115027806D01*
X163855320Y-114900566D01*
X163917087Y-114782877D01*
X164864457Y-115730248D01*
X164994682Y-115545762D01*
X164994685Y-115545756D01*
X165121061Y-115301865D01*
X165213055Y-115043019D01*
X165213057Y-115043011D01*
X165268946Y-114774054D01*
X165268947Y-114774048D01*
X165287692Y-114500004D01*
X165287692Y-114499995D01*
X165268947Y-114225951D01*
X165268946Y-114225945D01*
X165213057Y-113956988D01*
X165213055Y-113956980D01*
X165121061Y-113698134D01*
X164994685Y-113454243D01*
X164994681Y-113454237D01*
X164864457Y-113269750D01*
X163917086Y-114217120D01*
X163855320Y-114099434D01*
X163742595Y-113972194D01*
X163602695Y-113875629D01*
X163557355Y-113858433D01*
X164504283Y-112911504D01*
X164435680Y-112855691D01*
X164200969Y-112712961D01*
X163949010Y-112603519D01*
X163684490Y-112529404D01*
X163412364Y-112492000D01*
X163137635Y-112492000D01*
X162865509Y-112529404D01*
X162600989Y-112603519D01*
X162349030Y-112712961D01*
X162114325Y-112855687D01*
X162045715Y-112911505D01*
X162045714Y-112911505D01*
X162992643Y-113858434D01*
X162947305Y-113875629D01*
X162807405Y-113972194D01*
X162694680Y-114099434D01*
X162632913Y-114217122D01*
X161685541Y-113269750D01*
X161555317Y-113454236D01*
X161428938Y-113698134D01*
X161336944Y-113956980D01*
X161336942Y-113956988D01*
X161281053Y-114225945D01*
X161281052Y-114225951D01*
X161262308Y-114499995D01*
X161262308Y-114500004D01*
X158938193Y-114500004D01*
X158938193Y-114500000D01*
X158921089Y-114249954D01*
X158919443Y-114225883D01*
X158919442Y-114225877D01*
X158919442Y-114225870D01*
X158863538Y-113956847D01*
X158771523Y-113697942D01*
X158645111Y-113453977D01*
X158486657Y-113229498D01*
X158299111Y-113028686D01*
X158085969Y-112855282D01*
X157851200Y-112712516D01*
X157851201Y-112712516D01*
X157851197Y-112712514D01*
X157599180Y-112603048D01*
X157599178Y-112603047D01*
X157599177Y-112603047D01*
X157340892Y-112530679D01*
X157334593Y-112528914D01*
X157062395Y-112491500D01*
X157062385Y-112491500D01*
X156787615Y-112491500D01*
X156787604Y-112491500D01*
X156515406Y-112528914D01*
X156250819Y-112603048D01*
X155998802Y-112712514D01*
X155764028Y-112855284D01*
X155550886Y-113028688D01*
X155363343Y-113229498D01*
X155204892Y-113453971D01*
X155078477Y-113697941D01*
X154986462Y-113956845D01*
X154986460Y-113956853D01*
X154930557Y-114225877D01*
X154930556Y-114225883D01*
X154911807Y-114499995D01*
X154911807Y-114500004D01*
X152588193Y-114500004D01*
X152588193Y-114500000D01*
X152571089Y-114249954D01*
X152569443Y-114225883D01*
X152569442Y-114225877D01*
X152569442Y-114225870D01*
X152513538Y-113956847D01*
X152421523Y-113697942D01*
X152295111Y-113453977D01*
X152136657Y-113229498D01*
X151949111Y-113028686D01*
X151735969Y-112855282D01*
X151501200Y-112712516D01*
X151501201Y-112712516D01*
X151501197Y-112712514D01*
X151249180Y-112603048D01*
X151249178Y-112603047D01*
X151249177Y-112603047D01*
X150990892Y-112530679D01*
X150984593Y-112528914D01*
X150712395Y-112491500D01*
X150712385Y-112491500D01*
X150437615Y-112491500D01*
X150437604Y-112491500D01*
X150165406Y-112528914D01*
X149900819Y-112603048D01*
X149648802Y-112712514D01*
X149414028Y-112855284D01*
X149200886Y-113028688D01*
X149013343Y-113229498D01*
X148854892Y-113453971D01*
X148728477Y-113697941D01*
X148636462Y-113956845D01*
X148636460Y-113956853D01*
X148580557Y-114225877D01*
X148580556Y-114225883D01*
X148561807Y-114499995D01*
X148561807Y-114500004D01*
X142308500Y-114500004D01*
X142308500Y-112756297D01*
X142312161Y-112726143D01*
X142312961Y-112722891D01*
X142312965Y-112722882D01*
X142320526Y-112660601D01*
X142321094Y-112656868D01*
X142332401Y-112595174D01*
X142331893Y-112586789D01*
X142347743Y-112517588D01*
X142380268Y-112479753D01*
X142543240Y-112352906D01*
X142695722Y-112187268D01*
X142784816Y-112050898D01*
X142838819Y-112004810D01*
X142909167Y-111995235D01*
X142973524Y-112025212D01*
X142995782Y-112050898D01*
X143084674Y-112186958D01*
X143237097Y-112352534D01*
X143414698Y-112490767D01*
X143414699Y-112490768D01*
X143612628Y-112597882D01*
X143612630Y-112597883D01*
X143825483Y-112670955D01*
X143825492Y-112670957D01*
X143906000Y-112684391D01*
X143906000Y-111783674D01*
X144017685Y-111834680D01*
X144124237Y-111850000D01*
X144195763Y-111850000D01*
X144302315Y-111834680D01*
X144414000Y-111783674D01*
X144414000Y-112684390D01*
X144494507Y-112670957D01*
X144494516Y-112670955D01*
X144707369Y-112597883D01*
X144707371Y-112597882D01*
X144905300Y-112490768D01*
X144905301Y-112490767D01*
X145082905Y-112352532D01*
X145144047Y-112286113D01*
X145204899Y-112249541D01*
X145275863Y-112251674D01*
X145334409Y-112291835D01*
X145354804Y-112327415D01*
X145399111Y-112446204D01*
X145399112Y-112446207D01*
X145486738Y-112563261D01*
X145603792Y-112650887D01*
X145603794Y-112650888D01*
X145603796Y-112650889D01*
X145657600Y-112670957D01*
X145740795Y-112701988D01*
X145740803Y-112701990D01*
X145801350Y-112708499D01*
X145801355Y-112708499D01*
X145801362Y-112708500D01*
X145801368Y-112708500D01*
X147598632Y-112708500D01*
X147598638Y-112708500D01*
X147598645Y-112708499D01*
X147598649Y-112708499D01*
X147659196Y-112701990D01*
X147659199Y-112701989D01*
X147659201Y-112701989D01*
X147667387Y-112698936D01*
X147692454Y-112689586D01*
X147796204Y-112650889D01*
X147866399Y-112598342D01*
X147913261Y-112563261D01*
X148000887Y-112446207D01*
X148000887Y-112446206D01*
X148000889Y-112446204D01*
X148051989Y-112309201D01*
X148058500Y-112248638D01*
X148058500Y-110451362D01*
X148056141Y-110429419D01*
X148051990Y-110390803D01*
X148051988Y-110390795D01*
X148000889Y-110253797D01*
X148000887Y-110253792D01*
X147913261Y-110136738D01*
X147796207Y-110049112D01*
X147796202Y-110049110D01*
X147659204Y-109998011D01*
X147659196Y-109998009D01*
X147598649Y-109991500D01*
X147598638Y-109991500D01*
X145801362Y-109991500D01*
X145801350Y-109991500D01*
X145740803Y-109998009D01*
X145740795Y-109998011D01*
X145603797Y-110049110D01*
X145603792Y-110049112D01*
X145486738Y-110136738D01*
X145399112Y-110253792D01*
X145399111Y-110253795D01*
X145354804Y-110372584D01*
X145312257Y-110429419D01*
X145245736Y-110454229D01*
X145176362Y-110439137D01*
X145144047Y-110413887D01*
X145082902Y-110347465D01*
X144905301Y-110209232D01*
X144905300Y-110209231D01*
X144707371Y-110102117D01*
X144707369Y-110102116D01*
X144494512Y-110029043D01*
X144494501Y-110029040D01*
X144414000Y-110015606D01*
X144414000Y-110916325D01*
X144302315Y-110865320D01*
X144195763Y-110850000D01*
X144124237Y-110850000D01*
X144017685Y-110865320D01*
X143906000Y-110916325D01*
X143906000Y-110015607D01*
X143905999Y-110015606D01*
X143825498Y-110029040D01*
X143825487Y-110029043D01*
X143612630Y-110102116D01*
X143612628Y-110102117D01*
X143414699Y-110209231D01*
X143414698Y-110209232D01*
X143237097Y-110347465D01*
X143084670Y-110513045D01*
X142995780Y-110649101D01*
X142941776Y-110695189D01*
X142871428Y-110704764D01*
X142807071Y-110674786D01*
X142784816Y-110649101D01*
X142745884Y-110589511D01*
X142695724Y-110512734D01*
X142695720Y-110512729D01*
X142566705Y-110372584D01*
X142543240Y-110347094D01*
X142543238Y-110347092D01*
X142543234Y-110347088D01*
X142377109Y-110217787D01*
X142335638Y-110160162D01*
X142328500Y-110118356D01*
X142328500Y-109751500D01*
X142348502Y-109683379D01*
X142402158Y-109636886D01*
X142454500Y-109625500D01*
X144464470Y-109625500D01*
X144486350Y-109627414D01*
X144496047Y-109629124D01*
X144496047Y-109629123D01*
X144496048Y-109629124D01*
X144505746Y-109627413D01*
X144519067Y-109626248D01*
X144523310Y-109625500D01*
X144523312Y-109625500D01*
X144523313Y-109625499D01*
X144527576Y-109624748D01*
X144540473Y-109621290D01*
X144550172Y-109619581D01*
X144550173Y-109619579D01*
X144556260Y-109616064D01*
X144561641Y-109611549D01*
X144561645Y-109611548D01*
X144566569Y-109603018D01*
X144579165Y-109585028D01*
X144585500Y-109577480D01*
X144585500Y-109577479D01*
X144587902Y-109570879D01*
X144589122Y-109563955D01*
X144589124Y-109563952D01*
X144587414Y-109554253D01*
X144585500Y-109532374D01*
X144585500Y-107845529D01*
X144587414Y-107823648D01*
X144589122Y-107813955D01*
X144589124Y-107813952D01*
X144587414Y-107804253D01*
X144586249Y-107790940D01*
X144585500Y-107786692D01*
X144585500Y-107786688D01*
X144585498Y-107786683D01*
X144584748Y-107782428D01*
X144581290Y-107769522D01*
X144579581Y-107759829D01*
X144579581Y-107759828D01*
X144579579Y-107759827D01*
X144576062Y-107753735D01*
X144571549Y-107748355D01*
X144563016Y-107743429D01*
X144545025Y-107730831D01*
X144537479Y-107724499D01*
X144530881Y-107722097D01*
X144523952Y-107720875D01*
X144514254Y-107722586D01*
X144492375Y-107724500D01*
X142454500Y-107724500D01*
X142386379Y-107704498D01*
X142339886Y-107650842D01*
X142328500Y-107598500D01*
X142328500Y-107031644D01*
X142348502Y-106963523D01*
X142377109Y-106932213D01*
X142543234Y-106802911D01*
X142543237Y-106802908D01*
X142543240Y-106802906D01*
X142695722Y-106637268D01*
X142784816Y-106500898D01*
X142838819Y-106454810D01*
X142909167Y-106445235D01*
X142973524Y-106475212D01*
X142995782Y-106500898D01*
X143084674Y-106636958D01*
X143237097Y-106802534D01*
X143414698Y-106940767D01*
X143414699Y-106940768D01*
X143612628Y-107047882D01*
X143612630Y-107047883D01*
X143825483Y-107120955D01*
X143825492Y-107120957D01*
X143906000Y-107134391D01*
X143906000Y-106233674D01*
X144017685Y-106284680D01*
X144124237Y-106300000D01*
X144195763Y-106300000D01*
X144302315Y-106284680D01*
X144414000Y-106233674D01*
X144414000Y-107134390D01*
X144494507Y-107120957D01*
X144494516Y-107120955D01*
X144707369Y-107047883D01*
X144707371Y-107047882D01*
X144905300Y-106940768D01*
X144905301Y-106940767D01*
X145082905Y-106802532D01*
X145144047Y-106736113D01*
X145204899Y-106699541D01*
X145275863Y-106701674D01*
X145334409Y-106741835D01*
X145354804Y-106777415D01*
X145399111Y-106896204D01*
X145399112Y-106896207D01*
X145486738Y-107013261D01*
X145603792Y-107100887D01*
X145603794Y-107100888D01*
X145603796Y-107100889D01*
X145657600Y-107120957D01*
X145740795Y-107151988D01*
X145740803Y-107151990D01*
X145801350Y-107158499D01*
X145801355Y-107158499D01*
X145801362Y-107158500D01*
X145801368Y-107158500D01*
X147598632Y-107158500D01*
X147598638Y-107158500D01*
X147598645Y-107158499D01*
X147598649Y-107158499D01*
X147659196Y-107151990D01*
X147659199Y-107151989D01*
X147659201Y-107151989D01*
X147796204Y-107100889D01*
X147866399Y-107048342D01*
X147913261Y-107013261D01*
X148000887Y-106896207D01*
X148000887Y-106896206D01*
X148000889Y-106896204D01*
X148051989Y-106759201D01*
X148058500Y-106698638D01*
X148058500Y-104901362D01*
X148056141Y-104879419D01*
X148051990Y-104840803D01*
X148051988Y-104840795D01*
X148007712Y-104722090D01*
X148000889Y-104703796D01*
X148000888Y-104703794D01*
X148000887Y-104703792D01*
X147913261Y-104586738D01*
X147796207Y-104499112D01*
X147796202Y-104499110D01*
X147659204Y-104448011D01*
X147659196Y-104448009D01*
X147598649Y-104441500D01*
X147598638Y-104441500D01*
X145801362Y-104441500D01*
X145801350Y-104441500D01*
X145740803Y-104448009D01*
X145740795Y-104448011D01*
X145603797Y-104499110D01*
X145603792Y-104499112D01*
X145486738Y-104586738D01*
X145399112Y-104703792D01*
X145399111Y-104703795D01*
X145354804Y-104822584D01*
X145312257Y-104879419D01*
X145245736Y-104904229D01*
X145176362Y-104889137D01*
X145144047Y-104863887D01*
X145082902Y-104797465D01*
X144905301Y-104659232D01*
X144905300Y-104659231D01*
X144707371Y-104552117D01*
X144707369Y-104552116D01*
X144494512Y-104479043D01*
X144494501Y-104479040D01*
X144414000Y-104465606D01*
X144414000Y-105366325D01*
X144302315Y-105315320D01*
X144195763Y-105300000D01*
X144124237Y-105300000D01*
X144017685Y-105315320D01*
X143906000Y-105366325D01*
X143906000Y-104465607D01*
X143905999Y-104465606D01*
X143825498Y-104479040D01*
X143825487Y-104479043D01*
X143612630Y-104552116D01*
X143612628Y-104552117D01*
X143414699Y-104659231D01*
X143414698Y-104659232D01*
X143237097Y-104797465D01*
X143084670Y-104963045D01*
X142995780Y-105099101D01*
X142941776Y-105145189D01*
X142871428Y-105154764D01*
X142807071Y-105124786D01*
X142784816Y-105099101D01*
X142745884Y-105039511D01*
X142695724Y-104962734D01*
X142695720Y-104962729D01*
X142551116Y-104805650D01*
X142543240Y-104797094D01*
X142543238Y-104797092D01*
X142543234Y-104797088D01*
X142377109Y-104667787D01*
X142335638Y-104610162D01*
X142328500Y-104568356D01*
X142328500Y-99785659D01*
X142348502Y-99717538D01*
X142365405Y-99696564D01*
X149766565Y-92295405D01*
X149828877Y-92261379D01*
X149855660Y-92258500D01*
X156736685Y-92258500D01*
X156740488Y-92258614D01*
X156803093Y-92262402D01*
X156864812Y-92251091D01*
X156868525Y-92250526D01*
X156930801Y-92242965D01*
X156940330Y-92239350D01*
X156962304Y-92233226D01*
X156972329Y-92231389D01*
X157029552Y-92205634D01*
X157033009Y-92204202D01*
X157091675Y-92181954D01*
X157100066Y-92176161D01*
X157119922Y-92164961D01*
X157129226Y-92160775D01*
X157178636Y-92122063D01*
X157181621Y-92119867D01*
X157233273Y-92084215D01*
X157274896Y-92037231D01*
X157277449Y-92034519D01*
X161494519Y-87817449D01*
X161497231Y-87814896D01*
X161544215Y-87773273D01*
X161579846Y-87721652D01*
X161582084Y-87718609D01*
X161620775Y-87669225D01*
X161624955Y-87659935D01*
X161636159Y-87640069D01*
X161641954Y-87631675D01*
X161664197Y-87573020D01*
X161665649Y-87569519D01*
X161668681Y-87562779D01*
X161691389Y-87512329D01*
X161693227Y-87502293D01*
X161699347Y-87480340D01*
X161702965Y-87470801D01*
X161710526Y-87408523D01*
X161711090Y-87404815D01*
X161722402Y-87343092D01*
X161718614Y-87280481D01*
X161718500Y-87276679D01*
X161718500Y-72550000D01*
X162947004Y-72550000D01*
X162966951Y-72778002D01*
X163026186Y-72999068D01*
X163026188Y-72999073D01*
X163122913Y-73206501D01*
X163172899Y-73277888D01*
X163861272Y-72589516D01*
X163874835Y-72675148D01*
X163932359Y-72788045D01*
X164021955Y-72877641D01*
X164134852Y-72935165D01*
X164220482Y-72948727D01*
X163520429Y-73648779D01*
X163515290Y-73674350D01*
X163465891Y-73725342D01*
X163414631Y-73740342D01*
X163414717Y-73741139D01*
X163350803Y-73748009D01*
X163350795Y-73748011D01*
X163213797Y-73799110D01*
X163213792Y-73799112D01*
X163096738Y-73886738D01*
X163009112Y-74003792D01*
X163009110Y-74003797D01*
X162958011Y-74140795D01*
X162958009Y-74140803D01*
X162951500Y-74201350D01*
X162951500Y-75898649D01*
X162958009Y-75959196D01*
X162958011Y-75959204D01*
X163009110Y-76096202D01*
X163009112Y-76096207D01*
X163096738Y-76213261D01*
X163213792Y-76300887D01*
X163213794Y-76300888D01*
X163213796Y-76300889D01*
X163272875Y-76322924D01*
X163350795Y-76351988D01*
X163350803Y-76351990D01*
X163411350Y-76358499D01*
X163411355Y-76358499D01*
X163411362Y-76358500D01*
X163411368Y-76358500D01*
X165108632Y-76358500D01*
X165108638Y-76358500D01*
X165108645Y-76358499D01*
X165108649Y-76358499D01*
X165169196Y-76351990D01*
X165169199Y-76351989D01*
X165169201Y-76351989D01*
X165306204Y-76300889D01*
X165423261Y-76213261D01*
X165510889Y-76096204D01*
X165561989Y-75959201D01*
X165568500Y-75898638D01*
X165568500Y-74201362D01*
X165568499Y-74201350D01*
X165561990Y-74140803D01*
X165561988Y-74140795D01*
X165510889Y-74003797D01*
X165510887Y-74003792D01*
X165423261Y-73886738D01*
X165306207Y-73799112D01*
X165306202Y-73799110D01*
X165169204Y-73748011D01*
X165169196Y-73748009D01*
X165105283Y-73741139D01*
X165105394Y-73740103D01*
X165042528Y-73717916D01*
X164998982Y-73661842D01*
X164996672Y-73645881D01*
X164299518Y-72948727D01*
X164385148Y-72935165D01*
X164498045Y-72877641D01*
X164587641Y-72788045D01*
X164645165Y-72675148D01*
X164658727Y-72589518D01*
X165347097Y-73277888D01*
X165347099Y-73277888D01*
X165397088Y-73206497D01*
X165493811Y-72999073D01*
X165493813Y-72999068D01*
X165553048Y-72778002D01*
X165572995Y-72550000D01*
X165553048Y-72321997D01*
X165493813Y-72100931D01*
X165493811Y-72100926D01*
X165397086Y-71893498D01*
X165347100Y-71822110D01*
X165347098Y-71822110D01*
X164658727Y-72510481D01*
X164645165Y-72424852D01*
X164587641Y-72311955D01*
X164498045Y-72222359D01*
X164385148Y-72164835D01*
X164299517Y-72151272D01*
X164987888Y-71462899D01*
X164987888Y-71462898D01*
X164916501Y-71412913D01*
X164709073Y-71316188D01*
X164709068Y-71316186D01*
X164488000Y-71256951D01*
X164488004Y-71256951D01*
X164260000Y-71237004D01*
X164031997Y-71256951D01*
X163810931Y-71316186D01*
X163810926Y-71316188D01*
X163603500Y-71412913D01*
X163532109Y-71462900D01*
X164220481Y-72151272D01*
X164134852Y-72164835D01*
X164021955Y-72222359D01*
X163932359Y-72311955D01*
X163874835Y-72424852D01*
X163861272Y-72510481D01*
X163172900Y-71822109D01*
X163122913Y-71893500D01*
X163026188Y-72100926D01*
X163026186Y-72100931D01*
X162966951Y-72321997D01*
X162947004Y-72550000D01*
X161718500Y-72550000D01*
X161718500Y-58073313D01*
X161718615Y-58069508D01*
X161719843Y-58049204D01*
X161722402Y-58006907D01*
X161711090Y-57945182D01*
X161710527Y-57941478D01*
X161702965Y-57879199D01*
X161702964Y-57879196D01*
X161699351Y-57869668D01*
X161693227Y-57847702D01*
X161691389Y-57837673D01*
X161691389Y-57837671D01*
X161665646Y-57780473D01*
X161664189Y-57776956D01*
X161641957Y-57718332D01*
X161641955Y-57718329D01*
X161641954Y-57718325D01*
X161636163Y-57709935D01*
X161624958Y-57690070D01*
X161620775Y-57680774D01*
X161582088Y-57631395D01*
X161579846Y-57628348D01*
X161544215Y-57576727D01*
X161497249Y-57535119D01*
X161494503Y-57532533D01*
X160567464Y-56605494D01*
X160564880Y-56602750D01*
X160523273Y-56555785D01*
X160523270Y-56555783D01*
X160523271Y-56555783D01*
X160471655Y-56520154D01*
X160468590Y-56517899D01*
X160450146Y-56503449D01*
X160419226Y-56479225D01*
X160419222Y-56479223D01*
X160409919Y-56475035D01*
X160390069Y-56463840D01*
X160381675Y-56458046D01*
X160358705Y-56449334D01*
X160323043Y-56435809D01*
X160319528Y-56434353D01*
X160262332Y-56408612D01*
X160262330Y-56408611D01*
X160262329Y-56408611D01*
X160252286Y-56406770D01*
X160230336Y-56400650D01*
X160220801Y-56397035D01*
X160220800Y-56397034D01*
X160220798Y-56397034D01*
X160220794Y-56397033D01*
X160168362Y-56390667D01*
X160158537Y-56389473D01*
X160154786Y-56388902D01*
X160113760Y-56381385D01*
X160093094Y-56377598D01*
X160093093Y-56377598D01*
X160030488Y-56381385D01*
X160026685Y-56381500D01*
X154744500Y-56381500D01*
X154676379Y-56361498D01*
X154629886Y-56307842D01*
X154618500Y-56255500D01*
X154618500Y-56191367D01*
X154618499Y-56191350D01*
X154611990Y-56130803D01*
X154611988Y-56130795D01*
X154560889Y-55993797D01*
X154560887Y-55993792D01*
X154473261Y-55876738D01*
X154356207Y-55789112D01*
X154356204Y-55789111D01*
X154240686Y-55746024D01*
X154183851Y-55703477D01*
X154159041Y-55636957D01*
X154174133Y-55567583D01*
X154192019Y-55542632D01*
X154335323Y-55386961D01*
X154458419Y-55198548D01*
X154548820Y-54992456D01*
X154548823Y-54992449D01*
X154596544Y-54804000D01*
X153691116Y-54804000D01*
X153719493Y-54759844D01*
X153760000Y-54621889D01*
X153760000Y-54478111D01*
X153719493Y-54340156D01*
X153691116Y-54296000D01*
X154596544Y-54296000D01*
X154596544Y-54295999D01*
X154548823Y-54107550D01*
X154548820Y-54107543D01*
X154458419Y-53901451D01*
X154335325Y-53713041D01*
X154182902Y-53547465D01*
X154005301Y-53409232D01*
X154005300Y-53409231D01*
X153807371Y-53302117D01*
X153807369Y-53302116D01*
X153594512Y-53229043D01*
X153594501Y-53229040D01*
X153514000Y-53215606D01*
X153514000Y-54116325D01*
X153402315Y-54065320D01*
X153295763Y-54050000D01*
X153224237Y-54050000D01*
X153117685Y-54065320D01*
X153006000Y-54116325D01*
X153006000Y-53215606D01*
X153005999Y-53215606D01*
X152925498Y-53229040D01*
X152925487Y-53229043D01*
X152712630Y-53302116D01*
X152712628Y-53302117D01*
X152514699Y-53409231D01*
X152514698Y-53409232D01*
X152337097Y-53547465D01*
X152184674Y-53713041D01*
X152061580Y-53901451D01*
X151971179Y-54107543D01*
X151971176Y-54107550D01*
X151923455Y-54295999D01*
X151923456Y-54296000D01*
X152828884Y-54296000D01*
X152800507Y-54340156D01*
X152760000Y-54478111D01*
X152760000Y-54621889D01*
X152800507Y-54759844D01*
X152828884Y-54804000D01*
X151923455Y-54804000D01*
X151971176Y-54992449D01*
X151971179Y-54992456D01*
X152061580Y-55198548D01*
X152184674Y-55386958D01*
X152327981Y-55542632D01*
X152359401Y-55606297D01*
X152351414Y-55676843D01*
X152306555Y-55731872D01*
X152279313Y-55746024D01*
X152163795Y-55789111D01*
X152163792Y-55789112D01*
X152046738Y-55876738D01*
X151959112Y-55993792D01*
X151959110Y-55993797D01*
X151908011Y-56130795D01*
X151908009Y-56130803D01*
X151901500Y-56191350D01*
X151901500Y-57988649D01*
X151908009Y-58049196D01*
X151908011Y-58049204D01*
X151959110Y-58186202D01*
X151959112Y-58186207D01*
X152046738Y-58303261D01*
X152163792Y-58390887D01*
X152163794Y-58390888D01*
X152163796Y-58390889D01*
X152222875Y-58412924D01*
X152300795Y-58441988D01*
X152300803Y-58441990D01*
X152361350Y-58448499D01*
X152361355Y-58448499D01*
X152361362Y-58448500D01*
X152361368Y-58448500D01*
X154158632Y-58448500D01*
X154158638Y-58448500D01*
X154158645Y-58448499D01*
X154158649Y-58448499D01*
X154219196Y-58441990D01*
X154219199Y-58441989D01*
X154219201Y-58441989D01*
X154356204Y-58390889D01*
X154473261Y-58303261D01*
X154560889Y-58186204D01*
X154611989Y-58049201D01*
X154618500Y-57988638D01*
X154618500Y-57924499D01*
X154638502Y-57856379D01*
X154692158Y-57809886D01*
X154744500Y-57798500D01*
X159704340Y-57798500D01*
X159772461Y-57818502D01*
X159793435Y-57835405D01*
X160264595Y-58306565D01*
X160298621Y-58368877D01*
X160301500Y-58395660D01*
X160301500Y-63116353D01*
X160281498Y-63184474D01*
X160227842Y-63230967D01*
X160157568Y-63241071D01*
X160122250Y-63230548D01*
X159931608Y-63141650D01*
X159931603Y-63141648D01*
X159724052Y-63086036D01*
X159510000Y-63067309D01*
X159295947Y-63086036D01*
X159088396Y-63141648D01*
X159088392Y-63141650D01*
X158893651Y-63232459D01*
X158839552Y-63270339D01*
X158839552Y-63270340D01*
X159470482Y-63901272D01*
X159384852Y-63914835D01*
X159271955Y-63972359D01*
X159182359Y-64061955D01*
X159124835Y-64174852D01*
X159111272Y-64260482D01*
X158480340Y-63629552D01*
X158480339Y-63629552D01*
X158442459Y-63683651D01*
X158351650Y-63878392D01*
X158351648Y-63878396D01*
X158296036Y-64085947D01*
X158277309Y-64299999D01*
X158296036Y-64514052D01*
X158351648Y-64721603D01*
X158351650Y-64721607D01*
X158442459Y-64916347D01*
X158480340Y-64970448D01*
X159111272Y-64339516D01*
X159124835Y-64425148D01*
X159182359Y-64538045D01*
X159271955Y-64627641D01*
X159384852Y-64685165D01*
X159470482Y-64698727D01*
X158839551Y-65329658D01*
X158839551Y-65329660D01*
X158893650Y-65367540D01*
X159088391Y-65458349D01*
X159088396Y-65458351D01*
X159295947Y-65513963D01*
X159510000Y-65532690D01*
X159724052Y-65513963D01*
X159931603Y-65458351D01*
X159931607Y-65458349D01*
X160122250Y-65369451D01*
X160192441Y-65358790D01*
X160257254Y-65387770D01*
X160296111Y-65447189D01*
X160301500Y-65483646D01*
X160301500Y-86954339D01*
X160281498Y-87022460D01*
X160264595Y-87043434D01*
X156503435Y-90804595D01*
X156441123Y-90838621D01*
X156414340Y-90841500D01*
X149533315Y-90841500D01*
X149529511Y-90841385D01*
X149466907Y-90837598D01*
X149466906Y-90837598D01*
X149405201Y-90848904D01*
X149401441Y-90849476D01*
X149339199Y-90857034D01*
X149329661Y-90860651D01*
X149307711Y-90866770D01*
X149297678Y-90868609D01*
X149297665Y-90868613D01*
X149240476Y-90894351D01*
X149236961Y-90895807D01*
X149178326Y-90918045D01*
X149169921Y-90923846D01*
X149150080Y-90935035D01*
X149140779Y-90939222D01*
X149140769Y-90939227D01*
X149091401Y-90977904D01*
X149088339Y-90980157D01*
X149036726Y-91015784D01*
X148995126Y-91062740D01*
X148992518Y-91065511D01*
X141135511Y-98922518D01*
X141132740Y-98925126D01*
X141085784Y-98966726D01*
X141050157Y-99018339D01*
X141047904Y-99021401D01*
X141009227Y-99070769D01*
X141009222Y-99070779D01*
X141005035Y-99080080D01*
X140993846Y-99099921D01*
X140988045Y-99108326D01*
X140965807Y-99166961D01*
X140964351Y-99170476D01*
X140938613Y-99227665D01*
X140938609Y-99227678D01*
X140936770Y-99237711D01*
X140930651Y-99259661D01*
X140927034Y-99269199D01*
X140919476Y-99331441D01*
X140918904Y-99335201D01*
X140907598Y-99396906D01*
X140911385Y-99459508D01*
X140911500Y-99463313D01*
X140911500Y-104568356D01*
X140891498Y-104636477D01*
X140862891Y-104667787D01*
X140696765Y-104797088D01*
X140544279Y-104962729D01*
X140455483Y-105098643D01*
X140401479Y-105144731D01*
X140331131Y-105154306D01*
X140266774Y-105124329D01*
X140244517Y-105098643D01*
X140155720Y-104962729D01*
X140011116Y-104805650D01*
X140003240Y-104797094D01*
X140003239Y-104797093D01*
X140003237Y-104797091D01*
X139883372Y-104703796D01*
X139825576Y-104658811D01*
X139627574Y-104551658D01*
X139627572Y-104551657D01*
X139627571Y-104551656D01*
X139414639Y-104478557D01*
X139414630Y-104478555D01*
X139337029Y-104465606D01*
X139192569Y-104441500D01*
X138967431Y-104441500D01*
X138822971Y-104465606D01*
X138745369Y-104478555D01*
X138745360Y-104478557D01*
X138532428Y-104551656D01*
X138532426Y-104551658D01*
X138374253Y-104637257D01*
X138334426Y-104658810D01*
X138334424Y-104658811D01*
X138156762Y-104797091D01*
X138004279Y-104962729D01*
X138004275Y-104962734D01*
X137881141Y-105151206D01*
X137790703Y-105357386D01*
X137790702Y-105357387D01*
X137735437Y-105575624D01*
X137735436Y-105575630D01*
X137735436Y-105575632D01*
X137716844Y-105800000D01*
X137734232Y-106009844D01*
X137735437Y-106024375D01*
X137790702Y-106242612D01*
X137790703Y-106242613D01*
X137881141Y-106448793D01*
X138004275Y-106637265D01*
X138004279Y-106637270D01*
X138156762Y-106802908D01*
X138156766Y-106802911D01*
X138334424Y-106941189D01*
X138532426Y-107048342D01*
X138532427Y-107048342D01*
X138532428Y-107048343D01*
X138644227Y-107086723D01*
X138745365Y-107121444D01*
X138967431Y-107158500D01*
X138967435Y-107158500D01*
X139192565Y-107158500D01*
X139192569Y-107158500D01*
X139414635Y-107121444D01*
X139627574Y-107048342D01*
X139825576Y-106941189D01*
X140003240Y-106802906D01*
X140155722Y-106637268D01*
X140244518Y-106501354D01*
X140298520Y-106455268D01*
X140368868Y-106445692D01*
X140433225Y-106475669D01*
X140455480Y-106501353D01*
X140488607Y-106552058D01*
X140544275Y-106637265D01*
X140544279Y-106637270D01*
X140696765Y-106802911D01*
X140862891Y-106932213D01*
X140904362Y-106989838D01*
X140911500Y-107031644D01*
X140911500Y-107658605D01*
X140891498Y-107726726D01*
X140837842Y-107773219D01*
X140767568Y-107783323D01*
X140702988Y-107753829D01*
X140676382Y-107721607D01*
X140666064Y-107703736D01*
X140661549Y-107698355D01*
X140653016Y-107693429D01*
X140635025Y-107680831D01*
X140627479Y-107674499D01*
X140620881Y-107672097D01*
X140613952Y-107670875D01*
X140604254Y-107672586D01*
X140582375Y-107674500D01*
X137395247Y-107674500D01*
X137375872Y-107671948D01*
X137349445Y-107674260D01*
X137343953Y-107674500D01*
X137336688Y-107674500D01*
X137336686Y-107674500D01*
X137329524Y-107675763D01*
X137324079Y-107676479D01*
X137316046Y-107677181D01*
X137306458Y-107681652D01*
X137298354Y-107688452D01*
X137297876Y-107689281D01*
X137277855Y-107715370D01*
X135355631Y-109637595D01*
X135293319Y-109671620D01*
X135266536Y-109674500D01*
X116583464Y-109674500D01*
X116515343Y-109654498D01*
X116494369Y-109637595D01*
X115112405Y-108255630D01*
X115078379Y-108193318D01*
X115075500Y-108166535D01*
X115075500Y-98644238D01*
X117001500Y-98644238D01*
X117040776Y-98929987D01*
X117040777Y-98929989D01*
X117118600Y-99207744D01*
X117118600Y-99207745D01*
X117228783Y-99461411D01*
X117233519Y-99472314D01*
X117383394Y-99718772D01*
X117383396Y-99718775D01*
X117383399Y-99718779D01*
X117565420Y-99942512D01*
X117565424Y-99942516D01*
X117565432Y-99942526D01*
X117776242Y-100139409D01*
X118011897Y-100305753D01*
X118268008Y-100438459D01*
X118539804Y-100535055D01*
X118822222Y-100593742D01*
X118822233Y-100593742D01*
X118822235Y-100593743D01*
X118918751Y-100600344D01*
X119037971Y-100608500D01*
X119037973Y-100608500D01*
X120982027Y-100608500D01*
X120982029Y-100608500D01*
X121146766Y-100597231D01*
X121197764Y-100593743D01*
X121197764Y-100593742D01*
X121197778Y-100593742D01*
X121480196Y-100535055D01*
X121751992Y-100438459D01*
X122008103Y-100305753D01*
X122243758Y-100139409D01*
X122454568Y-99942526D01*
X122636606Y-99718772D01*
X122786481Y-99472314D01*
X122901400Y-99207744D01*
X122979223Y-98929989D01*
X122991438Y-98841117D01*
X123018499Y-98644238D01*
X123018500Y-98644225D01*
X123018500Y-98355774D01*
X123018499Y-98355761D01*
X122979223Y-98070012D01*
X122979223Y-98070011D01*
X122901400Y-97792256D01*
X122786481Y-97527686D01*
X122636606Y-97281228D01*
X122636601Y-97281222D01*
X122636600Y-97281220D01*
X122454579Y-97057487D01*
X122454575Y-97057483D01*
X122454568Y-97057474D01*
X122243758Y-96860591D01*
X122008103Y-96694247D01*
X121751992Y-96561541D01*
X121480197Y-96464945D01*
X121480189Y-96464943D01*
X121352661Y-96438443D01*
X121197778Y-96406258D01*
X121197773Y-96406257D01*
X121197770Y-96406257D01*
X121197764Y-96406256D01*
X121116620Y-96400706D01*
X121050023Y-96376102D01*
X121007300Y-96319399D01*
X121002015Y-96248599D01*
X121035846Y-96186182D01*
X121098052Y-96151963D01*
X121116620Y-96149294D01*
X121197764Y-96143743D01*
X121197764Y-96143742D01*
X121197778Y-96143742D01*
X121480196Y-96085055D01*
X121751992Y-95988459D01*
X122008103Y-95855753D01*
X122243758Y-95689409D01*
X122454568Y-95492526D01*
X122636606Y-95268772D01*
X122786481Y-95022314D01*
X122843102Y-94891961D01*
X122868148Y-94834301D01*
X122913633Y-94779789D01*
X122981370Y-94758522D01*
X122983716Y-94758500D01*
X123736685Y-94758500D01*
X123740488Y-94758614D01*
X123803093Y-94762402D01*
X123864812Y-94751091D01*
X123868525Y-94750526D01*
X123930801Y-94742965D01*
X123940330Y-94739350D01*
X123962304Y-94733226D01*
X123972329Y-94731389D01*
X124029552Y-94705634D01*
X124033009Y-94704202D01*
X124091675Y-94681954D01*
X124100066Y-94676161D01*
X124119922Y-94664961D01*
X124129226Y-94660775D01*
X124178636Y-94622063D01*
X124181621Y-94619867D01*
X124233273Y-94584215D01*
X124274888Y-94537239D01*
X124277457Y-94534511D01*
X125076536Y-93735433D01*
X125138846Y-93701410D01*
X125139136Y-93701347D01*
X125292288Y-93668794D01*
X125466752Y-93591118D01*
X125621253Y-93478866D01*
X125749040Y-93336944D01*
X125844527Y-93171556D01*
X125903542Y-92989928D01*
X125923504Y-92800000D01*
X125903542Y-92610072D01*
X125844527Y-92428444D01*
X125749040Y-92263056D01*
X125749038Y-92263054D01*
X125749034Y-92263048D01*
X125621255Y-92121135D01*
X125466752Y-92008882D01*
X125292288Y-91931206D01*
X125105487Y-91891500D01*
X124914513Y-91891500D01*
X124727711Y-91931206D01*
X124553247Y-92008882D01*
X124398744Y-92121135D01*
X124270965Y-92263048D01*
X124270958Y-92263058D01*
X124175476Y-92428438D01*
X124175473Y-92428445D01*
X124116457Y-92610072D01*
X124111549Y-92656770D01*
X124084535Y-92722427D01*
X124075335Y-92732693D01*
X123503435Y-93304595D01*
X123441122Y-93338620D01*
X123414339Y-93341500D01*
X122983716Y-93341500D01*
X122915595Y-93321498D01*
X122869102Y-93267842D01*
X122868148Y-93265699D01*
X122786485Y-93077694D01*
X122786483Y-93077690D01*
X122786481Y-93077686D01*
X122636606Y-92831228D01*
X122636601Y-92831222D01*
X122636600Y-92831220D01*
X122454579Y-92607487D01*
X122454575Y-92607483D01*
X122454568Y-92607474D01*
X122243758Y-92410591D01*
X122008103Y-92244247D01*
X121751992Y-92111541D01*
X121675104Y-92084215D01*
X121480197Y-92014945D01*
X121480189Y-92014943D01*
X121352661Y-91988443D01*
X121197778Y-91956258D01*
X121197773Y-91956257D01*
X121197770Y-91956257D01*
X121197764Y-91956256D01*
X121116620Y-91950706D01*
X121050023Y-91926102D01*
X121007300Y-91869399D01*
X121002015Y-91798599D01*
X121035846Y-91736182D01*
X121098052Y-91701963D01*
X121116620Y-91699294D01*
X121197764Y-91693743D01*
X121197764Y-91693742D01*
X121197778Y-91693742D01*
X121480196Y-91635055D01*
X121751992Y-91538459D01*
X122008103Y-91405753D01*
X122243758Y-91239409D01*
X122454568Y-91042526D01*
X122636606Y-90818772D01*
X122786481Y-90572314D01*
X122901400Y-90307744D01*
X122979223Y-90029989D01*
X122994127Y-89921554D01*
X123018499Y-89744238D01*
X123018500Y-89744225D01*
X123018500Y-89455774D01*
X123018499Y-89455761D01*
X122979223Y-89170012D01*
X122979223Y-89170011D01*
X122901400Y-88892256D01*
X122786481Y-88627686D01*
X122636606Y-88381228D01*
X122636601Y-88381222D01*
X122636600Y-88381220D01*
X122454579Y-88157487D01*
X122454575Y-88157483D01*
X122454568Y-88157474D01*
X122243758Y-87960591D01*
X122008103Y-87794247D01*
X121751992Y-87661541D01*
X121718081Y-87649489D01*
X121480197Y-87564945D01*
X121480189Y-87564943D01*
X121352661Y-87538443D01*
X121197778Y-87506258D01*
X121197773Y-87506257D01*
X121197770Y-87506257D01*
X121197764Y-87506256D01*
X121007057Y-87493212D01*
X120982029Y-87491500D01*
X119037971Y-87491500D01*
X119014315Y-87493118D01*
X118822235Y-87506256D01*
X118822229Y-87506257D01*
X118822225Y-87506257D01*
X118822222Y-87506258D01*
X118715927Y-87528346D01*
X118539810Y-87564943D01*
X118539802Y-87564945D01*
X118268007Y-87661541D01*
X118011897Y-87794247D01*
X118011896Y-87794247D01*
X117776242Y-87960591D01*
X117565435Y-88157471D01*
X117565420Y-88157487D01*
X117383399Y-88381220D01*
X117233516Y-88627691D01*
X117118601Y-88892254D01*
X117040776Y-89170012D01*
X117001500Y-89455761D01*
X117001500Y-89744238D01*
X117040776Y-90029987D01*
X117040777Y-90029989D01*
X117118600Y-90307744D01*
X117118600Y-90307745D01*
X117224435Y-90551401D01*
X117233519Y-90572314D01*
X117383394Y-90818772D01*
X117383396Y-90818775D01*
X117383399Y-90818779D01*
X117565420Y-91042512D01*
X117565424Y-91042516D01*
X117565432Y-91042526D01*
X117776242Y-91239409D01*
X118011897Y-91405753D01*
X118268008Y-91538459D01*
X118539804Y-91635055D01*
X118822222Y-91693742D01*
X118822233Y-91693742D01*
X118822235Y-91693743D01*
X118841348Y-91695050D01*
X118903379Y-91699293D01*
X118969975Y-91723896D01*
X119012699Y-91780599D01*
X119017984Y-91851398D01*
X118984154Y-91913816D01*
X118921948Y-91948035D01*
X118903381Y-91950705D01*
X118822234Y-91956256D01*
X118822229Y-91956257D01*
X118822225Y-91956257D01*
X118822222Y-91956258D01*
X118715927Y-91978346D01*
X118539810Y-92014943D01*
X118539802Y-92014945D01*
X118268007Y-92111541D01*
X118011897Y-92244247D01*
X118011896Y-92244247D01*
X117776242Y-92410591D01*
X117565435Y-92607471D01*
X117565420Y-92607487D01*
X117383399Y-92831220D01*
X117233516Y-93077691D01*
X117134958Y-93304595D01*
X117118929Y-93341500D01*
X117118601Y-93342254D01*
X117040776Y-93620012D01*
X117001500Y-93905761D01*
X117001500Y-94194238D01*
X117040776Y-94479987D01*
X117056426Y-94535842D01*
X117118600Y-94757744D01*
X117118600Y-94757745D01*
X117233515Y-95022305D01*
X117233519Y-95022314D01*
X117383394Y-95268772D01*
X117383396Y-95268775D01*
X117383399Y-95268779D01*
X117565420Y-95492512D01*
X117565424Y-95492516D01*
X117565432Y-95492526D01*
X117776242Y-95689409D01*
X118011897Y-95855753D01*
X118268008Y-95988459D01*
X118539804Y-96085055D01*
X118822222Y-96143742D01*
X118822233Y-96143742D01*
X118822235Y-96143743D01*
X118903379Y-96149294D01*
X118969976Y-96173898D01*
X119012699Y-96230601D01*
X119017984Y-96301401D01*
X118984153Y-96363818D01*
X118921946Y-96398037D01*
X118903379Y-96400706D01*
X118822235Y-96406256D01*
X118822229Y-96406257D01*
X118822225Y-96406257D01*
X118822222Y-96406258D01*
X118715927Y-96428346D01*
X118539810Y-96464943D01*
X118539802Y-96464945D01*
X118268007Y-96561541D01*
X118011897Y-96694247D01*
X118011896Y-96694247D01*
X117776242Y-96860591D01*
X117565435Y-97057471D01*
X117565420Y-97057487D01*
X117383399Y-97281220D01*
X117233516Y-97527691D01*
X117118601Y-97792254D01*
X117040776Y-98070012D01*
X117001500Y-98355761D01*
X117001500Y-98644238D01*
X115075500Y-98644238D01*
X115075500Y-57083463D01*
X115095502Y-57015342D01*
X115112405Y-56994368D01*
X119994368Y-52112405D01*
X120056680Y-52078379D01*
X120083463Y-52075500D01*
X136548500Y-52075500D01*
X136616621Y-52095502D01*
G37*
%TD.AperFunction*%
%TA.AperFunction,Conductor*%
G36*
X132707012Y-82869436D02*
G01*
X132713595Y-82875565D01*
X141064595Y-91226565D01*
X141098621Y-91288877D01*
X141101500Y-91315660D01*
X141101500Y-91515500D01*
X141081498Y-91583621D01*
X141027842Y-91630114D01*
X140975500Y-91641500D01*
X140914513Y-91641500D01*
X140727711Y-91681206D01*
X140553247Y-91758882D01*
X140398744Y-91871135D01*
X140270965Y-92013048D01*
X140270958Y-92013058D01*
X140175476Y-92178438D01*
X140175473Y-92178445D01*
X140116457Y-92360072D01*
X140096496Y-92550000D01*
X140116457Y-92739927D01*
X140146121Y-92831220D01*
X140175473Y-92921556D01*
X140175476Y-92921561D01*
X140270958Y-93086941D01*
X140274843Y-93092288D01*
X140273233Y-93093457D01*
X140299853Y-93148925D01*
X140301500Y-93169229D01*
X140301500Y-94802866D01*
X140281498Y-94870987D01*
X140264595Y-94891961D01*
X132713594Y-102442962D01*
X132651282Y-102476988D01*
X132580467Y-102471923D01*
X132523631Y-102429376D01*
X132498820Y-102362856D01*
X132498499Y-102353867D01*
X132498499Y-101855834D01*
X132518501Y-101787717D01*
X132552227Y-101752626D01*
X132602038Y-101717749D01*
X132757749Y-101562038D01*
X132884056Y-101381654D01*
X132977120Y-101182076D01*
X133034115Y-100969371D01*
X133053307Y-100750000D01*
X133034115Y-100530629D01*
X132977120Y-100317924D01*
X132884056Y-100118347D01*
X132757749Y-99937962D01*
X132602038Y-99782251D01*
X132602037Y-99782250D01*
X132602036Y-99782249D01*
X132602033Y-99782247D01*
X132562228Y-99754375D01*
X132517899Y-99698918D01*
X132508499Y-99651167D01*
X132508499Y-86405838D01*
X132528501Y-86337718D01*
X132562229Y-86302625D01*
X132612038Y-86267749D01*
X132767749Y-86112038D01*
X132894056Y-85931654D01*
X132987120Y-85732076D01*
X133044115Y-85519371D01*
X133063307Y-85300000D01*
X133044115Y-85080629D01*
X132987120Y-84867924D01*
X132894056Y-84668347D01*
X132767749Y-84487962D01*
X132612038Y-84332251D01*
X132612035Y-84332249D01*
X132552228Y-84290371D01*
X132507900Y-84234914D01*
X132498500Y-84187159D01*
X132498500Y-82964660D01*
X132518502Y-82896539D01*
X132572158Y-82850046D01*
X132642432Y-82839942D01*
X132707012Y-82869436D01*
G37*
%TD.AperFunction*%
%TD*%
M02*
